<?xml version="1.0" encoding="utf-8"?>
<!-- Generator: Adobe Illustrator 18.1.1, SVG Export Plug-In . SVG Version: 6.00 Build 0)  -->
<!DOCTYPE svg PUBLIC "-//W3C//DTD SVG 1.1//EN" "http://www.w3.org/Graphics/SVG/1.1/DTD/svg11.dtd">
<svg version="1.1" xmlns="http://www.w3.org/2000/svg" xmlns:xlink="http://www.w3.org/1999/xlink" x="0px" y="0px"
	 viewBox="0 0 512 512" enable-background="new 0 0 512 512" xml:space="preserve">
<g id="Layer_1">
	<g>
		<path d="M385,274.6c24.1-29.9,36.7-65.6,36.7-103.4C421.7,82.5,359.8,6,263.9,6h-16C167.9,6,90.3,82.8,90.3,171.5
			c0,37.9,12.8,73.8,36.8,103.6c19.7,24.8,31.1,52.2,43.1,80.8c0.4,0.9,0.8,1.1,1.2,3.1h-9.8c-10.2,0-18.5,8.8-18.5,19
			s8.3,19,18.5,19h184.9c10.2,0,18.5-8.8,18.5-19s-8.3-19-18.5-19H340c0.6-2,1.2-3,1.8-4.4C353.8,326,365.4,299.3,385,274.6z"/>
		<path d="M328.1,414H180.1c-10.2,0-18.5,7.3-18.5,17.5s8.3,17.5,18.5,17.5h147.9c10.2,0,18.5-7.3,18.5-17.5S338.3,414,328.1,414z"
			/>
		<path d="M291.1,470h-74c-10.2,0-18.5,7.8-18.5,18s8.3,18,18.5,18h74c10.2,0,18.5-7.8,18.5-18S301.3,470,291.1,470z"/>
	</g>
</g>
<g id="Layer_2">
</g>
</svg>
