<?xml version="1.0" encoding="utf-8"?>
<!-- Generator: Adobe Illustrator 18.1.1, SVG Export Plug-In . SVG Version: 6.00 Build 0)  -->
<!DOCTYPE svg PUBLIC "-//W3C//DTD SVG 1.1//EN" "http://www.w3.org/Graphics/SVG/1.1/DTD/svg11.dtd">
<svg version="1.1" xmlns="http://www.w3.org/2000/svg" xmlns:xlink="http://www.w3.org/1999/xlink" x="0px" y="0px"
	 viewBox="0 0 512 512" enable-background="new 0 0 512 512" xml:space="preserve">
<g id="Layer_1">
	<g>
		<path d="M353.1,272c19.4-24.2,29.6-53,29.6-83.6c0-71.6-50-133.4-127.5-133.4h-12.9C177.7,55,115,117.1,115,188.7
			c0,30.6,10.3,59.6,29.8,83.7c15.9,20,25.1,42.1,34.8,65.2c0.3,0.7,0.7,1.4,1,2.4h-8c-8.3,0-14.9,7.2-14.9,15.5s6.7,15.5,14.9,15.5
			H322c8.3,0,14.9-7.2,14.9-15.5S330.3,340,322,340h-5.3c0.5-1,1-2.3,1.5-3.4C327.9,313.5,337.2,292,353.1,272z"/>
		<path d="M307.1,385H187.5c-8.3,0-14.9,5.7-14.9,14s6.7,14,14.9,14h119.5c8.3,0,14.9-5.7,14.9-14S315.3,385,307.1,385z"/>
		<path d="M277.2,430h-59.8c-8.3,0-14.9,6.2-14.9,14.5s6.7,14.5,14.9,14.5h59.8c8.3,0,14.9-6.2,14.9-14.5S285.5,430,277.2,430z"/>
	</g>
</g>
<g id="Layer_2">
</g>
</svg>
