<svg class="icon icon-about" height="16" viewBox="0 0 11 16" version="1.1" aria-hidden="true">
    <path
      d="M9.63,8.59A5.22,5.22,0,0,0,10.8,5.28,5,5,0,0,0,5.75,0H5.24a5.39,5.39,0,0,0-5,5.3A5.25,5.25,0,0,0,1.38,8.61,10.56,10.56,0,0,1,2.76,11.2a.27.27,0,0,1,0,.1H2.48a.61.61,0,0,0,0,1.22H8.4a.61.61,0,0,0,0-1.22H8.19a.87.87,0,0,1,.06-.14A10.43,10.43,0,0,1,9.63,8.59Z"/>
    <path d="M7.81,13H3.07a.57.57,0,1,0,0,1.15H7.81a.57.57,0,1,0,0-1.15Z"/>
    <path d="M6.62,14.85H4.26a.57.57,0,1,0,0,1.15H6.62a.57.57,0,1,0,0-1.15Z"/>
</svg>
