<?xml version="1.0" encoding="utf-8"?>
<!-- Generator: Adobe Illustrator 18.1.1, SVG Export Plug-In . SVG Version: 6.00 Build 0)  -->
<!DOCTYPE svg PUBLIC "-//W3C//DTD SVG 1.1//EN" "http://www.w3.org/Graphics/SVG/1.1/DTD/svg11.dtd">
<svg version="1.1" xmlns="http://www.w3.org/2000/svg" xmlns:xlink="http://www.w3.org/1999/xlink" x="0px" y="0px"
	 viewBox="0 0 512 512" enable-background="new 0 0 512 512" xml:space="preserve">
<g id="Layer_1">
	<g>
		<path d="M374.7,273.1c22.1-27.5,33.7-60.3,33.7-95.2c0-81.6-57-151.9-145.2-151.9h-14.7C175,26,103.6,96.7,103.6,178.2
			c0,34.8,11.8,67.9,33.9,95.3c18.1,22.8,28.6,48.1,39.7,74.5c0.4,0.8,0.8,0.9,1.1,2.9h-9.1c-9.4,0-17,8.1-17,17.5s7.6,17.5,17,17.5
			h170.1c9.4,0,17-8.1,17-17.5s-7.6-17.5-17-17.5h-6.1c0.5-2,1.1-2.9,1.7-4.2C346,320.5,356.6,295.9,374.7,273.1z"/>
		<path d="M322.3,401H186.2c-9.4,0-17,7.1-17,16.5s7.6,16.5,17,16.5h136.1c9.4,0,17-7.1,17-16.5S331.7,401,322.3,401z"/>
		<path d="M288.3,453h-68.1c-9.4,0-17,7.1-17,16.5s7.6,16.5,17,16.5h68.1c9.4,0,17-7.1,17-16.5S297.7,453,288.3,453z"/>
	</g>
</g>
<g id="Layer_2">
</g>
</svg>
