<?xml version="1.0" encoding="utf-8"?>
<!-- Generator: Adobe Illustrator 18.1.1, SVG Export Plug-In . SVG Version: 6.00 Build 0)  -->
<!DOCTYPE svg PUBLIC "-//W3C//DTD SVG 1.1//EN" "http://www.w3.org/Graphics/SVG/1.1/DTD/svg11.dtd">
<svg version="1.1" xmlns="http://www.w3.org/2000/svg" xmlns:xlink="http://www.w3.org/1999/xlink" x="0px" y="0px"
	 viewBox="0 0 512 512" enable-background="new 0 0 512 512" xml:space="preserve">
<g id="Layer_1">
	<path d="M401.2,238.1c-3.9-8.4-12.4-14.1-21.6-14.1h-63.7l26.9-180.9c1.5-10.4-3.9-20.4-13.5-24.9c-9.5-4.5-20.9-2.1-27.9,5.8
		L114.6,232.7c-6.3,7-7.8,17.8-4,26.4c3.8,8.6,12.4,14.9,21.8,14.9h63.5c-7.3,57-20.9,168.3-24.1,195.8
		c-1.2,10.5,4.6,20.2,14.3,24.4c3,1.3,6.2,1.7,9.4,1.7c7,0,13.8-3.2,18.4-8.8L398,263.7C403.9,256.6,405.1,246.4,401.2,238.1z"/>
</g>
<g id="Layer_2">
</g>
</svg>
