<?xml version="1.0" encoding="utf-8"?>
<!-- Generator: Adobe Illustrator 18.1.1, SVG Export Plug-In . SVG Version: 6.00 Build 0)  -->
<!DOCTYPE svg PUBLIC "-//W3C//DTD SVG 1.1//EN" "http://www.w3.org/Graphics/SVG/1.1/DTD/svg11.dtd">
<svg version="1.1" xmlns="http://www.w3.org/2000/svg" xmlns:xlink="http://www.w3.org/1999/xlink" x="0px" y="0px"
	 viewBox="0 0 512 512" enable-background="new 0 0 512 512" xml:space="preserve">
<g id="Layer_1">
	<path d="M385.5,238.8c-3.7-7.9-11.6-12.8-20.3-12.8h-59.8l25.2-170.3c1.5-9.8-3.7-19.4-12.7-23.6c-9-4.2-19.6-2.1-26.2,5.3
		L116.5,233.3c-5.9,6.6-7.4,16.2-3.8,24.3c3.6,8.1,11.6,13.4,20.5,13.4h59.6c-6.9,51-19.6,158.5-22.6,184.3
		c-1.2,9.9,4.3,19.3,13.5,23.2c2.8,1.2,5.8,1.7,8.8,1.7c6.5,0,12.9-2.9,17.3-8.2l172.8-209.5C388,255.9,389.2,246.6,385.5,238.8z"/>
</g>
<g id="Layer_2">
</g>
</svg>
