<?xml version="1.0" encoding="utf-8"?>
<!-- Generator: Adobe Illustrator 18.1.1, SVG Export Plug-In . SVG Version: 6.00 Build 0)  -->
<!DOCTYPE svg PUBLIC "-//W3C//DTD SVG 1.1//EN" "http://www.w3.org/Graphics/SVG/1.1/DTD/svg11.dtd">
<svg version="1.1" xmlns="http://www.w3.org/2000/svg" xmlns:xlink="http://www.w3.org/1999/xlink" x="0px" y="0px"
	 viewBox="0 0 512 512" enable-background="new 0 0 512 512" xml:space="preserve">
<g id="Layer_1">
	<g>
		<path d="M256,6c-9.5,0-17,7.7-17,17.2v93.1c0,9.5,7.5,17.2,17,17.2s17-7.7,17-17.2V23.2C273,13.7,265.5,6,256,6z"/>
		<path d="M256,378.5c-9.5,0-17,7.7-17,17.2v93.1c0,9.5,7.5,17.2,17,17.2s17-7.7,17-17.2v-93.1C273,386.2,265.5,378.5,256,378.5z"/>
		<path d="M488.8,239h-93.1c-9.5,0-17.2,7.5-17.2,17c0,9.5,7.7,17,17.2,17h93.1c9.5,0,17.2-7.5,17.2-17
			C506,246.5,498.3,239,488.8,239z"/>
		<path d="M133.5,256c0-9.5-7.7-17-17.2-17H23.2C13.7,239,6,246.5,6,256c0,9.5,7.7,17,17.2,17h93.1C125.8,273,133.5,265.5,133.5,256
			z"/>
		<path d="M366.9,342.6c-6.7-6.7-17.6-6.7-24.3,0c-6.7,6.7-6.7,17.6,0,24.3l65.8,65.8c3.4,3.4,7.8,5,12.2,5s8.8-1.7,12.2-5
			c6.7-6.7,6.7-17.6,0-24.3L366.9,342.6z"/>
		<path d="M103.6,79.2c-6.7-6.7-17.6-6.7-24.3,0c-6.7,6.7-6.7,17.6,0,24.3l65.8,65.8c3.4,3.4,7.8,5,12.2,5s8.8-1.7,12.2-5
			c6.7-6.7,6.7-17.6,0-24.3L103.6,79.2z"/>
		<path d="M145.1,342.6l-65.8,65.8c-6.7,6.7-6.7,17.6,0,24.3c3.4,3.4,7.8,5,12.2,5c4.4,0,8.8-1.7,12.2-5l65.8-65.8
			c6.7-6.7,6.7-17.6,0-24.3C162.7,335.9,151.8,335.9,145.1,342.6z"/>
		<path d="M354.8,174.4c4.4,0,8.8-1.7,12.2-5l65.8-65.8c6.7-6.7,6.7-17.6,0-24.3c-6.7-6.7-17.6-6.7-24.3,0l-65.8,65.8
			c-6.7,6.7-6.7,17.6,0,24.3C346,172.8,350.4,174.4,354.8,174.4z"/>
	</g>
</g>
<g id="Layer_2">
</g>
</svg>
