<svg class="icon icon-action" height="16" viewBox="0 0 16 16" version="1.1" aria-hidden="true">
    <path d="M8,0a.54.54,0,0,0-.54.55v3a.54.54,0,1,0,1.09,0v-3A.54.54,0,0,0,8,0Z"/>
    <path d="M8,11.92a.54.54,0,0,0-.54.55v3a.54.54,0,1,0,1.09,0v-3A.54.54,0,0,0,8,11.92Z"/>
    <path d="M15.45,7.46h-3a.54.54,0,1,0,0,1.09h3a.54.54,0,1,0,0-1.09Z"/>
    <path d="M4.08,8a.54.54,0,0,0-.55-.54h-3a.54.54,0,1,0,0,1.09h3A.54.54,0,0,0,4.08,8Z"/>
    <path d="M11.55,10.77a.55.55,0,1,0-.78.78l2.11,2.11a.55.55,0,1,0,.78-.78Z"/>
    <path d="M3.12,2.34a.55.55,0,0,0-.78.78L4.45,5.23a.55.55,0,0,0,.78-.78Z"/>
    <path d="M4.45,10.77,2.34,12.88a.55.55,0,1,0,.78.78l2.11-2.11a.55.55,0,1,0-.78-.78Z"/>
    <path d="M11.16,5.39a.55.55,0,0,0,.39-.16l2.11-2.11a.55.55,0,1,0-.78-.78L10.77,4.45a.55.55,0,0,0,.39.94Z"/>
</svg>
