<?xml version="1.0" encoding="utf-8"?>
<!-- Generator: Adobe Illustrator 18.1.1, SVG Export Plug-In . SVG Version: 6.00 Build 0)  -->
<!DOCTYPE svg PUBLIC "-//W3C//DTD SVG 1.1//EN" "http://www.w3.org/Graphics/SVG/1.1/DTD/svg11.dtd">
<svg version="1.1" xmlns="http://www.w3.org/2000/svg" xmlns:xlink="http://www.w3.org/1999/xlink" x="0px" y="0px"
	 viewBox="0 0 512 512" enable-background="new 0 0 512 512" xml:space="preserve">
<g id="Layer_1">
	<path d="M407.3,238c-4.1-8.7-12.9-14-22.5-14h-66.4l28-189.3c1.6-10.9-4.1-21.7-14.1-26.3c-9.9-4.7-21.8-2.3-29.1,5.9L108.6,231.8
		c-6.5,7.3-8.2,18.2-4.2,27.1c4,9,12.9,15.1,22.7,15.1h66.2c-7.6,57-21.7,175.8-25.1,204.5c-1.3,11,4.8,21.3,14.9,25.6
		c3.2,1.3,6.5,1.9,9.8,1.9c7.3,0,14.4-3.2,19.2-9.1L404,264.3C410.2,256.9,411.4,246.7,407.3,238z"/>
</g>
<g id="Layer_2">
</g>
</svg>
