<?xml version="1.0" encoding="utf-8"?>
<!-- Generator: Adobe Illustrator 18.1.1, SVG Export Plug-In . SVG Version: 6.00 Build 0)  -->
<!DOCTYPE svg PUBLIC "-//W3C//DTD SVG 1.1//EN" "http://www.w3.org/Graphics/SVG/1.1/DTD/svg11.dtd">
<svg version="1.1" xmlns="http://www.w3.org/2000/svg" xmlns:xlink="http://www.w3.org/1999/xlink" x="0px" y="0px"
	 viewBox="0 0 512 512" enable-background="new 0 0 512 512" xml:space="preserve">
<g id="Layer_1">
	<g>
		<path d="M258,39.7c-8.3,0-15,6.7-15,14.9v80.9c0,8.3,6.7,14.9,15,14.9s15-6.7,15-14.9V54.7C273,46.4,266.3,39.7,258,39.7z"/>
		<path d="M258,363.1c-8.3,0-15,6.7-15,14.9v80.8c0,8.3,6.7,14.9,15,14.9s15-6.7,15-14.9v-80.8C273,369.8,266.3,363.1,258,363.1z"/>
		<path d="M459.9,242H379c-8.3,0-14.9,6.7-14.9,15c0,8.3,6.7,15,14.9,15h80.9c8.3,0,14.9-6.7,14.9-15
			C474.8,248.7,468.1,242,459.9,242z"/>
		<path d="M151.4,257c0-8.3-6.7-15-14.9-15H55.6c-8.3,0-14.9,6.7-14.9,15c0,8.3,6.7,15,14.9,15h80.9
			C144.7,272,151.4,265.3,151.4,257z"/>
		<path d="M354,332c-5.8-5.8-15.3-5.8-21.1,0c-5.8,5.8-5.8,15.3,0,21.1l57.2,57.2c2.9,2.9,6.7,4.4,10.6,4.4s7.6-1.5,10.6-4.4
			c5.8-5.8,5.8-15.3,0-21.1L354,332z"/>
		<path d="M125.4,103.3c-5.8-5.8-15.3-5.8-21.1,0c-5.8,5.8-5.8,15.3,0,21.1l57.2,57.2c2.9,2.9,6.7,4.4,10.6,4.4s7.6-1.5,10.6-4.4
			c5.8-5.8,5.8-15.3,0-21.1L125.4,103.3z"/>
		<path d="M161.4,332l-57.2,57.2c-5.8,5.8-5.8,15.3,0,21.1c2.9,2.9,6.7,4.4,10.6,4.4c3.8,0,7.6-1.5,10.6-4.4l57.2-57.2
			c5.8-5.8,5.8-15.3,0-21.1C176.7,326.1,167.2,326.1,161.4,332z"/>
		<path d="M343.5,186c3.8,0,7.6-1.5,10.6-4.4l57.2-57.2c5.8-5.8,5.8-15.3,0-21.1c-5.8-5.8-15.3-5.8-21.1,0l-57.2,57.2
			c-5.8,5.8-5.8,15.3,0,21.1C335.8,184.5,339.7,186,343.5,186z"/>
	</g>
</g>
<g id="Layer_2">
</g>
</svg>
