<?xml version="1.0" encoding="utf-8"?>
<!-- Generator: Adobe Illustrator 18.1.1, SVG Export Plug-In . SVG Version: 6.00 Build 0)  -->
<!DOCTYPE svg PUBLIC "-//W3C//DTD SVG 1.1//EN" "http://www.w3.org/Graphics/SVG/1.1/DTD/svg11.dtd">
<svg version="1.1" xmlns="http://www.w3.org/2000/svg" xmlns:xlink="http://www.w3.org/1999/xlink" x="0px" y="0px"
	 viewBox="0 0 512 512" enable-background="new 0 0 512 512" xml:space="preserve">
<g id="Layer_1">
	<g>
		<g>
			<path d="M23.8,75.7H6v17.8h17.8V75.7L23.8,75.7z M23.8,147H6v17.8h17.8V147L23.8,147z M23.8,218.2H6V236h17.8V218.2L23.8,218.2z
				 M23.8,289.5H6v17.8h17.8V289.5L23.8,289.5z M23.8,360.8H6v17.8h17.8V360.8L23.8,360.8z M23.8,432H6v17.8h17.8V432L23.8,432z
				 M90.7,488.5H72.9v17.8h17.8V488.5L90.7,488.5z M162,488.5h-17.8v17.8H162V488.5L162,488.5z M233.3,488.5h-17.8v17.8h17.8V488.5
				L233.3,488.5z M304.5,488.5h-17.8v17.8h17.8V488.5L304.5,488.5z M375.8,488.5H358v17.8h17.8V488.5L375.8,488.5z M447.1,488.5
				h-17.8v17.8h17.8V488.5L447.1,488.5z M505.3,488.5h-17.8v17.8h17.8V488.5L505.3,488.5z"/>
			<polygon points="24.2,488.5 6.4,488.5 6.4,506.3 24.2,506.3 24.2,488.5 			"/>
			<polygon points="23.9,5.7 6.1,5.7 6.1,23.5 23.9,23.5 23.9,5.7 			"/>
			<polygon points="75.4,23.8 93.2,23.8 93.2,6 75.4,6 75.4,23.8 			"/>
			<polygon points="146.7,23.8 164.5,23.8 164.5,6 146.7,6 146.7,23.8 			"/>
			<polygon points="218,23.8 235.8,23.8 235.8,6 218,6 218,23.8 			"/>
			<polygon points="289.2,23.8 307,23.8 307,6 289.2,6 289.2,23.8 			"/>
			<polygon points="360.5,23.8 378.3,23.8 378.3,6 360.5,6 360.5,23.8 			"/>
			<polygon points="431.8,23.8 449.6,23.8 449.6,6 431.8,6 431.8,23.8 			"/>
			<polygon points="488.2,93.5 506,93.5 506,75.7 488.2,75.7 488.2,93.5 			"/>
			<polygon points="488.2,164.8 506,164.8 506,147 488.2,147 488.2,164.8 			"/>
			<polygon points="488.2,236 506,236 506,218.2 488.2,218.2 488.2,236 			"/>
			<polygon points="488.2,307.3 506,307.3 506,289.5 488.2,289.5 488.2,307.3 			"/>
			<polygon points="488.2,378.6 506,378.6 506,360.8 488.2,360.8 488.2,378.6 			"/>
			<polygon points="488.2,449.9 506,449.9 506,432 488.2,432 488.2,449.9 			"/>
			<polygon points="488.2,24.2 506,24.2 506,6.4 488.2,6.4 488.2,24.2 			"/>
		</g>
		<path d="M355.7,238H271v-87.6c0-7.9-6.6-14.3-14.5-14.3c-7.9,0-14.5,6.4-14.5,14.3V238h-86.7c-7.9,0-14.3,6.1-14.3,14
			c0,7.9,6.4,14,14.3,14H242v84.9c0,7.9,6.6,14.3,14.5,14.3c7.9,0,14.5-6.4,14.5-14.3V266h84.7c7.9,0,14.3-6.1,14.3-14
			C370.1,244.1,363.7,238,355.7,238z"/>
	</g>
</g>
<g id="Layer_2">
</g>
</svg>
