<?xml version="1.0" encoding="utf-8"?>
<!-- Generator: Adobe Illustrator 18.1.1, SVG Export Plug-In . SVG Version: 6.00 Build 0)  -->
<!DOCTYPE svg PUBLIC "-//W3C//DTD SVG 1.1//EN" "http://www.w3.org/Graphics/SVG/1.1/DTD/svg11.dtd">
<svg version="1.1" xmlns="http://www.w3.org/2000/svg" xmlns:xlink="http://www.w3.org/1999/xlink" x="0px" y="0px"
	 viewBox="0 0 512 512" enable-background="new 0 0 512 512" xml:space="preserve">
<g id="Layer_1">
	<g>
		<path d="M62,109.3H47v14.9H62V109.3L62,109.3z M62,169H47V184H62V169L62,169z M62,228.8H47v14.9H62V228.8L62,228.8z M62,288.6H47
			v14.9H62V288.6L62,288.6z M62,348.4H47v14.9H62V348.4L62,348.4z M62,408.1H47v14.9H62V408.1L62,408.1z M118.1,455.4h-14.9v14.9
			h14.9V455.4L118.1,455.4z M177.9,455.4h-14.9v14.9h14.9V455.4L177.9,455.4z M237.6,455.4h-14.9v14.9h14.9V455.4L237.6,455.4z
			 M297.4,455.4h-14.9v14.9h14.9V455.4L297.4,455.4z M357.2,455.4h-14.9v14.9h14.9V455.4L357.2,455.4z M417,455.4H402v14.9H417
			V455.4L417,455.4z M465.8,455.4h-14.9v14.9h14.9V455.4L465.8,455.4z"/>
		<polygon points="62.3,455.4 47.4,455.4 47.4,470.4 62.3,470.4 62.3,455.4 		"/>
		<polygon points="62.1,50.6 47.1,50.6 47.1,65.5 62.1,65.5 62.1,50.6 		"/>
		<polygon points="105.3,65.8 120.2,65.8 120.2,50.8 105.3,50.8 105.3,65.8 		"/>
		<polygon points="165,65.8 180,65.8 180,50.8 165,50.8 165,65.8 		"/>
		<polygon points="224.8,65.8 239.7,65.8 239.7,50.8 224.8,50.8 224.8,65.8 		"/>
		<polygon points="284.6,65.8 299.5,65.8 299.5,50.8 284.6,50.8 284.6,65.8 		"/>
		<polygon points="344.3,65.8 359.3,65.8 359.3,50.8 344.3,50.8 344.3,65.8 		"/>
		<polygon points="404.1,65.8 419.1,65.8 419.1,50.8 404.1,50.8 404.1,65.8 		"/>
		<polygon points="451.4,124.2 466.4,124.2 466.4,109.3 451.4,109.3 451.4,124.2 		"/>
		<polygon points="451.4,184 466.4,184 466.4,169 451.4,169 451.4,184 		"/>
		<polygon points="451.4,243.8 466.4,243.8 466.4,228.8 451.4,228.8 451.4,243.8 		"/>
		<polygon points="451.4,303.5 466.4,303.5 466.4,288.6 451.4,288.6 451.4,303.5 		"/>
		<polygon points="451.4,363.3 466.4,363.3 466.4,348.4 451.4,348.4 451.4,363.3 		"/>
		<polygon points="451.4,423.1 466.4,423.1 466.4,408.1 451.4,408.1 451.4,423.1 		"/>
		<polygon points="451.4,66.1 466.4,66.1 466.4,51.1 451.4,51.1 451.4,66.1 		"/>
	</g>
	<path d="M308.6,253.7H204c-4.1,0-7.5-3.3-7.5-7.5s3.3-7.5,7.5-7.5h104.6c4.1,0,7.5,3.3,7.5,7.5S312.8,253.7,308.6,253.7z"/>
	<path d="M256.3,306c-4.1,0-7.5-3.3-7.5-7.5V193.9c0-4.1,3.3-7.5,7.5-7.5s7.5,3.3,7.5,7.5v104.6C263.8,302.7,260.5,306,256.3,306z"
		/>
</g>
<g id="Layer_2">
</g>
</svg>
