<svg class="icon icon-add" height="16" viewBox="0 0 16 16" version="1.1" aria-hidden="true">
    <path
      d="M.58,2.24H0v.57H.58V2.24Zm0,2.28H0v.57H.58V4.51Zm0,2.28H0v.57H.58V6.79Zm0,2.28H0v.57H.58V9.07Zm0,2.28H0v.57H.58v-.57Zm0,2.28H0v.57H.58v-.57Zm2.14,1.8H2.15V16h.57v-.57Zm2.28,0H4.43V16H5v-.57Zm2.28,0H6.7V16h.57v-.57Zm2.28,0H9V16h.57v-.57Zm2.28,0h-.57V16h.57v-.57Zm2.28,0h-.57V16h.57v-.57Zm1.86,0H15.4V16H16v-.57Z"/>
    <polygon points="0.59 15.43 0.02 15.43 0.02 16 0.59 16 0.59 15.43 0.59 15.43"/>
    <polygon points="0.58 0 0.01 0 0.01 0.57 0.58 0.57 0.58 0 0.58 0"/>
    <polygon points="2.23 0.58 2.8 0.58 2.8 0.01 2.23 0.01 2.23 0.58 2.23 0.58"/>
    <polygon points="4.51 0.58 5.08 0.58 5.08 0.01 4.51 0.01 4.51 0.58 4.51 0.58"/>
    <polygon points="6.78 0.58 7.35 0.58 7.35 0.01 6.78 0.01 6.78 0.58 6.78 0.58"/>
    <polygon points="9.06 0.58 9.63 0.58 9.63 0.01 9.06 0.01 9.06 0.58 9.06 0.58"/>
    <polygon points="11.34 0.58 11.91 0.58 11.91 0.01 11.34 0.01 11.34 0.58 11.34 0.58"/>
    <polygon points="13.62 0.58 14.19 0.58 14.19 0.01 13.62 0.01 13.62 0.58 13.62 0.58"/>
    <polygon points="15.42 2.81 15.99 2.81 15.99 2.24 15.42 2.24 15.42 2.81 15.42 2.81"/>
    <polygon points="15.42 5.08 15.99 5.08 15.99 4.51 15.42 4.51 15.42 5.08 15.42 5.08"/>
    <polygon points="15.42 7.36 15.99 7.36 15.99 6.79 15.42 6.79 15.42 7.36 15.42 7.36"/>
    <polygon points="15.42 9.64 15.99 9.64 15.99 9.07 15.42 9.07 15.42 9.64 15.42 9.64"/>
    <polygon points="15.42 11.92 15.99 11.92 15.99 11.35 15.42 11.35 15.42 11.92 15.42 11.92"/>
    <polygon points="15.42 14.2 15.99 14.2 15.99 13.63 15.42 13.63 15.42 14.2 15.42 14.2"/>
    <polygon points="15.42 0.59 15.99 0.59 15.99 0.02 15.42 0.02 15.42 0.59 15.42 0.59"/>
    <path d="M11.19,7.42H8.48V4.63a.46.46,0,0,0-.93,0v2.8H4.78a.45.45,0,1,0,0,.9H7.55V11a.46.46,0,0,0,.93,0V8.32h2.71a.45.45,0,1,0,0-.9Z"/>
</svg>
