<?xml version="1.0" encoding="utf-8"?>
<!-- Generator: Adobe Illustrator 18.1.1, SVG Export Plug-In . SVG Version: 6.00 Build 0)  -->
<!DOCTYPE svg PUBLIC "-//W3C//DTD SVG 1.1//EN" "http://www.w3.org/Graphics/SVG/1.1/DTD/svg11.dtd">
<svg version="1.1" xmlns="http://www.w3.org/2000/svg" xmlns:xlink="http://www.w3.org/1999/xlink" x="0px" y="0px"
	 viewBox="0 0 512 512" enable-background="new 0 0 512 512" xml:space="preserve">
<g id="Layer_1">
	<g>
		<circle cx="137.1" cy="201.4" r="74.6"/>
		<circle cx="376.3" cy="201.4" r="74.6"/>
		<path d="M376.9,291.2c-35.6,0-66.6,12.8-88.1,29.8h42.9c16.5,0,29.9,13,29.9,29.5c0,16.5-13.4,29.5-29.9,29.5h-71.4h-17.5h-45.5
			c-16.5,0-29.9-13-29.9-29.5c0-16.5,13.4-29.5,29.9-29.5h28c-21.8-17-52.9-29.8-87.5-29.8c-68.1,0-119.8,40.1-119.8,98.3
			c0,0,0.6,6.1,9.1,10.1c0,0,27.6,16.4,107.8,16.6c0,0,87.4-0.3,113.2-17.1c0,0,4.2-2.6,7.7-5.3c3.2,1.9,6.9,3.9,10.5,5.6
			c0,0,27.6,16.5,107.8,16.7c0,0,87.4-0.3,113.2-17.1c0,0,8.7-4.6,8.7-9.6C496,330,442.7,291.2,376.9,291.2z"/>
		<path d="M182.2,350c0,8.3,6.7,15,14.9,15h134.5c8.3,0,14.9-6.7,14.9-15s-6.7-15-14.9-15H197.2C188.9,335,182.2,341.7,182.2,350z"
			/>
	</g>
</g>
<g id="Layer_2">
</g>
</svg>
