<svg class="icon icon-affiliate" height="16" viewBox="0 0 16 16" version="1.1" aria-hidden="true">
    <circle cx="3.99" cy="5.65" r="2.5"/>
    <circle cx="11.99" cy="5.65" r="2.5"/>
    <path
      d="M12,8.66a4.76,4.76,0,0,0-2.95,1H10.5a1,1,0,1,1,0,2H6a1,1,0,1,1,0-2h.94A4.78,4.78,0,0,0,4,8.66C1.73,8.66,0,10,0,12a.47.47,0,0,0,.31.34,7.9,7.9,0,0,0,3.61.55s2.92,0,3.79-.57L8,12.09l.35.19a7.86,7.86,0,0,0,3.61.56s2.92,0,3.79-.57c0,0,.29-.15.29-.32C16,10,14.22,8.66,12,8.66Z"/>
    <path d="M5.5,10.62a.51.51,0,0,0,.5.51h4.5a.51.51,0,0,0,0-1H6A.51.51,0,0,0,5.5,10.62Z"/>
</svg>
