<?xml version="1.0" encoding="utf-8"?>
<!-- Generator: Adobe Illustrator 18.1.1, SVG Export Plug-In . SVG Version: 6.00 Build 0)  -->
<!DOCTYPE svg PUBLIC "-//W3C//DTD SVG 1.1//EN" "http://www.w3.org/Graphics/SVG/1.1/DTD/svg11.dtd">
<svg version="1.1" xmlns="http://www.w3.org/2000/svg" xmlns:xlink="http://www.w3.org/1999/xlink" x="0px" y="0px"
	 viewBox="0 0 512 512" enable-background="new 0 0 512 512" xml:space="preserve">
<g id="Layer_1">
	<g>
		<circle cx="130.7" cy="182.7" r="78"/>
		<circle cx="380.8" cy="182.7" r="78"/>
		<path d="M381.4,276.7c-37.2,0-69.6,13.3-92.2,31.3h44.9c17.2,0,31.2,13.3,31.2,30.5c0,17.2-14,30.5-31.2,30.5h-74.7h-18.3h-47.6
			c-17.2,0-31.2-13.3-31.2-30.5c0-17.2,14-30.5,31.2-30.5h29.3c-22.8-18-55.3-31.3-91.5-31.3C60,276.7,6,318.6,6,379.5
			c0,0,0.6,6.4,9.5,10.5c0,0,28.9,17.2,112.8,17.3c0,0,91.4-0.3,118.4-17.9c0,0,4.4-2.7,8-5.5c3.3,1.9,7.2,4.1,11,5.8
			c0,0,28.9,17.3,112.8,17.4c0,0,91.4-0.3,118.4-17.8c0,0,9.1-4.8,9.1-10C506,317.2,450.2,276.7,381.4,276.7z"/>
		<path d="M177.9,338c0,8.6,7,16,15.6,16h140.6c8.6,0,15.6-7.4,15.6-16s-7-16-15.6-16H193.5C184.9,322,177.9,329.4,177.9,338z"/>
	</g>
</g>
<g id="Layer_2">
</g>
</svg>
