<?xml version="1.0" encoding="utf-8"?>
<!-- Generator: Adobe Illustrator 16.0.0, SVG Export Plug-In . SVG Version: 6.00 Build 0)  -->
<!DOCTYPE svg PUBLIC "-//W3C//DTD SVG 1.1//EN" "http://www.w3.org/Graphics/SVG/1.1/DTD/svg11.dtd">
<svg version="1.1" id="Layer_1" xmlns="http://www.w3.org/2000/svg" xmlns:xlink="http://www.w3.org/1999/xlink" x="0px" y="0px"
	 width="300px" height="300px" viewBox="0 0 300 300" style="enable-background:new 0 0 300 300;" xml:space="preserve">
<g id="Restricted">
</g>
<g id="Help">
	<g>
		<g>
			<circle cx="178.219" cy="90.487" r="32.903"/>
			<circle cx="157.754" cy="220.09" r="32.904"/>
			<circle cx="214.882" cy="162.962" r="32.903"/>
			<circle cx="85.28" cy="183.426" r="32.903"/>
			<circle cx="98.496" cy="103.704" r="32.904"/>
		</g>
		<path d="M227.946,266c36.789-25,60.953-67.66,60.953-115.626c0-77.479-63.034-140.449-140.512-140.449S7.875,72.984,7.875,150.462
			S70.909,291,148.387,291H298v-25H227.946z M32.635,150.5c0-63.826,51.926-115.752,115.752-115.752S264.14,86.674,264.14,150.5
			s-51.926,115.752-115.752,115.752S32.635,214.326,32.635,150.5z"/>
	</g>
</g>
</svg>
