<?xml version="1.0" encoding="utf-8"?>
<!-- Generator: Adobe Illustrator 16.0.0, SVG Export Plug-In . SVG Version: 6.00 Build 0)  -->
<!DOCTYPE svg PUBLIC "-//W3C//DTD SVG 1.1//EN" "http://www.w3.org/Graphics/SVG/1.1/DTD/svg11.dtd">
<svg version="1.1" id="Layer_1" xmlns="http://www.w3.org/2000/svg" xmlns:xlink="http://www.w3.org/1999/xlink" x="0px" y="0px"
	 width="300px" height="300px" viewBox="0 0 300 300" style="enable-background:new 0 0 300 300;" xml:space="preserve">
<g id="Restricted">
</g>
<g id="Help">
	<g>
		<g>
			<circle cx="173.346" cy="102.024" r="26.578"/>
			<circle cx="156.816" cy="206.712" r="26.578"/>
			<circle cx="202.962" cy="160.566" r="26.578"/>
			<circle cx="98.274" cy="177.096" r="26.578"/>
			<circle cx="108.95" cy="112.7" r="26.578"/>
		</g>
		<path d="M213.515,244c29.716-20.488,49.235-54.755,49.235-93.5c0-62.584-50.916-113.5-113.5-113.5S35.75,87.916,35.75,150.5
			S86.666,264,149.25,264H270v-20H213.515z M55.75,150.5c0-51.556,41.944-93.5,93.5-93.5s93.5,41.944,93.5,93.5
			s-41.944,93.5-93.5,93.5S55.75,202.056,55.75,150.5z"/>
	</g>
</g>
</svg>
