<?xml version="1.0" encoding="utf-8"?>
<!-- Generator: Adobe Illustrator 18.1.1, SVG Export Plug-In . SVG Version: 6.00 Build 0)  -->
<!DOCTYPE svg PUBLIC "-//W3C//DTD SVG 1.1//EN" "http://www.w3.org/Graphics/SVG/1.1/DTD/svg11.dtd">
<svg version="1.1" id="Layer_1" xmlns="http://www.w3.org/2000/svg" xmlns:xlink="http://www.w3.org/1999/xlink" x="0px" y="0px"
	 viewBox="0 0 512 512" enable-background="new 0 0 512 512" xml:space="preserve">
<path d="M100.1,56.5l238.5,198.7L101.7,454.8c-10.2,8.6-11.5,23.9-2.9,34.1c8.6,10.2,23.9,11.5,34.1,2.9L371,291.2v24.3v166.3
	c0,13.4,11.6,24.2,25,24.2s25-10.8,25-24.2V30.2C421,16.8,409.4,6,396,6s-25,10.8-25,24.2v160.2v28.7L131.1,19.3
	c-4.5-3.8-10-5.6-15.5-5.6c-6.9,0-13.8,3-18.6,8.7C88.5,32.7,89.8,47.9,100.1,56.5z"/>
</svg>
