<?xml version="1.0" encoding="utf-8"?>
<!-- Generator: Adobe Illustrator 18.1.1, SVG Export Plug-In . SVG Version: 6.00 Build 0)  -->
<!DOCTYPE svg PUBLIC "-//W3C//DTD SVG 1.1//EN" "http://www.w3.org/Graphics/SVG/1.1/DTD/svg11.dtd">
<svg version="1.1" id="Layer_1" xmlns="http://www.w3.org/2000/svg" xmlns:xlink="http://www.w3.org/1999/xlink" x="0px" y="0px"
	 viewBox="0 0 512 512" enable-background="new 0 0 512 512" xml:space="preserve">
<path d="M104.1,71.3l221,184.1L105.5,440.3c-9.5,8-10.7,22.1-2.7,31.6c8,9.5,22.1,10.7,31.6,2.7L355,288.8v22.5v154
	c0,12.4,10.6,22.4,23,22.4s23-10,23-22.4V47c0-12.4-10.6-22.4-23-22.4s-23,10-23,22.4v148.4V222L132.8,36.9
	c-4.2-3.5-9.3-5.2-14.3-5.2c-6.4,0-12.8,2.7-17.2,8.1C93.3,49.3,94.6,63.4,104.1,71.3z"/>
</svg>
