<?xml version="1.0" encoding="utf-8"?>
<!-- Generator: Adobe Illustrator 18.1.1, SVG Export Plug-In . SVG Version: 6.00 Build 0)  -->
<!DOCTYPE svg PUBLIC "-//W3C//DTD SVG 1.1//EN" "http://www.w3.org/Graphics/SVG/1.1/DTD/svg11.dtd">
<svg version="1.1" id="Layer_1" xmlns="http://www.w3.org/2000/svg" xmlns:xlink="http://www.w3.org/1999/xlink" x="0px" y="0px"
	 viewBox="0 0 512 512" enable-background="new 0 0 512 512" xml:space="preserve">
<path d="M112.6,72.4L332,255.2l-218,183.6c-9.4,7.9-10.6,22-2.7,31.4c7.9,9.4,22.1,10.6,31.5,2.7L362,288.4v22.4v153
	c0,12.3,10.7,22.3,23,22.3s23-10,23-22.3V48.3C408,36,397.3,26,385,26s-23,10-23,22.3v147.3V222L141.2,38.2
	c-4.2-3.5-9.3-5.2-14.3-5.2c-6.4,0-12.7,2.7-17.1,8C101.9,50.5,103.2,64.6,112.6,72.4z"/>
</svg>
