<svg class="icon icon-attach" height="16" viewBox="0 0 15 16" version="1.1" aria-hidden="true">
    <path
      d="M14.54,7.28a.8.8,0,0,0-1.13,0l-6.2,6.2A3.07,3.07,0,0,1,5,14.4a3.22,3.22,0,0,1-2.25-1A3.25,3.25,0,0,1,2.8,8.85l6.7-6.71a1.83,1.83,0,0,1,2.62,0,1.9,1.9,0,0,1,0,2.69L5.9,11a.76.76,0,0,1-.46.23.44.44,0,0,1-.36-.14.56.56,0,0,1,.08-.82L10.8,4.67A.8.8,0,1,0,9.67,3.54L4,9.18a2.31,2.31,0,0,0-.69,1.49,2.09,2.09,0,0,0,2.21,2.19A2.33,2.33,0,0,0,7,12.16L13.21,6a3.5,3.5,0,0,0,0-4.94A3.41,3.41,0,0,0,8.38,1L1.67,7.72a4.85,4.85,0,0,0-.07,6.85A4.75,4.75,0,0,0,5,16H5a4.69,4.69,0,0,0,3.34-1.39l6.2-6.2A.8.8,0,0,0,14.54,7.28Z"/>
</svg>
