<?xml version="1.0" encoding="utf-8"?>
<!-- Generator: Adobe Illustrator 18.1.1, SVG Export Plug-In . SVG Version: 6.00 Build 0)  -->
<!DOCTYPE svg PUBLIC "-//W3C//DTD SVG 1.1//EN" "http://www.w3.org/Graphics/SVG/1.1/DTD/svg11.dtd">
<svg version="1.1" xmlns="http://www.w3.org/2000/svg" xmlns:xlink="http://www.w3.org/1999/xlink" x="0px" y="0px"
	 viewBox="0 0 512 512" enable-background="new 0 0 512 512" xml:space="preserve">
<g id="Layer_1">
	<path d="M476.1,233.6c-9.7-9.7-25.5-9.7-35.2,0L247.2,427.2c-18.9,18.9-43.9,29.5-69.9,28.9c-26.2-0.2-51.2-10.9-70.3-30
		c-39-39-38-103.3,2.2-143.5L318.7,72.9c22.7-22.7,58.6-22.4,81.8,0.8c22.7,22.8,22.1,60.4-1.4,84L205.9,350.9
		c-4.3,4.3-9.6,7-14.5,7.3c-4.4,0.3-8-1.2-11.3-4.5c-8.5-8.5-3.9-19,2.5-25.5l176.4-176.4c9.7-9.7,9.7-25.5,0-35.2
		c-9.7-9.7-25.5-9.7-35.2,0L147.5,293c-13,13-20.7,29.5-21.7,46.5c-1.1,18.4,5.7,36,19.2,49.4c13.5,13.4,31.1,20.3,49.8,19
		c17-1.1,33.6-8.9,46.5-21.8l193.1-193.3c43-43,43.6-112.3,1.4-154.4C392.8-4.5,325.9-4.8,283.4,37.6L73.9,247.4
		c-59.6,59.6-60.5,155.6-2.1,214c28.4,28.4,65.8,44.7,105.1,44.7c0.4,0,0.9,0,1.3,0c39.2,0,76.1-15.4,104.2-43.5l193.6-193.6
		C485.8,259.1,485.8,243.3,476.1,233.6z"/>
</g>
<g id="Layer_2">
</g>
</svg>
