<?xml version="1.0" encoding="utf-8"?>
<!-- Generator: Adobe Illustrator 18.1.1, SVG Export Plug-In . SVG Version: 6.00 Build 0)  -->
<!DOCTYPE svg PUBLIC "-//W3C//DTD SVG 1.1//EN" "http://www.w3.org/Graphics/SVG/1.1/DTD/svg11.dtd">
<svg version="1.1" xmlns="http://www.w3.org/2000/svg" xmlns:xlink="http://www.w3.org/1999/xlink" x="0px" y="0px"
	 viewBox="0 0 512 512" enable-background="new 0 0 512 512" xml:space="preserve">
<g id="Layer_1">
	<path d="M458.5,235.4c-9-9-23.5-9-32.4,0L247.9,413.5c-17.4,17.4-40.4,27.1-64.3,26.6c-24.1-0.2-47.1-10-64.7-27.6
		c-35.8-35.9-35-95.1,2-132L313.7,87.5c20.9-20.9,53.9-20.6,75.2,0.7c20.9,20.9,20.3,55.6-1.3,77.2L209.9,343.3
		c-4,4-8.9,6.4-13.3,6.7c-4.1,0.3-7.3-1.1-10.4-4.1c-7.8-7.8-3.6-17.5,2.3-23.5l162.3-162.3c9-8.9,9-23.5,0-32.4c-9-9-23.5-9-32.4,0
		L156.1,290c-12,11.9-19,27.2-20,42.8c-1,17,5.3,33.1,17.6,45.5c12.4,12.4,28.6,18.6,45.8,17.5c15.7-1,30.9-8.1,42.8-20.1L420,197.9
		c39.5-39.5,40.1-103.3,1.3-142.1c-39.5-39.5-101-39.8-140.1-0.7L88.5,248.1c-54.8,54.8-55.7,143.1-2,196.9
		c26.2,26.2,60.5,41.1,96.7,41.1c0.4,0,0.8,0,1.2,0c36,0,70-14.2,95.9-40l178.1-178.1C467.4,258.9,467.4,244.4,458.5,235.4z"/>
</g>
<g id="Layer_2">
</g>
</svg>
