<?xml version="1.0" encoding="utf-8"?>
<!-- Generator: Adobe Illustrator 18.1.1, SVG Export Plug-In . SVG Version: 6.00 Build 0)  -->
<!DOCTYPE svg PUBLIC "-//W3C//DTD SVG 1.1//EN" "http://www.w3.org/Graphics/SVG/1.1/DTD/svg11.dtd">
<svg version="1.1" xmlns="http://www.w3.org/2000/svg" xmlns:xlink="http://www.w3.org/1999/xlink" x="0px" y="0px"
	 viewBox="0 0 512 512" enable-background="new 0 0 512 512" xml:space="preserve">
<g id="Layer_1">
	<path d="M466.2,112c-9.9,0-18.4,4.5-19.9,5.3L281,209.7v-58.1c0-21.8-17.8-39.5-39.6-39.5c-9.9,0-18.5,4.5-19.9,5.3L56,209.7v-87.1
		c0-13.8-11.2-25-25-25s-25,11.2-25,25v266.8c0,13.8,11.2,25,25,25s25-11.2,25-25v-86.7l165.1,92.2c6.1,3.6,13.2,5.5,20.2,5.5
		c21.8,0,39.6-17.7,39.6-39.5v-58.1l164.9,92.1c6.1,3.6,13.3,5.5,20.3,5.5c21.8,0,39.7-17.7,39.7-39.5V151.5
		C506,129.7,488,112,466.2,112z"/>
</g>
<g id="Layer_2">
</g>
</svg>
