<svg class="icon icon-audio" height="16" viewBox="0 0 16 16" version="1.1" aria-hidden="true">
    <path d="M13.84,8a3.29,3.29,0,0,0-2-3,.55.55,0,1,0-.38,1,2.2,2.2,0,0,1,0,4,.55.55,0,1,0,.38,1A3.29,3.29,0,0,0,13.84,8Z"/>
    <path d="M13.09,3.55a.55.55,0,0,0-.38,1,3.7,3.7,0,0,1,0,6.76.55.55,0,1,0,.38,1,4.8,4.8,0,0,0,0-8.82Z"/>
    <path
      d="M8.16,2.72a1.91,1.91,0,0,0-1,.3L4.39,5H1.79A1.8,1.8,0,0,0,0,6.78V9.21A1.81,1.81,0,0,0,1.8,11H4.41l2.7,1.93.06,0a2.32,2.32,0,0,0,.93.29h.12A1.77,1.77,0,0,0,10,11.48V4.56A1.84,1.84,0,0,0,8.16,2.72Z"/>
</svg>
