<?xml version="1.0" encoding="utf-8"?>
<!-- Generator: Adobe Illustrator 18.1.1, SVG Export Plug-In . SVG Version: 6.00 Build 0)  -->
<!DOCTYPE svg PUBLIC "-//W3C//DTD SVG 1.1//EN" "http://www.w3.org/Graphics/SVG/1.1/DTD/svg11.dtd">
<svg version="1.1" xmlns="http://www.w3.org/2000/svg" xmlns:xlink="http://www.w3.org/1999/xlink" x="0px" y="0px"
	 viewBox="0 0 512 512" enable-background="new 0 0 512 512" xml:space="preserve">
<g id="Layer_1">
	<g>
		<path d="M271.5,127.6c-11.5,0-20.2,4.8-25.9,8l-76.3,53.3L99.2,189C72.5,189.1,51,210.9,51,237.6v65.7c0,26.8,21.4,48.7,48.2,48.7
			H170l73.1,52.4l1.8,1.1c2,1.2,12.8,7.2,25.2,8c1,0.1,2,0.1,3,0.1c25.9,0,47-21.8,47-48.6V177.4C320,150.4,297.8,127.6,271.5,127.6
			z"/>
		<path d="M441.3,265.9l21.1-21.1c8.8-8.7,8.8-22.9,0-31.7c-8.8-8.8-22.9-8.8-31.7,0l-21.1,21.1L388.5,213c-8.8-8.8-22.9-8.8-31.7,0
			c-8.8,8.7-8.8,22.9,0,31.7l21.1,21.1L356.8,287c-8.8,8.7-8.8,22.9,0,31.7c4.4,4.4,10.1,6.6,15.8,6.6s11.5-2.2,15.8-6.6l21.1-21.1
			l21.1,21.1c4.4,4.4,10.1,6.6,15.8,6.6s11.5-2.2,15.8-6.6c8.8-8.7,8.8-22.9,0-31.7L441.3,265.9z"/>
	</g>
</g>
<g id="Layer_2">
</g>
</svg>
