<?xml version="1.0" encoding="utf-8"?>
<!-- Generator: Adobe Illustrator 18.1.1, SVG Export Plug-In . SVG Version: 6.00 Build 0)  -->
<!DOCTYPE svg PUBLIC "-//W3C//DTD SVG 1.1//EN" "http://www.w3.org/Graphics/SVG/1.1/DTD/svg11.dtd">
<svg version="1.1" xmlns="http://www.w3.org/2000/svg" xmlns:xlink="http://www.w3.org/1999/xlink" x="0px" y="0px"
	 viewBox="0 0 512 512" enable-background="new 0 0 512 512" xml:space="preserve">
<g id="Layer_1">
	<path d="M445.4,122.2c-8.9,0-16.7,4-18,4.8L279,209.6v-52.1c0-19.5-15.7-35.4-35.3-35.4c-8.9,0-16.3,4-17.7,4.8L78,209.7v-78
		c0-12.4-10.1-22.4-22.5-22.4S33,119.2,33,131.6v239.1c0,12.4,10.1,22.4,22.5,22.4s22.5-10,22.5-22.4v-77.7l147.9,82.6
		c5.5,3.2,11.5,4.9,17.9,4.9c19.5,0,35.3-15.9,35.3-35.4v-52.1l148,82.6c5.5,3.2,12,4.9,18.3,4.9c19.5,0,35.7-15.9,35.7-35.4V157.6
		C481,138,464.9,122.2,445.4,122.2z"/>
</g>
<g id="Layer_2">
</g>
</svg>
