<?xml version="1.0" encoding="utf-8"?>
<!-- Generator: Adobe Illustrator 18.1.1, SVG Export Plug-In . SVG Version: 6.00 Build 0)  -->
<!DOCTYPE svg PUBLIC "-//W3C//DTD SVG 1.1//EN" "http://www.w3.org/Graphics/SVG/1.1/DTD/svg11.dtd">
<svg version="1.1" xmlns="http://www.w3.org/2000/svg" xmlns:xlink="http://www.w3.org/1999/xlink" x="0px" y="0px"
	 viewBox="0 0 512 512" enable-background="new 0 0 512 512" xml:space="preserve">
<g id="Layer_1">
	<g>
		<g>
			<path d="M145.2,506h-2.8c-38.5,0-69.8-31.3-69.8-69.8V75.8C72.6,37.3,103.9,6,142.4,6h2.8c38.5,0,69.8,31.3,69.8,69.8v360.3
				C215.1,474.7,183.7,506,145.2,506z"/>
		</g>
		<g>
			<path d="M369.6,506h-2.8c-38.5,0-69.8-31.3-69.8-69.8V75.8c0-38.5,31.3-69.8,69.8-69.8h2.8c38.5,0,69.8,31.3,69.8,69.8v360.3
				C439.4,474.7,408.1,506,369.6,506z"/>
		</g>
	</g>
</g>
<g id="Layer_2">
</g>
</svg>
