<?xml version="1.0" encoding="utf-8"?>
<!-- Generator: Adobe Illustrator 18.1.1, SVG Export Plug-In . SVG Version: 6.00 Build 0)  -->
<!DOCTYPE svg PUBLIC "-//W3C//DTD SVG 1.1//EN" "http://www.w3.org/Graphics/SVG/1.1/DTD/svg11.dtd">
<svg version="1.1" xmlns="http://www.w3.org/2000/svg" xmlns:xlink="http://www.w3.org/1999/xlink" x="0px" y="0px"
	 viewBox="0 0 512 512" enable-background="new 0 0 512 512" xml:space="preserve">
<g id="Layer_1">
	<path d="M481,97.6c-13.8,0-25,11.2-25,25v86.9l-165.6-92.4c-6.1-3.6-13.4-5.5-20.5-5.5c-21.8,0-39.9,17.7-39.9,39.5v58.1
		L65.3,117.1c-6.1-3.6-12.9-5.5-20-5.5C23.6,111.6,6,129.3,6,151.1v209.3C6,382.3,23.7,400,45.5,400c9.9,0,18-4.5,19.5-5.3l165-92.3
		v58.1c0,21.8,18.1,39.5,39.9,39.5c9.9,0,18.6-4.5,20.1-5.3L456,302.1v87.4c0,13.8,11.2,25,25,25s25-11.2,25-25V122.6
		C506,108.8,494.8,97.6,481,97.6z"/>
</g>
<g id="Layer_2">
</g>
</svg>
