<?xml version="1.0" encoding="utf-8"?>
<!-- Generator: Adobe Illustrator 18.1.1, SVG Export Plug-In . SVG Version: 6.00 Build 0)  -->
<!DOCTYPE svg PUBLIC "-//W3C//DTD SVG 1.1//EN" "http://www.w3.org/Graphics/SVG/1.1/DTD/svg11.dtd">
<svg version="1.1" xmlns="http://www.w3.org/2000/svg" xmlns:xlink="http://www.w3.org/1999/xlink" x="0px" y="0px"
	 viewBox="0 0 512 512" enable-background="new 0 0 512 512" xml:space="preserve">
<g id="Layer_1">
	<path d="M458.5,109.2c-12.4,0-22.5,10-22.5,22.4v77.9l-148.3-82.8c-5.5-3.2-11.8-4.9-18.2-4.9c-19.5,0-35.6,15.9-35.6,35.4v52.1
		L86.3,126.7c-5.5-3.2-11.6-4.9-18-4.9c-19.5,0-35.4,15.9-35.4,35.4v187.6c0,19.5,15.9,35.4,35.4,35.4c8.9,0,16.3-4,17.6-4.8
		l148-82.7v52.1c0,19.5,16,35.4,35.6,35.4c8.9,0,16.5-4,17.8-4.8l148.6-83v78.3c0,12.4,10.1,22.4,22.5,22.4s22.5-10,22.5-22.4V131.6
		C481,119.2,470.9,109.2,458.5,109.2z"/>
</g>
<g id="Layer_2">
</g>
</svg>
