<?xml version="1.0" encoding="utf-8"?>
<!-- Generator: Adobe Illustrator 18.1.1, SVG Export Plug-In . SVG Version: 6.00 Build 0)  -->
<!DOCTYPE svg PUBLIC "-//W3C//DTD SVG 1.1//EN" "http://www.w3.org/Graphics/SVG/1.1/DTD/svg11.dtd">
<svg version="1.1" xmlns="http://www.w3.org/2000/svg" xmlns:xlink="http://www.w3.org/1999/xlink" x="0px" y="0px"
	 viewBox="0 0 512 512" enable-background="new 0 0 512 512" xml:space="preserve">
<g id="Layer_1">
	<g>
		<g>
			<path d="M153.6,484.3h-2.5c-34.6,0-62.7-28.1-62.7-62.7V98c0-34.6,28.1-62.7,62.7-62.7h2.5c34.6,0,62.7,28.1,62.7,62.7v323.7
				C216.4,456.2,188.2,484.3,153.6,484.3z"/>
		</g>
		<g>
			<path d="M355.1,484.3h-2.5c-34.6,0-62.7-28.1-62.7-62.7V98c0-34.6,28.1-62.7,62.7-62.7h2.5c34.6,0,62.7,28.1,62.7,62.7v323.7
				C417.9,456.2,389.7,484.3,355.1,484.3z"/>
		</g>
	</g>
</g>
<g id="Layer_2">
</g>
</svg>
