<?xml version="1.0" encoding="utf-8"?>
<!-- Generator: Adobe Illustrator 18.1.1, SVG Export Plug-In . SVG Version: 6.00 Build 0)  -->
<!DOCTYPE svg PUBLIC "-//W3C//DTD SVG 1.1//EN" "http://www.w3.org/Graphics/SVG/1.1/DTD/svg11.dtd">
<svg version="1.1" xmlns="http://www.w3.org/2000/svg" xmlns:xlink="http://www.w3.org/1999/xlink" x="0px" y="0px"
	 viewBox="0 0 512 512" enable-background="new 0 0 512 512" xml:space="preserve">
<g id="Layer_1">
	<path d="M449.4,123.5c-9.1,0-16.9,4.1-18.3,4.9l-152.1,85v-53.5c0-20.1-16.4-36.4-36.4-36.4c-9.1,0-17,4.1-18.3,4.9L72,213.4v-80.1
		c0-12.7-10.3-23-23-23s-23,10.3-23,23v245.5c0,12.7,10.3,23,23,23s23-10.3,23-23V299l151.9,84.8c5.6,3.3,12.1,5.1,18.6,5.1
		c20.1,0,36.5-16.3,36.5-36.4V299l151.7,84.8c5.6,3.3,12.2,5.1,18.7,5.1c20.1,0,36.6-16.3,36.6-36.4V159.9
		C486,139.8,469.5,123.5,449.4,123.5z"/>
</g>
<g id="Layer_2">
</g>
</svg>
