<?xml version="1.0" encoding="utf-8"?>
<!-- Generator: Adobe Illustrator 16.0.0, SVG Export Plug-In . SVG Version: 6.00 Build 0)  -->
<!DOCTYPE svg PUBLIC "-//W3C//DTD SVG 1.1//EN" "http://www.w3.org/Graphics/SVG/1.1/DTD/svg11.dtd">
<svg version="1.1" id="Layer_1" xmlns="http://www.w3.org/2000/svg" xmlns:xlink="http://www.w3.org/1999/xlink" x="0px" y="0px"
	 width="300px" height="300px" viewBox="0 0 300 300" style="enable-background:new 0 0 300 300;" xml:space="preserve">
<path d="M135.982,32.33C112.9,39.551,54.986,87.554,54.986,87.554H12.93c-4.391,0-7.93,3.682-7.93,8.354v108.042
	c0,4.673,3.539,8.779,7.93,8.779h42.057c0,0,57.914,47.72,80.996,54.941c4.105,1.274,12.461-0.283,12.461-9.771V41.958
	C148.443,32.471,140.088,31.055,135.982,32.33z M256.768,273.052c-1.699,0-3.258-0.425-4.814-1.274
	c-4.814-2.69-6.514-8.779-3.822-13.594c0,0,6.938-12.319,13.594-31.86c6.088-17.7,13.451-45.454,13.451-76.182
	c0-59.473-26.764-107.9-27.045-108.467c-2.691-4.673-0.992-10.762,3.822-13.452c4.674-2.69,10.762-0.991,13.451,3.823
	c0.285,0.566,7.648,13.594,14.869,34.692c4.248,12.319,7.646,24.922,10.053,37.383c3.117,15.576,4.674,31.011,4.674,46.021
	c0,14.868-1.557,30.444-4.674,46.021c-2.406,12.319-5.805,24.922-10.053,37.241c-7.221,20.957-14.584,33.984-14.869,34.551
	C263.564,271.211,260.166,273.052,256.768,273.052z M218.393,255.635c-1.84,0-3.68-0.566-5.379-1.558
	c-4.531-2.974-5.949-9.062-3.117-13.735c0.143,0,6.516-10.337,12.746-26.621c5.664-14.868,12.461-37.949,12.602-63.579
	c0-49.702-25.062-90.2-25.348-90.625c-2.832-4.531-1.414-10.62,3.258-13.594c4.531-2.832,10.621-1.558,13.594,3.115
	c0.283,0.566,7.223,11.753,14.16,29.736c4.105,10.479,7.363,21.24,9.629,31.86c2.973,13.452,4.391,26.621,4.391,39.507
	c0,12.744-1.418,26.055-4.391,39.365c-2.266,10.62-5.523,21.382-9.629,31.86c-6.938,17.842-13.877,29.17-14.16,29.595
	C224.908,253.936,221.65,255.635,218.393,255.635z M179.877,236.236c-2.123,0-4.246-0.708-6.088-2.124
	c-4.248-3.398-5.098-9.629-1.699-13.877c0-0.142,6.23-8.213,12.318-20.957c5.383-11.611,11.895-29.453,11.895-49.136
	c0-19.824-6.512-37.808-11.895-49.419c-6.088-12.744-12.318-20.815-12.318-20.957c-3.398-4.248-2.549-10.479,1.699-13.877
	c4.389-3.398,10.619-2.549,14.018,1.841c0.285,0.283,7.223,9.487,14.16,24.072c4.107,8.496,7.363,17.275,9.771,25.913
	c2.975,11.045,4.389,21.807,4.389,32.427c0,10.479-1.414,21.382-4.389,32.285c-2.408,8.638-5.664,17.275-9.771,25.913
	c-6.938,14.443-13.875,23.647-14.16,23.931C185.826,234.82,182.852,236.236,179.877,236.236z"/>
<g id="Restricted">
</g>
<g id="Help">
</g>
</svg>
