<?xml version="1.0" encoding="utf-8"?>
<!-- Generator: Adobe Illustrator 18.1.1, SVG Export Plug-In . SVG Version: 6.00 Build 0)  -->
<!DOCTYPE svg PUBLIC "-//W3C//DTD SVG 1.1//EN" "http://www.w3.org/Graphics/SVG/1.1/DTD/svg11.dtd">
<svg version="1.1" xmlns="http://www.w3.org/2000/svg" xmlns:xlink="http://www.w3.org/1999/xlink" x="0px" y="0px"
	 viewBox="0 0 512 512" enable-background="new 0 0 512 512" xml:space="preserve">
<g id="Layer_1">
	<g>
		<g>
			<path d="M154.1,486h-2.6c-35.4,0-64.2-28.8-64.2-64.2V90.2c0-35.4,28.8-64.2,64.2-64.2h2.6c35.4,0,64.2,28.8,64.2,64.2v331.5
				C218.3,457.2,189.5,486,154.1,486z"/>
		</g>
		<g>
			<path d="M360.5,486h-2.6c-35.4,0-64.2-28.8-64.2-64.2V90.2c0-35.4,28.8-64.2,64.2-64.2h2.6c35.4,0,64.2,28.8,64.2,64.2v331.5
				C424.7,457.2,395.9,486,360.5,486z"/>
		</g>
	</g>
</g>
<g id="Layer_2">
</g>
</svg>
