<?xml version="1.0" encoding="utf-8"?>
<!-- Generator: Adobe Illustrator 18.1.1, SVG Export Plug-In . SVG Version: 6.00 Build 0)  -->
<!DOCTYPE svg PUBLIC "-//W3C//DTD SVG 1.1//EN" "http://www.w3.org/Graphics/SVG/1.1/DTD/svg11.dtd">
<svg version="1.1" xmlns="http://www.w3.org/2000/svg" xmlns:xlink="http://www.w3.org/1999/xlink" x="0px" y="0px"
	 viewBox="0 0 512 512" enable-background="new 0 0 512 512" xml:space="preserve">
<g id="Layer_1">
	<g>
		<path d="M438.5,254.7c0-41.5-26.5-81.4-63-94.9c-8.9-3.3-18.8,1.3-22.1,10.2c-3.3,8.9,1.3,18.8,10.2,22.1
			c23.1,8.5,40.4,35.4,40.4,62.5c0,27.3-17.4,54.3-40.5,62.8c-8.9,3.3-13.5,13.2-10.2,22.1c2.6,7,9.2,11.3,16.2,11.3
			c2,0,4-0.3,6-1.1C412,336.3,438.5,296.3,438.5,254.7z"/>
		<path d="M414.8,116.9c-8.9-3.3-18.8,1.3-22.1,10.2c-3.3,8.9,1.3,18.8,10.2,22.1c39.1,14.4,68.5,59.7,68.5,105.3
			c0,45.9-29.5,91.3-68.6,105.7c-8.9,3.3-13.5,13.2-10.2,22.1c2.6,7,9.2,11.3,16.2,11.3c2,0,4-0.3,6-1.1
			c52.8-19.5,91.2-77.5,91.2-138C505.8,194.3,467.6,136.4,414.8,116.9z"/>
		<path d="M260.9,91.1c-13.3,0-23.3,5.6-29.9,9.2l-88,61.5l-81.1,0.1C31.1,162,6,187.1,6,217.9v75.8C6,324.6,31.2,350,62.1,350h81.6
			l84.3,60.3l2,1.2c2.3,1.4,14.8,8.2,29,9.2c1.2,0.1,2.5,0.1,3.6,0.1c29.9,0,54.3-25.2,54.3-56.1V148.5
			C317,117.4,291.3,91.1,260.9,91.1z"/>
	</g>
</g>
<g id="Layer_2">
</g>
</svg>
