<?xml version="1.0" encoding="utf-8"?>
<!-- Generator: Adobe Illustrator 18.1.1, SVG Export Plug-In . SVG Version: 6.00 Build 0)  -->
<!DOCTYPE svg PUBLIC "-//W3C//DTD SVG 1.1//EN" "http://www.w3.org/Graphics/SVG/1.1/DTD/svg11.dtd">
<svg version="1.1" xmlns="http://www.w3.org/2000/svg" xmlns:xlink="http://www.w3.org/1999/xlink" x="0px" y="0px"
	 viewBox="0 0 512 512" enable-background="new 0 0 512 512" xml:space="preserve">
<g id="Layer_1">
	<g>
		<path d="M269.8,85c-13.8,0-24.2,5.8-31,9.6l-91.3,63.8l-83.8,0.1C31.8,158.5,6,184.6,6,216.5v78.6c0,32,25.6,57.9,57.7,57.9h84.7
			l87.5,62.8l2.1,1.4c2.4,1.4,15.3,8.6,30.1,9.6c1.2,0.1,2.5,0.1,3.7,0.1c31,0,56.3-26.1,56.3-58.1V144.5
			C328,112.2,301.4,85,269.8,85z"/>
		<path d="M472.9,250.4l25.3-25.3c10.5-10.5,10.5-27.4,0-37.9c-10.5-10.5-27.4-10.5-37.9,0l-25.3,25.3l-25.3-25.3
			c-10.5-10.5-27.4-10.5-37.9,0c-10.5,10.5-10.5,27.4,0,37.9l25.3,25.3l-25.3,25.3c-10.5,10.5-10.5,27.4,0,37.9
			c5.2,5.2,12.1,7.9,19,7.9s13.7-2.6,19-7.9l25.3-25.3l25.3,25.3c5.2,5.2,12.1,7.9,19,7.9c6.9,0,13.7-2.6,19-7.9
			c10.5-10.5,10.5-27.4,0-37.9L472.9,250.4z"/>
	</g>
</g>
<g id="Layer_2">
</g>
</svg>
