<?xml version="1.0" encoding="utf-8"?>
<!-- Generator: Adobe Illustrator 16.0.0, SVG Export Plug-In . SVG Version: 6.00 Build 0)  -->
<!DOCTYPE svg PUBLIC "-//W3C//DTD SVG 1.1//EN" "http://www.w3.org/Graphics/SVG/1.1/DTD/svg11.dtd">
<svg version="1.1" id="Layer_1" xmlns="http://www.w3.org/2000/svg" xmlns:xlink="http://www.w3.org/1999/xlink" x="0px" y="0px"
	 width="300px" height="300px" viewBox="0 0 300 300" style="enable-background:new 0 0 300 300;" xml:space="preserve">
<path d="M138.641,54.646c-18.704,5.852-65.635,44.751-65.635,44.751h-34.08c-3.558,0-6.426,2.983-6.426,6.77v87.551
	c0,3.787,2.868,7.114,6.426,7.114h34.08c0,0,46.931,38.669,65.635,44.521c3.327,1.033,10.098-0.229,10.098-7.917V62.449
	C148.738,54.761,141.968,53.614,138.641,54.646z M236.519,249.715c-1.377,0-2.64-0.344-3.901-1.033
	c-3.901-2.18-5.278-7.114-3.098-11.016c0,0,5.622-9.983,11.016-25.818c4.934-14.343,10.9-36.833,10.9-61.733
	c0-48.193-21.688-87.437-21.916-87.896c-2.181-3.787-0.804-8.721,3.098-10.901c3.787-2.18,8.721-0.803,10.9,3.098
	c0.23,0.459,6.197,11.016,12.049,28.113c3.442,9.983,6.196,20.195,8.146,30.293c2.525,12.622,3.787,25.129,3.787,37.292
	c0,12.048-1.262,24.67-3.787,37.292c-1.95,9.983-4.704,20.195-8.146,30.178c-5.852,16.982-11.818,27.539-12.049,27.998
	C242.026,248.223,239.272,249.715,236.519,249.715z M205.422,235.601c-1.491,0-2.982-0.459-4.359-1.262
	c-3.672-2.41-4.82-7.344-2.525-11.13c0.115,0,5.279-8.376,10.328-21.572c4.59-12.048,10.098-30.752,10.212-51.521
	c0-40.276-20.31-73.093-20.54-73.438c-2.295-3.672-1.146-8.606,2.64-11.016c3.672-2.295,8.606-1.262,11.016,2.524
	c0.229,0.459,5.853,9.524,11.475,24.097c3.327,8.491,5.967,17.212,7.803,25.818c2.409,10.901,3.558,21.572,3.558,32.014
	c0,10.327-1.148,21.113-3.558,31.899c-1.836,8.606-4.476,17.327-7.803,25.818c-5.622,14.458-11.245,23.638-11.475,23.982
	C210.701,234.224,208.062,235.601,205.422,235.601z M174.211,219.881c-1.721,0-3.441-0.574-4.934-1.721
	c-3.442-2.754-4.131-7.803-1.377-11.245c0-0.115,5.049-6.655,9.982-16.982c4.361-9.409,9.639-23.867,9.639-39.817
	c0-16.064-5.277-30.637-9.639-40.046c-4.934-10.327-9.982-16.868-9.982-16.982c-2.754-3.442-2.065-8.491,1.377-11.245
	c3.557-2.754,8.605-2.065,11.359,1.492c0.23,0.229,5.853,7.688,11.475,19.507c3.328,6.885,5.967,13.999,7.918,20.999
	c2.41,8.95,3.557,17.671,3.557,26.277c0,8.491-1.146,17.327-3.557,26.162c-1.951,7-4.59,13.999-7.918,20.999
	c-5.622,11.704-11.244,19.163-11.475,19.392C179.031,218.733,176.621,219.881,174.211,219.881z"/>
<g id="Restricted">
</g>
<g id="Help">
</g>
</svg>
