<?xml version="1.0" encoding="utf-8"?>
<!-- Generator: Adobe Illustrator 18.1.1, SVG Export Plug-In . SVG Version: 6.00 Build 0)  -->
<!DOCTYPE svg PUBLIC "-//W3C//DTD SVG 1.1//EN" "http://www.w3.org/Graphics/SVG/1.1/DTD/svg11.dtd">
<svg version="1.1" xmlns="http://www.w3.org/2000/svg" xmlns:xlink="http://www.w3.org/1999/xlink" x="0px" y="0px"
	 viewBox="0 0 512 512" enable-background="new 0 0 512 512" xml:space="preserve">
<g id="Layer_1">
	<g>
		<path d="M426.3,272.4c0-36-23-70.6-54.6-82.3c-7.7-2.9-16.3,1.1-19.2,8.8c-2.9,7.7,1.1,16.3,8.8,19.2c20,7.4,35.1,30.7,35.1,54.2
			c0,23.7-15.1,47.1-35.1,54.5c-7.7,2.9-11.7,11.4-8.9,19.2c2.2,6,7.9,9.8,14,9.8c1.7,0,3.5-0.3,5.2-0.9
			C403.3,343.3,426.3,308.6,426.3,272.4z"/>
		<path d="M405.7,153c-7.7-2.9-16.3,1.1-19.2,8.8c-2.9,7.7,1.1,16.3,8.8,19.2c33.9,12.5,59.4,51.8,59.4,91.4
			c0,39.8-25.6,79.2-59.5,91.7c-7.7,2.9-11.7,11.4-8.9,19.2c2.2,6,7.9,9.8,14,9.8c1.7,0,3.5-0.3,5.2-0.9
			c45.8-16.9,79.1-67.2,79.1-119.7C484.7,220.1,451.5,169.9,405.7,153z"/>
		<path d="M272.3,130.6c-11.5,0-20.3,4.8-26,8L170,191.9L99.6,192C72.9,192.1,51,213.9,51,240.6v65.7c0,26.8,22,48.7,48.8,48.7h70.8
			l73.1,52.4l1.8,1.1c2,1.2,12.8,7.2,25.2,8c1,0.1,2.2,0.1,3.2,0.1c25.9,0,47.2-21.8,47.2-48.6V180.4
			C321,153.4,298.6,130.6,272.3,130.6z"/>
	</g>
</g>
<g id="Layer_2">
</g>
</svg>
