<?xml version="1.0" encoding="utf-8"?>
<!-- Generator: Adobe Illustrator 18.1.1, SVG Export Plug-In . SVG Version: 6.00 Build 0)  -->
<!DOCTYPE svg PUBLIC "-//W3C//DTD SVG 1.1//EN" "http://www.w3.org/Graphics/SVG/1.1/DTD/svg11.dtd">
<svg version="1.1" xmlns="http://www.w3.org/2000/svg" xmlns:xlink="http://www.w3.org/1999/xlink" x="0px" y="0px"
	 viewBox="0 0 512 512" enable-background="new 0 0 512 512" xml:space="preserve">
<g id="Layer_1">
	<path d="M463,110.2c-12.7,0-23,10.3-23,23v80l-152.3-85c-5.6-3.3-12.4-5.1-18.9-5.1c-20.1,0-36.8,16.3-36.8,36.4V213L80.6,128.2
		c-5.6-3.3-11.8-5.1-18.3-5.1c-20.1,0-36.2,16.3-36.2,36.4v192.6c0,20.1,16.3,36.4,36.4,36.4c9.1,0,16.5-4.1,17.9-4.9l151.8-85v53.5
		c0,20.1,16.6,36.4,36.7,36.4c9.1,0,17.1-4.1,18.5-4.9L440,298.4v80.4c0,12.7,10.3,23,23,23s23-10.3,23-23V133.3
		C486,120.5,475.7,110.2,463,110.2z"/>
</g>
<g id="Layer_2">
</g>
</svg>
