<?xml version="1.0" encoding="utf-8"?>
<!-- Generator: Adobe Illustrator 16.0.0, SVG Export Plug-In . SVG Version: 6.00 Build 0)  -->
<!DOCTYPE svg PUBLIC "-//W3C//DTD SVG 1.1//EN" "http://www.w3.org/Graphics/SVG/1.1/DTD/svg11.dtd">
<svg version="1.1" id="Layer_1" xmlns="http://www.w3.org/2000/svg" xmlns:xlink="http://www.w3.org/1999/xlink" x="0px" y="0px"
	 width="300px" height="300px" viewBox="0 0 300 300" style="enable-background:new 0 0 300 300;" xml:space="preserve">
<path d="M230.284,268.29H69.563v-38.159h160.721V268.29z M270.12,75.059c-13.735,0-24.878,11.143-24.878,24.726
	c0,5.648,1.831,10.836,5.037,14.958l-38.769,36.174l-17.706-70.517c10.227-3.053,17.706-12.515,17.706-23.81
	c0-13.737-10.989-24.88-24.727-24.88c-13.736,0-24.879,11.143-24.879,24.88c0,10.53,6.411,19.385,15.569,23.047L150,148.779
	l-27.626-69.143c9.157-3.662,15.721-12.517,15.721-23.047c0-13.737-11.143-24.88-24.879-24.88c-13.737,0-24.879,11.143-24.879,24.88
	c0,11.295,7.479,20.757,17.705,23.81l-17.553,70.517l-38.769-36.174c3.053-4.122,4.885-9.31,4.885-14.958
	c0-13.583-11.143-24.726-24.726-24.726C16.143,75.059,5,86.201,5,99.784c0,13.737,11.143,24.879,24.88,24.879
	c1.983,0,3.967-0.306,5.952-0.764l34.189,94.48H150h79.979l34.189-94.48c1.832,0.458,3.816,0.764,5.952,0.764
	c13.737,0,24.88-11.142,24.88-24.879C295,86.201,283.857,75.059,270.12,75.059z"/>
<g id="Restricted">
</g>
<g id="Help">
</g>
</svg>
