<svg class="icon icon-birthday" height="16" viewBox="0 0 16 16" version="1.1" aria-hidden="true">
    <path
      d="M15.19,6.82H12.42V4.93a.56.56,0,1,0-1.11,0v1.9H8.59v-3a.57.57,0,0,0-1.15,0v3H5V4.93a.57.57,0,0,0-1.15,0v1.9H.81a.8.8,0,0,0-.81.8V14.8a.8.8,0,0,0,.81.79H15.19A.8.8,0,0,0,16,14.8V7.62A.8.8,0,0,0,15.19,6.82Zm0,.8V11H.8V7.62Z"/>
    <path d="M7.23,1.61A.8.8,0,1,0,8.56.91h0L8.09.44a.1.1,0,0,0-.15,0L7.43,1h0A.79.79,0,0,0,7.23,1.61Z"/>
    <path d="M3.67,2.67A.8.8,0,1,0,5,2H5L4.53,1.5a.1.1,0,0,0-.15,0L3.87,2h0A.79.79,0,0,0,3.67,2.67Z"/>
    <path d="M11.06,2.67A.8.8,0,1,0,12.38,2h0l-.47-.47a.1.1,0,0,0-.15,0L11.26,2h0A.79.79,0,0,0,11.06,2.67Z"/>
</svg>
