<?xml version="1.0" encoding="utf-8"?>
<svg version="1.1" id="Layer_1" xmlns="http://www.w3.org/2000/svg" xmlns:xlink="http://www.w3.org/1999/xlink" x="0px" y="0px"
	 viewBox="0 0 512 512" enable-background="new 0 0 512 512" xml:space="preserve">
<g>
	<path d="M477.959,216H392v-59c0-9.665-7.835-17.5-17.5-17.5S357,147.335,357,157v59h-84v-92c0-9.665-7.835-17.5-17.5-17.5
		S238,114.335,238,124v92h-75v-59c0-9.665-7.835-17.5-17.5-17.5S128,147.335,128,157v59H32.04C18.377,216,7,226.81,7,240.472
		v222.444C7,476.579,18.377,488,32.04,488h445.919C491.622,488,503,476.579,503,462.916V240.472C503,226.81,491.622,216,477.959,216
		z M478,241v103H32V241H478z"/>
	<path d="M231.184,54.086c1.562,10.956,10.563,19.668,21.563,20.893c14.881,1.658,27.481-9.946,27.481-24.493
		c0-7.195-3.101-13.649-8.017-18.155l0.07-0.003l-14.424-14.424c-1.259-1.259-3.299-1.259-4.558,0l-15.885,15.885l0.07-0.003
		C232.683,38.984,230.063,46.227,231.184,54.086z"/>
	<path d="M120.796,86.968c1.562,10.956,10.563,19.668,21.563,20.893c14.881,1.658,27.481-9.946,27.481-24.493
		c0-7.195-3.101-13.649-8.017-18.155l0.07-0.003l-14.424-14.424c-1.259-1.259-3.3-1.259-4.559,0L127.025,66.67l0.07-0.003
		C122.295,71.866,119.676,79.109,120.796,86.968z"/>
	<path d="M349.792,86.968c1.562,10.956,10.563,19.668,21.563,20.893c14.881,1.658,27.481-9.946,27.481-24.493
		c0-7.195-3.101-13.649-8.017-18.155l0.07-0.003l-14.424-14.424c-1.259-1.259-3.299-1.259-4.558,0L356.022,66.67l0.07-0.003
		C351.292,71.866,348.672,79.109,349.792,86.968z"/>
</g>
</svg>
