<?xml version="1.0" encoding="utf-8"?>
<!-- Generator: Adobe Illustrator 16.0.0, SVG Export Plug-In . SVG Version: 6.00 Build 0)  -->
<!DOCTYPE svg PUBLIC "-//W3C//DTD SVG 1.1//EN" "http://www.w3.org/Graphics/SVG/1.1/DTD/svg11.dtd">
<svg version="1.1" id="Layer_1" xmlns="http://www.w3.org/2000/svg" xmlns:xlink="http://www.w3.org/1999/xlink" x="0px" y="0px"
	 width="300px" height="300px" viewBox="0 0 300 300" style="enable-background:new 0 0 300 300;" xml:space="preserve">
<g id="Restricted">
</g>
<g id="Help">
</g>
<path d="M48,245.708c7.218-0.487,13.024-3.754,17.415-9.804c2.827-3.807,6.878-12.195,12.146-25.172l66.585-164.051h8.341
	l66.878,157.465c7.511,17.66,13.12,29.049,16.83,34.172c3.706,5.121,8.973,7.586,15.804,7.39v7.61h-97.023v-7.61
	c9.753-0.39,16.17-1.218,19.242-2.487c3.074-1.267,4.609-4.486,4.609-9.657c0-2.342-0.78-5.903-2.339-10.685
	c-0.979-2.828-2.299-6.241-3.958-10.244l-7.624-18.146H97.619c-4.396,11.904-7.228,19.66-8.497,23.269
	c-2.634,7.708-3.951,13.316-3.951,16.83c0,4.292,2.876,7.415,8.634,9.364c3.413,1.075,8.535,1.661,15.366,1.757v7.61H48V245.708z
	 M160.51,182.635l-28.829-69.366h-2.516l-27.052,69.366H160.51z"/>
</svg>
