<?xml version="1.0" encoding="utf-8"?>
<!-- Generator: Adobe Illustrator 18.1.1, SVG Export Plug-In . SVG Version: 6.00 Build 0)  -->
<!DOCTYPE svg PUBLIC "-//W3C//DTD SVG 1.1//EN" "http://www.w3.org/Graphics/SVG/1.1/DTD/svg11.dtd">
<svg version="1.1" xmlns="http://www.w3.org/2000/svg" xmlns:xlink="http://www.w3.org/1999/xlink" x="0px" y="0px"
	 viewBox="0 0 512 512" enable-background="new 0 0 512 512" xml:space="preserve">
<g id="Layer_1">
	<g>
		<path d="M371,257H140.8c-9.1,0-16.4-7.9-16.4-17s7.4-17,16.4-17H371c9.1,0,16.4,7.9,16.4,17S380.1,257,371,257z"/>
		<path d="M371,323H140.8c-9.1,0-16.4-7.9-16.4-17s7.4-17,16.4-17H371c9.1,0,16.4,7.9,16.4,17S380.1,323,371,323z"/>
		<path d="M371,389H140.8c-9.1,0-16.4-7.4-16.4-16.5s7.4-16.5,16.4-16.5H371c9.1,0,16.4,7.4,16.4,16.5S380.1,389,371,389z"/>
		<path d="M486,97.9c0-39.7-32.2-71.9-71.9-71.9H97.9C58.2,26,26,58.2,26,97.9v316.1c0,39.7,32.2,71.9,71.9,71.9h316.1
			c39.7,0,71.9-32.2,71.9-71.9V97.9z M338.1,108.9c9.1,0,16.4,7.4,16.4,16.4c0,9.1-7.4,16.4-16.4,16.4s-16.4-7.4-16.4-16.4
			C321.7,116.2,329,108.9,338.1,108.9z M255.9,108.9c9.1,0,16.4,7.4,16.4,16.4c0,9.1-7.4,16.4-16.4,16.4c-9.1,0-16.4-7.4-16.4-16.4
			C239.5,116.2,246.8,108.9,255.9,108.9z M173.7,108.9c9.1,0,16.4,7.4,16.4,16.4c0,9.1-7.4,16.4-16.4,16.4s-16.4-7.4-16.4-16.4
			C157.2,116.2,164.6,108.9,173.7,108.9z M435,414.7c0,12.5-7.6,22.3-20.1,22.3H98c-12.5,0-22-9.8-22-22.3V191h359V414.7z"/>
	</g>
</g>
<g id="Layer_2">
</g>
</svg>
