<?xml version="1.0" encoding="utf-8"?>
<!-- Generator: Adobe Illustrator 18.1.1, SVG Export Plug-In . SVG Version: 6.00 Build 0)  -->
<!DOCTYPE svg PUBLIC "-//W3C//DTD SVG 1.1//EN" "http://www.w3.org/Graphics/SVG/1.1/DTD/svg11.dtd">
<svg version="1.1" xmlns="http://www.w3.org/2000/svg" xmlns:xlink="http://www.w3.org/1999/xlink" x="0px" y="0px"
	 viewBox="0 0 512 512" enable-background="new 0 0 512 512" xml:space="preserve">
<g id="Layer_1">
	<g>
		<path d="M370.5,261H161.3c-8.3,0-14.9-7.2-14.9-15.5s6.7-15.5,14.9-15.5h209.2c8.3,0,14.9,7.2,14.9,15.5S378.8,261,370.5,261z"/>
		<path d="M370.5,321H161.3c-8.3,0-14.9-7.2-14.9-15.5s6.7-15.5,14.9-15.5h209.2c8.3,0,14.9,7.2,14.9,15.5S378.8,321,370.5,321z"/>
		<path d="M370.5,381H161.3c-8.3,0-14.9-6.7-14.9-15s6.7-15,14.9-15h209.2c8.3,0,14.9,6.7,14.9,15S378.8,381,370.5,381z"/>
		<path d="M475,116.4c0-36.1-29.3-65.4-65.4-65.4H122.4C86.3,51,57,80.3,57,116.4v287.2c0,36.1,29.3,65.4,65.4,65.4h287.2
			c36.1,0,65.4-29.3,65.4-65.4V116.4z M340.6,126.3c8.3,0,14.9,6.7,14.9,14.9c0,8.3-6.7,14.9-14.9,14.9c-8.3,0-14.9-6.7-14.9-14.9
			C325.7,133,332.4,126.3,340.6,126.3z M265.9,126.3c8.3,0,14.9,6.7,14.9,14.9c0,8.3-6.7,14.9-14.9,14.9s-14.9-6.7-14.9-14.9
			C251,133,257.7,126.3,265.9,126.3z M191.2,126.3c8.3,0,14.9,6.7,14.9,14.9c0,8.3-6.7,14.9-14.9,14.9c-8.3,0-14.9-6.7-14.9-14.9
			C176.3,133,182.9,126.3,191.2,126.3z M429,404.2c0,11.3-7.2,20.8-18.6,20.8h-288c-11.3,0-20.4-9.4-20.4-20.8V201h327V404.2z"/>
	</g>
</g>
<g id="Layer_2">
</g>
</svg>
