<?xml version="1.0" encoding="utf-8"?>
<!-- Generator: Adobe Illustrator 16.0.0, SVG Export Plug-In . SVG Version: 6.00 Build 0)  -->
<!DOCTYPE svg PUBLIC "-//W3C//DTD SVG 1.1//EN" "http://www.w3.org/Graphics/SVG/1.1/DTD/svg11.dtd">
<svg version="1.1" id="Layer_1" xmlns="http://www.w3.org/2000/svg" xmlns:xlink="http://www.w3.org/1999/xlink" x="0px" y="0px"
	 width="300px" height="300px" viewBox="0 0 300 300" style="enable-background:new 0 0 300 300;" xml:space="preserve">
<g id="Restricted">
</g>
<g id="Help">
</g>
<path d="M27.162,265.26c8.691-0.587,15.686-4.521,20.973-11.807c3.405-4.584,8.284-14.686,14.627-30.314l80.189-197.565h10.045
	l80.541,189.633c9.045,21.268,15.8,34.983,20.27,41.153c4.462,6.167,10.807,9.136,19.031,8.899v9.165H155.992v-9.165
	c11.748-0.469,19.475-1.467,23.174-2.996c3.703-1.525,5.552-5.403,5.552-11.63c0-2.82-0.94-7.109-2.819-12.867
	c-1.178-3.405-2.768-7.516-4.766-12.337l-9.182-21.854H86.918c-5.293,14.335-8.705,23.676-10.232,28.023
	c-3.173,9.283-4.757,16.037-4.757,20.268c0,5.169,3.461,8.929,10.396,11.276c4.112,1.295,10.279,2,18.507,2.116v9.165H27.162V265.26
	z M162.656,189.302l-34.717-83.537h-3.03L92.33,189.302H162.656z"/>
</svg>
