<svg class="icon icon-blog" height="16" viewBox="0 0 16 16" version="1.1" aria-hidden="true">
    <path d="M12,8H4A.59.59,0,0,1,4,6.85h8A.59.59,0,0,1,12,8Z"/>
    <path d="M12,10.33H4A.59.59,0,0,1,4,9.15h8a.59.59,0,0,1,0,1.18Z"/>
    <path d="M12,12.63H4a.57.57,0,0,1,0-1.15h8a.57.57,0,0,1,0,1.15Z"/>
    <path
      d="M16,2.5A2.5,2.5,0,0,0,13.5,0H2.5A2.5,2.5,0,0,0,0,2.5v11A2.5,2.5,0,0,0,2.5,16h11A2.5,2.5,0,0,0,16,13.5Zm-5.14.38a.57.57,0,1,1-.57.57A.57.57,0,0,1,10.86,2.88ZM8,2.88a.57.57,0,1,1-.57.57A.57.57,0,0,1,8,2.88Zm-2.86,0a.57.57,0,1,1-.57.57A.57.57,0,0,1,5.14,2.88Zm9.09,10.64a.71.71,0,0,1-.7.77H2.5a.76.76,0,0,1-.77-.77V5.74H14.23Z"/>
</svg>
