<?xml version="1.0" encoding="utf-8"?>
<!-- Generator: Adobe Illustrator 18.1.1, SVG Export Plug-In . SVG Version: 6.00 Build 0)  -->
<!DOCTYPE svg PUBLIC "-//W3C//DTD SVG 1.1//EN" "http://www.w3.org/Graphics/SVG/1.1/DTD/svg11.dtd">
<svg version="1.1" xmlns="http://www.w3.org/2000/svg" xmlns:xlink="http://www.w3.org/1999/xlink" x="0px" y="0px"
	 viewBox="0 0 512 512" enable-background="new 0 0 512 512" xml:space="preserve">
<g id="Layer_1">
	<g>
		<path d="M381,257H130.8c-9.9,0-17.9-8.6-17.9-18.5s8-18.5,17.9-18.5H381c9.9,0,17.9,8.6,17.9,18.5S390.9,257,381,257z"/>
		<path d="M381,329H130.8c-9.9,0-17.9-8.6-17.9-18.5s8-18.5,17.9-18.5H381c9.9,0,17.9,8.6,17.9,18.5S390.9,329,381,329z"/>
		<path d="M381,401H130.8c-9.9,0-17.9-8.1-17.9-18s8-18,17.9-18H381c9.9,0,17.9,8.1,17.9,18S390.9,401,381,401z"/>
		<path d="M506,84.2C506,41,471,6,427.8,6H84.2C41,6,6,41,6,84.2v343.6C6,471,41,506,84.2,506h343.6c43.2,0,78.2-35,78.2-78.2V84.2z
			 M345.3,96.1c9.9,0,17.9,8,17.9,17.9c0,9.9-8,17.9-17.9,17.9s-17.9-8-17.9-17.9C327.4,104.1,335.4,96.1,345.3,96.1z M255.9,96.1
			c9.9,0,17.9,8,17.9,17.9c0,9.9-8,17.9-17.9,17.9s-17.9-8-17.9-17.9C238,104.1,246,96.1,255.9,96.1z M166.5,96.1
			c9.9,0,17.9,8,17.9,17.9c0,9.9-8,17.9-17.9,17.9s-17.9-8-17.9-17.9C148.7,104.1,156.7,96.1,166.5,96.1z M451,428.5
			c0,13.6-8.7,24.5-22.2,24.5H84.3C70.7,453,60,442.1,60,428.5V185h391V428.5z"/>
	</g>
</g>
<g id="Layer_2">
</g>
</svg>
