<?xml version="1.0" encoding="utf-8"?>
<!-- Generator: Adobe Illustrator 16.0.0, SVG Export Plug-In . SVG Version: 6.00 Build 0)  -->
<!DOCTYPE svg PUBLIC "-//W3C//DTD SVG 1.1//EN" "http://www.w3.org/Graphics/SVG/1.1/DTD/svg11.dtd">
<svg version="1.1" id="Layer_1" xmlns="http://www.w3.org/2000/svg" xmlns:xlink="http://www.w3.org/1999/xlink" x="0px" y="0px"
	 width="300px" height="300px" viewBox="0 0 300 300" style="enable-background:new 0 0 300 300;" xml:space="preserve">
<path d="M52.295,290.469V5h53.525v124.467c13.735-28.035,35.4-42.055,64.995-42.055c23.789,0,42.622,8.779,56.357,26.338
	c13.594,17.416,20.532,41.49,20.532,72.076c0,33.133-7.788,59.613-23.223,79.438S188.374,295,162.603,295
	c-22.231,0-41.064-8.213-56.782-24.639l-9.912,20.107H52.295z M105.82,238.643c13.027,14.443,26.904,21.664,41.631,21.664
	c13.027,0,23.647-6.371,31.436-19.115s11.753-29.736,11.753-50.834c0-40.641-13.169-60.891-39.224-60.891
	c-15.859,0-31.011,10.055-45.596,30.445V238.643z"/>
<g id="Restricted">
</g>
<g id="Help">
</g>
</svg>
