<?xml version="1.0" encoding="utf-8"?>
<!-- Generator: Adobe Illustrator 16.0.0, SVG Export Plug-In . SVG Version: 6.00 Build 0)  -->
<!DOCTYPE svg PUBLIC "-//W3C//DTD SVG 1.1//EN" "http://www.w3.org/Graphics/SVG/1.1/DTD/svg11.dtd">
<svg version="1.1" id="Layer_1" xmlns="http://www.w3.org/2000/svg" xmlns:xlink="http://www.w3.org/1999/xlink" x="0px" y="0px"
	 width="300px" height="300px" viewBox="0 0 300 300" style="enable-background:new 0 0 300 300;" xml:space="preserve">
<path d="M266.76,34.092c-1.15,0.89-2.83,2.181-4.991,3.354c-2.178,1.162-4.765,2.165-7.679,2.408
	c-2.9,0.309-6.167-0.047-10.095-0.775c-1.962-0.36-4.083-0.854-6.383-1.318c-1.175-0.25-2.369-0.505-3.583-0.764
	c-1.27-0.229-2.559-0.461-3.866-0.695c-2.675-0.483-5.548-0.814-8.631-1c-3.077-0.2-6.368-0.151-9.785,0.28
	c-3.412,0.407-6.95,1.227-10.389,2.507c-0.824,0.299-1.788,0.686-2.725,1.1l-0.989,0.465l-0.422,0.201l-0.353,0.183l-0.705,0.372
	c-1.892,0.987-3.603,2.148-5.197,3.389c-6.306,5.053-10.374,11.119-13.565,17.101c-1.605,3.001-2.921,6.054-4.127,9.076
	c-0.758,1.915-1.454,3.825-2.092,5.735l-25.524-10.76l-9.965,23.638c-40.607-0.474-79.373,23.233-96.121,62.965
	c-22.09,52.399,2.482,112.786,54.881,134.874c52.401,22.09,112.785-2.482,134.875-54.883c16.749-39.729,6.655-84.035-22.036-112.772
	l9.965-23.638l-28.605-12.059c0.786-1.781,1.582-3.553,2.431-5.273c1.195-2.444,2.513-4.783,3.854-7.001
	c1.352-2.21,2.787-4.27,4.266-6.08c1.497-1.787,3.028-3.312,4.532-4.442c0.755-0.536,1.477-1.047,2.189-1.389
	c0.152-0.074,0.41-0.229,0.469-0.244l0.995-0.45l1.307-0.529c1.975-0.757,4.01-1.329,6.152-1.756
	c2.139-0.427,4.38-0.689,6.709-0.895c2.327-0.198,4.739-0.22,7.2-0.315c1.259-0.021,2.501-0.041,3.724-0.062
	c1.28-0.044,2.54-0.088,3.779-0.131c2.529-0.073,5.085-0.271,7.619-0.599c2.532-0.293,5.041-0.86,7.428-1.577
	c2.379-0.755,4.623-1.757,6.563-2.961c3.91-2.437,6.412-5.532,7.839-8.144c1.471-2.617,2.062-4.805,2.417-6.277
	c0.178-0.736,0.27-1.311,0.324-1.699c0.058-0.385,0.088-0.583,0.088-0.583S267.921,33.162,266.76,34.092z"/>
<g id="Restricted">
</g>
<g id="Help">
</g>
</svg>
