<svg class="icon icon-bug" height="16" viewBox="0 0 16 16" version="1.1" aria-hidden="true">
    <path
      d="M14.65,7.83a3.4,3.4,0,0,0-1.85-1c0-.1,0-.21,0-.3s0-.15,0-.22c3-.84,2.55-4.8,2.55-4.84a.32.32,0,1,0-.64.07s.35,3.35-2,4.12a3,3,0,0,0-1.85-2.33,2.89,2.89,0,0,0-5.71,0A3,3,0,0,0,3.32,5.71c-2.39-.72-2.06-4-2-4.13A.32.32,0,0,0,1,1.22a.31.31,0,0,0-.35.28S.22,5.56,3.25,6.36c0,.07,0,.13,0,.2s0,.17,0,.25a3.32,3.32,0,0,0-1.91,1A5.83,5.83,0,0,0,0,11.62c0,.17.15.15.32.15h0c.18,0,.32,0,.31-.17A5.18,5.18,0,0,1,1.81,8.26,2.78,2.78,0,0,1,3.3,7.48c0,.41.1.85.19,1.3-2.68,2.32-1,6-.93,6a.32.32,0,1,0,.58-.28s-1.42-3,.52-5a11.87,11.87,0,0,0,1.62,3.78C6.57,15.17,8,15,8,15s1.41.12,2.76-1.76A11.06,11.06,0,0,0,12.4,9.57c1.85,2,.53,4.83.46,5a.32.32,0,0,0,.58.28s1.72-3.65-.87-6c.09-.46.15-.91.19-1.33a2.77,2.77,0,0,1,1.43.77,5.14,5.14,0,0,1,1.17,3.32c0,.18.13.17.31.17h0c.17,0,.31,0,.32-.15A5.71,5.71,0,0,0,14.65,7.83Z"/>
</svg>
