<?xml version="1.0" encoding="utf-8"?>
<!-- Generator: Adobe Illustrator 18.1.1, SVG Export Plug-In . SVG Version: 6.00 Build 0)  -->
<!DOCTYPE svg PUBLIC "-//W3C//DTD SVG 1.1//EN" "http://www.w3.org/Graphics/SVG/1.1/DTD/svg11.dtd">
<svg version="1.1" xmlns="http://www.w3.org/2000/svg" xmlns:xlink="http://www.w3.org/1999/xlink" x="0px" y="0px"
	 viewBox="0 0 512 512" enable-background="new 0 0 512 512" xml:space="preserve">
<g id="Layer_1">
	<path d="M463.9,250.8c-15.6-16.1-35-26.2-57.8-30.6c0.1-3.1,0.4-6.4,0.4-9.3c0-2.3-0.1-4.5-0.2-6.8C498.8,178,486,54.2,485.9,53
		c-0.6-5.5-5.6-9.4-11.1-8.8c-5.5,0.6-9.4,5.6-8.8,11.1c0.1,1.1,10.8,104.8-62,128.6c-5.5-29.2-21.3-56.5-57.9-72.7
		c-7.3-42.8-44.3-75.4-89.2-75.4s-81.9,32.6-89.2,75.4c-36.8,16.3-52.6,43.8-58,73.3C35.2,161.9,45.5,59.7,46,55.2
		c0.6-5.5-3.3-10.5-8.8-11.1c-5.7-1-10.5,3.3-11.1,8.8c-0.1,1.3-13.2,126.7,81.5,151.7c-0.1,2.1-0.2,4.2-0.2,6.2
		c0,2.4,0.2,5.3,0.3,7.8c-23.6,3.8-43.5,13.6-59.6,30.2C4.2,294.2,5.9,366,6,369.2c0.2,5.4,4.6,4.8,10,4.8c0.1,0,0.2,0,0.3,0
		c5.5,0,9.9,0.1,9.7-5.5c0-0.7-1.5-65.4,36.5-104.5c12.5-12.8,28.1-20.7,46.5-24.4c1.2,12.8,3.2,26.5,6,40.7
		c-83.7,72.4-29.8,187-29.2,188.2c1.7,3.6,5.3,5.7,9,5.7c1.5,0,3-0.3,4.4-1c5-2.4,7-8.4,4.6-13.4c-0.5-1-44.5-94.2,16.3-157
		c10.3,40.9,26.7,83.7,50.6,118.2c40.5,58.8,86.2,55.1,86.2,55.1s43.9,3.8,86.2-55.1c24.1-33.6,40.5-75.7,50.6-116.2
		c58,62.3,16.4,150.9,14.5,155c-2.4,5-0.3,10.9,4.6,13.4c1.4,0.7,2.9,1,4.4,1c3.7,0,7.3-2.1,9-5.6c0.6-1.2,53.7-114.1-27.3-186.6
		c2.8-14.5,4.8-28.4,6-41.5c17.6,3.8,32.6,11.7,44.7,24c38,39.1,36.5,103.2,36.5,103.9c-0.1,5.5,4.2,5.4,9.7,5.4c0.1,0,0.2,0,0.3,0
		c5.4,0,9.8,0.6,10-4.8C506.1,366,507.8,296.1,463.9,250.8z"/>
</g>
<g id="Layer_2">
</g>
</svg>
