<?xml version="1.0" encoding="utf-8"?>
<!-- Generator: Adobe Illustrator 18.1.1, SVG Export Plug-In . SVG Version: 6.00 Build 0)  -->
<!DOCTYPE svg PUBLIC "-//W3C//DTD SVG 1.1//EN" "http://www.w3.org/Graphics/SVG/1.1/DTD/svg11.dtd">
<svg version="1.1" xmlns="http://www.w3.org/2000/svg" xmlns:xlink="http://www.w3.org/1999/xlink" x="0px" y="0px"
	 viewBox="0 0 512 512" enable-background="new 0 0 512 512" xml:space="preserve">
<g id="Layer_1">
	<path d="M437.1,257c-13.7-14.1-30.7-23-50.7-26.8c0.1-2.7,0.3-5.6,0.3-8.2c0-2-0.1-4-0.2-6c81.2-22.9,70-131.4,69.8-132.6
		c-0.5-4.8-4.9-8.3-9.7-7.7c-4.8,0.5-8.3,4.9-7.7,9.7c0.1,0.9,9.5,91.9-54.4,112.8c-4.8-25.6-18.7-49.5-50.8-63.7
		c-6.4-37.5-38.9-66.2-78.2-66.2s-71.8,28.6-78.2,66.2c-32.3,14.3-46.2,38.4-50.9,64.2C61.1,179,70.2,89.4,70.6,85.5
		c0.5-4.8-2.9-9.2-7.7-9.7c-5-0.8-9.2,2.9-9.7,7.7c-0.1,1.1-11.6,111.1,71.4,133.1c-0.1,1.8-0.2,3.6-0.2,5.5c0,2.1,0.2,4.6,0.3,6.9
		c-20.7,3.4-38.2,12-52.3,26.5C34,295,35.5,358,35.6,360.8c0.1,4.8,4,4.2,8.8,4.2c0.1,0,0.2,0,0.3,0c4.8,0,8.7,0.1,8.5-4.8
		c0-0.6-1.3-57.3,32-91.6c10.9-11.2,24.7-18.2,40.8-21.4c1.1,11.2,2.8,23.3,5.3,35.7c-73.4,63.5-26.1,164-25.6,165.1
		c1.5,3.1,4.6,5,7.9,5c1.3,0,2.6-0.3,3.8-0.9c4.4-2.1,6.2-7.4,4.1-11.7c-0.4-0.9-39.1-82.6,14.3-137.7c9,35.9,23.5,73.4,44.3,103.7
		c35.6,51.6,75.6,48.3,75.6,48.3s38.5,3.3,75.6-48.3c21.2-29.5,35.5-66.4,44.3-101.9c50.8,54.6,14.4,132.4,12.7,135.9
		c-2.1,4.4-0.3,9.6,4.1,11.7c1.2,0.6,2.5,0.9,3.8,0.9c3.2,0,6.4-1.8,7.9-4.9c0.5-1,47.1-100-24-163.6c2.5-12.7,4.2-24.9,5.2-36.4
		c15.4,3.4,28.6,10.2,39.2,21.1c33.3,34.3,32,90.5,32,91.1c-0.1,4.9,3.7,4.7,8.5,4.7c0.1,0,0.2,0,0.3,0c4.7,0,8.6,0.6,8.8-4.2
		C474.1,358,475.6,296.7,437.1,257z"/>
</g>
<g id="Layer_2">
</g>
</svg>
