<?xml version="1.0" encoding="utf-8"?>
<!-- Generator: Adobe Illustrator 18.1.1, SVG Export Plug-In . SVG Version: 6.00 Build 0)  -->
<!DOCTYPE svg PUBLIC "-//W3C//DTD SVG 1.1//EN" "http://www.w3.org/Graphics/SVG/1.1/DTD/svg11.dtd">
<svg version="1.1" xmlns="http://www.w3.org/2000/svg" xmlns:xlink="http://www.w3.org/1999/xlink" x="0px" y="0px"
	 viewBox="0 0 512 512" enable-background="new 0 0 512 512" xml:space="preserve">
<g id="Layer_1">
	<g>
		<path d="M155,129c12.6,0,22-10.2,22-22.7V26h-44v80.3C133,118.8,142.4,129,155,129z"/>
		<rect x="133" y="249" width="45" height="45"/>
		<rect x="208" y="249" width="45" height="45"/>
		<rect x="283" y="249" width="44" height="45"/>
		<rect x="357" y="249" width="45" height="45"/>
		<rect x="133" y="338" width="45" height="45"/>
		<rect x="208" y="338" width="45" height="45"/>
		<rect x="283" y="338" width="44" height="45"/>
		<rect x="357" y="338" width="45" height="45"/>
		<path d="M418,55.1v51.1c0,20.8-17.7,37.7-38.5,37.7S341,127,341,106.3V54H192v52.3c0,20.8-15.2,37.7-36,37.7s-36-16.9-36-37.7
			V55.2C88,58.4,59,86,59,120v287.7c0,36.1,28.8,65.4,64.9,65.4h287.7c36.1,0,65.5-29.3,65.5-65.4V120C477,85.8,452,58,418,55.1z
			 M431,407.2c0,11.3-7.4,20.8-18.8,20.8h-288c-11.3,0-21.2-9.4-21.2-20.8V204h328V407.2z"/>
		<path d="M380.5,129c12.6,0,22.5-10.2,22.5-22.7V26h-45v80.3C358,118.8,367.9,129,380.5,129z"/>
	</g>
</g>
<g id="Layer_2">
</g>
</svg>
