<?xml version="1.0" encoding="utf-8"?>
<!-- Generator: Adobe Illustrator 18.1.1, SVG Export Plug-In . SVG Version: 6.00 Build 0)  -->
<!DOCTYPE svg PUBLIC "-//W3C//DTD SVG 1.1//EN" "http://www.w3.org/Graphics/SVG/1.1/DTD/svg11.dtd">
<svg version="1.1" xmlns="http://www.w3.org/2000/svg" xmlns:xlink="http://www.w3.org/1999/xlink" x="0px" y="0px"
	 viewBox="0 0 512 512" enable-background="new 0 0 512 512" xml:space="preserve">
<g id="Layer_1">
	<g>
		<path d="M129.5,121.2c14,0,24.5-11.4,24.5-25.4V6h-49v89.8C105,109.8,115.5,121.2,129.5,121.2z"/>
		<rect x="105" y="255" width="51" height="51"/>
		<rect x="189" y="255" width="50" height="51"/>
		<rect x="273" y="255" width="49" height="51"/>
		<rect x="356" y="255" width="50" height="51"/>
		<rect x="105" y="355" width="51" height="50"/>
		<rect x="189" y="355" width="50" height="50"/>
		<rect x="273" y="355" width="49" height="50"/>
		<rect x="356" y="355" width="50" height="50"/>
		<path d="M424,38.6v57.2c0,23.2-19.8,42.1-43,42.1s-43-18.9-43-42.1V37H171v58.8c0,23.2-16.8,42.1-40,42.1S91,119,91,95.8V38.7
			c-36,3.6-69,34.4-69,72.4v321.8c0,40.4,32.6,73.2,73,73.2h321.8c40.4,0,73.2-32.8,73.2-73.2V111.1C490,72.9,462,41.8,424,38.6z
			 M439,432.4c0,12.7-8.8,23.6-21.5,23.6H95.4C82.7,456,72,445.1,72,432.4V205h367V432.4z"/>
		<path d="M382,121.2c14,0,25-11.4,25-25.4V6h-50v89.8C357,109.8,368,121.2,382,121.2z"/>
	</g>
</g>
<g id="Layer_2">
</g>
</svg>
