<svg class="icon icon-calendar" height="16" viewBox="0 0 15 16" version="1.1" aria-hidden="true">
    <path d="M3.45,3.69a.79.79,0,0,0,.78-.81V0H2.67V2.87A.79.79,0,0,0,3.45,3.69Z"/>
    <rect x="2.67" y="7.97" width="1.63" height="1.63"/>
    <rect x="5.34" y="7.97" width="1.6" height="1.63"/>
    <rect x="8.06" y="7.97" width="1.57" height="1.63"/>
    <rect x="10.7" y="7.97" width="1.6" height="1.63"/>
    <rect x="2.67" y="11.17" width="1.63" height="1.6"/>
    <rect x="5.34" y="11.17" width="1.6" height="1.6"/>
    <rect x="8.06" y="11.17" width="1.57" height="1.6"/>
    <rect x="10.7" y="11.17" width="1.6" height="1.6"/>
    <path
      d="M12.89,1V2.87a1.39,1.39,0,0,1-2.78,0V1H4.79V2.87a1.29,1.29,0,1,1-2.57,0V1A2.43,2.43,0,0,0,0,3.36v10.3A2.33,2.33,0,0,0,2.35,16h10.3A2.33,2.33,0,0,0,15,13.66V3.36A2.27,2.27,0,0,0,12.89,1Zm.45,12.6a.7.7,0,0,1-.67.75H2.36a.76.76,0,0,1-.74-.75V6.37H13.34Z"/>
    <path d="M11.53,3.69a.8.8,0,0,0,.8-.81V0h-1.6V2.87A.8.8,0,0,0,11.53,3.69Z"/>
</svg>
