<svg class="icon icon-call-private" height="16" viewBox="0 0 16 16" version="1.1" aria-hidden="true">
    <polygon points="0.54 2.95 0.54 2.97 0.56 2.95 0.54 2.95"/>
    <polygon points="0.54 2.97 0.54 2.97 0.54 2.97 0.54 2.97"/>
    <g>
        <path
          d="M4.47,5.32C2.27,6.59,5.63,12.88,8,11.49l2.23,3.87c-1,.59-1.88,1-3.05.28C3.95,13.77.35,7.54.45,3.82c0-1.29.8-1.8,1.79-2.37L4.47,5.32Z"/>
        <path
          d="M5.4,5.21A.5.5,0,0,1,4.72,5L2.61,1.39A.5.5,0,0,1,2.79.71L3.9.07a.5.5,0,0,1,.68.18l2.1,3.64a.5.5,0,0,1-.18.68L5.4,5.21Z"/>
        <path
          d="M11.14,15.17a.5.5,0,0,1-.68-.18l-2.1-3.64a.5.5,0,0,1,.18-.68L9.65,10a.5.5,0,0,1,.68.18l2.1,3.64a.5.5,0,0,1-.18.68l-1.11.64Z"/>
    </g>
    <path
      d="M15.43,4.34h0L13.9,5.45l.59,1.81a.29.29,0,0,1-.44.32h0L12.5,6.46,11,7.58h0a.29.29,0,0,1-.44-.32l.59-1.81L9.57,4.34h0a.29.29,0,0,1,.17-.52h1.9L12.23,2a.29.29,0,0,1,.55,0l.59,1.8h1.9a.29.29,0,0,1,.17.52Z"/>
</svg>
