<svg class="icon icon-call" height="16" viewBox="0 0 13 16" version="1.1" aria-hidden="true">
    <path
      d="M4.5,5.32c-2.2,1.27,1.16,7.56,3.56,6.17l2.23,3.87c-1,.59-1.88,1-3.05.28C4,13.77.37,7.54.48,3.82c0-1.29.8-1.8,1.79-2.37L4.5,5.32Z"/>
    <path
      d="M5.42,5.21A.5.5,0,0,1,4.74,5L2.64,1.39A.5.5,0,0,1,2.82.71L3.93.07a.5.5,0,0,1,.68.18l2.1,3.64a.5.5,0,0,1-.18.68l-1.11.64Z"/>
    <path
      d="M11.17,15.17a.5.5,0,0,1-.68-.18l-2.1-3.64a.5.5,0,0,1,.18-.68L9.67,10a.5.5,0,0,1,.68.18l2.1,3.64a.5.5,0,0,1-.18.68l-1.11.64Z"/>
</svg>
