<?xml version="1.0" encoding="utf-8"?>
<!-- Generator: Adobe Illustrator 19.1.0, SVG Export Plug-In . SVG Version: 6.00 Build 0)  -->
<!DOCTYPE svg PUBLIC "-//W3C//DTD SVG 1.1//EN" "http://www.w3.org/Graphics/SVG/1.1/DTD/svg11.dtd">
<svg version="1.1" id="Layer_1" xmlns="http://www.w3.org/2000/svg" xmlns:xlink="http://www.w3.org/1999/xlink" x="0px" y="0px"
	 viewBox="0 0 512 512" enable-background="new 0 0 512 512" xml:space="preserve">
<polygon points="26,125.6 26,126 26.4,125.6 "/>
<polygon points="485.9,386.2 485.4,386.6 485.9,386.6 "/>
<polygon points="26,126 26,126.1 26,126 "/>
<polygon points="485.9,386.1 485.9,386.1 485.9,386.2 "/>
<g id="_152222920">
	<path id="_152222248" d="M198.5,178.9c-63.2,36.5,33.3,217.4,102.5,177.5c12.3,21.3,51.9,89.9,64.2,111.1
		c-29.2,16.9-53.9,27.5-87.8,8.1c-94-53.7-197.5-232.9-194.5-339.7c1-37.1,22.9-51.7,51.5-68.2C146.6,89,186.2,157.6,198.5,178.9
		L198.5,178.9z"/>
	<path id="_150519168" d="M225,175.9c-6.8,3.9-15.6,1.6-19.6-5.2L145,65.8c-3.9-6.8-1.6-15.6,5.2-19.6L182,27.9
		c6.8-3.9,15.6-1.6,19.6,5.2l60.5,104.8c3.9,6.8,1.6,15.6-5.2,19.6L225,175.9L225,175.9z"/>
	<path id="_226148072" d="M390.3,462.1c-6.8,3.9-15.6,1.6-19.6-5.2l-60.5-104.8c-3.9-6.8-1.6-15.6,5.2-19.6l31.8-18.4
		c6.8-3.9,15.6-1.6,19.6,5.2l60.5,104.8c3.9,6.8,1.6,15.6-5.2,19.6L390.3,462.1L390.3,462.1z"/>
</g>
</svg>
