<?xml version="1.0" encoding="utf-8"?>
<!-- Generator: Adobe Illustrator 18.1.1, SVG Export Plug-In . SVG Version: 6.00 Build 0)  -->
<!DOCTYPE svg PUBLIC "-//W3C//DTD SVG 1.1//EN" "http://www.w3.org/Graphics/SVG/1.1/DTD/svg11.dtd">
<svg version="1.1" xmlns="http://www.w3.org/2000/svg" xmlns:xlink="http://www.w3.org/1999/xlink" x="0px" y="0px"
	 viewBox="0 0 512 512" enable-background="new 0 0 512 512" xml:space="preserve">
<g id="Layer_1">
	<g>
		<path d="M57.4,401.4L323.6,135H70.4c-21,0-38.1,17.2-38.1,38.3L33,365.9C33,382.1,43.1,395.9,57.4,401.4z"/>
		<path d="M465.2,191.5L376,241.1l-0.2-52.5L160.4,404h178c21,0,38.1-17,38.1-38l-0.2-65.8l88.5,48.3c8.6,4.7,15.7,0.5,15.7-9.3
			l0.3-138.5C480.8,190.9,473.8,186.7,465.2,191.5z"/>
		<path d="M424.5,87.2c-8.8-8.8-22.9-8.8-31.7,0l-48.7,48.7c0,0-0.1,0-0.1,0L75.9,404h0.2l-39.2,39.2c-8.8,8.7-8.8,22.9,0,31.7
			c4.4,4.4,10.1,6.6,15.8,6.6s11.5-2.2,15.8-6.6l356-356C433.3,110.2,433.3,96,424.5,87.2z"/>
	</g>
</g>
<g id="Layer_2">
</g>
</svg>
