<svg class="icon icon-cam-off" height="16" viewBox="0 0 16 16" version="1.1" aria-hidden="true">
    <path d="M1,12.28l9.46-9.46h-9A1.36,1.36,0,0,0,.07,4.17L.1,11A1.35,1.35,0,0,0,1,12.28Z"/>
    <path
      d="M15.45,4.82,12.28,6.58V4.71L4.62,12.35h6.32A1.34,1.34,0,0,0,12.3,11V8.67l3.14,1.72a.35.35,0,0,0,.56-.33V5.15C16,4.8,15.75,4.65,15.45,4.82Z"/>
    <path d="M14,1.12a.8.8,0,0,0-1.13,0L11.15,2.85h0L1.62,12.35h0L.23,13.75A.8.8,0,0,0,.8,15.12a.79.79,0,0,0,.56-.23L14,2.24A.8.8,0,0,0,14,1.12Z"/>
</svg>
