<svg class="icon icon-cart" height="16" viewBox="0 0 16 16" version="1.1" aria-hidden="true">
    <polygon points="2.27 3.64 2.27 3.65 2.29 3.64 2.27 3.64"/>
    <polygon points="2.27 3.66 2.27 3.66 2.27 3.65 2.27 3.66"/>
    <path
      d="M16,3.09c-.05.32-.11.64-.15,1-.19,1.28-.37,2-.55,3.26,0,.3-.08.6-.13.9a.82.82,0,0,1-.9.76H4.93l.14.83H13.4a.86.86,0,0,1,.81.4.83.83,0,0,1-.64,1.26H4.48a.88.88,0,0,1-1-.81c-.5-3-1-5.41-1.5-8.41,0-.05,0-.1,0-.16H.88A.84.84,0,0,1,0,1.42a.81.81,0,0,1,.74-1c.66,0,1.31,0,2,0a.81.81,0,0,1,.81.75L3.67,2l0,.06H15a.88.88,0,0,1,1,.69Z"/>
    <path d="M12.51,12.2a1.69,1.69,0,1,1-1.72,1.66A1.7,1.7,0,0,1,12.51,12.2Z"/>
    <path d="M7.46,13.88A1.69,1.69,0,1,1,5.78,12.2,1.69,1.69,0,0,1,7.46,13.88Z"/>
</svg>
