<?xml version="1.0" encoding="utf-8"?>
<!-- Generator: Adobe Illustrator 18.1.1, SVG Export Plug-In . SVG Version: 6.00 Build 0)  -->
<!DOCTYPE svg PUBLIC "-//W3C//DTD SVG 1.1//EN" "http://www.w3.org/Graphics/SVG/1.1/DTD/svg11.dtd">
<svg version="1.1" id="Layer_1" xmlns="http://www.w3.org/2000/svg" xmlns:xlink="http://www.w3.org/1999/xlink" x="0px" y="0px"
	 viewBox="0 0 512 512" enable-background="new 0 0 512 512" xml:space="preserve">
<g>
	<path d="M226,33.9c0-4.4-3.5-7.9-7.9-7.9H33.9c-4.4,0-7.9,3.5-7.9,7.9v184.2c0,4.4,3.5,7.9,7.9,7.9h184.2c4.4,0,7.9-3.5,7.9-7.9
		V33.9z"/>
	<path d="M486,33.9c0-4.4-3.5-7.9-7.9-7.9H293.9c-4.4,0-7.9,3.5-7.9,7.9v184.2c0,4.4,3.5,7.9,7.9,7.9h184.2c4.4,0,7.9-3.5,7.9-7.9
		V33.9z"/>
	<path d="M226,293.9c0-4.4-3.5-7.9-7.9-7.9H33.9c-4.4,0-7.9,3.5-7.9,7.9v184.2c0,4.4,3.5,7.9,7.9,7.9h184.2c4.4,0,7.9-3.5,7.9-7.9
		V293.9z"/>
	<path d="M486,293.9c0-4.4-3.5-7.9-7.9-7.9H293.9c-4.4,0-7.9,3.5-7.9,7.9v184.2c0,4.4,3.5,7.9,7.9,7.9h184.2c4.4,0,7.9-3.5,7.9-7.9
		V293.9z"/>
</g>
</svg>
