<?xml version="1.0" encoding="utf-8"?>
<!-- Generator: Adobe Illustrator 18.1.1, SVG Export Plug-In . SVG Version: 6.00 Build 0)  -->
<!DOCTYPE svg PUBLIC "-//W3C//DTD SVG 1.1//EN" "http://www.w3.org/Graphics/SVG/1.1/DTD/svg11.dtd">
<svg version="1.1" id="Layer_1" xmlns="http://www.w3.org/2000/svg" xmlns:xlink="http://www.w3.org/1999/xlink" x="0px" y="0px"
	 viewBox="0 0 512 512" enable-background="new 0 0 512 512" xml:space="preserve">
<g>
	<path d="M221.5,37H46.5c-4.2,0-7.5,3.4-7.5,7.5v174.9c0,4.2,3.4,7.5,7.5,7.5h174.9c4.2,0,7.5-3.4,7.5-7.5V44.5
		C229,40.4,225.6,37,221.5,37z"/>
	<path d="M469.5,37H294.5c-4.2,0-7.5,3.4-7.5,7.5v174.9c0,4.2,3.4,7.5,7.5,7.5h174.9c4.2,0,7.5-3.4,7.5-7.5V44.5
		C477,40.4,473.6,37,469.5,37z"/>
	<path d="M221.5,285H46.5c-4.2,0-7.5,3.4-7.5,7.5v174.9c0,4.2,3.4,7.5,7.5,7.5h174.9c4.2,0,7.5-3.4,7.5-7.5V292.5
		C229,288.4,225.6,285,221.5,285z"/>
	<path d="M469.5,285H294.5c-4.2,0-7.5,3.4-7.5,7.5v174.9c0,4.2,3.4,7.5,7.5,7.5h174.9c4.2,0,7.5-3.4,7.5-7.5V292.5
		C477,288.4,473.6,285,469.5,285z"/>
</g>
</svg>
