<?xml version="1.0" encoding="utf-8"?>
<!-- Generator: Adobe Illustrator 18.1.1, SVG Export Plug-In . SVG Version: 6.00 Build 0)  -->
<!DOCTYPE svg PUBLIC "-//W3C//DTD SVG 1.1//EN" "http://www.w3.org/Graphics/SVG/1.1/DTD/svg11.dtd">
<svg version="1.1" xmlns="http://www.w3.org/2000/svg" xmlns:xlink="http://www.w3.org/1999/xlink" x="0px" y="0px"
	 viewBox="0 0 512 512" enable-background="new 0 0 512 512" xml:space="preserve">
<g id="Layer_1">
	<path d="M260.7,32.9c-108.2,0-196.2,88-196.2,196.2c0,68.4,19.9,115.6,64.2,151.6l-0.4,75.2c0,7.8,3.9,15,10.5,19.1
		c3.6,2.3,7.8,3.4,11.9,3.4c3.4,0,6.7-0.8,9.9-2.3c35-17.1,90.3-44,105.1-50.9c105.9-2.6,191.2-89.6,191.2-196.1
		C456.9,120.9,368.9,32.9,260.7,32.9z M188.2,240.4c-7.8,0-14.2-6.4-14.2-14.2c0-7.8,6.4-14.2,14.2-14.2s14.2,6.4,14.2,14.2
		C202.5,234,196.1,240.4,188.2,240.4z M263,240.4c-7.8,0-14.2-6.4-14.2-14.2c0-7.8,6.4-14.2,14.2-14.2s14.2,6.4,14.2,14.2
		C277.2,234,270.8,240.4,263,240.4z M337.7,240.4c-7.8,0-14.2-6.4-14.2-14.2c0-7.8,6.4-14.2,14.2-14.2s14.2,6.4,14.2,14.2
		C351.9,234,345.5,240.4,337.7,240.4z"/>
</g>
<g id="Layer_2">
</g>
</svg>
