<?xml version="1.0" encoding="utf-8"?>
<!-- Generator: Adobe Illustrator 19.1.0, SVG Export Plug-In . SVG Version: 6.00 Build 0)  -->
<!DOCTYPE svg PUBLIC "-//W3C//DTD SVG 1.1//EN" "http://www.w3.org/Graphics/SVG/1.1/DTD/svg11.dtd">
<svg version="1.1" id="Layer_1" xmlns="http://www.w3.org/2000/svg" xmlns:xlink="http://www.w3.org/1999/xlink" x="0px" y="0px"
	 viewBox="0 0 512 512" enable-background="new 0 0 512 512" xml:space="preserve">
<path d="M268.3,28.4C156.6,28.4,65.7,119.3,65.7,231c0,70.6,20.5,119.4,66.3,156.5l-0.4,77.7c0,8,4.1,15.5,10.8,19.7
	c3.8,2.4,8,3.5,12.3,3.5c3.5,0,6.9-0.8,10.2-2.4c36.1-17.7,93.3-45.5,108.5-52.6C382.8,430.8,470.9,341,470.9,231
	C470.9,119.3,380,28.4,268.3,28.4z M383.1,343.1c-29.5,30.2-68.8,47.3-110.7,48.4c-5.8,0.1-11.5,1.5-16.7,3.9
	c-12.6,5.9-50.8,24.4-81.9,39.6l0.2-47.3c0.1-12.7-5.6-24.8-15.5-32.8c-35.6-28.9-50.7-65.9-50.7-123.9c0-88.5,72-160.6,160.6-160.6
	c88.6,0,160.6,72,160.6,160.6C428.9,273.1,412.7,312.9,383.1,343.1z"/>
</svg>
