<?xml version="1.0" encoding="utf-8"?>
<svg version="1.1" id="Layer_1" xmlns="http://www.w3.org/2000/svg" xmlns:xlink="http://www.w3.org/1999/xlink" x="0px" y="0px"
	 viewBox="0 0 512 512" enable-background="new 0 0 512 512" xml:space="preserve">
<path d="M256,42C144.3,42,53.4,132.9,53.4,244.6c0,70.6,20.5,119.4,66.3,156.5l-0.4,77.7c0,8,4.1,15.5,10.8,19.7
	c3.8,2.4,8,3.5,12.3,3.5c3.5,0,6.9-0.8,10.2-2.4c36.1-17.7,93.3-45.5,108.5-52.6c109.3-2.7,197.5-92.5,197.5-202.5
	C458.6,132.9,367.7,42,256,42z M319,247.8l-92,111.7c-2.3,2.8-5.7,4.4-9.2,4.4c-1.6,0-3.2-0.2-4.7-0.9c-4.9-2.1-7.8-6.9-7.2-12.2
	c1.6-13.7,8.4-69.9,12.1-97.9h-31.7c-4.7,0-9-3.1-10.9-7.4c-1.9-4.3-1.1-9.7,2-13.2L270.6,128c3.5-3.9,9.2-5.1,14-2.9
	c4.8,2.2,7.5,7.2,6.7,12.5L277.9,228h31.9c4.6,0,8.8,2.9,10.8,7C322.5,239.2,321.9,244.3,319,247.8z"/>
</svg>
