<?xml version="1.0" encoding="utf-8"?>
<!-- Generator: Adobe Illustrator 19.1.0, SVG Export Plug-In . SVG Version: 6.00 Build 0)  -->
<!DOCTYPE svg PUBLIC "-//W3C//DTD SVG 1.1//EN" "http://www.w3.org/Graphics/SVG/1.1/DTD/svg11.dtd">
<svg version="1.1" id="Layer_1" xmlns="http://www.w3.org/2000/svg" xmlns:xlink="http://www.w3.org/1999/xlink" x="0px" y="0px"
	 viewBox="0 0 512 512" enable-background="new 0 0 512 512" xml:space="preserve">
<path d="M256,26C144.3,26,53.4,116.9,53.4,228.6c0,70.6,20.5,119.4,66.3,156.5l-0.4,77.7c0,8,4.1,15.5,10.8,19.7
	c3.8,2.4,8,3.5,12.3,3.5c3.5,0,6.9-0.8,10.2-2.4c36.1-17.7,93.3-45.5,108.5-52.6c109.3-2.7,197.5-92.5,197.5-202.5
	C458.6,116.9,367.7,26,256,26z M327.6,220.7c-3.5,3.4-7.9,5.1-12.4,5.1c-4.6,0-9-1.8-12.5-5.3L275,192.3v115.1
	c0,9.8-8.2,17.7-18,17.7s-18-7.9-18-17.7V190.6l-29.7,30c-6.9,6.9-18.1,7-25,0.1c-7-6.9-7-18.1-0.1-25.1l59.2-59.7
	c6.6-6.7,18.5-6.7,25.2,0l59.2,59.7C334.6,202.6,334.6,213.8,327.6,220.7z"/>
</svg>
