<?xml version="1.0" encoding="utf-8"?>
<!-- Generator: Adobe Illustrator 18.1.1, SVG Export Plug-In . SVG Version: 6.00 Build 0)  -->
<!DOCTYPE svg PUBLIC "-//W3C//DTD SVG 1.1//EN" "http://www.w3.org/Graphics/SVG/1.1/DTD/svg11.dtd">
<svg version="1.1" xmlns="http://www.w3.org/2000/svg" xmlns:xlink="http://www.w3.org/1999/xlink" x="0px" y="0px"
	 viewBox="0 0 512 512" enable-background="new 0 0 512 512" xml:space="preserve">
<g id="Layer_1">
	<path d="M256,6C134.6,6,35.8,104.8,35.8,226.2c0,76.7,22.3,129.8,72.1,170.1l-0.4,84.4c0,8.7,4.4,16.8,11.8,21.4
		c4.1,2.6,8.7,3.8,13.4,3.8c3.8,0,7.6-0.8,11.1-2.6c39.2-19.2,101.4-49.4,118-57.1c118.9-2.9,214.7-100.5,214.7-220.1
		C476.2,104.8,377.4,6,256,6z M174.6,238.9c-8.8,0-16-7.1-16-16c0-8.8,7.1-16,16-16s16,7.1,16,16
		C190.6,231.8,183.4,238.9,174.6,238.9z M258.5,238.9c-8.8,0-16-7.1-16-16c0-8.8,7.1-16,16-16c8.8,0,16,7.1,16,16
		C274.4,231.8,267.3,238.9,258.5,238.9z M342.3,238.9c-8.8,0-16-7.1-16-16c0-8.8,7.1-16,16-16c8.8,0,16,7.1,16,16
		C358.3,231.8,351.1,238.9,342.3,238.9z"/>
</g>
<g id="Layer_2">
</g>
</svg>
