<?xml version="1.0" encoding="utf-8"?>
<!-- Generator: Adobe Illustrator 19.1.0, SVG Export Plug-In . SVG Version: 6.00 Build 0)  -->
<!DOCTYPE svg PUBLIC "-//W3C//DTD SVG 1.1//EN" "http://www.w3.org/Graphics/SVG/1.1/DTD/svg11.dtd">
<svg version="1.1" id="Layer_1" xmlns="http://www.w3.org/2000/svg" xmlns:xlink="http://www.w3.org/1999/xlink" x="0px" y="0px"
	 viewBox="0 0 512 512" enable-background="new 0 0 512 512" xml:space="preserve">
<path d="M256,26C144.3,26,53.4,116.9,53.4,228.6c0,70.6,20.5,119.4,66.3,156.5l-0.4,77.7c0,8,4.1,15.5,10.8,19.7
	c3.8,2.4,8,3.5,12.3,3.5c3.5,0,6.9-0.8,10.2-2.4c36.1-17.7,93.3-45.5,108.5-52.6c109.3-2.7,197.5-92.5,197.5-202.5
	C458.6,116.9,367.7,26,256,26z M237,127.4c0-10.4,8.5-18.9,18.9-18.9c5.2,0,10,2.1,13.5,5.5c3.4,3.4,5.6,8.1,5.6,13.4v124.7
	c0,10.4-8.6,18.9-19,18.9c-10.4,0-19-8.5-19-18.9V127.4z M256.1,345.5c-12,0-21.7-9.7-21.7-21.7c0-12,9.7-21.7,21.7-21.7
	c12,0,21.7,9.7,21.7,21.7C277.8,335.8,268.1,345.5,256.1,345.5z"/>
</svg>
