<?xml version="1.0" encoding="utf-8"?>
<!-- Generator: Adobe Illustrator 18.1.1, SVG Export Plug-In . SVG Version: 6.00 Build 0)  -->
<!DOCTYPE svg PUBLIC "-//W3C//DTD SVG 1.1//EN" "http://www.w3.org/Graphics/SVG/1.1/DTD/svg11.dtd">
<svg version="1.1" xmlns="http://www.w3.org/2000/svg" xmlns:xlink="http://www.w3.org/1999/xlink" x="0px" y="0px"
	 viewBox="0 0 512 512" enable-background="new 0 0 512 512" xml:space="preserve">
<g id="Layer_1">
	<path d="M279.4,181l206.1-50.7L455,6L26.7,111L48,196.7v264.1c0,23.7,18.8,45.2,42.5,45.2h352.7c23.7,0,40.8-21.5,40.8-45.2V181
		H279.4z M97,230h14.8l26.1,32H97V230z M206.6,262l-26.1-32h44.6l26.1,32H206.6z M319.9,262l-26.1-32h44.6l26.1,32H319.9z M437,255
		h-3.8l-26.1-25H437V255z M204.4,149l-43.9,10.8l23.5-37.4l44-10.8L204.4,149z M295.9,94.9l43-10.5l-22.8,36.7l0.6,0.4l-44.4,10.9
		L295.9,94.9z M426.7,94.5l-43.6,10.7l23.2-37.4l13-3.2L426.7,94.5z M116.2,139l-23.5,37.4l-0.2,0.1l-7.3-29.9L116.2,139z M97,457
		V311h339v146H97z"/>
</g>
<g id="Layer_2">
</g>
</svg>
