<?xml version="1.0" encoding="utf-8"?>
<!-- Generator: Adobe Illustrator 18.1.1, SVG Export Plug-In . SVG Version: 6.00 Build 0)  -->
<!DOCTYPE svg PUBLIC "-//W3C//DTD SVG 1.1//EN" "http://www.w3.org/Graphics/SVG/1.1/DTD/svg11.dtd">
<svg version="1.1" xmlns="http://www.w3.org/2000/svg" xmlns:xlink="http://www.w3.org/1999/xlink" x="0px" y="0px"
	 viewBox="0 0 512 512" enable-background="new 0 0 512 512" xml:space="preserve">
<g id="Layer_1">
	<path d="M276.5,185l190.2-46.8L438.6,23.4l-395.3,97L63,199.5v243.7c0,21.9,17.2,41.8,39.1,41.8h325.6c21.9,0,37.3-19.8,37.3-41.8
		V185H276.5z M108,230h13.8l24.1,30H108V230z M209.3,260l-24.1-30h41.2l24.1,30H209.3z M313.9,260l-24.1-30H331l24.1,30H313.9z
		 M422,253h-3.5l-24.1-23H422V253z M207.3,155.5l-40.5,9.9l21.7-34.6l40.6-9.9L207.3,155.5z M291.8,105.5l39.7-9.7l-21.1,33.9
		l0.6,0.4l-41,10.1L291.8,105.5z M412.5,105.2l-40.2,9.9l21.4-34.5l12-2.9L412.5,105.2z M125.9,146.2l-21.7,34.6l-0.2,0.1l-6.8-27.6
		L125.9,146.2z M108,440V305h313v135H108z"/>
</g>
<g id="Layer_2">
</g>
</svg>
