<?xml version="1.0" encoding="utf-8"?>
<!-- Generator: Adobe Illustrator 16.0.0, SVG Export Plug-In . SVG Version: 6.00 Build 0)  -->
<!DOCTYPE svg PUBLIC "-//W3C//DTD SVG 1.1//EN" "http://www.w3.org/Graphics/SVG/1.1/DTD/svg11.dtd">
<svg version="1.1" id="Layer_1" xmlns="http://www.w3.org/2000/svg" xmlns:xlink="http://www.w3.org/1999/xlink" x="0px" y="0px"
	 width="300px" height="300px" viewBox="0 0 300 300" style="enable-background:new 0 0 300 300;" xml:space="preserve">
<g id="Restricted">
</g>
<g id="Help">
	<path d="M62.567,153L249.77,89.181l-18.043-54.133L40.85,99.876L58.478,153H57v112h202V153H62.567z M210.593,54.977L229.866,82.8
		l-21.938,7.373l-19.273-27.824L210.593,54.977z M168.071,69.27l19.272,27.821l-21.939,7.373l-19.273-27.82L168.071,69.27z
		 M125.549,83.561l19.273,27.822l-21.939,7.372l-19.271-27.82L125.549,83.561z M83.026,97.852l19.273,27.825l-21.938,7.372
		L61.09,105.226L83.026,97.852z M98.525,199H75.382l9.403-29h23.145L98.525,199z M143.384,199h-23.143l9.405-29h23.143L143.384,199z
		 M188.245,199H165.1l9.402-29h23.146L188.245,199z M233.103,199h-23.144l9.405-29h23.145L233.103,199z"/>
</g>
</svg>
