<?xml version="1.0" encoding="utf-8"?>
<!-- Generator: Adobe Illustrator 18.1.1, SVG Export Plug-In . SVG Version: 6.00 Build 0)  -->
<!DOCTYPE svg PUBLIC "-//W3C//DTD SVG 1.1//EN" "http://www.w3.org/Graphics/SVG/1.1/DTD/svg11.dtd">
<svg version="1.1" xmlns="http://www.w3.org/2000/svg" xmlns:xlink="http://www.w3.org/1999/xlink" x="0px" y="0px"
	 viewBox="0 0 512 512" enable-background="new 0 0 512 512" xml:space="preserve">
<g id="Layer_1">
	<path d="M277.5,187l189.6-46.6L439.1,26L45.2,122.6L65,201.5v242.9c0,21.8,16.9,41.6,38.7,41.6h324.5c21.8,0,37.8-19.8,37.8-41.6
		V187H277.5z M110,232h13.3l24.1,30H110V232z M210.6,262l-24.1-30h41.1l24.1,30H210.6z M314.8,262l-24.1-30h41.1l24.1,30H314.8z
		 M423,255h-3.9L395,232h28V255z M208.6,157.6l-40.4,9.9l21.7-34.4l40.5-9.9L208.6,157.6z M292.7,107.8l39.6-9.7l-21,33.8l0.6,0.4
		l-40.9,10L292.7,107.8z M413.1,107.4l-40.1,9.8l21.3-34.4l12-2.9L413.1,107.4z M127.4,148.3l-21.7,34.4l-0.2,0.1l-6.7-27.5
		L127.4,148.3z M110,441V307h312v134H110z"/>
</g>
<g id="Layer_2">
</g>
</svg>
