<?xml version="1.0" encoding="utf-8"?>
<!-- Generator: Adobe Illustrator 16.0.0, SVG Export Plug-In . SVG Version: 6.00 Build 0)  -->
<!DOCTYPE svg PUBLIC "-//W3C//DTD SVG 1.1//EN" "http://www.w3.org/Graphics/SVG/1.1/DTD/svg11.dtd">
<svg version="1.1" id="Layer_1" xmlns="http://www.w3.org/2000/svg" xmlns:xlink="http://www.w3.org/1999/xlink" x="0px" y="0px"
	 width="300px" height="300px" viewBox="0 0 300 300" style="enable-background:new 0 0 300 300;" xml:space="preserve">
<g id="Restricted">
</g>
<g id="Help">
	<path d="M39.755,154l236.087-80.596L253.087,5.08L12.367,86.92L34.598,154H33v141h254V154H39.755z M226.436,30.157l24.305,35.089
		l-27.667,9.298l-24.306-35.09L226.436,30.157z M172.81,48.182l24.305,35.086l-27.667,9.299l-24.307-35.085L172.81,48.182z
		 M119.184,66.206l24.306,35.087l-27.668,9.297L91.519,75.506L119.184,66.206z M65.556,84.229l24.306,35.09l-27.667,9.297
		L37.893,93.527L65.556,84.229z M85.104,212H55.916l11.858-37h29.189L85.104,212z M141.676,212h-29.187l11.861-37h29.186
		L141.676,212z M198.252,212h-29.19l11.858-37h29.19L198.252,212z M254.823,212h-29.187l11.861-37h29.189L254.823,212z"/>
</g>
</svg>
