<?xml version="1.0" encoding="utf-8"?>
<!-- Generator: Adobe Illustrator 18.1.1, SVG Export Plug-In . SVG Version: 6.00 Build 0)  -->
<!DOCTYPE svg PUBLIC "-//W3C//DTD SVG 1.1//EN" "http://www.w3.org/Graphics/SVG/1.1/DTD/svg11.dtd">
<svg version="1.1" xmlns="http://www.w3.org/2000/svg" xmlns:xlink="http://www.w3.org/1999/xlink" x="0px" y="0px"
	 viewBox="0 0 512 512" enable-background="new 0 0 512 512" xml:space="preserve">
<g id="Layer_1">
	<path d="M290.9,256L478.8,68.1c9.6-9.6,9.6-25.3,0-34.9c-9.6-9.6-25.3-9.6-34.9,0L256,221.1L68.1,33.2c-9.6-9.6-25.3-9.6-34.9,0
		c-9.6,9.6-9.6,25.3,0,34.9L221.1,256L33.2,443.9c-9.6,9.6-9.6,25.3,0,34.9c4.8,4.8,11.1,7.2,17.5,7.2s12.6-2.4,17.5-7.2L256,290.9
		l187.9,187.9c4.8,4.8,11.1,7.2,17.5,7.2c6.3,0,12.6-2.4,17.5-7.2c9.6-9.6,9.6-25.3,0-34.9L290.9,256z"/>
</g>
<g id="Layer_2">
</g>
</svg>
