<?xml version="1.0" encoding="utf-8"?>
<!-- Generator: Adobe Illustrator 18.1.1, SVG Export Plug-In . SVG Version: 6.00 Build 0)  -->
<!DOCTYPE svg PUBLIC "-//W3C//DTD SVG 1.1//EN" "http://www.w3.org/Graphics/SVG/1.1/DTD/svg11.dtd">
<svg version="1.1" xmlns="http://www.w3.org/2000/svg" xmlns:xlink="http://www.w3.org/1999/xlink" x="0px" y="0px"
	 viewBox="0 0 512 512" enable-background="new 0 0 512 512" xml:space="preserve">
<g id="Layer_1">
	<path d="M296,259.8L466.6,89.2c8.8-8.7,8.8-22.9,0-31.7c-8.8-8.8-22.9-8.8-31.7,0L264.4,228.1L93.8,57.5c-8.8-8.8-22.9-8.8-31.7,0
		c-8.8,8.7-8.8,22.9,0,31.7l170.6,170.6L62.1,430.4c-8.8,8.7-8.8,22.9,0,31.7c4.4,4.4,10.1,6.6,15.8,6.6s11.5-2.2,15.8-6.6
		l170.6-170.6l170.6,170.6c4.4,4.4,10.1,6.6,15.8,6.6c5.7,0,11.5-2.2,15.8-6.6c8.8-8.7,8.8-22.9,0-31.7L296,259.8z"/>
</g>
<g id="Layer_2">
</g>
</svg>
