<?xml version="1.0" encoding="utf-8"?>
<!-- Generator: Adobe Illustrator 18.1.1, SVG Export Plug-In . SVG Version: 6.00 Build 0)  -->
<!DOCTYPE svg PUBLIC "-//W3C//DTD SVG 1.1//EN" "http://www.w3.org/Graphics/SVG/1.1/DTD/svg11.dtd">
<svg version="1.1" xmlns="http://www.w3.org/2000/svg" xmlns:xlink="http://www.w3.org/1999/xlink" x="0px" y="0px"
	 viewBox="0 0 512 512" enable-background="new 0 0 512 512" xml:space="preserve">
<g id="Layer_1">
	<path d="M293.9,256L498.1,51.8c10.5-10.5,10.5-27.5,0-37.9c-10.5-10.5-27.5-10.5-37.9,0L256,218.1L51.8,13.9
		c-10.5-10.5-27.5-10.5-37.9,0c-10.5,10.5-10.5,27.5,0,37.9L218.1,256L13.9,460.2c-10.5,10.5-10.5,27.5,0,37.9
		c5.2,5.2,12.1,7.9,19,7.9s13.7-2.6,19-7.9L256,293.9l204.2,204.2c5.2,5.2,12.1,7.9,19,7.9c6.9,0,13.7-2.6,19-7.9
		c10.5-10.5,10.5-27.5,0-37.9L293.9,256z"/>
</g>
<g id="Layer_2">
</g>
</svg>
