<?xml version="1.0" encoding="utf-8"?>
<!-- Generator: Adobe Illustrator 18.1.1, SVG Export Plug-In . SVG Version: 6.00 Build 0)  -->
<!DOCTYPE svg PUBLIC "-//W3C//DTD SVG 1.1//EN" "http://www.w3.org/Graphics/SVG/1.1/DTD/svg11.dtd">
<svg version="1.1" id="Layer_1" xmlns="http://www.w3.org/2000/svg" xmlns:xlink="http://www.w3.org/1999/xlink" x="0px" y="0px"
	 viewBox="107.25 0 100 100" style="enable-background:new 107.25 0 100 100;" xml:space="preserve">
<path d="M157.25,2.168c-26.367,0-47.832,21.465-47.832,47.832s21.465,47.832,47.832,47.832S205.082,76.367,205.082,50
	S183.617,2.168,157.25,2.168z M160.985,72.21l0.195,9.106h-6.812l0.131-8.845c-6.945-0.589-10.941-3.603-12.907-5.241l4.585-6.159
	c2.032,1.899,6.289,4.652,11.531,4.652c4.916,0,7.076-2.294,7.076-5.241c0-3.211-2.619-4.652-7.599-6.879l-3.932-1.768
	c-6.223-2.753-9.565-6.487-9.565-12.056c0-6.879,5.174-11.4,11.728-12.512l-0.197-8.583h6.748L161.77,27.2
	c6.028,0.787,9.109,3.67,9.96,4.585l-4.782,5.7c-1.902-1.899-5.11-3.47-8.647-3.47c-4.129,0-6.423,2.03-6.423,5.108
	c0,3.211,2.686,4.916,7.012,6.879l3.339,1.574c6.815,3.078,10.68,5.831,10.68,12.12C172.908,65.395,168.977,70.834,160.985,72.21z"
	/>
</svg>
