<?xml version="1.0" encoding="utf-8"?>
<!-- Generator: Adobe Illustrator 18.1.1, SVG Export Plug-In . SVG Version: 6.00 Build 0)  -->
<!DOCTYPE svg PUBLIC "-//W3C//DTD SVG 1.1//EN" "http://www.w3.org/Graphics/SVG/1.1/DTD/svg11.dtd">
<svg version="1.1" xmlns="http://www.w3.org/2000/svg" xmlns:xlink="http://www.w3.org/1999/xlink" x="0px" y="0px"
	 viewBox="0 0 512 512" enable-background="new 0 0 512 512" xml:space="preserve">
<g id="Layer_1">
	<g>
		<path d="M256,26C129.2,26,26,129.2,26,256s103.2,230,230,230s230-103.2,230-230S382.8,26,256,26z M256,461.7
			c-113.4,0-205.7-92.3-205.7-205.7S142.6,50.3,256,50.3c113.4,0,205.7,92.3,205.7,205.7S369.4,461.7,256,461.7z"/>
		<path d="M213.1,227.5c0,14.2,12.6,25.5,28.1,25.5h5.8v-51h-5.8C225.7,202,213.1,213.3,213.1,227.5z"/>
		<path d="M264,321h6.6c15.5,0,28.1-11.3,28.1-25.5S286.1,270,270.6,270H264V321z"/>
		<path d="M256,72.1C154.6,72.1,72.1,154.6,72.1,256S154.6,439.9,256,439.9c101.4,0,183.9-82.5,183.9-183.9S357.4,72.1,256,72.1z
			 M270.6,253c24.9,0,45.3,19.4,45.3,43c0,23.6-20.3,43-45.3,43H264v7.9c0,4.7-3.8,8.6-8.5,8.6s-8.5-3.8-8.5-8.6V339h-5.8
			c-24.9,0-45.3-19.5-45.3-43.1c0-4.7,3.8-8.7,8.6-8.7c4.7,0,8.6,3.6,8.6,8.4c0,14.2,12.6,25.5,28.1,25.5h5.8v-51h-5.8
			c-24.9,0-45.3-19.4-45.3-43c0-23.6,20.3-43,45.3-43h5.8v-8.3c0-4.7,3.8-8.6,8.5-8.6s8.5,3.8,8.5,8.6v8.3h6.6
			c24.9,0,45.3,19.3,45.3,42.9c0,4.7-3.8,8.6-8.6,8.6s-8.6-3.5-8.6-8.2c0-14.2-12.6-25.3-28.1-25.3H264v51H270.6z"/>
	</g>
</g>
<g id="Layer_2">
</g>
</svg>
