<?xml version="1.0" encoding="utf-8"?>
<!-- Generator: Adobe Illustrator 19.1.0, SVG Export Plug-In . SVG Version: 6.00 Build 0)  -->
<!DOCTYPE svg PUBLIC "-//W3C//DTD SVG 1.1//EN" "http://www.w3.org/Graphics/SVG/1.1/DTD/svg11.dtd">
<svg version="1.1" id="Layer_1" xmlns="http://www.w3.org/2000/svg" xmlns:xlink="http://www.w3.org/1999/xlink" x="0px" y="0px"
	 viewBox="0 0 512 512" enable-background="new 0 0 512 512" xml:space="preserve">
<polygon points="26,125.6 26,126 26.4,125.6 "/>
<polygon points="485.9,386.2 485.4,386.6 485.9,386.6 "/>
<polygon points="26,126 26,126.1 26,126 "/>
<polygon points="485.9,386.1 485.9,386.1 485.9,386.2 "/>
<g>
	<path d="M165.8,224c30.1-0.1,59.5,4.4,87.3,16.5c15.2,6.6,28.9,15.3,39.9,28c17,19.6,17,44.9,0,64.6
		c-13.6,15.8-31.2,25.4-50.4,32.2c-36.3,12.9-73.7,15.4-111.7,10.2c-21.8-3-42.7-8.8-62.2-19.2c-13.3-7-25.3-15.7-33.8-28.4
		c-13-19.4-11.6-40.9,3.4-58.8c11-13.1,25-21.9,40.5-28.6c24.4-10.6,50-15.5,76.4-16.4C158.9,223.9,162.3,224,165.8,224z"/>
	<path d="M351.3,180.6c-36-0.2-65.2-4.7-92.9-16.7c-14.3-6.2-27.6-14.1-38.1-25.9c-20.9-23.4-19.6-51,3.3-72.6
		c16.5-15.6,36.6-24.5,58.1-30.7c25-7.1,50.7-9.5,76.6-8.1c29.3,1.6,57.7,7.4,84,21.3c13.4,7.1,25.5,15.9,34.1,28.7
		c12.8,19.1,11.5,40.7-3.4,58.4c-11.1,13.2-25.2,22.2-40.8,28.9C405,175.4,377,180.7,351.3,180.6z"/>
	<path d="M26.1,333.7c7.1,22.4,23.6,35.6,42.9,45.9c19.6,10.5,40.8,16.3,62.7,19.2c33.3,4.4,66.3,2.9,98.7-6.3
		c20.6-5.9,39.9-14.4,56-29.1c8.5-7.8,15.1-16.9,18.3-28.2c0.1-0.5,0.4-1,0.6-1.5c0.4,0.1,0.8,0.1,1.3,0.2
		c-0.7,10.5-0.3,21.3-2.3,31.6c-2.8,14.5-12.6,25-24.1,33.7c-19.2,14.7-41.3,22.9-64.7,27.6c-42,8.4-83.6,6.8-124.3-7
		c-16.9-5.7-32.7-13.8-45.9-26.2c-12.5-11.7-20-25.7-19.2-43.4C26.3,344.7,26.1,339.2,26.1,333.7z"/>
	<path d="M306.2,387.8c-0.4,9.7,0.1,19.5-1.4,29c-2.5,15.7-12.6,26.9-24.8,36.3c-19.3,14.8-41.6,22.9-65.1,27.6
		c-37.8,7.6-75.4,6.7-112.6-3.6c-21.1-5.8-40.8-14.6-57.1-29.8c-12.6-11.7-20-25.7-19.2-43.4c0.3-5.4,0-10.9,0-16.7
		c2.6,5.5,4.5,10.8,7.5,15.6c8.6,14,21.5,23.3,35.7,30.8c19.5,10.3,40.5,16.1,62.3,19c33.3,4.5,66.3,3,98.7-6.3
		c20.8-5.9,40.2-14.5,56.3-29.3C295.5,408.9,298.9,403.6,306.2,387.8z"/>
	<path d="M484.6,136.8c0,9.1,1,18.6-0.2,27.8c-2.2,15.9-12.3,27.4-24.5,36.9c-19.1,14.9-41.2,22.9-64.6,27.8
		c-34.5,7.1-69,6.9-103.3-0.9c-3.2-0.7-6.4-1.9-9.2-3.6c-12-7-24.4-12.9-37.8-16.5c-8.9-2.4-15.7-7.5-22-13.8
		c-11.7-11.6-18.5-25.3-17.5-42.3c0.3-5.3,0-10.6,0-16.2c2.5,5.4,4.5,10.7,7.4,15.5c8.6,14,21.3,23.5,35.7,30.8
		c34.7,17.8,71.9,23,110.3,21.1c25.6-1.2,50.5-6.2,74.1-16.6c15.1-6.7,29-15.2,39.7-28.1c2.8-3.4,5.2-7.1,7.3-10.9
		C482,144.2,483.3,140.2,484.6,136.8z"/>
	<path d="M486,190.3c-0.8,10.8-0.7,21.9-2.7,32.5c-2.7,14-12.4,24.1-23.3,32.6C441,270.1,419,278,395.9,283.1
		c-19.6,4.3-39.6,5.7-59.6,5c-3.2-0.1-4.8-0.9-5.4-4.3c-1.7-8.7-5.6-16.6-10.4-24c-0.5-0.8-0.9-1.8-1.3-2.7c1-0.1,2-0.3,3-0.2
		c21.7,2,43.3,1.3,64.8-2.5c25.8-4.5,50.3-12.4,71.6-28.3c12.4-9.3,22.1-20.6,26.1-36.1C485,190,485.5,190.1,486,190.3z"/>
	<path d="M485.9,243.8c-0.7,10.7-0.4,21.6-2.4,32.1c-2.7,14.4-12.5,24.7-23.7,33.4c-18.7,14.6-40.4,22.5-63.3,27.5
		c-19.5,4.3-39.2,5.9-59.2,5.2c-3.5-0.1-4.2-1.3-4.2-4.5c-0.1-7.3-0.6-14.5-1.1-21.7c-0.3-3.5,1-4.4,4.4-4.3
		c25.3,0.9,50.3-1.7,74.7-8.9c19.8-5.8,38.4-14.1,54-28.1c9-8,15.9-17.4,19.1-29.3c0.1-0.5,0.4-1,0.5-1.5
		C485.1,243.7,485.5,243.8,485.9,243.8z"/>
	<path d="M484.7,298c0,9.2,1,18.7-0.2,27.9c-2.2,15.9-12.2,27.5-24.5,37c-20.1,15.6-43.5,23.7-68.1,28.5
		c-17.8,3.5-35.8,4.8-53.9,4.3c-3.6-0.1-4.9-1-4.9-4.9c0.1-7.1-0.6-14.2-1-21.3c-0.3-4.1,0-4.5,4.6-4.3c25.2,0.7,50-1.8,74.2-8.9
		c14.8-4.3,28.8-10.3,41.8-18.6C468.8,327.5,476.4,317.9,484.7,298z"/>
</g>
</svg>
