<svg class="icon icon-coin" height="16" viewBox="0 0 16 16" version="1.1" aria-hidden="true">
    <path d="M8,0a8,8,0,1,0,8,8A8,8,0,0,0,8,0ZM8,15.16A7.16,7.16,0,1,1,15.16,8,7.16,7.16,0,0,1,8,15.16Z"/>
    <path d="M6.51,7a.94.94,0,0,0,1,.89h.2V6.12h-.2A.94.94,0,0,0,6.51,7Z"/>
    <path d="M8.28,10.26h.23a.93.93,0,0,0,1-.89.93.93,0,0,0-1-.89H8.28Z"/>
    <path
      d="M8,1.6A6.4,6.4,0,1,0,14.4,8,6.4,6.4,0,0,0,8,1.6ZM8.51,7.9a1.5,1.5,0,1,1,0,3H8.28v.27a.3.3,0,1,1-.59,0v-.27h-.2a1.54,1.54,0,0,1-1.57-1.5.3.3,0,0,1,.3-.3.29.29,0,0,1,.3.29.93.93,0,0,0,1,.89h.2V8.49h-.2A1.54,1.54,0,0,1,5.91,7,1.54,1.54,0,0,1,7.49,5.5h.2V5.21a.3.3,0,1,1,.59,0V5.5h.23A1.54,1.54,0,0,1,10.08,7a.3.3,0,0,1-.3.3A.29.29,0,0,1,9.48,7a.93.93,0,0,0-1-.88H8.28V7.9Z"/>
</svg>
