<?xml version="1.0" encoding="utf-8"?>
<!-- Generator: Adobe Illustrator 19.1.0, SVG Export Plug-In . SVG Version: 6.00 Build 0)  -->
<!DOCTYPE svg PUBLIC "-//W3C//DTD SVG 1.1//EN" "http://www.w3.org/Graphics/SVG/1.1/DTD/svg11.dtd">
<svg version="1.1" id="Layer_1" xmlns="http://www.w3.org/2000/svg" xmlns:xlink="http://www.w3.org/1999/xlink" x="0px" y="0px"
	 viewBox="0 0 512 512" enable-background="new 0 0 512 512" xml:space="preserve">
<polygon points="26,125.6 26,126 26.4,125.6 "/>
<polygon points="485.9,386.2 485.4,386.6 485.9,386.6 "/>
<polygon points="26,126 26,126.1 26,126 "/>
<polygon points="485.9,386.1 485.9,386.1 485.9,386.2 "/>
<g>
	<path d="M50.1,145.2c18.4,13.5,39.6,21.1,61.3,27.3c47.3,13.4,95.7,18,130.8,18.2c48.4,0,82.7-2.5,116.7-8.6
		c29.8-5.4,59.1-12.8,86.3-26.6c12.6-6.4,24.5-13.9,33.1-25.5c10.1-13.4,10.4-28,0.1-41.2c-4.6-5.9-10.3-11.2-16.4-15.6
		c-18.1-13.1-38.8-20.7-60.1-26.9C367,36.1,331.3,31.1,295.1,29c-57.1-3.3-113.8-0.2-169.6,13.2c-24.4,5.9-48.1,13.7-69.7,27
		c-9.2,5.6-17.5,12.2-23.6,21.3c-8.3,12.4-8.5,25.9,0.5,37.7C37.6,134.6,43.6,140.4,50.1,145.2z"/>
	<path d="M486,329.2c0-1.3,0-2.7,0-4c-5,13.5-14.8,22.5-26.2,30.1c-20.5,13.6-43.5,21.5-67.1,27.7c-36.6,9.6-74,14.1-111.7,15.5
		c-52.5,1.9-104.5-1.6-155.8-14c-24.4-5.9-48.1-13.7-69.6-27.1c-12.6-7.8-23.7-17.2-28.6-32c0-0.1-0.5-0.1-0.9-0.1
		c0,25,0.1,50.1-0.1,75.1c-0.1,9.5,2.7,17.9,9,24.8c4.5,5,9.5,9.6,14.9,13.6c16.2,11.9,34.7,19.1,53.6,25
		c44.1,13.7,89.5,19,135.5,20.4c35.2,1,70.3-0.8,105.1-6c32.5-4.8,64.4-12.1,94.4-25.8c13.9-6.4,27-13.9,37.3-25.6
		c6.7-7.6,10.3-16.2,10.1-26.5C485.7,376.4,486,352.8,486,329.2z"/>
	<path d="M486,196.3c0-7.3,0-14.6,0-21.9c-6,12.6-11.8,20.2-23.8,28.5c-18.8,13.1-40,21-61.9,27.3c-35.5,10.1-71.8,15.2-108.5,17.1
		c-57.7,3-115-0.4-171.2-14.7c-23-5.8-45.3-13.5-65.5-26.2c-11.8-7.4-22.4-16.2-27.4-29.9c-0.3-0.8-0.7-1.6-1.6-3.3
		c0,27.3-0.1,53.5,0,79.6c0,7,2.4,13.4,6.7,18.7c4.3,5.2,8.9,10.2,14.1,14.3c12.2,9.7,26.3,16.3,40.8,21.7
		c41,15.2,83.7,21.8,127,24.6c39.1,2.5,78.1,1.7,117-3.3c34.1-4.3,67.7-11.1,99.6-24.4c15.3-6.3,29.8-14,41.7-25.8
		c8.4-8.4,13.1-18.2,12.8-30.5C485.6,230.9,486,213.6,486,196.3z"/>
</g>
</svg>
