<?xml version="1.0" encoding="utf-8"?>
<!-- Generator: Adobe Illustrator 16.0.0, SVG Export Plug-In . SVG Version: 6.00 Build 0)  -->
<!DOCTYPE svg PUBLIC "-//W3C//DTD SVG 1.1//EN" "http://www.w3.org/Graphics/SVG/1.1/DTD/svg11.dtd">
<svg version="1.1" id="Layer_1" xmlns="http://www.w3.org/2000/svg" xmlns:xlink="http://www.w3.org/1999/xlink" x="0px" y="0px"
	 width="300px" height="300px" viewBox="0 0 300 300" style="enable-background:new 0 0 300 300;" xml:space="preserve">
<g id="Restricted">
</g>
<g id="Help">
</g>
<g>
	<path d="M127.996,119.838c0,2.993,1.049,5.771,3.408,8.339c2.357,2.568,5.596,4.643,10.596,6.223v-29.294
		c-4,1.129-7.686,3.049-10.264,5.757C129.154,113.572,127.996,116.565,127.996,119.838z"/>
	<path d="M158,162.17v33.021c6-0.791,10.17-2.752,13.639-5.885c3.461-3.133,5.269-6.815,5.269-11.049
		c0-3.781-1.567-7.04-4.478-9.779C169.516,165.74,165,163.639,158,162.17z"/>
	<path d="M267.482,137.652c-0.343-3.257-6.172-7.964-6.853-11.168c-0.681-3.204,2.73-9.874,1.718-12.988
		c-1.013-3.115-7.691-6.507-9.023-9.5c-1.332-2.992,0.616-10.225-1.021-13.061c-1.638-2.837-8.875-4.765-10.802-7.416
		c-1.925-2.649-1.522-10.129-3.715-12.563c-2.191-2.435-9.673-2.816-12.106-5.008c-2.435-2.192-3.595-9.592-6.245-11.518
		c-2.649-1.925-10.047-0.744-12.883-2.381c-2.838-1.638-5.513-8.634-8.506-9.966c-2.992-1.332-9.981,1.362-13.096,0.35
		c-3.115-1.012-7.188-7.3-10.391-7.981c-3.205-0.681-9.479,3.407-12.737,3.065c-3.257-0.343-8.547-5.646-11.822-5.646
		s-8.565,5.304-11.822,5.646c-3.258,0.342-9.534-3.746-12.739-3.065c-3.203,0.681-7.274,6.969-10.389,7.981
		c-3.115,1.012-10.105-1.682-13.098-0.35c-2.991,1.332-5.668,8.329-8.504,9.966c-2.837,1.638-10.233,0.457-12.884,2.381
		c-2.649,1.926-3.812,9.326-6.245,11.518c-2.435,2.192-9.916,2.573-12.107,5.008c-2.192,2.434-1.79,9.914-3.715,12.563
		c-1.925,2.65-9.164,4.579-10.801,7.416c-1.638,2.836,0.312,10.069-1.021,13.061c-1.332,2.993-8.012,6.384-9.024,9.5
		c-1.013,3.115,2.398,9.785,1.717,12.988c-0.682,3.204-6.508,7.911-6.851,11.168s4.38,9.072,4.38,12.348
		c0,3.276-4.723,9.09-4.38,12.348c0.343,3.258,6.169,7.964,6.851,11.168c0.682,3.203-2.729,9.873-1.717,12.988
		s7.692,6.506,9.024,9.499c1.332,2.992-0.617,10.225,1.021,13.062c1.637,2.836,8.876,4.765,10.801,7.415s1.522,10.129,3.715,12.564
		c2.191,2.435,9.673,2.817,12.107,5.008c2.434,2.192,3.596,9.59,6.245,11.516c2.65,1.925,10.047,0.744,12.884,2.382
		c2.836,1.638,5.513,8.635,8.504,9.966c2.992,1.333,9.982-1.361,13.098-0.35c3.114,1.012,7.186,7.3,10.389,7.981
		c3.205,0.681,9.481-3.407,12.739-3.064c3.257,0.343,8.547,5.646,11.822,5.646s8.565-5.303,11.822-5.646
		c3.258-0.343,9.532,3.746,12.737,3.064c3.203-0.681,7.275-6.969,10.391-7.981c3.114-1.012,10.104,1.682,13.096,0.35
		c2.993-1.332,5.668-8.329,8.506-9.966c2.836-1.637,10.233-0.457,12.883-2.382c2.65-1.926,3.811-9.324,6.245-11.516
		c2.434-2.192,9.916-2.575,12.106-5.008c2.192-2.435,1.79-9.914,3.715-12.564c1.927-2.65,9.164-4.578,10.802-7.415
		c1.639-2.837-0.311-10.07,1.021-13.062c1.332-2.993,8.011-6.384,9.023-9.499s-2.398-9.784-1.718-12.988s6.51-7.91,6.853-11.168
		c0.342-3.257-4.38-9.072-4.38-12.348C263.103,146.725,267.824,140.91,267.482,137.652z M191.816,201.032
		C183.746,208.031,173,212.321,158,213.9V230h-16v-15.675c-12-1.186-22.98-4.826-30.941-10.922
		c-7.961-6.097-12.982-14.703-15.195-25.823l28.894-2.371c1.178,4.517,3.276,8.411,6.522,11.683
		c3.242,3.274,6.721,5.645,10.721,7.112v-35.475c-14-3.16-24.914-7.943-31.662-14.35c-6.742-6.405-10.051-14.182-10.051-23.326
		c0-9.256,3.72-17.031,11.347-23.325C119.263,91.236,130,87.609,142,86.649V78h16v8.649c12,1.072,21.191,4.135,28.123,9.186
		c6.926,5.052,11.423,11.811,13.341,20.277l-28.085,2.794c-1.697-6.659-6.379-11.175-13.379-13.547v33.104
		c18,3.67,29.891,8.424,36.305,14.266c6.412,5.841,9.621,13.335,9.621,22.479C203.926,185.425,199.889,194.034,191.816,201.032z"/>
</g>
</svg>
