<?xml version="1.0" encoding="utf-8"?>
<!-- Generator: Adobe Illustrator 18.1.1, SVG Export Plug-In . SVG Version: 6.00 Build 0)  -->
<!DOCTYPE svg PUBLIC "-//W3C//DTD SVG 1.1//EN" "http://www.w3.org/Graphics/SVG/1.1/DTD/svg11.dtd">
<svg version="1.1" xmlns="http://www.w3.org/2000/svg" xmlns:xlink="http://www.w3.org/1999/xlink" x="0px" y="0px"
	 viewBox="0 0 512 512" enable-background="new 0 0 512 512" xml:space="preserve">
<g id="Layer_1">
	<g>
		<path d="M256,6C118.1,6,6,118.2,6,256s112.1,250,250,250s250-112.1,250-250S393.9,6,256,6z M256,479.6
			C132.7,479.6,32.4,379.3,32.4,256S132.7,32.4,256,32.4c123.3,0,223.6,100.3,223.6,223.6S379.3,479.6,256,479.6z"/>
		<path d="M209.3,225c0,15.4,13.7,28,30.6,28h6.1v-56h-6.1C223.1,197,209.3,209.6,209.3,225z"/>
		<path d="M265,327h6.8c16.9,0,30.6-12.6,30.6-28s-13.7-28-30.6-28H265V327z"/>
		<path d="M256,56.1C145.8,56.1,56.1,145.8,56.1,256S145.8,455.9,256,455.9c110.2,0,199.9-89.7,199.9-199.9S366.2,56.1,256,56.1z
			 M271.8,253c27.1,0,49.2,20.8,49.2,46.5c0,25.7-22.1,46.5-49.2,46.5H265v8.8c0,5.1-4.4,9.3-9.5,9.3s-9.5-4.2-9.5-9.3V346h-6.1
			c-27.1,0-49.2-21.1-49.2-46.8c0-5.1,4.2-9.4,9.3-9.4s9.3,4.2,9.3,9.3c0,15.4,13.7,27.9,30.6,27.9h6.1v-56h-6.1
			c-27.1,0-49.2-20.8-49.2-46.5c0-25.7,22.1-46.5,49.2-46.5h6.1v-9.3c0-5.1,4.4-9.3,9.5-9.3s9.5,4.2,9.5,9.3v9.3h6.8
			c27.1,0,49.2,20.9,49.2,46.5c0,5.1-4.2,9.3-9.3,9.3s-9.3-4-9.3-9.1c0-15.4-13.7-27.7-30.6-27.7H265v56H271.8z"/>
	</g>
</g>
<g id="Layer_2">
</g>
</svg>
