<svg class="icon icon-coins" height="16" viewBox="0 0 16 16" version="1.1" aria-hidden="true">
    <polygon points="0.11 2.95 0.11 2.97 0.13 2.95 0.11 2.95"/>
    <polygon points="0.11 2.97 0.11 2.97 0.11 2.97 0.11 2.97"/>
    <path
      d="M4.86,6.89a7.41,7.41,0,0,1,3,.57,3.79,3.79,0,0,1,1.39,1,1.65,1.65,0,0,1,0,2.25A4,4,0,0,1,7.54,11.8a8.13,8.13,0,0,1-3.88.35,6.46,6.46,0,0,1-2.16-.67,3.1,3.1,0,0,1-1.17-1,1.61,1.61,0,0,1,.12-2,3.74,3.74,0,0,1,1.41-1A7.22,7.22,0,0,1,4.5,6.89Z"/>
    <path
      d="M11.31,5.38A7.93,7.93,0,0,1,8.08,4.8a3.7,3.7,0,0,1-1.32-.9,1.68,1.68,0,0,1,.12-2.53A4.75,4.75,0,0,1,8.9.31,8.08,8.08,0,0,1,11.56,0a7,7,0,0,1,2.92.74,3.12,3.12,0,0,1,1.19,1,1.61,1.61,0,0,1-.12,2,3.67,3.67,0,0,1-1.42,1A7.26,7.26,0,0,1,11.31,5.38Z"/>
    <path
      d="M0,10.7A2.79,2.79,0,0,0,1.5,12.3,6.31,6.31,0,0,0,3.68,13a8.38,8.38,0,0,0,3.43-.22,4.71,4.71,0,0,0,1.95-1,2.08,2.08,0,0,0,.64-1l0-.05h0a8.65,8.65,0,0,1-.08,1.1A2,2,0,0,1,8.84,13a5.33,5.33,0,0,1-2.25,1,8.22,8.22,0,0,1-4.32-.24,4.31,4.31,0,0,1-1.6-.91A1.88,1.88,0,0,1,0,11.27C0,11.08,0,10.89,0,10.7Z"/>
    <path
      d="M9.75,12.58a8.46,8.46,0,0,1,0,1,2,2,0,0,1-.86,1.26,5.36,5.36,0,0,1-2.27,1,8.34,8.34,0,0,1-3.92-.12,4.66,4.66,0,0,1-2-1A1.87,1.87,0,0,1,0,13.14c0-.19,0-.38,0-.58a5.55,5.55,0,0,0,.26.54,3.06,3.06,0,0,0,1.24,1.07,6.42,6.42,0,0,0,2.17.66,8.37,8.37,0,0,0,3.43-.22,4.74,4.74,0,0,0,2-1A2.58,2.58,0,0,0,9.75,12.58Z"/>
    <path
      d="M16,3.85a7.05,7.05,0,0,1,0,1,2,2,0,0,1-.85,1.29,5.32,5.32,0,0,1-2.25,1A8.42,8.42,0,0,1,9.25,7a1.14,1.14,0,0,1-.32-.12,5.35,5.35,0,0,0-1.31-.57,1.71,1.71,0,0,1-.77-.48,1.85,1.85,0,0,1-.61-1.47c0-.18,0-.37,0-.56a5.57,5.57,0,0,0,.26.54A3,3,0,0,0,7.74,5.44a7.45,7.45,0,0,0,3.84.73,7.17,7.17,0,0,0,2.58-.58,3.64,3.64,0,0,0,1.38-1,2.34,2.34,0,0,0,.25-.38A3.82,3.82,0,0,0,16,3.85Z"/>
    <path
      d="M16,5.71a9.75,9.75,0,0,1-.09,1.13A2,2,0,0,1,15.09,8a5.38,5.38,0,0,1-2.23,1,8.34,8.34,0,0,1-2.07.17c-.11,0-.17,0-.19-.15a2.39,2.39,0,0,0-.36-.84.74.74,0,0,1,0-.1h.11a8.51,8.51,0,0,0,2.25-.09A5.71,5.71,0,0,0,15,7a2.25,2.25,0,0,0,.91-1.25Z"/>
    <path
      d="M16,7.58a9.3,9.3,0,0,1-.08,1.11,2,2,0,0,1-.83,1.16,5.36,5.36,0,0,1-2.2,1,8.23,8.23,0,0,1-2.06.18c-.12,0-.15,0-.15-.16s0-.5,0-.76,0-.15.15-.15a8.07,8.07,0,0,0,2.6-.31,4.75,4.75,0,0,0,1.88-1,2.1,2.1,0,0,0,.67-1l0-.05Z"/>
    <path
      d="M16,9.46a7.16,7.16,0,0,1,0,1,2,2,0,0,1-.85,1.29,5.49,5.49,0,0,1-2.37,1,8.53,8.53,0,0,1-1.87.15c-.13,0-.17,0-.17-.17s0-.49,0-.74,0-.16.16-.15a8.34,8.34,0,0,0,2.58-.31,5.54,5.54,0,0,0,1.45-.65A2.57,2.57,0,0,0,16,9.46Z"/>
</svg>
