<?xml version="1.0" encoding="utf-8"?>
<!-- Generator: Adobe Illustrator 16.0.0, SVG Export Plug-In . SVG Version: 6.00 Build 0)  -->
<!DOCTYPE svg PUBLIC "-//W3C//DTD SVG 1.1//EN" "http://www.w3.org/Graphics/SVG/1.1/DTD/svg11.dtd">
<svg version="1.1" id="Layer_1" xmlns="http://www.w3.org/2000/svg" xmlns:xlink="http://www.w3.org/1999/xlink" x="0px" y="0px"
	 width="300px" height="300px" viewBox="0 0 300 300" style="enable-background:new 0 0 300 300;" xml:space="preserve">
<g id="Restricted">
</g>
<g id="Help">
</g>
<g>
	<path d="M158,167.976v33.289c6-1.32,10.275-3.485,13.01-6.501c2.73-3.02,4.148-6.403,4.148-10.152c0-3.262-1.231-6.261-3.542-8.999
		C169.306,172.875,165,170.326,158,167.976z"/>
	<path d="M133.793,104.515c-1.73,2.154-2.58,4.69-2.58,7.603c0,3.061,0.857,5.72,2.611,7.978c1.752,2.26,5.176,4.148,9.176,5.669
		V99.09C139,100.556,135.52,102.358,133.793,104.515z"/>
	<path d="M294.206,134.844c-0.421-3.999-7.576-9.775-8.411-13.708c-0.836-3.932,3.352-12.119,2.108-15.942
		c-1.243-3.824-9.441-7.987-11.076-11.661c-1.636-3.672,0.757-12.551-1.254-16.032c-2.011-3.483-10.894-5.849-13.259-9.103
		c-2.363-3.252-1.869-12.434-4.56-15.421c-2.69-2.989-11.874-3.456-14.86-6.147c-2.988-2.69-4.412-11.773-7.666-14.137
		c-3.252-2.363-12.332-0.914-15.812-2.923c-3.484-2.01-6.768-10.599-10.441-12.233c-3.673-1.635-12.252,1.671-16.074,0.429
		c-3.824-1.243-8.822-8.96-12.754-9.796c-3.935-0.836-11.637,4.182-15.635,3.762S154.021,5,150,5s-10.514,6.51-14.512,6.931
		s-11.703-4.598-15.637-3.762c-3.932,0.836-8.93,8.554-12.752,9.796c-3.824,1.242-12.404-2.065-16.076-0.429
		c-3.672,1.635-6.958,10.223-10.439,12.233c-3.481,2.011-12.561,0.56-15.814,2.923c-3.252,2.364-4.678,11.447-7.665,14.137
		c-2.988,2.691-12.171,3.158-14.861,6.147c-2.691,2.988-2.197,12.169-4.56,15.421c-2.363,3.253-11.249,5.621-13.258,9.103
		c-2.01,3.481,0.383,12.359-1.253,16.032c-1.635,3.673-9.834,7.836-11.077,11.661c-1.243,3.823,2.943,12.011,2.107,15.942
		c-0.837,3.933-7.988,9.71-8.409,13.708C5.373,138.842,11.17,145.979,11.17,150c0,4.021-5.797,11.158-5.376,15.156
		c0.421,3.999,7.572,9.775,8.409,13.708c0.836,3.932-3.351,12.119-2.107,15.942c1.243,3.824,9.442,7.986,11.077,11.66
		c1.636,3.673-0.757,12.551,1.253,16.033c2.009,3.481,10.895,5.849,13.258,9.102c2.362,3.252,1.868,12.434,4.56,15.422
		c2.69,2.988,11.873,3.458,14.861,6.147c2.987,2.69,4.413,11.772,7.665,14.136c3.254,2.363,12.333,0.914,15.814,2.923
		c3.481,2.01,6.768,10.599,10.439,12.233c3.672,1.636,12.252-1.671,16.076-0.429c3.822,1.243,8.82,8.96,12.752,9.796
		c3.934,0.836,11.639-4.182,15.637-3.761c3.998,0.42,10.491,6.93,14.512,6.93s10.514-6.51,14.512-6.93
		c3.998-0.421,11.7,4.598,15.635,3.761c3.932-0.836,8.93-8.554,12.754-9.796c3.822-1.242,12.401,2.064,16.074,0.429
		c3.674-1.634,6.957-10.223,10.441-12.233c3.48-2.009,12.561-0.561,15.812-2.923c3.254-2.364,4.678-11.445,7.666-14.136
		c2.986-2.69,12.172-3.16,14.86-6.147c2.69-2.988,2.196-12.169,4.56-15.422c2.365-3.253,11.248-5.619,13.259-9.102
		c2.012-3.482-0.382-12.36,1.254-16.033c1.635-3.674,9.833-7.836,11.076-11.66c1.243-3.824-2.944-12.01-2.108-15.942
		c0.835-3.933,7.99-9.709,8.411-13.708c0.419-3.998-5.376-11.135-5.376-15.156C288.83,145.979,294.625,138.842,294.206,134.844z
		 M209.279,200c-3.353,6.3-7.64,11.557-12.861,15.774c-5.223,4.224-10.871,7.284-16.746,9.188
		c-5.877,1.902-12.672,3.028-21.672,3.372V248h-15v-19.667c-10-0.899-18.387-2.542-24.713-4.928
		c-6.33-2.386-11.779-5.682-16.376-9.906c-4.601-4.214-8.139-8.762-10.626-13.636c-2.493-4.875-4.354-10.768-5.599-17.684
		l41.908-4.874c1.243,6.842,2.894,11.79,5.007,14.826c2.107,3.044,5.398,5.745,10.398,8.094v-36.651
		c-14-3.875-23.85-7.237-29.693-10.073c-5.844-2.834-10.894-7.385-15.182-13.646c-4.29-6.262-6.428-13.897-6.428-22.89
		c0-12.318,4.285-22.612,12.895-30.879C113.2,77.82,126,73.231,143,72.329V62h15v10.329c16,0.975,27.428,4.633,35.623,10.998
		c8.193,6.359,13.585,15.077,16.076,26.14l-38.563,6.119c-1.937-4.911-3.767-8.317-5.326-10.221c-1.555-1.903-3.81-3.816-7.81-5.755
		v30.008c21,5.609,35.154,11.522,42.209,17.754c9.334,8.371,14.053,18.997,14.053,31.863
		C214.262,186.78,212.635,193.701,209.279,200z"/>
</g>
</svg>
