<?xml version="1.0" encoding="utf-8"?>
<!-- Generator: Adobe Illustrator 16.0.0, SVG Export Plug-In . SVG Version: 6.00 Build 0)  -->
<!DOCTYPE svg PUBLIC "-//W3C//DTD SVG 1.1//EN" "http://www.w3.org/Graphics/SVG/1.1/DTD/svg11.dtd">
<svg version="1.1" id="Layer_1" xmlns="http://www.w3.org/2000/svg" xmlns:xlink="http://www.w3.org/1999/xlink" x="0px" y="0px"
	 width="300px" height="300px" viewBox="0 0 300 300" style="enable-background:new 0 0 300 300;" xml:space="preserve">
<path d="M26.589,269.706l-5.8-2.255l-1.934-4.674c-1.771-6.927,2.899-13.856,18.045-33.351c4.35-5.638,10.472-13.532,13.371-18.366
	C21.433,191.405,5,163.855,5,134.856C5,77.177,69.927,30.294,150,30.294s145,46.883,145,104.562c0,57.839-64.927,104.56-145,104.56
	c-17.561,0-34.639-2.255-50.911-6.606c-4.189,1.291-20.139,10.797-30.934,17.239C43.828,264.228,34,269.706,28.038,269.706H26.589z"
	/>
<g id="Restricted">
</g>
<g id="Help">
</g>
</svg>
