<?xml version="1.0" encoding="utf-8"?>
<!-- Generator: Adobe Illustrator 19.1.0, SVG Export Plug-In . SVG Version: 6.00 Build 0)  -->
<!DOCTYPE svg PUBLIC "-//W3C//DTD SVG 1.1//EN" "http://www.w3.org/Graphics/SVG/1.1/DTD/svg11.dtd">
<svg version="1.1" id="Layer_1" xmlns="http://www.w3.org/2000/svg" xmlns:xlink="http://www.w3.org/1999/xlink" x="0px" y="0px"
	 viewBox="0 0 512 512" enable-background="new 0 0 512 512" xml:space="preserve">
<g>
	<path d="M255.9,409.3c-55.4,0-110.9,0-166.3,0c-10.7,0-21.5,0-32.2,0c-18,0-31.3-13.2-31.4-31.3c-0.1-20.7,0-41.3,0-62
		c0-60.3,0-120.7,0-181c0-14.8,8.4-26.8,21.7-30.7c3.3-1,6.8-1.4,10.2-1.4c45.3-0.1,90.6,0,135.9,0c64.3,0,128.6,0,192.9-0.1
		c22.5,0,45.1,0,67.6,0c18.6,0,31.8,13.3,31.8,31.9c0,21.5-0.1,42.9-0.1,64.4c0,38.3,0.1,76.6,0.1,114.9c0,21.2,0,42.3,0,63.5
		c0,18.8-13.1,32-31.9,32C388,409.3,322,409.3,255.9,409.3z M118.3,164.1c-7.3,0-14.6,0-21.8,0c-10.4,0-16.7,6.4-16.7,16.7
		c0,8.7-0.1,17.5-0.1,26.2c-0.1,12.1,6.1,18.4,18.2,18.4c14.3,0,28.5,0,42.8,0c9.2,0,15.8-6.6,15.8-15.9c0-9.8,0-19.7,0-29.5
		c0-9.4-6.5-15.9-16-16C133,164.1,125.6,164.1,118.3,164.1z M217.6,332.5c0-10.2,0-20.1,0-30.3c-10.2,0-20.3,0-30.4,0
		c0,10.3,0,20.2,0,30.3C197.4,332.5,207.4,332.5,217.6,332.5z M110.3,302.3c-10.3,0-20.3,0-30.5,0c0,10.1,0,20.1,0,30.2
		c10.3,0,20.3,0,30.5,0C110.3,322.3,110.3,312.4,110.3,302.3z M125.8,302.3c0,10.1,0,20.1,0,30.2c10.2,0,20.3,0,30.4,0
		c0-10.2,0-20.2,0-30.2C146,302.3,136,302.3,125.8,302.3z M233.3,302.3c0,10.2,0,20.2,0,30.2c10.2,0,20.2,0,30.3,0
		c0-10.2,0-20.1,0-30.2C253.4,302.3,243.4,302.3,233.3,302.3z M325,302.3c-10.3,0-20.3,0-30.4,0c0,10.2,0,20.2,0,30.2
		c10.2,0,20.2,0,30.4,0C325,322.4,325,312.5,325,302.3z M370.8,302.4c-10.1,0-20.2,0-30.4,0c0,10.2,0,20.1,0,30.2
		c10.3,0,20.3,0,30.4,0C370.8,322.5,370.8,312.6,370.8,302.4z"/>
</g>
</svg>
