<svg class="icon icon-creditcard" height="16" viewBox="0 0 16 16" version="1.1" aria-hidden="true">
    <path
      d="M8,13.33H1.09A1.06,1.06,0,0,1,0,12.24c0-.72,0-1.44,0-2.16V3.79A1.07,1.07,0,0,1,.76,2.72a1.23,1.23,0,0,1,.35,0H14.89A1.07,1.07,0,0,1,16,3.78c0,.75,0,1.49,0,2.24,0,1.33,0,2.66,0,4v2.21a1.06,1.06,0,0,1-1.11,1.11ZM3.21,4.8H2.45a.54.54,0,0,0-.58.58c0,.3,0,.61,0,.91a.56.56,0,0,0,.63.64H4a.53.53,0,0,0,.55-.55v-1A.53.53,0,0,0,4,4.8Zm3.45,5.86V9.6H5.61v1.05ZM2.93,9.6H1.87v1.05H2.93Zm.54,0v1.05H4.53V9.6Zm3.74,0v1.05H8.26V9.6Zm3.19,0H9.34v1.05H10.4Zm1.59,0H10.93v1.05H12Z"/>
</svg>
