<?xml version="1.0" encoding="utf-8"?>
<!-- Generator: Adobe Illustrator 16.0.0, SVG Export Plug-In . SVG Version: 6.00 Build 0)  -->
<!DOCTYPE svg PUBLIC "-//W3C//DTD SVG 1.1//EN" "http://www.w3.org/Graphics/SVG/1.1/DTD/svg11.dtd">
<svg version="1.1" id="Layer_1" xmlns="http://www.w3.org/2000/svg" xmlns:xlink="http://www.w3.org/1999/xlink" x="0px" y="0px"
	 width="300px" height="300px" viewBox="0 0 300 300" style="enable-background:new 0 0 300 300;" xml:space="preserve">
<g id="Restricted">
</g>
<g id="Help">
	<path d="M150,5C70.042,5,5,70.049,5,150s65.042,145,145,145c79.957,0,145-65.049,145-145S229.957,5,150,5z M164.476,264.625
		l-0.045-56.979l-29.472,0.022l0.044,56.887c-51.824-6.745-92.975-47.968-99.592-99.832l56.654-0.044l-0.024-29.473l-56.627,0.045
		c6.627-51.841,47.758-93.046,99.557-99.803l0.045,56.857l29.472-0.016l-0.044-56.916c52.063,6.518,93.473,47.829,100.138,99.845
		l-57.2,0.044l0.024,29.473l57.188-0.045C257.965,216.746,216.555,258.086,164.476,264.625z"/>
</g>
</svg>
