<?xml version="1.0" encoding="utf-8"?>
<!-- Generator: Adobe Illustrator 16.0.0, SVG Export Plug-In . SVG Version: 6.00 Build 0)  -->
<!DOCTYPE svg PUBLIC "-//W3C//DTD SVG 1.1//EN" "http://www.w3.org/Graphics/SVG/1.1/DTD/svg11.dtd">
<svg version="1.1" id="Layer_1" xmlns="http://www.w3.org/2000/svg" xmlns:xlink="http://www.w3.org/1999/xlink" x="0px" y="0px"
	 width="300px" height="300px" viewBox="0 0 300 300" style="enable-background:new 0 0 300 300;" xml:space="preserve">
<g id="Restricted">
</g>
<g id="Help">
	<path d="M150,32.5C85.207,32.5,32.5,85.212,32.5,150S85.207,267.5,150,267.5S267.5,214.788,267.5,150S214.793,32.5,150,32.5z
		 M161.73,242.886l-0.036-46.172l-23.883,0.019l0.036,46.098c-41.995-5.466-75.342-38.871-80.704-80.898l45.909-0.036l-0.02-23.883
		l-45.888,0.036c5.37-42.009,38.7-75.399,80.676-80.875l0.036,46.074l23.883-0.013l-0.036-46.122
		c42.189,5.282,75.745,38.758,81.146,80.909l-46.352,0.036l0.02,23.883l46.342-0.036
		C237.489,204.087,203.933,237.587,161.73,242.886z"/>
</g>
</svg>
