<?xml version="1.0" encoding="utf-8"?>
<!-- Generator: Adobe Illustrator 16.0.0, SVG Export Plug-In . SVG Version: 6.00 Build 0)  -->
<!DOCTYPE svg PUBLIC "-//W3C//DTD SVG 1.1//EN" "http://www.w3.org/Graphics/SVG/1.1/DTD/svg11.dtd">
<svg version="1.1" id="Layer_1" xmlns="http://www.w3.org/2000/svg" xmlns:xlink="http://www.w3.org/1999/xlink" x="0px" y="0px"
	 width="300px" height="300px" viewBox="0 0 300 300" style="enable-background:new 0 0 300 300;" xml:space="preserve">
<g id="Restricted">
</g>
<g id="Help">
</g>
<g>
	<ellipse cx="192.792" cy="77.15" rx="5.349" ry="13.907"/>
	<ellipse cx="107.208" cy="77.15" rx="5.349" ry="13.907"/>
	<path d="M292.04,176.768l-37.279-28.374l-19.191-0.227c-0.05-9.488-1.168-18.369-3.196-26.598l17.283,0.162l33.326,25.309
		c1.354,1.028,2.944,1.524,4.523,1.524c2.261,0,4.495-1.052,5.968-2.992c2.503-3.294,1.86-8.023-1.434-10.526l-37.279-28.374
		l-27.465-0.325c-1.055-2.441-2.207-4.798-3.443-7.078c1.658-2.292,3.073-4.77,4.191-7.404l24.243-3.316l38.484-37.768
		c2.951-2.897,2.996-7.639,0.1-10.591c-2.899-2.952-7.638-2.996-10.591-0.1l-34.94,34.292l-14.335,1.96
		c-0.434-20.477-17.213-37.003-37.79-37.003c-13.301,0-25.011,6.91-31.752,17.322c-3.751-0.476-7.573-0.737-11.463-0.737
		c-3.889,0-7.71,0.262-11.461,0.737c-6.742-10.412-18.452-17.322-31.754-17.322c-20.576,0-37.355,16.527-37.789,37.003l-14.336-1.96
		L19.72,40.09c-2.952-2.894-7.691-2.852-10.591,0.1c-2.896,2.952-2.852,7.693,0.1,10.591l38.484,37.768l24.243,3.316
		c1.117,2.635,2.533,5.113,4.191,7.404c-1.236,2.28-2.389,4.637-3.443,7.078l-27.465,0.325L7.96,135.112
		c-3.294,2.502-3.937,7.198-1.434,10.492c1.473,1.94,3.707,2.961,5.968,2.96c1.579,0,3.17-0.512,4.523-1.54l33.326-25.325
		l17.293-0.174c-2.047,8.293-3.172,17.246-3.209,26.817l-19.188,0.181L7.96,176.833c-3.294,2.503-3.937,7.199-1.434,10.493
		c1.473,1.94,3.707,2.961,5.968,2.96c1.579,0,3.17-0.496,4.523-1.524l33.326-25.309l14.888-0.14
		c1.103,9.934,3.307,19.686,6.456,28.964l-11.471,0.107l-37.279,28.31c-3.294,2.502-3.937,7.199-1.435,10.493
		c1.473,1.94,3.708,2.961,5.969,2.96c1.578,0,3.169-0.496,4.523-1.524l33.326-25.31l12.436-0.115
		c15.188,31.719,41.866,54.855,72.243,54.855s57.055-23.137,72.244-54.855l12.435,0.115l33.326,25.31
		c1.354,1.028,2.945,1.524,4.523,1.524c2.261,0,4.496-1.053,5.969-2.992c2.502-3.294,1.859-8.023-1.435-10.526l-37.279-28.375
		l-11.418-0.135c3.121-9.23,5.308-18.929,6.403-28.806l14.888,0.14l33.326,25.309c1.354,1.028,2.944,1.524,4.523,1.524
		c2.261,0,4.495-1.052,5.968-2.992C295.977,184,295.334,179.271,292.04,176.768z M107.209,101.398
		c-13.589,0-24.605-11.016-24.605-24.605c0-13.589,11.017-24.604,24.605-24.604s24.604,11.016,24.604,24.604
		C131.813,90.383,120.798,101.398,107.209,101.398z M192.791,101.398c-13.588,0-24.604-11.016-24.604-24.605
		c0-13.589,11.017-24.604,24.604-24.604c13.59,0,24.605,11.016,24.605,24.604C217.396,90.383,206.381,101.398,192.791,101.398z"/>
</g>
</svg>
