<?xml version="1.0" encoding="utf-8"?>
<!-- Generator: Adobe Illustrator 16.0.0, SVG Export Plug-In . SVG Version: 6.00 Build 0)  -->
<!DOCTYPE svg PUBLIC "-//W3C//DTD SVG 1.1//EN" "http://www.w3.org/Graphics/SVG/1.1/DTD/svg11.dtd">
<svg version="1.1" id="Layer_1" xmlns="http://www.w3.org/2000/svg" xmlns:xlink="http://www.w3.org/1999/xlink" x="0px" y="0px"
	 width="300px" height="300px" viewBox="0 0 300 300" style="enable-background:new 0 0 300 300;" xml:space="preserve">
<g id="Restricted">
</g>
<g id="Help">
</g>
<g>
	<ellipse cx="190" cy="81.902" rx="5" ry="13"/>
	<ellipse cx="110" cy="81.902" rx="5" ry="13"/>
	<path d="M282.774,175.021l-34.848-26.523l-17.939-0.212c-0.046-8.869-1.092-17.171-2.987-24.862l16.155,0.151l31.152,23.658
		c1.266,0.961,2.753,1.425,4.229,1.425c2.113,0,4.202-0.983,5.579-2.797c2.339-3.079,1.738-7.5-1.341-9.84l-34.848-26.523
		l-25.673-0.304c-0.986-2.282-2.063-4.485-3.219-6.616c1.55-2.143,2.873-4.459,3.918-6.922l22.662-3.1l35.974-35.305
		c2.759-2.708,2.801-7.14,0.093-9.899c-2.71-2.76-7.139-2.801-9.899-0.093l-32.661,32.055l-13.4,1.832
		c-0.405-19.141-16.09-34.589-35.325-34.589c-12.433,0-23.379,6.459-29.681,16.192c-3.506-0.445-7.079-0.689-10.715-0.689
		c-3.635,0-7.207,0.244-10.713,0.689c-6.303-9.733-17.249-16.192-29.683-16.192c-19.234,0-34.919,15.449-35.324,34.589
		l-13.401-1.832L28.218,47.26c-2.76-2.705-7.189-2.666-9.899,0.093c-2.708,2.76-2.666,7.191,0.093,9.899l35.974,35.305l22.662,3.1
		c1.044,2.463,2.368,4.78,3.918,6.922c-1.155,2.131-2.232,4.334-3.219,6.616l-25.673,0.304l-34.848,26.585
		c-3.079,2.339-3.68,6.729-1.341,9.809c1.377,1.813,3.466,2.768,5.579,2.767c1.476,0,2.963-0.479,4.229-1.439l31.152-23.674
		l16.165-0.162c-1.914,7.752-2.966,16.121-3,25.068l-17.937,0.169l-34.848,26.463c-3.079,2.339-3.68,6.729-1.341,9.809
		c1.377,1.813,3.466,2.768,5.579,2.767c1.476,0,2.963-0.464,4.229-1.425l31.152-23.658l13.916-0.13
		c1.031,9.285,3.091,18.401,6.035,27.074l-10.723,0.101l-34.848,26.463c-3.079,2.339-3.68,6.729-1.341,9.809
		c1.377,1.813,3.466,2.768,5.579,2.767c1.476,0,2.963-0.464,4.229-1.425l31.152-23.658l11.625-0.108
		c14.197,29.65,39.135,51.277,67.53,51.277s53.333-21.627,67.531-51.277l11.624,0.108l31.152,23.658
		c1.266,0.961,2.753,1.425,4.229,1.425c2.113,0,4.202-0.983,5.579-2.797c2.339-3.079,1.738-7.5-1.341-9.84l-34.848-26.523
		l-10.673-0.126c2.917-8.629,4.961-17.694,5.985-26.927l13.916,0.13l31.152,23.658c1.266,0.961,2.753,1.425,4.229,1.425
		c2.113,0,4.202-0.983,5.579-2.797C286.454,181.782,285.854,177.361,282.774,175.021z M110,104.568c-12.702,0-23-10.297-23-23
		c0-12.702,10.298-23,23-23c12.703,0,23,10.298,23,23C133,94.271,122.703,104.568,110,104.568z M190,104.568
		c-12.702,0-23-10.297-23-23c0-12.702,10.298-23,23-23c12.703,0,23,10.298,23,23C213,94.271,202.703,104.568,190,104.568z"/>
</g>
</svg>
