<?xml version="1.0" encoding="utf-8"?>
<!-- Generator: Adobe Illustrator 16.0.0, SVG Export Plug-In . SVG Version: 6.00 Build 0)  -->
<!DOCTYPE svg PUBLIC "-//W3C//DTD SVG 1.1//EN" "http://www.w3.org/Graphics/SVG/1.1/DTD/svg11.dtd">
<svg version="1.1" id="Layer_1" xmlns="http://www.w3.org/2000/svg" xmlns:xlink="http://www.w3.org/1999/xlink" x="0px" y="0px"
	 width="300px" height="300px" viewBox="0 0 300 300" style="enable-background:new 0 0 300 300;" xml:space="preserve">
<g id="Restricted">
</g>
<g id="Help">
</g>
<g>
	<path d="M245.171,28H195V15.915C195,9.47,189.842,6,183.396,6h-64.536C112.413,6,107,9.47,107,15.915V28H55.829
		C50.913,28,47,30.827,47,35.742v26.139C47,66.797,50.913,72,55.829,72h189.342c4.916,0,8.829-5.203,8.829-10.119V35.742
		C254,30.827,250.087,28,245.171,28z"/>
	<path d="M243,288.276c0,3.296-3.113,7.724-6.674,7.724H65.929c-3.56,0-6.929-4.427-6.929-7.724V101.439
		C59,98.143,62.369,97,65.929,97h170.397c3.561,0,6.674,1.143,6.674,4.439V288.276z"/>
</g>
</svg>
