<?xml version="1.0" encoding="utf-8"?>
<!-- Generator: Adobe Illustrator 16.0.0, SVG Export Plug-In . SVG Version: 6.00 Build 0)  -->
<!DOCTYPE svg PUBLIC "-//W3C//DTD SVG 1.1//EN" "http://www.w3.org/Graphics/SVG/1.1/DTD/svg11.dtd">
<svg version="1.1" id="Layer_1" xmlns="http://www.w3.org/2000/svg" xmlns:xlink="http://www.w3.org/1999/xlink" x="0px" y="0px"
	 width="300px" height="300px" viewBox="0 0 300 300" style="enable-background:new 0 0 300 300;" xml:space="preserve">
<g id="Restricted">
</g>
<g id="Help">
	<g>
		<path d="M224.911,53H185v-9.204c0-5.134-4.162-8.796-9.297-8.796h-51.406c-5.135,0-9.297,3.662-9.297,8.796V53H74.089
			C70.174,53,67,55.674,67,59.589v20.821C67,84.326,70.174,88,74.089,88h150.821c3.916,0,7.089-3.674,7.089-7.589V59.589
			C232,55.674,228.826,53,224.911,53z"/>
		<path d="M223,260.746c0,2.625-2.299,5.254-5.134,5.254H82.134c-2.835,0-5.134-2.628-5.134-5.254V111.92
			c0-2.625,2.299-3.92,5.134-3.92h135.731c2.835,0,5.134,1.295,5.134,3.92V260.746z"/>
	</g>
</g>
</svg>
