<?xml version="1.0" encoding="utf-8"?>
<!-- Generator: Adobe Illustrator 18.1.1, SVG Export Plug-In . SVG Version: 6.00 Build 0)  -->
<!DOCTYPE svg PUBLIC "-//W3C//DTD SVG 1.1//EN" "http://www.w3.org/Graphics/SVG/1.1/DTD/svg11.dtd">
<svg version="1.1" xmlns="http://www.w3.org/2000/svg" xmlns:xlink="http://www.w3.org/1999/xlink" x="0px" y="0px"
	 viewBox="0 0 512 512" enable-background="new 0 0 512 512" xml:space="preserve">
<g id="Layer_1">
	<path d="M461.8,89h-257c-5.7,0-11.1,0.6-15.3,4.4L33.6,232.7c-4.7,4.2-7.5,9.9-7.6,16.2c-0.1,6.4,2.4,12.3,7,16.7l155.8,150.6
		c4.3,4.1,10,6.4,15.9,6.4l257,0.5c0,0,0,0,0,0c6.1,0,12.6-2.4,16.9-6.7c4.3-4.3,7.4-10.1,7.4-16.2V108.9
		C486,96.2,474.4,89,461.8,89z M388.9,294.6c6,6,6,15.6,0,21.6c-3,3-6.9,4.5-10.8,4.5c-3.9,0-7.8-1.5-10.8-4.5l-42.6-42.6L282,316.2
		c-3,3-6.9,4.5-10.8,4.5c-3.9,0-7.8-1.5-10.8-4.5c-6-6-6-15.6,0-21.6l42.6-42.6l-42.6-42.6c-6-6-6-15.6,0-21.6c6-6,15.6-6,21.6,0
		l42.6,42.6l42.6-42.6c6-6,15.6-6,21.6,0c6,6,6,15.6,0,21.6L346.2,252L388.9,294.6z"/>
</g>
<g id="Layer_2">
</g>
</svg>
