<?xml version="1.0" encoding="utf-8"?>
<!-- Generator: Adobe Illustrator 18.1.1, SVG Export Plug-In . SVG Version: 6.00 Build 0)  -->
<!DOCTYPE svg PUBLIC "-//W3C//DTD SVG 1.1//EN" "http://www.w3.org/Graphics/SVG/1.1/DTD/svg11.dtd">
<svg version="1.1" xmlns="http://www.w3.org/2000/svg" xmlns:xlink="http://www.w3.org/1999/xlink" x="0px" y="0px"
	 viewBox="0 0 512 512" enable-background="new 0 0 512 512" xml:space="preserve">
<g id="Layer_1">
	<path d="M458.3,94H206.7c-5.5,0-10.9,0.8-15,4.5L39.2,235c-4.6,4.2-7.3,9.7-7.4,16c-0.1,6.2,2.4,12,6.8,16.4l152.5,147.4
		c4.2,4,9.7,6,15.5,6l251.6,0.2c0,0,0,0,0,0c6,0,12.3-2.1,16.5-6.3c4.2-4.2,7.2-9.7,7.2-15.6V114C482,101.6,470.6,94,458.3,94z
		 M387,295.8c5.8,5.8,5.8,15.3,0,21.1c-2.9,2.9-6.7,4.4-10.6,4.4s-7.6-1.5-10.6-4.4l-41.7-41.7L282.4,317c-2.9,2.9-6.7,4.4-10.6,4.4
		c-3.8,0-7.6-1.5-10.6-4.4c-5.8-5.8-5.8-15.3,0-21.1l41.7-41.7l-41.7-41.7c-5.8-5.8-5.8-15.3,0-21.1c5.8-5.8,15.3-5.8,21.1,0
		l41.7,41.7l41.7-41.7c5.8-5.8,15.3-5.8,21.1,0c5.8,5.8,5.8,15.3,0,21.1l-41.7,41.7L387,295.8z"/>
</g>
<g id="Layer_2">
</g>
</svg>
