<?xml version="1.0" encoding="utf-8"?>
<!-- Generator: Adobe Illustrator 18.1.1, SVG Export Plug-In . SVG Version: 6.00 Build 0)  -->
<!DOCTYPE svg PUBLIC "-//W3C//DTD SVG 1.1//EN" "http://www.w3.org/Graphics/SVG/1.1/DTD/svg11.dtd">
<svg version="1.1" xmlns="http://www.w3.org/2000/svg" xmlns:xlink="http://www.w3.org/1999/xlink" x="0px" y="0px"
	 viewBox="0 0 512 512" enable-background="new 0 0 512 512" xml:space="preserve">
<g id="Layer_1">
	<path d="M479.6,75H200.3c-6.1,0-12.1,0.6-16.6,4.7L14.3,231.1c-5.1,4.6-8.1,10.7-8.2,17.6c-0.1,6.9,2.6,13.3,7.6,18.1l169.4,163.6
		c4.6,4.5,10.8,6.9,17.3,7l279.4,0.5c0,0,0,0,0,0c6.6,0,13.7-2.6,18.3-7.3c4.7-4.7,8-11,8-17.6V96.5C506,82.8,493.4,75,479.6,75z
		 M400.4,298.5c6.5,6.5,6.5,17,0,23.5c-3.2,3.2-7.5,4.9-11.7,4.9c-4.2,0-8.5-1.6-11.7-4.9l-46.4-46.4l-46.4,46.4
		c-3.2,3.2-7.5,4.9-11.7,4.9c-4.2,0-8.5-1.6-11.7-4.9c-6.5-6.5-6.5-17,0-23.5l46.4-46.4l-46.4-46.4c-6.5-6.5-6.5-17,0-23.5
		c6.5-6.5,17-6.5,23.5,0l46.4,46.4l46.4-46.4c6.5-6.5,17-6.5,23.5,0c6.5,6.5,6.5,17,0,23.5l-46.4,46.4L400.4,298.5z"/>
</g>
<g id="Layer_2">
</g>
</svg>
