<?xml version="1.0" encoding="utf-8"?>
<!-- Generator: Adobe Illustrator 16.0.0, SVG Export Plug-In . SVG Version: 6.00 Build 0)  -->
<!DOCTYPE svg PUBLIC "-//W3C//DTD SVG 1.1//EN" "http://www.w3.org/Graphics/SVG/1.1/DTD/svg11.dtd">
<svg version="1.1" id="Layer_1" xmlns="http://www.w3.org/2000/svg" xmlns:xlink="http://www.w3.org/1999/xlink" x="0px" y="0px"
	 width="300px" height="300px" viewBox="0 0 300 300" style="enable-background:new 0 0 300 300;" xml:space="preserve">
<path d="M194.406,267.5h-88.812c-8.147,0-14.803-8.606-14.803-19.163L73.12,117.068c0-10.557,8.606-19.163,19.163-19.163h115.319
	c10.671,0,19.277,8.606,19.277,19.163l-17.671,131.27C209.209,258.894,202.554,267.5,194.406,267.5z M92.283,110.642
	c-3.443,0-6.312,2.983-6.312,6.426l14.688,131.27c0,3.442,2.181,6.311,4.935,6.311h88.812c2.754,0,4.935-2.869,4.935-6.311
	l14.688-131.27c0-3.442-2.868-6.426-6.426-6.426H92.283z M150,240.879c-2.754,0-4.934-2.869-4.934-6.311l-1.492-94.666
	c0-3.557,2.869-6.426,6.426-6.426s6.426,2.869,6.426,6.426l-1.492,94.666C154.934,238.01,152.754,240.879,150,240.879z
	 M178.916,240.879c-2.639,0-4.934-2.869-4.934-6.311l7.229-94.666c0-3.557,2.869-6.426,6.426-6.426s6.426,2.869,6.426,6.426
	l-10.098,94.666C183.965,238.01,181.67,240.879,178.916,240.879z M120.969,240.879c-2.639,0-4.934-2.869-4.934-6.311l-10.098-94.666
	c0-3.557,2.869-6.426,6.426-6.426s6.426,2.869,6.426,6.426l7.114,94.666C125.903,238.01,123.723,240.879,120.969,240.879z
	 M218.159,85.742c-1.263,5.967-7.114,9.639-12.966,8.491L88.726,69.448c-5.967-1.262-9.753-7-8.491-12.966l0,0
	c1.262-5.967,7.114-9.753,12.967-8.491l116.467,24.785C215.635,74.038,219.422,79.89,218.159,85.742z M175.244,54.99
	c0,12.393-10.098,22.49-22.49,22.49s-22.49-10.098-22.49-22.49s10.098-22.49,22.49-22.49S175.244,42.598,175.244,54.99z"/>
<g id="Restricted">
</g>
<g id="Help">
</g>
</svg>
