<?xml version="1.0" encoding="utf-8"?>
<!-- Generator: Adobe Illustrator 16.0.0, SVG Export Plug-In . SVG Version: 6.00 Build 0)  -->
<!DOCTYPE svg PUBLIC "-//W3C//DTD SVG 1.1//EN" "http://www.w3.org/Graphics/SVG/1.1/DTD/svg11.dtd">
<svg version="1.1" id="Layer_1" xmlns="http://www.w3.org/2000/svg" xmlns:xlink="http://www.w3.org/1999/xlink" x="0px" y="0px"
	 width="300px" height="300px" viewBox="0 0 300 300" style="enable-background:new 0 0 300 300;" xml:space="preserve">
<g id="Restricted">
</g>
<g id="Help">
</g>
<path d="M295,24.954C295,13.934,286.066,5,275.046,5H24.954C13.934,5,5,13.934,5,24.954v250.092C5,286.066,13.934,295,24.954,295
	h250.092c11.02,0,19.954-8.934,19.954-19.954V24.954z M100.697,100.146c-14.546,14.546-38.13,14.546-52.677,0
	c-14.546-14.546-14.546-38.131,0-52.676c14.546-14.547,38.131-14.547,52.677,0C115.243,62.015,115.243,85.6,100.697,100.146z
	 M176.889,176.338c-14.546,14.546-38.13,14.546-52.676,0s-14.546-38.13,0-52.676s38.13-14.546,52.676,0
	S191.435,161.792,176.889,176.338z M253.082,252.53c-14.546,14.547-38.13,14.547-52.677,0c-14.546-14.544-14.546-38.13,0-52.676
	c14.546-14.546,38.13-14.546,52.677,0C267.627,214.4,267.627,237.985,253.082,252.53z"/>
</svg>
