<?xml version="1.0" encoding="utf-8"?>
<!-- Generator: Adobe Illustrator 16.0.0, SVG Export Plug-In . SVG Version: 6.00 Build 0)  -->
<!DOCTYPE svg PUBLIC "-//W3C//DTD SVG 1.1//EN" "http://www.w3.org/Graphics/SVG/1.1/DTD/svg11.dtd">
<svg version="1.1" id="Layer_1" xmlns="http://www.w3.org/2000/svg" xmlns:xlink="http://www.w3.org/1999/xlink" x="0px" y="0px"
	 width="300px" height="300px" viewBox="0 0 300 300" style="enable-background:new 0 0 300 300;" xml:space="preserve">
<g id="Restricted">
</g>
<g id="Help">
	<path d="M252.535,47.471C224.221,19.15,187.109,5,150,5S75.781,19.15,47.467,47.471c-56.622,56.624-56.622,148.436,0,205.059
		C75.781,280.84,112.891,295,150,295s74.221-14.16,102.535-42.471C309.155,195.906,309.155,104.095,252.535,47.471z M27.657,149.999
		c0-32.685,12.723-63.4,35.829-86.511C86.598,40.382,117.319,27.656,150,27.656c24.795,0,48.464,7.344,68.537,20.974L48.634,218.535
		C34.999,198.463,27.657,174.794,27.657,149.999z M236.515,236.512c-23.111,23.104-53.832,35.832-86.515,35.832
		c-24.795,0-48.464-7.347-68.536-20.983L251.345,81.481C283.528,129.05,278.601,194.418,236.515,236.512z"/>
</g>
</svg>
