<?xml version="1.0" encoding="utf-8"?>
<!-- Generator: Adobe Illustrator 18.1.1, SVG Export Plug-In . SVG Version: 6.00 Build 0)  -->
<!DOCTYPE svg PUBLIC "-//W3C//DTD SVG 1.1//EN" "http://www.w3.org/Graphics/SVG/1.1/DTD/svg11.dtd">
<svg version="1.1" xmlns="http://www.w3.org/2000/svg" xmlns:xlink="http://www.w3.org/1999/xlink" x="0px" y="0px"
	 viewBox="0 0 512 512" enable-background="new 0 0 512 512" xml:space="preserve">
<g id="Layer_1">
	<path d="M431.7,96.2l-79.2-84.8C349.2,8,344.9,6,340.1,6H93.2C83.7,6,76,13.7,76,23.2v463.7c0,9.5,7.7,19.1,17.2,19.1h326.3
		c9.5,0,16.4-9.6,16.4-19.1V108C436,103.6,434.7,99.4,431.7,96.2z M407.2,109h-72.3c-1.3,0-3.9-1-3.9-2.2v-75c0-2,3.3-3.1,4.7-1.6
		l72.7,75C409.9,106.6,409.2,109,407.2,109z"/>
</g>
<g id="Layer_2">
</g>
</svg>
