<?xml version="1.0" encoding="utf-8"?>
<!-- Generator: Adobe Illustrator 18.1.1, SVG Export Plug-In . SVG Version: 6.00 Build 0)  -->
<!DOCTYPE svg PUBLIC "-//W3C//DTD SVG 1.1//EN" "http://www.w3.org/Graphics/SVG/1.1/DTD/svg11.dtd">
<svg version="1.1" id="Layer_1" xmlns="http://www.w3.org/2000/svg" xmlns:xlink="http://www.w3.org/1999/xlink" x="0px" y="0px"
	 viewBox="0 0 512 512" enable-background="new 0 0 512 512" xml:space="preserve">
<path d="M435,59.9c0-12.1-9.8-21.9-21.9-21.9H106.9C94.8,38,85,47.8,85,59.9v393.2c0,12.1,9.8,21.9,21.9,21.9h306.2
	c12.1,0,21.9-9.8,21.9-21.9V59.9z M165.6,124h61.6c4,0,7.3,3.5,7.3,7.5c0,4-3.3,7.5-7.3,7.5h-61.6c-4,0-7.3-3.5-7.3-7.5
	C158.3,127.5,161.6,124,165.6,124z M164.4,182h184.8c4,0,7.3,4,7.3,8s-3.3,8-7.3,8H164.4c-4,0-7.3-4-7.3-8S160.4,182,164.4,182z
	 M350.4,372H165.6c-4,0-7.3-2.5-7.3-6.5s3.3-6.5,7.3-6.5h184.8c4,0,7.3,2.5,7.3,6.5S354.4,372,350.4,372z M350.4,313H165.6
	c-4,0-7.3-3-7.3-7s3.3-7,7.3-7h184.8c4,0,7.3,3,7.3,7S354.4,313,350.4,313z M350.4,255H165.6c-4,0-7.3-3.5-7.3-7.5s3.3-7.5,7.3-7.5
	h184.8c4,0,7.3,3.5,7.3,7.5S354.4,255,350.4,255z"/>
</svg>
