<?xml version="1.0" encoding="utf-8"?>
<!-- Generator: Adobe Illustrator 18.1.1, SVG Export Plug-In . SVG Version: 6.00 Build 0)  -->
<!DOCTYPE svg PUBLIC "-//W3C//DTD SVG 1.1//EN" "http://www.w3.org/Graphics/SVG/1.1/DTD/svg11.dtd">
<svg version="1.1" xmlns="http://www.w3.org/2000/svg" xmlns:xlink="http://www.w3.org/1999/xlink" x="0px" y="0px"
	 viewBox="0 0 512 512" enable-background="new 0 0 512 512" xml:space="preserve">
<g id="Layer_1">
	<path d="M414.3,115.5l-68.9-73.8c-2.8-3-6.6-4.7-10.7-4.7H119.8c-8.3,0-14.8,6.7-14.8,14.9v403.5c0,8.3,6.5,16.6,14.8,16.6h283.9
		c8.3,0,14.3-8.4,14.3-16.6V125.7C418,121.9,416.9,118.3,414.3,115.5z M393,127H330c-1.1,0-3-1.2-3-2.3V59.4c0-1.8,2.7-2.7,3.9-1.4
		l63.2,65.5C395.3,124.7,394.7,127,393,127z"/>
</g>
<g id="Layer_2">
</g>
</svg>
