<?xml version="1.0" encoding="utf-8"?>
<!-- Generator: Adobe Illustrator 18.1.1, SVG Export Plug-In . SVG Version: 6.00 Build 0)  -->
<!DOCTYPE svg PUBLIC "-//W3C//DTD SVG 1.1//EN" "http://www.w3.org/Graphics/SVG/1.1/DTD/svg11.dtd">
<svg version="1.1" id="Layer_1" xmlns="http://www.w3.org/2000/svg" xmlns:xlink="http://www.w3.org/1999/xlink" x="0px" y="0px"
	 viewBox="0 0 512 512" enable-background="new 0 0 512 512" xml:space="preserve">
<path d="M456,31c0-13.8-11.2-25-25-25H81C67.2,6,56,17.2,56,31V481c0,13.8,11.2,25,25,25H431c13.8,0,25-11.2,25-25V31z M147.8,104
	h70.5c4.6,0,8.3,4.4,8.3,9s-3.7,9-8.3,9h-70.5c-4.6,0-8.3-4.4-8.3-9S143.2,104,147.8,104z M146.4,171h211.4c4.6,0,8.3,4.4,8.3,9
	s-3.7,9-8.3,9H146.4c-4.6,0-8.3-4.4-8.3-9S141.8,171,146.4,171z M359.2,388H147.8c-4.6,0-8.3-2.9-8.3-7.5s3.7-7.5,8.3-7.5h211.4
	c4.6,0,8.3,2.9,8.3,7.5S363.8,388,359.2,388z M359.2,321H147.8c-4.6,0-8.3-3.4-8.3-8s3.7-8,8.3-8h211.4c4.6,0,8.3,3.4,8.3,8
	S363.8,321,359.2,321z M359.2,254H147.8c-4.6,0-8.3-3.9-8.3-8.5s3.7-8.5,8.3-8.5h211.4c4.6,0,8.3,3.9,8.3,8.5S363.8,254,359.2,254z"
	/>
</svg>
