<svg class="icon icon-document2" height="16" viewBox="0 0 13 16" version="1.1" aria-hidden="true">
    <path
      d="M12.9.8a.8.8,0,0,0-.8-.8H.9A.8.8,0,0,0,.1.8V15.2a.8.8,0,0,0,.8.8H12.1a.8.8,0,0,0,.8-.8ZM3,3.13H5.29a.3.3,0,0,1,0,.59H3a.3.3,0,0,1,0-.59ZM3,5.29H9.76a.28.28,0,0,1,0,.56H3a.28.28,0,0,1,0-.56ZM9.8,12.21H3c-.15,0-.27-.08-.27-.23s.12-.23.27-.23H9.8c.15,0,.27.08.27.23S10,12.21,9.8,12.21Zm0-2.12H3a.26.26,0,1,1,0-.52H9.8a.26.26,0,1,1,0,.52Zm0-2.16H3a.26.26,0,1,1,0-.52H9.8a.26.26,0,1,1,0,.52Z"/>
</svg>
