<?xml version="1.0" encoding="utf-8"?>
<!-- Generator: Adobe Illustrator 18.1.1, SVG Export Plug-In . SVG Version: 6.00 Build 0)  -->
<!DOCTYPE svg PUBLIC "-//W3C//DTD SVG 1.1//EN" "http://www.w3.org/Graphics/SVG/1.1/DTD/svg11.dtd">
<svg version="1.1" id="Layer_1" xmlns="http://www.w3.org/2000/svg" xmlns:xlink="http://www.w3.org/1999/xlink" x="0px" y="0px"
	 viewBox="0 0 512 512" enable-background="new 0 0 512 512" xml:space="preserve">
<path d="M440,49c0-12.7-10.3-23-23-23H95c-12.7,0-23,10.3-23,23V463c0,12.7,10.3,23,23,23H417c12.7,0,23-10.3,23-23V49z M156.5,116
	h64.8c4.2,0,7.7,4.3,7.7,8.5c0,4.2-3.4,8.5-7.7,8.5h-64.8c-4.2,0-7.7-4.3-7.7-8.5C148.8,120.3,152.2,116,156.5,116z M155.2,178
	h194.5c4.2,0,7.7,3.8,7.7,8s-3.4,8-7.7,8H155.2c-4.2,0-7.7-3.8-7.7-8S150.9,178,155.2,178z M351,377H156.5c-4.2,0-7.7-2.3-7.7-6.5
	s3.4-6.5,7.7-6.5H351c4.2,0,7.7,2.3,7.7,6.5S355.2,377,351,377z M351,316H156.5c-4.2,0-7.7-3.3-7.7-7.5s3.4-7.5,7.7-7.5H351
	c4.2,0,7.7,3.3,7.7,7.5S355.2,316,351,316z M351,254H156.5c-4.2,0-7.7-3.3-7.7-7.5s3.4-7.5,7.7-7.5H351c4.2,0,7.7,3.3,7.7,7.5
	S355.2,254,351,254z"/>
</svg>
