<?xml version="1.0" encoding="utf-8"?>
<!-- Generator: Adobe Illustrator 18.1.1, SVG Export Plug-In . SVG Version: 6.00 Build 0)  -->
<!DOCTYPE svg PUBLIC "-//W3C//DTD SVG 1.1//EN" "http://www.w3.org/Graphics/SVG/1.1/DTD/svg11.dtd">
<svg version="1.1" xmlns="http://www.w3.org/2000/svg" xmlns:xlink="http://www.w3.org/1999/xlink" x="0px" y="0px"
	 viewBox="0 0 512 512" enable-background="new 0 0 512 512" xml:space="preserve">
<g id="Layer_1">
	<g>
		<path d="M462.5,291.3c-13.1,0-23.5,10.6-23.5,23.7v108H74V315c0-13.1-10.9-23.7-24-23.7S26,301.9,26,315v156h460V315
			C486,301.9,475.6,291.3,462.5,291.3z"/>
		<path d="M241.6,386.7c4.5,4.5,10.5,7,16.9,7c6.3,0,12.4-2.5,16.8-7l79.1-79.9c9.2-9.3,9.1-24.3-0.2-33.5
			c-9.3-9.2-24.3-9.1-33.5,0.2L281,313.5V64.3c0-13.1-10.9-23.7-24-23.7c-13.1,0-24,10.6-24,23.7v246.9l-37.1-37.8
			c-9.2-9.3-24.1-9.4-33.4-0.2c-9.3,9.2-9.3,24.2-0.1,33.5L241.6,386.7z"/>
	</g>
</g>
<g id="Layer_2">
</g>
</svg>
