<?xml version="1.0" encoding="utf-8"?>
<!-- Generator: Adobe Illustrator 18.1.1, SVG Export Plug-In . SVG Version: 6.00 Build 0)  -->
<!DOCTYPE svg PUBLIC "-//W3C//DTD SVG 1.1//EN" "http://www.w3.org/Graphics/SVG/1.1/DTD/svg11.dtd">
<svg version="1.1" xmlns="http://www.w3.org/2000/svg" xmlns:xlink="http://www.w3.org/1999/xlink" x="0px" y="0px"
	 viewBox="0 0 512 512" enable-background="new 0 0 512 512" xml:space="preserve">
<g id="Layer_1">
	<g>
		<path d="M456,292.6c-12.4,0-22,10-22,22.4V418H88V315.1c0-12.4-10.1-22.4-22.5-22.4S43,302.7,43,315.1V463h435V315.1
			C478,302.7,468.4,292.6,456,292.6z"/>
		<path d="M246.9,382.9c4.2,4.2,10,6.6,15.9,6.6s11.7-2.4,15.9-6.6l74.8-75.5c8.7-8.8,8.6-23-0.2-31.7c-8.8-8.7-23.1-8.6-31.8,0.2
			L284,313.7V78c0-12.4-10.1-22.4-22.5-22.4S239,65.6,239,78v233.5l-35.2-35.7c-8.7-8.8-22.8-8.9-31.6-0.2
			c-8.8,8.7-8.8,22.9-0.1,31.7L246.9,382.9z"/>
	</g>
</g>
<g id="Layer_2">
</g>
</svg>
