<?xml version="1.0" encoding="utf-8"?>
<!-- Generator: Adobe Illustrator 16.0.0, SVG Export Plug-In . SVG Version: 6.00 Build 0)  -->
<!DOCTYPE svg PUBLIC "-//W3C//DTD SVG 1.1//EN" "http://www.w3.org/Graphics/SVG/1.1/DTD/svg11.dtd">
<svg version="1.1" id="Layer_1" xmlns="http://www.w3.org/2000/svg" xmlns:xlink="http://www.w3.org/1999/xlink" x="0px" y="0px"
	 width="300px" height="300px" viewBox="0 0 300 300" style="enable-background:new 0 0 300 300;" xml:space="preserve">
<path d="M242.145,43.013C229.034,32.5,212.089,32.5,212.089,32.5L59.463,201.947L41.034,267.5l65.059-29.437L258.966,71.46
	C258.966,71.46,255.255,53.65,242.145,43.013z M62.184,203.926c1.732-0.619,10.638-5.566,15.708-2.226
	c5.071,3.463,8.659,12.492,8.659,12.492s10.636,1.113,14.965,5.442c6.062,6.061,3.463,13.976,2.227,16.944l-34.508,14.595
	c-0.248-0.99-2.35-7.05-6.679-10.266c-3.217-2.474-9.895-1.979-11.255-1.732L62.184,203.926z"/>
<g id="Restricted">
</g>
<g id="Help">
</g>
</svg>
