<?xml version="1.0" encoding="utf-8"?>
<!-- Generator: Adobe Illustrator 18.1.1, SVG Export Plug-In . SVG Version: 6.00 Build 0)  -->
<!DOCTYPE svg PUBLIC "-//W3C//DTD SVG 1.1//EN" "http://www.w3.org/Graphics/SVG/1.1/DTD/svg11.dtd">
<svg version="1.1" xmlns="http://www.w3.org/2000/svg" xmlns:xlink="http://www.w3.org/1999/xlink" x="0px" y="0px"
	 viewBox="0 0 512 512" enable-background="new 0 0 512 512" xml:space="preserve">
<g id="Layer_1">
	<g>
		<polygon fill="none" points="46.4,464.9 79.9,456.6 54.8,431.5 		"/>
		<path fill="none" d="M454.3,44.7c-5.7-5.8-15.7-5.7-21.4,0l-36.6,36.5l34.6,34.5l36.6-36.5c2.8-2.8,4.4-6.6,4.4-10.6
			c0-4-1.6-7.8-4.4-10.6L454.3,44.7z"/>
		<path d="M506,68.5c0-13.1-5.1-25.4-14.4-34.7l-13.3-13.2c-18.5-18.5-50.9-18.5-69.4,0l-36.6,36.5l-0.2-0.2L25.8,402.6L6.5,484.2
			c-1.4,5.8,0.2,11.9,4.5,16.1c3.2,3.2,7.6,5,12,5c1.4,0,2.7-0.2,4.1-0.5l82-19.2l346.2-345.7l-0.3-0.3l36.6-36.5
			C500.9,93.9,506,81.6,506,68.5z M46.4,464.9l8.4-33.5l25.2,25.1L46.4,464.9z M467.6,79.1l-36.6,36.5l-34.6-34.5l36.6-36.5
			c5.7-5.7,15.6-5.7,21.4,0l13.3,13.2c2.8,2.8,4.4,6.6,4.4,10.6C472,72.5,470.4,76.3,467.6,79.1z"/>
	</g>
</g>
<g id="Layer_2">
</g>
</svg>
