<?xml version="1.0" encoding="utf-8"?>
<!-- Generator: Adobe Illustrator 18.1.1, SVG Export Plug-In . SVG Version: 6.00 Build 0)  -->
<!DOCTYPE svg PUBLIC "-//W3C//DTD SVG 1.1//EN" "http://www.w3.org/Graphics/SVG/1.1/DTD/svg11.dtd">
<svg version="1.1" xmlns="http://www.w3.org/2000/svg" xmlns:xlink="http://www.w3.org/1999/xlink" x="0px" y="0px"
	 viewBox="0 0 512 512" enable-background="new 0 0 512 512" xml:space="preserve">
<g id="Layer_1">
	<g>
		<polygon fill="none" points="63.2,448.2 94,440.5 70.9,417.4 		"/>
		<path fill="none" d="M438.4,61.6c-5.3-5.3-14.4-5.3-19.7,0l-33.7,33.6l31.8,31.7l33.7-33.6c2.6-2.6,4.1-6.1,4.1-9.8
			c0-3.7-1.4-7.2-4.1-9.8L438.4,61.6z"/>
		<path d="M486,83.5c0-12.1-4.7-23.4-13.3-31.9l-12.2-12.1c-17.1-17-46.8-17-63.9,0L362.9,73l-0.2-0.2l-318.5,318l-17.7,75.1
			c-1.3,5.3,0.2,11,4.1,14.9c3,3,7,4.6,11.1,4.6c1.3,0,2.5-0.2,3.8-0.5l75.4-17.6l318.5-318l-0.3-0.3l33.6-33.6
			C481.3,106.9,486,95.6,486,83.5z M63.2,448.2l7.7-30.8L94,440.5L63.2,448.2z M450.6,93.3l-33.7,33.6l-31.8-31.7l33.7-33.6
			c5.2-5.2,14.4-5.3,19.7,0l12.2,12.1c2.6,2.6,4.1,6.1,4.1,9.8C454.7,87.2,453.3,90.6,450.6,93.3z"/>
	</g>
</g>
<g id="Layer_2">
</g>
</svg>
