<?xml version="1.0" encoding="utf-8"?>
<!-- Generator: Adobe Illustrator 18.1.1, SVG Export Plug-In . SVG Version: 6.00 Build 0)  -->
<!DOCTYPE svg PUBLIC "-//W3C//DTD SVG 1.1//EN" "http://www.w3.org/Graphics/SVG/1.1/DTD/svg11.dtd">
<svg version="1.1" xmlns="http://www.w3.org/2000/svg" xmlns:xlink="http://www.w3.org/1999/xlink" x="0px" y="0px"
	 viewBox="0 0 512 512" enable-background="new 0 0 512 512" xml:space="preserve">
<g id="Layer_1">
	<g>
		<polygon fill="none" points="75.8,444.9 105.3,437.6 83.2,415.5 		"/>
		<path fill="none" d="M434.2,75.7c-5-5.1-13.8-5-18.8,0l-32.1,32.1l30.4,30.3l32.2-32.1c2.5-2.5,3.9-5.8,3.9-9.3
			c0-3.5-1.4-6.8-3.9-9.3L434.2,75.7z"/>
		<path d="M479.6,96.6c0-11.5-4.5-22.3-12.7-30.5l-11.7-11.6c-16.3-16.3-44.7-16.3-61,0l-32.2,32.1l-0.2-0.2L57.7,390.1l-16.9,71.7
			c-1.3,5.1,0.2,10.5,3.9,14.2c2.8,2.8,6.7,4.4,10.6,4.4c1.2,0,2.4-0.1,3.6-0.4l72-16.9l304.2-303.7l-0.3-0.3l32.1-32
			C475.1,119,479.6,108.1,479.6,96.6z M75.8,444.9l7.4-29.4l22.1,22.1L75.8,444.9z M445.9,105.9L413.7,138l-30.4-30.3l32.1-32.1
			c5-5,13.7-5,18.8,0l11.7,11.6c2.5,2.5,3.9,5.8,3.9,9.3C449.7,100.1,448.4,103.5,445.9,105.9z"/>
	</g>
</g>
<g id="Layer_2">
</g>
</svg>
