<?xml version="1.0" encoding="utf-8"?>
<!-- Generator: Adobe Illustrator 16.0.0, SVG Export Plug-In . SVG Version: 6.00 Build 0)  -->
<!DOCTYPE svg PUBLIC "-//W3C//DTD SVG 1.1//EN" "http://www.w3.org/Graphics/SVG/1.1/DTD/svg11.dtd">
<svg version="1.1" id="Layer_1" xmlns="http://www.w3.org/2000/svg" xmlns:xlink="http://www.w3.org/1999/xlink" x="0px" y="0px"
	 width="300px" height="300px" viewBox="0 0 300 300" style="enable-background:new 0 0 300 300;" xml:space="preserve">
<path d="M263.71,17.974C247.531,5,226.62,5,226.62,5L38.273,214.105L15.531,295l80.285-36.327L284.469,53.079
	C284.469,53.079,279.889,31.101,263.71,17.974z M41.631,216.547c2.138-0.764,13.127-6.869,19.385-2.747
	c6.258,4.274,10.686,15.416,10.686,15.416s13.125,1.373,18.467,6.715c7.48,7.479,4.273,17.247,2.748,20.91l-42.584,18.011
	c-0.307-1.222-2.899-8.701-8.242-12.668c-3.97-3.053-12.21-2.442-13.889-2.137L41.631,216.547z"/>
<g id="Restricted">
</g>
<g id="Help">
</g>
</svg>
