<?xml version="1.0" encoding="utf-8"?>
<!-- Generator: Adobe Illustrator 16.0.0, SVG Export Plug-In . SVG Version: 6.00 Build 0)  -->
<!DOCTYPE svg PUBLIC "-//W3C//DTD SVG 1.1//EN" "http://www.w3.org/Graphics/SVG/1.1/DTD/svg11.dtd">
<svg version="1.1" id="Layer_1" xmlns="http://www.w3.org/2000/svg" xmlns:xlink="http://www.w3.org/1999/xlink" x="0px" y="0px"
	 width="300px" height="300px" viewBox="0 0 300 300" style="enable-background:new 0 0 300 300;" xml:space="preserve">
<path d="M65.605,179.877c0,0,35.4,47.297,84.395,47.297c50.835,0,84.395-47.297,84.395-47.297s-42.339,28.18-84.395,28.18
	C107.378,208.057,65.605,179.877,65.605,179.877z M150,5C69.995,5,5,69.994,5,150s64.995,145,145,145s145-64.994,145-145
	S230.005,5,150,5z M150,276.592c-69.81,0-126.592-56.781-126.592-126.592S80.19,23.408,150,23.408S276.592,80.189,276.592,150
	S219.81,276.592,150,276.592z M100.864,141.221c13.027,0,23.506-10.479,23.506-23.506c0-12.885-10.479-23.365-23.506-23.365
	c-12.886,0-23.364,10.48-23.364,23.365C77.5,130.742,87.979,141.221,100.864,141.221z M198.994,141.221
	c13.027,0,23.506-10.479,23.506-23.506c0-12.885-10.479-23.365-23.506-23.365c-12.886,0-23.364,10.48-23.364,23.365
	C175.63,130.742,186.108,141.221,198.994,141.221z"/>
<g id="Restricted">
</g>
<g id="Help">
</g>
</svg>
