<?xml version="1.0" encoding="utf-8"?>
<!-- Generator: Adobe Illustrator 18.1.1, SVG Export Plug-In . SVG Version: 6.00 Build 0)  -->
<!DOCTYPE svg PUBLIC "-//W3C//DTD SVG 1.1//EN" "http://www.w3.org/Graphics/SVG/1.1/DTD/svg11.dtd">
<svg version="1.1" xmlns="http://www.w3.org/2000/svg" xmlns:xlink="http://www.w3.org/1999/xlink" x="0px" y="0px"
	 viewBox="0 0 512 512" enable-background="new 0 0 512 512" xml:space="preserve">
<g id="Layer_1">
	<g>
		<path fill-rule="evenodd" clip-rule="evenodd" d="M388.2,260.7c-7.6-4-17-1.1-21,6.5c-21.7,41.2-64,66.8-110.5,66.8
			c-47.6,0-90.3-26.4-111.7-69c-3.9-7.7-13.1-10.8-20.9-6.9c-7.7,3.8-10.8,13.2-6.9,20.8c26.6,53.1,80,86.1,139.4,86.1
			c58.1,0,111-32,138-83.4C398.7,274.1,395.8,264.7,388.2,260.7z"/>
		<circle fill-rule="evenodd" clip-rule="evenodd" cx="194.5" cy="194" r="30.6"/>
		<circle fill-rule="evenodd" clip-rule="evenodd" cx="318.2" cy="194" r="30.6"/>
		<path d="M256.7,486.9c-61.4,0-119.2-23.9-162.6-67.4c-43.4-43.4-67.4-101.2-67.4-162.6S50.6,137.7,94.1,94.3
			c43.4-43.4,101.2-67.4,162.6-67.4s119.2,23.9,162.6,67.4c43.4,43.4,67.4,101.2,67.4,162.6s-23.9,119.2-67.4,162.6
			C375.9,463,318.1,486.9,256.7,486.9z M256.7,58.1c-109.6,0-198.8,89.2-198.8,198.8s89.2,198.8,198.8,198.8s198.8-89.2,198.8-198.8
			S366.3,58.1,256.7,58.1z"/>
	</g>
</g>
<g id="Layer_2">
</g>
</svg>
