<?xml version="1.0" encoding="utf-8"?>
<!-- Generator: Adobe Illustrator 18.1.1, SVG Export Plug-In . SVG Version: 6.00 Build 0)  -->
<!DOCTYPE svg PUBLIC "-//W3C//DTD SVG 1.1//EN" "http://www.w3.org/Graphics/SVG/1.1/DTD/svg11.dtd">
<svg version="1.1" xmlns="http://www.w3.org/2000/svg" xmlns:xlink="http://www.w3.org/1999/xlink" x="0px" y="0px"
	 viewBox="0 0 512 512" enable-background="new 0 0 512 512" xml:space="preserve">
<g id="Layer_1">
	<g>
		<path fill-rule="evenodd" clip-rule="evenodd" d="M259.7,33.1C136.9,33.1,37,133,37,255.7c0,122.8,99.9,222.7,222.7,222.7
			c122.8,0,222.7-99.9,222.7-222.7C482.4,133,382.5,33.1,259.7,33.1z M259.7,433.6c-98.1,0-177.9-79.8-177.9-177.9
			c0-98.1,79.8-177.8,177.9-177.8c98.1,0,177.9,79.8,177.9,177.8C437.5,353.8,357.8,433.6,259.7,433.6z"/>
		<path fill-rule="evenodd" clip-rule="evenodd" d="M386.2,259.6c-7.3-3.8-16.3-1-20.2,6.3c-20.9,39.6-61.6,64.3-106.4,64.3
			c-45.8,0-86.9-25.4-107.4-66.4c-3.7-7.4-12.6-10.4-20.1-6.7c-7.4,3.7-10.4,12.7-6.7,20.1c25.6,51.1,77,82.9,134.2,82.9
			c55.9,0,106.8-30.8,132.8-80.3C396.3,272.5,393.5,263.4,386.2,259.6z"/>
		<circle fill-rule="evenodd" clip-rule="evenodd" cx="199.8" cy="195.4" r="29.5"/>
		<circle fill-rule="evenodd" clip-rule="evenodd" cx="318.9" cy="195.4" r="29.5"/>
	</g>
</g>
<g id="Layer_2">
</g>
</svg>
