<?xml version="1.0" encoding="utf-8"?>
<!-- Generator: Adobe Illustrator 18.1.1, SVG Export Plug-In . SVG Version: 6.00 Build 0)  -->
<!DOCTYPE svg PUBLIC "-//W3C//DTD SVG 1.1//EN" "http://www.w3.org/Graphics/SVG/1.1/DTD/svg11.dtd">
<svg version="1.1" xmlns="http://www.w3.org/2000/svg" xmlns:xlink="http://www.w3.org/1999/xlink" x="0px" y="0px"
	 viewBox="0 0 512 512" enable-background="new 0 0 512 512" xml:space="preserve">
<g id="Layer_1">
	<g>
		<path fill-rule="evenodd" clip-rule="evenodd" d="M256,6C118.2,6,6,118.2,6,256c0,137.9,112.2,250,250,250
			c137.8,0,250-112.1,250-250C506,118.2,393.8,6,256,6z M256,455.7c-110.1,0-199.7-89.6-199.7-199.7c0-110.1,89.6-199.7,199.7-199.7
			c110.1,0,199.7,89.6,199.7,199.7C455.7,366.1,366.1,455.7,256,455.7z"/>
		<path fill-rule="evenodd" clip-rule="evenodd" d="M398.1,260.3c-8.2-4.3-18.3-1.2-22.7,7c-23.4,44.5-69.2,72.2-119.4,72.2
			c-51.4,0-97.6-28.6-120.6-74.5c-4.2-8.3-14.2-11.7-22.5-7.5c-8.3,4.1-11.6,14.2-7.5,22.5c28.8,57.4,86.5,93.1,150.6,93.1
			c62.7,0,119.9-34.5,149.1-90.1C409.4,274.8,406.2,264.6,398.1,260.3z"/>
		<circle fill-rule="evenodd" clip-rule="evenodd" cx="188.8" cy="188.3" r="33.1"/>
		<circle fill-rule="evenodd" clip-rule="evenodd" cx="322.5" cy="188.3" r="33.1"/>
	</g>
</g>
<g id="Layer_2">
</g>
</svg>
