<?xml version="1.0" encoding="utf-8"?>
<!-- Generator: Adobe Illustrator 18.1.1, SVG Export Plug-In . SVG Version: 6.00 Build 0)  -->
<!DOCTYPE svg PUBLIC "-//W3C//DTD SVG 1.1//EN" "http://www.w3.org/Graphics/SVG/1.1/DTD/svg11.dtd">
<svg version="1.1" id="Layer_1" xmlns="http://www.w3.org/2000/svg" xmlns:xlink="http://www.w3.org/1999/xlink" x="0px" y="0px"
	 viewBox="0 0 512 512" enable-background="new 0 0 512 512" xml:space="preserve">
<path d="M442.4,64c0-12.1-9.8-22-21.9-22c0,0,0,0-0.1,0c-12.1,0-21.8,10-21.8,22.1l1,271.9H138.5l67.5-66.8
	c8.6-8.5,8.7-22.3,0.2-30.9c-8.5-8.6-22.3-8.6-30.9-0.1L69.8,342.6c-4.2,4.1-6.5,9.7-6.5,15.6c0,5.8,2.3,11.4,6.5,15.5l103.6,102.6
	c4.3,4.2,9.8,6.3,15.4,6.3c5.6,0,11.3-2.2,15.5-6.5c8.5-8.6,8.4-22.4-0.2-30.9L138.2,380h283.4c5.8,0,11.4-2.4,15.5-6.5
	c4.1-4.1,6.4-9.8,6.4-15.6L442.4,64z"/>
</svg>
