<?xml version="1.0" encoding="utf-8"?>
<!-- Generator: Adobe Illustrator 18.1.1, SVG Export Plug-In . SVG Version: 6.00 Build 0)  -->
<!DOCTYPE svg PUBLIC "-//W3C//DTD SVG 1.1//EN" "http://www.w3.org/Graphics/SVG/1.1/DTD/svg11.dtd">
<svg version="1.1" id="Layer_1" xmlns="http://www.w3.org/2000/svg" xmlns:xlink="http://www.w3.org/1999/xlink" x="0px" y="0px"
	 viewBox="0 0 512 512" enable-background="new 0 0 512 512" xml:space="preserve">
<path d="M470.5,30.8c0-13.7-11.2-24.8-24.8-24.8c0,0-0.1,0-0.1,0c-13.7,0-24.8,11-24.7,24.7L422,339H125.6l76.6-75.6
	c9.7-9.7,9.8-25.2,0.2-35c-9.7-9.7-25.4-9.8-35.1-0.1L47.6,346.9c-4.7,4.7-7.4,11-7.4,17.7c0,6.6,2.7,13,7.4,17.7l117.6,116.4
	c4.8,4.8,11.2,7.2,17.5,7.2c6.4,0,12.8-2.5,17.6-7.4c9.7-9.7,9.6-25.6-0.2-35.2L125.3,389h321.6c6.6,0,12.9-2.5,17.6-7.2
	c4.7-4.7,7.3-11,7.2-17.6L470.5,30.8z"/>
</svg>
