<?xml version="1.0" encoding="utf-8"?>
<!-- Generator: Adobe Illustrator 18.1.1, SVG Export Plug-In . SVG Version: 6.00 Build 0)  -->
<!DOCTYPE svg PUBLIC "-//W3C//DTD SVG 1.1//EN" "http://www.w3.org/Graphics/SVG/1.1/DTD/svg11.dtd">
<svg version="1.1" id="Layer_1" xmlns="http://www.w3.org/2000/svg" xmlns:xlink="http://www.w3.org/1999/xlink" x="0px" y="0px"
	 viewBox="0 0 512 512" enable-background="new 0 0 512 512" xml:space="preserve">
<path d="M453.5,48.8c0-12.6-10.3-22.8-22.9-22.8c0,0-0.1,0-0.1,0c-12.6,0-22.8,9.9-22.8,22.5l1,283.5H136l70.5-69.4
	c9-8.9,9-23.1,0.2-32.1c-8.9-9-23.3-8.9-32.3,0L64.2,339.6c-4.3,4.3-6.8,10.2-6.8,16.3c0,6.1,2.4,12,6.8,16.3l108.2,107.1
	c4.5,4.4,10.3,6.6,16.1,6.6c5.9,0,11.8-2.3,16.2-6.8c8.9-9,8.8-23.8-0.2-32.6L135.7,378h296c6.1,0,11.9-2.1,16.2-6.4
	c4.3-4.3,6.7-10,6.7-16.1L453.5,48.8z"/>
</svg>
