<?xml version="1.0" encoding="utf-8"?>
<!-- Generator: Adobe Illustrator 18.1.1, SVG Export Plug-In . SVG Version: 6.00 Build 0)  -->
<!DOCTYPE svg PUBLIC "-//W3C//DTD SVG 1.1//EN" "http://www.w3.org/Graphics/SVG/1.1/DTD/svg11.dtd">
<svg version="1.1" xmlns="http://www.w3.org/2000/svg" xmlns:xlink="http://www.w3.org/1999/xlink" x="0px" y="0px"
	 viewBox="0 0 512 512" enable-background="new 0 0 512 512" xml:space="preserve">
<g id="Layer_1">
	<path d="M256,6C118.1,6,6,118.1,6,256c0,137.8,112.1,250,250,250c137.9,0,250-112.1,250-250C506,118.1,393.9,6,256,6z M258.1,372.7
		c-9.3,0-16.8-7.5-16.8-16.8c0-9.3,7.5-16.8,16.8-16.8c9.3,0,16.8,7.5,16.8,16.8C274.9,365.2,267.3,372.7,258.1,372.7z M272,295.2
		c0,6.5-5.3,11.8-11.8,11.8h-7.3c-6.5,0-11.8-5.3-11.8-11.8V153.8c0-6.5,5.3-11.8,11.8-11.8h7.3c6.5,0,11.8,5.3,11.8,11.8V295.2z"/>
</g>
<g id="Layer_2">
</g>
</svg>
