<?xml version="1.0" encoding="utf-8"?>
<!-- Generator: Adobe Illustrator 18.1.1, SVG Export Plug-In . SVG Version: 6.00 Build 0)  -->
<!DOCTYPE svg PUBLIC "-//W3C//DTD SVG 1.1//EN" "http://www.w3.org/Graphics/SVG/1.1/DTD/svg11.dtd">
<svg version="1.1" xmlns="http://www.w3.org/2000/svg" xmlns:xlink="http://www.w3.org/1999/xlink" x="0px" y="0px"
	 viewBox="0 0 512 512" enable-background="new 0 0 512 512" xml:space="preserve">
<g id="Layer_1">
	<path d="M256,26C129.2,26,26,129.2,26,256c0,126.8,103.2,230,230,230c126.8,0,230-103.2,230-230C486,129.2,382.8,26,256,26z
		 M257.9,363.4c-8.5,0-15.4-6.9-15.4-15.4c0-8.5,6.9-15.4,15.4-15.4c8.5,0,15.4,6.9,15.4,15.4C273.4,356.5,266.4,363.4,257.9,363.4z
		 M271,292.1c0,6-4.9,10.9-10.9,10.9h-7.2c-6,0-10.9-4.9-10.9-10.9V161.9c0-6,4.9-10.9,10.9-10.9h7.2c6,0,10.9,4.9,10.9,10.9V292.1z
		"/>
</g>
<g id="Layer_2">
</g>
</svg>
