<?xml version="1.0" encoding="utf-8"?>
<!-- Generator: Adobe Illustrator 18.1.1, SVG Export Plug-In . SVG Version: 6.00 Build 0)  -->
<!DOCTYPE svg PUBLIC "-//W3C//DTD SVG 1.1//EN" "http://www.w3.org/Graphics/SVG/1.1/DTD/svg11.dtd">
<svg version="1.1" xmlns="http://www.w3.org/2000/svg" xmlns:xlink="http://www.w3.org/1999/xlink" x="0px" y="0px"
	 viewBox="0 0 512 512" enable-background="new 0 0 512 512" xml:space="preserve">
<g id="Layer_1">
	<path d="M257.7,28.5c-124.1,0-225.2,101-225.2,225.2c0,124.1,101,225.2,225.2,225.2c124.2,0,225.2-101,225.2-225.2
		C482.9,129.5,381.9,28.5,257.7,28.5z M259.6,358.8c-8.4,0-15.1-6.8-15.1-15.1c0-8.3,6.8-15.1,15.1-15.1c8.3,0,15.1,6.8,15.1,15.1
		C274.7,352,268,358.8,259.6,358.8z M272,289.3c0,5.9-4.8,10.7-10.7,10.7h-6.7c-5.9,0-10.7-4.8-10.7-10.7V161.7
		c0-5.9,4.8-10.7,10.7-10.7h6.7c5.9,0,10.7,4.8,10.7,10.7V289.3z"/>
</g>
<g id="Layer_2">
</g>
</svg>
