<?xml version="1.0" encoding="utf-8"?>
<!-- Generator: Adobe Illustrator 16.0.0, SVG Export Plug-In . SVG Version: 6.00 Build 0)  -->
<!DOCTYPE svg PUBLIC "-//W3C//DTD SVG 1.1//EN" "http://www.w3.org/Graphics/SVG/1.1/DTD/svg11.dtd">
<svg version="1.1" id="Layer_1" xmlns="http://www.w3.org/2000/svg" xmlns:xlink="http://www.w3.org/1999/xlink" x="0px" y="0px"
	 width="300px" height="300px" viewBox="0 0 300 300" style="enable-background:new 0 0 300 300;" xml:space="preserve">
<path d="M154.531,254.785c-76.182,0-137.92-77.74-140.469-81.846l-3.115-5.238l3.115-5.383c0.99-1.414,8.92-14.584,22.23-31.01
	C39.268,127.627,5,85.006,5,85.006s46.303,29.027,49.277,26.055c5.098-5.383,10.619-10.621,16.568-15.719
	c2.689-2.406-15.719-40.355-15.719-40.355S85.713,83.73,88.971,81.465c4.812-3.115,9.629-6.088,14.584-8.779
	c2.408-1.273-5.381-27.471-5.381-27.471s19.258,21.1,22.656,19.967c10.336-3.684,21.098-5.664,32.145-5.664
	c4.812,0,9.629,0.281,14.301,1.133c3.539,0.566,17.559-12.604,17.559-12.604s2.266,17.701,6.656,19.541
	c6.371,2.691,12.461,5.805,18.266,9.346c3.539,2.123,27.895-14.303,27.895-14.303s-10.195,26.48-6.654,29.312
	c6.373,5.098,12.178,10.621,17.701,16c3.398,3.398,37.949-20.248,37.949-20.248s-20.816,38.939-17.559,43.047
	c13.734,16.709,21.805,30.162,22.797,31.576l3.115,5.383l-3.115,5.238C289.336,177.045,230.713,254.785,154.531,254.785z
	 M27.939,167.701c13.311,20.105,66.553,76.322,126.592,76.322c60.182,0,110.025-56.217,123.477-76.322
	c-13.451-20.109-64.994-81.848-125.033-81.848C92.793,85.854,41.25,147.451,27.939,167.701z M152.975,109.643
	c-20.816,0-38.658,12.18-48.287,29.879l24.072,19.117c3.824-10.338,13.168-17.701,24.215-17.701
	c14.301,0,25.912,12.178,25.912,27.33c0,15.008-11.611,27.328-25.912,27.328c-14.303,0-25.914-12.32-25.914-27.328
	c0-0.143,0.141-0.285,0.141-0.426l-29.168-5.947c-0.285,2.123-0.709,4.107-0.709,6.373c0,32.285,24.922,58.621,55.65,58.621
	c30.727,0,55.648-26.336,55.648-58.621C208.623,135.84,183.701,109.643,152.975,109.643z"/>
<g id="Restricted">
</g>
<g id="Help">
</g>
</svg>
