<?xml version="1.0" encoding="utf-8"?>
<svg version="1.1" id="Layer_1" xmlns="http://www.w3.org/2000/svg" xmlns:xlink="http://www.w3.org/1999/xlink" x="0px" y="0px"
	 viewBox="0 0 512 512" enable-background="new 0 0 512 512" xml:space="preserve">
<g>
	<g id="_x23_020201ff_1_">
		<path fill="#020201" d="M219.4,49.7c17.9-17.1,43.5-22.8,67.5-23.6c25.5-0.2,50.9-0.1,76.4-0.1c0.1,26.9,0.1,53.7,0,80.6
			c-16.5,0-32.9,0-49.4,0c-10.4-0.6-21.1,7.3-23,17.6c-0.3,18-0.1,35.9-0.1,53.9c24.1,0.1,48.3,0,72.4,0.1c-1.8,26-5,51.9-8.8,77.6
			c-21.3,0.2-42.6,0-63.9,0.1c-0.2,76.7,0.1,153.3-0.1,230c-31.7,0.1-63.3-0.1-95,0.1c-0.6-76.7,0-153.4-0.3-230.1
			c-15.4-0.2-30.9,0.1-46.3-0.1c0.1-25.8,0-51.5,0-77.3c15.4-0.2,30.9,0,46.3-0.1c0.5-25.1-0.5-50.1,0.5-75.2
			C197,83.4,204.6,63.4,219.4,49.7z"/>
	</g>
</g>
</svg>
