<?xml version="1.0" encoding="utf-8"?>
<!-- Generator: Adobe Illustrator 18.1.1, SVG Export Plug-In . SVG Version: 6.00 Build 0)  -->
<!DOCTYPE svg PUBLIC "-//W3C//DTD SVG 1.1//EN" "http://www.w3.org/Graphics/SVG/1.1/DTD/svg11.dtd">
<svg version="1.1" xmlns="http://www.w3.org/2000/svg" xmlns:xlink="http://www.w3.org/1999/xlink" x="0px" y="0px"
	 viewBox="0 0 512 512" enable-background="new 0 0 512 512" xml:space="preserve">
<g id="Layer_1">
	<path fill="none" stroke="#000000" stroke-width="3" stroke-linecap="round" stroke-miterlimit="10" d="M209,119.3"/>
	<g>
		<path d="M109.9,82c-12.4,0-22.4,10-22.4,22.4c0,12.4,10,22.4,22.4,22.4c162.4,0,294.5,132.1,294.5,294.5c0,12.4,10,22.4,22.4,22.4
			c12.4,0,22.4-10,22.4-22.4C449.2,234.2,297,82,109.9,82z"/>
		<path d="M107.5,209.8c-12.4,0-22.4,10-22.4,22.4s10,22.4,22.4,22.4c99.8,0,166.9,67.7,166.9,168.6c0,12.4,10,22.4,22.4,22.4
			c12.4,0,22.4-10,22.4-22.4C319.2,297.6,232.2,209.8,107.5,209.8z"/>
		<path d="M130.7,344.9c-30.3,0-54.9,24.6-54.9,54.9c0,30.3,24.6,54.9,54.9,54.9c21.4,0,39.9-12.2,49-30c3.8-7.5,5.9-15.9,5.9-24.9
			C185.6,369.4,161,344.9,130.7,344.9z"/>
	</g>
</g>
<g id="Layer_2">
</g>
</svg>
