<?xml version="1.0" encoding="utf-8"?>
<!-- Generator: Adobe Illustrator 18.1.1, SVG Export Plug-In . SVG Version: 6.00 Build 0)  -->
<!DOCTYPE svg PUBLIC "-//W3C//DTD SVG 1.1//EN" "http://www.w3.org/Graphics/SVG/1.1/DTD/svg11.dtd">
<svg version="1.1" xmlns="http://www.w3.org/2000/svg" xmlns:xlink="http://www.w3.org/1999/xlink" x="0px" y="0px"
	 viewBox="0 0 512 512" enable-background="new 0 0 512 512" xml:space="preserve">
<g id="Layer_1">
	<path fill="none" stroke="#000000" stroke-width="3" stroke-linecap="round" stroke-miterlimit="10" d="M209,119.3"/>
	<g>
		<path d="M51.7,6.5c-16.6,0-30,13.4-30,30c0,16.6,13.4,30,30,30C269.1,66.5,446,243.4,446,460.8c0,16.6,13.4,30,30,30
			c16.6,0,30-13.4,30-30C506,210.3,302.2,6.5,51.7,6.5z"/>
		<path d="M48.5,177.6c-16.6,0-30,13.4-30,30s13.4,30,30,30c133.6,0,223.4,90.7,223.4,225.7c0,16.6,13.4,30,30,30
			c16.6,0,30-13.4,30-30C331.9,295.1,215.4,177.6,48.5,177.6z"/>
		<path d="M79.5,358.4C38.9,358.4,6,391.4,6,432c0,40.6,32.9,73.5,73.5,73.5c28.6,0,53.4-16.4,65.6-40.2c5.1-10,7.9-21.3,7.9-33.3
			C153,391.4,120.1,358.4,79.5,358.4z"/>
	</g>
</g>
<g id="Layer_2">
</g>
</svg>
