<?xml version="1.0" encoding="utf-8"?>
<!-- Generator: Adobe Illustrator 16.0.0, SVG Export Plug-In . SVG Version: 6.00 Build 0)  -->
<!DOCTYPE svg PUBLIC "-//W3C//DTD SVG 1.1//EN" "http://www.w3.org/Graphics/SVG/1.1/DTD/svg11.dtd">
<svg version="1.1" id="Layer_1" xmlns="http://www.w3.org/2000/svg" xmlns:xlink="http://www.w3.org/1999/xlink" x="0px" y="0px"
	 width="300px" height="300px" viewBox="0 0 300 300" style="enable-background:new 0 0 300 300;" xml:space="preserve">
<path d="M37.841,28.623C19.77,28.623,5,43.236,5,61.306c0,18.071,14.77,32.841,32.841,32.841c18.07,0,32.684-14.771,32.684-32.841
	C70.524,43.236,55.911,28.623,37.841,28.623z M98.271,46.536v29.698H295V46.536H98.271z M37.841,124.159
	C19.77,124.159,5,138.93,5,157s14.77,32.841,32.841,32.841c18.07,0,32.684-14.771,32.684-32.841S55.911,124.159,37.841,124.159z
	 M98.271,171.927H295v-29.854H98.271V171.927z M37.841,219.853C19.77,219.853,5,234.466,5,252.694
	c0,18.07,14.77,32.683,32.841,32.683c18.07,0,32.684-14.613,32.684-32.683C70.524,234.466,55.911,219.853,37.841,219.853z
	 M98.271,267.464H295v-29.698H98.271V267.464z"/>
<g id="Restricted">
</g>
<g id="Help">
</g>
</svg>
