<?xml version="1.0" encoding="utf-8"?>
<!-- Generator: Adobe Illustrator 18.1.1, SVG Export Plug-In . SVG Version: 6.00 Build 0)  -->
<!DOCTYPE svg PUBLIC "-//W3C//DTD SVG 1.1//EN" "http://www.w3.org/Graphics/SVG/1.1/DTD/svg11.dtd">
<svg version="1.1" xmlns="http://www.w3.org/2000/svg" xmlns:xlink="http://www.w3.org/1999/xlink" x="0px" y="0px"
	 viewBox="0 0 512 512" enable-background="new 0 0 512 512" xml:space="preserve">
<g id="Layer_1">
	<path fill="none" stroke="#000000" stroke-width="3" stroke-linecap="round" stroke-miterlimit="10" d="M209,119.3"/>
	<g>
		<path d="M68,26.5c-15.2,0-27.6,12.4-27.6,27.6c0,15.3,12.4,27.6,27.6,27.6c200,0,362.7,162.7,362.7,362.7
			c0,15.3,12.4,27.6,27.6,27.6c15.2,0,27.6-12.4,27.6-27.6C486,214,298.5,26.5,68,26.5z"/>
		<path d="M65.1,183.9c-15.2,0-27.6,12.4-27.6,27.6s12.4,27.6,27.6,27.6c122.9,0,205.5,83.4,205.5,207.6c0,15.3,12.4,27.6,27.6,27.6
			c15.2,0,27.6-12.4,27.6-27.6C325.8,292,218.6,183.9,65.1,183.9z"/>
		<path d="M93.6,350.2c-37.4,0-67.6,30.3-67.6,67.6c0,37.4,30.3,67.6,67.6,67.6c26.3,0,49.1-15,60.3-37c4.7-9.2,7.3-19.6,7.3-30.6
			C161.3,380.5,131,350.2,93.6,350.2z"/>
	</g>
</g>
<g id="Layer_2">
</g>
</svg>
