<?xml version="1.0" encoding="utf-8"?>
<!-- Generator: Adobe Illustrator 16.0.0, SVG Export Plug-In . SVG Version: 6.00 Build 0)  -->
<!DOCTYPE svg PUBLIC "-//W3C//DTD SVG 1.1//EN" "http://www.w3.org/Graphics/SVG/1.1/DTD/svg11.dtd">
<svg version="1.1" id="Layer_1" xmlns="http://www.w3.org/2000/svg" xmlns:xlink="http://www.w3.org/1999/xlink" x="0px" y="0px"
	 width="300px" height="300px" viewBox="0 0 300 300" style="enable-background:new 0 0 300 300;" xml:space="preserve">
<path d="M241.486,177.152c0,16.032-10.296,23.386-22.797,20.739c-60.452-14.121-120.758,30.594-181.21,16.473
	c-12.649-2.794-22.653-21.327-22.653-37.212c0-38.685,0-77.368,0-116.051c0-15.885,10.004-23.534,22.653-20.739
	c60.452,14.121,120.758-30.594,181.21-16.621c12.501,2.941,22.797,21.475,22.797,37.36
	C241.486,99.785,241.486,138.468,241.486,177.152z M285.174,282.907c0,15.444-6.767,28.093-15.004,28.093l0,0
	c-8.386,0-15.004-12.649-15.004-28.093V58.895c0-15.591,6.618-28.093,15.004-28.093l0,0c8.237,0,15.004,12.502,15.004,28.093
	V282.907z"/>
<g id="Restricted">
</g>
<g id="Help">
</g>
</svg>
