<svg class="icon icon-flag" height="16" viewBox="0 0 14 16" version="1.1" aria-hidden="true">
    <path
      d="M13.25.65a.79.79,0,0,0-.73-.09A6.83,6.83,0,0,1,10.1,1,11.39,11.39,0,0,1,7.2.53,12.8,12.8,0,0,0,3.91,0a8.42,8.42,0,0,0-3,.56.8.8,0,0,0-.52.74V15.21a.8.8,0,0,0,1.6,0v-5A6.65,6.65,0,0,1,3.92,10a11.39,11.39,0,0,1,2.89.49A12.77,12.77,0,0,0,10.1,11h0a8.41,8.41,0,0,0,3-.57.8.8,0,0,0,.52-.75V1.3A.79.79,0,0,0,13.25.65Zm-9.33.93a11.38,11.38,0,0,1,2.89.48,12.74,12.74,0,0,0,3.28.53A7.9,7.9,0,0,0,12,2.37V5.94C8.1,7,5.94,4.38,2,5.43V1.86A6.49,6.49,0,0,1,3.91,1.58Z"/>
</svg>
