<?xml version="1.0" encoding="utf-8"?>
<!-- Generator: Adobe Illustrator 18.1.1, SVG Export Plug-In . SVG Version: 6.00 Build 0)  -->
<!DOCTYPE svg PUBLIC "-//W3C//DTD SVG 1.1//EN" "http://www.w3.org/Graphics/SVG/1.1/DTD/svg11.dtd">
<svg version="1.1" xmlns="http://www.w3.org/2000/svg" xmlns:xlink="http://www.w3.org/1999/xlink" x="0px" y="0px"
	 viewBox="0 0 512 512" enable-background="new 0 0 512 512" xml:space="preserve">
<g id="Layer_1">
	<path d="M435.1,44.7c-6.1-4.2-13.9-5.2-20.9-2.6c-23.8,8.9-46.6,13.2-69.6,13.2c-29.2,0-55.5-6.8-83.3-13.9
		C232,33.8,201.6,26,166.7,26C138.2,26,110,31.3,81,42.1c-8.9,3.3-15,11.8-15,21.2v3.9c0,1.1,0,2.1,0,3.2v392.9
		c0,12.5,10.5,22.7,23,22.7s23-10.1,23-22.7V320.5c19-5.6,36.6-8.3,54.8-8.3c29.2,0,55.4,7,83.2,14.2c29.3,7.5,59.6,15.6,94.5,15.6
		h0c28.5,0,56.6-5.5,85.6-16.3c8.9-3.3,14.9-12,14.9-21.5V63.3C445,55.9,441.2,48.9,435.1,44.7z M166.8,71.3
		c29.2,0,55.4,6.8,83.2,13.9c29.3,7.5,59.5,15.4,94.4,15.4c18.4,0,36.6-2.2,54.6-6.6v102.7c-112,30.3-174-44.9-287-14.5V79.6
		C130,74.1,148.6,71.3,166.8,71.3z"/>
</g>
<g id="Layer_2">
</g>
</svg>
