<?xml version="1.0" encoding="utf-8"?>
<!-- Generator: Adobe Illustrator 18.1.1, SVG Export Plug-In . SVG Version: 6.00 Build 0)  -->
<!DOCTYPE svg PUBLIC "-//W3C//DTD SVG 1.1//EN" "http://www.w3.org/Graphics/SVG/1.1/DTD/svg11.dtd">
<svg version="1.1" xmlns="http://www.w3.org/2000/svg" xmlns:xlink="http://www.w3.org/1999/xlink" x="0px" y="0px"
	 viewBox="0 0 512 512" enable-background="new 0 0 512 512" xml:space="preserve">
<g id="Layer_1">
	<path d="M451.4,52.4c-6-4.2-13.7-5.2-20.6-2.6c-23.5,8.8-46,13.1-68.8,13.1c-28.8,0-54.8-6.7-82.3-13.8c-29-7.5-59-15.2-93.5-15.2
		c-28.2,0-56,5.2-84.6,15.9C92.9,53.1,87,61.5,87,70.9v3.8c0,1,0,2.1,0,3.2v388.5c0,12.4,10.1,22.4,22.5,22.4s22.5-10,22.5-22.4
		V325.1c18.4-5.5,36.2-8.2,54.3-8.2c28.8,0,54.8,6.7,82.3,13.8c29,7.5,59,15.2,93.5,15.2h0c28.2,0,55.7-5.2,84.4-15.9
		c8.8-3.3,14.5-11.7,14.5-21V70.9C461,63.5,457.5,56.6,451.4,52.4z M186.3,78.8c28.8,0,54.8,6.7,82.3,13.8
		c29,7.5,58.8,15.2,93.3,15.2c18.2,0,36.1-2.2,54.1-6.6v101.5c-111,30-172-44.4-284-14.4V87C150,81.5,168.2,78.8,186.3,78.8z"/>
</g>
<g id="Layer_2">
</g>
</svg>
