<?xml version="1.0" encoding="utf-8"?>
<!-- Generator: Adobe Illustrator 18.1.1, SVG Export Plug-In . SVG Version: 6.00 Build 0)  -->
<!DOCTYPE svg PUBLIC "-//W3C//DTD SVG 1.1//EN" "http://www.w3.org/Graphics/SVG/1.1/DTD/svg11.dtd">
<svg version="1.1" xmlns="http://www.w3.org/2000/svg" xmlns:xlink="http://www.w3.org/1999/xlink" x="0px" y="0px"
	 viewBox="0 0 512 512" enable-background="new 0 0 512 512" xml:space="preserve">
<g id="Layer_1">
	<path d="M450.5,26.3c-6.6-4.6-15-5.7-22.6-2.8c-25.9,9.7-50.6,14.4-75.6,14.4c-31.7,0-60.2-7.4-90.5-15.1C229.9,14.5,196.9,6,159,6
		c-31,0-61.4,5.7-92.9,17.5C56.4,27.1,50,36.3,50,46.6v4.2c0,1.1,0,2.3,0,3.5v427.1C50,495,60.9,506,74.5,506S99,495,99,481.4V326.1
		c21-6,40-9,59.8-9c31.7,0,60.4,7.4,90.6,15.2c31.9,8.2,64.9,16.7,102.9,16.7h0c31,0,61.3-5.8,92.8-17.5
		c9.6-3.6,15.9-12.8,15.9-23.1V46.6C461,38.5,457.1,30.9,450.5,26.3z M158.8,55.3c31.7,0,60.4,7.4,90.6,15.1
		c31.9,8.2,65,16.7,102.9,16.7c20,0,39.7-2.4,59.7-7.2v111.6c-122,33-190-48.8-313-15.8V64.3C119,58.2,139,55.3,158.8,55.3z"/>
</g>
<g id="Layer_2">
</g>
</svg>
