<?xml version="1.0" encoding="utf-8"?>
<!-- Generator: Adobe Illustrator 18.1.1, SVG Export Plug-In . SVG Version: 6.00 Build 0)  -->
<!DOCTYPE svg PUBLIC "-//W3C//DTD SVG 1.1//EN" "http://www.w3.org/Graphics/SVG/1.1/DTD/svg11.dtd">
<svg version="1.1" xmlns="http://www.w3.org/2000/svg" xmlns:xlink="http://www.w3.org/1999/xlink" x="0px" y="0px"
	 viewBox="0 0 512 512" enable-background="new 0 0 512 512" xml:space="preserve">
<g id="Layer_1">
	<path d="M256,6C118.1,6,6,118.1,6,256s112.1,250,250,250s250-112.1,250-250S393.9,6,256,6z M55.9,256c0-46.2,15.9-88.6,42.2-122.5
		l280.3,280.3c-33.9,26.4-76.3,42.2-122.5,42.2C145.7,456.1,55.9,366.3,55.9,256z M413.8,378.5L133.5,98.2
		c33.9-26.4,76.3-42.2,122.5-42.2c110.3,0,200.1,89.7,200.1,200.1C456.1,302.2,440.2,344.6,413.8,378.5z"/>
</g>
<g id="Layer_2">
</g>
</svg>
