<?xml version="1.0" encoding="utf-8"?>
<!-- Generator: Adobe Illustrator 18.1.1, SVG Export Plug-In . SVG Version: 6.00 Build 0)  -->
<!DOCTYPE svg PUBLIC "-//W3C//DTD SVG 1.1//EN" "http://www.w3.org/Graphics/SVG/1.1/DTD/svg11.dtd">
<svg version="1.1" xmlns="http://www.w3.org/2000/svg" xmlns:xlink="http://www.w3.org/1999/xlink" x="0px" y="0px"
	 viewBox="0 0 512 512" enable-background="new 0 0 512 512" xml:space="preserve">
<g id="Layer_1">
	<path d="M251,41.6C127.3,41.6,26.6,142.3,26.6,266S127.3,490.4,251,490.4S475.4,389.7,475.4,266S374.8,41.6,251,41.6z M71.5,266
		c0-41.4,14.2-79.5,37.9-110L361,407.6c-30.4,23.7-68.5,37.9-110,37.9C152,445.5,71.5,365,71.5,266z M392.7,375.9L141.1,124.3
		c30.4-23.7,68.5-37.9,110-37.9c99,0,179.6,80.6,179.6,179.6C430.6,307.4,416.4,345.5,392.7,375.9z"/>
</g>
<g id="Layer_2">
</g>
</svg>
