<?xml version="1.0" encoding="utf-8"?>
<!-- Generator: Adobe Illustrator 18.1.1, SVG Export Plug-In . SVG Version: 6.00 Build 0)  -->
<!DOCTYPE svg PUBLIC "-//W3C//DTD SVG 1.1//EN" "http://www.w3.org/Graphics/SVG/1.1/DTD/svg11.dtd">
<svg version="1.1" xmlns="http://www.w3.org/2000/svg" xmlns:xlink="http://www.w3.org/1999/xlink" x="0px" y="0px"
	 viewBox="0 0 512 512" enable-background="new 0 0 512 512" xml:space="preserve">
<g id="Layer_1">
	<path d="M256,26C129.2,26,26,129.2,26,256s103.2,230,230,230s230-103.2,230-230S382.8,26,256,26z M71.9,256
		c0-42.5,14.6-81.5,38.9-112.7l257.9,257.9c-31.2,24.3-70.2,38.9-112.7,38.9C154.5,440.1,71.9,357.5,71.9,256z M401.2,368.7
		L143.3,110.8c31.2-24.3,70.2-38.9,112.7-38.9c101.5,0,184.1,82.6,184.1,184.1C440.1,298.5,425.4,337.5,401.2,368.7z"/>
</g>
<g id="Layer_2">
</g>
</svg>
