<?xml version="1.0" encoding="utf-8"?>
<!-- Generator: Adobe Illustrator 16.0.0, SVG Export Plug-In . SVG Version: 6.00 Build 0)  -->
<!DOCTYPE svg PUBLIC "-//W3C//DTD SVG 1.1//EN" "http://www.w3.org/Graphics/SVG/1.1/DTD/svg11.dtd">
<svg version="1.1" id="Layer_1" xmlns="http://www.w3.org/2000/svg" xmlns:xlink="http://www.w3.org/1999/xlink" x="0px" y="0px"
	 width="300px" height="300px" viewBox="0 0 300 300" style="enable-background:new 0 0 300 300;" xml:space="preserve">
<g id="Restricted">
</g>
<g id="Help">
</g>
<path d="M228.36,210.583l-4.312-29.284c18.515-15.857,30.868-49.681,30.868-73.883c0-37.048-28.942-67.26-64.641-67.26
	c-35.701,0-64.643,29.942-64.643,66.99c0,24.202,12.352,57.62,30.866,73.478l-4.307,28.46c-21.717,2.764-40.944,9.274-56,17.228
	c-1.037-0.158-2.078-0.308-3.131-0.442l-2.888-19.112c12.409-10.629,20.685-33.042,20.685-49.261
	c0-24.83-19.396-44.949-43.323-44.949c-23.925,0-43.321,20.132-43.321,44.961c0,16.22,8.279,38.648,20.687,49.277l-2.886,20.596
	C8.264,231.679,6.647,250,5,263h57.346h90.926H295C292.539,244,278.71,216.993,228.36,210.583z"/>
</svg>
