<?xml version="1.0" encoding="utf-8"?>
<!-- Generator: Adobe Illustrator 16.0.0, SVG Export Plug-In . SVG Version: 6.00 Build 0)  -->
<!DOCTYPE svg PUBLIC "-//W3C//DTD SVG 1.1//EN" "http://www.w3.org/Graphics/SVG/1.1/DTD/svg11.dtd">
<svg version="1.1" id="Layer_1" xmlns="http://www.w3.org/2000/svg" xmlns:xlink="http://www.w3.org/1999/xlink" x="0px" y="0px"
	 width="300px" height="300px" viewBox="0 0 300 300" style="enable-background:new 0 0 300 300;" xml:space="preserve">
<g id="Restricted">
</g>
<g id="Help">
</g>
<path style="fill-rule:evenodd;clip-rule:evenodd;" d="M288.942,157.981L260.016,65.14c-2.633-8.452-11.62-13.169-20.071-10.536
	L20.593,122.947c-8.452,2.633-13.168,11.62-10.535,20.071l28.927,92.842c2.633,8.452,11.62,13.169,20.072,10.536l219.351-68.343
	C286.859,175.419,291.576,166.433,288.942,157.981z M120.567,173.505l-18.616,5.8l5.8,18.616c0.483,1.551,0.068,3.061-1.483,3.544
	l-20.601,6.418c-1.552,0.483-2.938-0.464-3.422-2.016l-5.8-18.616l-18.616,5.8c-1.551,0.484-3.061,0.068-3.544-1.483l-6.418-20.601
	c-0.484-1.551,0.464-2.938,2.016-3.421l18.616-5.8l-5.8-18.616c-0.483-1.552,0.12-3.119,1.672-3.603l20.601-6.418
	c1.551-0.483,2.75,0.522,3.234,2.074l5.8,18.616l18.616-5.8c1.551-0.484,3.119,0.12,3.602,1.671l6.419,20.601
	C123.125,171.823,122.119,173.022,120.567,173.505z M211.066,167.881c-9.391,2.926-19.376-2.314-22.302-11.706
	c-2.926-9.391,2.315-19.376,11.706-22.302c9.391-2.926,19.376,2.314,22.302,11.706C225.698,154.971,220.457,164.956,211.066,167.881
	z M232.204,124.359c-9.391,2.926-19.376-2.315-22.302-11.707c-2.926-9.392,2.315-19.376,11.707-22.302
	c9.391-2.926,19.376,2.314,22.302,11.706C246.835,111.449,241.595,121.434,232.204,124.359z"/>
</svg>
