<?xml version="1.0" encoding="utf-8"?>
<!-- Generator: Adobe Illustrator 16.0.0, SVG Export Plug-In . SVG Version: 6.00 Build 0)  -->
<!DOCTYPE svg PUBLIC "-//W3C//DTD SVG 1.1//EN" "http://www.w3.org/Graphics/SVG/1.1/DTD/svg11.dtd">
<svg version="1.1" id="Layer_1" xmlns="http://www.w3.org/2000/svg" xmlns:xlink="http://www.w3.org/1999/xlink" x="0px" y="0px"
	 width="300px" height="300px" viewBox="0 0 300 300" style="enable-background:new 0 0 300 300;" xml:space="preserve">
<g id="Restricted">
</g>
<g id="Help">
</g>
<path style="fill-rule:evenodd;clip-rule:evenodd;" d="M279.989,157.501L252.92,70.62c-2.464-7.909-10.874-12.323-18.783-9.859
	L28.87,124.716c-7.909,2.464-12.323,10.874-9.859,18.783L46.08,230.38c2.464,7.909,10.874,12.323,18.783,9.859l205.267-63.955
	C278.04,173.819,282.454,165.41,279.989,157.501z M122.425,172.028l-17.421,5.428l5.428,17.421c0.452,1.452,0.063,2.864-1.388,3.316
	L89.766,204.2c-1.452,0.453-2.75-0.435-3.203-1.886l-5.428-17.421l-17.42,5.428c-1.452,0.453-2.864,0.063-3.316-1.388l-6.006-19.278
	c-0.453-1.452,0.435-2.75,1.886-3.202l17.42-5.428l-5.428-17.42c-0.452-1.452,0.112-2.919,1.564-3.372l19.278-6.006
	c1.452-0.452,2.574,0.489,3.026,1.941l5.428,17.421l17.421-5.428c1.452-0.453,2.918,0.112,3.371,1.563l6.007,19.278
	C124.818,170.454,123.877,171.576,122.425,172.028z M207.113,166.765c-8.788,2.738-18.132-2.166-20.87-10.955
	c-2.738-8.788,2.166-18.132,10.955-20.87c8.788-2.738,18.132,2.166,20.87,10.955C220.806,154.684,215.901,164.027,207.113,166.765z
	 M226.894,126.038c-8.788,2.738-18.132-2.166-20.87-10.955s2.166-18.132,10.955-20.87c8.788-2.738,18.132,2.166,20.87,10.955
	C240.586,113.956,235.682,123.3,226.894,126.038z"/>
</svg>
