<?xml version="1.0" encoding="utf-8"?>
<!-- Generator: Adobe Illustrator 16.0.0, SVG Export Plug-In . SVG Version: 6.00 Build 0)  -->
<!DOCTYPE svg PUBLIC "-//W3C//DTD SVG 1.1//EN" "http://www.w3.org/Graphics/SVG/1.1/DTD/svg11.dtd">
<svg version="1.1" id="Layer_1" xmlns="http://www.w3.org/2000/svg" xmlns:xlink="http://www.w3.org/1999/xlink" x="0px" y="0px"
	 width="300px" height="300px" viewBox="0 0 300 300" style="enable-background:new 0 0 300 300;" xml:space="preserve">
<g id="Restricted">
</g>
<g id="Help">
</g>
<path style="fill-rule:evenodd;clip-rule:evenodd;" d="M294.245,158.239L264.322,62.2c-2.724-8.743-12.02-13.623-20.763-10.899
	L16.653,121.998c-8.743,2.724-13.622,12.02-10.898,20.763l29.923,96.04c2.724,8.743,12.021,13.623,20.763,10.899l226.906-70.697
	C292.09,176.278,296.969,166.982,294.245,158.239z M120.071,174.298l-19.257,6l6,19.257c0.5,1.604,0.07,3.166-1.534,3.666
	l-21.311,6.64c-1.605,0.499-3.04-0.481-3.54-2.085l-6-19.259l-19.257,6.001c-1.605,0.5-3.167,0.069-3.666-1.536l-6.64-21.31
	c-0.5-1.605,0.48-3.04,2.085-3.539l19.257-6l-6-19.256c-0.5-1.605,0.125-3.227,1.729-3.728l21.31-6.639
	c1.605-0.499,2.845,0.541,3.345,2.146l6,19.257l19.257-6c1.604-0.501,3.226,0.123,3.726,1.727l6.64,21.312
	C122.717,172.557,121.676,173.798,120.071,174.298z M213.687,168.479c-9.715,3.026-20.043-2.394-23.07-12.109
	c-3.027-9.715,2.395-20.043,12.109-23.07c9.715-3.026,20.043,2.394,23.07,12.109C228.823,155.125,223.401,165.453,213.687,168.479z
	 M235.552,123.459c-9.715,3.026-20.043-2.394-23.07-12.11c-3.027-9.714,2.395-20.043,12.109-23.069
	c9.715-3.027,20.043,2.395,23.07,12.108C250.688,110.104,245.267,120.433,235.552,123.459z"/>
</svg>
