<?xml version="1.0" encoding="utf-8"?>
<!-- Generator: Adobe Illustrator 16.0.0, SVG Export Plug-In . SVG Version: 6.00 Build 0)  -->
<!DOCTYPE svg PUBLIC "-//W3C//DTD SVG 1.1//EN" "http://www.w3.org/Graphics/SVG/1.1/DTD/svg11.dtd">
<svg version="1.1" id="Layer_1" xmlns="http://www.w3.org/2000/svg" xmlns:xlink="http://www.w3.org/1999/xlink" x="0px" y="0px"
	 width="300px" height="300px" viewBox="0 0 300 300" style="enable-background:new 0 0 300 300;" xml:space="preserve">
<path d="M265.055,150c0-3.783-0.316-7.723-0.63-11.348l27.423-18.755c-2.048-10.086-5.201-19.701-9.298-28.842L249.293,92
	c-3.94-6.619-8.354-12.767-13.397-18.439l11.033-31.365c-7.408-6.777-15.604-12.609-24.43-17.81l-26.32,20.332
	c-6.777-2.994-14.027-5.359-21.75-6.935L165.13,5.788C160.245,5.315,155.043,5,150,5s-10.087,0.315-15.13,0.788l-9.299,31.995
	c-7.564,1.575-14.814,3.94-21.75,6.935L77.5,24.386c-8.826,5.201-17.021,11.033-24.43,17.81l11.19,31.365
	c-5.2,5.673-9.456,11.82-13.554,18.439l-33.098-0.945c-4.097,9.141-7.408,18.755-9.456,28.842l27.423,18.755
	c-0.314,3.625-0.472,7.565-0.472,11.348s0.158,7.723,0.472,11.348L8.153,180.104c2.048,9.929,5.358,19.543,9.456,28.842
	l33.098-1.103c4.098,6.776,8.354,12.766,13.554,18.44l-11.19,31.522c7.408,6.777,15.604,12.608,24.43,17.809l26.32-20.489
	c6.936,3.152,14.186,5.517,21.75,7.093l9.299,31.837c5.043,0.63,10.087,0.945,15.13,0.945s10.245-0.315,15.13-0.945l9.299-31.837
	c7.723-1.576,14.973-3.941,21.75-7.093l26.32,20.489c8.826-5.201,17.021-11.032,24.43-17.809l-11.033-31.522
	c5.043-5.674,9.457-11.664,13.397-18.44l33.256,1.103c4.097-9.299,7.25-18.913,9.298-28.842l-27.423-18.755
	C264.739,157.723,265.055,153.783,265.055,150z M150,209.419c-32.783,0-59.419-26.636-59.419-59.419S117.217,90.581,150,90.581
	s59.419,26.636,59.419,59.419S182.783,209.419,150,209.419z"/>
<g id="Restricted">
</g>
<g id="Help">
</g>
</svg>
