<?xml version="1.0" encoding="utf-8"?>
<!-- Generator: Adobe Illustrator 18.1.1, SVG Export Plug-In . SVG Version: 6.00 Build 0)  -->
<!DOCTYPE svg PUBLIC "-//W3C//DTD SVG 1.1//EN" "http://www.w3.org/Graphics/SVG/1.1/DTD/svg11.dtd">
<svg version="1.1" xmlns="http://www.w3.org/2000/svg" xmlns:xlink="http://www.w3.org/1999/xlink" x="0px" y="0px"
	 viewBox="0 0 512 512" enable-background="new 0 0 512 512" xml:space="preserve">
<g id="Layer_1">
	<g>
		<path d="M319.9,74.8l-13.5,42.8c67.7,21.4,113.2,83.5,113.2,154.6c0,89.4-72.7,162.1-162.1,162.1c-89.4,0-162.1-72.7-162.1-162.1
			c0-70.7,45.2-132.8,112.5-154.3l-13.7-42.7c-85.9,27.6-143.6,106.7-143.6,197c0,114.1,92.8,206.9,206.9,206.9
			s206.9-92.8,206.9-206.9C464.4,181.4,406.3,102.1,319.9,74.8z"/>
		<path d="M173.5,230.6c-8.8,8.7-8.9,22.9-0.2,31.7l67.5,68.2c4.2,4.2,9.9,6.6,15.9,6.6c6,0,11.7-2.4,15.9-6.6l67.5-68.2
			c8.7-8.8,8.6-23-0.2-31.7c-8.8-8.7-22.8-8.6-31.5,0.2L280,259.7V45.9c0-12.4-10.1-22.4-22.5-22.4c-12.4,0-22.5,10-22.5,22.4v214.9
			l-29.7-30C196.5,222,182.3,221.9,173.5,230.6z"/>
	</g>
</g>
<g id="Layer_2">
</g>
</svg>
