<?xml version="1.0" encoding="utf-8"?>
<!-- Generator: Adobe Illustrator 18.1.1, SVG Export Plug-In . SVG Version: 6.00 Build 0)  -->
<!DOCTYPE svg PUBLIC "-//W3C//DTD SVG 1.1//EN" "http://www.w3.org/Graphics/SVG/1.1/DTD/svg11.dtd">
<svg version="1.1" xmlns="http://www.w3.org/2000/svg" xmlns:xlink="http://www.w3.org/1999/xlink" x="0px" y="0px"
	 viewBox="0 0 512 512" enable-background="new 0 0 512 512" xml:space="preserve">
<g id="Layer_1">
	<g>
		<path d="M321.8,70.1l-14.2,45.1c71.3,22.5,119.2,88,119.2,162.8c0,94.2-76.6,170.8-170.8,170.8c-94.2,0-170.8-76.6-170.8-170.8
			c0-74.5,47.6-139.9,118.5-162.6l-14.4-45C98.8,99.4,38,182.9,38,278c0,120.2,97.8,218,218,218s218-97.8,218-218
			C474,182.4,412.8,98.9,321.8,70.1z"/>
		<path d="M167.5,234.3c-9.3,9.2-9.4,24.1-0.2,33.4l71.1,71.8c4.4,4.5,10.5,7,16.8,7c6.3,0,12.3-2.5,16.8-7l71.1-71.8
			c9.2-9.3,9.1-24.2-0.2-33.4c-9.3-9.2-23.4-9.1-32.6,0.2L281,264.9V39.6c0-13-11.5-23.6-24.5-23.6c-13,0-24.5,10.6-24.5,23.6V266
			l-31.2-31.6C191.6,225.2,176.8,225.1,167.5,234.3z"/>
	</g>
</g>
<g id="Layer_2">
</g>
</svg>
