<?xml version="1.0" encoding="utf-8"?>
<!-- Generator: Adobe Illustrator 18.1.1, SVG Export Plug-In . SVG Version: 6.00 Build 0)  -->
<!DOCTYPE svg PUBLIC "-//W3C//DTD SVG 1.1//EN" "http://www.w3.org/Graphics/SVG/1.1/DTD/svg11.dtd">
<svg version="1.1" xmlns="http://www.w3.org/2000/svg" xmlns:xlink="http://www.w3.org/1999/xlink" x="0px" y="0px"
	 viewBox="0 0 512 512" enable-background="new 0 0 512 512" xml:space="preserve">
<g id="Layer_1">
	<g>
		<path d="M175,160.7c0-0.4-0.3-0.7-0.7-0.7H26.7c-0.4,0-0.7,0.3-0.7,0.7v115.5c0,0.4,0.3,0.7,0.7,0.7h147.5c0.4,0,0.7-0.3,0.7-0.7
			V160.7z"/>
		<path d="M174,306.7c0-0.4-0.3-0.7-0.7-0.7H59.7c-0.4,0-0.7,0.3-0.7,0.7v179.7c0,0.4,0.3,0.7,0.7,0.7h113.7c0.4,0,0.7-0.3,0.7-0.7
			V306.7z"/>
		<path d="M485.2,160h-89.8c1.8-2,3.5-3.6,5.1-5.3c25.8-25.8,36.4-68.2,26.4-105c-2.3-8.4-8.8-15.1-17.3-17.4
			c-9.2-2.5-18.9-3.9-28.7-3.9c-29.2,0-56.9,11-76.1,30.1c-3.5,3.5-6.7,7.3-9.6,11.3c-2.9-4-6.1-7.8-9.6-11.3
			c-19.2-19.2-46.9-30.1-76.1-30.1c-9.9,0-19.5,1.3-28.7,3.8c-8.4,2.3-15,8.9-17.3,17.3c-10,36.9,1.1,79,26.9,104.8
			c5.1,5.1,11.6,9.7,17.6,13.6v105.4c0,0.4-0.6-1.1-0.2-1.1h277.5c0.4,0,0.8,1.5,0.8,1.1V159.6C486,159.2,485.7,160,485.2,160z
			 M339.7,93.3c10-10,25.7-15.2,41.8-15.7c0.1,15.8-5.5,31.6-15.7,41.8c-10,10-25.6,15.9-41.8,15.7
			C323.8,119.3,329.5,103.5,339.7,93.3z M250.8,93.3c10.2,10.2,15.9,26,15.7,41.8c-16.1,0.2-31.9-5.8-41.8-15.7
			c-10.2-10.2-15.9-26-15.7-41.8C224.5,77.6,240.8,83.3,250.8,93.3z"/>
		<path d="M452,307.7c0-0.4-0.3-0.7-0.7-0.7H209.7c-0.4,0-0.7,0.3-0.7,0.7v179.7c0,0.4,0.3,0.7,0.7,0.7h241.7c0.4,0,0.7-0.3,0.7-0.7
			V307.7z"/>
	</g>
</g>
<g id="Layer_2">
</g>
</svg>
