<svg class="icon icon-gift" height="16" viewBox="0 0 16 16" version="1.1" aria-hidden="true">
    <rect y="4.59" width="5.18" height="4.07" rx="0.03" ry="0.03"/>
    <rect x="1.15" y="9.66" width="4" height="6.3" rx="0.02" ry="0.02"/>
    <path
      d="M16,4.59H12.85L13,4.4A3.88,3.88,0,0,0,13.94.75a.86.86,0,0,0-.6-.61,3.79,3.79,0,0,0-1-.13,3.75,3.75,0,0,0-2.65,1,3.25,3.25,0,0,0-.33.39A3.26,3.26,0,0,0,9,1.05,3.75,3.75,0,0,0,6.38,0a3.79,3.79,0,0,0-1,.13.86.86,0,0,0-.6.6,3.87,3.87,0,0,0,.93,3.64,3.82,3.82,0,0,0,.61.47V8.52s0,0,0,0H16s0,.05,0,0V4.57S16,4.59,16,4.59ZM10.91,2.27a2.18,2.18,0,0,1,1.45-.55,2.06,2.06,0,0,1-.55,1.45,2,2,0,0,1-1.45.55A2.06,2.06,0,0,1,10.91,2.27Zm-3.09,0a2.06,2.06,0,0,1,.55,1.45,2.06,2.06,0,0,1-1.45-.55,2.06,2.06,0,0,1-.55-1.45A2.12,2.12,0,0,1,7.82,2.27Z"/>
    <rect x="6.37" y="9.7" width="8.45" height="6.3" rx="0.02" ry="0.02"/>
</svg>
