<?xml version="1.0" encoding="utf-8"?>
<!-- Generator: Adobe Illustrator 16.0.0, SVG Export Plug-In . SVG Version: 6.00 Build 0)  -->
<!DOCTYPE svg PUBLIC "-//W3C//DTD SVG 1.1//EN" "http://www.w3.org/Graphics/SVG/1.1/DTD/svg11.dtd">
<svg version="1.1" id="Layer_1" xmlns="http://www.w3.org/2000/svg" xmlns:xlink="http://www.w3.org/1999/xlink" x="0px" y="0px"
	 width="300px" height="300px" viewBox="0 0 300 300" style="enable-background:new 0 0 300 300;" xml:space="preserve">
<g>
	<g>
		<rect x="50" y="87" width="90" height="72"/>
		<rect x="160" y="87" width="90" height="72"/>
		<rect x="50" y="179" width="90" height="73"/>
		<rect x="160" y="179" width="90" height="73"/>
	</g>
	<g>
		<path d="M126.364,79.592c-8.872,0-17.993-4.079-25.024-11.192c-5.939-6.008-9.731-13.523-10.677-21.162
			c-1.01-8.161,1.421-15.818,6.67-21.007c4.372-4.321,10.443-6.701,17.097-6.701c8.872,0,17.993,4.08,25.024,11.193
			c12.716,12.864,14.513,31.781,4.005,42.169C139.088,77.213,133.018,79.592,126.364,79.592z M114.43,32.798
			c-2.22,0-5.371,0.498-7.769,2.869c-3.148,3.112-3.125,7.564-2.831,9.941c0.58,4.678,3.111,9.585,6.945,13.464
			c4.489,4.542,10.317,7.252,15.589,7.252c2.22,0,5.37-0.497,7.768-2.867c5.215-5.156,3.332-15.875-4.114-23.406
			C125.529,35.51,119.702,32.798,114.43,32.798z"/>
	</g>
	<g>
		<path d="M180.134,79.72c-11.237,0-19.415-4-23.029-11.264c-6.802-13.679,5.915-32.87,29.581-44.641
			c10.267-5.106,21.069-7.918,30.417-7.918c11.238,0,19.417,4,23.029,11.264c6.803,13.678-5.914,32.869-29.581,44.64
			C200.285,76.907,189.482,79.72,180.134,79.72z M217.103,29.165c-7.338,0-16.042,2.318-24.509,6.53
			c-18.089,8.998-26.066,21.914-23.61,26.853c1.198,2.408,5.471,3.904,11.149,3.904c7.339,0,16.043-2.319,24.509-6.531
			c18.09-8.997,26.066-21.913,23.609-26.852C227.055,30.661,222.782,29.165,217.103,29.165z"/>
	</g>
</g>
<g id="Restricted">
</g>
<g id="Help">
</g>
</svg>
