<?xml version="1.0" encoding="utf-8"?>
<!-- Generator: Adobe Illustrator 16.0.0, SVG Export Plug-In . SVG Version: 6.00 Build 0)  -->
<!DOCTYPE svg PUBLIC "-//W3C//DTD SVG 1.1//EN" "http://www.w3.org/Graphics/SVG/1.1/DTD/svg11.dtd">
<svg version="1.1" id="Layer_1" xmlns="http://www.w3.org/2000/svg" xmlns:xlink="http://www.w3.org/1999/xlink" x="0px" y="0px"
	 width="300px" height="300px" viewBox="0 0 300 300" style="enable-background:new 0 0 300 300;" xml:space="preserve">
<g>
	<g>
		<rect x="29" y="71" width="109" height="86"/>
		<rect x="162" y="71" width="109" height="86"/>
		<rect x="29" y="182" width="109" height="88"/>
		<rect x="162" y="182" width="109" height="88"/>
	</g>
	<g>
		<path d="M121.513,62.035c-10.693,0-21.687-3.966-30.161-10.883c-7.158-5.842-11.728-13.15-12.868-20.579
			c-1.218-7.937,1.712-15.382,8.039-20.429c5.27-4.201,12.587-6.516,20.606-6.516c10.692,0,21.686,3.967,30.161,10.885
			c15.327,12.509,17.491,30.905,4.828,41.006C136.849,59.722,129.532,62.035,121.513,62.035z M107.129,16.531
			c-2.677,0-6.473,0.485-9.364,2.79c-3.794,3.026-3.766,7.355-3.411,9.667c0.699,4.549,3.749,9.321,8.37,13.093
			c5.41,4.417,12.435,7.052,18.789,7.052c2.676,0,6.472-0.484,9.362-2.788c6.286-5.014,4.016-15.437-4.958-22.762
			C120.507,19.168,113.483,16.531,107.129,16.531z"/>
	</g>
	<g>
		<path d="M186.319,62.159c-13.543,0-23.4-3.89-27.755-10.954c-8.199-13.302,7.129-31.964,35.652-43.41
			c12.374-4.965,25.394-7.7,36.661-7.7c13.544,0,23.402,3.89,27.756,10.953c8.199,13.302-7.128,31.964-35.652,43.41
			C210.607,59.424,197.586,62.159,186.319,62.159z M230.876,12.998c-8.845,0-19.335,2.254-29.54,6.35
			c-21.802,8.75-31.416,21.31-28.456,26.112c1.443,2.341,6.593,3.796,13.438,3.796c8.845,0,19.336-2.255,29.54-6.351
			c21.803-8.749,31.417-21.309,28.456-26.111C242.871,14.453,237.721,12.998,230.876,12.998z"/>
	</g>
</g>
<g id="Restricted">
</g>
<g id="Help">
</g>
</svg>
