<?xml version="1.0" encoding="utf-8"?>
<!-- Generator: Adobe Illustrator 18.1.1, SVG Export Plug-In . SVG Version: 6.00 Build 0)  -->
<!DOCTYPE svg PUBLIC "-//W3C//DTD SVG 1.1//EN" "http://www.w3.org/Graphics/SVG/1.1/DTD/svg11.dtd">
<svg version="1.1" xmlns="http://www.w3.org/2000/svg" xmlns:xlink="http://www.w3.org/1999/xlink" x="0px" y="0px"
	 viewBox="0 0 512 512" enable-background="new 0 0 512 512" xml:space="preserve">
<g id="Layer_1">
	<g>
		<path d="M173,156.8c0-0.4-0.3-0.8-0.8-0.8H24.8c-0.4,0-0.8,0.3-0.8,0.8v115.5c0,0.4,0.3,0.8,0.8,0.8h147.5c0.4,0,0.8-0.3,0.8-0.8
			V156.8z"/>
		<path d="M172,306.7c0-0.4-0.3-0.7-0.7-0.7H57.7c-0.4,0-0.7,0.3-0.7,0.7v179.7c0,0.4,0.3,0.7,0.7,0.7h113.7c0.4,0,0.7-0.3,0.7-0.7
			V306.7z"/>
		<path d="M487.2,156h-90.6c1.8-2,3.5-3.1,5.1-4.7c26-26,36.7-68.5,26.6-105.7c-2.3-8.5-8.9-15.1-17.4-17.4c-9.3-2.5-19-3.8-29-3.8
			c-29.4,0-57.4,11.1-76.7,30.4c-3.5,3.5-6.7,7.3-9.7,11.4c-2.9-4.1-6.2-7.9-9.7-11.4c-19.3-19.3-47.3-30.4-76.7-30.4
			c-9.9,0-19.7,1.3-29,3.8c-8.5,2.3-15.1,9-17.4,17.4c-10.1,37.2,0.3,79.6,26.3,105.7c5.2,5.2,11,9.8,17,13.7v106.3
			c0,0.4,0.9,0.7,1.4,0.7h279.9c0.4,0,0.8-0.3,0.8-0.7V156.8C488,156.4,487.6,156,487.2,156z M340.4,89.9
			c10.1-10,25.9-15.3,42.2-15.9c0.1,15.9-5.6,31.9-15.9,42.1c-10,10-25.9,16.1-42.2,15.9C324.4,116.1,330.1,100.1,340.4,89.9z
			 M250.8,89.9c10.3,10.3,16,26.2,15.9,42.1c-16.2,0.2-32.1-5.8-42.2-15.9c-10.3-10.3-16-26.2-15.9-42.1
			C224.2,74,240.7,79.8,250.8,89.9z"/>
		<path d="M454,307.7c0-0.4-0.3-0.7-0.7-0.7H207.7c-0.4,0-0.7,0.3-0.7,0.7v179.7c0,0.4,0.3,0.7,0.7,0.7h245.7c0.4,0,0.7-0.3,0.7-0.7
			V307.7z"/>
	</g>
</g>
<g id="Layer_2">
</g>
</svg>
