<?xml version="1.0" encoding="utf-8"?>
<!-- Generator: Adobe Illustrator 18.1.1, SVG Export Plug-In . SVG Version: 6.00 Build 0)  -->
<!DOCTYPE svg PUBLIC "-//W3C//DTD SVG 1.1//EN" "http://www.w3.org/Graphics/SVG/1.1/DTD/svg11.dtd">
<svg version="1.1" xmlns="http://www.w3.org/2000/svg" xmlns:xlink="http://www.w3.org/1999/xlink" x="0px" y="0px"
	 viewBox="0 0 512 512" enable-background="new 0 0 512 512" xml:space="preserve">
<g id="Layer_1">
	<g>
		<path d="M187,163.7c0-0.4-0.3-0.7-0.7-0.7H52.7c-0.4,0-0.7,0.3-0.7,0.7v103.6c0,0.4,0.3,0.7,0.7,0.7h133.6c0.4,0,0.7-0.3,0.7-0.7
			V163.7z"/>
		<path d="M186,298.6c0-0.3-0.3-0.6-0.6-0.6H82.6c-0.3,0-0.6,0.3-0.6,0.6v162.8c0,0.3,0.3,0.6,0.6,0.6h102.8c0.3,0,0.6-0.3,0.6-0.6
			V298.6z"/>
		<path d="M469.6,163h-81.7c1.6-2,3.1-3,4.6-4.5c23.5-23.5,33.1-61.9,24-95.4c-2.1-7.7-8.1-13.7-15.7-15.8
			c-8.4-2.3-17.2-3.5-26.2-3.5c-26.6,0-51.8,10-69.2,27.4c-3.2,3.2-6.1,6.6-8.7,10.3c-2.7-3.7-5.6-7.1-8.8-10.3
			c-17.5-17.4-42.7-27.4-69.2-27.4c-9,0-17.8,1.2-26.2,3.5c-7.7,2.1-13.6,8.1-15.7,15.7c-9.1,33.6,0.4,71.9,23.8,95.4
			c4.7,4.7,10.4,8.8,15.4,12.4v95.9c0,0.4,0.6,0.3,1,0.3h252.6c0.4,0,0.4,0.1,0.4-0.3V163.4C470,163,470,163,469.6,163z M337.1,103
			c9.1-9.1,23.4-13.8,38-14.3c0.1,14.4-5,28.8-14.3,38c-9.1,9.1-23.3,14.5-38.1,14.3C322.6,126.6,327.8,112.2,337.1,103z M256.2,103
			c9.3,9.3,14.5,23.7,14.3,38c-14.6,0.1-29-5.2-38.1-14.3c-9.3-9.3-14.4-23.7-14.3-38C232.2,88.6,247.1,93.9,256.2,103z"/>
		<path d="M440,299.6c0-0.3-0.3-0.6-0.6-0.6H217.6c-0.3,0-0.6,0.3-0.6,0.6v161.8c0,0.3,0.3,0.6,0.6,0.6h221.8c0.3,0,0.6-0.3,0.6-0.6
			V299.6z"/>
	</g>
</g>
<g id="Layer_2">
</g>
</svg>
