<?xml version="1.0" encoding="utf-8"?>
<!-- Generator: Adobe Illustrator 18.1.1, SVG Export Plug-In . SVG Version: 6.00 Build 0)  -->
<!DOCTYPE svg PUBLIC "-//W3C//DTD SVG 1.1//EN" "http://www.w3.org/Graphics/SVG/1.1/DTD/svg11.dtd">
<svg version="1.1" id="Layer_1" xmlns="http://www.w3.org/2000/svg" xmlns:xlink="http://www.w3.org/1999/xlink" x="0px" y="0px"
	 viewBox="0 0 512 512" enable-background="new 0 0 512 512" xml:space="preserve">
<path fill-rule="evenodd" clip-rule="evenodd" d="M260.8,34.4c-124.7,0-225.8,101.1-225.8,225.8c0,99.7,64.7,184.4,154.4,214.2
	c11.3,2.1,15.4-4.9,15.4-10.9c0-5.4-0.2-19.6-0.3-38.4c-62.8,13.6-76.1-30.3-76.1-30.3c-10.3-26.1-25.1-33-25.1-33
	c-20.5-14,1.6-13.7,1.6-13.7c22.7,1.6,34.6,23.3,34.6,23.3c20.1,34.5,52.8,24.5,65.7,18.8c2.1-14.6,7.9-24.5,14.3-30.2
	c-50.1-5.7-102.8-25.1-102.8-111.6c0-24.6,8.8-44.8,23.2-60.6c-2.3-5.7-10.1-28.7,2.2-59.8c0,0,19-6.1,62.1,23.1
	c18-5,37.3-7.5,56.5-7.6c19.2,0.1,38.5,2.6,56.5,7.6c43.1-29.2,62-23.1,62-23.1c12.3,31.1,4.6,54,2.2,59.8
	c14.5,15.8,23.2,35.9,23.2,60.6c0,86.7-52.8,105.8-103.1,111.4c8.1,7,15.3,20.7,15.3,41.8c0,30.2-0.3,54.5-0.3,61.9
	c0,6,4.1,13.1,15.5,10.9c89.6-29.9,154.3-114.5,154.3-214.2C486.6,135.4,385.5,34.4,260.8,34.4z"/>
</svg>
