<?xml version="1.0" encoding="utf-8"?>
<!-- Generator: Adobe Illustrator 18.1.1, SVG Export Plug-In . SVG Version: 6.00 Build 0)  -->
<!DOCTYPE svg PUBLIC "-//W3C//DTD SVG 1.1//EN" "http://www.w3.org/Graphics/SVG/1.1/DTD/svg11.dtd">
<svg version="1.1" id="Layer_1" xmlns="http://www.w3.org/2000/svg" xmlns:xlink="http://www.w3.org/1999/xlink" x="0px" y="0px"
	 viewBox="0 0 512 512" enable-background="new 0 0 512 512" xml:space="preserve">
<path fill-rule="evenodd" clip-rule="evenodd" d="M256,31.7c-127,0-230,103-230,230c0,101.6,65.9,187.8,157.3,218.2
	c11.5,2.1,15.7-5,15.7-11.1c0-5.5-0.2-19.9-0.3-39.1c-64,13.9-77.5-30.8-77.5-30.8c-10.5-26.6-25.5-33.6-25.5-33.6
	c-20.9-14.3,1.6-14,1.6-14c23.1,1.6,35.2,23.7,35.2,23.7c20.5,35.1,53.8,25,66.9,19.1c2.1-14.9,8-25,14.6-30.7
	c-51.1-5.8-104.8-25.5-104.8-113.7c0-25.1,9-45.6,23.7-61.7c-2.4-5.8-10.3-29.2,2.3-60.9c0,0,19.3-6.2,63.2,23.6
	c18.3-5.1,38-7.7,57.6-7.7c19.5,0.1,39.2,2.6,57.6,7.7c43.9-29.8,63.2-23.6,63.2-23.6c12.5,31.7,4.7,55.1,2.3,60.9
	c14.7,16.1,23.6,36.6,23.6,61.7c0,88.4-53.8,107.8-105,113.5c8.3,7.1,15.6,21.1,15.6,42.6c0,30.7-0.3,55.6-0.3,63.1
	c0,6.2,4.1,13.3,15.8,11.1C420.2,449.4,486,363.3,486,261.7C486,134.7,383,31.7,256,31.7z"/>
</svg>
