<svg class="icon icon-github" height="16" viewBox="0 0 16 16" version="1.1" aria-hidden="true">
    <path class="cls-1"
          d="M8,.2A8,8,0,0,0,5.47,15.79c.4.07.55-.17.55-.39S6,14.71,6,14C3.78,14.53,3.31,13,3.31,13a2.12,2.12,0,0,0-.89-1.17c-.73-.5.05-.49.05-.49a1.68,1.68,0,0,1,1.23.82A1.7,1.7,0,0,0,6,12.8a1.71,1.71,0,0,1,.51-1.07c-1.78-.2-3.64-.89-3.64-4a3.09,3.09,0,0,1,.82-2.15A2.88,2.88,0,0,1,3.8,3.52s.67-.22,2.2.82a7.58,7.58,0,0,1,4,0c1.53-1,2.2-.82,2.2-.82a2.87,2.87,0,0,1,.08,2.12,3.09,3.09,0,0,1,.82,2.15c0,3.07-1.87,3.75-3.65,3.95A1.91,1.91,0,0,1,10,13.21c0,1.07,0,1.93,0,2.19s.14.46.55.38A8,8,0,0,0,8,.2Z"/>
</svg>
