<?xml version="1.0" encoding="utf-8"?>
<!-- Generator: Adobe Illustrator 18.1.1, SVG Export Plug-In . SVG Version: 6.00 Build 0)  -->
<!DOCTYPE svg PUBLIC "-//W3C//DTD SVG 1.1//EN" "http://www.w3.org/Graphics/SVG/1.1/DTD/svg11.dtd">
<svg version="1.1" id="Layer_1" xmlns="http://www.w3.org/2000/svg" xmlns:xlink="http://www.w3.org/1999/xlink" x="0px" y="0px"
	 viewBox="0 0 512 512" enable-background="new 0 0 512 512" xml:space="preserve">
<g>
	<path fill="#000100" d="M412.3,6H99.7C48,6,6,48,6,99.8v312.5C6,464,48,506,99.7,506h312.5c51.8,0,93.7-42,93.7-93.7V99.8
		C506,48,464,6,412.3,6z M411.9,311.2c0,55.6-45.3,100.6-101.3,100.6H201.5c-55.9,0-101.4-45-101.4-100.6V200.8
		c0-55.6,45.4-100.7,101.4-100.7h51.1c56,0,100.8,41.8,100.8,97.4c0.7,10.4,10.1,19.5,20.8,19.5h0.4h17.1
		c11.2,0,20.2,11.7,20.2,22.8V311.2z M314.4,295H197.6c-10.7,0-19.5,8.8-19.5,19.5c0,10.7,8.8,19.5,19.5,19.5h116.9
		c10.7,0,19.5-8.8,19.5-19.5C333.9,303.8,325.2,295,314.4,295z M197.6,217H256c10.7,0,19.5-8.8,19.5-19.5c0-10.7-8.8-19.5-19.5-19.5
		h-58.4c-10.7,0-19.5,8.8-19.5,19.5C178.1,208.3,186.8,217,197.6,217z"/>
</g>
</svg>
