<?xml version="1.0" encoding="utf-8"?>
<!-- Generator: Adobe Illustrator 18.1.1, SVG Export Plug-In . SVG Version: 6.00 Build 0)  -->
<!DOCTYPE svg PUBLIC "-//W3C//DTD SVG 1.1//EN" "http://www.w3.org/Graphics/SVG/1.1/DTD/svg11.dtd">
<svg version="1.1" id="Layer_1" xmlns="http://www.w3.org/2000/svg" xmlns:xlink="http://www.w3.org/1999/xlink" x="0px" y="0px"
	 viewBox="0 0 512 512" enable-background="new 0 0 512 512" xml:space="preserve">
<g>
	<path d="M305.8,318.9c-8.7-11.6-19.2-21.6-30.3-30.8c-10.7-8.8-24.2-17.2-31.6-29.4c-17-28.1,19.7-49.7,35.5-67.5
		C315.5,151,306,77,260.1,47.9c11.4,0,27,3,37.8-0.3c12.5-3.8,25.5-14.9,36.8-21.5c-39.3,0-78.5-0.1-117.8,0
		c-36.7,0.1-74.7,5.3-103.8,29.4c-33.2,27.3-50.9,72.2-37.3,114.2c15.8,48.9,67.2,69.8,115,64c-2.7,10.1-7.1,18-5.7,28.8
		c1.7,13.4,9.2,25.6,17.3,36.1c-43.6,1.1-95.6,8.7-130,37.7C39.8,363.8,30,413.5,59,447c30,34.6,85.6,41.4,128.4,38.3
		c38-2.7,75.7-14.7,103.3-42C323.1,411,334.8,357.8,305.8,318.9C301,312.4,310.7,325.5,305.8,318.9z M199.3,218.5
		c-78.9,0-114.1-172.9-22.9-172.5c44.6,0.2,64.7,49.6,71.5,86.6C254.7,170.6,246.6,218.5,199.3,218.5z M275.7,426.1
		c-25.9,44.3-98.4,40-138.7,22.3c-41.8-18.4-63-72.7-24.5-106.7c16.8-14.9,41.6-21.4,63.2-24.5c12-1.7,25.2-3.1,37.3-1.8
		c8.7,1,14,5.9,21.3,11.1C266.1,348.9,299.9,384.7,275.7,426.1C270.7,434.7,280.8,417.4,275.7,426.1z"/>
	<polygon points="470,86 410,86 410,26 379,26 379,86 317,86 317,118 379,118 379,180 410,180 410,118 470,118 	"/>
</g>
</svg>
