<svg class="icon icon-google-plus" height="16" viewBox="0 0 15 16" version="1.1" aria-hidden="true">
    <path
      d="M9.24,10.19A6.19,6.19,0,0,0,8.18,9.12a4.58,4.58,0,0,1-1.1-1c-.59-1,.68-1.73,1.24-2.35a3.48,3.48,0,0,0-.67-5A5.11,5.11,0,0,0,9,.75,6.92,6.92,0,0,0,10.24,0H6.15A5.55,5.55,0,0,0,2.53,1a3.74,3.74,0,0,0-1.3,4,3.58,3.58,0,0,0,4,2.23,2.49,2.49,0,0,0-.2,1,2.68,2.68,0,0,0,.6,1.26A7.43,7.43,0,0,0,1.12,10.8a2.73,2.73,0,0,0-.47,3.85c1,1.2,3,1.44,4.47,1.33a5.56,5.56,0,0,0,3.59-1.46,3.35,3.35,0,0,0,.53-4.33ZM5.53,6.69c-2.74,0-4-6-.8-6C6.29.7,7,2.42,7.22,3.71S7.18,6.69,5.53,6.69Zm2.66,7.22c-.9,1.54-3.42,1.39-4.82.78S1.18,12.16,2.52,11a4.25,4.25,0,0,1,2.2-.85A5.38,5.38,0,0,1,6,10.07a1.55,1.55,0,0,1,.74.39c1.1.78,2.28,2,1.44,3.46Z"/>
    <polygon
      points="14.95 2.09 12.86 2.09 12.86 0 11.78 0 11.78 2.09 9.63 2.09 9.63 3.2 11.78 3.2 11.78 5.36 12.86 5.36 12.86 3.2 14.95 3.2 14.95 2.09"/>
</svg>
