<?xml version="1.0" encoding="utf-8"?>
<!-- Generator: Adobe Illustrator 18.1.1, SVG Export Plug-In . SVG Version: 6.00 Build 0)  -->
<!DOCTYPE svg PUBLIC "-//W3C//DTD SVG 1.1//EN" "http://www.w3.org/Graphics/SVG/1.1/DTD/svg11.dtd">
<svg version="1.1" id="Layer_1" xmlns="http://www.w3.org/2000/svg" xmlns:xlink="http://www.w3.org/1999/xlink" x="0px" y="0px"
	 viewBox="0 0 512 512" enable-background="new 0 0 512 512" xml:space="preserve">
<g>
	<path d="M310.2,324.4c-9.4-12.6-20.8-23.5-33-33.4c-11.7-9.6-26.3-18.7-34.3-31.9c-18.5-30.5,21.4-54,38.6-73.3
		c39.2-43.8,28.9-124.3-21-155.9c12.4,0,29.4,3.2,41.1-0.3c13.6-4.1,27.7-16.2,40-23.4c-42.7,0-85.3-0.1-128,0
		c-39.9,0.1-81.2,5.8-112.9,31.9c-36.1,29.7-55.3,78.5-40.6,124.2c17.2,53.2,73,75.9,125,69.5c-2.9,10.9-7.7,19.6-6.2,31.3
		c1.8,14.5,10,27.9,18.8,39.3c-47.4,1.2-103.9,9.5-141.3,41C21,373.1,10.3,427.2,41.8,463.6c32.6,37.6,93,45,139.5,41.6
		c41.3-3,82.3-16,112.2-45.7C328.9,424.5,341.7,366.6,310.2,324.4C304.9,317.3,315.5,331.5,310.2,324.4z M194.4,215.2
		c-85.7,0-124-187.9-24.9-187.5c48.5,0.2,70.4,53.9,77.7,94.2C254.6,163.2,245.8,215.2,194.4,215.2z M277.4,440.8
		c-28.1,48.1-107,43.5-150.7,24.2c-45.4-20-68.4-79-26.6-116c18.3-16.2,45.2-23.3,68.7-26.6c13-1.8,27.4-3.4,40.6-2
		c9.5,1.1,15.2,6.4,23.2,12.1C267,357,303.7,395.8,277.4,440.8C271.9,450.3,282.9,431.4,277.4,440.8z"/>
	<polygon points="489,71 423,71 423,6 390,6 390,71 322,71 322,106 390,106 390,173 423,173 423,106 489,106 	"/>
</g>
</svg>
