<?xml version="1.0" encoding="utf-8"?>
<!-- Generator: Adobe Illustrator 18.1.1, SVG Export Plug-In . SVG Version: 6.00 Build 0)  -->
<!DOCTYPE svg PUBLIC "-//W3C//DTD SVG 1.1//EN" "http://www.w3.org/Graphics/SVG/1.1/DTD/svg11.dtd">
<svg version="1.1" id="Layer_1" xmlns="http://www.w3.org/2000/svg" xmlns:xlink="http://www.w3.org/1999/xlink" x="0px" y="0px"
	 viewBox="0 0 512 512" enable-background="new 0 0 512 512" xml:space="preserve">
<g>
	<path fill="#000100" d="M399.8,26H112.2C64.6,26,26,64.6,26,112.3v287.5c0,47.6,38.6,86.2,86.2,86.2h287.5
		c47.6,0,86.2-38.6,86.2-86.2V112.3C486,64.6,447.4,26,399.8,26z M399.4,306.8c0,51.2-41.6,92.6-93.2,92.6H205.9
		c-51.5,0-93.3-41.4-93.3-92.6V205.2c0-51.1,41.8-92.6,93.3-92.6h47c51.5,0,92.8,38.5,92.8,89.6c0.7,9.6,9.3,17.9,19.1,17.9h0.3
		h15.7c10.3,0,18.6,10.8,18.6,21V306.8z M309.8,291.9H202.2c-9.9,0-17.9,8.1-17.9,17.9s8.1,17.9,17.9,17.9h107.5
		c9.9,0,17.9-8.1,17.9-17.9S319.6,291.9,309.8,291.9z M202.2,220.1H256c9.9,0,17.9-8.1,17.9-17.9c0-9.9-8.1-17.9-17.9-17.9h-53.8
		c-9.9,0-17.9,8.1-17.9,17.9C184.3,212.1,192.4,220.1,202.2,220.1z"/>
</g>
</svg>
