<?xml version="1.0" encoding="utf-8"?>
<!-- Generator: Adobe Illustrator 18.1.1, SVG Export Plug-In . SVG Version: 6.00 Build 0)  -->
<!DOCTYPE svg PUBLIC "-//W3C//DTD SVG 1.1//EN" "http://www.w3.org/Graphics/SVG/1.1/DTD/svg11.dtd">
<svg version="1.1" id="Layer_1" xmlns="http://www.w3.org/2000/svg" xmlns:xlink="http://www.w3.org/1999/xlink" x="0px" y="0px"
	 viewBox="0 0 512 512" enable-background="new 0 0 512 512" xml:space="preserve">
<g>
	<path fill="#000100" d="M396.8,28h-281c-46.5,0-84.3,37.7-84.3,84.3v280.9c0,46.6,37.7,84.3,84.3,84.3h281
		c46.6,0,84.3-37.7,84.3-84.3V112.3C481,65.7,443.3,28,396.8,28z M396.4,302.4c0,50-40.7,90.5-91,90.5h-98.1
		c-50.3,0-91.1-40.5-91.1-90.5v-99.3c0-50,40.8-90.5,91.1-90.5h45.9c50.3,0,90.6,37.6,90.6,87.6c0.7,9.4,9.1,17.5,18.7,17.5h0.3
		h15.4c10.1,0,18.1,10.6,18.1,20.5V302.4z M308.8,287.8H203.7c-9.6,0-17.5,7.9-17.5,17.5s7.9,17.5,17.5,17.5h105.1
		c9.6,0,17.5-7.9,17.5-17.5S318.5,287.8,308.8,287.8z M203.7,217.7h52.5c9.6,0,17.5-7.9,17.5-17.5c0-9.6-7.9-17.5-17.5-17.5h-52.5
		c-9.6,0-17.5,7.9-17.5,17.5C186.2,209.8,194.1,217.7,203.7,217.7z"/>
</g>
</svg>
