<?xml version="1.0" encoding="utf-8"?>
<!-- Generator: Adobe Illustrator 18.1.1, SVG Export Plug-In . SVG Version: 6.00 Build 0)  -->
<!DOCTYPE svg PUBLIC "-//W3C//DTD SVG 1.1//EN" "http://www.w3.org/Graphics/SVG/1.1/DTD/svg11.dtd">
<svg version="1.1" id="Layer_1" xmlns="http://www.w3.org/2000/svg" xmlns:xlink="http://www.w3.org/1999/xlink" x="0px" y="0px"
	 viewBox="0 0 512 512" enable-background="new 0 0 512 512" xml:space="preserve">
<g>
	<path d="M317,324.2c-8.2-10.9-18.1-20.4-28.6-29c-10.1-8.3-22.8-16.2-29.8-27.7c-16-26.5,18.5-46.9,33.5-63.6
		c34-38,25-107.8-18.3-135.2c10.7,0,25.5,2.8,35.7-0.3c11.8-3.6,24-14.1,34.7-20.3c-37,0-74-0.1-111,0c-34.6,0.1-70.4,5-97.9,27.7
		c-31.3,25.8-48,68-35.2,107.7c14.9,46.1,63.4,65.8,108.4,60.3c-2.5,9.5-6.7,17-5.4,27.2c1.6,12.6,8.7,24.2,16.3,34
		c-41.1,1.1-90.1,8.2-122.5,35.6C66.3,366.4,57,413.4,84.3,444.9c28.2,32.6,80.7,39,121,36.1c35.8-2.6,71.4-13.8,97.3-39.6
		C333.3,411,344.3,360.8,317,324.2C312.4,318,321.6,330.3,317,324.2z M216.6,229.5c-74.3,0-107.5-163-21.6-162.6
		c42,0.2,61,46.7,67.4,81.7C268.9,184.3,261.2,229.5,216.6,229.5z M288.6,425.2c-24.4,41.7-92.8,37.7-130.7,21
		c-39.4-17.4-59.4-68.5-23.1-100.6c15.8-14,39.2-20.2,59.6-23.1c11.3-1.6,23.8-3,35.2-1.7c8.2,0.9,13.2,5.6,20.1,10.5
		C279.6,352.5,311.4,386.1,288.6,425.2C283.9,433.3,293.4,417,288.6,425.2z"/>
	<polygon points="472,105 415,105 415,48 386,48 386,105 327,105 327,135 386,135 386,193 415,193 415,135 472,135 	"/>
</g>
</svg>
