<?xml version="1.0" encoding="utf-8"?>
<!-- Generator: Adobe Illustrator 19.1.0, SVG Export Plug-In . SVG Version: 6.00 Build 0)  -->
<!DOCTYPE svg PUBLIC "-//W3C//DTD SVG 1.1//EN" "http://www.w3.org/Graphics/SVG/1.1/DTD/svg11.dtd">
<svg version="1.1" id="Layer_1" xmlns="http://www.w3.org/2000/svg" xmlns:xlink="http://www.w3.org/1999/xlink" x="0px" y="0px"
	 viewBox="0 0 512 512" enable-background="new 0 0 512 512" xml:space="preserve">
<g>
	<polygon points="44,134.8 44,135.2 44.4,134.8 	"/>
	<polygon points="44,135.2 43.9,135.2 44,135.2 	"/>
	<path d="M461,203h-11.6C437.3,107,355.2,32.6,256,32.6S74.7,107,62.6,203H51c-13.8,0-25,11.4-25,25.1v102.1C26,344,37.3,355,51,355
		h57.8c13.8,0,24.2-11,24.2-24.8V228.1c0-13.8-10.4-25.1-24.2-25.1h-8.1c11.9-74,77-132.6,155.2-132.6S399.3,129,411.2,203h-8.1
		c-13.8,0-24.2,11.4-24.2,25.1v102.1c0,13.8,10.4,24.8,24.2,24.8h9.8v30.8l-118.6,44c-5.6-7.7-14.8-12.8-25.1-12.8h-26.6
		c-17,0-30.9,14-30.9,31l0,0c0,17,13.9,31,30.9,31h26.6c16.1,0,29.3-12.5,30.6-28.3L434,400.7V355h27c13.8,0,25-11,25-24.8V228.1
		C486,214.4,474.7,203,461,203z"/>
</g>
</svg>
