<svg class="icon icon-headphones" height="16" viewBox="0 0 16 16" version="1.1" aria-hidden="true">
    <polygon points="0.63 3.79 0.63 3.8 0.64 3.79 0.63 3.79"/>
    <polygon points="0.63 3.8 0.62 3.8 0.63 3.81 0.63 3.8"/>
    <path
      d="M15.13,6.16h-.4a6.78,6.78,0,0,0-13.46,0H.87A.88.88,0,0,0,0,7v3.55a.87.87,0,0,0,.87.86h2a.84.84,0,0,0,.84-.86V7a.85.85,0,0,0-.84-.87H2.6a5.47,5.47,0,0,1,10.8,0h-.28a.85.85,0,0,0-.84.87v3.55a.84.84,0,0,0,.84.86h.34v1.07L9.33,14.05a1.08,1.08,0,0,0-.87-.45H7.54a1.08,1.08,0,0,0-1.08,1.08h0a1.08,1.08,0,0,0,1.08,1.08h.93a1.07,1.07,0,0,0,1.06-1L14.19,13V11.45h.94a.87.87,0,0,0,.87-.86V7A.88.88,0,0,0,15.13,6.16Z"/>
</svg>
