<?xml version="1.0" encoding="utf-8"?>
<!-- Generator: Adobe Illustrator 18.1.1, SVG Export Plug-In . SVG Version: 6.00 Build 0)  -->
<!DOCTYPE svg PUBLIC "-//W3C//DTD SVG 1.1//EN" "http://www.w3.org/Graphics/SVG/1.1/DTD/svg11.dtd">
<svg version="1.1" xmlns="http://www.w3.org/2000/svg" xmlns:xlink="http://www.w3.org/1999/xlink" x="0px" y="0px"
	 viewBox="0 0 512 512" enable-background="new 0 0 512 512" xml:space="preserve">
<g id="Layer_1">
	<path d="M256,26C129.2,26,26,129.2,26,256s103.2,230,230,230s230-103.2,230-230S382.8,26,256,26z M196.9,256
		c0-32.6,26.5-59.1,59.1-59.1s59.1,26.5,59.1,59.1c0,32.6-26.5,59.1-59.1,59.1S196.9,288.6,196.9,256z M367.2,109.7l-56.8,56.8
		C294.6,156.7,276,151,256,151c-21.3,0-41.2,6.4-57.8,17.4l-56.5-56.5c31.4-25,71.1-40,114.3-40C297.8,71.9,336.3,86.1,367.2,109.7z
		 M141.7,400.1l56.5-56.5c16.6,11,36.4,17.4,57.8,17.4c20,0,38.6-5.7,54.5-15.4l56.8,56.8c-30.9,23.6-69.4,37.8-111.2,37.8
		C212.8,440.1,173.2,425.1,141.7,400.1z"/>
</g>
<g id="Layer_2">
</g>
</svg>
