<?xml version="1.0" encoding="utf-8"?>
<!-- Generator: Adobe Illustrator 18.1.1, SVG Export Plug-In . SVG Version: 6.00 Build 0)  -->
<!DOCTYPE svg PUBLIC "-//W3C//DTD SVG 1.1//EN" "http://www.w3.org/Graphics/SVG/1.1/DTD/svg11.dtd">
<svg version="1.1" xmlns="http://www.w3.org/2000/svg" xmlns:xlink="http://www.w3.org/1999/xlink" x="0px" y="0px"
	 viewBox="0 0 512 512" enable-background="new 0 0 512 512" xml:space="preserve">
<g id="Layer_1">
	<path d="M256,6C118.2,6,6,118.1,6,256s112.2,250,250,250s250-112.2,250-250S393.8,6,256,6z M191.8,256c0-35.4,28.8-64.2,64.2-64.2
		s64.2,28.8,64.2,64.2c0,35.4-28.8,64.2-64.2,64.2S191.8,291.4,191.8,256z M376.9,96.9l-61.7,61.7c-17.3-10.5-37.5-16.7-59.2-16.7
		c-23.2,0-44.8,7-62.8,18.9l-61.4-61.4C166,72.2,209.1,55.9,256,55.9C301.5,55.9,343.3,71.3,376.9,96.9z M131.8,412.6l61.4-61.4
		c18,11.9,39.6,18.9,62.8,18.9c21.7,0,41.9-6.2,59.2-16.7l61.7,61.7c-33.6,25.6-75.5,41-120.9,41C209.1,456.1,166,439.8,131.8,412.6
		z"/>
</g>
<g id="Layer_2">
</g>
</svg>
