<?xml version="1.0" encoding="utf-8"?>
<!-- Generator: Adobe Illustrator 18.1.1, SVG Export Plug-In . SVG Version: 6.00 Build 0)  -->
<!DOCTYPE svg PUBLIC "-//W3C//DTD SVG 1.1//EN" "http://www.w3.org/Graphics/SVG/1.1/DTD/svg11.dtd">
<svg version="1.1" xmlns="http://www.w3.org/2000/svg" xmlns:xlink="http://www.w3.org/1999/xlink" x="0px" y="0px"
	 viewBox="0 0 512 512" enable-background="new 0 0 512 512" xml:space="preserve">
<g id="Layer_1">
	<path d="M250.1,31.8c-123.9,0-224.7,100.8-224.7,224.7s100.8,224.7,224.7,224.7s224.7-100.8,224.7-224.7S374,31.8,250.1,31.8z
		 M192.4,256.4c0-31.8,25.9-57.7,57.7-57.7s57.7,25.9,57.7,57.7c0,31.8-25.9,57.7-57.7,57.7S192.4,288.3,192.4,256.4z M358.8,113.5
		L303.3,169c-15.5-9.5-33.7-15-53.2-15c-20.8,0-40.2,6.3-56.4,17l-55.2-55.2c30.7-24.4,69.5-39.1,111.6-39.1
		C291,76.6,328.5,90.5,358.8,113.5z M138.5,397.2l55.2-55.2c16.2,10.7,35.6,17,56.4,17c19.5,0,37.7-5.6,53.2-15l55.5,55.5
		c-30.2,23-67.8,36.9-108.7,36.9C207.9,436.3,169.2,421.6,138.5,397.2z"/>
</g>
<g id="Layer_2">
</g>
</svg>
