<?xml version="1.0" encoding="utf-8"?>
<!-- Generator: Adobe Illustrator 19.0.1, SVG Export Plug-In . SVG Version: 6.00 Build 0)  -->
<!DOCTYPE svg PUBLIC "-//W3C//DTD SVG 1.1//EN" "http://www.w3.org/Graphics/SVG/1.1/DTD/svg11.dtd">
<svg version="1.1" id="Layer_1" xmlns="http://www.w3.org/2000/svg" xmlns:xlink="http://www.w3.org/1999/xlink" x="0px" y="0px"
	 viewBox="0 0 512 512" enable-background="new 0 0 512 512" xml:space="preserve">
<path d="M504.7,251.3c-25.3-44.4-62.6-80.7-105.7-106.1l50.9-50.9c4.5-4.5,6.7-10.4,6.7-16.2c0-5.9-2.3-11.8-6.8-16.3
	c-8.9-8.9-23.5-9-32.5-0.1L355.3,124c-32-12.4-65.8-19.1-99.3-19.1c-97.5,0-197.4,56.8-248.7,146.4c-1.7,3-1.7,6.7,0,9.7
	c25.2,44.2,62.4,80.4,105.3,105.7l-51,51c-8.9,8.9-8.9,23.5,0.1,32.5c8.9,8.9,23.5,9,32.5,0.1l62.2-62.2
	c32.1,12.5,66,19.2,99.7,19.2c97.5,0,197.4-56.5,248.7-146.1C506.4,258,506.4,254.3,504.7,251.3z M155,255
	c0-56.3,45.6-101.9,101.9-101.9c19.8,0,38.2,5.6,53.8,15.4l-47.3,47.3c-2.1-0.3-4.3-0.5-6.5-0.5c-21.9,0-39.7,17.8-39.7,39.7
	c0,2.2,0.2,4.4,0.5,6.5l-47.3,47.3C160.6,293.3,155,274.8,155,255z M256.8,356.9c-19.8,0-38.4-5.7-54-15.5l47.3-47.3
	c2.2,0.4,4.5,0.6,6.8,0.6c21.9,0,39.7-17.8,39.7-39.7c0-2.3-0.2-4.6-0.6-6.8l47.3-47.3c9.8,15.7,15.5,34.2,15.5,54
	C358.7,311.3,313.1,356.9,256.8,356.9z"/>
</svg>
