<svg class="icon icon-hide" height="16" viewBox="0 0 16 16" version="1.1" aria-hidden="true">
    <path
      d="M16,7.85a9.36,9.36,0,0,0-3.38-3.39l1.63-1.63a.74.74,0,0,0-1-1l-2,2A8.81,8.81,0,0,0,8,3.16,9.43,9.43,0,0,0,0,7.85a.31.31,0,0,0,0,.31,9.33,9.33,0,0,0,3.37,3.38L1.78,13.17a.74.74,0,0,0,1,1l2-2A8.84,8.84,0,0,0,8,12.84a9.42,9.42,0,0,0,8-4.67A.31.31,0,0,0,16,7.85ZM4.77,8a3.26,3.26,0,0,1,5-2.77L8.24,6.72,8,6.7A1.27,1.27,0,0,0,6.77,8.18L5.26,9.69A3.24,3.24,0,0,1,4.77,8ZM8,11.23a3.24,3.24,0,0,1-1.73-.5L7.81,9.22l.22,0A1.27,1.27,0,0,0,9.28,7.75l1.51-1.51a3.26,3.26,0,0,1-2.76,5Z"/>
</svg>
