<svg class="icon icon-hipster" height="16" viewBox="0 0 16 16" version="1.1" aria-hidden="true">
    <path
      d="M12.33,10.38A6.83,6.83,0,0,1,8,8.2a6.83,6.83,0,0,1-4.33,2.18c-2,.15-3.8-.75-3.66-2.79C.05,6.91.52,6,1.48,6.07a.76.76,0,0,1,.24.05h0a.89.89,0,1,1-1.11,1h0a1.35,1.35,0,0,0,.87,1.75c2.09.36,2.85-2.92,4.81-3.22A2,2,0,0,1,8,6.13a2,2,0,0,1,1.71-.5c2,.3,2.72,3.59,4.81,3.22a1.35,1.35,0,0,0,.87-1.75h0a.89.89,0,1,1-1.11-1h0a.77.77,0,0,1,.24-.05c1-.08,1.43.84,1.47,1.53C16.13,9.64,14.29,10.53,12.33,10.38Z"/>
</svg>
