<?xml version="1.0" encoding="utf-8"?>
<!-- Generator: Adobe Illustrator 18.1.1, SVG Export Plug-In . SVG Version: 6.00 Build 0)  -->
<!DOCTYPE svg PUBLIC "-//W3C//DTD SVG 1.1//EN" "http://www.w3.org/Graphics/SVG/1.1/DTD/svg11.dtd">
<svg version="1.1" id="Layer_1" xmlns="http://www.w3.org/2000/svg" xmlns:xlink="http://www.w3.org/1999/xlink" x="0px" y="0px"
	 viewBox="0 0 512 512" enable-background="new 0 0 512 512" xml:space="preserve">
<path d="M501.3,269L274,25.4c-9.5-9.8-25.2-9.8-34.7,0L10.4,270.3c-10.1,11.4-2,29.3,13.2,29.3h53.3V460c0,18.7,15.2,33.9,33.9,33.9
	h72.4c8.7,0,15.8-7.1,15.8-15.8V363.8c0-11.7,9.6-21.3,21.3-21.3h69.8c11.6,0,21.2,9.6,21.2,21.2v113.8c0,9.1,7.3,16.4,16.4,16.4
	h73.5c18.3,0,33.1-14.8,33.1-33.1V299.6h53.3C503.5,299.6,511.9,280.9,501.3,269z"/>
</svg>
