<?xml version="1.0" encoding="utf-8"?>
<!-- Generator: Adobe Illustrator 16.0.0, SVG Export Plug-In . SVG Version: 6.00 Build 0)  -->
<!DOCTYPE svg PUBLIC "-//W3C//DTD SVG 1.1//EN" "http://www.w3.org/Graphics/SVG/1.1/DTD/svg11.dtd">
<svg version="1.1" id="Layer_1" xmlns="http://www.w3.org/2000/svg" xmlns:xlink="http://www.w3.org/1999/xlink" x="0px" y="0px"
	 width="300px" height="300px" viewBox="0 0 300 300" style="enable-background:new 0 0 300 300;" xml:space="preserve">
<path d="M282.965,192.507c-15.511-79.49-87.409-77.229-99.526-187.901c0,0-44.754,52.509-77.875,104.695
	c-9.21-15.512-17.127-35.384-19.874-67.373c0,0-69.958,88.861-69.958,146.541c0,55.902,29.405,80.461,65.758,80.461
	c0.234,0,0.468-0.015,0.701-0.018c-0.852-4.497-1.312-9.556-1.312-15.204c0-31.412,31.685-79.807,31.685-79.807
	c1.245,17.423,4.83,28.244,9.001,36.69c15-28.42,35.27-57.017,35.27-57.017c5.489,60.274,38.051,59.041,45.077,102.332
	c2.396,14.834-2.717,28.546-11.651,38.698C243.879,288.125,292.958,243.967,282.965,192.507z"/>
<g id="Restricted">
</g>
<g id="Help">
</g>
</svg>
