<?xml version="1.0" encoding="utf-8"?>
<!-- Generator: Adobe Illustrator 16.0.0, SVG Export Plug-In . SVG Version: 6.00 Build 0)  -->
<!DOCTYPE svg PUBLIC "-//W3C//DTD SVG 1.1//EN" "http://www.w3.org/Graphics/SVG/1.1/DTD/svg11.dtd">
<svg version="1.1" id="Layer_1" xmlns="http://www.w3.org/2000/svg" xmlns:xlink="http://www.w3.org/1999/xlink" x="0px" y="0px"
	 width="300px" height="300px" viewBox="0 0 300 300" style="enable-background:new 0 0 300 300;" xml:space="preserve">
<path d="M266.36,187.149c-13.574-69.563-76.493-67.584-87.097-164.437c0,0-39.165,45.952-68.15,91.621
	c-8.06-13.574-14.988-30.965-17.392-58.959c0,0-61.222,77.764-61.222,128.24c0,48.921,25.733,70.413,57.546,70.413
	c0.205,0,0.409-0.013,0.614-0.016c-0.746-3.936-1.148-8.362-1.148-13.306c0-27.489,27.728-69.84,27.728-69.84
	c1.089,15.247,4.227,24.717,7.877,32.108c13.127-24.871,30.866-49.896,30.866-49.896c4.803,52.747,33.299,51.668,39.447,89.553
	c2.096,12.981-2.377,24.981-10.196,33.865C232.155,270.826,275.105,232.183,266.36,187.149z"/>
<g id="Restricted">
</g>
<g id="Help">
</g>
</svg>
