<?xml version="1.0" encoding="utf-8"?>
<!-- Generator: Adobe Illustrator 18.1.1, SVG Export Plug-In . SVG Version: 6.00 Build 0)  -->
<!DOCTYPE svg PUBLIC "-//W3C//DTD SVG 1.1//EN" "http://www.w3.org/Graphics/SVG/1.1/DTD/svg11.dtd">
<svg version="1.1" xmlns="http://www.w3.org/2000/svg" xmlns:xlink="http://www.w3.org/1999/xlink" x="0px" y="0px"
	 viewBox="0 0 512 512" enable-background="new 0 0 512 512" xml:space="preserve">
<g id="Layer_1">
	<path d="M414.1,337c-0.4-87-23.4-147.3-57.6-176.6c0,0,0,0,0,0c-0.7-0.6-1.8,0.1-1.7,1c6.2,46-30.5,44.6-30.5,44.6
		s-38.9,2.6-38.9-81.6c0,0-0.6-66.1-63.9-108c-1.9-1.3-4.4,0.3-3.9,2.6c19.1,84.7-61.3,174.4-61.3,174.4
		c-63,69-58.3,143.5-58.3,143.5l0,2.3c0,86.6,72.7,156.8,159.3,156.8c88.6,0,155.1-68.4,156.8-153.5
		C414.1,340.7,414.1,339,414.1,337L414.1,337z M323.8,366.5c-0.7,37-29.7,66.2-68.2,66.2c-37.7,0-69.3-30.7-69.3-68.4l0-1.1
		c0,0-2.1-32.5,25.4-62.5c0,0,35-39,26.7-75.9c-0.2-1,0.9-1.7,1.7-1.1c27.5,18.2,27.8,47,27.8,47c0,36.6,16.9,35.5,16.9,35.5
		s16,0.6,13.3-19.4c-0.1-0.4,0.4-0.7,0.7-0.4c0,0,0,0.9,0,0.9c14.9,12.7,24.9,37.7,25.1,77.7h0C323.8,366,323.8,365.7,323.8,366.5z"
		/>
</g>
<g id="Layer_2">
</g>
</svg>
