<svg class="icon icon-hot" height="16" viewBox="0 0 11 16" version="1.1" aria-hidden="true">
    <path
      d="M10.77,10.7c0-2.9-.78-4.91-1.92-5.89h0a0,0,0,0,0-.06,0c.21,1.53-1,1.49-1,1.49s-1.3.09-1.3-2.72A4.69,4.69,0,0,0,4.35,0,.08.08,0,0,0,4.22.1c.64,2.82-2,5.81-2,5.81A7,7,0,0,0,.23,10.7v.08A5.3,5.3,0,0,0,5.54,16a5.16,5.16,0,0,0,5.23-5.12c0-.06,0-.12,0-.18Zm-3,1a2.23,2.23,0,0,1-2.27,2.21,2.31,2.31,0,0,1-2.31-2.28v0A3.06,3.06,0,0,1,4,9.49,3.41,3.41,0,0,0,4.91,7a0,0,0,0,1,.06,0,2,2,0,0,1,.93,1.57c0,1.22.56,1.18.56,1.18S7,9.69,6.9,9a0,0,0,0,1,0,0V9a3.34,3.34,0,0,1,.84,2.59h0S7.76,11.66,7.76,11.68Z"/>
</svg>
