<?xml version="1.0" encoding="utf-8"?>
<!-- Generator: Adobe Illustrator 18.1.1, SVG Export Plug-In . SVG Version: 6.00 Build 0)  -->
<!DOCTYPE svg PUBLIC "-//W3C//DTD SVG 1.1//EN" "http://www.w3.org/Graphics/SVG/1.1/DTD/svg11.dtd">
<svg version="1.1" xmlns="http://www.w3.org/2000/svg" xmlns:xlink="http://www.w3.org/1999/xlink" x="0px" y="0px"
	 viewBox="0 0 512 512" enable-background="new 0 0 512 512" xml:space="preserve">
<g id="Layer_1">
	<path d="M289.2,156.6c-19.4,33.8,1.5,65.8,19.4,69.2c18.3,3.4,45.7-5.1,45.7-58.3c0,0-0.1-6,1.7-6.9c0,0,1.1-0.4,1.9,0.3
		c35.5,30.4,59.3,133.5,59.3,183.8c0,89-69,161.2-161.2,161.2c-89,0-161.2-72.2-161.2-161.2c0-43.1,16.9-82.2,44.4-111.1
		c0,0,45.1-39.8,19.6-95.8c0,0-1.7-5.7,8.6-2.9c10.3,2.9,28,12.6,37.7,33.2c0,0,36-28,36-82.3c0,0-2.3-48.6-44.6-75.5
		c0,0-2.3-1.4-1.3-3c1-1.6,2.6-1.3,3.6-1.3c0,0,51.5,5.4,77.2,38C276,44,322.1,99.4,289.2,156.6z"/>
</g>
<g id="Layer_2">
</g>
</svg>
