<?xml version="1.0" encoding="utf-8"?>
<!-- Generator: Adobe Illustrator 16.0.0, SVG Export Plug-In . SVG Version: 6.00 Build 0)  -->
<!DOCTYPE svg PUBLIC "-//W3C//DTD SVG 1.1//EN" "http://www.w3.org/Graphics/SVG/1.1/DTD/svg11.dtd">
<svg version="1.1" id="Layer_1" xmlns="http://www.w3.org/2000/svg" xmlns:xlink="http://www.w3.org/1999/xlink" x="0px" y="0px"
	 width="300px" height="300px" viewBox="0 0 300 300" style="enable-background:new 0 0 300 300;" xml:space="preserve">
<path d="M150,5C69.928,5,5,69.928,5,150s64.928,145,145,145s145-64.928,145-145S230.072,5,150,5z M174.005,259.717h-41.566V131.955
	h-32.222v-22.232h73.788V259.717z M173.522,78.628c-4.995,4.833-11.277,7.25-18.206,7.25c-7.088,0-13.05-2.417-18.205-7.25
	c-5.156-4.833-7.572-10.633-7.572-17.4c0-6.928,2.416-12.566,7.411-17.4c4.995-4.672,11.117-7.088,18.367-7.088
	c6.928,0,13.211,2.416,18.206,7.25c5.156,4.833,7.573,10.472,7.573,17.239C181.095,67.995,178.678,73.795,173.522,78.628z"/>
<g id="Restricted">
</g>
<g id="Help">
</g>
</svg>
