<?xml version="1.0" encoding="utf-8"?>
<!-- Generator: Adobe Illustrator 16.0.0, SVG Export Plug-In . SVG Version: 6.00 Build 0)  -->
<!DOCTYPE svg PUBLIC "-//W3C//DTD SVG 1.1//EN" "http://www.w3.org/Graphics/SVG/1.1/DTD/svg11.dtd">
<svg version="1.1" id="Layer_1" xmlns="http://www.w3.org/2000/svg" xmlns:xlink="http://www.w3.org/1999/xlink" x="0px" y="0px"
	 width="300px" height="300px" viewBox="0 0 300 300" style="enable-background:new 0 0 300 300;" xml:space="preserve">
<path d="M150,32.5C85.114,32.5,32.5,85.114,32.5,150S85.114,267.5,150,267.5S267.5,214.886,267.5,150S214.886,32.5,150,32.5z
	 M169.453,238.909H135.77V135.377h-26.111v-18.016h59.794V238.909z M169.061,92.164c-4.047,3.917-9.139,5.875-14.753,5.875
	c-5.744,0-10.575-1.958-14.752-5.875c-4.178-3.917-6.136-8.617-6.136-14.1c0-5.614,1.958-10.183,6.005-14.1
	c4.047-3.786,9.008-5.744,14.883-5.744c5.614,0,10.706,1.958,14.753,5.875c4.178,3.917,6.136,8.486,6.136,13.969
	S173.239,88.248,169.061,92.164z"/>
<g id="Restricted">
</g>
<g id="Help">
</g>
</svg>
