<?xml version="1.0" encoding="utf-8"?>
<!-- Generator: Adobe Illustrator 18.1.1, SVG Export Plug-In . SVG Version: 6.00 Build 0)  -->
<!DOCTYPE svg PUBLIC "-//W3C//DTD SVG 1.1//EN" "http://www.w3.org/Graphics/SVG/1.1/DTD/svg11.dtd">
<svg version="1.1" id="Layer_1" xmlns="http://www.w3.org/2000/svg" xmlns:xlink="http://www.w3.org/1999/xlink" x="0px" y="0px"
	 viewBox="0 0 512 512" enable-background="new 0 0 512 512" xml:space="preserve">
<path d="M432.8,220.6h-40c2.9,11.3,4.7,23.1,4.7,35.4c0,78.1-63.4,141.6-141.6,141.6S114.3,334.1,114.3,256
	c0-12.3,1.8-24.1,4.7-35.4h-40v194.6c0,9.7,7.9,17.6,17.6,17.6h318.4c9.7,0,17.6-7.9,17.6-17.6V220.6L432.8,220.6z M432.8,96.8
	c0-9.7-7.9-17.6-17.6-17.6h-53.1c-9.7,0-17.6,7.9-17.6,17.6v53.1c0,9.7,7.9,17.6,17.6,17.6h53.1c9.7,0,17.6-7.9,17.6-17.6V96.8z
	 M255.9,167.5c-48.9,0-88.5,39.6-88.5,88.5s39.6,88.5,88.5,88.5s88.5-39.6,88.5-88.5S304.8,167.5,255.9,167.5 M432.8,485.9H79.1
	c-29.3,0-53.1-23.8-53.1-53.1V79.2c0-29.3,23.8-53.1,53.1-53.1h353.9c29.3,0,53.1,23.8,53.1,53.1V433
	C485.8,462.1,462.2,485.9,432.8,485.9"/>
</svg>
