<svg class="icon icon-instagram" height="16" viewBox="0 0 16 16" version="1.1" aria-hidden="true">
    <path
      d="M14.16,6.78h-1.4A4.8,4.8,0,0,1,12.92,8,4.92,4.92,0,0,1,3.07,8a4.82,4.82,0,0,1,.16-1.23H1.84v6.76a.62.62,0,0,0,.62.62H13.53a.63.63,0,0,0,.62-.62V6.78Zm0-4.33a.61.61,0,0,0-.61-.61H11.67a.61.61,0,0,0-.61.61V4.29a.61.61,0,0,0,.61.61h1.83a.61.61,0,0,0,.61-.61ZM8,4.92A3.08,3.08,0,1,0,11.08,8,3.08,3.08,0,0,0,8,4.92M14.16,16H1.85A1.85,1.85,0,0,1,0,14.15V1.85A1.85,1.85,0,0,1,1.85,0H14.15A1.85,1.85,0,0,1,16,1.85V14.16A1.85,1.85,0,0,1,14.15,16"/>
</svg>
