<?xml version="1.0" encoding="utf-8"?>
<!-- Generator: Adobe Illustrator 18.1.1, SVG Export Plug-In . SVG Version: 6.00 Build 0)  -->
<!DOCTYPE svg PUBLIC "-//W3C//DTD SVG 1.1//EN" "http://www.w3.org/Graphics/SVG/1.1/DTD/svg11.dtd">
<svg version="1.1" xmlns="http://www.w3.org/2000/svg" xmlns:xlink="http://www.w3.org/1999/xlink" x="0px" y="0px"
	 viewBox="0 0 512 512" enable-background="new 0 0 512 512" xml:space="preserve">
<g id="Layer_1">
	<g>
		<path d="M256.5,466.5c-12.6,0-24.9-5.1-33.8-14.1L72.1,300.6c-25.6-25.6-39.7-59.7-39.7-96c0-36.3,14.1-70.4,39.8-96.1
			s59.8-39.8,96.1-39.8c33.3,0,62,11.7,87.8,35.8c25.4-24.1,54.5-35.8,88.7-35.8c36.3,0,70.4,14.1,96.1,39.8
			c25.7,25.7,39.8,59.8,39.8,96.1c0,36.3-14.1,70.4-39.8,96L290.3,452.4C281.4,461.4,269.1,466.5,256.5,466.5z"/>
	</g>
</g>
<g id="Layer_2">
</g>
</svg>
