<?xml version="1.0" encoding="utf-8"?>
<!-- Generator: Adobe Illustrator 18.1.1, SVG Export Plug-In . SVG Version: 6.00 Build 0)  -->
<!DOCTYPE svg PUBLIC "-//W3C//DTD SVG 1.1//EN" "http://www.w3.org/Graphics/SVG/1.1/DTD/svg11.dtd">
<svg version="1.1" xmlns="http://www.w3.org/2000/svg" xmlns:xlink="http://www.w3.org/1999/xlink" x="0px" y="0px"
	 viewBox="0 0 512 512" enable-background="new 0 0 512 512" xml:space="preserve">
<g id="Layer_1">
	<g>
		<path d="M256,460.1c-12.9,0-25.6-5.3-34.7-14.5L66.7,289.8C40.5,263.5,26,228.5,26,191.3c0-37.2,14.5-72.3,40.8-98.6
			s61.4-40.8,98.6-40.8c34.1,0,63.7,12,90.1,36.8c26.1-24.7,55.9-36.8,91.1-36.8c37.2,0,72.3,14.5,98.6,40.8
			c26.3,26.3,40.8,61.4,40.8,98.6c0,37.2-14.5,72.2-40.8,98.6L290.7,445.7C281.6,454.9,268.9,460.1,256,460.1z"/>
	</g>
</g>
<g id="Layer_2">
</g>
</svg>
