<?xml version="1.0" encoding="utf-8"?>
<!-- Generator: Adobe Illustrator 18.1.1, SVG Export Plug-In . SVG Version: 6.00 Build 0)  -->
<!DOCTYPE svg PUBLIC "-//W3C//DTD SVG 1.1//EN" "http://www.w3.org/Graphics/SVG/1.1/DTD/svg11.dtd">
<svg version="1.1" xmlns="http://www.w3.org/2000/svg" xmlns:xlink="http://www.w3.org/1999/xlink" x="0px" y="0px"
	 viewBox="0 0 512 512" enable-background="new 0 0 512 512" xml:space="preserve">
<g id="Layer_1">
	<g>
		<path d="M256,477.9c-14.1,0-27.8-5.7-37.7-15.7l-168-169.4C21.8,264.2,6,226.2,6,185.7c0-40.5,15.8-78.5,44.4-107.2
			s66.7-44.4,107.2-44.4c37.1,0,69.2,13.1,97.9,39.9c28.4-26.9,60.8-39.9,99-39.9c40.5,0,78.5,15.8,107.2,44.4
			c28.6,28.6,44.4,66.7,44.4,107.2c0,40.5-15.8,78.5-44.4,107.1L293.7,462.2C283.8,472.1,270.1,477.9,256,477.9z"/>
	</g>
</g>
<g id="Layer_2">
</g>
</svg>
