<?xml version="1.0" encoding="utf-8"?>
<!-- Generator: Adobe Illustrator 18.1.1, SVG Export Plug-In . SVG Version: 6.00 Build 0)  -->
<!DOCTYPE svg PUBLIC "-//W3C//DTD SVG 1.1//EN" "http://www.w3.org/Graphics/SVG/1.1/DTD/svg11.dtd">
<svg version="1.1" xmlns="http://www.w3.org/2000/svg" xmlns:xlink="http://www.w3.org/1999/xlink" x="0px" y="0px"
	 viewBox="0 0 512 512" enable-background="new 0 0 512 512" xml:space="preserve">
<g id="Layer_1">
	<path d="M244.7,34.4c-95.1,0-172.5,75.6-172.5,168.5c0,122.6,160.2,271.8,167,278.1c1.4,1.3,3.3,2,5.1,2c1.9,0,3.7-0.7,5.1-2.1
		c6.8-6.5,166.5-159.4,166.5-278.1C415.9,108.4,340.7,34.4,244.7,34.4z M244.7,257.9c-32.8,0-59.4-26.6-59.4-59.4
		s26.6-59.4,59.4-59.4c32.8,0,59.4,26.6,59.4,59.4S277.5,257.9,244.7,257.9z"/>
</g>
<g id="Layer_2">
</g>
</svg>
