<?xml version="1.0" encoding="utf-8"?>
<!-- Generator: Adobe Illustrator 18.1.1, SVG Export Plug-In . SVG Version: 6.00 Build 0)  -->
<!DOCTYPE svg PUBLIC "-//W3C//DTD SVG 1.1//EN" "http://www.w3.org/Graphics/SVG/1.1/DTD/svg11.dtd">
<svg version="1.1" xmlns="http://www.w3.org/2000/svg" xmlns:xlink="http://www.w3.org/1999/xlink" x="0px" y="0px"
	 viewBox="0 0 512 512" enable-background="new 0 0 512 512" xml:space="preserve">
<g id="Layer_1">
	<path d="M256.8,6C150.7,6,64.5,90.2,64.5,193.8c0,136.6,178.5,303,186.1,310c1.6,1.5,3.6,2.2,5.7,2.2c2.1,0,4.1-0.8,5.7-2.3
		c7.6-7.2,185.6-177.6,185.6-309.9C447.5,88.5,363.7,6,256.8,6z M256.8,255.1c-36.6,0-66.2-29.6-66.2-66.2s29.6-66.2,66.2-66.2
		c36.6,0,66.2,29.6,66.2,66.2S293.3,255.1,256.8,255.1z"/>
</g>
<g id="Layer_2">
</g>
</svg>
