<?xml version="1.0" encoding="utf-8"?>
<!-- Generator: Adobe Illustrator 18.1.1, SVG Export Plug-In . SVG Version: 6.00 Build 0)  -->
<!DOCTYPE svg PUBLIC "-//W3C//DTD SVG 1.1//EN" "http://www.w3.org/Graphics/SVG/1.1/DTD/svg11.dtd">
<svg version="1.1" xmlns="http://www.w3.org/2000/svg" xmlns:xlink="http://www.w3.org/1999/xlink" x="0px" y="0px"
	 viewBox="0 0 512 512" enable-background="new 0 0 512 512" xml:space="preserve">
<g id="Layer_1">
	<path d="M462.5,186H141.4c8.6-59,59.1-103.7,119.9-103.7c26.3,0,51.3,8.2,72.4,23.9l26.8-36c-28.8-21.5-63.1-32.7-99.1-32.7
		C175.8,37.5,105.1,102,96.3,186H59.2c-12.4,0-22.2,9.8-22.2,22.1v239.2c0,12.4,9.8,22.6,22.2,22.6h403.4
		c12.4,0,22.5-10.2,22.5-22.6V208.1C485,195.8,474.9,186,462.5,186z M261,381.2c-29.2,0-52.9-23.7-52.9-52.9s23.7-52.9,52.9-52.9
		s52.9,23.7,52.9,52.9S290.2,381.2,261,381.2z"/>
</g>
<g id="Layer_2">
</g>
</svg>
