<?xml version="1.0" encoding="utf-8"?>
<!-- Generator: Adobe Illustrator 18.1.1, SVG Export Plug-In . SVG Version: 6.00 Build 0)  -->
<!DOCTYPE svg PUBLIC "-//W3C//DTD SVG 1.1//EN" "http://www.w3.org/Graphics/SVG/1.1/DTD/svg11.dtd">
<svg version="1.1" xmlns="http://www.w3.org/2000/svg" xmlns:xlink="http://www.w3.org/1999/xlink" x="0px" y="0px"
	 viewBox="0 0 512 512" enable-background="new 0 0 512 512" xml:space="preserve">
<g id="Layer_1">
	<path d="M461.9,186h-36.1C417,102,346.3,37.7,260.8,37.7C175.2,37.7,104.5,102,95.7,186H58.6c-12.4,0-22.6,9.8-22.6,22.1v239.2
		c0,12.4,10.2,22.6,22.6,22.6h403.4c12.4,0,22.1-10.2,22.1-22.6V208.1C484,195.8,474.3,186,461.9,186z M260.4,381.2
		c-29.2,0-52.9-23.7-52.9-52.9s23.7-52.9,52.9-52.9c29.2,0,52.9,23.7,52.9,52.9S289.6,381.2,260.4,381.2z M140.9,186
		c8.6-59,59.1-103.5,119.9-103.5c60.8,0,111.3,44.5,119.9,103.5H140.9z"/>
</g>
<g id="Layer_2">
</g>
</svg>
