<?xml version="1.0" encoding="utf-8"?>
<!-- Generator: Adobe Illustrator 18.1.1, SVG Export Plug-In . SVG Version: 6.00 Build 0)  -->
<!DOCTYPE svg PUBLIC "-//W3C//DTD SVG 1.1//EN" "http://www.w3.org/Graphics/SVG/1.1/DTD/svg11.dtd">
<svg version="1.1" xmlns="http://www.w3.org/2000/svg" xmlns:xlink="http://www.w3.org/1999/xlink" x="0px" y="0px"
	 viewBox="0 0 512 512" enable-background="new 0 0 512 512" xml:space="preserve">
<g id="Layer_1">
	<path d="M462.9,186H133.2c8.8-61,60.7-106.2,123.1-106.2c27,0,52.7,8.5,74.3,24.6l27.5-36.9c-29.6-22.1-64.8-33.8-101.8-33.8
		C168.5,33.7,95.9,100,86.9,186H48.8C36.1,186,26,196.4,26,209.1v245.6c0,12.7,10.1,23.2,22.8,23.2h414.2
		c12.7,0,23.1-10.5,23.1-23.2V209.1C486,196.4,475.6,186,462.9,186z M256,386.8c-30,0-54.3-24.3-54.3-54.3s24.3-54.3,54.3-54.3
		s54.3,24.3,54.3,54.3S286,386.8,256,386.8z"/>
</g>
<g id="Layer_2">
</g>
</svg>
