<?xml version="1.0" encoding="utf-8"?>
<!-- Generator: Adobe Illustrator 18.1.1, SVG Export Plug-In . SVG Version: 6.00 Build 0)  -->
<!DOCTYPE svg PUBLIC "-//W3C//DTD SVG 1.1//EN" "http://www.w3.org/Graphics/SVG/1.1/DTD/svg11.dtd">
<svg version="1.1" xmlns="http://www.w3.org/2000/svg" xmlns:xlink="http://www.w3.org/1999/xlink" x="0px" y="0px"
	 viewBox="0 0 512 512" enable-background="new 0 0 512 512" xml:space="preserve">
<g id="Layer_1">
	<path d="M481.4,180h-40.3c-9.9-94-88.7-165.6-184.2-165.6C161.3,14.4,82.5,86,72.6,180H31.2C17.4,180,6,191.2,6,205v267
		c0,13.8,11.4,25,25.2,25h450.2c13.8,0,24.6-11.2,24.6-25V205C506,191.2,495.2,180,481.4,180z M256.5,398.2c-32.6,0-59-26.4-59-59
		s26.4-59,59-59c32.6,0,59,26.4,59,59S289.1,398.2,256.5,398.2z M123,180c9.6-66,65.9-115.5,133.8-115.5
		c67.9,0,124.2,49.5,133.8,115.5H123z"/>
</g>
<g id="Layer_2">
</g>
</svg>
