<?xml version="1.0" encoding="utf-8"?>
<!-- Generator: Adobe Illustrator 16.0.0, SVG Export Plug-In . SVG Version: 6.00 Build 0)  -->
<!DOCTYPE svg PUBLIC "-//W3C//DTD SVG 1.1//EN" "http://www.w3.org/Graphics/SVG/1.1/DTD/svg11.dtd">
<svg version="1.1" id="Layer_1" xmlns="http://www.w3.org/2000/svg" xmlns:xlink="http://www.w3.org/1999/xlink" x="0px" y="0px"
	 width="300px" height="300px" viewBox="0 0 300 300" style="enable-background:new 0 0 300 300;" xml:space="preserve">
<path d="M243.445,120.203h-0.563V99.687c-0.561-50.866-42.434-92.179-93.303-92.179c-50.586,0-92.46,41.171-93.163,91.758
	c0,0.281,0,9.555,0,20.937c-5.201,0.142-9.416,4.358-9.416,9.555v135.179c0,5.2,4.215,9.555,9.555,9.555h186.89
	c5.34,0,9.555-4.355,9.555-9.555V129.758C253,124.418,248.785,120.203,243.445,120.203z M166.439,230.511h-33.161l8.711-38.221
	c-8.29-3.232-14.192-11.243-14.192-20.798c0-12.084,9.837-21.921,21.92-21.921c12.227,0,22.064,9.837,22.064,21.921
	c0,10.118-6.605,18.55-15.74,21.079L166.439,230.511z M217.45,120.203H82.129c0-11.1,0-20.095,0.142-20.516
	c0.56-36.674,30.773-66.465,67.447-66.465c36.817,0,67.169,29.791,67.732,66.465V120.203z"/>
<g id="Restricted">
</g>
<g id="Help">
</g>
</svg>
