<?xml version="1.0" encoding="utf-8"?>
<!-- Generator: Adobe Illustrator 18.1.1, SVG Export Plug-In . SVG Version: 6.00 Build 0)  -->
<!DOCTYPE svg PUBLIC "-//W3C//DTD SVG 1.1//EN" "http://www.w3.org/Graphics/SVG/1.1/DTD/svg11.dtd">
<svg version="1.1" xmlns="http://www.w3.org/2000/svg" xmlns:xlink="http://www.w3.org/1999/xlink" x="0px" y="0px"
	 viewBox="0 0 512 512" enable-background="new 0 0 512 512" xml:space="preserve">
<g id="Layer_1">
	<path d="M480.9,180H122.6c9.6-66,65.9-115.5,133.8-115.5c29.4,0,57.3,9.3,80.7,26.8L367,51.2c-32.2-24-70.4-36.7-110.7-36.7
		C160.9,14.5,82,86,72.1,180H30.8C16.9,180,6,191.3,6,205.1v267C6,485.9,16.9,497,30.8,497h450.2c13.8,0,25.1-11.1,25.1-24.9v-267
		C506,191.3,494.7,180,480.9,180z M256,398.2c-32.6,0-59-26.4-59-59s26.4-59,59-59s59,26.4,59,59S288.6,398.2,256,398.2z"/>
</g>
<g id="Layer_2">
</g>
</svg>
