<?xml version="1.0" encoding="utf-8"?>
<!-- Generator: Adobe Illustrator 16.0.0, SVG Export Plug-In . SVG Version: 6.00 Build 0)  -->
<!DOCTYPE svg PUBLIC "-//W3C//DTD SVG 1.1//EN" "http://www.w3.org/Graphics/SVG/1.1/DTD/svg11.dtd">
<svg version="1.1" id="Layer_1" xmlns="http://www.w3.org/2000/svg" xmlns:xlink="http://www.w3.org/1999/xlink" x="0px" y="0px"
	 width="300px" height="300px" viewBox="0 0 300 300" style="enable-background:new 0 0 300 300;" xml:space="preserve">
<path d="M251.5,127.411h-0.61v-22.285C250.279,49.874,204.795,5,149.542,5C94.595,5,49.11,49.721,48.348,104.668
	c0,0.306,0,10.379,0,22.743c-5.648,0.152-10.227,4.731-10.227,10.378v146.832C38.121,290.269,42.7,295,48.5,295h203
	c5.8,0,10.379-4.731,10.379-10.379V137.789C261.879,131.989,257.3,127.411,251.5,127.411z M167.858,247.226h-36.021l9.463-41.515
	c-9.005-3.511-15.416-12.211-15.416-22.59c0-13.126,10.684-23.811,23.81-23.811c13.279,0,23.964,10.685,23.964,23.811
	c0,10.989-7.174,20.147-17.095,22.895L167.858,247.226z M223.263,127.411H76.279c0-12.058,0-21.827,0.152-22.285
	c0.61-39.837,33.426-72.194,73.263-72.194c39.99,0,72.958,32.357,73.568,72.194V127.411z"/>
<g id="Restricted">
</g>
<g id="Help">
</g>
</svg>
