<?xml version="1.0" encoding="utf-8"?>
<!-- Generator: Adobe Illustrator 18.1.1, SVG Export Plug-In . SVG Version: 6.00 Build 0)  -->
<!DOCTYPE svg PUBLIC "-//W3C//DTD SVG 1.1//EN" "http://www.w3.org/Graphics/SVG/1.1/DTD/svg11.dtd">
<svg version="1.1" xmlns="http://www.w3.org/2000/svg" xmlns:xlink="http://www.w3.org/1999/xlink" x="0px" y="0px"
	 viewBox="0 0 512 512" enable-background="new 0 0 512 512" xml:space="preserve">
<g id="Layer_1">
	<g>
		<path d="M373.2,93.9c-10.6-7-24.8-4-31.8,6.6c-7,10.6-4,24.8,6.6,31.8c47.4,31.2,75.7,83.6,75.7,140.2
			c0,92.4-75.2,167.7-167.7,167.7S88.3,364.9,88.3,272.4c0-57.2,28.7-109.8,76.7-140.9c10.6-6.9,13.7-21.1,6.8-31.7
			c-6.9-10.6-21.1-13.7-31.7-6.8C79,132.6,42.4,199.6,42.4,272.4C42.4,390.2,138.2,486,256,486s213.6-95.8,213.6-213.6
			C469.6,200.3,433.5,133.6,373.2,93.9z"/>
		<path d="M256,242.8c12.7,0,23-10.3,23-23V49c0-12.7-10.3-23-23-23c-12.7,0-23,10.3-23,23v170.9C233,232.5,243.3,242.8,256,242.8z"
			/>
	</g>
</g>
<g id="Layer_2">
</g>
</svg>
