<?xml version="1.0" encoding="utf-8"?>
<!-- Generator: Adobe Illustrator 16.0.0, SVG Export Plug-In . SVG Version: 6.00 Build 0)  -->
<!DOCTYPE svg PUBLIC "-//W3C//DTD SVG 1.1//EN" "http://www.w3.org/Graphics/SVG/1.1/DTD/svg11.dtd">
<svg version="1.1" xmlns="http://www.w3.org/2000/svg" xmlns:xlink="http://www.w3.org/1999/xlink" x="0px" y="0px" width="300px"
	 height="300px" viewBox="0 0 300 300" style="enable-background:new 0 0 300 300;" xml:space="preserve">
<g id="Layer_1">
	<g id="Restricted">
	</g>
	<g id="Help">
	</g>
</g>
<g id="Layer_4">
	<g>
		<path style="fill:none;" d="M184.139,152.501c-1.316,1.95-2.808,4.161-3.695,6.893c-0.911,2.805-1.018,5.524-1.112,7.924
			c-0.041,1.051-0.101,2.57-0.264,3.309c-0.654,0.389-2.1,0.919-3.098,1.285c-2.247,0.824-4.794,1.759-7.167,3.485
			c-2.349,1.71-4.007,3.831-5.47,5.703c-0.658,0.841-1.609,2.058-2.187,2.565c-0.759-0.082-2.075-0.453-3.157-0.758
			C155.65,182.247,153,181.5,150,181.5s-5.65,0.747-7.989,1.407c-1.075,0.303-2.382,0.671-3.159,0.756
			c-0.578-0.509-1.527-1.724-2.185-2.563c-1.463-1.872-3.122-3.993-5.472-5.704c-2.372-1.726-4.918-2.66-7.166-3.484
			c-0.998-0.366-2.443-0.896-3.098-1.285c-0.163-0.739-0.223-2.259-0.264-3.309c-0.094-2.399-0.201-5.119-1.112-7.924
			c-0.887-2.731-2.379-4.942-3.695-6.893c-0.632-0.937-1.559-2.31-1.82-3.001c0.261-0.691,1.188-2.064,1.82-3.001
			c1.316-1.95,2.808-4.161,3.695-6.893c0.911-2.805,1.018-5.524,1.112-7.924c0.041-1.05,0.101-2.569,0.264-3.308
			c0.654-0.39,2.1-0.92,3.098-1.286c2.247-0.824,4.794-1.759,7.167-3.485c2.349-1.71,4.007-3.831,5.47-5.703
			c0.658-0.841,1.609-2.058,2.187-2.565c0.759,0.082,2.075,0.453,3.158,0.758c2.338,0.66,4.989,1.407,7.988,1.407
			s5.65-0.747,7.988-1.407c1.076-0.303,2.382-0.671,3.16-0.756c0.578,0.509,1.527,1.724,2.185,2.563
			c1.463,1.872,3.123,3.994,5.471,5.703c2.372,1.727,4.919,2.662,7.167,3.486c0.998,0.366,2.443,0.896,3.097,1.285
			c0.163,0.738,0.223,2.258,0.264,3.308c0.094,2.399,0.201,5.119,1.112,7.924c0.887,2.731,2.379,4.942,3.695,6.893
			c0.632,0.937,1.559,2.31,1.82,3.001C185.698,150.191,184.771,151.564,184.139,152.501z"/>
		<g>
			<path d="M118.518,112.068c1.202-0.44,2.698-0.99,3.264-1.401c0.538-0.392,1.504-1.628,2.281-2.621
				c2.126-2.72,5.039-6.444,9.867-8.012c1.461-0.475,3.028-0.715,4.659-0.715c2.891,0,5.481,0.73,7.766,1.374
				c1.34,0.378,2.859,0.807,3.646,0.807s2.306-0.429,3.646-0.807c2.285-0.644,4.875-1.374,7.766-1.374
				c1.63,0,3.198,0.24,4.658,0.714c4.828,1.568,7.74,5.293,9.867,8.013c0.777,0.993,1.743,2.229,2.282,2.621
				c0.566,0.412,2.062,0.961,3.264,1.402c2.249,0.825,5.077,2.116,7.585,4.05L281.79,47H18.21l92.72,69.12
				C113.439,114.186,116.269,112.894,118.518,112.068z"/>
			<path d="M196.162,135.643c0.363,0.605,0.844,1.32,1.239,1.905c1.94,2.876,4.599,6.814,4.599,11.952s-2.658,9.076-4.599,11.952
				c-0.653,0.968-1.548,2.294-1.74,2.883c-0.228,0.701-0.289,2.247-0.342,3.61c-0.134,3.416-0.318,8.096-3.253,12.128
				c-2.953,4.059-7.365,5.677-10.585,6.858c-1.202,0.441-2.697,0.99-3.263,1.401c-0.538,0.392-1.504,1.628-2.281,2.621
				c-2.126,2.72-5.039,6.444-9.866,8.012c-1.461,0.475-3.029,0.715-4.659,0.715c-2.892,0-5.481-0.73-7.767-1.374
				c-1.34-0.378-2.859-0.807-3.646-0.807c-0.787,0-2.306,0.429-3.646,0.807c-2.285,0.644-4.875,1.374-7.765,1.374
				c-1.63,0-3.198-0.24-4.659-0.714c-4.829-1.568-7.74-5.293-9.867-8.013c-0.777-0.993-1.743-2.229-2.283-2.622
				c-0.564-0.411-2.061-0.96-3.262-1.4c-3.221-1.182-7.631-2.8-10.585-6.858c-2.935-4.033-3.119-8.712-3.253-12.128
				c-0.053-1.363-0.114-2.909-0.342-3.61c-0.191-0.589-1.086-1.915-1.739-2.883C100.658,158.576,98,154.638,98,149.5
				s2.658-9.076,4.599-11.952c0.395-0.585,0.876-1.3,1.239-1.905L5,61.625v185.438C5,250.445,7.899,254,11.444,254h277.112
				c3.544,0,6.444-3.555,6.444-6.938V61.625L196.162,135.643z"/>
			<path d="M183.311,145.254c-0.145-0.222-0.286-0.451-0.43-0.68c-0.181-0.287-0.359-0.578-0.536-0.877
				c-0.124-0.209-0.243-0.422-0.362-0.638c-0.194-0.351-0.378-0.713-0.559-1.083c-0.093-0.191-0.188-0.377-0.276-0.573
				c-0.258-0.575-0.5-1.169-0.705-1.797c-0.911-2.805-1.018-5.524-1.112-7.924c-0.041-1.05-0.101-2.569-0.264-3.308
				c-0.654-0.389-2.099-0.919-3.097-1.285c-2.248-0.824-4.795-1.76-7.167-3.486c-2.349-1.709-4.008-3.831-5.471-5.703
				c-0.657-0.84-1.607-2.055-2.185-2.563c-0.778,0.085-2.084,0.453-3.16,0.756C155.65,116.753,153,117.5,150,117.5
				s-5.65-0.747-7.988-1.407c-1.083-0.305-2.398-0.676-3.158-0.758c-0.577,0.508-1.529,1.725-2.187,2.565
				c-1.463,1.872-3.122,3.993-5.47,5.703c-2.373,1.727-4.92,2.661-7.167,3.485c-0.998,0.366-2.443,0.896-3.098,1.286
				c-0.163,0.738-0.223,2.258-0.264,3.308c-0.094,2.399-0.201,5.119-1.112,7.924c-0.204,0.628-0.446,1.222-0.705,1.797
				c-0.088,0.196-0.183,0.382-0.276,0.573c-0.18,0.37-0.364,0.732-0.559,1.083c-0.12,0.216-0.239,0.429-0.362,0.638
				c-0.177,0.299-0.354,0.59-0.536,0.877c-0.145,0.229-0.285,0.458-0.43,0.68c-0.002,0.003-0.003,0.006-0.005,0.009l0,0
				c-0.276,0.422-0.554,0.839-0.822,1.236c-0.632,0.937-1.559,2.31-1.82,3.001c0.261,0.691,1.188,2.064,1.82,3.001
				c1.316,1.95,2.808,4.161,3.695,6.893c0.911,2.805,1.018,5.524,1.112,7.924c0.041,1.05,0.101,2.569,0.264,3.309
				c0.654,0.389,2.1,0.919,3.098,1.285c2.247,0.824,4.794,1.759,7.166,3.484c2.35,1.711,4.009,3.832,5.472,5.704
				c0.657,0.84,1.607,2.055,2.185,2.563c0.777-0.085,2.084-0.453,3.159-0.756c2.339-0.66,4.989-1.407,7.989-1.407
				s5.65,0.747,7.988,1.407c1.083,0.305,2.398,0.676,3.157,0.758c0.578-0.508,1.529-1.725,2.187-2.565
				c1.463-1.872,3.122-3.993,5.47-5.703c2.373-1.727,4.92-2.661,7.167-3.485c0.998-0.366,2.443-0.896,3.098-1.285
				c0.163-0.738,0.223-2.258,0.264-3.309c0.094-2.399,0.201-5.119,1.112-7.924c0.887-2.731,2.379-4.942,3.695-6.893
				c0.632-0.937,1.559-2.31,1.82-3.001c-0.261-0.691-1.188-2.064-1.82-3.001c-0.269-0.397-0.546-0.814-0.822-1.236l0,0
				C183.314,145.26,183.313,145.257,183.311,145.254z"/>
		</g>
	</g>
</g>
</svg>
