<?xml version="1.0" encoding="utf-8"?>
<!-- Generator: Adobe Illustrator 18.1.1, SVG Export Plug-In . SVG Version: 6.00 Build 0)  -->
<!DOCTYPE svg PUBLIC "-//W3C//DTD SVG 1.1//EN" "http://www.w3.org/Graphics/SVG/1.1/DTD/svg11.dtd">
<svg version="1.1" xmlns="http://www.w3.org/2000/svg" xmlns:xlink="http://www.w3.org/1999/xlink" x="0px" y="0px"
	 viewBox="0 0 512 512" enable-background="new 0 0 512 512" xml:space="preserve">
<g id="Layer_1">
	<g>
		<polygon fill-rule="evenodd" clip-rule="evenodd" points="179.2,112.5 179.2,112.5 179.2,112.5 		"/>
	</g>
	<g>
		<path fill-rule="evenodd" clip-rule="evenodd" d="M165.2,110.6L73.4,65C66.1,61.4,61,65.2,61,73.4v250.8c0,8.2,5.4,17.9,12.7,21.5
			l91.8,45.6c7.4,3.6,12.5-0.1,12.5-8.4V132.1C178,123.9,172.6,114.2,165.2,110.6z"/>
		<polygon fill-rule="evenodd" clip-rule="evenodd" points="44.7,343.8 44.7,343.8 44.7,343.8 		"/>
		<polygon fill-rule="evenodd" clip-rule="evenodd" points="313.7,343.8 313.7,343.8 313.7,343.8 		"/>
		<path fill-rule="evenodd" clip-rule="evenodd" d="M329.6,233c-49.6,0-90,40-90,89.2c0,64.9,83.6,143.9,87.1,147.2
			c0.7,0.7,1.7,1.1,2.6,1.1c1,0,1.9-0.4,2.7-1.1c3.5-3.4,86.9-84.4,86.9-147.2C418.9,272.1,379.7,233,329.6,233z M329.6,351.2
			c-17.1,0-31-14.1-31-31.4s13.9-31.4,31-31.4c17.1,0,31,14.1,31,31.4S346.7,351.2,329.6,351.2z"/>
		<path fill-rule="evenodd" clip-rule="evenodd" d="M314,219.4v-146c0-8.2-6.2-12-13.6-8.4l-92.9,45.6c-7.4,3.6-13.6,13.3-13.6,21.5
			v250.8c0,8.2,6.1,12,13.5,8.4l30.8-15.1c-8.1-17.7-13.4-36.2-13.4-54.1C224.8,270.1,263,227,314,219.4z"/>
		<path fill-rule="evenodd" clip-rule="evenodd" d="M434.7,110.6l-93-45.6c-7.4-3.6-13.7,0.1-13.7,8.4v144.7c1,0,1,0,1.3,0
			c58.5,0,104.4,45.7,104.4,104.1c0,19.7-6.9,40.5-17,60.3l17.9,8.8c7.4,3.6,13.4-0.1,13.4-8.4V132.1
			C448,123.9,442.1,114.2,434.7,110.6z"/>
	</g>
</g>
<g id="Layer_2">
</g>
</svg>
