<svg class="icon icon-map" height="16" viewBox="0 0 16 16" version="1.1" aria-hidden="true">
    <polygon points="1.7 3.12 1.7 3.12 1.7 3.12 1.7 3.12"/>
    <path d="M4.81,1.85,1.19.05C.9-.09.7.06.7.38v9.87a1,1,0,0,0,.51.85l3.62,1.79c.29.14.5,0,.5-.33V2.69A1,1,0,0,0,4.81,1.85Z"/>
    <polygon points="0.07 11.02 0.07 11.02 0.07 11.02 0.07 11.02"/>
    <polygon points="10.65 11.02 10.65 11.02 10.65 11.02 10.65 11.02"/>
    <path
      d="M11.28,6.66a3.53,3.53,0,0,0-3.54,3.51c0,2.55,3.29,5.66,3.43,5.79a.15.15,0,0,0,.21,0c.14-.13,3.42-3.32,3.42-5.79A3.47,3.47,0,0,0,11.28,6.66Zm0,4.65a1.24,1.24,0,1,1,1.22-1.24A1.23,1.23,0,0,1,11.28,11.31Z"/>
    <path
      d="M10.64,6.12V.38a.34.34,0,0,0-.52-.33L6.47,1.85a1,1,0,0,0-.53.85v9.87a.34.34,0,0,0,.53.33l1.21-.59a5.2,5.2,0,0,1-.54-2.13A4.1,4.1,0,0,1,10.64,6.12Z"/>
    <path
      d="M15.41,1.85,11.74.05a.35.35,0,0,0-.54.33V6.07h.06a4.06,4.06,0,0,1,4.11,4.1,5.41,5.41,0,0,1-.67,2.37l.7.35a.34.34,0,0,0,.53-.33V2.69A1,1,0,0,0,15.41,1.85Z"/>
</svg>
