<?xml version="1.0" encoding="utf-8"?>
<!-- Generator: Adobe Illustrator 18.1.1, SVG Export Plug-In . SVG Version: 6.00 Build 0)  -->
<!DOCTYPE svg PUBLIC "-//W3C//DTD SVG 1.1//EN" "http://www.w3.org/Graphics/SVG/1.1/DTD/svg11.dtd">
<svg version="1.1" xmlns="http://www.w3.org/2000/svg" xmlns:xlink="http://www.w3.org/1999/xlink" x="0px" y="0px"
	 viewBox="0 0 512 512" enable-background="new 0 0 512 512" xml:space="preserve">
<g id="Layer_1">
	<g>
		<polygon fill-rule="evenodd" clip-rule="evenodd" points="179.2,112.5 179.2,112.5 179.2,112.5 		"/>
	</g>
	<g>
		<path fill-rule="evenodd" clip-rule="evenodd" d="M156.2,63.7L43.4,7.7C34.3,3.2,28,7.9,28,18v308.3c0,10.1,6.7,22,15.7,26.5
			l112.9,56c9.1,4.5,15.4-0.2,15.4-10.3V90.2C172,80.1,165.3,68.2,156.2,63.7z"/>
		<polygon fill-rule="evenodd" clip-rule="evenodd" points="8.1,350.4 8.1,350.4 8.1,350.4 		"/>
		<polygon fill-rule="evenodd" clip-rule="evenodd" points="338.8,350.4 338.8,350.4 338.8,350.4 		"/>
		<path fill-rule="evenodd" clip-rule="evenodd" d="M358.3,214.1c-61,0-110.7,49.2-110.7,109.6c0,79.8,102.7,176.9,107.1,181
			c0.9,0.9,2.1,1.3,3.3,1.3c1.2,0,2.4-0.4,3.3-1.3c4.4-4.2,106.8-103.7,106.8-180.9C468.1,262.3,419.9,214.1,358.3,214.1z
			 M358.4,359.5c-21,0-38.1-17.3-38.1-38.6c0-21.3,17.1-38.6,38.1-38.6c21,0,38.1,17.3,38.1,38.6
			C396.5,342.2,379.4,359.5,358.4,359.5z"/>
		<path fill-rule="evenodd" clip-rule="evenodd" d="M339,197.4V18c0-10.1-7.5-14.7-16.6-10.3l-113.9,56
			c-9.1,4.5-16.5,16.4-16.5,26.5v308.3c0,10.1,7.3,14.7,16.4,10.3l37.7-18.5c-10-21.8-16.6-44.5-16.6-66.5
			C229.5,259.8,277,206.8,339,197.4z"/>
		<path fill-rule="evenodd" clip-rule="evenodd" d="M487.6,63.7L373,7.7C364,3.2,356,7.9,356,18v177.9c2,0,1.4-0.1,1.8-0.1
			c71.9,0,128.4,56.2,128.4,128c0,24.2-8.5,49.8-20.8,74.1l22.1,10.9c9.1,4.5,16.5-0.2,16.5-10.3V90.2
			C504,80.1,496.6,68.2,487.6,63.7z"/>
	</g>
</g>
<g id="Layer_2">
</g>
</svg>
