<?xml version="1.0" encoding="utf-8"?>
<!-- Generator: Adobe Illustrator 18.1.1, SVG Export Plug-In . SVG Version: 6.00 Build 0)  -->
<!DOCTYPE svg PUBLIC "-//W3C//DTD SVG 1.1//EN" "http://www.w3.org/Graphics/SVG/1.1/DTD/svg11.dtd">
<svg version="1.1" xmlns="http://www.w3.org/2000/svg" xmlns:xlink="http://www.w3.org/1999/xlink" x="0px" y="0px"
	 viewBox="0 0 512 512" enable-background="new 0 0 512 512" xml:space="preserve">
<g id="Layer_1">
	<g>
		<polygon fill-rule="evenodd" clip-rule="evenodd" points="179.2,112.5 179.2,112.5 179.2,112.5 		"/>
	</g>
	<g>
		<path fill-rule="evenodd" clip-rule="evenodd" d="M164.4,79.1l-104-51.5C52,23.5,46,27.7,46,37v283.7c0,9.3,6.3,20.3,14.6,24.4
			l104,51.5c8.3,4.1,14.4-0.2,14.4-9.4V103.4C179,94.1,172.7,83.2,164.4,79.1z"/>
		<polygon fill-rule="evenodd" clip-rule="evenodd" points="28,342.8 28,342.8 28,342.8 		"/>
		<polygon fill-rule="evenodd" clip-rule="evenodd" points="332.2,342.8 332.2,342.8 332.2,342.8 		"/>
		<path fill-rule="evenodd" clip-rule="evenodd" d="M350.2,217.5c-56.1,0-101.8,45.2-101.8,100.8c0,73.4,94.5,162.7,98.5,166.5
			c0.8,0.8,1.9,1.2,3,1.2c1.1,0,2.2-0.4,3-1.2c4-3.9,98.2-95.4,98.2-166.4C451.2,261.8,406.8,217.5,350.2,217.5z M350.2,351.2
			c-19.4,0-35-15.9-35-35.6s15.7-35.6,35-35.6c19.4,0,35,15.9,35,35.6S369.5,351.2,350.2,351.2z"/>
		<path fill-rule="evenodd" clip-rule="evenodd" d="M332,202.1V37c0-9.3-6.7-13.5-15.1-9.4L212.1,79.1c-8.3,4.1-15.1,15.1-15.1,24.4
			v283.7c0,9.3,6.8,13.5,15.1,9.4l34.7-17c-9.2-20.1-15.5-41-15.5-61.2C231.4,259.5,275,210.7,332,202.1z"/>
		<path fill-rule="evenodd" clip-rule="evenodd" d="M469,79.1L363.6,27.6c-8.3-4.1-15.6,0.2-15.6,9.4v163.6c2,0,1.3-0.1,1.6-0.1
			c66.1,0,118.2,51.7,118.2,117.7c0,22.3-7.8,45.8-19.2,68.2l20.3,10c8.3,4.1,15.1-0.2,15.1-9.4V103.4C484,94.1,477.3,83.2,469,79.1
			z"/>
	</g>
</g>
<g id="Layer_2">
</g>
</svg>
