<?xml version="1.0" encoding="utf-8"?>
<!-- Generator: Adobe Illustrator 16.0.0, SVG Export Plug-In . SVG Version: 6.00 Build 0)  -->
<!DOCTYPE svg PUBLIC "-//W3C//DTD SVG 1.1//EN" "http://www.w3.org/Graphics/SVG/1.1/DTD/svg11.dtd">
<svg version="1.1" xmlns="http://www.w3.org/2000/svg" xmlns:xlink="http://www.w3.org/1999/xlink" x="0px" y="0px" width="300px"
	 height="300px" viewBox="0 0 300 300" style="enable-background:new 0 0 300 300;" xml:space="preserve">
<g id="Layer_1">
	<g id="Restricted">
	</g>
	<g id="Help">
	</g>
</g>
<g id="Layer_4">
	<g>
		<path style="fill-rule:evenodd;clip-rule:evenodd;" d="M154.693,86.749c0,42.151,0,84.251,0,126.488c-12.38,0-24.745,0-37.292,0
			c0-23.943,0-47.874,0-71.805c-0.145-0.069-0.29-0.138-0.435-0.206c-12.31,15.296-24.618,30.593-37.112,46.117
			c-12.391-15.398-24.665-30.651-37.291-46.341c0,24.404,0,48.258,0,72.242c-12.629,0-25.05,0-37.563,0c0-42.179,0-84.277,0-126.529
			c0.582-0.037,1.14-0.104,1.699-0.104c11.371-0.007,22.743,0.018,34.113-0.036c1.247-0.006,1.97,0.422,2.725,1.363
			c11.71,14.618,23.46,29.205,35.204,43.796c0.317,0.395,0.666,0.764,1.147,1.311c2.206-2.73,4.343-5.364,6.468-8.006
			c9.96-12.379,19.909-24.767,29.905-37.116c0.494-0.61,1.4-1.256,2.119-1.261c11.823-0.076,23.646-0.053,35.47-0.045
			C154.097,86.618,154.344,86.692,154.693,86.749z"/>
		<path style="fill-rule:evenodd;clip-rule:evenodd;" d="M239.04,213.424c-18.736-20.499-37.347-40.863-56.282-61.581
			c12.723,0,24.949,0,37.39,0c0-21.789,0-43.387,0-65.108c12.633,0,25.051,0,37.623,0c0,21.63,0,43.178,0,64.979
			c12.426,0,24.706,0,36.986,0c0.081,0.16,0.163,0.32,0.245,0.48C276.367,172.582,257.734,192.969,239.04,213.424z"/>
	</g>
</g>
</svg>
