<?xml version="1.0" encoding="utf-8"?>
<!-- Generator: Adobe Illustrator 18.1.1, SVG Export Plug-In . SVG Version: 6.00 Build 0)  -->
<!DOCTYPE svg PUBLIC "-//W3C//DTD SVG 1.1//EN" "http://www.w3.org/Graphics/SVG/1.1/DTD/svg11.dtd">
<svg version="1.1" xmlns="http://www.w3.org/2000/svg" xmlns:xlink="http://www.w3.org/1999/xlink" x="0px" y="0px"
	 viewBox="0 0 512 512" enable-background="new 0 0 512 512" xml:space="preserve">
<g id="Layer_1">
	<g>
		<g>
			<path d="M342.6,445.5c0,6.5-11.5,12.7-11.5,12.7c-34,22.1-148.9,22.5-148.9,22.5c-105.5-0.2-141.8-21.8-141.8-21.8
				c-11.2-5.2-12-13.2-12-13.2c0-76.6,67.9-129.3,157.5-129.3C272.5,316.3,342.6,367.4,342.6,445.5z"/>
			<circle cx="185.3" cy="189.1" r="97.1"/>
		</g>
	</g>
	<path d="M461.3,301H431v-29.5c0-12.4-9.6-22.4-22-22.4s-22,10-22,22.4V301h-30.3c-12.4,0-22.4,10.1-22.4,22.5s10,22.5,22.4,22.5
		H387v30.1c0,12.4,9.6,22.4,22,22.4s22-10,22-22.4V346h30.3c12.4,0,22.4-10.1,22.4-22.5S473.7,301,461.3,301z"/>
</g>
<g id="Layer_2">
</g>
</svg>
