<svg class="icon icon-members" height="16" viewBox="0 0 16 16" version="1.1" aria-hidden="true">
    <ellipse cx="5.86" cy="4.53" rx="3.71" ry="3.74"/>
    <path
      d="M12.75,9.27A3.43,3.43,0,0,0,9.9,10.51a6.9,6.9,0,0,0-4-1.18C2.53,9.33,0,11.22,0,14c0,0,0,.29.45.47,0,0,1.35.77,5.29.78,0,0,4.29,0,5.56-.8,0,0,.43-.22.43-.45a4.1,4.1,0,0,0-.26-1.46c.34,0,.74.05,1.21.05a9.49,9.49,0,0,0,3.09-.45S16,12,16,11.84C16,10.29,14.54,9.27,12.75,9.27Z"/>
    <ellipse cx="12.79" cy="6.65" rx="2.12" ry="2.14"/>
</svg>
