<?xml version="1.0" encoding="utf-8"?>
<!-- Generator: Adobe Illustrator 18.1.1, SVG Export Plug-In . SVG Version: 6.00 Build 0)  -->
<!DOCTYPE svg PUBLIC "-//W3C//DTD SVG 1.1//EN" "http://www.w3.org/Graphics/SVG/1.1/DTD/svg11.dtd">
<svg version="1.1" xmlns="http://www.w3.org/2000/svg" xmlns:xlink="http://www.w3.org/1999/xlink" x="0px" y="0px"
	 viewBox="0 0 512 512" enable-background="new 0 0 512 512" xml:space="preserve">
<g id="Layer_1">
	<g>
		<g>
			<g>
				<path d="M354.5,422.4c0,6.8-12,13.3-12,13.3c-35.5,23.1-155.7,23.5-155.7,23.5C76.5,459,38.5,436.4,38.5,436.4
					C26.9,431,26,422.6,26,422.6c0-80.1,71-135.2,164.7-135.2C281.1,287.3,354.5,340.7,354.5,422.4z"/>
				<circle cx="190" cy="154.3" r="101.5"/>
			</g>
		</g>
		<path d="M457,295.1l22.1-22.1c9.2-9.1,9.2-24,0-33.1c-9.2-9.2-24-9.2-33.1,0L423.9,262l-22.1-22.1c-9.2-9.2-24-9.2-33.1,0
			c-9.2,9.1-9.2,24,0,33.1l22.1,22.1l-22.1,22.1c-9.2,9.1-9.2,24,0,33.1c4.6,4.6,10.6,6.9,16.6,6.9s12-2.3,16.6-6.9l22.1-22.1
			l22.1,22.1c4.6,4.6,10.6,6.9,16.6,6.9c6,0,12-2.3,16.6-6.9c9.2-9.1,9.2-24,0-33.1L457,295.1z"/>
	</g>
</g>
<g id="Layer_2">
</g>
</svg>
