<?xml version="1.0" encoding="utf-8"?>
<!-- Generator: Adobe Illustrator 16.0.0, SVG Export Plug-In . SVG Version: 6.00 Build 0)  -->
<!DOCTYPE svg PUBLIC "-//W3C//DTD SVG 1.1//EN" "http://www.w3.org/Graphics/SVG/1.1/DTD/svg11.dtd">
<svg version="1.1" id="Layer_1" xmlns="http://www.w3.org/2000/svg" xmlns:xlink="http://www.w3.org/1999/xlink" x="0px" y="0px"
	 width="300px" height="300px" viewBox="0 0 300 300" style="enable-background:new 0 0 300 300;" xml:space="preserve">
<g id="Restricted">
</g>
<g id="Help">
</g>
<g>
	<path d="M144.528,198.845l-3.571-23.624c15.341-13.139,25.574-40.843,25.574-60.895c0-30.694-23.978-55.568-53.558-55.568
		c-29.578,0-53.557,24.889-53.557,55.584c0,20.051,10.233,47.779,25.575,60.918l-3.571,23.583C39.701,204.154,9.021,226,6.985,241
		h211.98C216.927,226,186.248,204.156,144.528,198.845z"/>
	<polygon points="250,139 250,101 222,101 222,139 179,139 179,164 222,164 222,205 250,205 250,164 293,164 293,162.715 293,139 	
		"/>
</g>
</svg>
