<?xml version="1.0" encoding="utf-8"?>
<!-- Generator: Adobe Illustrator 18.1.1, SVG Export Plug-In . SVG Version: 6.00 Build 0)  -->
<!DOCTYPE svg PUBLIC "-//W3C//DTD SVG 1.1//EN" "http://www.w3.org/Graphics/SVG/1.1/DTD/svg11.dtd">
<svg version="1.1" xmlns="http://www.w3.org/2000/svg" xmlns:xlink="http://www.w3.org/1999/xlink" x="0px" y="0px"
	 viewBox="0 0 512 512" enable-background="new 0 0 512 512" xml:space="preserve">
<g id="Layer_1">
	<path d="M387.3,381.3c-5.1,0-10.3-1.8-14.5-5.3l-46.1-39.2c-9.4-8-10.6-22.2-2.6-31.6c8-9.4,22.2-10.6,31.6-2.6l29.1,24.8
		l69.6-80.9c8.1-9.4,22.2-10.4,31.6-2.4c9.4,8.1,10.4,22.2,2.4,31.6l-84.1,97.8C399.9,378.7,393.6,381.3,387.3,381.3z"/>
	<g>
		<g>
			<path d="M343.2,445.5c0,6.5-11.5,12.7-11.5,12.7c-34,22.1-148.9,22.5-148.9,22.5c-105.5-0.2-141.8-21.8-141.8-21.8
				c-11.2-5.2-12-13.2-12-13.2c0-76.6,67.9-129.3,157.5-129.3C273.1,316.3,343.2,367.4,343.2,445.5z"/>
			<circle cx="185.9" cy="189.1" r="97.1"/>
		</g>
	</g>
</g>
<g id="Layer_2">
</g>
</svg>
