<?xml version="1.0" encoding="utf-8"?>
<!-- Generator: Adobe Illustrator 18.1.1, SVG Export Plug-In . SVG Version: 6.00 Build 0)  -->
<!DOCTYPE svg PUBLIC "-//W3C//DTD SVG 1.1//EN" "http://www.w3.org/Graphics/SVG/1.1/DTD/svg11.dtd">
<svg version="1.1" xmlns="http://www.w3.org/2000/svg" xmlns:xlink="http://www.w3.org/1999/xlink" x="0px" y="0px"
	 viewBox="0 0 512 512" enable-background="new 0 0 512 512" xml:space="preserve">
<g id="Layer_1">
	<g>
		<g>
			<path d="M342.8,445.5c0,6.5-11.5,12.7-11.5,12.7c-34,22.1-148.9,22.5-148.9,22.5C77,480.5,40.7,458.9,40.7,458.9
				c-11.2-5.2-12-13.2-12-13.2c0-76.6,67.9-129.3,157.5-129.3C272.7,316.3,342.8,367.4,342.8,445.5z"/>
			<circle cx="185.6" cy="189.1" r="97.1"/>
		</g>
	</g>
	<path d="M440.9,323.8l21.1-21.1c8.8-8.7,8.8-22.9,0-31.7c-8.8-8.8-22.9-8.8-31.7,0l-21.1,21.1L388.1,271c-8.8-8.8-22.9-8.8-31.7,0
		c-8.8,8.7-8.8,22.9,0,31.7l21.1,21.1L356.4,345c-8.8,8.7-8.8,22.9,0,31.7c4.4,4.4,10.1,6.6,15.8,6.6s11.5-2.2,15.8-6.6l21.1-21.1
		l21.1,21.1c4.4,4.4,10.1,6.6,15.8,6.6c5.7,0,11.5-2.2,15.8-6.6c8.8-8.7,8.8-22.9,0-31.7L440.9,323.8z"/>
</g>
<g id="Layer_2">
</g>
</svg>
