<?xml version="1.0" encoding="utf-8"?>
<!-- Generator: Adobe Illustrator 18.1.1, SVG Export Plug-In . SVG Version: 6.00 Build 0)  -->
<!DOCTYPE svg PUBLIC "-//W3C//DTD SVG 1.1//EN" "http://www.w3.org/Graphics/SVG/1.1/DTD/svg11.dtd">
<svg version="1.1" xmlns="http://www.w3.org/2000/svg" xmlns:xlink="http://www.w3.org/1999/xlink" x="0px" y="0px"
	 viewBox="0 0 512 512" enable-background="new 0 0 512 512" xml:space="preserve">
<g id="Layer_1">
	<g>
		<path d="M391.4,358.1c-5.5,0-11.1-1.9-15.6-5.7l-49.6-42.2c-10.1-8.6-11.4-23.8-2.7-34c8.6-10.2,23.9-11.4,34-2.7l31.3,26.6
			l74.9-87c8.7-10.1,23.9-11.2,34-2.6c10.1,8.7,11.2,23.9,2.6,34l-90.5,105.2C404.9,355.3,398.2,358.1,391.4,358.1z"/>
		<g>
			<g>
				<path d="M343.9,427.2c0,7-12.3,13.6-12.3,13.6c-36.5,23.8-160.2,24.2-160.2,24.2C58,464.8,18.9,441.6,18.9,441.6
					C6.9,436,6,427.4,6,427.4c0-82.4,73-139.1,169.4-139.1C268.5,288.2,343.9,343.2,343.9,427.2z"/>
				<circle cx="174.7" cy="151.4" r="104.4"/>
			</g>
		</g>
	</g>
</g>
<g id="Layer_2">
</g>
</svg>
