<?xml version="1.0" encoding="utf-8"?>
<!-- Generator: Adobe Illustrator 18.1.1, SVG Export Plug-In . SVG Version: 6.00 Build 0)  -->
<!DOCTYPE svg PUBLIC "-//W3C//DTD SVG 1.1//EN" "http://www.w3.org/Graphics/SVG/1.1/DTD/svg11.dtd">
<svg version="1.1" xmlns="http://www.w3.org/2000/svg" xmlns:xlink="http://www.w3.org/1999/xlink" x="0px" y="0px"
	 viewBox="0 0 512 512" enable-background="new 0 0 512 512" xml:space="preserve">
<g id="Layer_1">
	<g>
		<path d="M380.6,350c-5.1,0-10.2-1.7-14.4-5.3l-45.6-38.8c-9.3-7.9-10.5-21.9-2.5-31.3c7.9-9.4,21.9-10.5,31.3-2.5l28.8,24.5
			l68.9-80.1c8-9.3,22-10.3,31.3-2.4c9.3,8,10.3,22,2.4,31.3l-83.3,96.8C393,347.4,386.8,350,380.6,350z"/>
		<g>
			<g>
				<path d="M336.9,413.5c0,6.5-11.3,12.5-11.3,12.5c-33.6,21.9-147.4,22.3-147.4,22.3c-104.4-0.2-140.3-21.6-140.3-21.6
					C26.8,421.6,26,413.6,26,413.6c0-75.8,67.2-128,155.9-128C267.5,285.7,336.9,336.2,336.9,413.5z"/>
				<circle cx="181.2" cy="159.7" r="96.1"/>
			</g>
		</g>
	</g>
</g>
<g id="Layer_2">
</g>
</svg>
