<svg class="icon icon-member-delete" height="16" viewBox="0 0 16 16" version="1.1" aria-hidden="true">
    <path
      d="M11.43,13.79c0,.24-.42.46-.42.46-1.23.8-5.42.82-5.42.82-3.84,0-5.16-.79-5.16-.79A.67.67,0,0,1,0,13.79C0,11,2.47,9.09,5.73,9.09S11.43,10.95,11.43,13.79Z"/>
    <circle cx="5.7" cy="4.46" r="3.53"/>
    <path
      d="M15,9.36l.77-.77a.82.82,0,1,0-1.15-1.15l-.77.77-.77-.77a.82.82,0,1,0-1.15,1.15l.77.77-.77.77a.82.82,0,1,0,1.15,1.15l.77-.77.77.77a.82.82,0,1,0,1.15-1.15Z"/>
</svg>
