<?xml version="1.0" encoding="utf-8"?>
<!-- Generator: Adobe Illustrator 18.1.1, SVG Export Plug-In . SVG Version: 6.00 Build 0)  -->
<!DOCTYPE svg PUBLIC "-//W3C//DTD SVG 1.1//EN" "http://www.w3.org/Graphics/SVG/1.1/DTD/svg11.dtd">
<svg version="1.1" id="Layer_1" xmlns="http://www.w3.org/2000/svg" xmlns:xlink="http://www.w3.org/1999/xlink" x="0px" y="0px"
	 viewBox="0 0 512 512" enable-background="new 0 0 512 512" xml:space="preserve">
<g>
	<ellipse cx="189.2" cy="147.5" rx="116" ry="116.8"/>
	<path d="M404.3,295.7c-39,0-71.7,14.8-89,38.9c-32.7-23.6-77-36.9-125.7-36.9C85.2,297.7,6,356.6,6,442.1c0,0,1,9,14,14.8
		c0,0,42.3,24.1,165.3,24.4c0,0,134-0.5,173.6-25.1c0,0,13.4-6.9,13.4-14.2c0-16.3-2.9-31.6-8.2-45.7c10.7,1,23.2,1.6,37.8,1.6
		c0,0,74.6-0.3,96.7-14c0,0,7.4-3.8,7.4-7.9C506,327.5,460.5,295.7,404.3,295.7z"/>
	<ellipse cx="405.8" cy="213.9" rx="66.3" ry="66.8"/>
</g>
</svg>
