<?xml version="1.0" encoding="utf-8"?>
<!-- Generator: Adobe Illustrator 18.1.1, SVG Export Plug-In . SVG Version: 6.00 Build 0)  -->
<!DOCTYPE svg PUBLIC "-//W3C//DTD SVG 1.1//EN" "http://www.w3.org/Graphics/SVG/1.1/DTD/svg11.dtd">
<svg version="1.1" xmlns="http://www.w3.org/2000/svg" xmlns:xlink="http://www.w3.org/1999/xlink" x="0px" y="0px"
	 viewBox="0 0 512 512" enable-background="new 0 0 512 512" xml:space="preserve">
<g id="Layer_1">
	<g>
		<g>
			<g>
				<path d="M342.9,416.6c0,6.6-11.6,12.8-11.6,12.8C297.1,451.6,181.2,452,181.2,452c-106.4-0.2-143.1-22-143.1-22
					C26.8,424.8,26,416.7,26,416.7c0-77.3,68.5-130.5,158.9-130.5C272.2,286.2,342.9,337.7,342.9,416.6z"/>
				<circle cx="184.2" cy="157.9" r="97.9"/>
			</g>
		</g>
		<path id="STAR_1_" fill-rule="evenodd" clip-rule="evenodd" d="M482.9,284.9L482.9,284.9l-40.1,29l15.4,47.2
			c0.2,0.7,0.4,1.5,0.4,2.3c0,4.1-3.3,7.5-7.5,7.5c-1.6,0-3.1-0.5-4.4-1.4l0,0l-40.4-29.2L366,369.5l0,0c-1.2,0.9-2.7,1.4-4.4,1.4
			c-4.1,0-7.5-3.3-7.5-7.5c0-0.8,0.1-1.6,0.4-2.3l15.4-47.2l-40.1-29l0,0c-1.9-1.4-3.1-3.6-3.1-6c0-4.1,3.3-7.5,7.5-7.5l0,0h49.6
			l15.4-47c0.9-3.1,3.8-5.3,7.1-5.3s6.2,2.2,7.1,5.3l15.4,47h49.6l0,0c4.1,0,7.5,3.3,7.5,7.5C486,281.4,484.8,283.6,482.9,284.9z"/>
	</g>
</g>
<g id="Layer_2">
</g>
</svg>
