<?xml version="1.0" encoding="utf-8"?>
<!-- Generator: Adobe Illustrator 16.0.0, SVG Export Plug-In . SVG Version: 6.00 Build 0)  -->
<!DOCTYPE svg PUBLIC "-//W3C//DTD SVG 1.1//EN" "http://www.w3.org/Graphics/SVG/1.1/DTD/svg11.dtd">
<svg version="1.1" id="Layer_1" xmlns="http://www.w3.org/2000/svg" xmlns:xlink="http://www.w3.org/1999/xlink" x="0px" y="0px"
	 width="300px" height="300px" viewBox="0 0 300 300" style="enable-background:new 0 0 300 300;" xml:space="preserve">
<g id="Restricted">
</g>
<g id="Help">
</g>
<g>
	<path d="M143.662,210.682l-4.437-29.322c19.059-16.324,31.773-50.73,31.773-75.642c0-38.135-29.79-69.03-66.539-69.03
		c-36.748,0-66.54,30.925-66.54,69.061c0,24.912,12.714,59.362,31.775,75.687l-4.437,29.245C13.425,217.277,6.305,244,4.382,263
		h200.155C202.613,244,195.494,217.28,143.662,210.682z"/>
	<polygon points="251,138 251,101 223,101 223,138 179,138 179,164 223,164 223,206 251,206 251,164 295,164 295,162.885 295,138 	
		"/>
</g>
</svg>
