<?xml version="1.0" encoding="utf-8"?>
<!-- Generator: Adobe Illustrator 16.0.0, SVG Export Plug-In . SVG Version: 6.00 Build 0)  -->
<!DOCTYPE svg PUBLIC "-//W3C//DTD SVG 1.1//EN" "http://www.w3.org/Graphics/SVG/1.1/DTD/svg11.dtd">
<svg version="1.1" id="Layer_1" xmlns="http://www.w3.org/2000/svg" xmlns:xlink="http://www.w3.org/1999/xlink" x="0px" y="0px"
	 width="300px" height="300px" viewBox="0 0 300 300" style="enable-background:new 0 0 300 300;" xml:space="preserve">
<path d="M201.762,134.351c-6.678,0-13.123,1.008-19.191,2.871c-3.764,6.549-3.763,6.547,0,0
	c8.111-14.115,13.008-31.834,13.008-45.869c0-31.457-24.573-56.977-54.886-56.977S85.808,59.867,85.808,91.325
	c0,20.548,10.487,48.956,26.209,62.42l-3.659,24.61C65.603,183.798,34.163,206,32.075,222h108.156
	c9.01,25,33.153,43.186,61.531,43.186c35.995,0,65.313-29.35,65.313-65.417S237.757,134.351,201.762,134.351z M244,209h-1.413H159
	v-19h57.215H244V209z"/>
<g id="Restricted">
</g>
<g id="Help">
</g>
</svg>
