<?xml version="1.0" encoding="utf-8"?>
<!-- Generator: Adobe Illustrator 18.1.1, SVG Export Plug-In . SVG Version: 6.00 Build 0)  -->
<!DOCTYPE svg PUBLIC "-//W3C//DTD SVG 1.1//EN" "http://www.w3.org/Graphics/SVG/1.1/DTD/svg11.dtd">
<svg version="1.1" xmlns="http://www.w3.org/2000/svg" xmlns:xlink="http://www.w3.org/1999/xlink" x="0px" y="0px"
	 viewBox="0 0 512 512" enable-background="new 0 0 512 512" xml:space="preserve">
<g id="Layer_1">
	<g>
		<g>
			<path d="M342,445.5c0,6.5-11.5,12.7-11.5,12.7c-34,22.1-148.9,22.5-148.9,22.5c-105.5-0.2-141.8-21.8-141.8-21.8
				c-11.2-5.2-12-13.2-12-13.2c0-76.6,67.9-129.3,157.5-129.3C271.9,316.3,342,367.4,342,445.5z"/>
			<circle cx="184.7" cy="189.1" r="97.1"/>
		</g>
	</g>
	<path id="STAR_1_" fill-rule="evenodd" clip-rule="evenodd" d="M480.8,315.1L480.8,315.1l-39.8,28.8l15.3,46.8
		c0.2,0.7,0.4,1.5,0.4,2.3c0,4.1-3.3,7.4-7.4,7.4c-1.6,0-3.1-0.5-4.3-1.4l0,0l-40.1-29l-40.1,29l0,0c-1.2,0.9-2.7,1.4-4.3,1.4
		c-4.1,0-7.4-3.3-7.4-7.4c0-0.8,0.1-1.6,0.4-2.3l15.3-46.8l-39.8-28.8l0,0c-1.9-1.3-3.1-3.5-3.1-6c0-4.1,3.3-7.4,7.4-7.4l0,0h49.2
		l15.2-46.6c0.9-3,3.7-5.2,7.1-5.2c3.3,0,6.1,2.2,7.1,5.2l15.2,46.6h49.2l0,0c4.1,0,7.4,3.3,7.4,7.4
		C483.9,311.5,482.7,313.7,480.8,315.1z"/>
</g>
<g id="Layer_2">
</g>
</svg>
