<?xml version="1.0" encoding="utf-8"?>
<!-- Generator: Adobe Illustrator 16.0.0, SVG Export Plug-In . SVG Version: 6.00 Build 0)  -->
<!DOCTYPE svg PUBLIC "-//W3C//DTD SVG 1.1//EN" "http://www.w3.org/Graphics/SVG/1.1/DTD/svg11.dtd">
<svg version="1.1" id="Layer_1" xmlns="http://www.w3.org/2000/svg" xmlns:xlink="http://www.w3.org/1999/xlink" x="0px" y="0px"
	 width="300px" height="300px" viewBox="0 0 300 300" style="enable-background:new 0 0 300 300;" xml:space="preserve">
<path d="M201.762,134.57c-6.678,0-19.21,2.877-19.189,2.87c8.112-14.115,13.007-31.834,13.007-45.868
	c0-31.457-24.573-56.978-54.886-56.978S85.808,60.086,85.808,91.543c0,20.549,10.487,48.956,26.209,62.421l-3.659,24.501
	C65.603,183.908,34.163,206,32.075,222H140.23c9.01,25,33.154,43.296,61.531,43.296c35.995,0,65.313-29.296,65.313-65.363
	S237.757,134.57,201.762,134.57z M211,242h-19v-20.198V209h-33v-19h33v-7.877V157h19v31.345V190h5.064H244v19h-1.413H211v12.802V242
	z"/>
<g id="Restricted">
</g>
<g id="Help">
</g>
</svg>
