<?xml version="1.0" encoding="utf-8"?>
<!-- Generator: Adobe Illustrator 18.1.1, SVG Export Plug-In . SVG Version: 6.00 Build 0)  -->
<!DOCTYPE svg PUBLIC "-//W3C//DTD SVG 1.1//EN" "http://www.w3.org/Graphics/SVG/1.1/DTD/svg11.dtd">
<svg version="1.1" xmlns="http://www.w3.org/2000/svg" xmlns:xlink="http://www.w3.org/1999/xlink" x="0px" y="0px"
	 viewBox="0 0 512 512" enable-background="new 0 0 512 512" xml:space="preserve">
<g id="Layer_1">
	<g>
		<g>
			<g>
				<path d="M350.5,430.5c0,7.2-12.6,13.9-12.6,13.9c-37.2,24.2-163.3,24.7-163.3,24.7C59,468.8,19.2,445.2,19.2,445.2
					C6.9,439.5,6,430.7,6,430.7c0-84,74.5-141.8,172.7-141.8C273.6,288.9,350.5,344.8,350.5,430.5z"/>
				<circle cx="178" cy="149.3" r="106.4"/>
			</g>
		</g>
		<path id="STAR_1_" fill-rule="evenodd" clip-rule="evenodd" d="M502.6,287.5L502.6,287.5L459.1,319l16.8,51.3
			c0.3,0.8,0.4,1.7,0.4,2.5c0,4.5-3.6,8.1-8.1,8.1c-1.8,0-3.4-0.6-4.8-1.5l0,0l-43.9-31.8l-43.9,31.8l0,0c-1.3,1-3,1.5-4.8,1.5
			c-4.5,0-8.1-3.6-8.1-8.1c0-0.9,0.1-1.7,0.4-2.5l16.8-51.3l-43.6-31.5l0,0c-2-1.5-3.4-3.9-3.4-6.6c0-4.5,3.6-8.1,8.1-8.1l0,0h54
			l16.7-51.1c1-3.3,4.1-5.7,7.8-5.7s6.7,2.4,7.8,5.7l16.7,51.1h54l0,0c4.5,0,8.1,3.6,8.1,8.1C506,283.6,504.7,286,502.6,287.5z"/>
	</g>
</g>
<g id="Layer_2">
</g>
</svg>
