<svg class="icon icon-member-premium" height="16" viewBox="0 0 16 16" version="1.1" aria-hidden="true">
    <path
      d="M11,13.58c0,.23-.4.44-.4.44-1.19.78-5.22.79-5.22.79-3.7,0-5-.77-5-.77A.65.65,0,0,1,0,13.59C0,10.9,2.38,9.05,5.53,9.05S11,10.84,11,13.58Z"/>
    <circle cx="5.5" cy="4.59" r="3.41"/>
    <path
      d="M15.89,9h0L14.5,10,15,11.66a.26.26,0,0,1-.4.29h0l-1.41-1-1.41,1h0a.26.26,0,0,1-.4-.29L12,10,10.57,9h0a.26.26,0,0,1,.15-.47h1.73L13,6.9a.26.26,0,0,1,.5,0L14,8.54h1.73a.26.26,0,0,1,.15.47Z"/>
</svg>
