<?xml version="1.0" encoding="utf-8"?>
<!-- Generator: Adobe Illustrator 16.0.0, SVG Export Plug-In . SVG Version: 6.00 Build 0)  -->
<!DOCTYPE svg PUBLIC "-//W3C//DTD SVG 1.1//EN" "http://www.w3.org/Graphics/SVG/1.1/DTD/svg11.dtd">
<svg version="1.1" id="Layer_1" xmlns="http://www.w3.org/2000/svg" xmlns:xlink="http://www.w3.org/1999/xlink" x="0px" y="0px"
	 width="300px" height="300px" viewBox="0 0 300 300" style="enable-background:new 0 0 300 300;" xml:space="preserve">
<g id="Restricted">
</g>
<g id="Help">
</g>
<g>
	<path d="M145.819,196.156l-3.371-22.326c14.482-12.404,24.144-38.57,24.144-57.5c0-28.978-22.637-52.466-50.562-52.466
		c-27.924,0-50.562,23.494-50.562,52.472c0,18.93,9.661,45.104,24.145,57.509l-3.371,22.311
		C46.855,201.169,17.893,221.523,15.97,236h200.122C214.168,221.523,185.205,201.17,145.819,196.156z"/>
	<polygon points="245,196 224,196 224,172.431 224,159 185,159 185,140 224,140 224,129.951 224,105 245,105 245,136.612 245,140 
		252.138,140 284,140 284,159 283.137,159 245,159 245,172.431 	"/>
</g>
</svg>
