<?xml version="1.0" encoding="utf-8"?>
<!-- Generator: Adobe Illustrator 18.1.1, SVG Export Plug-In . SVG Version: 6.00 Build 0)  -->
<!DOCTYPE svg PUBLIC "-//W3C//DTD SVG 1.1//EN" "http://www.w3.org/Graphics/SVG/1.1/DTD/svg11.dtd">
<svg version="1.1" id="Layer_1" xmlns="http://www.w3.org/2000/svg" xmlns:xlink="http://www.w3.org/1999/xlink" x="0px" y="0px"
	 viewBox="0 0 512 512" enable-background="new 0 0 512 512" xml:space="preserve">
<g>
	<ellipse cx="198.3" cy="176.5" rx="101.4" ry="102.1"/>
	<path d="M386.4,306c-34.1,0-62.6,12.9-77.8,34c-28.6-20.6-67.3-32.2-109.9-32.2c-91.3,0-160.5,51.4-160.5,126.2
		c0,0,0.8,7.9,12.2,12.9c0,0,37,21.1,144.5,21.3c0,0,117.2-0.4,151.8-22c0,0,11.7-6,11.7-12.4c0-14.3-2.5-27.7-7.2-39.9
		c9.4,0.9,20.3,1.4,33.1,1.4c0,0,65.2-0.2,84.5-12.2c0,0,6.5-3.3,6.5-6.9C475.3,333.8,435.5,306,386.4,306z"/>
	<ellipse cx="387.7" cy="234.4" rx="58" ry="58.4"/>
</g>
</svg>
