<?xml version="1.0" encoding="utf-8"?>
<!-- Generator: Adobe Illustrator 16.0.0, SVG Export Plug-In . SVG Version: 6.00 Build 0)  -->
<!DOCTYPE svg PUBLIC "-//W3C//DTD SVG 1.1//EN" "http://www.w3.org/Graphics/SVG/1.1/DTD/svg11.dtd">
<svg version="1.1" id="Layer_1" xmlns="http://www.w3.org/2000/svg" xmlns:xlink="http://www.w3.org/1999/xlink" x="0px" y="0px"
	 width="300px" height="300px" viewBox="0 0 300 300" style="enable-background:new 0 0 300 300;" xml:space="preserve">
<g id="Restricted">
</g>
<g id="Help">
</g>
<g>
	<path d="M273,70.399C273,78.59,267.389,86,260.451,86H39.562C32.625,86,27,78.59,27,70.399V54.332C27,46.14,32.625,40,39.562,40
		h220.889C267.389,40,273,46.14,273,54.332V70.399z"/>
	<path d="M273,158.166c0,8.191-5.231,15.834-12.169,15.834H39.942C33.005,174,27,166.357,27,158.166v-16.067
		C27,133.907,33.005,128,39.942,128h220.889c6.938,0,12.169,5.907,12.169,14.098V158.166z"/>
	<path d="M273,245.794c0,8.191-5.611,15.206-12.549,15.206H39.562C32.625,261,27,253.985,27,245.794v-16.068
		C27,221.535,32.625,216,39.562,216h220.889c6.938,0,12.549,5.535,12.549,13.726V245.794z"/>
</g>
</svg>
