<?xml version="1.0" encoding="utf-8"?>
<!-- Generator: Adobe Illustrator 16.0.0, SVG Export Plug-In . SVG Version: 6.00 Build 0)  -->
<!DOCTYPE svg PUBLIC "-//W3C//DTD SVG 1.1//EN" "http://www.w3.org/Graphics/SVG/1.1/DTD/svg11.dtd">
<svg version="1.1" id="Layer_1" xmlns="http://www.w3.org/2000/svg" xmlns:xlink="http://www.w3.org/1999/xlink" x="0px" y="0px"
	 width="300px" height="300px" viewBox="0 0 300 300" style="enable-background:new 0 0 300 300;" xml:space="preserve">
<g id="Restricted">
</g>
<g id="Help">
</g>
<g>
	<path d="M295,56.072C295,65.729,288.385,74,280.207,74H19.81C11.631,74,5,65.729,5,56.072V37.131C5,27.474,11.631,20,19.81,20
		h260.397C288.385,20,295,27.474,295,37.131V56.072z"/>
	<path d="M295,159.537c0,9.657-6.167,18.463-14.346,18.463H20.257C12.079,178,5,169.193,5,159.537v-18.941
		C5,130.939,12.079,124,20.257,124h260.397c8.179,0,14.346,6.939,14.346,16.595V159.537z"/>
	<path d="M295,262.838c0,9.656-6.615,18.162-14.793,18.162H19.81C11.631,281,5,272.494,5,262.838v-18.942
		C5,234.241,11.631,228,19.81,228h260.397c8.178,0,14.793,6.241,14.793,15.896V262.838z"/>
</g>
</svg>
