<?xml version="1.0" encoding="utf-8"?>
<!-- Generator: Adobe Illustrator 16.0.0, SVG Export Plug-In . SVG Version: 6.00 Build 0)  -->
<!DOCTYPE svg PUBLIC "-//W3C//DTD SVG 1.1//EN" "http://www.w3.org/Graphics/SVG/1.1/DTD/svg11.dtd">
<svg version="1.1" xmlns="http://www.w3.org/2000/svg" xmlns:xlink="http://www.w3.org/1999/xlink" x="0px" y="0px" width="300px"
	 height="300px" viewBox="0 0 300 300" style="enable-background:new 0 0 300 300;" xml:space="preserve">
<g id="Layer_1">
	<g id="Restricted">
	</g>
	<g id="Help">
	</g>
</g>
<g id="Layer_4">
	<g>
		<g>
			<path d="M294,86.735c0,4.012-3.252,7.265-7.264,7.265h-41.473c-4.012,0-7.264-3.252-7.264-7.265V45.265
				c0-4.012,3.252-7.265,7.264-7.265h41.473c4.012,0,7.264,3.252,7.264,7.265V86.735z"/>
			<path d="M294,171.735c0,4.012-3.252,7.265-7.264,7.265h-41.473c-4.012,0-7.264-3.252-7.264-7.265v-41.471
				c0-4.012,3.252-7.265,7.264-7.265h41.473c4.012,0,7.264,3.252,7.264,7.265V171.735z"/>
			<path d="M294,255.735c0,4.012-3.252,7.265-7.264,7.265h-41.473c-4.012,0-7.264-3.252-7.264-7.265v-41.471
				c0-4.012,3.252-7.265,7.264-7.265h41.473c4.012,0,7.264,3.252,7.264,7.265V255.735z"/>
		</g>
		<path d="M148.99,212.403l-4.549-30.042c19.54-16.736,32.575-51.999,32.575-77.54c0-39.097-30.542-70.766-68.218-70.766
			c-37.675,0-68.218,31.708-68.218,70.805c0,25.54,13.035,60.861,32.577,77.597l-4.549,29.942C15.468,219.164,8.169,246,6.198,266
			h205.203C209.428,246,202.129,219.167,148.99,212.403z"/>
	</g>
</g>
</svg>
