<?xml version="1.0" encoding="utf-8"?>
<!-- Generator: Adobe Illustrator 18.1.1, SVG Export Plug-In . SVG Version: 6.00 Build 0)  -->
<!DOCTYPE svg PUBLIC "-//W3C//DTD SVG 1.1//EN" "http://www.w3.org/Graphics/SVG/1.1/DTD/svg11.dtd">
<svg version="1.1" id="Layer_1" xmlns="http://www.w3.org/2000/svg" xmlns:xlink="http://www.w3.org/1999/xlink" x="0px" y="0px"
	 viewBox="0 0 512 512" enable-background="new 0 0 512 512" xml:space="preserve">
<g>
	<path d="M57.2,163h395.6c6,0,11.5-2.7,15.5-6.6c4-4,6.4-9.4,6.4-15.5c0-12.1-9.8-21.9-21.9-21.9H57.2c-12.1,0-21.9,9.9-21.9,22
		C35.3,153.1,45.1,163,57.2,163z"/>
	<path d="M452.8,250H57.2c-12.1,0-21.9,9.9-21.9,22c0,12.1,9.8,22,21.9,22h395.6c6,0,11.5-2.5,15.5-6.5c4-4,6.4-9.5,6.4-15.5
		C474.7,259.9,464.9,250,452.8,250z"/>
	<path d="M452.8,381H57.2c-12.1,0-21.9,9.9-21.9,22c0,12.1,9.8,22,21.9,22h395.6c6,0,11.5-2.4,15.5-6.4c4-4,6.4-9.6,6.4-15.6
		C474.7,390.9,464.9,381,452.8,381z"/>
</g>
</svg>
