<?xml version="1.0" encoding="utf-8"?>
<!-- Generator: Adobe Illustrator 16.0.0, SVG Export Plug-In . SVG Version: 6.00 Build 0)  -->
<!DOCTYPE svg PUBLIC "-//W3C//DTD SVG 1.1//EN" "http://www.w3.org/Graphics/SVG/1.1/DTD/svg11.dtd">
<svg version="1.1" id="Layer_1" xmlns="http://www.w3.org/2000/svg" xmlns:xlink="http://www.w3.org/1999/xlink" x="0px" y="0px"
	 width="300px" height="300px" viewBox="0 0 300 300" style="enable-background:new 0 0 300 300;" xml:space="preserve">
<g id="Restricted">
</g>
<g id="Help">
	<g>
		<path d="M175,93.578c0,3.547-2.875,6.422-6.422,6.422h-36.156c-3.547,0-6.422-2.875-6.422-6.422V57.422
			c0-3.547,2.875-6.422,6.422-6.422h36.156c3.547,0,6.422,2.875,6.422,6.422V93.578z"/>
		<path d="M175,168.578c0,3.547-2.875,6.422-6.422,6.422h-36.156c-3.547,0-6.422-2.875-6.422-6.422v-36.156
			c0-3.547,2.875-6.422,6.422-6.422h36.156c3.547,0,6.422,2.875,6.422,6.422V168.578z"/>
		<path d="M175,242.578c0,3.547-2.875,6.422-6.422,6.422h-36.156c-3.547,0-6.422-2.875-6.422-6.422v-36.156
			c0-3.547,2.875-6.422,6.422-6.422h36.156c3.547,0,6.422,2.875,6.422,6.422V242.578z"/>
	</g>
</g>
</svg>
