<?xml version="1.0" encoding="utf-8"?>
<!-- Generator: Adobe Illustrator 16.0.0, SVG Export Plug-In . SVG Version: 6.00 Build 0)  -->
<!DOCTYPE svg PUBLIC "-//W3C//DTD SVG 1.1//EN" "http://www.w3.org/Graphics/SVG/1.1/DTD/svg11.dtd">
<svg version="1.1" id="Layer_1" xmlns="http://www.w3.org/2000/svg" xmlns:xlink="http://www.w3.org/1999/xlink" x="0px" y="0px"
	 width="300px" height="300px" viewBox="0 0 300 300" style="enable-background:new 0 0 300 300;" xml:space="preserve">
<g id="Restricted">
</g>
<g id="Help">
	<g>
		<path d="M183,90.291c0,4.81-3.899,8.709-8.709,8.709h-48.582c-4.81,0-8.709-3.899-8.709-8.709V41.709
			c0-4.81,3.899-8.709,8.709-8.709h48.582c4.81,0,8.709,3.899,8.709,8.709V90.291z"/>
		<path d="M183,175.291c0,4.81-3.899,8.709-8.709,8.709h-48.582c-4.81,0-8.709-3.899-8.709-8.709v-48.581
			c0-4.81,3.899-8.709,8.709-8.709h48.582c4.81,0,8.709,3.899,8.709,8.709V175.291z"/>
		<path d="M183,259.291c0,4.81-3.899,8.709-8.709,8.709h-48.582c-4.81,0-8.709-3.899-8.709-8.709v-48.581
			c0-4.81,3.899-8.709,8.709-8.709h48.582c4.81,0,8.709,3.899,8.709,8.709V259.291z"/>
	</g>
</g>
</svg>
