<?xml version="1.0" encoding="utf-8"?>
<!-- Generator: Adobe Illustrator 18.1.1, SVG Export Plug-In . SVG Version: 6.00 Build 0)  -->
<!DOCTYPE svg PUBLIC "-//W3C//DTD SVG 1.1//EN" "http://www.w3.org/Graphics/SVG/1.1/DTD/svg11.dtd">
<svg version="1.1" id="Layer_1" xmlns="http://www.w3.org/2000/svg" xmlns:xlink="http://www.w3.org/1999/xlink" x="0px" y="0px"
	 viewBox="0 0 512 512" enable-background="new 0 0 512 512" xml:space="preserve">
<g>
	<path d="M30.9,132h450.2c6.9,0,13.1-3.1,17.6-7.6c4.5-4.5,7.3-10.7,7.3-17.5c0-13.7-11.1-24.8-24.9-24.8H30.9C17.1,82,6,93.2,6,107
		C6,120.7,17.1,132,30.9,132z"/>
	<path d="M481.1,231H30.9C17.1,231,6,242.2,6,256c0,13.7,11.1,25,24.9,25h450.2c6.9,0,13.1-2.9,17.6-7.4c4.5-4.5,7.3-10.8,7.3-17.6
		C506,242.2,494.9,231,481.1,231z"/>
	<path d="M481.1,380H30.9C17.1,380,6,391.2,6,405c0,13.7,11.1,25,24.9,25h450.2c6.9,0,13.1-2.7,17.6-7.2c4.5-4.5,7.3-10.9,7.3-17.7
		C506,391.3,494.9,380,481.1,380z"/>
</g>
</svg>
