<?xml version="1.0" encoding="utf-8"?>
<!-- Generator: Adobe Illustrator 18.1.1, SVG Export Plug-In . SVG Version: 6.00 Build 0)  -->
<!DOCTYPE svg PUBLIC "-//W3C//DTD SVG 1.1//EN" "http://www.w3.org/Graphics/SVG/1.1/DTD/svg11.dtd">
<svg version="1.1" id="Layer_1" xmlns="http://www.w3.org/2000/svg" xmlns:xlink="http://www.w3.org/1999/xlink" x="0px" y="0px"
	 viewBox="0 0 512 512" enable-background="new 0 0 512 512" xml:space="preserve">
<g>
	<path d="M39.9,142h432.2c6.6,0,12.6-5.5,16.9-9.9c4.3-4.3,7-8,7-14.6c0-13.2-10.7-21.6-23.9-21.6H39.9C26.7,96,16,105.8,16,119
		C16,132.2,26.7,142,39.9,142z"/>
	<path d="M472.1,233H39.9c-13.2,0-23.9,9.8-23.9,23c0,13.2,10.7,23,23.9,23h432.2c6.6,0,12.6-2.3,16.9-6.6c4.3-4.3,7-9.6,7-16.2
		C496,243,485.3,233,472.1,233z"/>
	<path d="M472.1,370H39.9c-13.2,0-23.9,9.8-23.9,23c0,13.2,10.7,23,23.9,23h432.2c6.6,0,12.6,0.9,16.9-3.4c4.3-4.3,7-11.2,7-17.8
		C496,381.6,485.3,370,472.1,370z"/>
</g>
</svg>
