<?xml version="1.0" encoding="utf-8"?>
<!-- Generator: Adobe Illustrator 18.1.1, SVG Export Plug-In . SVG Version: 6.00 Build 0)  -->
<!DOCTYPE svg PUBLIC "-//W3C//DTD SVG 1.1//EN" "http://www.w3.org/Graphics/SVG/1.1/DTD/svg11.dtd">
<svg version="1.1" xmlns="http://www.w3.org/2000/svg" xmlns:xlink="http://www.w3.org/1999/xlink" x="0px" y="0px"
	 viewBox="0 0 512 512" enable-background="new 0 0 512 512" xml:space="preserve">
<g id="Layer_1">
	<g>
		<path d="M477.5,165.9L266.5,9.3c-6.7-5-16-4.9-22.7,0.1L34.7,168.1c-7.3,6.5-8.7,13-8.7,20.4V408c0,28.2,23.4,50,51.6,50h365
			c23.8,0,43.4-18.1,43.4-41.9V188.4C486,180.2,484.6,171.2,477.5,165.9z M425,213.7L264.6,358c-2.1,1.9-5.3,2.9-7.9,2.9
			c-2.6,0-6.2-0.9-8.3-2.8L72,203.8v-10.9c0-13.6,14.3-23.9,27.9-23.9h300c13.6,0,25.1,10.3,25.1,23.9V213.7z"/>
		<path d="M363.2,215H148.9c-4.2,0-7.7,2.3-7.7,6.5c0,4.2,3.4,6.5,7.7,6.5h214.3c4.2,0,7.7-2.3,7.7-6.5
			C370.8,217.3,367.4,215,363.2,215z"/>
		<path d="M332.6,258H179.5c-4.2,0-7.7,3.8-7.7,8c0,4.2,3.4,8,7.7,8h153.1c4.2,0,7.7-3.8,7.7-8C340.2,261.8,336.8,258,332.6,258z"/>
	</g>
</g>
<g id="Layer_2">
</g>
</svg>
