<?xml version="1.0" encoding="utf-8"?>
<!-- Generator: Adobe Illustrator 18.1.1, SVG Export Plug-In . SVG Version: 6.00 Build 0)  -->
<!DOCTYPE svg PUBLIC "-//W3C//DTD SVG 1.1//EN" "http://www.w3.org/Graphics/SVG/1.1/DTD/svg11.dtd">
<svg version="1.1" xmlns="http://www.w3.org/2000/svg" xmlns:xlink="http://www.w3.org/1999/xlink" x="0px" y="0px"
	 viewBox="0 0 512 512" enable-background="new 0 0 512 512" xml:space="preserve">
<g id="Layer_1">
	<g>
		<path d="M470.8,183.4L309.7,329c2.5,6.6,3.9,13.7,3.9,21.2c0,33-26.8,59.8-59.8,59.8c-33,0-59.8-26.8-59.8-59.8
			c0-8.3,1.7-16.2,4.8-23.4L39.1,185.6c-3.1,6-8.1,12.7-8.1,19.9v222.2c0,24,25.6,41.3,49.5,41.3h351.1c23.9,0,47.4-17.4,47.4-41.3
			V205.4C479,197.4,474.7,189.9,470.8,183.4z"/>
		<path d="M253.8,290.4c17.9,0,33.9,7.8,44.8,20.2l155.2-138.4c-6.5-3.9-14.1-2.3-22.2-2.3H80.5c-9,0-17.4-1.2-24.4,3.5l154.4,135.4
			C221.4,297.5,236.8,290.4,253.8,290.4z"/>
	</g>
</g>
<g id="Layer_2">
</g>
</svg>
