<svg class="icon icon-message-read" height="16" viewBox="0 0 16 16" version="1.1" aria-hidden="true">
    <path
      d="M15.71,5.71,8.37.26a.66.66,0,0,0-.79,0L.3,5.78a.85.85,0,0,0-.3.71v7.64a1.76,1.76,0,0,0,1.79,1.74h12.7A1.47,1.47,0,0,0,16,14.41V6.49A.92.92,0,0,0,15.71,5.71ZM13.88,7.37l-5.58,5a.43.43,0,0,1-.27.1.47.47,0,0,1-.29-.1L1.6,7V6.65a.94.94,0,0,1,1-.83H13a.85.85,0,0,1,.87.83Z"/>
    <path d="M11.73,7.42H4.27c-.15,0-.27.08-.27.23s.12.23.27.23h7.45c.15,0,.27-.08.27-.23S11.88,7.42,11.73,7.42Z"/>
    <path d="M10.66,8.91H5.34a.28.28,0,0,0,0,.56h5.32a.28.28,0,0,0,0-.56Z"/>
</svg>
