<?xml version="1.0" encoding="utf-8"?>
<!-- Generator: Adobe Illustrator 18.1.1, SVG Export Plug-In . SVG Version: 6.00 Build 0)  -->
<!DOCTYPE svg PUBLIC "-//W3C//DTD SVG 1.1//EN" "http://www.w3.org/Graphics/SVG/1.1/DTD/svg11.dtd">
<svg version="1.1" xmlns="http://www.w3.org/2000/svg" xmlns:xlink="http://www.w3.org/1999/xlink" x="0px" y="0px"
	 viewBox="0 0 512 512" enable-background="new 0 0 512 512" xml:space="preserve">
<g id="Layer_1">
	<g>
		<path d="M496.9,85.1L317,247.5c2.8,7.4,4.3,15.3,4.3,23.7c0,36.8-29.9,66.7-66.7,66.7c-36.8,0-66.7-29.9-66.7-66.7
			c0-9.3,1.9-18.1,5.3-26.1L15,87.5c-3.5,6.7-9,14.2-9,22.2v287C6,423.4,34.6,443,61.3,443h391.8c26.7,0,52.9-19.6,52.9-46.3v-287
			C506,100.6,501.2,92.3,496.9,85.1z"/>
		<path d="M254.6,204.5c19.9,0,37.8,8.7,50,22.6L477.9,72.6c-7.3-4.4-15.7-2.6-24.8-2.6H61.3c-10.1,0-19.4-1.3-27.2,3.9l172.3,151.2
			C218.6,212.4,235.7,204.5,254.6,204.5z"/>
	</g>
</g>
<g id="Layer_2">
</g>
</svg>
