<?xml version="1.0" encoding="utf-8"?>
<!-- Generator: Adobe Illustrator 18.1.1, SVG Export Plug-In . SVG Version: 6.00 Build 0)  -->
<!DOCTYPE svg PUBLIC "-//W3C//DTD SVG 1.1//EN" "http://www.w3.org/Graphics/SVG/1.1/DTD/svg11.dtd">
<svg version="1.1" xmlns="http://www.w3.org/2000/svg" xmlns:xlink="http://www.w3.org/1999/xlink" x="0px" y="0px"
	 viewBox="0 0 512 512" enable-background="new 0 0 512 512" xml:space="preserve">
<g id="Layer_1">
	<g>
		<path d="M453,172.3c-6.5-3.9-14.1-2.3-22.2-2.3H79.7c-9,0-17.4-1.2-24.4,3.5l199.7,175.2L453,172.3z"/>
		<path d="M470.4,183.4L262.3,371c-2,1.9-4.6,2.8-7.2,2.8c-2.6,0-5.1-0.9-7.1-2.7L38.7,185.6c-3.1,6-7.7,12.7-7.7,19.9v222.2
			c0,24,24.8,41.3,48.7,41.3h351.1c23.9,0,48.2-17.4,48.2-41.3V205.4C479,197.4,474.3,189.9,470.4,183.4z"/>
	</g>
</g>
<g id="Layer_2">
</g>
</svg>
