<?xml version="1.0" encoding="utf-8"?>
<!-- Generator: Adobe Illustrator 18.1.1, SVG Export Plug-In . SVG Version: 6.00 Build 0)  -->
<!DOCTYPE svg PUBLIC "-//W3C//DTD SVG 1.1//EN" "http://www.w3.org/Graphics/SVG/1.1/DTD/svg11.dtd">
<svg version="1.1" xmlns="http://www.w3.org/2000/svg" xmlns:xlink="http://www.w3.org/1999/xlink" x="0px" y="0px"
	 viewBox="0 0 512 512" enable-background="new 0 0 512 512" xml:space="preserve">
<g id="Layer_1">
	<g>
		<path d="M496.8,184.1L267.4,13.9c-7.3-5.4-17.4-5.4-24.6,0.1L15.5,186.5c-7.9,7-9.5,14.1-9.5,22.1v238.7
			C6,477.9,31.5,502,62.1,502h396.7c25.9,0,47.2-20,47.2-45.9V208.6C506,199.6,504.5,189.9,496.8,184.1z M440,236.1L265.5,393
			c-2.3,2.1-5.8,3.1-8.7,3.1c-2.8,0-6.8-1-9-3L56,225.3v-11.9c0-14.7,15.6-27.5,30.3-27.5h326c14.7,0,27.6,12.7,27.6,27.5V236.1z"/>
		<path d="M372.5,236h-233c-4.6,0-8.3,4.4-8.3,9c0,4.6,3.7,9,8.3,9h233c4.6,0,8.3-4.4,8.3-9C380.8,240.4,377.1,236,372.5,236z"/>
		<path d="M339.2,286H172.8c-4.6,0-8.3,4.4-8.3,9c0,4.6,3.7,9,8.3,9h166.4c4.6,0,8.3-4.4,8.3-9C347.5,290.4,343.8,286,339.2,286z"/>
	</g>
</g>
<g id="Layer_2">
</g>
</svg>
