<?xml version="1.0" encoding="utf-8"?>
<!-- Generator: Adobe Illustrator 18.1.1, SVG Export Plug-In . SVG Version: 6.00 Build 0)  -->
<!DOCTYPE svg PUBLIC "-//W3C//DTD SVG 1.1//EN" "http://www.w3.org/Graphics/SVG/1.1/DTD/svg11.dtd">
<svg version="1.1" xmlns="http://www.w3.org/2000/svg" xmlns:xlink="http://www.w3.org/1999/xlink" x="0px" y="0px"
	 viewBox="0 0 512 512" enable-background="new 0 0 512 512" xml:space="preserve">
<g id="Layer_1">
	<g>
		<path d="M477,72.6c-7.3-4.4-15.7-2.6-24.8-2.6H60.4c-10.1,0-19.4-1.3-27.2,3.9l222.9,195.6L477,72.6z"/>
		<path d="M496.4,85.1L264.2,294.4c-2.3,2.1-5.2,3.1-8,3.1c-2.8,0-5.7-1-8-3L14.6,87.5C11.1,94.1,6,101.6,6,109.6v287
			C6,423.4,33.7,443,60.4,443h391.8c26.7,0,53.8-19.6,53.8-46.3v-287C506,100.6,500.7,92.3,496.4,85.1z"/>
	</g>
</g>
<g id="Layer_2">
</g>
</svg>
