<?xml version="1.0" encoding="utf-8"?>
<!-- Generator: Adobe Illustrator 18.1.1, SVG Export Plug-In . SVG Version: 6.00 Build 0)  -->
<!DOCTYPE svg PUBLIC "-//W3C//DTD SVG 1.1//EN" "http://www.w3.org/Graphics/SVG/1.1/DTD/svg11.dtd">
<svg version="1.1" xmlns="http://www.w3.org/2000/svg" xmlns:xlink="http://www.w3.org/1999/xlink" x="0px" y="0px"
	 viewBox="0 0 512 512" enable-background="new 0 0 512 512" xml:space="preserve">
<g id="Layer_1">
	<g>
		<path d="M455.2,172.3c-6.5-3.9-14.1-2.3-22.2-2.3H81.9c-9,0-17.4-1.2-24.4,3.5l199.7,175.2L455.2,172.3z"/>
		<path d="M472,183.4L264.6,371c-2,1.9-4.6,2.8-7.2,2.8c-2.6,0-5.1-0.9-7.1-2.7L39.8,185.6c-3.1,6-8.8,12.7-8.8,19.9v222.2
			c0,24,27,41.3,50.9,41.3H433c23.9,0,47-17.4,47-41.3V205.4C480,197.4,475.9,189.9,472,183.4z M458.1,368.4l-40.2,40.2
			c-2.9,2.9-6.7,4.4-10.6,4.4s-7.6-1.4-10.6-4.4c-5.8-5.8-5.8-15.3,0-21.1l14.7-14.6h-73.3c-8.3,0-14.9-6.7-14.9-15
			c0-8.3,6.7-15,14.9-15h73.3l-14.4-14.4c-5.8-5.8-5.8-15.3,0-21.2c5.8-5.8,15.3-5.8,21.1,0l39.9,39.9c2.8,2.8,4.4,6.6,4.4,10.6
			S460.9,365.6,458.1,368.4z"/>
	</g>
</g>
<g id="Layer_2">
</g>
</svg>
