<?xml version="1.0" encoding="utf-8"?>
<!-- Generator: Adobe Illustrator 18.1.1, SVG Export Plug-In . SVG Version: 6.00 Build 0)  -->
<!DOCTYPE svg PUBLIC "-//W3C//DTD SVG 1.1//EN" "http://www.w3.org/Graphics/SVG/1.1/DTD/svg11.dtd">
<svg version="1.1" xmlns="http://www.w3.org/2000/svg" xmlns:xlink="http://www.w3.org/1999/xlink" x="0px" y="0px"
	 viewBox="0 0 512 512" enable-background="new 0 0 512 512" xml:space="preserve">
<g id="Layer_1">
	<g>
		<path d="M460.6,118.2c-6.7-4-14.4-2.2-22.7-2.2H78.2c-9.2,0-17.8-1.4-25,3.4l204.6,179.5L460.6,118.2z"/>
		<path d="M477.8,129.5L265.3,321.6c-2.1,1.9-4.7,2.9-7.4,2.9c-2.6,0-5.2-0.9-7.3-2.8L35,131.6c-3.2,6.1-9,13-9,20.4v263.6
			c0,24.5,27.7,42.4,52.2,42.4h359.7c24.5,0,48.1-17.9,48.1-42.4V152C486,143.7,481.8,136.1,477.8,129.5z M463.5,353l-41.2,41.2
			c-3,3-6.9,4.5-10.8,4.5s-7.8-1.5-10.8-4.5c-6-6-6-15.5,0-21.5l15.1-14.8h-75.1c-8.5,0-15.3-7-15.3-15.5c0-8.5,6.8-15.5,15.3-15.5
			h75.1L401,312.2c-6-6-6-15.7,0-21.7c6-6,15.7-6,21.6,0l40.9,40.8c2.9,2.9,4.5,6.8,4.5,10.8S466.4,350.2,463.5,353z"/>
	</g>
</g>
<g id="Layer_2">
</g>
</svg>
