<?xml version="1.0" encoding="utf-8"?>
<!-- Generator: Adobe Illustrator 18.1.1, SVG Export Plug-In . SVG Version: 6.00 Build 0)  -->
<!DOCTYPE svg PUBLIC "-//W3C//DTD SVG 1.1//EN" "http://www.w3.org/Graphics/SVG/1.1/DTD/svg11.dtd">
<svg version="1.1" xmlns="http://www.w3.org/2000/svg" xmlns:xlink="http://www.w3.org/1999/xlink" x="0px" y="0px"
	 viewBox="0 0 512 512" enable-background="new 0 0 512 512" xml:space="preserve">
<g id="Layer_1">
	<g>
		<path d="M471.7,183.4l-206-152.8c-6.6-4.9-15.6-4.8-22.1,0.1L39.5,185.6c-7.1,6.3-8.5,12.7-8.5,19.9v214.3
			c0,27.5,22.9,49.2,50.3,49.2h356.3c23.2,0,42.4-18.1,42.4-41.3V205.4C480,197.4,478.7,188.6,471.7,183.4z M421,230.1L264.1,371
			c-2,1.9-5.3,2.8-7.8,2.8c-2.6,0-6.1-0.9-8.1-2.7L76,220.5v-10.7c0-13.2,13.9-24.8,27.1-24.8h292.8c13.2,0,25.1,11.5,25.1,24.8
			V230.1z"/>
		<path d="M360.1,230H150.9c-4.1,0-7.5,3.9-7.5,8c0,4.1,3.3,8,7.5,8h209.2c4.1,0,7.5-3.9,7.5-8C367.6,233.9,364.2,230,360.1,230z"/>
		<path d="M330.2,275H180.8c-4.1,0-7.5,3.9-7.5,8c0,4.1,3.3,8,7.5,8h149.4c4.1,0,7.5-3.9,7.5-8C337.7,278.9,334.4,275,330.2,275z"/>
	</g>
</g>
<g id="Layer_2">
</g>
</svg>
