<?xml version="1.0" encoding="utf-8"?>
<!-- Generator: Adobe Illustrator 19.1.0, SVG Export Plug-In . SVG Version: 6.00 Build 0)  -->
<!DOCTYPE svg PUBLIC "-//W3C//DTD SVG 1.1//EN" "http://www.w3.org/Graphics/SVG/1.1/DTD/svg11.dtd">
<svg version="1.1" id="Layer_1" xmlns="http://www.w3.org/2000/svg" xmlns:xlink="http://www.w3.org/1999/xlink" x="0px" y="0px"
	 viewBox="0 0 512 512" enable-background="new 0 0 512 512" xml:space="preserve">
<g>
	<path d="M489.7,99.7c-11.8-8-27.8-4.9-35.8,6.9L284,357l-37.9-33.4l-29.2,43l55,48.4c4.7,4.2,10.8,6.4,17.1,6.4
		c1.1,0,2.2-0.1,3.2-0.2c7.3-0.9,13.9-5,18.1-11.1l186.2-274.7C504.5,123.7,501.5,107.7,489.7,99.7z"/>
	<path d="M354.3,94.9c-11.8-8-27.8-4.9-35.8,6.9L148.7,352.2l-94.9-83.6c-10.7-9.4-27-8.4-36.4,2.3c-9.4,10.7-8.4,27,2.3,36.4
		l116.8,103c4.7,4.2,10.8,6.4,17.1,6.4c1.1,0,2.2-0.1,3.2-0.2c7.3-0.9,13.9-5,18.1-11.1l186.2-274.7
		C369.2,119,366.1,102.9,354.3,94.9z"/>
</g>
</svg>
