<?xml version="1.0" encoding="utf-8"?>
<!-- Generator: Adobe Illustrator 18.1.1, SVG Export Plug-In . SVG Version: 6.00 Build 0)  -->
<!DOCTYPE svg PUBLIC "-//W3C//DTD SVG 1.1//EN" "http://www.w3.org/Graphics/SVG/1.1/DTD/svg11.dtd">
<svg version="1.1" xmlns="http://www.w3.org/2000/svg" xmlns:xlink="http://www.w3.org/1999/xlink" x="0px" y="0px"
	 viewBox="0 0 512 512" enable-background="new 0 0 512 512" xml:space="preserve">
<g id="Layer_1">
	<g>
		<path d="M478.4,72.5c-7.3-4.4-15.7-2.5-24.7-2.5H62.7c-10,0-19.4-1.4-27.1,3.9L258,269L478.4,72.5z"/>
		<path d="M497.1,84.9l-231,208.8c-2.3,2.1-5.1,3.1-8,3.1c-2.8,0-5.7-1-7.9-3L15.8,87.3C12.3,93.9,6,101.4,6,109.4v286.5
			C6,422.6,36.1,442,62.7,442h390.9c26.7,0,52.3-19.4,52.3-46.1V109.4C506,100.4,501.4,92.1,497.1,84.9z M481.6,327.9l-44.8,44.8
			c-3.2,3.2-7.5,4.9-11.8,4.9s-8.5-1.6-11.8-4.9c-6.5-6.5-6.5-17,0-23.5l16.4-16.3H348c-9.2,0-16.6-7.3-16.6-16.5
			c0-9.2,7.4-16.5,16.6-16.5h81.6l-16-16.2c-6.5-6.5-6.5-17.2,0-23.7c6.5-6.5,17-6.6,23.5-0.1l44.4,44.4c3.1,3.1,4.9,7.3,4.9,11.8
			C486.5,320.6,484.7,324.8,481.6,327.9z"/>
	</g>
</g>
<g id="Layer_2">
</g>
</svg>
