<svg class="icon icon-mic-mute" height="16" viewBox="0 0 15 16" version="1.1" aria-hidden="true">
    <path d="M10.92,3.07A3.9,3.9,0,0,0,7.12,0,3.84,3.84,0,0,0,3.26,3.65V7.41a3.49,3.49,0,0,0,1,2.35Z"/>
    <path d="M11,7.41V6.9L6.83,11h.3A3.83,3.83,0,0,0,11,7.41Z"/>
    <path d="M14.65,1.28a.82.82,0,0,0-1.17,0L.35,14.42a.83.83,0,1,0,1.17,1.17L14.65,2.45A.82.82,0,0,0,14.65,1.28Z"/>
    <path
      d="M7.18,11.64a4.45,4.45,0,0,1-.85-.09L5,12.87a6.33,6.33,0,0,0,1.53.38v1.08H5.15a.84.84,0,1,0,0,1.67H9.54a.84.84,0,1,0,0-1.67H8.2V13.2a6.16,6.16,0,0,0,5.08-6H11.63A4.63,4.63,0,0,1,7.18,11.64Z"/>
    <path d="M3.86,10.14A4.3,4.3,0,0,1,2.73,7.2H1.08a5.91,5.91,0,0,0,1.61,4.11Z"/>
</svg>
