<?xml version="1.0" encoding="utf-8"?>
<!-- Generator: Adobe Illustrator 16.0.0, SVG Export Plug-In . SVG Version: 6.00 Build 0)  -->
<!DOCTYPE svg PUBLIC "-//W3C//DTD SVG 1.1//EN" "http://www.w3.org/Graphics/SVG/1.1/DTD/svg11.dtd">
<svg version="1.1" id="Layer_1" xmlns="http://www.w3.org/2000/svg" xmlns:xlink="http://www.w3.org/1999/xlink" x="0px" y="0px"
	 width="300px" height="300px" viewBox="0 0 300 300" style="enable-background:new 0 0 300 300;" xml:space="preserve">
<path d="M223.938,129.719c0.152,1.059,0,26.486,0,27.547c0,8.476-1.514,16.648-4.843,24.369c-3.18,7.415-7.719,14.075-13.47,19.826
	c-5.752,5.752-12.412,10.293-19.829,13.471c-7.719,3.18-15.894,4.844-24.369,4.844s-16.648-1.664-24.368-4.844
	c-7.415-3.178-14.076-7.719-19.827-13.471c-0.303-0.15-0.454-0.454-0.757-0.604l11.806-11.958
	c8.476,8.476,20.282,13.623,33.146,13.623l0,0c26.034,0,47.224-21.189,47.224-47.224v-47.072l85.669-86.274L277.064,5L208.65,73.868
	V60.699c0-26.034-21.189-47.224-47.224-47.224l0,0c-26.033,0-47.223,21.189-47.223,47.224v94.599c0,4.086,0.606,8.173,1.513,11.957
	l-12.562,12.714c-2.875-7.266-4.237-14.834-4.237-22.703c0-1.061,0-26.488,0-27.547H79.694c0,1.059,0,26.486,0,27.547
	c0,11.049,2.271,21.795,6.509,31.784c0.757,1.815,1.514,3.633,2.421,5.449l-82.943,83.55L22.784,295l80.22-80.521
	c0.303,0.15,0.453,0.303,0.605,0.605c7.567,7.416,16.346,13.318,26.034,17.557c7.112,3.027,14.529,4.994,22.248,5.753v29.21h-36.478
	v18.921h92.178v-18.921h-36.629v-29.21c7.719-0.909,15.135-2.877,22.25-5.753c9.686-4.238,18.465-10.141,26.033-17.557
	c7.416-7.568,13.319-16.196,17.557-26.034c4.239-9.989,6.357-20.735,6.357-31.784c0-1.061,0-26.488,0-27.547H223.938z"/>
<g id="Restricted">
</g>
<g id="Help">
</g>
</svg>
