<?xml version="1.0" encoding="utf-8"?>
<!-- Generator: Adobe Illustrator 18.1.1, SVG Export Plug-In . SVG Version: 6.00 Build 0)  -->
<!DOCTYPE svg PUBLIC "-//W3C//DTD SVG 1.1//EN" "http://www.w3.org/Graphics/SVG/1.1/DTD/svg11.dtd">
<svg version="1.1" xmlns="http://www.w3.org/2000/svg" xmlns:xlink="http://www.w3.org/1999/xlink" x="0px" y="0px"
	 viewBox="0 0 512 512" enable-background="new 0 0 512 512" xml:space="preserve">
<g id="Layer_1">
	<g>
		<path d="M362.8,101.9C353.1,47.6,300.5,6,243.8,6C180.9,6,123,57.2,123,120v117.6c0,28,11.9,53.6,30.1,73.5L362.8,101.9z"/>
		<path d="M365,237.7v-16L235.3,351.2c3.1,0.2,6.2,0.5,9.3,0.5C307.4,351.7,365,300.5,365,237.7z"/>
		<path d="M479.5,46c-10.1-10.1-26.4-10.1-36.5,0L32.5,456.6c-10.1,10.1-10.1,26.4,0,36.5c5,5,11.6,7.6,18.2,7.6s13.2-2.5,18.2-7.6
			L479.5,82.4C489.6,72.3,489.6,56,479.5,46z"/>
		<path d="M246,369.7c-9.1,0-18-1.1-26.6-2.8l-41.6,41.4c15.3,5.9,31.1,10,48.1,11.9V454h-43.3c-15.3,0-27.7,11.8-27.7,26
			s12.4,26,27.7,26h137c15.3,0,27.7-11.8,27.7-26s-12.4-26-27.7-26H278v-35.5C368,402.9,436.6,323,436.6,231H385
			C385,299,322.7,369.7,246,369.7z"/>
		<path d="M142.2,322.8c-21.8-24.5-35.2-54.8-35.2-91.8H55.5c0,52,19.2,94.5,50.3,128.4L142.2,322.8z"/>
	</g>
</g>
<g id="Layer_2">
</g>
</svg>
