<?xml version="1.0" encoding="utf-8"?>
<!-- Generator: Adobe Illustrator 18.1.1, SVG Export Plug-In . SVG Version: 6.00 Build 0)  -->
<!DOCTYPE svg PUBLIC "-//W3C//DTD SVG 1.1//EN" "http://www.w3.org/Graphics/SVG/1.1/DTD/svg11.dtd">
<svg version="1.1" xmlns="http://www.w3.org/2000/svg" xmlns:xlink="http://www.w3.org/1999/xlink" x="0px" y="0px"
	 viewBox="0 0 512 512" enable-background="new 0 0 512 512" xml:space="preserve">
<g id="Layer_1">
	<g>
		<path d="M353.6,122.7c-8.5-47.2-53.8-83.3-103-83.3c-54.6,0-104.6,44.5-104.6,99.1v102.3c0,24.3,9.9,46.6,25.7,63.9L353.6,122.7z"
			/>
		<path d="M356,240.8v-13.9L243,339.5c2.7,0.2,5.5,0.4,8.2,0.4C305.8,339.9,356,295.4,356,240.8z"/>
		<path d="M455.1,74.1c-8.8-8.8-22.9-8.8-31.7,0L66.5,431c-8.8,8.8-8.8,22.9,0,31.7c4.4,4.4,10.1,6.6,15.8,6.6s11.5-2.2,15.8-6.6
			l356.9-356.9C463.8,97.1,463.8,82.9,455.1,74.1z"/>
		<path d="M252.1,355.5c-7.9,0-15.6-0.9-23.1-2.4l-36,35.9c13.3,5.1,27.3,8.7,42,10.4V429h-38c-13.3,0-24.1,10.1-24.1,22.5
			S183.7,474,197,474h119.1c13.3,0,24.1-10.1,24.1-22.5S329.4,429,316.1,429H280v-31c78.1-13.6,137.7-83.2,137.7-163h-44.8
			C372.9,294,318.7,355.5,252.1,355.5z"/>
		<path d="M161.9,314.8c-18.9-21.3-30.6-47.8-30.6-79.8H86.5c0,45,16.7,82.1,43.7,111.6L161.9,314.8z"/>
	</g>
</g>
<g id="Layer_2">
</g>
</svg>
