<?xml version="1.0" encoding="utf-8"?>
<!-- Generator: Adobe Illustrator 18.1.1, SVG Export Plug-In . SVG Version: 6.00 Build 0)  -->
<!DOCTYPE svg PUBLIC "-//W3C//DTD SVG 1.1//EN" "http://www.w3.org/Graphics/SVG/1.1/DTD/svg11.dtd">
<svg version="1.1" xmlns="http://www.w3.org/2000/svg" xmlns:xlink="http://www.w3.org/1999/xlink" x="0px" y="0px"
	 viewBox="0 0 512 512" enable-background="new 0 0 512 512" xml:space="preserve">
<g id="Layer_1">
	<g>
		<path d="M354.3,114.2C345.3,64.3,297.1,26,245,26c-57.8,0-111,47.1-111,104.9v108.2c0,25.8,10.8,49.3,27.5,67.6L354.3,114.2z"/>
		<path d="M356,239.1v-14.7L236.8,343.6c2.8,0.2,5.6,0.4,8.5,0.4C303.1,344,356,297,356,239.1z"/>
		<path d="M461.7,62.8c-9.3-9.3-24.3-9.3-33.5,0L50.3,440.5c-9.3,9.3-9.3,24.3,0,33.5c4.6,4.6,10.7,7,16.8,7c6.1,0,12.1-2.3,16.8-7
			L461.7,96.3C470.9,87,470.9,72,461.7,62.8z"/>
		<path d="M246.8,360.6c-8.4,0-16.5-1-24.4-2.5l-38.5,38c14.1,5.4,29.1,9.2,44.1,11V438h-39.4c-14.1,0-25.5,10.9-25.5,24
			s11.4,24,25.5,24h126c14.1,0,25.5-10.9,25.5-24s-11.4-24-25.5-24H276v-32.5c83-14.4,146.2-87.9,146.2-172.5h-47.4
			C374.7,295.6,317.4,360.6,246.8,360.6z"/>
		<path d="M151.3,317.4C131.3,294.9,119,267,119,233H71.5c0,47.8,17.6,86.9,46.3,118.1L151.3,317.4z"/>
	</g>
</g>
<g id="Layer_2">
</g>
</svg>
