<?xml version="1.0" encoding="utf-8"?>
<!-- Generator: Adobe Illustrator 18.1.1, SVG Export Plug-In . SVG Version: 6.00 Build 0)  -->
<!DOCTYPE svg PUBLIC "-//W3C//DTD SVG 1.1//EN" "http://www.w3.org/Graphics/SVG/1.1/DTD/svg11.dtd">
<svg version="1.1" xmlns="http://www.w3.org/2000/svg" xmlns:xlink="http://www.w3.org/1999/xlink" x="0px" y="0px"
	 viewBox="0 0 512 512" enable-background="new 0 0 512 512" xml:space="preserve">
<g id="Layer_1">
	<g>
		<path d="M255,344.3c57.9,0,110-47.1,110-105V131c0-57.9-52.1-105-110-105S145,73.1,145,131v108.3C145,297.2,197.1,344.3,255,344.3
			z"/>
		<path d="M431.5,233H384c0,69.9-57.4,128-128,128s-128-58.1-128-128H80.5c0,91.1,69.5,165.5,158.5,174.3V439h-41.3
			c-14.1,0-25.5,10.4-25.5,23.5s11.4,23.5,25.5,23.5h126.1c14.1,0,25.5-10.4,25.5-23.5S337.9,439,323.8,439H286v-33.5
			C369,391.1,431.5,318.6,431.5,233z"/>
	</g>
</g>
<g id="Layer_2">
</g>
</svg>
