<?xml version="1.0" encoding="utf-8"?>
<!-- Generator: Adobe Illustrator 18.1.1, SVG Export Plug-In . SVG Version: 6.00 Build 0)  -->
<!DOCTYPE svg PUBLIC "-//W3C//DTD SVG 1.1//EN" "http://www.w3.org/Graphics/SVG/1.1/DTD/svg11.dtd">
<svg version="1.1" xmlns="http://www.w3.org/2000/svg" xmlns:xlink="http://www.w3.org/1999/xlink" x="0px" y="0px"
	 viewBox="0 0 512 512" enable-background="new 0 0 512 512" xml:space="preserve">
<g id="Layer_1">
	<g>
		<path d="M254.5,352c62.9,0,119.5-51.2,119.5-114.1V120.1C374,57.2,317.4,6,254.5,6S135,57.2,135,120.1v117.7
			C135,300.8,191.6,352,254.5,352z"/>
		<path d="M446.7,231h-51.6c0,76-62.4,139.1-139.1,139.1S116.9,307,116.9,231H65.3c0,99,75.7,179.9,171.7,189.4V455h-44.4
			c-15.3,0-27.8,11.3-27.8,25.5s12.4,25.5,27.8,25.5h137.1c15.3,0,27.8-11.3,27.8-25.5S345,455,329.7,455H289v-36.5
			C379,402.9,446.7,324,446.7,231z"/>
	</g>
</g>
<g id="Layer_2">
</g>
</svg>
