<?xml version="1.0" encoding="utf-8"?>
<!-- Generator: Adobe Illustrator 16.0.0, SVG Export Plug-In . SVG Version: 6.00 Build 0)  -->
<!DOCTYPE svg PUBLIC "-//W3C//DTD SVG 1.1//EN" "http://www.w3.org/Graphics/SVG/1.1/DTD/svg11.dtd">
<svg version="1.1" id="Layer_1" xmlns="http://www.w3.org/2000/svg" xmlns:xlink="http://www.w3.org/1999/xlink" x="0px" y="0px"
	 width="300px" height="300px" viewBox="0 0 300 300" style="enable-background:new 0 0 300 300;" xml:space="preserve">
<path d="M216.511,128.436c0,1.127,0,28.324,0,29.289c0,9.012-1.771,17.703-5.312,25.91c-3.379,8.047-8.046,15.128-14.162,21.243
	c-6.115,6.114-13.357,10.783-21.243,14.162c-8.207,3.541-16.897,5.311-25.91,5.311c-8.852,0-17.703-1.77-25.748-5.311
	c-8.048-3.379-15.128-8.048-21.244-14.162c-6.114-6.115-10.943-13.196-14.161-21.243c-3.542-8.207-5.312-16.898-5.312-25.91
	c0-0.965,0-28.162,0-29.289H63.142c0,1.127,0,28.324,0,29.289c0,11.749,2.253,23.175,6.76,33.957
	c4.345,10.299,10.621,19.634,18.668,27.519c7.885,8.048,17.22,14.323,27.519,18.509c7.564,3.217,15.451,5.311,23.657,6.274v30.899
	H100.96V295h98.009v-20.117h-38.946v-30.899c8.207-0.964,16.094-3.058,23.657-6.274c10.46-4.186,19.635-10.461,27.68-18.509
	c8.048-7.885,14.323-17.22,18.669-27.519c4.506-10.782,6.76-22.208,6.76-33.957c0-0.965,0.16-28.162,0-29.289H216.511z
	 M200.096,155.633c0,27.841-22.37,50.211-50.212,50.211l0,0c-27.68,0-50.21-22.37-50.21-50.211V55.211
	c0-27.68,22.53-50.211,50.21-50.211l0,0c27.842,0,50.212,22.531,50.212,50.211V155.633z"/>
<g id="Restricted">
</g>
<g id="Help">
</g>
</svg>
