<?xml version="1.0" encoding="utf-8"?>
<!-- Generator: Adobe Illustrator 18.1.1, SVG Export Plug-In . SVG Version: 6.00 Build 0)  -->
<!DOCTYPE svg PUBLIC "-//W3C//DTD SVG 1.1//EN" "http://www.w3.org/Graphics/SVG/1.1/DTD/svg11.dtd">
<svg version="1.1" xmlns="http://www.w3.org/2000/svg" xmlns:xlink="http://www.w3.org/1999/xlink" x="0px" y="0px"
	 viewBox="0 0 512 512" enable-background="new 0 0 512 512" xml:space="preserve">
<g id="Layer_1">
	<g>
		<path d="M250,340.3c54.6,0,104-44.4,104-99.1V138.9c0-54.6-49.4-99.1-104-99.1s-104,44.5-104,99.1v102.3
			C146,295.8,195.4,340.3,250,340.3z"/>
		<path d="M417,235h-44.8c0,66-54.2,120.8-120.8,120.8S130.6,301,130.6,235H85.8c0,86,65.6,156.4,149.2,164.7V430h-38.6
			c-13.3,0-24.1,9.6-24.1,22s10.8,22,24.1,22h119.1c13.3,0,24.1-9.6,24.1-22s-10.8-22-24.1-22H280v-32C357.7,384.4,417,316,417,235z
			"/>
	</g>
</g>
<g id="Layer_2">
</g>
</svg>
