<?xml version="1.0" encoding="utf-8"?>
<!-- Generator: Adobe Illustrator 16.0.0, SVG Export Plug-In . SVG Version: 6.00 Build 0)  -->
<!DOCTYPE svg PUBLIC "-//W3C//DTD SVG 1.1//EN" "http://www.w3.org/Graphics/SVG/1.1/DTD/svg11.dtd">
<svg version="1.1" id="Layer_1" xmlns="http://www.w3.org/2000/svg" xmlns:xlink="http://www.w3.org/1999/xlink" x="0px" y="0px"
	 width="300px" height="300px" viewBox="0 0 300 300" style="enable-background:new 0 0 300 300;" xml:space="preserve">
<path d="M255.881,124.02l-29.506-29.375L267.5,53.52L246.48,32.5l-41.125,41.125L175.98,44.12v79.899H255.881z M246.48,267.5
	l21.02-21.02l-41.125-41.125l24.283-24.152h-69.456v69.455l24.153-24.283L246.48,267.5z M53.52,267.5l41.125-41.125l29.506,29.637
	V175.98H44.119l29.506,29.375L32.5,246.48L53.52,267.5z M53.52,32.5L32.5,53.52l41.125,41.125L44.119,124.02h79.9V44.12
	L94.645,73.625L53.52,32.5z"/>
<g id="Restricted">
</g>
<g id="Help">
</g>
</svg>
