<?xml version="1.0" encoding="utf-8"?>
<!-- Generator: Adobe Illustrator 16.0.0, SVG Export Plug-In . SVG Version: 6.00 Build 0)  -->
<!DOCTYPE svg PUBLIC "-//W3C//DTD SVG 1.1//EN" "http://www.w3.org/Graphics/SVG/1.1/DTD/svg11.dtd">
<svg version="1.1" id="Layer_1" xmlns="http://www.w3.org/2000/svg" xmlns:xlink="http://www.w3.org/1999/xlink" x="0px" y="0px"
	 width="300px" height="300px" viewBox="0 0 300 300" style="enable-background:new 0 0 300 300;" xml:space="preserve">
<path d="M280.662,117.939l-36.412-36.25L295,30.939L269.061,5l-50.75,50.75l-36.25-36.41v98.6H280.662z M269.061,295L295,269.061
	l-50.75-50.75l29.966-29.805h-85.711v85.711l29.806-29.967L269.061,295z M30.939,295l50.75-50.75l36.412,36.573v-98.763H19.338
	l36.412,36.25L5,269.061L30.939,295z M30.939,5L5,30.939l50.75,50.75l-36.412,36.25h98.601v-98.6l-36.25,36.41L30.939,5z"/>
<g id="Restricted">
</g>
<g id="Help">
</g>
</svg>
