<?xml version="1.0" encoding="utf-8"?>
<!-- Generator: Adobe Illustrator 16.0.0, SVG Export Plug-In . SVG Version: 6.00 Build 0)  -->
<!DOCTYPE svg PUBLIC "-//W3C//DTD SVG 1.1//EN" "http://www.w3.org/Graphics/SVG/1.1/DTD/svg11.dtd">
<svg version="1.1" id="Layer_1" xmlns="http://www.w3.org/2000/svg" xmlns:xlink="http://www.w3.org/1999/xlink" x="0px" y="0px"
	 width="300px" height="300px" viewBox="0 0 300 300" style="enable-background:new 0 0 300 300;" xml:space="preserve">
<g id="Restricted">
</g>
<g id="Help">
	<g>
		<path d="M219,257c0,5.523-4.477,10-10,10H90c-5.523,0-10-4.477-10-10V44c0-5.523,4.477-10,10-10h119c5.523,0,10,4.477,10,10V257z"
			/>
		<path style="fill:#FFFFFF;" d="M206,218.974c0,4.433-3.593,8.026-8.026,8.026h-96.948c-4.433,0-8.026-3.594-8.026-8.026V71.026
			C93,66.594,96.593,63,101.026,63h96.948c4.433,0,8.026,3.594,8.026,8.026V218.974z"/>
		<circle style="fill:#FFFFFF;" cx="150" cy="248.25" r="9.25"/>
	</g>
</g>
</svg>
