<?xml version="1.0" encoding="utf-8"?>
<!-- Generator: Adobe Illustrator 16.0.0, SVG Export Plug-In . SVG Version: 6.00 Build 0)  -->
<!DOCTYPE svg PUBLIC "-//W3C//DTD SVG 1.1//EN" "http://www.w3.org/Graphics/SVG/1.1/DTD/svg11.dtd">
<svg version="1.1" id="Layer_1" xmlns="http://www.w3.org/2000/svg" xmlns:xlink="http://www.w3.org/1999/xlink" x="0px" y="0px"
	 width="300px" height="300px" viewBox="0 0 300 300" style="enable-background:new 0 0 300 300;" xml:space="preserve">
<g id="Restricted">
</g>
<g id="Help">
	<path d="M247,18.446C247,11.572,241.428,6,234.554,6H86.446C79.572,6,74,11.572,74,18.446v265.107
		C74,290.428,79.572,296,86.446,296h148.107c6.874,0,12.446-5.572,12.446-12.446V18.446z M160.54,283.054
		c-6.358,0-11.513-5.155-11.513-11.513c0-6.358,5.155-11.513,11.513-11.513s11.513,5.155,11.513,11.513
		C172.052,277.899,166.897,283.054,160.54,283.054z M231,236.01c0,5.518-4.472,9.99-9.989,9.99H99.989
		c-5.517,0-9.989-4.473-9.989-9.99V51.99c0-5.518,4.472-9.99,9.989-9.99h121.021c5.517,0,9.989,4.473,9.989,9.99V236.01z"/>
</g>
</svg>
