<?xml version="1.0" encoding="utf-8"?>
<!-- Generator: Adobe Illustrator 16.0.0, SVG Export Plug-In . SVG Version: 6.00 Build 0)  -->
<!DOCTYPE svg PUBLIC "-//W3C//DTD SVG 1.1//EN" "http://www.w3.org/Graphics/SVG/1.1/DTD/svg11.dtd">
<svg version="1.1" id="Layer_1" xmlns="http://www.w3.org/2000/svg" xmlns:xlink="http://www.w3.org/1999/xlink" x="0px" y="0px"
	 width="300px" height="300px" viewBox="0 0 300 300" style="enable-background:new 0 0 300 300;" xml:space="preserve">
<g id="Restricted">
</g>
<g id="Help">
	<path d="M269.102,61.688l-44.77-49.064c0,0-12.175,13.82-37.383,11.908C167.742,23.084,150.01,5,150.01,5
		s-17.754,18.084-36.959,19.532c-25.208,1.912-37.383-11.908-37.383-11.908l-44.77,49.064c0,0,20.002,17.16,17.382,43.354
		c-2.605,26.21-26.953,98.612-7.392,129.107c19.562,30.498,49.557,39.068,69.116,41.924C129.563,278.931,150.01,295,150.01,295
		s20.427-16.069,39.983-18.927c19.562-2.855,49.555-11.426,69.116-41.924c19.562-30.495-4.784-102.897-7.39-129.107
		C249.097,78.849,269.102,61.688,269.102,61.688z M190.159,197.019l-40.149-21.127l-40.172,21.127l7.667-44.731l-32.502-31.68
		l44.922-6.528l20.085-40.7l20.065,40.7l44.922,6.528l-32.502,31.68L190.159,197.019z"/>
</g>
</svg>
