<?xml version="1.0" encoding="utf-8"?>
<!-- Generator: Adobe Illustrator 18.1.1, SVG Export Plug-In . SVG Version: 6.00 Build 0)  -->
<!DOCTYPE svg PUBLIC "-//W3C//DTD SVG 1.1//EN" "http://www.w3.org/Graphics/SVG/1.1/DTD/svg11.dtd">
<svg version="1.1" id="Layer_1" xmlns="http://www.w3.org/2000/svg" xmlns:xlink="http://www.w3.org/1999/xlink" x="0px" y="0px"
	 viewBox="0 0 512 512" enable-background="new 0 0 512 512" xml:space="preserve">
<path d="M446.5,88.4L272.6,9.6c-10.7-4.8-23.1-4.8-33.9,0L65.3,88.3C59.2,91,55,97.8,55,104.4V255c0,192.9,187.3,247.8,195.3,250.1
	c1.8,0.6,3.5,0.9,5.4,0.9c1.7,0,3.6-0.3,5.2-0.8C273.8,501.5,457,445.6,457,255V104.4C457,97.8,452.4,91.1,446.5,88.4z M252.5,40.1
	c2-0.9,4.2-0.9,6.2,0L423,114.6V222H88V114.6L252.5,40.1z"/>
</svg>
