<?xml version="1.0" encoding="utf-8"?>
<!-- Generator: Adobe Illustrator 18.1.1, SVG Export Plug-In . SVG Version: 6.00 Build 0)  -->
<!DOCTYPE svg PUBLIC "-//W3C//DTD SVG 1.1//EN" "http://www.w3.org/Graphics/SVG/1.1/DTD/svg11.dtd">
<svg version="1.1" id="Layer_1" xmlns="http://www.w3.org/2000/svg" xmlns:xlink="http://www.w3.org/1999/xlink" x="0px" y="0px"
	 viewBox="0 0 512 512" enable-background="new 0 0 512 512" xml:space="preserve">
<path d="M426.1,113.5L274.8,44.9c-9.3-4.2-20.1-4.2-29.4,0L94.1,113.4c-5.3,2.3-9.1,8.2-9.1,14v131.2c0,168,163.3,215.9,170.3,217.8
	c1.5,0.5,3.2,0.8,4.8,0.8c1.5,0,2.9-0.2,4.3-0.7c11.2-3.2,170.6-51.9,170.6-217.9V127.4C435,121.7,431.3,115.8,426.1,113.5z
	 M260.1,447.4c-23.9-7.7-145.6-53.7-145.8-188.4H261V71c0.6,0.1,1.2,0.2,1.8,0.5L406,136.4v122.3c0,0.1,0,0.2,0,0.4H261v188.1
	C260.7,447.2,260.4,447.3,260.1,447.4z"/>
</svg>
