<?xml version="1.0" encoding="utf-8"?>
<!-- Generator: Adobe Illustrator 18.1.1, SVG Export Plug-In . SVG Version: 6.00 Build 0)  -->
<!DOCTYPE svg PUBLIC "-//W3C//DTD SVG 1.1//EN" "http://www.w3.org/Graphics/SVG/1.1/DTD/svg11.dtd">
<svg version="1.1" id="Layer_1" xmlns="http://www.w3.org/2000/svg" xmlns:xlink="http://www.w3.org/1999/xlink" x="0px" y="0px"
	 viewBox="0 0 512 512" enable-background="new 0 0 512 512" xml:space="preserve">
<path d="M425.8,113.1L274.4,44.5c-9.3-4.2-20.1-4.2-29.5,0l-151,68.6c-5.3,2.3-8.9,8.2-8.9,14v131.2c0,168,163.1,215.9,170.1,217.8
	c1.5,0.5,3,0.8,4.6,0.8c1.5,0,3.1-0.2,4.5-0.7C275.5,473,435,424.3,435,258.3V127.1C435,121.3,431,115.5,425.8,113.1z M257,71.1
	c1.7-0.8,3.4-0.8,5.1,0L405,136v94H114v-94L257,71.1z"/>
</svg>
