<?xml version="1.0" encoding="utf-8"?>
<!-- Generator: Adobe Illustrator 18.1.1, SVG Export Plug-In . SVG Version: 6.00 Build 0)  -->
<!DOCTYPE svg PUBLIC "-//W3C//DTD SVG 1.1//EN" "http://www.w3.org/Graphics/SVG/1.1/DTD/svg11.dtd">
<svg version="1.1" id="Layer_1" xmlns="http://www.w3.org/2000/svg" xmlns:xlink="http://www.w3.org/1999/xlink" x="0px" y="0px"
	 viewBox="0 0 512 512" enable-background="new 0 0 512 512" xml:space="preserve">
<path d="M426.8,113.5L275.4,44.9c-9.3-4.2-20.2-4.2-29.5,0l-151,68.6c-5.3,2.3-8.9,8.2-8.9,14v131.2c0,168,163,215.9,170,217.8
	c1.5,0.5,3,0.8,4.6,0.8c1.5,0,3.1-0.2,4.6-0.7c11.2-3.2,170.8-51.9,170.8-217.9V127.4C436,121.7,432,115.8,426.8,113.5z M115,258.6
	V136.4l143-64.9c0.7-0.3,1.3-0.5,2-0.5v376.3C234.9,439,115,392.7,115,258.6z"/>
</svg>
