<?xml version="1.0" encoding="utf-8"?>
<!-- Generator: Adobe Illustrator 16.0.0, SVG Export Plug-In . SVG Version: 6.00 Build 0)  -->
<!DOCTYPE svg PUBLIC "-//W3C//DTD SVG 1.1//EN" "http://www.w3.org/Graphics/SVG/1.1/DTD/svg11.dtd">
<svg version="1.1" id="Layer_1" xmlns="http://www.w3.org/2000/svg" xmlns:xlink="http://www.w3.org/1999/xlink" x="0px" y="0px"
	 width="300px" height="300px" viewBox="0 0 300 300" style="enable-background:new 0 0 300 300;" xml:space="preserve">
<g id="Restricted">
</g>
<g id="Help">
	<path d="M246.514,78.438l-36.279-39.76c0,0-9.865,11.199-30.293,9.65C164.377,47.154,150.008,32.5,150.008,32.5
		s-14.387,14.654-29.949,15.828c-20.428,1.549-30.293-9.65-30.293-9.65l-36.279,39.76c0,0,16.209,13.905,14.086,35.131
		c-2.111,21.239-21.842,79.91-5.99,104.622c15.852,24.714,40.158,31.658,56.008,33.973c15.85,2.315,32.418,15.337,32.418,15.337
		s16.553-13.021,32.4-15.337c15.852-2.314,40.156-9.259,56.008-33.973c15.852-24.712-3.877-83.383-5.988-104.622
		C230.303,92.343,246.514,78.438,246.514,78.438z M182.543,188.102l-32.535-17.12l-32.553,17.12l6.213-36.248L97.33,126.182
		l36.402-5.29l16.275-32.981l16.26,32.981l36.402,5.29l-26.338,25.672L182.543,188.102z"/>
</g>
</svg>
