<?xml version="1.0" encoding="utf-8"?>
<!-- Generator: Adobe Illustrator 16.0.0, SVG Export Plug-In . SVG Version: 6.00 Build 0)  -->
<!DOCTYPE svg PUBLIC "-//W3C//DTD SVG 1.1//EN" "http://www.w3.org/Graphics/SVG/1.1/DTD/svg11.dtd">
<svg version="1.1" id="Layer_1" xmlns="http://www.w3.org/2000/svg" xmlns:xlink="http://www.w3.org/1999/xlink" x="0px" y="0px"
	 width="300px" height="300px" viewBox="0 0 300 300" style="enable-background:new 0 0 300 300;" xml:space="preserve">
<g>
	<path d="M229.078,89.736l-51.072,8.099c-2.562-6.499-4.871-11.007-6.935-13.527c-2.058-2.519-5.469-5.05-10.223-7.617v39.716
		c27.82,7.424,46.398,15.25,55.735,23.498c12.354,11.08,18.533,25.144,18.533,42.173c0,9.984-2.218,19.145-6.659,27.481
		c-4.438,8.338-10.112,15.296-17.022,20.878c-6.912,5.591-14.259,9.64-22.034,12.16c-7.778,2.517-17.299,4.007-28.553,4.462v25.947
		h-20.044v-25.947c-13.455-1.19-24.369-3.365-32.742-6.522c-8.379-3.158-15.609-7.521-21.691-13.11
		c-6.089-5.577-10.78-11.598-14.073-18.048c-3.299-6.452-5.768-14.252-7.415-23.405l55.465-6.451
		c1.646,9.056,3.862,15.604,6.659,19.623c2.789,4.029,7.389,7.604,13.796,10.712v-48.509c-18.49-5.129-31.599-9.578-39.333-13.331
		c-7.736-3.751-14.437-9.774-20.112-18.062c-5.678-8.288-8.514-18.393-8.514-30.296c0-16.303,5.7-29.927,17.095-40.869
		c11.393-10.94,28.35-17.014,50.864-18.207V26.994h20.044v13.589c20.499,1.29,36.17,6.132,47.018,14.557
		C218.709,63.557,225.78,75.094,229.078,89.736z M140.804,76.002c-5.86,1.94-9.934,4.325-12.218,7.179
		c-2.292,2.852-3.434,6.209-3.434,10.063c0,4.051,1.16,7.57,3.481,10.559c2.32,2.991,6.375,5.49,12.17,7.504V76.002z
		 M160.848,211.232c7.776-1.748,13.471-4.613,17.09-8.605c3.612-3.996,5.424-8.475,5.424-13.437c0-4.316-1.532-8.286-4.589-11.91
		c-3.058-3.622-9.033-6.996-17.925-10.106V211.232z"/>
</g>
<g id="Restricted">
</g>
<g id="Help">
</g>
</svg>
