<?xml version="1.0" encoding="utf-8"?>
<!-- Generator: Adobe Illustrator 16.0.0, SVG Export Plug-In . SVG Version: 6.00 Build 0)  -->
<!DOCTYPE svg PUBLIC "-//W3C//DTD SVG 1.1//EN" "http://www.w3.org/Graphics/SVG/1.1/DTD/svg11.dtd">
<svg version="1.1" id="Layer_1" xmlns="http://www.w3.org/2000/svg" xmlns:xlink="http://www.w3.org/1999/xlink" x="0px" y="0px"
	 width="300px" height="300px" viewBox="0 0 300 300" style="enable-background:new 0 0 300 300;" xml:space="preserve">
<g>
	<path d="M243.218,78.961l-60.204,9.547c-3.021-7.661-5.742-12.976-8.175-15.946c-2.426-2.969-6.447-5.953-12.05-8.979v46.817
		c32.794,8.751,54.694,17.977,65.701,27.7c14.562,13.061,21.847,29.639,21.847,49.713c0,11.77-2.614,22.568-7.849,32.396
		c-5.231,9.829-11.92,18.031-20.066,24.611c-8.148,6.59-16.809,11.363-25.974,14.334c-9.169,2.967-20.393,4.724-33.659,5.26V295
		h-23.629v-30.587c-15.86-1.403-28.726-3.967-38.596-7.688c-9.877-3.723-18.4-8.865-25.57-15.455
		c-7.178-6.574-12.707-13.671-16.589-21.274c-3.889-7.605-6.799-16.801-8.74-27.591l65.382-7.604
		c1.94,10.675,4.553,18.395,7.85,23.132c3.287,4.75,8.71,8.963,16.263,12.628v-57.183c-21.795-6.046-37.249-11.291-46.366-15.715
		c-9.119-4.422-17.018-11.522-23.708-21.291c-6.693-9.771-10.036-21.682-10.036-35.713c0-19.218,6.719-35.278,20.151-48.177
		c13.43-12.896,33.419-20.056,59.958-21.463V5h23.629v16.019c24.164,1.521,42.638,7.229,55.425,17.159
		C230.995,48.1,239.33,61.7,243.218,78.961z M139.159,62.771c-6.907,2.287-11.71,5.099-14.403,8.463
		c-2.701,3.361-4.047,7.318-4.047,11.862c0,4.775,1.367,8.924,4.104,12.446c2.734,3.526,7.514,6.473,14.346,8.846V62.771z
		 M162.788,222.181c9.166-2.061,15.879-5.438,20.146-10.144c4.257-4.711,6.394-9.99,6.394-15.839c0-5.089-1.806-9.769-5.41-14.04
		c-3.605-4.27-10.648-8.247-21.13-11.914V222.181z"/>
</g>
<g id="Restricted">
</g>
<g id="Help">
</g>
</svg>
