<?xml version="1.0" encoding="utf-8"?>
<!-- Generator: Adobe Illustrator 18.1.1, SVG Export Plug-In . SVG Version: 6.00 Build 0)  -->
<!DOCTYPE svg PUBLIC "-//W3C//DTD SVG 1.1//EN" "http://www.w3.org/Graphics/SVG/1.1/DTD/svg11.dtd">
<svg version="1.1" xmlns="http://www.w3.org/2000/svg" xmlns:xlink="http://www.w3.org/1999/xlink" x="0px" y="0px"
	 viewBox="0 0 512 512" enable-background="new 0 0 512 512" xml:space="preserve">
<g id="Layer_1">
	<path d="M483,82.8c0-14.6-12.2-26.8-26.7-26.8H194.5C180,56,168,68.2,168,82.8v75.1c0,0.3,0.3,0.1,0.3,1.1H168v138.8
		c-13-7.7-28.5-12-44.9-12c-49.7,0-90,40.4-90,90.1c0,49.7,40.4,90.1,90.1,90.1c49.7,0,90.1-40.4,90.1-90.1c0-2.4-0.3-4.9-0.3-7.2
		V184h224v114.2c-13-7.9-28.8-12.5-45.5-12.5c-49.7,0-90,40.4-90,90.1c0,49.7,40.5,90.1,90.1,90.1s90.1-40.2,90.1-89.8
		c0-0.1,0,0,0,0h0.2V162h0.2c0.2-1,0.8-2.7,0.8-4.1V82.8z"/>
</g>
<g id="Layer_2">
</g>
</svg>
