<?xml version="1.0" encoding="utf-8"?>
<!-- Generator: Adobe Illustrator 18.1.1, SVG Export Plug-In . SVG Version: 6.00 Build 0)  -->
<!DOCTYPE svg PUBLIC "-//W3C//DTD SVG 1.1//EN" "http://www.w3.org/Graphics/SVG/1.1/DTD/svg11.dtd">
<svg version="1.1" xmlns="http://www.w3.org/2000/svg" xmlns:xlink="http://www.w3.org/1999/xlink" x="0px" y="0px"
	 viewBox="0 0 512 512" enable-background="new 0 0 512 512" xml:space="preserve">
<g id="Layer_1">
	<path d="M486,74c0-14.9-12.5-28-27.3-28H191c-14.8,0-27,13.1-27,28v76.8c0,0.3,0.2,0.2,0.2,1.2H164v141.8
		c-14-7.8-29.2-12.3-45.9-12.3c-50.8,0-92.1,41.3-92.1,92.1c0,50.8,41.3,92.1,92.1,92.1c50.8,0,92.1-41.3,92.1-92.1
		c0-2.5-0.3-5-0.3-7.4V178h229v116.2c-14-8.1-29.5-12.7-46.5-12.7c-50.8,0-92,41.3-92,92.1c0,50.8,41.4,92.1,92.1,92.1
		s92.1-41,92.1-91.8c0-0.1,0,0.1,0,0.1h0.2V155h0.2c0.2-1,0.8-2.8,0.8-4.2V74z"/>
</g>
<g id="Layer_2">
</g>
</svg>
