<?xml version="1.0" encoding="utf-8"?>
<!-- Generator: Adobe Illustrator 18.1.1, SVG Export Plug-In . SVG Version: 6.00 Build 0)  -->
<!DOCTYPE svg PUBLIC "-//W3C//DTD SVG 1.1//EN" "http://www.w3.org/Graphics/SVG/1.1/DTD/svg11.dtd">
<svg version="1.1" xmlns="http://www.w3.org/2000/svg" xmlns:xlink="http://www.w3.org/1999/xlink" x="0px" y="0px"
	 viewBox="0 0 512 512" enable-background="new 0 0 512 512" xml:space="preserve">
<g id="Layer_1">
	<path d="M506,58.2C506,42,492.4,28,476.3,28h-291c-16,0-29.3,14-29.3,30.2v83.5c0,0.3,0.2,0.3,0.2,1.3H156v154.1
		c-15-8.5-31.7-13.4-49.9-13.4C50.9,283.7,6,328.6,6,383.8C6,439,50.9,483.9,106.1,483.9c55.2,0,100.1-44.9,100.1-100.1
		c0-2.7-0.3-5.4-0.3-8V171h249v126.6c-15-8.8-32.1-13.8-50.6-13.8c-55.2,0-100,44.9-100,100.1c0,55.2,44.9,100.1,100.1,100.1
		s100.1-44.7,100.1-99.9c0-0.1,0-0.1,0-0.1h0.3V146h0.1c0.2-1,0.9-2.8,0.9-4.3V58.2z"/>
</g>
<g id="Layer_2">
</g>
</svg>
