<svg class="icon icon-network" height="16" viewBox="0 0 16 16" version="1.1" aria-hidden="true">
    <path
      d="M8,0a8,8,0,1,0,8,8A8,8,0,0,0,8,0Zm6.36,7.2H11.43A12.31,12.31,0,0,0,9.81,1.85,6.39,6.39,0,0,1,14.36,7.2ZM8,14.39A12.39,12.39,0,0,1,6.07,8.8H9.86A12.13,12.13,0,0,1,8,14.39ZM6.07,7.2A11.31,11.31,0,0,1,8,1.85,11.38,11.38,0,0,1,9.85,7.2Zm0-5.31A12.53,12.53,0,0,0,4.48,7.2H1.64A6.43,6.43,0,0,1,6.07,1.89ZM1.64,8.8H4.48A14,14,0,0,0,6,14.08,6.47,6.47,0,0,1,1.64,8.8Zm8.28,5.32a14.17,14.17,0,0,0,1.5-5.32h2.94A6.44,6.44,0,0,1,9.92,14.12Z"/>
</svg>
