<?xml version="1.0" encoding="utf-8"?>
<!-- Generator: Adobe Illustrator 18.1.1, SVG Export Plug-In . SVG Version: 6.00 Build 0)  -->
<!DOCTYPE svg PUBLIC "-//W3C//DTD SVG 1.1//EN" "http://www.w3.org/Graphics/SVG/1.1/DTD/svg11.dtd">
<svg version="1.1" xmlns="http://www.w3.org/2000/svg" xmlns:xlink="http://www.w3.org/1999/xlink" x="0px" y="0px"
	 viewBox="0 0 512 512" enable-background="new 0 0 512 512" xml:space="preserve">
<g id="Layer_1">
	<path d="M256,26C129.2,26,26,129.2,26,256c0,126.8,103.2,230,230,230c126.8,0,230-103.2,230-230C486,129.2,382.8,26,256,26z
		 M438.8,233h-84.3c-3-49-16.3-100-46.4-153.8C377.3,99.6,429.7,159,438.8,233z M254.7,439.7c-15.9-24.8-48.4-84.3-54.1-160.7h108.8
		C303.9,355.4,271,414.8,254.7,439.7z M200.6,233c3.6-47,18.8-100,54-153.8C290,133.3,305.5,186,309.2,233H200.6z M200.4,80.3
		C170.8,133.7,157.7,186,154.7,233H73.2C82.2,161,133,101.6,200.4,80.3z M73.2,279h81.6c4.2,62.6,24.4,115.9,42.5,151.7
		C131.4,408.5,82,348.9,73.2,279z M311.3,431.8c18.2-35.8,38.7-90.3,43-152.8h84.4C429.8,350.8,378.9,410.5,311.3,431.8z"/>
</g>
<g id="Layer_2">
</g>
</svg>
