<?xml version="1.0" encoding="utf-8"?>
<!-- Generator: Adobe Illustrator 18.1.1, SVG Export Plug-In . SVG Version: 6.00 Build 0)  -->
<!DOCTYPE svg PUBLIC "-//W3C//DTD SVG 1.1//EN" "http://www.w3.org/Graphics/SVG/1.1/DTD/svg11.dtd">
<svg version="1.1" xmlns="http://www.w3.org/2000/svg" xmlns:xlink="http://www.w3.org/1999/xlink" x="0px" y="0px"
	 viewBox="0 0 512 512" enable-background="new 0 0 512 512" xml:space="preserve">
<g id="Layer_1">
	<path d="M256,6C118.1,6,6,118.1,6,256c0,137.8,112.1,250,250,250c137.9,0,250-112.1,250-250C506,118.1,393.9,6,256,6z M454.7,231
		H363c-3.3-53-17.7-108.7-50.4-167.2C387.8,86,444.8,151,454.7,231z M254.5,455.6c-17.3-26.9-52.7-91.6-58.8-174.6H314
		C308.1,364,272.3,428.6,254.5,455.6z M195.8,231c3.9-51,20.5-108.7,58.7-167.2c38.5,58.8,55.3,116.2,59.4,167.2H195.8z M195.6,65
		c-32.3,58-46.5,115-49.8,166H57.3C67.1,153,122.3,88.2,195.6,65z M57.3,281H146c4.6,68,26.6,125.9,46.2,164.9
		C120.5,421.7,66.9,357,57.3,281z M316.1,447.1c19.8-39,42.1-98.1,46.8-166.1h91.8C444.9,359,389.6,423.9,316.1,447.1z"/>
</g>
<g id="Layer_2">
</g>
</svg>
