<svg class="icon icon-news" height="16" viewBox="0 0 16 16" version="1.1" aria-hidden="true">
    <path
      d="M15.52.23A.8.8,0,0,0,15,0H4.25a.8.8,0,0,0-.8.8V2.16H1a.78.78,0,0,0-.8.79v10.7A2.3,2.3,0,0,0,2.52,16H13.37a2.36,2.36,0,0,0,2.35-2.35L15.76.8A.8.8,0,0,0,15.52.23ZM3.44,13.65c0,.49-.24.75-.68.75s-.92-.13-.92-.75V3.76h1.6Zm10.68,0a.75.75,0,0,1-.75.75H4.94a2.54,2.54,0,0,0,.1-.75V1.6h9.11Z"/>
    <path d="M6.6,9h6a.52.52,0,1,0,0-1h-6a.52.52,0,1,0,0,1Z"/>
    <path d="M6.6,11.2h6a.51.51,0,1,0,0-1h-6a.51.51,0,1,0,0,1Z"/>
    <path d="M6.6,13.39h6a.52.52,0,1,0,0-1h-6a.52.52,0,1,0,0,1Z"/>
    <rect x="6.12" y="2.68" width="7.06" height="4.28" rx="0.27" ry="0.27"/>
</svg>
