<?xml version="1.0" encoding="utf-8"?>
<!-- Generator: Adobe Illustrator 18.1.1, SVG Export Plug-In . SVG Version: 6.00 Build 0)  -->
<!DOCTYPE svg PUBLIC "-//W3C//DTD SVG 1.1//EN" "http://www.w3.org/Graphics/SVG/1.1/DTD/svg11.dtd">
<svg version="1.1" xmlns="http://www.w3.org/2000/svg" xmlns:xlink="http://www.w3.org/1999/xlink" x="0px" y="0px"
	 viewBox="0 0 512 512" enable-background="new 0 0 512 512" xml:space="preserve">
<g id="Layer_1">
	<g>
		<path d="M465.4,38.5c-4.2-4.2-9.9-6.5-15.9-6.5h-300c-12.4,0-22.5,9.9-22.5,22.3V92H59.7C47.3,92,37,102,37,114.3v299.8
			c0,36.7,26.1,62.9,64,65.7l304,0.2c36.4,0,66-29.6,66-65.9l0.9-359.8C471.9,48.4,469.6,42.7,465.4,38.5z M127,414.1
			c0,13.6-6.8,21.1-19.2,21.1c-11.8,0-25.8-3.7-25.8-21.1V137h45V414.1z M426.2,414.2c0,11.6-9.5,20.8-21.1,20.8H169
			c1.9-6,3-13.4,3-20.9V77h255L426.2,414.2z"/>
		<path d="M215.4,285h168.1c8.3,0,14.9-6.7,14.9-15c0-8.3-6.7-15-14.9-15H215.4c-8.3,0-14.9,6.7-14.9,15
			C200.4,278.3,207.1,285,215.4,285z"/>
		<path d="M215.4,346h168.1c8.3,0,14.9-6.2,14.9-14.5s-6.7-14.5-14.9-14.5H215.4c-8.3,0-14.9,6.2-14.9,14.5S207.1,346,215.4,346z"/>
		<path d="M215.4,407h168.1c8.3,0,14.9-6.2,14.9-14.5c0-8.3-6.7-14.5-14.9-14.5H215.4c-8.3,0-14.9,6.2-14.9,14.5
			C200.4,400.8,207.1,407,215.4,407z"/>
		<path d="M208.5,227h183.1c4.1,0,7.5-3.3,7.5-7.5V114.5c0-4.1-3.3-7.5-7.5-7.5H208.5c-4.1,0-7.5,3.3-7.5,7.5v105.1
			C201,223.7,204.3,227,208.5,227z"/>
	</g>
</g>
<g id="Layer_2">
</g>
</svg>
