<?xml version="1.0" encoding="utf-8"?>
<!-- Generator: Adobe Illustrator 18.1.1, SVG Export Plug-In . SVG Version: 6.00 Build 0)  -->
<!DOCTYPE svg PUBLIC "-//W3C//DTD SVG 1.1//EN" "http://www.w3.org/Graphics/SVG/1.1/DTD/svg11.dtd">
<svg version="1.1" xmlns="http://www.w3.org/2000/svg" xmlns:xlink="http://www.w3.org/1999/xlink" x="0px" y="0px"
	 viewBox="0 0 512 512" enable-background="new 0 0 512 512" xml:space="preserve">
<g id="Layer_1">
	<g>
		<path d="M472.3,32.7c-4.3-4.3-10.2-6.7-16.3-6.7h-308C135.4,26,125,36.2,125,48.9V88H55.9C43.2,88,33,97.9,33,110.6v307.8
			c0,37.6,26.6,64.6,65.5,67.4l312,0.3c37.3,0,67.7-30.4,67.7-67.6L479.1,49C479.1,42.9,476.7,37,472.3,32.7z M125,418.3
			c0,14-6.9,21.6-19.6,21.6c-12.1,0-26.4-3.8-26.4-21.6V134h46V418.3z M432.1,418.4c0,11.9-9.7,21.6-21.6,21.6H168.1
			c2-6,2.9-14,2.9-21.7V72h262L432.1,418.4z"/>
		<path d="M215.7,285h172.6c8.5,0,15.3-6.5,15.3-15c0-8.5-6.9-15-15.3-15H215.7c-8.5,0-15.3,6.5-15.3,15
			C200.3,278.5,207.2,285,215.7,285z"/>
		<path d="M215.7,348h172.6c8.5,0,15.3-6,15.3-14.5s-6.9-14.5-15.3-14.5H215.7c-8.5,0-15.3,6-15.3,14.5S207.2,348,215.7,348z"/>
		<path d="M215.7,411h172.6c8.5,0,15.3-6.5,15.3-15c0-8.5-6.9-15-15.3-15H215.7c-8.5,0-15.3,6.5-15.3,15
			C200.3,404.5,207.2,411,215.7,411z"/>
		<path d="M405,110.7c0-4.2-3.4-7.7-7.7-7.7H209.7c-4.2,0-7.7,3.4-7.7,7.7v107.7c0,4.2,3.4,7.7,7.7,7.7h187.7c4.2,0,7.7-3.4,7.7-7.7
			V110.7z"/>
	</g>
</g>
<g id="Layer_2">
</g>
</svg>
