<?xml version="1.0" encoding="utf-8"?>
<!-- Generator: Adobe Illustrator 18.1.1, SVG Export Plug-In . SVG Version: 6.00 Build 0)  -->
<!DOCTYPE svg PUBLIC "-//W3C//DTD SVG 1.1//EN" "http://www.w3.org/Graphics/SVG/1.1/DTD/svg11.dtd">
<svg version="1.1" xmlns="http://www.w3.org/2000/svg" xmlns:xlink="http://www.w3.org/1999/xlink" x="0px" y="0px"
	 viewBox="0 0 512 512" enable-background="new 0 0 512 512" xml:space="preserve">
<g id="Layer_1">
	<g>
		<path d="M491.2,13.3C486.5,8.6,480.1,6,473.5,6H138.7C124.9,6,114,17.1,114,30.9V73H38.5C24.6,73,14,84.1,14,97.9v334.6
			c0,40.9,28.7,70.2,71,73.3l339,0.3c40.6,0,73.5-33,73.5-73.5l1-401.6C498.5,24.3,495.9,18,491.2,13.3z M114,432.5
			c0,15.2-7.5,23.5-21.3,23.5c-13.1,0-28.7-4.1-28.7-23.5V123h50V432.5z M447.4,432.5c0,13-10.6,23.5-23.5,23.5H160.4
			c2.1-7,3.6-15.2,3.6-23.5V56h284.4L447.4,432.5z"/>
		<path d="M212.2,288h187.6c9.2,0,16.7-7.3,16.7-16.5c0-9.2-7.5-16.5-16.7-16.5H212.2c-9.2,0-16.7,7.3-16.7,16.5
			C195.5,280.7,202.9,288,212.2,288z"/>
		<path d="M212.2,356h187.6c9.2,0,16.7-6.8,16.7-16s-7.5-16-16.7-16H212.2c-9.2,0-16.7,6.8-16.7,16S202.9,356,212.2,356z"/>
		<path d="M212.2,425h187.6c9.2,0,16.7-7.3,16.7-16.5c0-9.2-7.5-16.5-16.7-16.5H212.2c-9.2,0-16.7,7.3-16.7,16.5
			C195.5,417.7,202.9,425,212.2,425z"/>
		<path d="M418,98.3c0-4.6-3.7-8.3-8.3-8.3H205.3c-4.6,0-8.3,3.7-8.3,8.3v117.3c0,4.6,3.7,8.3,8.3,8.3h204.3c4.6,0,8.3-3.7,8.3-8.3
			V98.3z"/>
	</g>
</g>
<g id="Layer_2">
</g>
</svg>
