<?xml version="1.0" encoding="utf-8"?>
<!-- Generator: Adobe Illustrator 18.1.1, SVG Export Plug-In . SVG Version: 6.00 Build 0)  -->
<!DOCTYPE svg PUBLIC "-//W3C//DTD SVG 1.1//EN" "http://www.w3.org/Graphics/SVG/1.1/DTD/svg11.dtd">
<svg version="1.1" xmlns="http://www.w3.org/2000/svg" xmlns:xlink="http://www.w3.org/1999/xlink" x="0px" y="0px"
	 viewBox="0 0 512 512" enable-background="new 0 0 512 512" xml:space="preserve">
<g id="Layer_1">
	<g>
		<path d="M251.9,480.2c30,0,55.8-19.2,67.7-45.2H184.2C196.1,461,221.8,480.2,251.9,480.2z"/>
		<path d="M450.6,384.6c-65.7-40.5-59.5-170.4-59.4-172.3c0-61.5-49.2-113.6-94.2-130.7v-9.3c0-21.9-22.6-39.8-44.5-39.8
			c-21.9,0-44.5,17.9-44.5,39.8v9.3c-45,17.1-94.8,69.3-94.8,131.4c1.3,36.8-6.4,137.9-61.1,171.7c-7.3,4.5-10.3,13.7-7.9,22
			c2.4,8.3,10.4,14.4,19.1,14.4h98.6h179.3h99.3c8.6,0,16.2-6.1,18.6-14.4C461.4,398.3,457.9,389.2,450.6,384.6z"/>
	</g>
</g>
<g id="Layer_2">
</g>
</svg>
