<?xml version="1.0" encoding="utf-8"?>
<!-- Generator: Adobe Illustrator 16.0.0, SVG Export Plug-In . SVG Version: 6.00 Build 0)  -->
<!DOCTYPE svg PUBLIC "-//W3C//DTD SVG 1.1//EN" "http://www.w3.org/Graphics/SVG/1.1/DTD/svg11.dtd">
<svg version="1.1" id="Layer_1" xmlns="http://www.w3.org/2000/svg" xmlns:xlink="http://www.w3.org/1999/xlink" x="0px" y="0px"
	 width="300px" height="300px" viewBox="0 0 300 300" style="enable-background:new 0 0 300 300;" xml:space="preserve">
<g>
	<g>
		<path d="M217.649,215.701c0,37.41-30.364,67.606-67.773,67.606c-37.243,0-67.774-30.196-67.774-67.606
			c0-37.075,30.531-67.439,67.774-67.439C187.285,148.262,217.649,178.626,217.649,215.701z"/>
	</g>
	<g>
		<g>
			<path d="M233.991,146.696c-3.968,0-7.936-1.512-10.964-4.539c-19.652-19.632-45.773-30.444-73.551-30.444
				c-27.517,0-53.464,10.643-73.064,29.97c-6.1,6.015-15.924,5.947-21.938-0.154c-6.016-6.101-5.947-15.923,0.154-21.939
				c25.441-25.086,59.126-38.902,94.848-38.902c36.061,0,69.969,14.036,95.479,39.521c6.062,6.056,6.066,15.877,0.011,21.94
				C241.936,145.18,237.963,146.696,233.991,146.696z"/>
		</g>
		<g>
			<path d="M279.389,101.298c-3.963,0-7.926-1.508-10.954-4.528c-31.724-31.631-73.866-49.051-118.662-49.051
				c-44.668,0-86.727,17.34-118.425,48.822c-6.079,6.036-15.902,6.004-21.939-0.076c-6.038-6.077-6.004-15.9,0.075-21.94
				c37.551-37.294,87.373-57.832,140.29-57.832c53.066,0,102.988,20.636,140.569,58.105c6.068,6.05,6.083,15.872,0.032,21.939
				C287.345,99.777,283.367,101.298,279.389,101.298z"/>
		</g>
	</g>
</g>
<g id="Restricted">
</g>
<g id="Help">
</g>
</svg>
