<?xml version="1.0" encoding="utf-8"?>
<!-- Generator: Adobe Illustrator 18.1.1, SVG Export Plug-In . SVG Version: 6.00 Build 0)  -->
<!DOCTYPE svg PUBLIC "-//W3C//DTD SVG 1.1//EN" "http://www.w3.org/Graphics/SVG/1.1/DTD/svg11.dtd">
<svg version="1.1" xmlns="http://www.w3.org/2000/svg" xmlns:xlink="http://www.w3.org/1999/xlink" x="0px" y="0px"
	 viewBox="0 0 512 512" enable-background="new 0 0 512 512" xml:space="preserve">
<g id="Layer_1">
	<g>
		<path d="M225,40.7c0-4.3-3.5-7.7-7.7-7.7H38.7c-4.3,0-7.7,3.5-7.7,7.7v178.5c0,4.3,3.5,7.7,7.7,7.7h178.5c4.3,0,7.7-3.5,7.7-7.7
			V40.7z"/>
		<path d="M478,40.7c0-4.3-3.5-7.7-7.7-7.7H291.7c-4.3,0-7.7,3.5-7.7,7.7v178.5c0,4.3,3.5,7.7,7.7,7.7h178.5c4.3,0,7.7-3.5,7.7-7.7
			V40.7z"/>
		<path d="M225,295.7c0-4.3-3.5-7.7-7.7-7.7H38.7c-4.3,0-7.7,3.5-7.7,7.7v178.5c0,4.3,3.5,7.7,7.7,7.7h178.5c4.3,0,7.7-3.5,7.7-7.7
			V295.7z"/>
		<path d="M478,295.7c0-4.3-3.5-7.7-7.7-7.7H291.7c-4.3,0-7.7,3.5-7.7,7.7v178.5c0,4.3,3.5,7.7,7.7,7.7h178.5c4.3,0,7.7-3.5,7.7-7.7
			V295.7z"/>
	</g>
</g>
<g id="Layer_2">
</g>
</svg>
