<?xml version="1.0" encoding="utf-8"?>
<!-- Generator: Adobe Illustrator 18.1.1, SVG Export Plug-In . SVG Version: 6.00 Build 0)  -->
<!DOCTYPE svg PUBLIC "-//W3C//DTD SVG 1.1//EN" "http://www.w3.org/Graphics/SVG/1.1/DTD/svg11.dtd">
<svg version="1.1" xmlns="http://www.w3.org/2000/svg" xmlns:xlink="http://www.w3.org/1999/xlink" x="0px" y="0px"
	 viewBox="0 0 512 512" enable-background="new 0 0 512 512" xml:space="preserve">
<g id="Layer_1">
	<g>
		<path d="M223,14.6c0-4.8-3.9-8.6-8.6-8.6H15.6C10.9,6,7,9.9,7,14.6v198.8c0,4.8,3.9,8.6,8.6,8.6h198.8c4.8,0,8.6-3.9,8.6-8.6V14.6
			z"/>
		<path d="M505,14.6c0-4.8-3.9-8.6-8.6-8.6H297.6c-4.8,0-8.6,3.9-8.6,8.6v198.8c0,4.8,3.9,8.6,8.6,8.6h198.8c4.8,0,8.6-3.9,8.6-8.6
			V14.6z"/>
		<path d="M223,298.6c0-4.8-3.9-8.6-8.6-8.6H15.6c-4.8,0-8.6,3.9-8.6,8.6v198.8c0,4.8,3.9,8.6,8.6,8.6h198.8c4.8,0,8.6-3.9,8.6-8.6
			V298.6z"/>
		<path d="M505,298.6c0-4.8-3.9-8.6-8.6-8.6H297.6c-4.8,0-8.6,3.9-8.6,8.6v198.8c0,4.8,3.9,8.6,8.6,8.6h198.8c4.8,0,8.6-3.9,8.6-8.6
			V298.6z"/>
	</g>
</g>
<g id="Layer_2">
</g>
</svg>
