<svg class="icon icon-performance" height="16" viewBox="0 0 16 16" version="1.1" aria-hidden="true">
    <path
      d="M8,15H2.82a.39.39,0,0,1-.24-.1A7.89,7.89,0,0,1,0,9.77a8,8,0,1,1,13.38,5.12.41.41,0,0,1-.26.09H8Zm0-1.31h4.16a.41.41,0,0,0,.32-.13,6.33,6.33,0,0,0,1.91-6A6.5,6.5,0,0,0,1.51,8.5a6.41,6.41,0,0,0,2,5,.4.4,0,0,0,.3.12Z"/>
    <path d="M13,6.73l-1.25,1a5.29,5.29,0,0,0-2.47-2l.64-1.15A5.49,5.49,0,0,1,13,6.73Z"/>
    <path d="M9.48,4.45l-.56,1a.13.13,0,0,1-.12,0,5.23,5.23,0,0,0-3.3.12l-.27-.54A5.83,5.83,0,0,1,9.48,4.45Z"/>
    <path
      d="M10.91,7.38a.24.24,0,0,0-.19-.16.2.2,0,0,0-.19.07l0,0-.08.11L10,8,8.24,10.64s0,0-.07,0h-.1a.93.93,0,0,0-.91.68.95.95,0,0,0,.91,1.21,1,1,0,0,0,.69-.29,1,1,0,0,0,.11-1.18v0l0,0,.67-1.15.25-.44,1.06-1.83v0A.28.28,0,0,0,10.91,7.38Z"/>
    <path d="M3.11,7.47A4.9,4.9,0,0,1,4.86,5.32l.26.49A5.61,5.61,0,0,0,3.11,7.47Z"/>
</svg>
