<?xml version="1.0" encoding="utf-8"?>
<!-- Generator: Adobe Illustrator 19.1.0, SVG Export Plug-In . SVG Version: 6.00 Build 0)  -->
<!DOCTYPE svg PUBLIC "-//W3C//DTD SVG 1.1//EN" "http://www.w3.org/Graphics/SVG/1.1/DTD/svg11.dtd">
<svg version="1.1" id="Layer_1" xmlns="http://www.w3.org/2000/svg" xmlns:xlink="http://www.w3.org/1999/xlink" x="0px" y="0px"
	 viewBox="0 0 512 512" enable-background="new 0 0 512 512" xml:space="preserve">
<g>
	<path d="M255.8,456.7c-49.6,0-99.3,0-148.9-0.1c-2.3,0-5.2-1.2-6.9-2.8C57.4,413.9,33,364.9,27.1,306.9
		C15.6,192.9,93.1,85.8,205,61c101.4-22.5,203.2,23.4,253.1,114.2c50.5,91.8,31.1,208.7-46.3,278.9c-1.8,1.6-5,2.5-7.5,2.5
		C354.8,456.7,305.3,456.7,255.8,456.7C255.8,456.7,255.8,456.7,255.8,456.7z M255.5,418.9c39.9,0,79.8,0,119.7,0.1
		c3.7,0,6.5-1,9.2-3.6c48.2-47.7,67.5-105.3,54.9-171.8C420,142.9,323.9,77.8,223.2,95.6c-85.5,15.1-150.4,88.5-153.7,174.8
		c-2.2,57,17.6,105.4,58.6,145.1c2.6,2.5,5.2,3.4,8.7,3.4C176.3,418.9,215.9,418.9,255.5,418.9z"/>
	<path d="M398.4,219.5c-12,9.2-23.8,18.3-35.9,27.6c-17.8-26.6-41.2-45.8-70.9-57.9c6.2-11.1,12.2-21.9,18.5-33.1
		C346.8,167,376.5,187.4,398.4,219.5z"/>
	<path d="M298.7,153.9c-5.4,9.9-10.7,19.9-16.2,29.7c-0.5,0.8-2.4,1.5-3.3,1.3c-31.8-9.2-63.2-7.8-94.8,3.5
		c-2.6-5.2-5.2-10.3-7.7-15.4C195.1,154.2,271.1,142.3,298.7,153.9z"/>
	<path d="M339.7,238.1c-0.8-2.2-2.6-4.3-5.6-4.7c-4.1-0.5-5.6,1.9-5.6,1.9l-1,1.4c-0.7,1-1.5,2.1-2.2,3.2l-11.9,17.5
		c-16.6,24.4-33.7,49.6-50.4,74.5c-0.9,1.4-1.1,1.4-2,1.4c-0.2,0-0.4,0-0.6,0c-0.8-0.1-1.6-0.1-2.3-0.1c-12.3,0-22.6,7.7-26,19.7
		c-3.5,12.1,1.7,24.9,12.6,31.2c4.1,2.4,8.8,3.6,13.6,3.6c7.4,0,14.6-3,19.7-8.3c8.9-9.2,10.1-23.1,3.1-33.9
		c-0.2-0.3-0.3-0.4-0.3-0.6c0.1-0.1,0.2-0.4,0.4-0.9c6.5-11,12.9-22.2,19.2-33.1l7.2-12.5c10.1-17.5,20.2-35.1,30.3-52.6
		c0.1-0.2,0.2-0.3,0.3-0.5C339.1,244,340.8,241.3,339.7,238.1z"/>
	<path d="M115.3,240.7c10.5-25.4,27.6-45.4,50.4-61.6c2.6,4.9,5,9.4,7.6,14.2C150,204.5,131,220.4,115.3,240.7z"/>
</g>
</svg>
