<?xml version="1.0" encoding="utf-8"?>
<!-- Generator: Adobe Illustrator 18.1.1, SVG Export Plug-In . SVG Version: 6.00 Build 0)  -->
<!DOCTYPE svg PUBLIC "-//W3C//DTD SVG 1.1//EN" "http://www.w3.org/Graphics/SVG/1.1/DTD/svg11.dtd">
<svg version="1.1" xmlns="http://www.w3.org/2000/svg" xmlns:xlink="http://www.w3.org/1999/xlink" x="0px" y="0px"
	 viewBox="0 0 512 512" enable-background="new 0 0 512 512" xml:space="preserve">
<g id="Layer_1">
	<path d="M406,50.2C406,25.8,386.2,6,361.8,6H150.2C125.8,6,106,25.8,106,50.2v411.7c0,24.4,19.8,44.2,44.2,44.2h211.7
		c24.4,0,44.2-19.8,44.2-44.2V50.2z M257,473.2c-8.9,0-16.1-7.2-16.1-16.1c0-8.9,7.2-16.1,16.1-16.1c8.9,0,16.1,7.2,16.1,16.1
		C273.1,465.9,265.9,473.2,257,473.2z M375,406H140V72h235V406z"/>
</g>
<g id="Layer_2">
</g>
</svg>
