<?xml version="1.0" encoding="utf-8"?>
<!-- Generator: Adobe Illustrator 18.1.1, SVG Export Plug-In . SVG Version: 6.00 Build 0)  -->
<!DOCTYPE svg PUBLIC "-//W3C//DTD SVG 1.1//EN" "http://www.w3.org/Graphics/SVG/1.1/DTD/svg11.dtd">
<svg version="1.1" xmlns="http://www.w3.org/2000/svg" xmlns:xlink="http://www.w3.org/1999/xlink" x="0px" y="0px"
	 viewBox="0 0 512 512" enable-background="new 0 0 512 512" xml:space="preserve">
<g id="Layer_1">
	<path d="M394,66.6c0-22.4-18.2-40.6-40.6-40.6H158.6C136.2,26,118,44.2,118,66.6v378.7c0,22.4,18.2,40.6,40.6,40.6h194.7
		c22.4,0,40.6-18.2,40.6-40.6V66.6z M256.9,455.8c-8.2,0-14.9-6.6-14.9-14.9c0-8.2,6.7-14.9,14.9-14.9c8.2,0,14.9,6.6,14.9,14.9
		C271.7,449.1,265.1,455.8,256.9,455.8z M365,394H149V87h216V394z"/>
</g>
<g id="Layer_2">
</g>
</svg>
