<?xml version="1.0" encoding="utf-8"?>
<!-- Generator: Adobe Illustrator 18.1.1, SVG Export Plug-In . SVG Version: 6.00 Build 0)  -->
<!DOCTYPE svg PUBLIC "-//W3C//DTD SVG 1.1//EN" "http://www.w3.org/Graphics/SVG/1.1/DTD/svg11.dtd">
<svg version="1.1" xmlns="http://www.w3.org/2000/svg" xmlns:xlink="http://www.w3.org/1999/xlink" x="0px" y="0px"
	 viewBox="0 0 512 512" enable-background="new 0 0 512 512" xml:space="preserve">
<g id="Layer_1">
	<path d="M355.5,32h-189C144.7,32,127,49.7,127,71.5v368c0,21.8,17.7,39.5,39.5,39.5h189c21.8,0,39.5-17.7,39.5-39.5v-368
		C395,49.7,377.3,32,355.5,32z M261.8,449.6c-8,0-14.4-6.5-14.4-14.4c0-8,6.5-14.4,14.4-14.4c8,0,14.4,6.5,14.4,14.4
		C276.2,443.2,269.7,449.6,261.8,449.6z M367,390H157V91h210V390z"/>
</g>
<g id="Layer_2">
</g>
</svg>
