<?xml version="1.0" encoding="utf-8"?>
<!-- Generator: Adobe Illustrator 16.0.0, SVG Export Plug-In . SVG Version: 6.00 Build 0)  -->
<!DOCTYPE svg PUBLIC "-//W3C//DTD SVG 1.1//EN" "http://www.w3.org/Graphics/SVG/1.1/DTD/svg11.dtd">
<svg version="1.1" id="Layer_1" xmlns="http://www.w3.org/2000/svg" xmlns:xlink="http://www.w3.org/1999/xlink" x="0px" y="0px"
	 width="300px" height="300px" viewBox="0 0 300 300" style="enable-background:new 0 0 300 300;" xml:space="preserve">
<path d="M150,103.448c-29.763,0-54.185,24.269-54.185,54.184c0,29.764,24.422,53.879,54.185,53.879s54.185-24.115,54.185-53.879
	C204.185,127.716,179.763,103.448,150,103.448z M283.858,61.168h-69.294l-14.042-15.11H99.479l-14.195,15.11H16.142
	C10.037,61.168,5,66.205,5,72.158v170.795c0,5.952,5.037,10.989,11.142,10.989h267.716c6.105,0,11.142-5.037,11.142-10.989V72.158
	C295,66.205,289.963,61.168,283.858,61.168z M64.068,101.158c0,0.305-0.306,0.458-0.763,0.458H22.248
	c-0.305,0-0.611-0.152-0.611-0.458V82.079c0-0.458,0.306-0.61,0.611-0.61h41.058c0.458,0,0.763,0.152,0.763,0.61V101.158z
	 M150,231.2c-40.601,0-73.721-32.969-73.721-73.569c0-40.752,33.12-73.721,73.721-73.721s73.721,32.968,73.721,73.721
	C223.721,198.231,190.601,231.2,150,231.2z"/>
<g id="Restricted">
</g>
<g id="Help">
</g>
</svg>
