<?xml version="1.0" encoding="utf-8"?>
<!-- Generator: Adobe Illustrator 18.1.1, SVG Export Plug-In . SVG Version: 6.00 Build 0)  -->
<!DOCTYPE svg PUBLIC "-//W3C//DTD SVG 1.1//EN" "http://www.w3.org/Graphics/SVG/1.1/DTD/svg11.dtd">
<svg version="1.1" xmlns="http://www.w3.org/2000/svg" xmlns:xlink="http://www.w3.org/1999/xlink" x="0px" y="0px"
	 viewBox="0 0 512 512" enable-background="new 0 0 512 512" xml:space="preserve">
<g id="Layer_1">
	<path d="M442.9,127h-86.8l-23.9-29.2c-5.9-7.6-17.7-16.8-33-16.8h-77.5c-12.7,0-24.4,6.4-32.3,16.4L164.3,127H78
		c-22.8,0-44,18.8-44,41.5v216.2c0,22.8,21.3,41.3,44,41.3h364.8c22.8,0,42.1-18.5,42.1-41.3V168.5C485,145.8,465.6,127,442.9,127z
		 M184.7,171l38.8-44h74.3l37.4,44H439v76h-83.7c-16.9-36-52.9-59.9-94.6-59.9S183,211,166.1,247H81v-76H184.7z M200.6,292.1
		c0-33.1,27-60.1,60.1-60.1s60.1,27,60.1,60.1s-27,60.1-60.1,60.1S200.6,325.2,200.6,292.1z"/>
</g>
<g id="Layer_2">
</g>
</svg>
