<?xml version="1.0" encoding="utf-8"?>
<!-- Generator: Adobe Illustrator 18.1.1, SVG Export Plug-In . SVG Version: 6.00 Build 0)  -->
<!DOCTYPE svg PUBLIC "-//W3C//DTD SVG 1.1//EN" "http://www.w3.org/Graphics/SVG/1.1/DTD/svg11.dtd">
<svg version="1.1" xmlns="http://www.w3.org/2000/svg" xmlns:xlink="http://www.w3.org/1999/xlink" x="0px" y="0px"
	 viewBox="0 0 512 512" enable-background="new 0 0 512 512" xml:space="preserve">
<g id="Layer_1">
	<path d="M459.3,116h-96.2l-26.5-32.4C330.1,75.2,317,65,300,65h-85.9c-14.1,0-27.1,7.1-35.8,18.2L150.4,116H54.8
		C29.6,116,6,136.3,6,161.6v239.7C6,426.5,29.6,447,54.8,447h404.5c25.2,0,46.7-20.5,46.7-45.7V161.6C506,136.3,484.5,116,459.3,116
		z M173.1,164l43-48h82.4l41.4,48H455v85h-92.8c-18.7-40-58.6-66.4-104.9-66.4S171.2,209,152.5,249H58v-85H173.1z M190.7,298.6
		c0-36.7,29.9-66.6,66.6-66.6c36.7,0,66.6,29.9,66.6,66.6s-29.9,66.6-66.6,66.6C220.6,365.2,190.7,335.3,190.7,298.6z"/>
</g>
<g id="Layer_2">
</g>
</svg>
