<?xml version="1.0" encoding="utf-8"?>
<!-- Generator: Adobe Illustrator 18.1.1, SVG Export Plug-In . SVG Version: 6.00 Build 0)  -->
<!DOCTYPE svg PUBLIC "-//W3C//DTD SVG 1.1//EN" "http://www.w3.org/Graphics/SVG/1.1/DTD/svg11.dtd">
<svg version="1.1" xmlns="http://www.w3.org/2000/svg" xmlns:xlink="http://www.w3.org/1999/xlink" x="0px" y="0px"
	 viewBox="0 0 512 512" enable-background="new 0 0 512 512" xml:space="preserve">
<g id="Layer_1">
	<path d="M443,127h-88.5l-24.4-29.8c-6-7.8-18.1-17.2-33.7-17.2h-79.1c-12.9,0-24.9,6.6-33,16.8L158.9,127h-88
		C47.7,127,26,145.9,26,169.1v220.5c0,23.2,21.7,42.4,44.9,42.4H443c23.2,0,43-19.1,43-42.4V169.1C486,145.9,466.3,127,443,127z
		 M179.7,171l39.5-44h75.8l38.1,44H439v79h-85.3c-17.2-37-54-61-96.5-61s-79.3,24-96.5,61H74v-79H179.7z M195.9,295.1
		c0-33.8,27.5-61.3,61.3-61.3s61.3,27.5,61.3,61.3s-27.5,61.3-61.3,61.3S195.9,328.9,195.9,295.1z"/>
</g>
<g id="Layer_2">
</g>
</svg>
