<?xml version="1.0" encoding="utf-8"?>
<!-- Generator: Adobe Illustrator 18.1.1, SVG Export Plug-In . SVG Version: 6.00 Build 0)  -->
<!DOCTYPE svg PUBLIC "-//W3C//DTD SVG 1.1//EN" "http://www.w3.org/Graphics/SVG/1.1/DTD/svg11.dtd">
<svg version="1.1" id="Layer_1" xmlns="http://www.w3.org/2000/svg" xmlns:xlink="http://www.w3.org/1999/xlink" x="0px" y="0px"
	 viewBox="0 0 512 512" enable-background="new 0 0 512 512" xml:space="preserve">
<g>
	<path d="M473.6,244H452v-29.4c0-12.4-11.1-22.4-23.5-22.4c-12.4,0-23.5,10-23.5,22.4V244h-35.7c-12.4,0-22.4,11.1-22.4,23.5
		s10,23.5,22.4,23.5H405v28c0,12.4,11.1,22.4,23.5,22.4c12.4,0,23.5-10,23.5-22.4v-28h21.6c12.4,0,22.4-11.1,22.4-23.5
		S486,244,473.6,244z"/>
	<path d="M373.7,141.1C370,111.5,355,85,331.4,66.7c-19.8-15.4-43.6-23.6-68.6-23.6c-34.8,0-67,15.7-88.3,43.2
		c-28.9,37.2-30.6,87-8.2,125.4l-148.9,242c-2.4,4-1.8,9.2,1.7,12.5c4,3.7,10.3,3.4,14-0.6l189.5-206.1c12.6,4.9,26.1,7.4,40,7.4h0
		c34.8,0,67-15.8,88.3-43.3C369.3,200.2,377.4,170.8,373.7,141.1z M315.7,195.1c-12.8,16.5-32.1,24.9-53,24.9h0
		c-15,0-29.3-3.9-41.2-13.1c-29.2-22.7-34.5-64.4-11.7-93.6c12.8-16.5,32.1-25.6,53-25.6c15,0,29.3,5,41.2,14.3
		c14.1,11,23.2,26.4,25.4,44.2C331.6,163.9,326.7,181,315.7,195.1z"/>
</g>
</svg>
