<?xml version="1.0" encoding="utf-8"?>
<!-- Generator: Adobe Illustrator 18.1.1, SVG Export Plug-In . SVG Version: 6.00 Build 0)  -->
<!DOCTYPE svg PUBLIC "-//W3C//DTD SVG 1.1//EN" "http://www.w3.org/Graphics/SVG/1.1/DTD/svg11.dtd">
<svg version="1.1" id="Layer_1" xmlns="http://www.w3.org/2000/svg" xmlns:xlink="http://www.w3.org/1999/xlink" x="0px" y="0px"
	 viewBox="0 0 512 512" enable-background="new 0 0 512 512" xml:space="preserve">
<g>
	<path d="M469.2,252H440v-29.2c0-12.1-9.9-21.9-22-21.9c-12.1,0-22,9.8-22,21.9V252h-28.9c-12.1,0-21.9,9.9-21.9,22s9.8,22,21.9,22
		H396v28.9c0,12.1,9.9,21.9,22,21.9c12.1,0,22-9.8,22-21.9V296h29.2c12.1,0,21.9-9.9,21.9-22S481.3,252,469.2,252z"/>
	<path d="M371.5,150.9c-3.6-29-18.3-54.8-41.4-72.8C310.7,63,287.5,55.1,263,55.1c-34,0-65.5,15.4-86.4,42.2
		c-28.3,36.4-30,85.1-8,122.7L23,456.7c-2.4,3.9-1.8,9,1.7,12.2c4,3.6,10.1,3.4,13.7-0.6l185.3-201.6c12.3,4.8,25.5,7.2,39.1,7.2h0
		c34,0,65.5-15.5,86.4-42.3C367.2,208.7,375.1,179.9,371.5,150.9z M314.7,204.7c-12.5,16.1-31.4,25.3-51.8,25.3h0
		c-14.7,0-28.6-4.7-40.3-13.8c-28.6-22.2-33.7-63.5-11.5-92.1c12.5-16.1,31.4-25.3,51.9-25.3c14.7,0,28.6,4.8,40.3,13.8
		c13.8,10.8,22.6,26.3,24.8,43.7C330.2,173.7,325.5,190.9,314.7,204.7z"/>
</g>
</svg>
