<?xml version="1.0" encoding="utf-8"?>
<!-- Generator: Adobe Illustrator 16.0.0, SVG Export Plug-In . SVG Version: 6.00 Build 0)  -->
<!DOCTYPE svg PUBLIC "-//W3C//DTD SVG 1.1//EN" "http://www.w3.org/Graphics/SVG/1.1/DTD/svg11.dtd">
<svg version="1.1" id="Layer_1" xmlns="http://www.w3.org/2000/svg" xmlns:xlink="http://www.w3.org/1999/xlink" x="0px" y="0px"
	 width="300px" height="300px" viewBox="0 0 300 300" style="enable-background:new 0 0 300 300;" xml:space="preserve">
<g id="Restricted">
</g>
<g id="Help">
</g>
<g>
	<polygon points="249,117 249,76 219,76 219,117 173,117 173,144 219,144 219,187 249,187 249,144 295,144 295,141.916 295,117 	"/>
	<path d="M129.824,140.236c0,0,15.961-92.162,16.835-99.621C147.745,31.331,133.082,31,133.082,31H90.729H48.918
		c0,0-14.661,0.335-13.576,9.62c0.873,7.456,16.835,99.249,16.835,99.249S9.278,164,9.278,212c27.694,0,60.817,0,60.817,0
		l20.633,84.832L111.905,212c0,0,33.124,0,60.816,0C172.722,164,129.824,140.236,129.824,140.236z"/>
</g>
</svg>
