<?xml version="1.0" encoding="utf-8"?>
<!-- Generator: Adobe Illustrator 16.0.0, SVG Export Plug-In . SVG Version: 6.00 Build 0)  -->
<!DOCTYPE svg PUBLIC "-//W3C//DTD SVG 1.1//EN" "http://www.w3.org/Graphics/SVG/1.1/DTD/svg11.dtd">
<svg version="1.1" id="Layer_1" xmlns="http://www.w3.org/2000/svg" xmlns:xlink="http://www.w3.org/1999/xlink" x="0px" y="0px"
	 width="300px" height="300px" viewBox="0 0 300 300" style="enable-background:new 0 0 300 300;" xml:space="preserve">
<g id="Restricted">
</g>
<g id="Help">
</g>
<polygon points="250,139 250,101 222,101 222,139 179,139 179,164 222,164 222,205 250,205 250,164 293,164 293,162.836 293,139 "/>
<path d="M124.002,139.782c0,0,13.567-78.305,14.311-84.645C139.235,47.245,126.771,47,126.771,47H90.77H55.229
	c0,0-12.463,0.141-11.54,8.033c0.742,6.338,14.311,84.509,14.311,84.509S21.533,160,21.533,201c23.541,0,51.697,0,51.697,0
	l17.539,92.512L108.771,201c0,0,28.156,0,51.696,0C160.467,160,124.002,139.782,124.002,139.782z"/>
</svg>
