<?xml version="1.0" encoding="utf-8"?>
<!-- Generator: Adobe Illustrator 18.1.1, SVG Export Plug-In . SVG Version: 6.00 Build 0)  -->
<!DOCTYPE svg PUBLIC "-//W3C//DTD SVG 1.1//EN" "http://www.w3.org/Graphics/SVG/1.1/DTD/svg11.dtd">
<svg version="1.1" id="Layer_1" xmlns="http://www.w3.org/2000/svg" xmlns:xlink="http://www.w3.org/1999/xlink" x="0px" y="0px"
	 viewBox="0 0 512 512" enable-background="new 0 0 512 512" xml:space="preserve">
<g>
	<path d="M482.7,244H452v-31.1c0-12.9-10.6-23.3-23.5-23.3c-12.9,0-23.5,10.4-23.5,23.3V244h-31c-12.9,0-23.3,10.6-23.3,23.5
		S361.1,291,374,291h31v30.6c0,12.9,10.6,23.3,23.5,23.3c12.9,0,23.5-10.4,23.5-23.3V291h30.7c12.9,0,23.3-10.6,23.3-23.5
		S495.6,244,482.7,244z"/>
	<path d="M378.6,136.3c-3.8-30.9-19.5-58.4-44-77.5c-20.7-16.1-45.4-24.6-71.5-24.6c-36.2,0-69.8,16.4-92,45
		c-30.1,38.7-31.9,90.7-8.5,130.6L7.5,462c-2.5,4.1-1.9,9.6,1.8,13c4.2,3.9,10.8,3.6,14.6-0.6l197.4-214.9
		c13.1,5.1,27.2,7.5,41.6,7.5h0c36.2,0,69.8-16.3,92-44.8C374.1,197.6,382.5,167.2,378.6,136.3z M318.2,193.3
		C304.8,210.5,284.7,220,263,220h0c-15.7,0-30.5-4.8-42.9-14.4c-30.4-23.7-35.9-67.5-12.2-97.9c13.3-17.1,33.5-26.9,55.2-26.9
		c15.7,0,30.5,5.1,42.9,14.8c14.7,11.5,24.1,27.9,26.4,46.4C334.7,160.4,329.7,178.6,318.2,193.3z"/>
</g>
</svg>
