<?xml version="1.0" encoding="utf-8"?>
<!-- Generator: Adobe Illustrator 16.0.0, SVG Export Plug-In . SVG Version: 6.00 Build 0)  -->
<!DOCTYPE svg PUBLIC "-//W3C//DTD SVG 1.1//EN" "http://www.w3.org/Graphics/SVG/1.1/DTD/svg11.dtd">
<svg version="1.1" id="Layer_1" xmlns="http://www.w3.org/2000/svg" xmlns:xlink="http://www.w3.org/1999/xlink" x="0px" y="0px"
	 width="300px" height="300px" viewBox="0 0 300 300" style="enable-background:new 0 0 300 300;" xml:space="preserve">
<g id="Restricted">
</g>
<g id="Help">
	<path d="M179.756,122.712c0,0,23.273-63.747,24.901-68.967c2.025-6.5-6.971-8.471-6.971-8.471l-26.063-5.332l-25.729-5.263
		c0,0-9.029-1.81-9.718,4.962c-0.554,5.439-4.168,73.135-4.168,73.135s-29.947,11.944-36.961,46.234
		c17.042,3.486,37.426,7.656,37.426,7.656l-6.998,98.873l32.726-93.61c0,0,20.384,4.169,37.425,7.656
		C202.639,145.296,179.756,122.712,179.756,122.712z"/>
</g>
</svg>
