<?xml version="1.0" encoding="utf-8"?>
<!-- Generator: Adobe Illustrator 18.1.1, SVG Export Plug-In . SVG Version: 6.00 Build 0)  -->
<!DOCTYPE svg PUBLIC "-//W3C//DTD SVG 1.1//EN" "http://www.w3.org/Graphics/SVG/1.1/DTD/svg11.dtd">
<svg version="1.1" xmlns="http://www.w3.org/2000/svg" xmlns:xlink="http://www.w3.org/1999/xlink" x="0px" y="0px"
	 viewBox="0 0 512 512" enable-background="new 0 0 512 512" xml:space="preserve">
<g id="Layer_1">
	<path d="M441.6,145.3c-3.7-29.7-18.8-56.2-42.4-74.6c-19.9-15.5-43.6-23.7-68.8-23.7c-34.9,0-67.1,15.7-88.5,43.2
		c-30.9,39.6-30.8,93.6-3.5,132.9L93.6,458.6c-2.5,4-1.8,9.3,1.7,12.5c4,3.7,10.3,3.5,14.1-0.6l187.9-204.4
		c10.6,3.2,21.6,4.9,33,4.9h0c34.9,0,67.1-15.6,88.5-43.1C437.2,204.3,445.3,175,441.6,145.3z M383.4,199.8
		c-12.8,16.5-32.2,25.2-53.1,25.2h0c-15.1,0-29.3-4.2-41.2-13.5c-29.3-22.8-34.5-64.4-11.8-93.7c12.8-16.5,32.2-25.9,53.1-25.9
		c15.1,0,29.3,4.7,41.2,14c14.2,11,23.2,26.7,25.4,44.6C399.3,168.3,394.5,185.6,383.4,199.8z"/>
</g>
<g id="Layer_2">
</g>
</svg>
