<?xml version="1.0" encoding="utf-8"?>
<!-- Generator: Adobe Illustrator 18.1.1, SVG Export Plug-In . SVG Version: 6.00 Build 0)  -->
<!DOCTYPE svg PUBLIC "-//W3C//DTD SVG 1.1//EN" "http://www.w3.org/Graphics/SVG/1.1/DTD/svg11.dtd">
<svg version="1.1" xmlns="http://www.w3.org/2000/svg" xmlns:xlink="http://www.w3.org/1999/xlink" x="0px" y="0px"
	 viewBox="0 0 512 512" enable-background="new 0 0 512 512" xml:space="preserve">
<g id="Layer_1">
	<path d="M460.2,121.1c-4.3-34.8-22-65.8-49.6-87.4C387.3,15.6,359.4,6,330,6c-40.8,0-78.6,18.4-103.7,50.6
		c-36.2,46.4-36.1,109.7-4.1,155.7L52.5,488.2c-2.9,4.7-2.1,10.9,2,14.7c4.7,4.4,12.1,4,16.5-0.7l220.2-239.8
		c12.4,3.8,25.4,5.5,38.7,5.5h0c40.8,0,78.6-18.1,103.7-50.3C455.1,190,464.6,155.9,460.2,121.1z M392.1,184.7
		c-15,19.3-37.7,29.3-62.2,29.3h0c-17.6,0-34.4-4.7-48.3-15.5c-34.3-26.7-40.5-75.3-13.8-109.6c15-19.3,37.7-30.3,62.2-30.3
		c17.6,0,34.4,5.6,48.3,16.4c16.6,12.9,27.2,31.2,29.8,52.1C410.7,148,405,168.1,392.1,184.7z"/>
</g>
<g id="Layer_2">
</g>
</svg>
