<?xml version="1.0" encoding="utf-8"?>
<!-- Generator: Adobe Illustrator 18.1.1, SVG Export Plug-In . SVG Version: 6.00 Build 0)  -->
<!DOCTYPE svg PUBLIC "-//W3C//DTD SVG 1.1//EN" "http://www.w3.org/Graphics/SVG/1.1/DTD/svg11.dtd">
<svg version="1.1" xmlns="http://www.w3.org/2000/svg" xmlns:xlink="http://www.w3.org/1999/xlink" x="0px" y="0px"
	 viewBox="0 0 512 512" enable-background="new 0 0 512 512" xml:space="preserve">
<g id="Layer_1">
	<path d="M452.1,126.5c-4.2-33.4-21.1-63.2-47.7-83.9C382.1,25.2,355.3,16,327,16c-39.2,0-75.5,17.7-99.5,48.6
		c-34.7,44.6-34.7,105.3-4,149.4L60.6,478.9c-2.8,4.5-2.1,10.4,2,14.1c4.6,4.2,11.6,3.9,15.8-0.7l211.4-229.9
		c11.9,3.6,24.3,5.5,37.1,5.5h0c39.2,0,75.5-17.6,99.5-48.6C447.1,192.9,456.2,159.9,452.1,126.5z M386.7,187.7
		c-14.4,18.5-36.2,28.3-59.8,28.3h0c-16.9,0-33-4.6-46.4-15.1c-32.9-25.6-38.8-72.4-13.2-105.3c14.4-18.5,36.2-29.2,59.8-29.2
		c16.9,0,33,5.3,46.4,15.8c15.9,12.4,26.1,30.1,28.6,50.1C404.5,152.4,399.1,171.8,386.7,187.7z"/>
</g>
<g id="Layer_2">
</g>
</svg>
