<?xml version="1.0" encoding="utf-8"?>
<!-- Generator: Adobe Illustrator 16.0.0, SVG Export Plug-In . SVG Version: 6.00 Build 0)  -->
<!DOCTYPE svg PUBLIC "-//W3C//DTD SVG 1.1//EN" "http://www.w3.org/Graphics/SVG/1.1/DTD/svg11.dtd">
<svg version="1.1" id="Layer_1" xmlns="http://www.w3.org/2000/svg" xmlns:xlink="http://www.w3.org/1999/xlink" x="0px" y="0px"
	 width="300px" height="300px" viewBox="0 0 300 300" style="enable-background:new 0 0 300 300;" xml:space="preserve">
<path d="M281.508,50.217c-16.034-24.049-43.496-38.889-71.98-38.889c-20.639,0-40.937,7.506-59.528,21.833
	c-18.592-14.327-38.889-21.833-59.528-21.833c-28.484,0-55.946,14.84-71.98,38.889C4.847,70.857,0.924,99.001,9.623,119.297
	c10.575,25.074,32.408,42.473,44.859,55.265c16.715,17.058,41.277,36.843,83.919,98.589L150,288.672l11.599-15.521
	c42.642-61.746,67.204-81.531,83.919-98.589c12.452-12.792,34.285-30.19,44.859-55.265
	C299.076,99.001,295.153,70.857,281.508,50.217z M212.939,139.595h-49.293v49.466h-27.291v-49.466H86.89v-27.29h49.464V63.01h27.291
	v49.295h49.293V139.595z"/>
<g id="Restricted">
</g>
<g id="Help">
</g>
</svg>
