<?xml version="1.0" encoding="utf-8"?>
<!-- Generator: Adobe Illustrator 16.0.0, SVG Export Plug-In . SVG Version: 6.00 Build 0)  -->
<!DOCTYPE svg PUBLIC "-//W3C//DTD SVG 1.1//EN" "http://www.w3.org/Graphics/SVG/1.1/DTD/svg11.dtd">
<svg version="1.1" id="Layer_1" xmlns="http://www.w3.org/2000/svg" xmlns:xlink="http://www.w3.org/1999/xlink" x="0px" y="0px"
	 width="300px" height="300px" viewBox="0 0 300 300" style="enable-background:new 0 0 300 300;" xml:space="preserve">
<path d="M256.567,69.142c-12.993-19.488-35.246-31.514-58.329-31.514c-16.725,0-33.172,6.082-48.238,17.692
	c-15.066-11.61-31.514-17.692-48.238-17.692c-23.083,0-45.336,12.025-58.329,31.514c-11.057,16.726-14.236,39.531-7.187,55.979
	c8.569,20.318,26.262,34.417,36.352,44.783c13.545,13.822,33.449,29.855,68.003,79.891L150,262.372l9.399-12.578
	c34.555-50.035,54.458-66.068,68.003-79.891c10.09-10.366,27.782-24.465,36.352-44.783
	C270.803,108.673,267.624,85.867,256.567,69.142z M201.002,141.568h-39.945v40.084h-22.115v-40.084H98.859v-22.114h40.083V79.508
	h22.115v39.946h39.945V141.568z"/>
<g id="Restricted">
</g>
<g id="Help">
</g>
</svg>
