<?xml version="1.0" encoding="utf-8"?>
<!-- Generator: Adobe Illustrator 18.1.1, SVG Export Plug-In . SVG Version: 6.00 Build 0)  -->
<!DOCTYPE svg PUBLIC "-//W3C//DTD SVG 1.1//EN" "http://www.w3.org/Graphics/SVG/1.1/DTD/svg11.dtd">
<svg version="1.1" id="Layer_1" xmlns="http://www.w3.org/2000/svg" xmlns:xlink="http://www.w3.org/1999/xlink" x="0px" y="0px"
	 viewBox="0 0 512 512" enable-background="new 0 0 512 512" xml:space="preserve">
<path d="M481,231H280V31c0-13.8-10.7-25-24.5-25C241.7,6,231,17.2,231,31v200H31c-13.8,0-25,11-25,24.8c0,6.9,2.8,13.3,7.3,17.8
	c4.5,4.5,10.8,7.4,17.7,7.4h200v200c0,6.9,2.6,13.2,7.1,17.7c4.5,4.5,10.4,7.3,17.3,7.3c13.8,0,24.6-11.2,24.6-25V281h201
	c13.8,0,25-11.2,25-25C506,242.2,494.8,231,481,231z"/>
</svg>
