<?xml version="1.0" encoding="utf-8"?>
<!-- Generator: Adobe Illustrator 18.1.1, SVG Export Plug-In . SVG Version: 6.00 Build 0)  -->
<!DOCTYPE svg PUBLIC "-//W3C//DTD SVG 1.1//EN" "http://www.w3.org/Graphics/SVG/1.1/DTD/svg11.dtd">
<svg version="1.1" id="Layer_1" xmlns="http://www.w3.org/2000/svg" xmlns:xlink="http://www.w3.org/1999/xlink" x="0px" y="0px"
	 viewBox="0 0 512 512" enable-background="new 0 0 512 512" xml:space="preserve">
<g>
	<path d="M346,430H84V168h188v-43H71.4C54,125,40,138.8,40,156.1v286.5c0,17.4,14,31.3,31.4,31.3h286.1c17.9,0,32.5-14.4,32.5-32.2
		V242h-44V430z"/>
	<path d="M455.3,37H348.5c-12.1,0-21.9,9.9-21.9,22s9.8,22,21.9,22h52.6L244.5,237.5c-8.5,8.5-8.5,22.3,0,30.9
		c4.3,4.3,9.9,6.4,15.5,6.4s11-2.2,15.3-6.4l157.8-158v55.3c0,12.1,9.9,21.9,22,21.9s22-9.8,22-21.9V58.8
		C477,46.7,467.4,37,455.3,37z"/>
</g>
</svg>
