<?xml version="1.0" encoding="utf-8"?>
<!-- Generator: Adobe Illustrator 18.1.1, SVG Export Plug-In . SVG Version: 6.00 Build 0)  -->
<!DOCTYPE svg PUBLIC "-//W3C//DTD SVG 1.1//EN" "http://www.w3.org/Graphics/SVG/1.1/DTD/svg11.dtd">
<svg version="1.1" id="Layer_1" xmlns="http://www.w3.org/2000/svg" xmlns:xlink="http://www.w3.org/1999/xlink" x="0px" y="0px"
	 viewBox="0 0 512 512" enable-background="new 0 0 512 512" xml:space="preserve">
<g>
	<path d="M380,430H117V168h189v-43H105c-17.4,0-31,13.8-31,31.1v286.5c0,17.4,13.6,31.3,31,31.3h286.1c17.9,0,32.9-14.4,32.9-32.2
		V242h-44V430z"/>
	<path d="M431.5,116.3c-8.5-8.5-22.6-8.5-31.2,0L242,274.3V219c0-12.1-9.4-21.9-21.5-21.9S199,206.9,199,219v106.8
		c0,12.1,9.5,22.2,21.6,22.2h106.8c12.1,0,21.9-9.9,21.9-22s-9.8-22-21.9-22h-52.7l156.7-156.7C440,138.7,440,124.8,431.5,116.3z"/>
</g>
</svg>
