<?xml version="1.0" encoding="utf-8"?>
<!-- Generator: Adobe Illustrator 18.1.1, SVG Export Plug-In . SVG Version: 6.00 Build 0)  -->
<!DOCTYPE svg PUBLIC "-//W3C//DTD SVG 1.1//EN" "http://www.w3.org/Graphics/SVG/1.1/DTD/svg11.dtd">
<svg version="1.1" id="Layer_1" xmlns="http://www.w3.org/2000/svg" xmlns:xlink="http://www.w3.org/1999/xlink" x="0px" y="0px"
	 viewBox="0 0 512 512" enable-background="new 0 0 512 512" xml:space="preserve">
<g>
	<path d="M349,444H70V164h201v-46H56.3C37.7,118,22,132.6,22,151.2v306.4c0,18.6,15.7,33.5,34.3,33.5h305.9
		c19.1,0,34.8-15.3,34.8-34.5V243h-48V444z"/>
	<path d="M466.7,24H352.5c-12.9,0-23.4,10.6-23.4,23.5S339.6,71,352.5,71h56.3L241.3,238.3c-9.1,9.1-9.1,23.8,0,33
		c4.6,4.6,10.6,6.8,16.5,6.8c6,0,11.3-2.3,15.9-6.9l168.3-169v59.2c0,12.9,10.6,23.4,23.5,23.4s23.5-10.5,23.5-23.4V47.1
		C489,34.2,479.7,24,466.7,24z"/>
</g>
</svg>
