<?xml version="1.0" encoding="utf-8"?>
<!-- Generator: Adobe Illustrator 18.1.1, SVG Export Plug-In . SVG Version: 6.00 Build 0)  -->
<!DOCTYPE svg PUBLIC "-//W3C//DTD SVG 1.1//EN" "http://www.w3.org/Graphics/SVG/1.1/DTD/svg11.dtd">
<svg version="1.1" id="Layer_1" xmlns="http://www.w3.org/2000/svg" xmlns:xlink="http://www.w3.org/1999/xlink" x="0px" y="0px"
	 viewBox="0 0 512 512" enable-background="new 0 0 512 512" xml:space="preserve">
<g>
	<path d="M356,456H57V156h215v-49H42.1C22.3,107,6,122.4,6,142.3v327.9C6,490,22.3,506,42.1,506h327.4c20.5,0,37.5-16.4,37.5-36.9
		V241h-51V456z"/>
	<path d="M481.4,6H359.2c-13.8,0-25,11.2-25,25s11.2,25,25,25h60.2L240.2,235.3c-9.8,9.8-9.8,25.6,0,35.4c4.9,4.9,11.3,7.3,17.7,7.3
		c6.4,0,12.6-2.4,17.5-7.3L456,89.9v63.3c0,13.8,11.2,25,25,25s25-11.2,25-25V31C506,17.1,495.2,6,481.4,6z"/>
</g>
</svg>
