<?xml version="1.0" encoding="utf-8"?>
<!-- Generator: Adobe Illustrator 18.1.1, SVG Export Plug-In . SVG Version: 6.00 Build 0)  -->
<!DOCTYPE svg PUBLIC "-//W3C//DTD SVG 1.1//EN" "http://www.w3.org/Graphics/SVG/1.1/DTD/svg11.dtd">
<svg version="1.1" id="Layer_1" xmlns="http://www.w3.org/2000/svg" xmlns:xlink="http://www.w3.org/1999/xlink" x="0px" y="0px"
	 viewBox="0 0 512 512" enable-background="new 0 0 512 512" xml:space="preserve">
<g>
	<path d="M398,456H97V156h216v-49H83.1C63.2,107,48,122.8,48,142.6v327.9c0,19.9,15.2,35.5,35.1,35.5h327.4
		c20.5,0,37.5-16.1,37.5-36.6V241h-50V456z"/>
	<path d="M456.6,97c-9.8-9.8-25.8-9.8-35.6,0L240,277.8v-63.3c0-13.8-10.7-25-24.5-25s-24.5,11.2-24.5,25v122.2
		c0,13.8,10.5,25.3,24.4,25.3h122.2c13.8,0,25-11.7,25-25.5s-11.2-25.5-25-25.5h-60.3l179.3-178.9C466.4,122.3,466.4,106.8,456.6,97
		z"/>
</g>
</svg>
