<?xml version="1.0" encoding="utf-8"?>
<!-- Generator: Adobe Illustrator 18.1.1, SVG Export Plug-In . SVG Version: 6.00 Build 0)  -->
<!DOCTYPE svg PUBLIC "-//W3C//DTD SVG 1.1//EN" "http://www.w3.org/Graphics/SVG/1.1/DTD/svg11.dtd">
<svg version="1.1" xmlns="http://www.w3.org/2000/svg" xmlns:xlink="http://www.w3.org/1999/xlink" x="0px" y="0px"
	 viewBox="0 0 512 512" enable-background="new 0 0 512 512" xml:space="preserve">
<g id="Layer_1">
	<g>
		<path d="M372,193.8c0.8,1.4,1.1,3.2,1.1,4.2H506c-1.2-3-3.2-6.4-5.8-9.1L399.7,88.4c-4.7-4.7-11.1-7.4-17.7-7.4h-73.4
			c-6,0-3,4.1-3,4.1L372,193.8z"/>
		<polygon points="167.5,215 256.9,414 347.9,215 		"/>
		<path d="M355.2,198l-69-112.7c-4-5.1-10.3-4.3-10.3-4.3h-38.7h-0.5c-6,0-8.7,4.9-8.7,4.9L160,198H355.2z"/>
		<path d="M267.6,431c2.5-1.1,4.9-2.3,7-4.2l224.6-201.3c3.1-2.8,5.4-5.4,6.8-10.4H366.3L267.6,431z"/>
		<path d="M143.5,193.5l63.5-104.9c0,0,5.3-7.6-0.2-7.6h-2.9h-80.4c-7,0-13.7,3.1-18.4,8.2L11.4,190.4c-2.1,2.3-3.7,5.6-4.8,7.6
			h135.9C142.3,197,142.6,195,143.5,193.5z"/>
		<path d="M6,215c1.4,5,3.8,8.4,7.3,11.5l228,200.4c1.2,1.1,2.7,1.5,4,2.3L149.2,215H6z"/>
	</g>
</g>
<g id="Layer_2">
</g>
</svg>
