<svg class="icon icon-premium-vip" height="16" viewBox="0 0 16 16" version="1.1" aria-hidden="true">
    <path d="M11.28,4.07a.22.22,0,0,1,0,.11h3.57a.76.76,0,0,0-.16-.24L12,1.24a.67.67,0,0,0-.48-.2h-2c-.16,0-.08.11-.08.11Z"/>
    <polygon points="5.78 4.64 8.18 9.99 10.63 4.64 5.78 4.64"/>
    <path d="M10.83,4.18,9,1.16A.32.32,0,0,0,8.7,1H7.64a.28.28,0,0,0-.23.13l-1.83,3Z"/>
    <path d="M8.47,10.44a.66.66,0,0,0,.19-.11l6-5.41a.53.53,0,0,0,.18-.28H11.13Z"/>
    <path d="M5.14,4.06,6.84,1.24S7,1,6.84,1H4.6a.68.68,0,0,0-.5.22L1.59,4a1.08,1.08,0,0,0-.13.2H5.11A.22.22,0,0,1,5.14,4.06Z"/>
    <path d="M1.44,4.64a.6.6,0,0,0,.2.31l6.13,5.39.11.06L5.29,4.64Z"/>
    <polygon points="0 2.89 0 2.91 0.02 2.89 0 2.89"/>
    <polygon points="0 2.91 0 2.91 0 2.91 0 2.91"/>
    <path d="M10.14,14.93a2.32,2.32,0,0,1-1.3-1.14,2.32,2.32,0,0,1,1.66-.48,2.32,2.32,0,0,1,1.3,1.14A2.32,2.32,0,0,1,10.14,14.93Z"/>
    <path d="M12.69,13.71a2.32,2.32,0,0,1-1.62-.61,2.32,2.32,0,0,1,1.39-1,2.32,2.32,0,0,1,1.62.61A2.32,2.32,0,0,1,12.69,13.71Z"/>
    <path d="M13.4,10.8a2.32,2.32,0,0,1-1.53.8A2.32,2.32,0,0,1,12,9.88a2.32,2.32,0,0,1,1.53-.8A2.32,2.32,0,0,1,13.4,10.8Z"/>
    <path d="M15,11.88a2.32,2.32,0,0,1-1.73-.08,2.32,2.32,0,0,1,1-1.41,2.32,2.32,0,0,1,1.73.08A2.32,2.32,0,0,1,15,11.88Z"/>
    <path d="M15.65,8.89a2.32,2.32,0,0,1-1.38,1,2.32,2.32,0,0,1-.12-1.72,2.32,2.32,0,0,1,1.38-1A2.32,2.32,0,0,1,15.65,8.89Z"/>
    <path d="M10.64,12.76a2.32,2.32,0,0,1-1.72.12,2.32,2.32,0,0,1,.83-1.51,2.32,2.32,0,0,1,1.72-.12A2.32,2.32,0,0,1,10.64,12.76Z"/>
    <path d="M6.19,14.93a2.32,2.32,0,0,0,1.3-1.14,2.32,2.32,0,0,0-1.66-.48,2.32,2.32,0,0,0-1.3,1.14A2.32,2.32,0,0,0,6.19,14.93Z"/>
    <path d="M3.63,13.71a2.32,2.32,0,0,0,1.62-.61,2.32,2.32,0,0,0-1.39-1,2.32,2.32,0,0,0-1.62.61A2.32,2.32,0,0,0,3.63,13.71Z"/>
    <path d="M2.92,10.8a2.32,2.32,0,0,0,1.53.8A2.32,2.32,0,0,0,4.3,9.88a2.32,2.32,0,0,0-1.53-.8A2.32,2.32,0,0,0,2.92,10.8Z"/>
    <path d="M1.32,11.88A2.32,2.32,0,0,0,3,11.8a2.32,2.32,0,0,0-1-1.41,2.32,2.32,0,0,0-1.73.08A2.32,2.32,0,0,0,1.32,11.88Z"/>
    <path d="M.67,8.89a2.32,2.32,0,0,0,1.38,1A2.32,2.32,0,0,0,2.18,8.2a2.32,2.32,0,0,0-1.38-1A2.32,2.32,0,0,0,.67,8.89Z"/>
    <path d="M5.68,12.76a2.32,2.32,0,0,0,1.72.12,2.32,2.32,0,0,0-.83-1.51,2.32,2.32,0,0,0-1.72-.12A2.32,2.32,0,0,0,5.68,12.76Z"/>
</svg>
