<svg class="icon icon-premium" height="16" viewBox="0 0 16 16" version="1.1" aria-hidden="true">
    <path d="M11.71,6a.26.26,0,0,1,0,.13H16a.91.91,0,0,0-.19-.29L12.6,2.64A.8.8,0,0,0,12,2.4H9.68c-.19,0-.09.13-.09.13Z"/>
    <polygon points="5.17 6.69 8.03 13.06 10.94 6.69 5.17 6.69"/>
    <path d="M11.17,6.15,9,2.54a.38.38,0,0,0-.33-.14H7.38a.33.33,0,0,0-.28.16L4.93,6.15Z"/>
    <path d="M8.37,13.6a.79.79,0,0,0,.23-.13L15.78,7A.63.63,0,0,0,16,6.69H11.53Z"/>
    <path d="M4.4,6l2-3.36s.17-.24,0-.24H3.76a.81.81,0,0,0-.59.26L.17,5.9A1.28,1.28,0,0,0,0,6.15H4.37A.26.26,0,0,1,4.4,6Z"/>
    <path d="M0,6.69a.71.71,0,0,0,.23.37l7.3,6.41a.76.76,0,0,0,.13.07L4.58,6.69Z"/>
</svg>
