<?xml version="1.0" encoding="utf-8"?>
<!-- Generator: Adobe Illustrator 18.1.1, SVG Export Plug-In . SVG Version: 6.00 Build 0)  -->
<!DOCTYPE svg PUBLIC "-//W3C//DTD SVG 1.1//EN" "http://www.w3.org/Graphics/SVG/1.1/DTD/svg11.dtd">
<svg version="1.1" xmlns="http://www.w3.org/2000/svg" xmlns:xlink="http://www.w3.org/1999/xlink" x="0px" y="0px"
	 viewBox="0 0 512 512" enable-background="new 0 0 512 512" xml:space="preserve">
<g id="Layer_1">
	<g>
		<path d="M360.4,213.1c0.8,1.2,1,2.9,1,3.9h118.9c-1.1-3-2.8-5.9-5.2-8.3l-89.9-90c-4.2-4.2-9.9-6.7-15.8-6.7h-65.6
			c-5.4,0-2.7,3.8-2.7,3.8L360.4,213.1z"/>
		<polygon points="177.6,232 257.5,409.9 338.9,232 		"/>
		<path d="M345.4,217l-61.7-101c-3.6-4.5-9.2-4-9.2-4H240h-0.5c-5.4,0-7.8,4.6-7.8,4.6L170.9,217H345.4z"/>
		<path d="M267.1,425c2.2-0.9,4.4-2.1,6.3-3.8l200.8-180c2.8-2.5,4.8-5.2,6.1-9.2H355.4L267.1,425z"/>
		<path d="M156.1,212.8l56.7-93.9c0,0,4.7-6.9-0.2-6.9h-2.6h-71.9c-6.3,0-12.2,2.8-16.5,7.4L38,210c-1.9,2-3.3,5-4.3,7h121.5
			C155.1,216,155.3,214.1,156.1,212.8z"/>
		<path d="M33.2,232c1.2,4,3.4,7.4,6.5,10.2l203.9,179.2c1.1,1,2.4,1.4,3.6,2.1l-86-191.5H33.2z"/>
	</g>
</g>
<g id="Layer_2">
</g>
</svg>
