<?xml version="1.0" encoding="utf-8"?>
<!-- Generator: Adobe Illustrator 16.0.0, SVG Export Plug-In . SVG Version: 6.00 Build 0)  -->
<!DOCTYPE svg PUBLIC "-//W3C//DTD SVG 1.1//EN" "http://www.w3.org/Graphics/SVG/1.1/DTD/svg11.dtd">
<svg version="1.1" id="Layer_1" xmlns="http://www.w3.org/2000/svg" xmlns:xlink="http://www.w3.org/1999/xlink" x="0px" y="0px"
	 width="300px" height="300px" viewBox="0 0 300 300" style="enable-background:new 0 0 300 300;" xml:space="preserve">
<g id="Restricted">
</g>
<g id="Help">
</g>
<g>
	<path d="M165.653,5.025c1.709,0,3.417,0,5.127,0c1.431,0.873,3.099,1.507,4.257,2.655c10.716,10.625,21.422,21.263,31.908,32.112
		c1.484,1.535,2.364,4.192,2.501,6.396c0.494,7.965-6.542,15.162-14.862,15.665c-1.797,0.108-3.623,0.104-5.38,0.439
		c-16.864,3.222-26.632,18.33-22.642,35.651c4.038,17.528,14.938,29.363,32.054,34.538c22.318,6.746,39.534-7.604,39.562-27.402
		c0.009-6.349,3.847-10.753,9.467-13.471c4.976-2.406,9.699-1.643,13.599,2.227c10.176,10.092,20.296,20.239,30.429,30.373
		c2.934,2.935,4.155,6.559,2.733,10.414c-1.082,2.932-2.643,5.964-4.788,8.175c-10.707,11.038-21.72,21.773-32.511,32.729
		c-1.822,1.85-3.559,4.062-4.51,6.438c-2.556,6.388,0.874,11.602,7.69,12.271c10.273,1.008,16.583,7.487,16.526,17.802
		c-0.024,4.473-0.755,9.132-2.166,13.373c-4.805,14.451-14.004,25.941-25.546,35.607c-8.899,7.453-18.7,13.357-30.323,15.448
		c-14.523,2.613-24.123-4.059-24.711-17.566c-0.148-3.416-2.432-5.707-5.764-6.659c-3.899-1.115-7.341,0.093-10.331,2.557
		c-1.97,1.624-3.726,3.514-5.538,5.323c-10.076,10.062-20.087,20.187-30.226,30.184c-5.873,5.791-13.174,6.211-18.234,1.18
		c-10.097-10.037-20.152-20.117-30.181-30.223c-3.772-3.801-4.624-8.48-2.343-13.331c3.023-6.428,8.089-9.671,15.306-9.883
		c16.201-0.478,28.36-13.896,27.298-29.888c-1.485-22.382-19.173-40.406-41.495-42.287c-14.502-1.221-27.016,7.984-30.051,22.253
		c-0.607,2.859-0.522,5.862-1.072,8.737c-1.173,6.141-5.028,10.12-10.819,12.102c-5.271,1.805-9.457-0.04-13.236-4.029
		c-6.199-6.544-12.857-12.65-19.071-19.179c-4.597-4.83-10.279-8.725-13.313-14.95c0-1.71,0-3.419,0-5.128
		c1.264-4.334,4.048-7.595,7.199-10.704c10.335-10.193,20.616-20.444,30.8-30.789c1.753-1.779,3.399-3.939,4.295-6.234
		c2.641-6.771-1.833-12.404-7.458-12.254c-1.027,0.027-2.076-0.222-3.093-0.445c-6.686-1.47-11.191-5.331-13.025-12.044
		c-1.666-6.096-0.871-12.108,1.195-17.894c7.612-21.318,22.178-36.532,41.97-46.979c6.354-3.354,13.141-5.437,20.42-5.389
		c9.306,0.061,15.71,4.774,17.72,13.008c0.38,1.559,0.522,3.179,0.731,4.776c0.51,3.891,2.794,6.436,6.636,7.131
		c4.666,0.845,8.282-1.214,11.44-4.381c10.319-10.345,20.675-20.654,30.93-31.063C157.927,9.204,161.224,6.315,165.653,5.025z"/>
</g>
</svg>
