<?xml version="1.0" encoding="utf-8"?>
<!-- Generator: Adobe Illustrator 16.0.0, SVG Export Plug-In . SVG Version: 6.00 Build 0)  -->
<!DOCTYPE svg PUBLIC "-//W3C//DTD SVG 1.1//EN" "http://www.w3.org/Graphics/SVG/1.1/DTD/svg11.dtd">
<svg version="1.1" id="Layer_1" xmlns="http://www.w3.org/2000/svg" xmlns:xlink="http://www.w3.org/1999/xlink" x="0px" y="0px"
	 width="300px" height="300px" viewBox="0 0 300 300" style="enable-background:new 0 0 300 300;" xml:space="preserve">
<g id="Restricted">
</g>
<g id="Help">
</g>
<g>
	<path d="M162.18,37.187c1.33,0,2.66,0,3.99,0c1.114,0.68,2.411,1.173,3.313,2.066c8.338,8.268,16.67,16.546,24.83,24.988
		c1.155,1.194,1.84,3.263,1.946,4.977c0.385,6.198-5.091,11.799-11.565,12.19c-1.398,0.084-2.819,0.08-4.187,0.342
		c-13.123,2.507-20.724,14.264-17.619,27.742c3.142,13.64,11.624,22.85,24.943,26.876c17.367,5.25,30.764-5.917,30.785-21.323
		c0.007-4.94,2.993-8.367,7.367-10.482c3.872-1.872,7.547-1.278,10.582,1.732c7.919,7.854,15.793,15.75,23.679,23.636
		c2.283,2.283,3.233,5.104,2.127,8.104c-0.841,2.281-2.056,4.641-3.726,6.361c-8.331,8.589-16.901,16.943-25.298,25.469
		c-1.418,1.439-2.77,3.161-3.509,5.01c-1.989,4.971,0.68,9.028,5.984,9.549c7.994,0.784,12.904,5.826,12.86,13.853
		c-0.019,3.48-0.588,7.105-1.685,10.406c-3.739,11.245-10.897,20.187-19.879,27.708c-6.925,5.8-14.551,10.395-23.596,12.021
		c-11.302,2.033-18.771-3.158-19.229-13.67c-0.115-2.658-1.893-4.44-4.485-5.182c-3.034-0.868-5.712,0.072-8.039,1.989
		c-1.533,1.264-2.899,2.734-4.31,4.143c-7.84,7.829-15.631,15.708-23.52,23.487c-4.57,4.507-10.251,4.833-14.189,0.918
		c-7.857-7.811-15.682-15.654-23.485-23.518c-2.936-2.958-3.598-6.6-1.823-10.374c2.352-5.002,6.294-7.525,11.911-7.69
		c12.607-0.371,22.068-10.812,21.242-23.257c-1.156-17.417-14.919-31.442-32.29-32.906c-11.285-0.95-21.022,6.213-23.385,17.316
		c-0.473,2.225-0.406,4.562-0.834,6.799c-0.913,4.778-3.913,7.875-8.419,9.417c-4.102,1.404-7.359-0.031-10.3-3.136
		c-4.824-5.092-10.005-9.844-14.84-14.924c-3.577-3.759-7.999-6.789-10.36-11.634c0-1.33,0-2.66,0-3.99
		c0.983-3.372,3.15-5.91,5.602-8.329c8.042-7.933,16.042-15.909,23.968-23.959c1.364-1.385,2.645-3.065,3.342-4.852
		c2.055-5.269-1.427-9.652-5.803-9.535c-0.799,0.021-1.616-0.173-2.407-0.347c-5.203-1.144-8.708-4.148-10.136-9.372
		c-1.296-4.743-0.678-9.422,0.93-13.924c5.923-16.589,17.258-28.428,32.659-36.557c4.944-2.61,10.226-4.23,15.89-4.193
		c7.241,0.047,12.225,3.715,13.789,10.122c0.296,1.213,0.407,2.474,0.569,3.717c0.396,3.027,2.174,5.008,5.164,5.549
		c3.631,0.657,6.444-0.944,8.902-3.409c8.03-8.05,16.088-16.072,24.068-24.172C156.168,40.438,158.734,38.19,162.18,37.187z"/>
</g>
</svg>
