<?xml version="1.0" encoding="utf-8"?>
<!-- Generator: Adobe Illustrator 18.1.1, SVG Export Plug-In . SVG Version: 6.00 Build 0)  -->
<!DOCTYPE svg PUBLIC "-//W3C//DTD SVG 1.1//EN" "http://www.w3.org/Graphics/SVG/1.1/DTD/svg11.dtd">
<svg version="1.1" xmlns="http://www.w3.org/2000/svg" xmlns:xlink="http://www.w3.org/1999/xlink" x="0px" y="0px"
	 viewBox="0 0 512 512" enable-background="new 0 0 512 512" xml:space="preserve">
<g id="Layer_1">
	<g>
		<path d="M256,26C129.2,26,26,129.2,26,256c0,126.8,103.2,230,230,230c126.8,0,230-103.2,230-230C486,129.2,382.8,26,256,26z
			 M268,358h-28v-32h28V358z M315.1,224.4c-4.2,6.4-12.9,15.8-25.9,28.2c-9.5,9-15.7,13-18.6,19.3c-2.9,6.3-4.3,24.1-4.3,24.1h-25.9
			c0,0,1.7-21.4,4.9-29.9c3.3-8.5,10.6-16.4,22-27.3l11.9-10.6c3.6-3.3,6.5-6.3,8.7-9.9c4-6.3,6.1-12.6,6.1-19.4
			c0-9.5-2.9-17.6-8.7-24.6c-5.8-7-15.4-10.4-28.7-10.4c-16.5,0-28,11.1-34.3,23.1c-3.6,6.7-5.6,13-6.1,34h-25.9
			c0-21,6-42.9,18-55.6c12-12.8,28.4-21.7,49.3-21.7c19.4,0,34.8,4.2,46.5,15.1c11.7,10.9,17.5,24.2,17.5,41.2
			C321.4,210.3,319.3,218,315.1,224.4z"/>
	</g>
</g>
<g id="Layer_2">
</g>
</svg>
