<?xml version="1.0" encoding="utf-8"?>
<!-- Generator: Adobe Illustrator 18.1.1, SVG Export Plug-In . SVG Version: 6.00 Build 0)  -->
<!DOCTYPE svg PUBLIC "-//W3C//DTD SVG 1.1//EN" "http://www.w3.org/Graphics/SVG/1.1/DTD/svg11.dtd">
<svg version="1.1" xmlns="http://www.w3.org/2000/svg" xmlns:xlink="http://www.w3.org/1999/xlink" x="0px" y="0px"
	 viewBox="0 0 512 512" enable-background="new 0 0 512 512" xml:space="preserve">
<g id="Layer_1">
	<g>
		<path d="M256,6C118.1,6,6,118.1,6,256c0,137.8,112.1,250,250,250c137.9,0,250-112.1,250-250C506,118.1,393.9,6,256,6z M269,367
			h-30v-35h30V367z M320.2,221.7c-4.6,7-14,17.2-28.2,30.7c-10.3,9.8-17.1,14.4-20.2,21.2c-3.1,6.8-4.7,26.4-4.7,26.4H239
			c0,0,1.8-23.5,5.4-32.8c3.6-9.2,11.6-17.9,23.9-29.9l12.9-11.6c3.9-3.6,7-6.9,9.4-10.8c4.4-6.9,6.6-13.7,6.6-21.1
			c0-10.3-3.2-19.2-9.5-26.8c-6.3-7.6-16.7-11.3-31.2-11.3c-18,0-30.4,12.1-37.3,25.1c-3.9,7.3-6.1,14-6.6,37h-28.2
			c0-23,6.5-46.6,19.5-60.5s30.9-23.6,53.6-23.6c21,0,37.9,4.6,50.5,16.4c12.7,11.9,19,26.3,19,44.8
			C327.1,206.4,324.8,214.7,320.2,221.7z"/>
	</g>
</g>
<g id="Layer_2">
</g>
</svg>
