<?xml version="1.0" encoding="utf-8"?>
<!-- Generator: Adobe Illustrator 16.0.0, SVG Export Plug-In . SVG Version: 6.00 Build 0)  -->
<!DOCTYPE svg PUBLIC "-//W3C//DTD SVG 1.1//EN" "http://www.w3.org/Graphics/SVG/1.1/DTD/svg11.dtd">
<svg version="1.1" id="Layer_1" xmlns="http://www.w3.org/2000/svg" xmlns:xlink="http://www.w3.org/1999/xlink" x="0px" y="0px"
	 width="300px" height="300px" viewBox="0 0 300 300" style="enable-background:new 0 0 300 300;" xml:space="preserve">
<g id="Restricted">
</g>
<g id="Help">
	<g>
		<path d="M150.003,5.001c-37.11,0-74.219,14.161-102.534,42.472c-56.626,56.625-56.626,148.438,0,205.056
			c28.315,28.312,65.424,42.471,102.534,42.471c37.112,0,74.213-14.158,102.53-42.471c56.621-56.618,56.621-148.431,0-205.056
			C224.216,19.162,187.115,5.001,150.003,5.001z M236.511,236.512c-23.104,23.105-53.83,35.833-86.508,35.833
			c-32.684,0-63.404-12.728-86.511-35.833c-47.703-47.697-47.703-125.316-0.005-173.02c23.111-23.107,53.832-35.835,86.516-35.835
			c32.683,0,63.403,12.728,86.508,35.835C284.214,111.195,284.214,188.814,236.511,236.512z"/>
		<path d="M187.65,79.445c-8.99-6.107-21.032-9.202-35.808-9.202c-18.958,0-33.162,4.427-42.213,13.145
			c-8.725,8.391-13.941,19.548-15.551,33.166l37.044,4.579c1.059-7.682,3.198-13.066,6.509-16.406
			c3.582-3.615,8.152-5.455,13.581-5.455c5.054,0,8.939,1.229,11.547,3.68c2.637,2.474,3.966,5.928,3.966,10.259
			c0,4.459-2.747,9.643-9.32,14.052C136.852,141.054,120,158.021,120,172.333V181h44.831c0.188-3,1.173-12.301,2.949-15.545
			c1.979-3.627,6.498-9.826,13.814-15.622c9.878-7.775,16.5-15.215,19.657-20.519c3.091-5.198,4.667-11.068,4.667-16.637
			C205.919,98.896,199.945,87.749,187.65,79.445z"/>
		<path d="M147.8,196.046c-12.239,0-22.16,9.922-22.16,22.155c0,12.238,9.921,22.157,22.16,22.157
			c12.234,0,22.154-9.919,22.154-22.157C169.954,205.968,160.034,196.046,147.8,196.046z"/>
	</g>
</g>
</svg>
