<svg class="icon icon-question" height="16" viewBox="0 0 16 16" version="1.1" aria-hidden="true">
    <path
      d="M8,0a8,8,0,1,0,8,8A8,8,0,0,0,8,0Zm.42,11.55h-1V10.43h1ZM10.05,6.9a6.67,6.67,0,0,1-.9,1c-.33.31-.55.45-.65.67a3.84,3.84,0,0,0-.15.84h-.9a5.48,5.48,0,0,1,.17-1,3,3,0,0,1,.77-1L8.81,7a1.65,1.65,0,0,0,.3-.34A1.22,1.22,0,0,0,9.32,6,1.29,1.29,0,0,0,9,5.16a1.23,1.23,0,0,0-1-.36,1.37,1.37,0,0,0-1.19.8,2.33,2.33,0,0,0-.21,1.18h-.9a2.93,2.93,0,0,1,.63-1.93,2.3,2.3,0,0,1,1.72-.75,2.25,2.25,0,0,1,1.62.53,1.86,1.86,0,0,1,.61,1.43A1.48,1.48,0,0,1,10.05,6.9Z"/>
</svg>
