<?xml version="1.0" encoding="utf-8"?>
<!-- Generator: Adobe Illustrator 18.1.1, SVG Export Plug-In . SVG Version: 6.00 Build 0)  -->
<!DOCTYPE svg PUBLIC "-//W3C//DTD SVG 1.1//EN" "http://www.w3.org/Graphics/SVG/1.1/DTD/svg11.dtd">
<svg version="1.1" xmlns="http://www.w3.org/2000/svg" xmlns:xlink="http://www.w3.org/1999/xlink" x="0px" y="0px"
	 viewBox="0 0 512 512" enable-background="new 0 0 512 512" xml:space="preserve">
<g id="Layer_1">
	<path d="M259.9,30.4c-124.1,0-225.2,101-225.2,225.2c0,124.1,101,225.2,225.2,225.2c124.2,0,225.2-101,225.2-225.2
		C485,131.4,384,30.4,259.9,30.4z M269,333h-21v-25h21V333z M305,230.5c-3.2,4.9-9.8,12.1-19.8,21.6c-7.3,6.9-12,10.3-14.2,15.1
		c-2.2,4.8-3.3,18.8-3.3,18.8h-19.8c0,0,1.3-16.7,3.8-23.2c2.5-6.5,8.1-12.7,16.8-21.1l9.1-8.2c2.7-2.5,4.9-4.9,6.6-7.6
		c3.1-4.8,4.6-9.7,4.6-14.9c0-7.3-2.2-13.5-6.7-18.8c-4.4-5.3-11.7-8-21.9-8c-12.6,0-21.4,8.5-26.2,17.7c-2.7,5.1-4.3,10-4.7,26
		h-19.8c0-16,4.6-32.8,13.7-42.5c9.1-9.7,21.7-16.6,37.7-16.6c14.8,0,26.6,3.2,35.5,11.5c8.9,8.3,13.3,18.5,13.3,31.5
		C309.8,219.8,308.2,225.6,305,230.5z"/>
</g>
<g id="Layer_2">
</g>
</svg>
