<?xml version="1.0" encoding="utf-8"?>
<!-- Generator: Adobe Illustrator 16.0.0, SVG Export Plug-In . SVG Version: 6.00 Build 0)  -->
<!DOCTYPE svg PUBLIC "-//W3C//DTD SVG 1.1//EN" "http://www.w3.org/Graphics/SVG/1.1/DTD/svg11.dtd">
<svg version="1.1" id="Layer_1" xmlns="http://www.w3.org/2000/svg" xmlns:xlink="http://www.w3.org/1999/xlink" x="0px" y="0px"
	 width="300px" height="300px" viewBox="0 0 300 300" style="enable-background:new 0 0 300 300;" xml:space="preserve">
<g id="Restricted">
</g>
<g id="Help">
	<g>
		<path d="M150.002,32.5c-30.072,0-60.143,11.476-83.088,34.417c-45.887,45.886-45.887,120.286,0,166.167
			c22.945,22.942,53.016,34.416,83.088,34.416c30.074,0,60.139-11.474,83.086-34.416c45.883-45.881,45.883-120.281,0-166.167
			C210.141,43.976,180.076,32.5,150.002,32.5z M220.104,220.104c-18.723,18.724-43.621,29.037-70.102,29.037
			c-26.484,0-51.379-10.313-70.104-29.037c-38.656-38.651-38.656-101.55-0.004-140.206c18.729-18.725,43.623-29.039,70.107-29.039
			s51.379,10.314,70.102,29.039C258.76,118.555,258.76,181.453,220.104,220.104z"/>
		<path d="M180.51,92.826c-7.285-4.949-17.043-7.457-29.017-7.457c-15.362,0-26.873,3.587-34.207,10.651
			c-7.07,6.8-11.298,15.841-12.602,26.876l30.019,3.711c0.857-6.225,2.592-10.588,5.274-13.295c2.902-2.93,6.606-4.42,11.005-4.42
			c4.096,0,7.244,0.996,9.357,2.981c2.137,2.005,3.214,4.804,3.214,8.313c0,3.613-2.071,7.813-7.397,11.387
			C139.5,142.75,126,156.5,126,168.098V175h36.019c0.152-2.699,0.95-9.907,2.39-12.536c1.604-2.939,5.266-7.933,11.194-12.629
			c8.005-6.301,13.371-12.314,15.93-16.612c2.504-4.213,3.781-8.962,3.781-13.475C195.313,108.58,190.473,99.555,180.51,92.826z"/>
		<path d="M148.217,187.313c-9.918,0-17.957,8.04-17.957,17.953c0,9.917,8.039,17.955,17.957,17.955
			c9.914,0,17.953-8.038,17.953-17.955C166.17,195.354,158.131,187.313,148.217,187.313z"/>
	</g>
</g>
</svg>
