<?xml version="1.0" encoding="utf-8"?>
<!-- Generator: Adobe Illustrator 18.1.1, SVG Export Plug-In . SVG Version: 6.00 Build 0)  -->
<!DOCTYPE svg PUBLIC "-//W3C//DTD SVG 1.1//EN" "http://www.w3.org/Graphics/SVG/1.1/DTD/svg11.dtd">
<svg version="1.1" id="Layer_1" xmlns="http://www.w3.org/2000/svg" xmlns:xlink="http://www.w3.org/1999/xlink" x="0px" y="0px"
	 viewBox="0 0 512 512" enable-background="new 0 0 512 512" xml:space="preserve">
<path d="M448,339.6L337.7,230.4c-9-8.9-23.5-8.8-32.4,0.2c-8.9,9-8.8,23.5,0.2,32.4l70.6,70H103l1-284.1c0-12.6-10.2-22.9-22.8-22.9
	c0,0-0.1,0-0.1,0c-12.6,0-22.8,10-22.9,22.6l-1.1,307.1c0,6.1,2.4,11.6,6.7,15.9c4.3,4.3,10.1,6.4,16.2,6.4h296.3l-68.9,68.6
	c-9,8.9-9.1,23.5-0.2,32.5c4.5,4.5,10.4,6.9,16.3,6.9c5.8,0,11.6-2.2,16.1-6.6L448,372.1c4.3-4.3,6.8-10.1,6.8-16.2
	C454.8,349.8,452.4,343.9,448,339.6z"/>
</svg>
