<?xml version="1.0" encoding="utf-8"?>
<!-- Generator: Adobe Illustrator 18.1.1, SVG Export Plug-In . SVG Version: 6.00 Build 0)  -->
<!DOCTYPE svg PUBLIC "-//W3C//DTD SVG 1.1//EN" "http://www.w3.org/Graphics/SVG/1.1/DTD/svg11.dtd">
<svg version="1.1" id="Layer_1" xmlns="http://www.w3.org/2000/svg" xmlns:xlink="http://www.w3.org/1999/xlink" x="0px" y="0px"
	 viewBox="0 0 512 512" enable-background="new 0 0 512 512" xml:space="preserve">
<path d="M464.7,346.9L344.8,228.2c-9.8-9.7-25.5-9.6-35.2,0.2c-9.7,9.8-9.6,25.7,0.2,35.4l76.8,76.2H89.8l1.1-309
	c0-13.7-11-25-24.8-25c0,0-0.1,0-0.1,0C52.3,6,41.2,16.9,41.1,30.6l-1.2,333.8c0,6.6,2.6,12.8,7.3,17.5c4.7,4.7,11,7.1,17.6,7.1
	h322.1l-74.9,74.3c-9.8,9.7-9.8,25.5-0.2,35.2c4.9,4.9,11.3,7.4,17.7,7.4c6.3,0,12.6-2.4,17.5-7.2l117.8-116.6
	c4.7-4.7,7.4-11,7.4-17.7C472.1,357.9,469.4,351.6,464.7,346.9z"/>
</svg>
