<?xml version="1.0" encoding="utf-8"?>
<!-- Generator: Adobe Illustrator 18.1.1, SVG Export Plug-In . SVG Version: 6.00 Build 0)  -->
<!DOCTYPE svg PUBLIC "-//W3C//DTD SVG 1.1//EN" "http://www.w3.org/Graphics/SVG/1.1/DTD/svg11.dtd">
<svg version="1.1" xmlns="http://www.w3.org/2000/svg" xmlns:xlink="http://www.w3.org/1999/xlink" x="0px" y="0px"
	 viewBox="0 0 512 512" enable-background="new 0 0 512 512" xml:space="preserve">
<g id="Layer_1">
	<path d="M350,165.5c-5.7,12.7,0.1,27.6,12.8,33.3l74.6,33.2c3.3,1.4,6.7,2.2,10.2,2.2c3.1,0,6.1-0.6,9-1.7
		c6.2-2.4,11.3-7.2,14-13.3l33.1-74.6c5.7-12.7-0.1-27.6-12.8-33.3c-12.7-5.6-27.6,0.1-33.3,12.8l-8.5,19.1
		C408.9,68.5,330.6,20.1,241.9,20.1C111.8,20.1,6,125.9,6,256s105.8,235.9,235.9,235.9c120.9,0,221.8-90.5,234.6-210.6
		c1.5-13.8-8.6-26.3-22.4-27.7c-13.9-1.5-26.3,8.5-27.7,22.4c-10.1,94.4-89.4,165.6-184.5,165.6c-102.3,0-185.5-83.2-185.5-185.5
		S139.6,70.5,241.9,70.5c67,0,126.5,35.2,159.2,90.1l-17.8-7.9C370.6,147.1,355.7,152.8,350,165.5z"/>
</g>
<g id="Layer_2">
</g>
</svg>
