<?xml version="1.0" encoding="utf-8"?>
<!-- Generator: Adobe Illustrator 18.1.1, SVG Export Plug-In . SVG Version: 6.00 Build 0)  -->
<!DOCTYPE svg PUBLIC "-//W3C//DTD SVG 1.1//EN" "http://www.w3.org/Graphics/SVG/1.1/DTD/svg11.dtd">
<svg version="1.1" xmlns="http://www.w3.org/2000/svg" xmlns:xlink="http://www.w3.org/1999/xlink" x="0px" y="0px"
	 viewBox="0 0 512 512" enable-background="new 0 0 512 512" xml:space="preserve">
<g id="Layer_1">
	<path d="M344.8,187.1c-5,11.3,0.1,24.6,11.4,29.6l66.3,29.5c2.9,1.3,6,1.9,9.1,1.9c2.7,0,5.5-0.5,8-1.5c5.6-2.1,10-6.4,12.4-11.8
		l29.5-66.3c5-11.3-0.1-24.6-11.4-29.6c-11.3-5-24.6,0.1-29.6,11.4l-7.5,17C397.2,100.8,327.5,57.7,248.7,57.7
		C133,57.7,38.9,151.9,38.9,267.5S133,477.3,248.7,477.3c107.5,0,197.2-80.5,208.6-187.3c1.3-12.3-7.6-23.3-19.9-24.7
		c-12.3-1.3-23.4,7.6-24.7,19.9c-9,83.9-79.5,147.2-164,147.2c-91,0-165-74-165-165s74-165,165-165c59.6,0,112.5,31.3,141.5,80.1
		l-15.8-7C363.1,170.7,349.9,175.8,344.8,187.1z"/>
</g>
<g id="Layer_2">
</g>
</svg>
