<?xml version="1.0" encoding="utf-8"?>
<!-- Generator: Adobe Illustrator 18.1.1, SVG Export Plug-In . SVG Version: 6.00 Build 0)  -->
<!DOCTYPE svg PUBLIC "-//W3C//DTD SVG 1.1//EN" "http://www.w3.org/Graphics/SVG/1.1/DTD/svg11.dtd">
<svg version="1.1" xmlns="http://www.w3.org/2000/svg" xmlns:xlink="http://www.w3.org/1999/xlink" x="0px" y="0px"
	 viewBox="0 0 512 512" enable-background="new 0 0 512 512" xml:space="preserve">
<g id="Layer_1">
	<path d="M482.2,114.7c-12.3-5.4-26.6,0.1-32,12.3l-8,18c-14.2-25.8-33.4-48.8-56.6-67.4c-40.1-32.2-90.5-50-142.1-50
		c-125.1,0-226.9,101.8-226.9,226.9s101.8,226.9,226.9,226.9c84.7,0,161.7-46.6,201.1-121.7c6.4-12.2,1.7-27.2-10.5-33.6
		c-12.2-6.4-27.2-1.7-33.6,10.5c-30.7,58.6-90.9,95-157,95c-97.6,0-177.1-79.4-177.1-177.1S145.9,77.5,243.5,77.5
		c40.8,0,79.2,13.5,110.9,39c15.8,12.7,29.2,28,39.8,45.1l-15.6-6.9c-12.2-5.4-26.6,0.1-32,12.3c-5.4,12.2,0.1,26.6,12.3,32
		l66.2,29.4c5.7,4.4,13.2,6.2,20.8,4.5c9.5-2.2,16.4-9.5,18.6-18.4l30.1-67.7C500,134.5,494.5,120.2,482.2,114.7z"/>
</g>
<g id="Layer_2">
</g>
</svg>
