<?xml version="1.0" encoding="utf-8"?>
<!-- Generator: Adobe Illustrator 16.0.0, SVG Export Plug-In . SVG Version: 6.00 Build 0)  -->
<!DOCTYPE svg PUBLIC "-//W3C//DTD SVG 1.1//EN" "http://www.w3.org/Graphics/SVG/1.1/DTD/svg11.dtd">
<svg version="1.1" id="Layer_1" xmlns="http://www.w3.org/2000/svg" xmlns:xlink="http://www.w3.org/1999/xlink" x="0px" y="0px"
	 width="300px" height="300px" viewBox="0 0 300 300" style="enable-background:new 0 0 300 300;" xml:space="preserve">
<g>
	<path d="M250.18,46.821c-26.688-25.875-62.34-40.464-99.931-40.464c-43.021,0-83.417,19.048-110.83,52.26
		c-4.728,5.725-3.915,14.197,1.81,18.922c2.506,2.067,5.536,3.075,8.548,3.075c3.873,0,7.716-1.665,10.373-4.885
		c22.289-27.003,55.128-42.49,90.1-42.49c26.641,0,52.079,9.021,72.543,25.27l-40.964,17.482L280.45,150l14.799-122.412
		L250.18,46.821z"/>
	<g>
		<g>
			<path style="fill:none;stroke:#000000;stroke-width:15;stroke-miterlimit:10;" d="M280.45,150"/>
		</g>
	</g>
	<g>
		<g>
			<path style="fill:none;stroke:#000000;stroke-width:15;stroke-miterlimit:10;" d="M250.621,232.936"/>
		</g>
	</g>
	<g>
		<g>
			<path style="fill:none;stroke:#000000;stroke-width:15;stroke-miterlimit:10;" d="M250.621,232.936"/>
		</g>
	</g>
	<g>
		<g>
			<path style="fill:none;stroke:#000000;stroke-width:15;stroke-miterlimit:10;" d="M49.782,67.173"/>
		</g>
	</g>
	<path d="M259.188,222.58c-5.72-4.731-14.192-3.931-18.925,1.789c-22.286,26.941-55.095,42.393-90.015,42.393
		c-26.641,0-52.079-9.021-72.543-25.27l40.964-17.482L20.048,150L5.249,272.412l45.069-19.234
		c26.688,25.875,62.34,40.464,99.931,40.464c42.959,0,83.316-19.004,110.729-52.139C265.708,235.784,264.908,227.312,259.188,222.58
		z"/>
	<g>
		<g>
			<path style="fill:none;stroke:#000000;stroke-width:15;stroke-miterlimit:10;" d="M20.048,150"/>
		</g>
	</g>
	<g>
		<g>
			<path style="fill:none;stroke:#000000;stroke-width:15;stroke-miterlimit:10;" d="M49.782,67.173"/>
		</g>
	</g>
	<g>
		<g>
			<path style="fill:none;stroke:#000000;stroke-width:15;stroke-miterlimit:10;" d="M49.782,67.173"/>
		</g>
	</g>
	<g>
		<g>
			<path style="fill:none;stroke:#000000;stroke-width:15;stroke-miterlimit:10;" d="M250.621,232.936"/>
		</g>
	</g>
</g>
<g id="Restricted">
</g>
<g id="Help">
</g>
</svg>
