<?xml version="1.0" encoding="utf-8"?>
<!-- Generator: Adobe Illustrator 16.0.0, SVG Export Plug-In . SVG Version: 6.00 Build 0)  -->
<!DOCTYPE svg PUBLIC "-//W3C//DTD SVG 1.1//EN" "http://www.w3.org/Graphics/SVG/1.1/DTD/svg11.dtd">
<svg version="1.1" id="Layer_1" xmlns="http://www.w3.org/2000/svg" xmlns:xlink="http://www.w3.org/1999/xlink" x="0px" y="0px"
	 width="300px" height="300px" viewBox="0 0 300 300" style="enable-background:new 0 0 300 300;" xml:space="preserve">
<path d="M267.5,149.869C267.5,84.983,214.756,32.5,149.739,32.5C85.114,32.5,32.5,84.983,32.5,149.869
	c0,65.017,52.614,117.631,117.369,117.631C214.625,267.5,267.5,214.886,267.5,149.869z M133.811,69.839h30.419v36.164
	c0,11.359-3.525,32.117-10.575,62.406h-9.399c-7.05-29.897-10.445-50.656-10.445-62.275V69.839z M163.97,224.678
	c-3.917,3.525-8.617,5.353-14.231,5.353c-5.483,0-10.183-1.828-14.23-5.353c-3.917-3.656-5.875-7.833-5.875-13.055
	c0-4.961,1.958-9.27,5.875-12.795c4.047-3.525,8.748-5.483,14.23-5.483c5.614,0,10.314,1.958,14.231,5.483
	c4.047,3.525,6.005,7.833,6.005,12.795C169.975,216.845,168.017,221.022,163.97,224.678z"/>
<g id="Restricted">
</g>
<g id="Help">
</g>
</svg>
