<?xml version="1.0" encoding="utf-8"?>
<!-- Generator: Adobe Illustrator 18.1.1, SVG Export Plug-In . SVG Version: 6.00 Build 0)  -->
<!DOCTYPE svg PUBLIC "-//W3C//DTD SVG 1.1//EN" "http://www.w3.org/Graphics/SVG/1.1/DTD/svg11.dtd">
<svg version="1.1" id="Layer_1" xmlns="http://www.w3.org/2000/svg" xmlns:xlink="http://www.w3.org/1999/xlink" x="0px" y="0px"
	 viewBox="0 0 512 512" enable-background="new 0 0 512 512" xml:space="preserve">
<g>
	<path d="M474,323V133.2c0-9-5-17.2-13.1-21.1c-8.1-3.9-17.7-2.8-24.7,2.9l-96,77.4L276.9,64.7c-3.9-8-12-12.7-20.9-12.7h0
		c-8.9,0-17,4.7-20.9,12.7l-63.3,127.5l-96.2-77.7c-7-5.7-15.9-6.8-24-2.9c-8.1,3.9-12.5,12.1-12.5,21.1V323H474z"/>
	<path d="M482,338h-8.2H37.5h-9.2C15.4,338,6,346.2,6,359.1v78.6c0,12.9,9.4,23.3,22.3,23.3H482c12.9,0,24-10.4,24-23.3v-78.6
		C506,346.2,494.9,338,482,338z"/>
</g>
</svg>
