<?xml version="1.0" encoding="utf-8"?>
<!-- Generator: Adobe Illustrator 18.1.1, SVG Export Plug-In . SVG Version: 6.00 Build 0)  -->
<!DOCTYPE svg PUBLIC "-//W3C//DTD SVG 1.1//EN" "http://www.w3.org/Graphics/SVG/1.1/DTD/svg11.dtd">
<svg version="1.1" id="Layer_1" xmlns="http://www.w3.org/2000/svg" xmlns:xlink="http://www.w3.org/1999/xlink" x="0px" y="0px"
	 viewBox="0 0 512 512" enable-background="new 0 0 512 512" xml:space="preserve">
<path d="M471.9,145.9c-8.5-4.1-18.7-2.9-26.1,3L345,230.2L278.4,95.7c-4.1-8.4-12.7-13.7-22-13.7c0,0,0,0,0,0
	c-9.3,0-17.8,5.4-22,13.7l-66.5,134l-101-81.5c-7.3-5.9-18-7.1-26.5-3c-8.5,4.1-14.4,12.7-14.4,22.2v240.2c0,13.6,12,22.4,25.5,22.4
	h409.6c13.6,0,24.8-8.8,24.8-22.4V168C486,158.6,480.4,150,471.9,145.9z"/>
</svg>
