<?xml version="1.0" encoding="utf-8"?>
<!-- Generator: Adobe Illustrator 18.1.1, SVG Export Plug-In . SVG Version: 6.00 Build 0)  -->
<!DOCTYPE svg PUBLIC "-//W3C//DTD SVG 1.1//EN" "http://www.w3.org/Graphics/SVG/1.1/DTD/svg11.dtd">
<svg version="1.1" id="Layer_1" xmlns="http://www.w3.org/2000/svg" xmlns:xlink="http://www.w3.org/1999/xlink" x="0px" y="0px"
	 viewBox="0 0 512 512" enable-background="new 0 0 512 512" xml:space="preserve">
<path d="M449.4,147.9c-7.6-3.6-16.7-2.6-23.2,2.7L336.3,223L277,103.2c-3.7-7.5-11.3-12.2-19.6-12.2c0,0,0,0,0,0
	c-8.3,0-15.9,4.7-19.6,12.2l-59.3,119.5l-90-72.7c-6.5-5.3-16-6.3-23.6-2.7C57.3,150.9,52,158.6,52,167v214.1
	c0,12.1,10.7,19.8,22.7,19.8h365.1c12.1,0,22.1-7.7,22.1-19.8V167.6C462,159.2,457,151.5,449.4,147.9z"/>
</svg>
