<?xml version="1.0" encoding="utf-8"?>
<!-- Generator: Adobe Illustrator 18.1.1, SVG Export Plug-In . SVG Version: 6.00 Build 0)  -->
<!DOCTYPE svg PUBLIC "-//W3C//DTD SVG 1.1//EN" "http://www.w3.org/Graphics/SVG/1.1/DTD/svg11.dtd">
<svg version="1.1" id="Layer_1" xmlns="http://www.w3.org/2000/svg" xmlns:xlink="http://www.w3.org/1999/xlink" x="0px" y="0px"
	 viewBox="0 0 512 512" enable-background="new 0 0 512 512" xml:space="preserve">
<g>
	<path d="M482.7,375h-8.2H37.4h-9.2C15.3,375,7,383.1,7,396.1v78.7c0,12.9,8.3,23.2,21.2,23.2h454.5c12.9,0,23.3-10.3,23.3-23.2
		v-78.7C506,383.1,495.6,375,482.7,375z"/>
	<path d="M38,181.3V360h436V180.7c17-9,31.1-27.5,31.1-49c0-30.3-24.4-54.9-54.6-54.9c-30.3,0-54.8,24.6-54.8,54.9
		c0,15.4,6.5,29.3,16.8,39.3l-71.9,58l-55.9-113.1c15.8-9.7,26.4-26.9,26.4-46.7c0-30.3-24.6-54.9-54.9-54.9S201.4,39,201.4,69.3
		c0,19.8,10.6,37,26.4,46.7l-55.9,112.7l-72.4-58.4c9.8-9.9,15.9-23.5,15.9-38.5c0-30.3-24.6-54.9-54.9-54.9S5.9,101.4,5.9,131.7
		C5.9,153.7,19,172.6,38,181.3z"/>
</g>
</svg>
