<?xml version="1.0" encoding="utf-8"?>
<!-- Generator: Adobe Illustrator 18.1.1, SVG Export Plug-In . SVG Version: 6.00 Build 0)  -->
<!DOCTYPE svg PUBLIC "-//W3C//DTD SVG 1.1//EN" "http://www.w3.org/Graphics/SVG/1.1/DTD/svg11.dtd">
<svg version="1.1" id="Layer_1" xmlns="http://www.w3.org/2000/svg" xmlns:xlink="http://www.w3.org/1999/xlink" x="0px" y="0px"
	 viewBox="0 0 512 512" enable-background="new 0 0 512 512" xml:space="preserve">
<g>
	<path d="M468.1,359h-7.6H52.1h-8.6c-12.1,0-19.5,8-19.5,20.1v73.5c0,12.1,7.4,21.3,19.5,21.3h424.6c12.1,0,21.9-9.3,21.9-21.3
		v-73.5C490,367,480.2,359,468.1,359z"/>
	<path d="M53,178.5V345h407V177.9c16-8.4,29.1-25.7,29.1-45.8c0-28.3-22.8-51.3-51-51.3c-28.3,0-51.2,23-51.2,51.3
		c0,14.4,6.1,27.4,15.7,36.7L335.5,223l-52.3-105.7c14.7-9,24.7-25.1,24.7-43.6c0-28.3-23-51.3-51.3-51.3s-51.3,23-51.3,51.3
		c0,18.5,9.9,34.6,24.7,43.6l-52.2,105.3l-67.6-54.6c9.1-9.3,14.8-22,14.8-36c0-28.3-23-51.3-51.3-51.3s-50.8,23-50.8,51.3
		C22.8,152.7,35,170.3,53,178.5z"/>
</g>
</svg>
