<?xml version="1.0" encoding="utf-8"?>
<!-- Generator: Adobe Illustrator 18.1.1, SVG Export Plug-In . SVG Version: 6.00 Build 0)  -->
<!DOCTYPE svg PUBLIC "-//W3C//DTD SVG 1.1//EN" "http://www.w3.org/Graphics/SVG/1.1/DTD/svg11.dtd">
<svg version="1.1" id="Layer_1" xmlns="http://www.w3.org/2000/svg" xmlns:xlink="http://www.w3.org/1999/xlink" x="0px" y="0px"
	 viewBox="0 0 512 512" enable-background="new 0 0 512 512" xml:space="preserve">
<path d="M490.7,136.3c-9.2-4.4-20.3-3.2-28.3,3.3L352.7,228L280.4,81.9c-4.5-9.1-13.8-14.9-23.9-14.9c0,0,0,0,0,0
	c-10.1,0-19.4,5.8-23.9,14.8l-72.3,145.7L50.5,138.9c-8-6.4-19.5-7.7-28.8-3.3C12.4,140,6,149.4,6,159.7v261.1
	C6,435.6,19,445,33.7,445H479c14.7,0,27-9.4,27-24.2V160.4C506,150.1,499.9,140.7,490.7,136.3z"/>
</svg>
