<?xml version="1.0" encoding="utf-8"?>
<!-- Generator: Adobe Illustrator 18.1.1, SVG Export Plug-In . SVG Version: 6.00 Build 0)  -->
<!DOCTYPE svg PUBLIC "-//W3C//DTD SVG 1.1//EN" "http://www.w3.org/Graphics/SVG/1.1/DTD/svg11.dtd">
<svg version="1.1" id="Layer_1" xmlns="http://www.w3.org/2000/svg" xmlns:xlink="http://www.w3.org/1999/xlink" x="0px" y="0px"
	 viewBox="0 0 512 512" enable-background="new 0 0 512 512" xml:space="preserve">
<g>
	<path d="M462,345V167.6c0-8.4-4.7-16.1-12.3-19.7c-7.6-3.6-16.6-2.6-23.1,2.7L336.8,223l-59.2-119.8C273.9,95.8,266.3,91,258,91h0
		c-8.3,0-15.9,4.7-19.6,12.2l-59.3,119.5l-90-72.7c-6.6-5.3-14.9-6.3-22.4-2.7C59.1,150.9,55,158.6,55,167v178H462z"/>
	<path d="M469.5,359h-7.6H53.5h-8.6c-12.1,0-20.9,8-20.9,20.1v73.5c0,12.1,8.8,21.3,20.9,21.3h424.6c12.1,0,22.5-9.3,22.5-21.3
		v-73.5C492,367,481.6,359,469.5,359z"/>
</g>
</svg>
