<?xml version="1.0" encoding="utf-8"?>
<!-- Generator: Adobe Illustrator 18.1.1, SVG Export Plug-In . SVG Version: 6.00 Build 0)  -->
<!DOCTYPE svg PUBLIC "-//W3C//DTD SVG 1.1//EN" "http://www.w3.org/Graphics/SVG/1.1/DTD/svg11.dtd">
<svg version="1.1" id="Layer_1" xmlns="http://www.w3.org/2000/svg" xmlns:xlink="http://www.w3.org/1999/xlink" x="0px" y="0px"
	 viewBox="0 0 512 512" enable-background="new 0 0 512 512" xml:space="preserve">
<g>
	<path d="M464.5,365H457h-402h-8.5c-11.9,0-19.5,7.9-19.5,19.8v72.4c0,11.9,7.6,21.8,19.5,21.8h418c11.9,0,21.5-9.9,21.5-21.8v-72.4
		C486,372.9,476.4,365,464.5,365z"/>
	<path d="M55,187.3V352h402V186.7c15-8.3,28.4-25.3,28.4-45c0-27.8-22.5-50.5-50.4-50.5s-50.4,22.6-50.4,50.5c0,14.2,6,27,15.4,36.2
		l-66.1,53.3l-51.5-104c14.5-8.9,24.3-24.7,24.3-42.9c0-27.8-22.6-50.5-50.5-50.5s-50.5,22.6-50.5,50.5c0,18.2,9.8,34.1,24.3,42.9
		l-51.4,103.6L112,177.1c9-9.1,14.6-21.6,14.6-35.4c0-27.8-22.6-50.5-50.5-50.5s-50.4,22.6-50.4,50.5C25.7,161.9,38,179.3,55,187.3z
		"/>
</g>
</svg>
