<?xml version="1.0" encoding="utf-8"?>
<!-- Generator: Adobe Illustrator 18.1.1, SVG Export Plug-In . SVG Version: 6.00 Build 0)  -->
<!DOCTYPE svg PUBLIC "-//W3C//DTD SVG 1.1//EN" "http://www.w3.org/Graphics/SVG/1.1/DTD/svg11.dtd">
<svg version="1.1" id="Layer_1" xmlns="http://www.w3.org/2000/svg" xmlns:xlink="http://www.w3.org/1999/xlink" x="0px" y="0px"
	 viewBox="0 0 512 512" enable-background="new 0 0 512 512" xml:space="preserve">
<g>
	<path d="M457,318V143c0-8.3-4.8-15.8-12.3-19.4c-7.5-3.6-16.4-2.5-22.8,2.7l-88.3,71.2L275.3,79.9C271.7,72.5,264.2,68,256,68h0
		c-8.2,0-15.6,4.5-19.3,11.8l-58.2,117.4L90,125.8c-6.5-5.2-14.8-6.3-22.3-2.7c-7.5,3.6-11.7,11.1-11.7,19.4V318H457z"/>
	<path d="M463.9,331h-7.5H55h-8.5c-11.9,0-20.5,8-20.5,19.9v72.3c0,11.9,8.6,21.8,20.5,21.8h417.4c11.9,0,22.1-9.9,22.1-21.8v-72.3
		C486,339,475.8,331,463.9,331z"/>
</g>
</svg>
