<?xml version="1.0" encoding="utf-8"?>
<!-- Generator: Adobe Illustrator 18.1.1, SVG Export Plug-In . SVG Version: 6.00 Build 0)  -->
<!DOCTYPE svg PUBLIC "-//W3C//DTD SVG 1.1//EN" "http://www.w3.org/Graphics/SVG/1.1/DTD/svg11.dtd">
<svg version="1.1" id="Layer_1" xmlns="http://www.w3.org/2000/svg" xmlns:xlink="http://www.w3.org/1999/xlink" x="0px" y="0px"
	 viewBox="0 0 512 512" enable-background="new 0 0 512 512" xml:space="preserve">
<g>
	<path d="M499,12.9c-9.2-9.2-24.5-9.2-33.8,0L345,132.9V86.2c0-13.1-10.4-23.7-23.5-23.7S298,73.1,298,86.2V190
		c0,13.1,10.9,24,24,24h102.9c13.1,0,23.7-10.9,23.7-24s-10.6-24-23.7-24h-45.7L499,46.2C508.3,37,508.3,22.2,499,12.9z"/>
	<path d="M190,298H87.2c-13.1,0-23.7,10.9-23.7,24c0,13.1,10.6,24,23.7,24h45.7L13,465.7c-9.2,9.2-9.2,24.1,0,33.4
		c4.6,4.6,10.7,6.9,16.7,6.9c6.1,0,11.9-2.3,16.6-7L166,379.1v46.6c0,13.1,10.4,23.7,23.5,23.7c13.1,0,23.5-10.6,23.5-23.7V321.9
		C213,308.9,203.1,298,190,298z"/>
</g>
</svg>
