<?xml version="1.0" encoding="utf-8"?>
<!-- Generator: Adobe Illustrator 18.1.1, SVG Export Plug-In . SVG Version: 6.00 Build 0)  -->
<!DOCTYPE svg PUBLIC "-//W3C//DTD SVG 1.1//EN" "http://www.w3.org/Graphics/SVG/1.1/DTD/svg11.dtd">
<svg version="1.1" xmlns="http://www.w3.org/2000/svg" xmlns:xlink="http://www.w3.org/1999/xlink" x="0px" y="0px"
	 viewBox="0 0 512 512" enable-background="new 0 0 512 512" xml:space="preserve">
<g id="Layer_1">
	<g>
		<path d="M472.7,16h-97.4c-12.4,0-22.4,9.6-22.4,22s10,22,22.4,22h43.3L305,173.8c-8.8,8.8-8.8,23.1,0,31.8
			c4.4,4.4,10.1,6.6,15.8,6.6c5.7,0,11.3-2.2,15.7-6.5L450,92.2v44.2c0,12.4,10.1,22.4,22.5,22.4c12.4,0,22.5-10,22.5-22.4V38
			C495,25.7,485,16,472.7,16z"/>
		<path d="M179.8,299L66,412.6v-44.2c0-12.4-9.6-22.4-22-22.4c-12.4,0-22,10-22,22.4v98.3c0,12.4,9.6,22.3,22,22.3h97.4
			c12.4,0,22.4-10.1,22.4-22.5c0-12.4-10-22.5-22.4-22.5H98.1l113.6-113.4c8.8-8.8,8.8-22.8,0-31.5
			C202.9,290.3,188.5,290.3,179.8,299z"/>
	</g>
</g>
<g id="Layer_2">
</g>
</svg>
