<?xml version="1.0" encoding="utf-8"?>
<!-- Generator: Adobe Illustrator 16.0.0, SVG Export Plug-In . SVG Version: 6.00 Build 0)  -->
<!DOCTYPE svg PUBLIC "-//W3C//DTD SVG 1.1//EN" "http://www.w3.org/Graphics/SVG/1.1/DTD/svg11.dtd">
<svg version="1.1" id="Layer_1" xmlns="http://www.w3.org/2000/svg" xmlns:xlink="http://www.w3.org/1999/xlink" x="0px" y="0px"
	 width="300px" height="300px" viewBox="0 0 300 300" style="enable-background:new 0 0 300 300;" xml:space="preserve">
<path d="M196.399,5l36.25,36.25L182.061,92L208,117.939l50.75-50.75L295,103.601V5H196.399z M214.444,188.506l-25.939,25.939
	l50.75,50.75L209.289,295H295v-85.712l-29.806,29.968L214.444,188.506z M92.161,182.061l-50.75,50.75L5,196.239V295h98.761
	l-36.25-36.25l50.59-50.75L92.161,182.061z M92,117.939L117.939,92L67.351,41.25L103.601,5H5v98.601l36.25-36.25L92,117.939z"/>
<g id="Restricted">
</g>
<g id="Help">
</g>
</svg>
