<?xml version="1.0" encoding="utf-8"?>
<!-- Generator: Adobe Illustrator 18.1.1, SVG Export Plug-In . SVG Version: 6.00 Build 0)  -->
<!DOCTYPE svg PUBLIC "-//W3C//DTD SVG 1.1//EN" "http://www.w3.org/Graphics/SVG/1.1/DTD/svg11.dtd">
<svg version="1.1" id="Layer_1" xmlns="http://www.w3.org/2000/svg" xmlns:xlink="http://www.w3.org/1999/xlink" x="0px" y="0px"
	 viewBox="0 0 512 512" enable-background="new 0 0 512 512" xml:space="preserve">
<g>
	<path d="M479.6,32.3c-8.5-8.5-22.5-8.5-31,0L338,142.7V99.8c0-12-9.5-21.8-21.5-21.8S295,87.7,295,99.8v95.5
		c0,12,9.7,21.7,21.7,21.7h94.6c12,0,21.8-10,21.8-22s-9.8-22-21.8-22h-42.1L479.6,62.9C488.1,54.4,488.1,40.8,479.6,32.3z"/>
	<path d="M195.3,295h-94.6c-12,0-21.8,10-21.8,22c0,12,9.8,22,21.8,22h42.1L32.4,449.1c-8.5,8.5-8.5,22.1,0,30.7
		c4.3,4.3,9.8,6.3,15.4,6.3c5.6,0,10.9-2.2,15.1-6.4L173,369.3v42.9c0,12,9.5,21.8,21.5,21.8s21.5-9.7,21.5-21.8v-95.5
		C216,304.6,207.3,295,195.3,295z"/>
</g>
</svg>
