<?xml version="1.0" encoding="utf-8"?>
<!-- Generator: Adobe Illustrator 18.1.1, SVG Export Plug-In . SVG Version: 6.00 Build 0)  -->
<!DOCTYPE svg PUBLIC "-//W3C//DTD SVG 1.1//EN" "http://www.w3.org/Graphics/SVG/1.1/DTD/svg11.dtd">
<svg version="1.1" id="Layer_1" xmlns="http://www.w3.org/2000/svg" xmlns:xlink="http://www.w3.org/1999/xlink" x="0px" y="0px"
	 viewBox="0 0 512 512" enable-background="new 0 0 512 512" xml:space="preserve">
<g>
	<path d="M483.1,31c-8.5-8.5-22.6-8.5-31.1,0L341,141.9V98.8c0-12.1-9.4-21.9-21.5-21.9S298,86.7,298,98.8v96
		c0,12.1,9.4,22.2,21.4,22.2h95.1c12.1,0,21.9-9.9,21.9-22s-9.8-22-21.9-22h-42.3L483.1,62C491.7,53.5,491.7,39.6,483.1,31z"/>
	<path d="M197.5,295h-95.1c-12.1,0-21.9,9.9-21.9,22c0,12.1,9.8,22,21.9,22h42.3L33.8,449.7c-8.5,8.5-8.5,22.3,0,30.8
		c4.3,4.3,9.9,6.4,15.5,6.4c5.6,0,11.4-2.2,15.7-6.4L176,369.6v43.1c0,12.1,9.4,21.9,21.5,21.9s21.5-9.8,21.5-21.9v-96
		C219,304.6,209.5,295,197.5,295z"/>
</g>
</svg>
