<?xml version="1.0" encoding="utf-8"?>
<!-- Generator: Adobe Illustrator 18.1.1, SVG Export Plug-In . SVG Version: 6.00 Build 0)  -->
<!DOCTYPE svg PUBLIC "-//W3C//DTD SVG 1.1//EN" "http://www.w3.org/Graphics/SVG/1.1/DTD/svg11.dtd">
<svg version="1.1" xmlns="http://www.w3.org/2000/svg" xmlns:xlink="http://www.w3.org/1999/xlink" x="0px" y="0px"
	 viewBox="0 0 512 512" enable-background="new 0 0 512 512" xml:space="preserve">
<g id="Layer_1">
	<g>
		<path d="M464.3,26h-94.7c-12,0-21.8,9.5-21.8,21.5S357.5,69,369.5,69h42.1L301.2,179.6c-8.5,8.5-8.5,22.4,0,30.9
			c4.3,4.3,9.8,6.4,15.4,6.4c5.6,0,10.9-2.1,15.2-6.4L442,100.1v43c0,12,10,21.8,22,21.8c12,0,22-9.8,22-21.8V47.4
			C486,35.4,476.3,26,464.3,26z"/>
		<path d="M179.6,301.3L69,411.7v-43c0-12-9.5-21.8-21.5-21.8c-12,0-21.5,9.8-21.5,21.8v95.6c0,12,9.4,21.6,21.4,21.6h94.7
			c12,0,21.8-10,21.8-22c0-12-9.8-22-21.8-22H100l110.5-110.2c8.5-8.5,8.6-22.1,0.1-30.6C202,292.7,188.1,292.7,179.6,301.3z"/>
	</g>
</g>
<g id="Layer_2">
</g>
</svg>
