<?xml version="1.0" encoding="utf-8"?>
<!-- Generator: Adobe Illustrator 18.1.1, SVG Export Plug-In . SVG Version: 6.00 Build 0)  -->
<!DOCTYPE svg PUBLIC "-//W3C//DTD SVG 1.1//EN" "http://www.w3.org/Graphics/SVG/1.1/DTD/svg11.dtd">
<svg version="1.1" xmlns="http://www.w3.org/2000/svg" xmlns:xlink="http://www.w3.org/1999/xlink" x="0px" y="0px"
	 viewBox="0 0 512 512" enable-background="new 0 0 512 512" xml:space="preserve">
<g id="Layer_1">
	<g>
		<path d="M482.4,6h-103c-13.1,0-23.7,10.4-23.7,23.5S366.3,53,379.4,53h45.8L305.1,173.1c-9.3,9.3-9.3,24.2,0,33.5
			c4.6,4.6,10.7,6.9,16.8,6.9c6.1,0,11.8-2.3,16.4-6.9L458,86.5v46.7c0,13.1,10.9,23.7,24,23.7c13.1,0,24-10.6,24-23.7V29.3
			C506,16.2,495.5,6,482.4,6z"/>
		<path d="M173,305.2L53,425.3v-46.7c0-13.1-10.4-23.7-23.5-23.7C16.4,354.9,6,365.5,6,378.6v103.9C6,495.6,16.2,506,29.2,506h103
			c13.1,0,23.7-10.9,23.7-24c0-13.1-10.6-24-23.7-24H86.4l120.1-119.7c9.3-9.3,9.4-24,0.1-33.2C197.4,295.8,182.3,295.9,173,305.2z"
			/>
	</g>
</g>
<g id="Layer_2">
</g>
</svg>
