<?xml version="1.0" encoding="utf-8"?>
<!-- Generator: Adobe Illustrator 16.0.0, SVG Export Plug-In . SVG Version: 6.00 Build 0)  -->
<!DOCTYPE svg PUBLIC "-//W3C//DTD SVG 1.1//EN" "http://www.w3.org/Graphics/SVG/1.1/DTD/svg11.dtd">
<svg version="1.1" id="Layer_1" xmlns="http://www.w3.org/2000/svg" xmlns:xlink="http://www.w3.org/1999/xlink" x="0px" y="0px"
	 width="300px" height="300px" viewBox="0 0 300 300" style="enable-background:new 0 0 300 300;" xml:space="preserve">
<path d="M249.214,25.791C247.533,14.02,238.207,5,226.896,5H46.506C34.123,5,24.032,16.007,24.032,29.459v12.383
	c0,13.453,10.091,24.46,22.474,24.46h180.39c12.077,0,21.86-10.396,22.473-23.39h9.63v44.027H132.572v17.275h0.153l0.153,38.677
	c0,0-5.81,11.619-6.116,14.217c-0.305,2.446,3.363,12.536,3.363,12.536s-8.102,76.13-9.172,101.966
	c-0.306,6.573,6.115,19.568,11.771,22.013c3.974,1.835,13.146,1.835,16.97,0c5.655-2.445,13.605-15.44,12.84-22.013
	c-3.515-30.88-10.09-101.966-10.09-101.966s5.963-10.396,5.351-13.147c-0.458-2.599-8.254-14.828-8.254-14.828l0.153-37.454h109.303
	h8.562h8.408V42.913V27.625v-1.835H249.214z"/>
<g id="Restricted">
</g>
<g id="Help">
</g>
</svg>
