<?xml version="1.0" encoding="utf-8"?>
<!-- Generator: Adobe Illustrator 18.1.1, SVG Export Plug-In . SVG Version: 6.00 Build 0)  -->
<!DOCTYPE svg PUBLIC "-//W3C//DTD SVG 1.1//EN" "http://www.w3.org/Graphics/SVG/1.1/DTD/svg11.dtd">
<svg version="1.1" id="Layer_1" xmlns="http://www.w3.org/2000/svg" xmlns:xlink="http://www.w3.org/1999/xlink" x="0px" y="0px"
	 viewBox="0 0 512 512" enable-background="new 0 0 512 512" xml:space="preserve">
<path d="M471.6,284.6c-9.6-7.3-23.4-5.4-30.7,4.2l-9.8,13c-19.1-68.7-74.2-123.2-146.8-140.2c-51.9-12.2-105.5-3.4-150.8,24.7
	c-45.3,28.1-77,72.2-89.2,124.1c-2,8.6-3.5,17.4-4.3,26.1c-1.2,12,7.6,22.7,19.6,23.9c12,1.2,22.7-7.6,23.9-19.6
	c0.7-6.8,1.8-13.7,3.4-20.4c9.5-40.5,34.2-75,69.6-96.9c35.4-21.9,77.2-28.8,117.7-19.3c54.2,12.7,95.9,52.2,112.5,102.6l-11.7-8.9
	c-9.6-7.3-23.3-5.4-30.7,4.2c-7.3,9.6-5.4,23.4,4.2,30.7l54.8,41.6c3.8,2.9,8.5,4.4,13.2,4.4c1,0,2-0.1,3-0.2
	c5.8-0.8,11-3.8,14.5-8.5l41.6-54.9C483.1,305.6,481.2,291.9,471.6,284.6z"/>
</svg>
