<?xml version="1.0" encoding="utf-8"?>
<!-- Generator: Adobe Illustrator 16.0.0, SVG Export Plug-In . SVG Version: 6.00 Build 0)  -->
<!DOCTYPE svg PUBLIC "-//W3C//DTD SVG 1.1//EN" "http://www.w3.org/Graphics/SVG/1.1/DTD/svg11.dtd">
<svg version="1.1" id="Layer_1" xmlns="http://www.w3.org/2000/svg" xmlns:xlink="http://www.w3.org/1999/xlink" x="0px" y="0px"
	 width="300px" height="300px" viewBox="0 0 300 300" style="enable-background:new 0 0 300 300;" xml:space="preserve">
<path d="M203.385,235.386c-15.859,11.895-34.693,18.125-54.518,18.125c-50.268,0-91.191-40.781-91.191-91.05
	s40.924-91.05,91.191-91.05c10.904,0,21.666,1.982,31.719,5.664l-20.674,33.135l123.902,4.248L225.475,5l-22.656,36.392
	c-16.852-7.505-35.26-11.47-53.951-11.47c-73.209,0-132.682,59.473-132.682,132.539S75.658,295,148.867,295
	c28.744,0,56.217-9.062,79.297-26.338c9.205-6.797,11.045-19.824,4.248-29.028S212.588,228.589,203.385,235.386z"/>
<g id="Restricted">
</g>
<g id="Help">
</g>
</svg>
