<?xml version="1.0" encoding="utf-8"?>
<!-- Generator: Adobe Illustrator 16.0.0, SVG Export Plug-In . SVG Version: 6.00 Build 0)  -->
<!DOCTYPE svg PUBLIC "-//W3C//DTD SVG 1.1//EN" "http://www.w3.org/Graphics/SVG/1.1/DTD/svg11.dtd">
<svg version="1.1" id="Layer_1" xmlns="http://www.w3.org/2000/svg" xmlns:xlink="http://www.w3.org/1999/xlink" x="0px" y="0px"
	 width="300px" height="300px" viewBox="0 0 300 300" style="enable-background:new 0 0 300 300;" xml:space="preserve">
<path d="M96.615,235.386c16.002,11.895,34.836,18.125,54.66,18.125c50.268,0,91.049-40.781,91.049-91.05s-40.781-91.05-91.049-91.05
	c-10.904,0-21.666,1.982-31.719,5.664l20.672,33.135l-124.043,4.248L74.525,5l22.656,36.392c16.992-7.505,35.26-11.47,54.094-11.47
	c73.066,0,132.539,59.473,132.539,132.539S224.342,295,151.275,295c-28.887,0-56.359-9.062-79.439-26.338
	c-9.062-6.797-11.045-19.824-4.248-29.028C74.525,230.43,87.553,228.589,96.615,235.386z"/>
<g id="Restricted">
</g>
<g id="Help">
</g>
</svg>
