<?xml version="1.0" encoding="utf-8"?>
<!-- Generator: Adobe Illustrator 18.1.1, SVG Export Plug-In . SVG Version: 6.00 Build 0)  -->
<!DOCTYPE svg PUBLIC "-//W3C//DTD SVG 1.1//EN" "http://www.w3.org/Graphics/SVG/1.1/DTD/svg11.dtd">
<svg version="1.1" id="Layer_1" xmlns="http://www.w3.org/2000/svg" xmlns:xlink="http://www.w3.org/1999/xlink" x="0px" y="0px"
	 viewBox="0 0 512 512" enable-background="new 0 0 512 512" xml:space="preserve">
<path d="M483.6,150.6c-13.6-1.4-25.8,8.6-27.2,22.3c-0.8,7.7-2.1,15.5-3.9,23.2c-10.8,46-38.9,85.1-79.1,110
	c-40.2,24.9-87.6,32.7-133.7,21.9c-61.6-14.5-108.9-59.3-127.8-116.5l13.3,10.1c10.9,8.3,26.5,6.2,34.8-4.8
	c8.3-10.9,6.1-26.5-4.8-34.8l-62.3-47.2c-4.3-3.3-9.6-5-15-5c-1.1,0-2.3,0.1-3.4,0.2c-6.5,0.9-12.4,4.4-16.4,9.6L11,201.8
	c-8.3,10.9-6.1,26.5,4.8,34.8c10.9,8.3,26.5,6.2,34.8-4.8l11.2-14.7c21.7,78,84.2,139.9,166.6,159.2c59,13.8,119.8,3.9,171.2-28
	c51.5-31.9,87.4-81.9,101.3-140.9c2.3-9.8,3.9-19.7,4.9-29.6C507.2,164.1,497.3,151.9,483.6,150.6z"/>
</svg>
