<?xml version="1.0" encoding="utf-8"?>
<!-- Generator: Adobe Illustrator 18.1.1, SVG Export Plug-In . SVG Version: 6.00 Build 0)  -->
<!DOCTYPE svg PUBLIC "-//W3C//DTD SVG 1.1//EN" "http://www.w3.org/Graphics/SVG/1.1/DTD/svg11.dtd">
<svg version="1.1" id="Layer_1" xmlns="http://www.w3.org/2000/svg" xmlns:xlink="http://www.w3.org/1999/xlink" x="0px" y="0px"
	 viewBox="0 0 512 512" enable-background="new 0 0 512 512" xml:space="preserve">
<path d="M477,273.9c-10.1-7.6-24.4-5.7-32,4.4l-10.3,13.5c-20-71.8-77.5-128.7-153.3-146.5c-54.2-12.7-110.2-3.6-157.5,25.8
	c-47.3,29.4-80.4,75.4-93.2,129.6c-2.1,9-3.6,18.1-4.5,27.2c-1.2,12.6,7.9,23.8,20.5,25c12.6,1.3,23.8-7.9,25-20.5
	c0.7-7.1,1.9-14.3,3.5-21.3c9.9-42.3,35.8-78.3,72.8-101.2c37-22.9,80.6-30.1,123-20.1c56.7,13.3,100.2,54.5,117.5,107.2l-12.2-9.3
	c-10-7.6-24.4-5.7-32,4.4c-7.6,10.1-5.7,24.4,4.4,32l57.3,43.5c4,3,8.9,4.6,13.8,4.6c1,0,2.1-0.1,3.1-0.2c6-0.8,11.4-4,15.1-8.8
	l43.5-57.3C489,295.8,487,281.5,477,273.9z"/>
</svg>
