<svg class="icon icon-sad" height="16" viewBox="0 0 16 16" version="1.1" aria-hidden="true">
    <polygon points="1.84 3.64 1.84 3.65 1.85 3.64 1.84 3.64"/>
    <polygon points="1.84 3.66 1.84 3.66 1.84 3.65 1.84 3.66"/>
    <path
      d="M3.38,11.62a.54.54,0,0,0,.73-.23,4.34,4.34,0,0,1,7.73.08.54.54,0,0,0,1-.48,5.42,5.42,0,0,0-9.65-.09A.54.54,0,0,0,3.38,11.62Z"/>
    <circle cx="5.84" cy="5.81" r="1.07"/>
    <circle cx="10.14" cy="5.81" r="1.07"/>
    <path d="M8,16A8,8,0,0,1,2.34,2.34,8,8,0,1,1,13.66,13.66,8,8,0,0,1,8,16ZM8,1.08A6.92,6.92,0,1,0,14.92,8,6.92,6.92,0,0,0,8,1.08Z"/>
</svg>
