<?xml version="1.0" encoding="utf-8"?>
<!-- Generator: Adobe Illustrator 19.1.0, SVG Export Plug-In . SVG Version: 6.00 Build 0)  -->
<!DOCTYPE svg PUBLIC "-//W3C//DTD SVG 1.1//EN" "http://www.w3.org/Graphics/SVG/1.1/DTD/svg11.dtd">
<svg version="1.1" id="Layer_1" xmlns="http://www.w3.org/2000/svg" xmlns:xlink="http://www.w3.org/1999/xlink" x="0px" y="0px"
	 viewBox="0 0 512 512" enable-background="new 0 0 512 512" xml:space="preserve">
<polygon points="26,143.6 26,144 26.4,143.6 "/>
<polygon points="26,144 26,144.1 26,144 "/>
<g>
	<path fill-rule="evenodd" clip-rule="evenodd" d="M123.2,360c7.6,4,17,1.1,21-6.5c21.7-41.2,64-66.8,110.5-66.8
		c47.6,0,90.3,26.4,111.7,69c3.9,7.7,13.1,10.8,20.9,6.9c7.7-3.8,10.8-13.2,6.9-20.8c-26.6-53.1-80-86.1-139.4-86.1
		c-58.1,0-111,32-138,83.4C112.7,346.6,115.6,356,123.2,360z"/>
	<circle fill-rule="evenodd" clip-rule="evenodd" cx="193.8" cy="193.1" r="30.6"/>
	<circle fill-rule="evenodd" clip-rule="evenodd" cx="317.5" cy="193.1" r="30.6"/>
	<path d="M256,486c-61.4,0-119.2-23.9-162.6-67.4C49.9,375.2,26,317.4,26,256S49.9,136.8,93.4,93.4C136.8,49.9,194.6,26,256,26
		s119.2,23.9,162.6,67.4C462.1,136.8,486,194.6,486,256s-23.9,119.2-67.4,162.6C375.2,462.1,317.4,486,256,486z M256,57.2
		C146.4,57.2,57.2,146.4,57.2,256S146.4,454.8,256,454.8S454.8,365.6,454.8,256S365.6,57.2,256,57.2z"/>
</g>
</svg>
