<?xml version="1.0" encoding="utf-8"?>
<!-- Generator: Adobe Illustrator 18.1.1, SVG Export Plug-In . SVG Version: 6.00 Build 0)  -->
<!DOCTYPE svg PUBLIC "-//W3C//DTD SVG 1.1//EN" "http://www.w3.org/Graphics/SVG/1.1/DTD/svg11.dtd">
<svg version="1.1" id="Layer_1" xmlns="http://www.w3.org/2000/svg" xmlns:xlink="http://www.w3.org/1999/xlink" x="0px" y="0px"
	 viewBox="0 0 512 512" enable-background="new 0 0 512 512" xml:space="preserve">
<g>
	<path d="M416.2,295.7c-8.6-8.5-22.5-8.3-30.9,0.3L259.8,424L133,294.7c-8.5-8.6-22.3-8.8-30.9-0.3c-8.6,8.5-8.8,22.3-0.3,30.9
		l142.4,145.2c4.1,4.2,9.8,6.6,15.6,6.6c5.9,0,11.5-2.4,15.6-6.6l141.1-144C424.9,318,424.8,304.1,416.2,295.7z"/>
	<path d="M130.8,224.1L258.3,94.3l124.5,130.9c4.3,4.5,10.1,6.8,15.9,6.8c5.4,0,10.8-2,15.1-6c8.8-8.3,9.1-22.2,0.8-30.9L274.4,47.7
		c-4.1-4.3-9.8-6.8-15.7-6.8c-5.8,0.6-11.6,2.3-15.8,6.6l-143.3,146c-8.5,8.6-8.3,22.5,0.3,30.9
		C108.5,232.9,122.3,232.7,130.8,224.1z"/>
</g>
</svg>
