<?xml version="1.0" encoding="utf-8"?>
<!-- Generator: Adobe Illustrator 19.1.0, SVG Export Plug-In . SVG Version: 6.00 Build 0)  -->
<!DOCTYPE svg PUBLIC "-//W3C//DTD SVG 1.1//EN" "http://www.w3.org/Graphics/SVG/1.1/DTD/svg11.dtd">
<svg version="1.1" xmlns="http://www.w3.org/2000/svg" xmlns:xlink="http://www.w3.org/1999/xlink" x="0px" y="0px"
	 viewBox="0 0 512 512" enable-background="new 0 0 512 512" xml:space="preserve">
<g id="Layer_1">
	<path d="M33.5,467.5c-4.8-4.8-7.5-11.3-7.5-18.2v-136c0-8.5,4.2-16.5,11.3-21.3l123.5-37.6L37.9,219.3
		c-7.4-4.7-11.9-12.9-11.9-21.6l0-135c0-8.8,4.5-16.9,11.9-21.7c7.4-4.7,16.7-5.3,24.7-1.6l408.6,191.3c8.9,4.2,14.7,13.2,14.8,23.1
		c0,9.9-5.6,19-14.6,23.3L62.7,472.5c-8,3.8-17.3,3.3-24.8-1.4C36.3,470.1,34.9,468.9,33.5,467.5z"/>
</g>
<g id="Layer_2">
</g>
</svg>
