<?xml version="1.0" encoding="utf-8"?>
<!-- Generator: Adobe Illustrator 18.1.1, SVG Export Plug-In . SVG Version: 6.00 Build 0)  -->
<!DOCTYPE svg PUBLIC "-//W3C//DTD SVG 1.1//EN" "http://www.w3.org/Graphics/SVG/1.1/DTD/svg11.dtd">
<svg version="1.1" xmlns="http://www.w3.org/2000/svg" xmlns:xlink="http://www.w3.org/1999/xlink" x="0px" y="0px"
	 viewBox="0 0 512 512" enable-background="new 0 0 512 512" xml:space="preserve">
<g id="Layer_1">
	<path d="M301.8,466.3c-5.9,0-11.6-2.3-15.8-6.6l-84-84c-5.3-5.3-7.6-12.8-6.1-20.2l11.3-57.7l-55.9,12.4c-7.5,1.7-15.3-0.6-20.7-6
		l-83.4-83.4c-5.4-5.4-7.7-13.2-6-20.7c1.7-7.5,7-13.6,14.2-16.2L425.8,49.8c8.1-2.9,17.3-0.9,23.4,5.2c6.1,6.1,8.2,15.2,5.3,23.4
		l-131.6,373c-2.6,7.3-8.7,12.7-16.2,14.4C305.1,466.1,303.5,466.3,301.8,466.3z"/>
</g>
<g id="Layer_2">
</g>
</svg>
