<?xml version="1.0" encoding="utf-8"?>
<!-- Generator: Adobe Illustrator 18.1.1, SVG Export Plug-In . SVG Version: 6.00 Build 0)  -->
<!DOCTYPE svg PUBLIC "-//W3C//DTD SVG 1.1//EN" "http://www.w3.org/Graphics/SVG/1.1/DTD/svg11.dtd">
<svg version="1.1" xmlns="http://www.w3.org/2000/svg" xmlns:xlink="http://www.w3.org/1999/xlink" x="0px" y="0px"
	 viewBox="0 0 512 512" enable-background="new 0 0 512 512" xml:space="preserve">
<g id="Layer_1">
	<path d="M320.1,506c-7,0-13.9-2.8-19-7.9L200.7,397.7c-6.3-6.3-9.1-15.4-7.4-24.1l13.5-69l-66.9,14.8c-8.9,2-18.3-0.7-24.8-7.2
		l-99.8-99.8c-6.5-6.5-9.2-15.8-7.2-24.8c2-8.9,8.4-16.3,17-19.4L468.5,7.6c9.7-3.5,20.7-1.1,28,6.2c7.4,7.3,9.8,18.2,6.4,28
		L345.4,488.1c-3.1,8.7-10.4,15.2-19.3,17.2C324.1,505.8,322.1,506,320.1,506z"/>
</g>
<g id="Layer_2">
</g>
</svg>
