<?xml version="1.0" encoding="utf-8"?>
<!-- Generator: Adobe Illustrator 19.1.0, SVG Export Plug-In . SVG Version: 6.00 Build 0)  -->
<!DOCTYPE svg PUBLIC "-//W3C//DTD SVG 1.1//EN" "http://www.w3.org/Graphics/SVG/1.1/DTD/svg11.dtd">
<svg version="1.1" id="Layer_1" xmlns="http://www.w3.org/2000/svg" xmlns:xlink="http://www.w3.org/1999/xlink" x="0px" y="0px"
	 viewBox="0 0 512 512" enable-background="new 0 0 512 512" xml:space="preserve">
<g>
	<path d="M402.8,54.9c-7.3-7.3-19.2-7.3-26.6,0c-7.3,7.3-7.3,19.2,0,26.6c96.2,96.2,96.3,252.8,0,349.1c-7.3,7.3-7.3,19.2,0,26.6
		c7.3,7.3,19.2,7.3,26.6,0C513.7,346.2,513.7,165.8,402.8,54.9z"/>
	<path d="M296.4,216c-22.1-22.1-58-22.1-80.1,0c-22.1,22.1-22.1,58,0,80.1c15.6,15.6,38,20.2,57.6,13.8c8.2-2.7,15.9-7.3,22.5-13.8
		C318.5,273.9,318.5,238.1,296.4,216z"/>
	<path d="M109.2,457.1c7.3,7.3,19.2,7.3,26.6,0c7.3-7.3,7.3-19.2,0-26.6c-96.2-96.2-96.3-252.8,0-349.1c7.3-7.3,7.3-19.2,0-26.6
		c-7.3-7.3-19.2-7.3-26.6,0C-1.7,165.8-1.7,346.2,109.2,457.1z"/>
	<g>
		<path d="M340.4,130c-7.3-7.3-19.2-7.3-26.6,0c-7.3,7.3-7.3,19.2,0,26.6c59.2,59.2,58.7,139-1,198.8c-7.3,7.3-7.3,19.2,0,26.6
			c7.3,7.3,19.2,7.3,26.6,0C413.8,307.5,414.2,203.9,340.4,130z"/>
		<path d="M171.6,382c7.3,7.3,19.2,7.3,26.6,0s7.3-19.2,0-26.6c-59.2-59.2-58.7-139,1-198.8c7.3-7.3,7.3-19.2,0-26.6
			c-7.3-7.3-19.2-7.3-26.6,0C98.2,204.5,97.8,308.1,171.6,382z"/>
	</g>
</g>
</svg>
