<svg class="icon icon-sensor" height="16" viewBox="0 0 16 16" version="1.1" aria-hidden="true">
    <path d="M13.11,1a.65.65,0,1,0-.92.92,8.6,8.6,0,0,1,0,12.14.65.65,0,1,0,.92.92A9.9,9.9,0,0,0,13.11,1Z"/>
    <path d="M9.4,6.61a2,2,0,1,0,0,2.79A2,2,0,0,0,9.4,6.61Z"/>
    <path d="M2.89,15a.65.65,0,1,0,.92-.92,8.6,8.6,0,0,1,0-12.14A.65.65,0,1,0,2.89,1,9.9,9.9,0,0,0,2.89,15Z"/>
    <path d="M10.93,3.62a.65.65,0,0,0-.92.92,4.63,4.63,0,0,1,0,6.92.65.65,0,0,0,.92.92A5.93,5.93,0,0,0,10.93,3.62Z"/>
    <path d="M5.07,12.38A.65.65,0,0,0,6,11.46,4.63,4.63,0,0,1,6,4.54a.65.65,0,0,0-.92-.92A5.93,5.93,0,0,0,5.07,12.38Z"/>
</svg>
