<?xml version="1.0" encoding="utf-8"?>
<!-- Generator: Adobe Illustrator 18.1.1, SVG Export Plug-In . SVG Version: 6.00 Build 0)  -->
<!DOCTYPE svg PUBLIC "-//W3C//DTD SVG 1.1//EN" "http://www.w3.org/Graphics/SVG/1.1/DTD/svg11.dtd">
<svg version="1.1" id="Layer_1" xmlns="http://www.w3.org/2000/svg" xmlns:xlink="http://www.w3.org/1999/xlink" x="0px" y="0px"
	 viewBox="0 0 512 512" enable-background="new 0 0 512 512" xml:space="preserve">
<path fill-rule="evenodd" clip-rule="evenodd" d="M439.9,204.6c-4.2-15.3-10.3-29.8-18-43.2c8.8-11.8,38.9-55.8,17.2-77.5
	l-11.1-11.8c-18.6-18.6-66,10.4-77.5,17.9c-13.6-7.7-28.3-13.7-43.7-17.9C304.2,57.4,293.4,6,262.8,6h-12.2
	c-26.2,0-41.3,53.2-44.7,66.5c-15.2,4.3-29.7,10.4-43.1,18.1c-10.6-7.9-56.1-39.3-78.2-17.1l-11.8,9.9
	c-19.3,19.3,12.8,70.3,18.7,79.2C84,175.8,77.9,190,73.7,205C60.9,207,6,217.6,6,249.1v12.2c0,27.3,57.6,42.4,68.1,45
	c4.2,14.9,10.3,29,17.7,42.1c-6.2,9.7-37,60.4-17.8,79.6l11.2,9.3C110.3,462.4,163,421,163,421s26.6,12.5,42.6,17
	c2.6,10.8,17.8,68,44.9,68h12.2c35.7,0,44.5-66.8,44.5-66.8L304,439c16.2-4.1,31.5-10.4,45.7-18.4c11.1,7.4,57.8,36.6,76.4,18
	l12.4-12.4c24.9-24.9-15.6-75.7-16.7-77.1c7.7-13.4,13.8-27.9,18-43.1c13.9-3.5,66.2-18.5,66.2-44.6v-12.2
	C506,214.5,443.8,205.2,439.9,204.6z M256.3,302.5c-25.9,0-46.8-21-46.8-46.8c0-25.9,21-46.8,46.8-46.8c25.9,0,46.9,21,46.9,46.8
	C303.2,281.5,282.2,302.5,256.3,302.5z"/>
</svg>
