<?xml version="1.0" encoding="utf-8"?>
<!-- Generator: Adobe Illustrator 18.1.1, SVG Export Plug-In . SVG Version: 6.00 Build 0)  -->
<!DOCTYPE svg PUBLIC "-//W3C//DTD SVG 1.1//EN" "http://www.w3.org/Graphics/SVG/1.1/DTD/svg11.dtd">
<svg version="1.1" id="Layer_1" xmlns="http://www.w3.org/2000/svg" xmlns:xlink="http://www.w3.org/1999/xlink" x="0px" y="0px"
	 viewBox="0 0 512 512" enable-background="new 0 0 512 512" xml:space="preserve">
<path fill-rule="evenodd" clip-rule="evenodd" d="M425.2,208.7c-3.9-14.1-9.5-27.4-16.6-39.8c8.1-10.8,35.8-51.3,15.8-71.3
	l-10.2-10.8c-17.1-17.1-60.7,9.6-71.3,16.5c-12.5-7.1-26-12.6-40.2-16.5C300.4,73.3,290.4,26,262.3,26H251
	c-24.1,0-38,48.9-41.1,61.2c-14,3.9-27.3,9.5-39.7,16.6c-9.8-7.2-51.6-36.2-72-15.8l-10.8,9.1c-17.8,17.8,11.8,64.7,17.2,72.9
	c-6.8,12.2-12.5,25.3-16.3,39C76.5,210.9,26,220.7,26,249.6v11.3c0,25.1,53,39,62.6,41.4c3.8,13.7,9.4,26.6,16.3,38.7
	c-5.7,8.9-34,55.6-16.4,73.2l10.3,8.5c23.2,23.2,71.7-14.9,71.7-14.9s24.5,11.5,39.2,15.6c2.4,9.9,16.3,62.6,41.4,62.6h11.3
	c32.8,0,40.9-61.5,40.9-61.5l-3-0.2c14.9-3.8,29-9.6,42-16.9c10.2,6.8,53.2,33.7,70.3,16.5l11.4-11.4c22.9-22.9-14.3-69.7-15.4-71
	c7.1-12.4,12.7-25.7,16.6-39.7c12.8-3.2,60.9-17.1,60.9-41v-11.3C486,217.8,428.8,209.2,425.2,208.7z M256.3,298.8
	c-23.8,0-43.1-19.3-43.1-43.1c0-23.8,19.3-43.1,43.1-43.1c23.8,0,43.1,19.3,43.1,43.1C299.4,279.5,280.1,298.8,256.3,298.8z"/>
</svg>
