<?xml version="1.0" encoding="utf-8"?>
<!-- Generator: Adobe Illustrator 18.1.1, SVG Export Plug-In . SVG Version: 6.00 Build 0)  -->
<!DOCTYPE svg PUBLIC "-//W3C//DTD SVG 1.1//EN" "http://www.w3.org/Graphics/SVG/1.1/DTD/svg11.dtd">
<svg version="1.1" id="Layer_1" xmlns="http://www.w3.org/2000/svg" xmlns:xlink="http://www.w3.org/1999/xlink" x="0px" y="0px"
	 viewBox="0 0 512 512" enable-background="new 0 0 512 512" xml:space="preserve">
<path fill-rule="evenodd" clip-rule="evenodd" d="M417,215.4c-3.7-13.4-9.1-26.1-15.8-38c7.7-10.3,34.2-49,15.1-68l-9.8-10.3
	c-16.3-16.3-58,9.2-68.1,15.8c-12-6.8-24.8-12.1-38.4-15.7C297.8,86.1,288.3,41,261.5,41h-10.7c-23,0-36.3,46.7-39.2,58.4
	c-13.4,3.7-26.1,9.1-37.9,15.9c-9.3-6.9-49.2-34.5-68.7-15.1l-10.3,8.7c-17,17,11.2,61.7,16.4,69.6c-6.5,11.6-11.9,24.1-15.5,37.3
	C84.2,217.5,36,226.8,36,254.4v10.7c0,23.9,50.6,37.2,59.8,39.5c3.7,13.1,9,25.4,15.5,37c-5.4,8.5-32.5,53.1-15.7,69.9l9.8,8.1
	c22.1,22.1,68.4-14.2,68.4-14.2s23.4,10.9,37.4,14.9c2.3,9.4,15.6,59.7,39.5,59.7h10.7c31.3,0,39.1-58.6,39.1-58.6l-2.9-0.2
	c14.2-3.6,27.6-9.1,40.1-16.1c9.8,6.5,50.7,32.1,67.1,15.8l10.9-10.9c21.8-21.8-13.7-66.5-14.7-67.7c6.8-11.8,12.1-24.5,15.8-37.9
	c12.2-3.1,58.1-16.3,58.1-39.1v-10.7C475,224.1,420.4,215.9,417,215.4z M255.8,301.3c-22.7,0-41.1-18.4-41.1-41.1
	c0-22.7,18.4-41.1,41.1-41.1c22.7,0,41.1,18.4,41.1,41.1C296.9,282.9,278.5,301.3,255.8,301.3z"/>
</svg>
