<svg class="icon icon-settings" height="16" viewBox="0 0 16 16" version="1.1" aria-hidden="true">
    <path
      d="M13.89,6.36A6,6,0,0,0,13.31,5c.28-.38,1.25-1.78.55-2.48l-.36-.38c-.59-.59-2.11.33-2.48.57a6,6,0,0,0-1.4-.57C9.54,1.65,9.2,0,8.22,0H7.83C7,0,6.5,1.7,6.4,2.13A6,6,0,0,0,5,2.71c-.34-.25-1.79-1.26-2.5-.55l-.38.32c-.62.62.41,2.25.6,2.54a6.05,6.05,0,0,0-.57,1.36C1.76,6.43,0,6.77,0,7.78v.39C0,9,1.84,9.53,2.18,9.61A6,6,0,0,0,2.74,11c-.2.31-1.18,1.93-.57,2.55l.36.3c.81.81,2.49-.52,2.49-.52a12,12,0,0,0,1.36.54C6.47,14.17,7,16,7.83,16h.39c1.14,0,1.42-2.14,1.42-2.14h-.1A6.05,6.05,0,0,0,11,13.27c.36.24,1.85,1.17,2.45.57l.4-.4c.8-.8-.5-2.42-.54-2.47a6,6,0,0,0,.58-1.38C14.33,9.48,16,9,16,8.17V7.78C16,6.67,14,6.37,13.89,6.36ZM8,9.49A1.5,1.5,0,1,1,9.51,8,1.5,1.5,0,0,1,8,9.49Z"/>
</svg>
