<?xml version="1.0" encoding="utf-8"?>
<!-- Generator: Adobe Illustrator 18.1.1, SVG Export Plug-In . SVG Version: 6.00 Build 0)  -->
<!DOCTYPE svg PUBLIC "-//W3C//DTD SVG 1.1//EN" "http://www.w3.org/Graphics/SVG/1.1/DTD/svg11.dtd">
<svg version="1.1" id="Layer_1" xmlns="http://www.w3.org/2000/svg" xmlns:xlink="http://www.w3.org/1999/xlink" x="0px" y="0px"
	 viewBox="0 0 512 512" enable-background="new 0 0 512 512" xml:space="preserve">
<path d="M449.7,207.2c-20.7-19-59.4-55.9-108.9-55.9s-68.6,25.9-76.7,33.1c0,0-3.8,4.3-6.1,4.3c-2.3,0-6.2-4.3-6.2-4.3
	c-8.1-7.2-27.2-33.1-76.7-33.1s-88.1,36.9-108.9,55.9c-15.2,13.9-35.6,22.6-45.5,26.3c-3,1.1-4.1,4.7-2.4,7.3
	C119.3,393,258,390.8,258,390.8s138.7,2.3,239.6-149.9c1.7-2.6,0.6-6.2-2.4-7.3C485.3,229.9,464.9,221.1,449.7,207.2z"/>
</svg>
