<?xml version="1.0" encoding="utf-8"?>
<!-- Generator: Adobe Illustrator 18.1.1, SVG Export Plug-In . SVG Version: 6.00 Build 0)  -->
<!DOCTYPE svg PUBLIC "-//W3C//DTD SVG 1.1//EN" "http://www.w3.org/Graphics/SVG/1.1/DTD/svg11.dtd">
<svg version="1.1" xmlns="http://www.w3.org/2000/svg" xmlns:xlink="http://www.w3.org/1999/xlink" x="0px" y="0px"
	 viewBox="0 0 512 512" enable-background="new 0 0 512 512" xml:space="preserve">
<g id="Layer_1">
	<path d="M400.8,315.6c-21.9,0-41.9,8.3-57,21.9l-148.9-74.3c1-5.1,1.5-10.4,1.5-15.8c0-4.9-0.4-9.6-1.2-14.3l139.2-68.6
		c15.6,19.4,39.6,31.9,66.4,31.9c47,0,85.2-38.2,85.2-85.2c0-47-38.2-85.2-85.2-85.2s-85.2,38.2-85.2,85.2c0,1.9,0.1,3.7,0.2,5.6
		l-143.9,70.9c-15.5-15.7-36.9-25.4-60.7-25.4c-47,0-85.2,38.2-85.2,85.2s38.2,85.2,85.2,85.2c23.2,0,44.2-9.3,59.6-24.4l147,73.3
		c-1.4,6.2-2.2,12.5-2.2,19.1c0,47,38.2,85.2,85.2,85.2s85.2-38.2,85.2-85.2C486,353.8,447.8,315.6,400.8,315.6z"/>
</g>
<g id="Layer_2">
</g>
</svg>
