<?xml version="1.0" encoding="utf-8"?>
<!-- Generator: Adobe Illustrator 18.1.1, SVG Export Plug-In . SVG Version: 6.00 Build 0)  -->
<!DOCTYPE svg PUBLIC "-//W3C//DTD SVG 1.1//EN" "http://www.w3.org/Graphics/SVG/1.1/DTD/svg11.dtd">
<svg version="1.1" xmlns="http://www.w3.org/2000/svg" xmlns:xlink="http://www.w3.org/1999/xlink" x="0px" y="0px"
	 viewBox="0 0 512 512" enable-background="new 0 0 512 512" xml:space="preserve">
<g id="Layer_1">
	<path d="M413.4,320.8c-23.8,0-45.5,9-62,23.8l-161.8-80.7c1-5.6,1.6-11.3,1.6-17.1c0-5.3-0.5-10.5-1.3-15.5l151.3-74.6
		c17,21.1,43,34.6,72.1,34.6c51.1,0,92.6-41.5,92.6-92.6C506,47.5,464.5,6,413.4,6s-92.6,41.5-92.6,92.6c0,2,0.1,4,0.2,6
		l-156.4,77.1c-16.8-17.1-40.1-27.6-65.9-27.6C47.5,154.1,6,195.7,6,246.7s41.5,92.6,92.6,92.6c25.2,0,48-10.1,64.7-26.5l159.8,79.7
		c-1.5,6.7-2.4,13.6-2.4,20.8c0,51.1,41.5,92.6,92.6,92.6s92.6-41.5,92.6-92.6C506,362.3,464.5,320.8,413.4,320.8z"/>
</g>
<g id="Layer_2">
</g>
</svg>
