<?xml version="1.0" encoding="utf-8"?>
<!-- Generator: Adobe Illustrator 18.1.1, SVG Export Plug-In . SVG Version: 6.00 Build 0)  -->
<!DOCTYPE svg PUBLIC "-//W3C//DTD SVG 1.1//EN" "http://www.w3.org/Graphics/SVG/1.1/DTD/svg11.dtd">
<svg version="1.1" xmlns="http://www.w3.org/2000/svg" xmlns:xlink="http://www.w3.org/1999/xlink" x="0px" y="0px"
	 viewBox="0 0 512 512" enable-background="new 0 0 512 512" xml:space="preserve">
<g id="Layer_1">
	<path d="M374.5,323.6c-19.2,0-36.8,7.3-50,19.2l-130.6-65.2c0.8-4.5,1.3-9.1,1.3-13.8c0-4.3-0.4-8.5-1.1-12.5l122.1-60.2
		c13.7,17,34.7,28,58.2,28c41.2,0,74.7-33.5,74.7-74.7c0-41.2-33.5-74.7-74.7-74.7s-74.7,33.5-74.7,74.7c0,1.6,0.1,3.3,0.2,4.9
		l-126.3,62.2c-13.6-13.8-32.4-22.3-53.2-22.3c-41.2,0-74.7,33.5-74.7,74.7s33.5,74.7,74.7,74.7c20.3,0,38.8-8.2,52.3-21.4l129,64.3
		c-1.2,5.4-1.9,11-1.9,16.8c0,41.2,33.5,74.7,74.7,74.7s74.7-33.5,74.7-74.7C449.2,357.1,415.7,323.6,374.5,323.6z"/>
</g>
<g id="Layer_2">
</g>
</svg>
