<svg class="icon icon-share-2" height="16" viewBox="0 0 16 16" version="1.1" aria-hidden="true">
    <path
      d="M0,4.35,0,4.3a1.28,1.28,0,0,1,1.3-1H6.5l-.14.11L4.47,4.67a.49.49,0,0,1-.26.08H1.48v7.67H14.22s0-.1,0-.16c0-.69,0-1.39,0-2.08a.24.24,0,0,1,.05-.16l1.43-1.2a1,1,0,0,1,0,.12q0,1.84,0,3.67a1.23,1.23,0,0,1-1.3,1.29c-.31,0-.62,0-.94,0H1.42A1.3,1.3,0,0,1,0,12.84l0,0Z"/>
    <path
      d="M16,5.85l-5,4,0,0q0-.1,0-.21c0-.6,0-1.21,0-1.81,0-.13,0-.17-.16-.2a5,5,0,0,0-2.27,0A10.37,10.37,0,0,0,5,9.25c-.34.23-.66.48-1,.72a.26.26,0,0,1-.14.06c0-.13,0-.27.07-.4A6.94,6.94,0,0,1,5.12,7.27,7.84,7.84,0,0,1,8.33,4.65,6.79,6.79,0,0,1,10.8,4.1h.14l0,0v-2l.46.27a25.85,25.85,0,0,1,2.68,2c.62.5,1.27,1,1.9,1.45Z"/>
</svg>
