<?xml version="1.0" encoding="utf-8"?>
<!-- Generator: Adobe Illustrator 18.1.1, SVG Export Plug-In . SVG Version: 6.00 Build 0)  -->
<!DOCTYPE svg PUBLIC "-//W3C//DTD SVG 1.1//EN" "http://www.w3.org/Graphics/SVG/1.1/DTD/svg11.dtd">
<svg version="1.1" xmlns="http://www.w3.org/2000/svg" xmlns:xlink="http://www.w3.org/1999/xlink" x="0px" y="0px"
	 viewBox="0 0 512 512" enable-background="new 0 0 512 512" xml:space="preserve">
<g id="Layer_1">
	<g>
		<path d="M321.4,217h97.4c12.4,0,22.4-10.1,22.4-22.5s-10-22.5-22.4-22.5h-43.3L489.1,58.2c8.8-8.7,8.8-23.1,0-31.9
			s-22.9-8.8-31.6,0L344,140V95.8c0-12.4-10.1-22.4-22.5-22.4S299,83.4,299,95.8v98.3C299,206.5,309,217,321.4,217z"/>
		<path d="M196.5,74.3c-12.4,0-22.5,10-22.5,22.4V140L60.4,26.4c-8.8-8.8-22.9-8.8-31.7,0c-8.8,8.8-8.8,23.1,0,31.9L142.3,172H98.2
			c-12.4,0-22.4,10.1-22.4,22.5s10,22.5,22.4,22.5h98.3c12.4,0,22.5-10.5,22.5-22.9V96.7C219,84.3,208.9,74.3,196.5,74.3z"/>
		<path d="M489.1,454.8L375.5,341h44.2c12.4,0,22.4-9.6,22.4-22s-10-22-22.4-22h-98.3c-12.4,0-22.4,9.7-22.4,22.1v97.4
			c0,12.4,10.1,22.4,22.5,22.4c12.4,0,22.5-10,22.5-22.4v-43.3l113.5,113.6c4.4,4.4,10.1,6.6,15.8,6.6s11.4-2.3,15.8-6.7
			C497.9,477.9,497.9,463.6,489.1,454.8z"/>
		<path d="M196.4,297H99c-12.4,0-22.4,9.6-22.4,22s10,22,22.4,22h43.3L28.7,454.8c-8.8,8.7-8.8,23.1,0,31.8
			c4.4,4.4,10.1,6.6,15.8,6.6s11.5-2.2,15.8-6.5L174,373.2v44.2c0,12.4,10.1,22.4,22.5,22.4c12.4,0,22.5-10,22.5-22.4v-98.3
			C219,306.7,208.8,297,196.4,297z"/>
	</g>
</g>
<g id="Layer_2">
</g>
</svg>
