<?xml version="1.0" encoding="utf-8"?>
<!-- Generator: Adobe Illustrator 18.1.1, SVG Export Plug-In . SVG Version: 6.00 Build 0)  -->
<!DOCTYPE svg PUBLIC "-//W3C//DTD SVG 1.1//EN" "http://www.w3.org/Graphics/SVG/1.1/DTD/svg11.dtd">
<svg version="1.1" id="Layer_1" xmlns="http://www.w3.org/2000/svg" xmlns:xlink="http://www.w3.org/1999/xlink" x="0px" y="0px"
	 viewBox="0 0 512 512" enable-background="new 0 0 512 512" xml:space="preserve">
<g>
	<path d="M362.7,172H463c12.7,0,23-10.8,23-23.5c0-12.7-10.3-23.5-23-23.5h-76V49c0-12.7-10.8-23-23.5-23C350.8,26,340,36.3,340,49
		v99.9C340,161.5,350,172,362.7,172z"/>
	<path d="M148.1,340H49c-12.7,0-23,10.8-23,23.5S36.3,387,49,387h76v76c0,12.7,9.8,23,22.5,23c12.7,0,22.5-10.3,22.5-23v-99.1
		C170,351.2,160.8,340,148.1,340z"/>
	<path d="M463,340h-99.9c-12.7,0-23.2,11.2-23.2,23.9V463c0,12.7,10.8,23,23.5,23c12.7,0,23.5-10.3,23.5-23v-76h76
		c12.7,0,23-10.8,23-23.5S475.7,340,463,340z"/>
	<path d="M49,170h99c12.7,0,22-9.7,22-22.4V49c0-12.7-10.3-23-23-23s-23,10.3-23,23v75H49c-12.7,0-23,10.3-23,23S36.3,170,49,170z"
		/>
</g>
</svg>
