<?xml version="1.0" encoding="utf-8"?>
<!-- Generator: Adobe Illustrator 18.1.1, SVG Export Plug-In . SVG Version: 6.00 Build 0)  -->
<!DOCTYPE svg PUBLIC "-//W3C//DTD SVG 1.1//EN" "http://www.w3.org/Graphics/SVG/1.1/DTD/svg11.dtd">
<svg version="1.1" id="Layer_1" xmlns="http://www.w3.org/2000/svg" xmlns:xlink="http://www.w3.org/1999/xlink" x="0px" y="0px"
	 viewBox="0 0 512 512" enable-background="new 0 0 512 512" xml:space="preserve">
<g>
	<path d="M451.7,37h-95.5c-12.1,0-21.9,9.4-21.9,21.5S344.2,80,356.3,80H430v73.6c0,12.1,9.9,21.9,22,21.9s22-9.8,22-21.9v-95
		C474,46.5,463.8,37,451.7,37z"/>
	<path d="M152,431H80v-72.7c0-12.1-9.9-21.9-22-21.9c-12.1,0-22,9.8-22,21.9v94.4c0,12.1,9.6,22.3,21.7,22.3H152
		c12.1,0,21.9-9.9,21.9-22C173.9,440.9,164.1,431,152,431z"/>
	<path d="M452,336.4c-12.1,0-22,9.8-22,21.9V431h-73.3c-12.1,0-21.9,9.9-21.9,22c0,12.1,9.8,22,21.9,22h95
		c12.1,0,22.3-10.3,22.3-22.3v-94.4C474,346.2,464.1,336.4,452,336.4z"/>
	<path d="M58,174.3c12.1,0,22-9.8,22-21.9V80h71.9c12.1,0,21.9-9.4,21.9-21.5S164,37,151.9,37H57.7C45.6,37,36,46.5,36,58.6v93.8
		C36,164.5,45.9,174.3,58,174.3z"/>
</g>
</svg>
