<svg class="icon icon-size-maximize" height="16" viewBox="0 0 16 16" version="1.1" aria-hidden="true">
    <path d="M6.42,5.36,2.58,1.53H4.07A.77.77,0,0,0,4.07,0H.74A.74.74,0,0,0,0,.75V4A.75.75,0,1,0,1.5,4V2.58L5.34,6.42A.76.76,0,1,0,6.42,5.36Z"/>
    <path
      d="M15.24,0h-3.3a.77.77,0,0,0,0,1.53h1.47L9.57,5.36a.75.75,0,0,0,.54,1.29.74.74,0,0,0,.53-.22l3.83-3.84V4.08a.77.77,0,0,0,1.53,0V.75A.75.75,0,0,0,15.24,0Z"/>
    <path
      d="M15.23,11.2a.76.76,0,0,0-.77.76v1.47L10.64,9.58a.75.75,0,0,0-1.07,0,.74.74,0,0,0,0,1.06l3.84,3.83H11.92a.77.77,0,0,0,0,1.53h3.33a.75.75,0,0,0,.76-.75V12A.76.76,0,0,0,15.23,11.2Z"/>
    <path
      d="M6.42,9.58a.76.76,0,0,0-1.08,0L1.5,13.42V11.93a.75.75,0,1,0-1.5,0v3.33A.74.74,0,0,0,.74,16H4a.75.75,0,1,0,0-1.5H2.57l3.84-3.85A.76.76,0,0,0,6.42,9.58Z"/>
</svg>
