<svg class="icon icon-size-decrease" height="16" viewBox="0 0 16 16" version="1.1" aria-hidden="true">
    <path d="M11.71,5.08H15.2a.82.82,0,0,0,0-1.63H12.56V.8a.82.82,0,0,0-1.63,0V4.27A.8.8,0,0,0,11.71,5.08Z"/>
    <path d="M4.25,10.92H.8a.82.82,0,0,0,0,1.63H3.44V15.2A.78.78,0,1,0,5,15.2V11.75A.79.79,0,0,0,4.25,10.92Z"/>
    <path d="M15.2,10.92H11.73a.83.83,0,0,0-.81.83V15.2a.82.82,0,0,0,1.63,0V12.56H15.2a.82.82,0,0,0,0-1.63Z"/>
    <path d="M.8,5H4.24A.76.76,0,0,0,5,4.23V.8a.8.8,0,0,0-1.6,0V3.41H.8A.8.8,0,0,0,.8,5Z"/>
</svg>
