<?xml version="1.0" encoding="utf-8"?>
<!-- Generator: Adobe Illustrator 18.1.1, SVG Export Plug-In . SVG Version: 6.00 Build 0)  -->
<!DOCTYPE svg PUBLIC "-//W3C//DTD SVG 1.1//EN" "http://www.w3.org/Graphics/SVG/1.1/DTD/svg11.dtd">
<svg version="1.1" id="Layer_1" xmlns="http://www.w3.org/2000/svg" xmlns:xlink="http://www.w3.org/1999/xlink" x="0px" y="0px"
	 viewBox="0 0 512 512" enable-background="new 0 0 512 512" xml:space="preserve">
<g>
	<path d="M372,165H481c13.8,0,25-11.7,25-25.5c0-13.8-11.2-25.5-25-25.5h-83V31c0-13.8-11.7-25-25.5-25C358.7,6,347,17.2,347,31
		v108.5C347,153.3,358.2,165,372,165z"/>
	<path d="M138.7,347H31c-13.8,0-25,11.7-25,25.5S17.2,398,31,398h83v83c0,13.8,10.7,25,24.5,25c13.8,0,24.5-11.2,24.5-25V373.3
		C163,359.5,152.5,347,138.7,347z"/>
	<path d="M481,347H372.5c-13.8,0-25.5,12.5-25.5,26.3V481c0,13.8,11.7,25,25.5,25c13.8,0,25.5-11.2,25.5-25v-83h83
		c13.8,0,25-11.7,25-25.5S494.8,347,481,347z"/>
	<path d="M31,162h107.6c13.8,0,24.4-10.1,24.4-23.9V31c0-13.8-11.2-25-25-25s-25,11.2-25,25v82H31c-13.8,0-25,10.7-25,24.5
		S17.2,162,31,162z"/>
</g>
</svg>
