<svg class="icon icon-size-increase" height="16" viewBox="0 0 16 16" version="1.1" aria-hidden="true">
    <path d="M15.19,0H11.7a.78.78,0,1,0,0,1.57h2.7v2.7a.8.8,0,0,0,1.6,0V.79A.8.8,0,0,0,15.19,0Z"/>
    <path d="M4.24,14.4H1.6V11.74a.8.8,0,0,0-1.6,0v3.45A.81.81,0,0,0,.79,16H4.24a.8.8,0,0,0,0-1.6Z"/>
    <path d="M15.2,10.94a.8.8,0,0,0-.8.8V14.4H11.72a.8.8,0,0,0,0,1.6h3.47a.83.83,0,0,0,.81-.82V11.74A.8.8,0,0,0,15.2,10.94Z"/>
    <path d="M.8,5a.8.8,0,0,0,.8-.8V1.57H4.23A.78.78,0,1,0,4.23,0H.79A.78.78,0,0,0,0,.79V4.22A.8.8,0,0,0,.8,5Z"/>
</svg>
