<?xml version="1.0" encoding="utf-8"?>
<!-- Generator: Adobe Illustrator 18.1.1, SVG Export Plug-In . SVG Version: 6.00 Build 0)  -->
<!DOCTYPE svg PUBLIC "-//W3C//DTD SVG 1.1//EN" "http://www.w3.org/Graphics/SVG/1.1/DTD/svg11.dtd">
<svg version="1.1" id="Layer_1" xmlns="http://www.w3.org/2000/svg" xmlns:xlink="http://www.w3.org/1999/xlink" x="0px" y="0px"
	 viewBox="0 0 512 512" enable-background="new 0 0 512 512" xml:space="preserve">
<g>
	<path d="M480.6,6h-109c-13.8,0-25,10.7-25,24.5s11.2,24.5,25,24.5H456v84.1c0,13.8,11.2,25,25,25s25-11.2,25-25V30.7
		C506,16.9,494.4,6,480.6,6z"/>
	<path d="M138.5,456H56v-83.2c0-13.8-11.2-25-25-25c-13.8,0-25,11.2-25,25v107.7C6,494.3,17,506,30.8,506h107.7
		c13.8,0,25-11.2,25-25C163.5,467.2,152.3,456,138.5,456z"/>
	<path d="M481,347.8c-13.8,0-25,11.2-25,25V456h-83.9c-13.8,0-25,11.2-25,25c0,13.8,11.2,25,25,25h108.5c13.8,0,25.4-11.7,25.4-25.5
		V372.8C506,359,494.8,347.8,481,347.8z"/>
	<path d="M31,162.7c13.8,0,25-11.2,25-25V55h82.3c13.8,0,25-10.7,25-24.5S152.1,6,138.3,6H30.8C17,6,6,16.9,6,30.7v107.1
		C6,151.6,17.2,162.7,31,162.7z"/>
</g>
</svg>
