<?xml version="1.0" encoding="utf-8"?>
<!-- Generator: Adobe Illustrator 18.1.1, SVG Export Plug-In . SVG Version: 6.00 Build 0)  -->
<!DOCTYPE svg PUBLIC "-//W3C//DTD SVG 1.1//EN" "http://www.w3.org/Graphics/SVG/1.1/DTD/svg11.dtd">
<svg version="1.1" xmlns="http://www.w3.org/2000/svg" xmlns:xlink="http://www.w3.org/1999/xlink" x="0px" y="0px"
	 viewBox="0 0 512 512" enable-background="new 0 0 512 512" xml:space="preserve">
<g id="Layer_1">
	<g>
		<path d="M210.5,180.2L100,70h43c12,0,21.8-10,21.8-22S155,26,143,26H47.4C35.4,26,26,35.6,26,47.6v94.7c0,12,9.5,21.8,21.5,21.8
			S69,154.4,69,142.4v-42.1l110.6,110.5c4.3,4.3,9.9,6.4,15.5,6.4c5.6,0,11.2-2,15.4-6.2C219,202.4,219,188.7,210.5,180.2z"/>
		<path d="M464.3,26h-94.7c-12,0-21.8,10-21.8,22s9.8,22,21.8,22h42.1L301.2,180.2c-8.5,8.5-8.5,22.2,0,30.7
			c4.3,4.3,9.8,6.3,15.4,6.3c5.6,0,10.9-2.2,15.2-6.4L442,100.3v43c0,12,10,21.8,22,21.8c12,0,22-9.8,22-21.8V47.6
			C486,35.6,476.3,26,464.3,26z"/>
		<path d="M464,348c-12,0-22,9.8-22,21.8v42.1L331.8,301.4c-8.5-8.5-22.2-8.5-30.7,0c-8.5,8.5-8.5,22,0.1,30.5L411.6,442h-43
			c-12,0-21.8,10-21.8,22s9.8,22,21.8,22h95.6c12,0,21.7-9.4,21.7-21.5v-94.7C486,357.7,476,348,464,348z"/>
		<path d="M210.5,301.4c-8.5-8.5-22.4-8.5-30.9,0L69,411.9v-43c0-12-9.5-21.8-21.5-21.8S26,356.9,26,368.9v95.6
			c0,12,9.4,21.5,21.4,21.5h94.7c12,0,21.8-9.5,21.8-21.5s-9.8-21.5-21.8-21.5H100l110.5-110.6C219,323.9,219,309.9,210.5,301.4z"/>
	</g>
</g>
<g id="Layer_2">
</g>
</svg>
