<?xml version="1.0" encoding="utf-8"?>
<!-- Generator: Adobe Illustrator 18.1.1, SVG Export Plug-In . SVG Version: 6.00 Build 0)  -->
<!DOCTYPE svg PUBLIC "-//W3C//DTD SVG 1.1//EN" "http://www.w3.org/Graphics/SVG/1.1/DTD/svg11.dtd">
<svg version="1.1" id="Layer_1" xmlns="http://www.w3.org/2000/svg" xmlns:xlink="http://www.w3.org/1999/xlink" x="0px" y="0px"
	 viewBox="0 0 512 512" enable-background="new 0 0 512 512" xml:space="preserve">
<g>
	<path d="M462.6,26H362.3c-12.7,0-23,9.8-23,22.5s10.3,22.5,23,22.5H440v77.5c0,12.7,10.3,23,23,23s23-10.3,23-23V48.7
		C486,36,475.3,26,462.6,26z"/>
	<path d="M147.9,440H72v-76.6c0-12.7-10.3-23-23-23c-12.7,0-23,10.3-23,23v99.1c0,12.7,10.1,23.5,22.8,23.5h99.1
		c12.7,0,23-10.3,23-23C170.9,450.3,160.6,440,147.9,440z"/>
	<path d="M463,340.5c-12.7,0-23,10.3-23,23V440h-77.2c-12.7,0-23,10.3-23,23c0,12.7,10.3,23,23,23h99.8c12.7,0,23.4-10.8,23.4-23.5
		v-99.1C486,350.7,475.7,340.5,463,340.5z"/>
	<path d="M49,170.2c12.7,0,23-10.3,23-23V71h75.7c12.7,0,23-9.8,23-22.5S160.4,26,147.7,26H48.8C36.1,26,26,36,26,48.7v98.5
		C26,159.9,36.3,170.2,49,170.2z"/>
</g>
</svg>
