<?xml version="1.0" encoding="utf-8"?>
<!-- Generator: Adobe Illustrator 18.1.1, SVG Export Plug-In . SVG Version: 6.00 Build 0)  -->
<!DOCTYPE svg PUBLIC "-//W3C//DTD SVG 1.1//EN" "http://www.w3.org/Graphics/SVG/1.1/DTD/svg11.dtd">
<svg version="1.1" id="Layer_1" xmlns="http://www.w3.org/2000/svg" xmlns:xlink="http://www.w3.org/1999/xlink" x="0px" y="0px"
	 viewBox="0 0 512 512" enable-background="new 0 0 512 512" xml:space="preserve">
<g>
	<path d="M358.6,176h95.5c12.1,0,21.9-9.9,21.9-22c0-12.1-9.8-22-21.9-22H381V58.6c0-12.1-9.9-21.9-22-21.9c-12.1,0-22,9.8-22,21.9
		v95C337,165.7,346.5,176,358.6,176z"/>
	<path d="M154.4,336H60.1c-12.1,0-21.9,9.9-21.9,22s9.8,22,21.9,22H133v72.7c0,12.1,9.4,21.9,21.5,21.9c12.1,0,21.5-9.8,21.5-21.9
		v-94.4C176,346.2,166.5,336,154.4,336z"/>
	<path d="M454.1,336h-95c-12.1,0-22.1,10.2-22.1,22.3v94.4c0,12.1,9.9,21.9,22,21.9c12.1,0,22-9.8,22-21.9V380h73.1
		c12.1,0,21.9-9.9,21.9-22S466.2,336,454.1,336z"/>
	<path d="M60.1,174h94.2c12.1,0,21.7-9.5,21.7-21.6V58.6c0-12.1-9.9-21.9-22-21.9s-22,9.8-22,21.9V131H60.1
		c-12.1,0-21.9,9.4-21.9,21.5S48,174,60.1,174z"/>
</g>
</svg>
