<?xml version="1.0" encoding="utf-8"?>
<!-- Generator: Adobe Illustrator 18.1.1, SVG Export Plug-In . SVG Version: 6.00 Build 0)  -->
<!DOCTYPE svg PUBLIC "-//W3C//DTD SVG 1.1//EN" "http://www.w3.org/Graphics/SVG/1.1/DTD/svg11.dtd">
<svg version="1.1" xmlns="http://www.w3.org/2000/svg" xmlns:xlink="http://www.w3.org/1999/xlink" x="0px" y="0px"
	 viewBox="0 0 512 512" enable-background="new 0 0 512 512" xml:space="preserve">
<g id="Layer_1">
	<g>
		<path d="M316.7,218h94.6c12,0,21.8-10,21.8-22s-9.8-22-21.8-22h-42.1L479.6,63.4c8.5-8.5,8.5-22.5,0-31s-22-8.5-30.5,0L339,142.7
			V99.8c0-12-10-21.8-22-21.8s-22,9.7-22,21.8v95.5C295,207.3,304.7,218,316.7,218z"/>
		<path d="M195,78.9c-12,0-22,9.7-22,21.8v42.1L62.9,32.4c-8.5-8.5-22.1-8.5-30.7,0c-8.5,8.5-8.4,22.5,0.1,31L142.7,174H99.8
			c-12,0-21.8,10-21.8,22s9.8,22,21.8,22h95.5c12,0,21.7-10.7,21.7-22.7v-94.6C217,88.7,207,78.9,195,78.9z"/>
		<path d="M479.6,448.6L369.2,338h42.9c12,0,21.8-9,21.8-21s-9.8-21-21.8-21h-95.5c-12,0-21.7,8.7-21.7,20.7v94.6
			c0,12,10,21.8,22,21.8c12,0,22-9.7,22-21.8v-42.1l110.1,110.3c4.3,4.3,9.7,6.4,15.3,6.4s11.1-2.2,15.3-6.5
			C488.1,471,488.1,457.1,479.6,448.6z"/>
		<path d="M195.3,296h-94.6c-12,0-21.8,9-21.8,21s9.8,21,21.8,21h42.1L32.4,448.6c-8.5,8.5-8.5,22.4,0,30.9
			c4.3,4.3,9.8,6.4,15.4,6.4s10.9-2.1,15.1-6.3L173,369.3v42.9c0,12,10,21.8,22,21.8c12,0,22-9.7,22-21.8v-95.5
			C217,304.7,207.3,296,195.3,296z"/>
	</g>
</g>
<g id="Layer_2">
</g>
</svg>
