<?xml version="1.0" encoding="utf-8"?>
<!-- Generator: Adobe Illustrator 18.1.1, SVG Export Plug-In . SVG Version: 6.00 Build 0)  -->
<!DOCTYPE svg PUBLIC "-//W3C//DTD SVG 1.1//EN" "http://www.w3.org/Graphics/SVG/1.1/DTD/svg11.dtd">
<svg version="1.1" xmlns="http://www.w3.org/2000/svg" xmlns:xlink="http://www.w3.org/1999/xlink" x="0px" y="0px"
	 viewBox="0 0 512 512" enable-background="new 0 0 512 512" xml:space="preserve">
<g id="Layer_1">
	<g>
		<path d="M206.5,173.7L86.5,54h46.7c13.1,0,23.7-10.9,23.7-24S146.2,6,133.2,6H29.2C16.2,6,6,16.4,6,29.5v103
			c0,13.1,10.4,23.7,23.5,23.7S53,145.6,53,132.5V86.7l120.1,120.1c4.6,4.6,10.7,6.9,16.7,6.9c6.1,0,12.1-2.1,16.7-6.7
			C215.8,197.7,215.8,182.9,206.5,173.7z"/>
		<path d="M482.4,6h-103c-13.1,0-23.7,10.9-23.7,24s10.6,24,23.7,24h45.8L305.1,173.7c-9.3,9.2-9.3,24.1,0,33.3
			c4.6,4.6,10.7,6.8,16.8,6.8c6.1,0,11.8-2.4,16.4-7L458,86.7v46.7c0,13.1,10.9,23.7,24,23.7c13.1,0,24-10.6,24-23.7V29.5
			C506,16.4,495.5,6,482.4,6z"/>
		<path d="M482,356c-13.1,0-24,10.6-24,23.7v45.8L338.3,305.4c-9.3-9.3-24.1-9.3-33.3,0c-9.3,9.2-9.2,23.8,0.1,33L425.2,458h-46.7
			c-13.1,0-23.7,10.9-23.7,24s10.6,24,23.7,24h103.9c13.1,0,23.6-10.3,23.6-23.4v-103C506,366.6,495.1,356,482,356z"/>
		<path d="M206.5,305.4c-9.3-9.3-24.2-9.3-33.5,0L53,425.5v-46.7c0-13.1-10.4-23.7-23.5-23.7S6,365.7,6,378.7v103.9
			C6,495.7,16.2,506,29.2,506h103c13.1,0,23.7-10.4,23.7-23.5S145.3,459,132.2,459H86.4l120.1-120.1
			C215.8,329.6,215.8,314.6,206.5,305.4z"/>
	</g>
</g>
<g id="Layer_2">
</g>
</svg>
