<svg class="icon icon-size-minimize" height="16" viewBox="0 0 16 16" version="1.1" aria-hidden="true">
    <path
      d="M10.11,6.68H13.4a.77.77,0,0,0,0-1.53H11.94L15.78,1.3a.76.76,0,0,0,0-1.08.75.75,0,0,0-1.06,0L10.89,4.06V2.57a.77.77,0,0,0-1.53,0V5.89A.78.78,0,0,0,10.11,6.68Z"/>
    <path
      d="M5.88,1.84a.76.76,0,0,0-.77.76V4.06L1.29.22A.75.75,0,0,0,.22.22a.77.77,0,0,0,0,1.08L4.06,5.15H2.57a.77.77,0,0,0,0,1.53H5.89a.78.78,0,0,0,.75-.79V2.6A.76.76,0,0,0,5.88,1.84Z"/>
    <path
      d="M15.78,14.7l-3.84-3.85h1.49a.73.73,0,1,0,0-1.46H10.11a.72.72,0,0,0-.75.72V13.4a.77.77,0,0,0,1.53,0V11.94l3.83,3.84a.74.74,0,0,0,.53.22.75.75,0,0,0,.53-.23A.76.76,0,0,0,15.78,14.7Z"/>
    <path
      d="M5.89,9.39H2.6a.73.73,0,1,0,0,1.46H4.06L.23,14.7A.76.76,0,0,0,.76,16a.73.73,0,0,0,.53-.22l3.83-3.84v1.49a.77.77,0,0,0,1.53,0V10.11A.72.72,0,0,0,5.89,9.39Z"/>
</svg>
