<?xml version="1.0" encoding="utf-8"?>
<!-- Generator: Adobe Illustrator 18.1.1, SVG Export Plug-In . SVG Version: 6.00 Build 0)  -->
<!DOCTYPE svg PUBLIC "-//W3C//DTD SVG 1.1//EN" "http://www.w3.org/Graphics/SVG/1.1/DTD/svg11.dtd">
<svg version="1.1" xmlns="http://www.w3.org/2000/svg" xmlns:xlink="http://www.w3.org/1999/xlink" x="0px" y="0px"
	 viewBox="0 0 512 512" enable-background="new 0 0 512 512" xml:space="preserve">
<g id="Layer_1">
	<g>
		<path d="M322,215h102.9c13.1,0,23.7-10.9,23.7-24s-10.6-24-23.7-24h-45.8L499,46.7c9.2-9.2,9.2-24.5,0-33.7
			c-9.2-9.2-24-9.3-33.3,0L346,132.9V86.2c0-13.1-10.9-23.7-24-23.7s-24,10.6-24,23.7V190C298,203.1,308.9,215,322,215z"/>
		<path d="M190,63.5c-13.1,0-24,10.6-24,23.7v45.7L46.2,13C37,3.7,22.1,3.7,12.8,13c-9.2,9.2-9.2,24.6,0,33.8l120,120.3H86.2
			c-13.1,0-23.7,10.9-23.7,24s10.6,24,23.7,24H190c13.1,0,24-11.9,24-25V87.2C214,74.1,203.1,63.5,190,63.5z"/>
		<path d="M499,465.3L379.1,345h46.6c13.1,0,23.7-9.9,23.7-23s-10.6-23-23.7-23H321.9c-13.1,0-23.9,9.9-23.9,23v102.9
			c0,13.1,10.9,23.7,24,23.7c13.1,0,24-10.6,24-23.7v-45.7l119.8,120c4.6,4.6,10.6,6.9,16.6,6.9c6.1,0,12.1-2.5,16.7-7.1
			C508.3,489.7,508.3,474.5,499,465.3z"/>
		<path d="M190,299H87.1c-13.1,0-23.7,9.9-23.7,23s10.6,23,23.7,23h45.8l-120,120.3c-9.2,9.2-9.2,24.4,0,33.6c4.6,4.6,10.7,7,16.7,7
			s11.9-2.3,16.6-6.9L166,379.1v46.6c0,13.1,10.9,23.7,24,23.7c13.1,0,24-10.6,24-23.7V322C214,308.9,203.1,299,190,299z"/>
	</g>
</g>
<g id="Layer_2">
</g>
</svg>
