<?xml version="1.0" encoding="utf-8"?>
<!-- Generator: Adobe Illustrator 18.1.1, SVG Export Plug-In . SVG Version: 6.00 Build 0)  -->
<!DOCTYPE svg PUBLIC "-//W3C//DTD SVG 1.1//EN" "http://www.w3.org/Graphics/SVG/1.1/DTD/svg11.dtd">
<svg version="1.1" xmlns="http://www.w3.org/2000/svg" xmlns:xlink="http://www.w3.org/1999/xlink" x="0px" y="0px"
	 viewBox="0 0 512 512" enable-background="new 0 0 512 512" xml:space="preserve">
<g id="Layer_1">
	<g>
		<path d="M383.4,79.8c-11.5-7.6-27-4.4-34.6,7.1c-7.6,11.5-4.4,27,7.1,34.5c51.5,33.9,82.3,90.8,82.3,152.4
			c0,100.5-81.8,182.2-182.2,182.2S73.8,374.4,73.8,273.9c0-62.1,31.2-119.4,83.4-153.2c11.6-7.5,14.9-22.9,7.4-34.5
			c-7.5-11.6-23-14.9-34.5-7.4c-66.5,43-106.2,115.9-106.2,195.1C23.9,401.9,128,506,256,506s232.1-104.1,232.1-232.1
			C488.1,195.5,449,122.9,383.4,79.8z"/>
		<path d="M256,241.6c13.8,0,25-11.2,25-24.9V30.9C281,17.2,269.8,6,256,6c-13.8,0-25,11.2-25,24.9v185.7
			C231,230.5,242.2,241.6,256,241.6z"/>
	</g>
</g>
<g id="Layer_2">
</g>
</svg>
