<?xml version="1.0" encoding="utf-8"?>
<!-- Generator: Adobe Illustrator 18.1.1, SVG Export Plug-In . SVG Version: 6.00 Build 0)  -->
<!DOCTYPE svg PUBLIC "-//W3C//DTD SVG 1.1//EN" "http://www.w3.org/Graphics/SVG/1.1/DTD/svg11.dtd">
<svg version="1.1" xmlns="http://www.w3.org/2000/svg" xmlns:xlink="http://www.w3.org/1999/xlink" x="0px" y="0px"
	 viewBox="0 0 512 512" enable-background="new 0 0 512 512" xml:space="preserve">
<g id="Layer_1">
	<g>
		<path d="M368.4,95c-10.3-6.8-24.3-3.9-31,6.4c-6.8,10.3-3.9,24.2,6.4,31c46.3,30.4,73.9,81.6,73.9,136.9
			c0,90.3-73.5,163.7-163.7,163.7S90.2,359.6,90.2,269.3c0-55.8,28-107.2,74.9-137.6c10.4-6.7,13.4-20.6,6.7-31
			c-6.7-10.4-20.6-13.4-31-6.7C81,132.7,45.3,198.3,45.3,269.3c0,115,93.6,208.6,208.6,208.6s208.6-93.6,208.6-208.6
			C462.5,198.9,427.3,133.7,368.4,95z"/>
		<path d="M253.5,240.4c12.4,0,22.5-10,22.5-22.4V51.1c0-12.4-10.1-22.4-22.5-22.4c-12.4,0-22.5,10-22.5,22.4V218
			C231,230.3,241.1,240.4,253.5,240.4z"/>
	</g>
</g>
<g id="Layer_2">
</g>
</svg>
