<?xml version="1.0" encoding="utf-8"?>
<!-- Generator: Adobe Illustrator 16.0.0, SVG Export Plug-In . SVG Version: 6.00 Build 0)  -->
<!DOCTYPE svg PUBLIC "-//W3C//DTD SVG 1.1//EN" "http://www.w3.org/Graphics/SVG/1.1/DTD/svg11.dtd">
<svg version="1.1" id="Layer_1" xmlns="http://www.w3.org/2000/svg" xmlns:xlink="http://www.w3.org/1999/xlink" x="0px" y="0px"
	 width="300px" height="300px" viewBox="0 0 300 300" style="enable-background:new 0 0 300 300;" xml:space="preserve">
<path d="M150,295c-19.231,0-38.158-3.815-55.711-11.142c-16.941-7.326-32.205-17.552-45.331-30.832
	c-13.279-12.974-23.506-28.237-30.832-45.332c-7.326-17.552-11.142-36.326-11.142-55.71c0-11.294,1.221-22.589,3.968-33.579
	c2.595-10.531,6.411-20.911,11.295-30.679c4.884-9.616,10.837-18.773,17.705-27.015c7.021-8.243,14.806-15.722,23.2-22.285
	c7.785-5.953,19.232-4.579,25.184,3.357c5.8,7.785,4.426,19.08-3.51,25.032c-26.711,20.453-41.974,51.59-41.974,85.169
	c0,59.221,47.926,107.147,107.147,107.147s107.147-47.927,107.147-107.147c0-33.579-15.263-64.716-41.974-85.169
	c-7.936-5.952-9.31-17.247-3.51-25.032c5.953-7.936,17.4-9.31,25.185-3.357c8.395,6.563,16.179,14.042,23.2,22.285
	c6.869,8.242,12.821,17.399,17.705,27.015c4.884,9.769,8.7,20.148,11.295,30.679c2.748,10.99,3.968,22.285,3.968,33.579
	c0,19.384-3.816,38.158-11.142,55.71c-7.327,17.095-17.553,32.358-30.832,45.332c-13.126,13.279-28.39,23.505-45.331,30.832
	C188.158,291.185,169.231,295,150,295z M150.152,197.468c-9.921,0-18.01-7.937-18.01-17.858V22.858
	c0-9.921,8.089-17.858,18.01-17.858c9.769,0,17.858,7.937,17.858,17.858V179.61C168.011,189.532,159.921,197.468,150.152,197.468z"
	/>
<g id="Restricted">
</g>
<g id="Help">
</g>
</svg>
