<?xml version="1.0" encoding="utf-8"?>
<!-- Generator: Adobe Illustrator 18.1.1, SVG Export Plug-In . SVG Version: 6.00 Build 0)  -->
<!DOCTYPE svg PUBLIC "-//W3C//DTD SVG 1.1//EN" "http://www.w3.org/Graphics/SVG/1.1/DTD/svg11.dtd">
<svg version="1.1" xmlns="http://www.w3.org/2000/svg" xmlns:xlink="http://www.w3.org/1999/xlink" x="0px" y="0px"
	 viewBox="0 0 512 512" enable-background="new 0 0 512 512" xml:space="preserve">
<g id="Layer_1">
	<g>
		<path d="M408.5,26C375.1,26,348,53.2,348,86.6v338.7c0,33.4,27.1,60.6,60.5,60.6c33.4,0,60.5-27.2,60.5-60.6V86.6
			C469,53.2,441.9,26,408.5,26z"/>
		<path d="M253.8,101.2c-33.4,0-60.8,27.2-60.8,60.6v263.5c0,33.4,28.6,60.6,62.1,60.6h1.3c33.4,0,59.6-27.2,59.6-60.6V161.9
			C316,128.4,288.6,101.2,253.8,101.2z"/>
		<path d="M102.5,214.7c-33.4,0-60.5,27.2-60.5,60.6v150.1c0,33.4,27.1,60.6,60.5,60.6s60.5-27.2,60.5-60.6V275.3
			C163,241.9,135.9,214.7,102.5,214.7z"/>
	</g>
</g>
<g id="Layer_2">
</g>
</svg>
