<?xml version="1.0" encoding="utf-8"?>
<!-- Generator: Adobe Illustrator 18.1.1, SVG Export Plug-In . SVG Version: 6.00 Build 0)  -->
<!DOCTYPE svg PUBLIC "-//W3C//DTD SVG 1.1//EN" "http://www.w3.org/Graphics/SVG/1.1/DTD/svg11.dtd">
<svg version="1.1" xmlns="http://www.w3.org/2000/svg" xmlns:xlink="http://www.w3.org/1999/xlink" x="0px" y="0px"
	 viewBox="0 0 512 512" enable-background="new 0 0 512 512" xml:space="preserve">
<g id="Layer_1">
	<g>
		<path d="M403,33.3c-32.5,0-59,26.4-59,59v329.3c0,32.5,26.5,59,59,59c32.5,0,59-26.4,59-59V92.2C462,59.7,435.5,33.3,403,33.3z"/>
		<path d="M252.9,106.4c-32.5,0-58.9,26.4-58.9,59v256.2c0,32.5,26.7,58.5,59.2,58.5h1.3c32.5,0,58.5-26,58.5-58.5V165.3
			C313,132.8,286.7,106.4,252.9,106.4z"/>
		<path d="M105,216.7c-32.5,0-59,26.4-59,59v145.9c0,32.5,26.5,59,59,59s59-26.4,59-59V275.6C164,243.1,137.5,216.7,105,216.7z"/>
	</g>
</g>
<g id="Layer_2">
</g>
</svg>
