<?xml version="1.0" encoding="utf-8"?>
<!-- Generator: Adobe Illustrator 18.1.1, SVG Export Plug-In . SVG Version: 6.00 Build 0)  -->
<!DOCTYPE svg PUBLIC "-//W3C//DTD SVG 1.1//EN" "http://www.w3.org/Graphics/SVG/1.1/DTD/svg11.dtd">
<svg version="1.1" xmlns="http://www.w3.org/2000/svg" xmlns:xlink="http://www.w3.org/1999/xlink" x="0px" y="0px"
	 viewBox="0 0 512 512" enable-background="new 0 0 512 512" xml:space="preserve">
<g id="Layer_1">
	<g>
		<path d="M422,6c-36.3,0-66,29.6-66,65.9v368.2c0,36.4,29.7,65.9,66,65.9c36.3,0,66-29.6,66-65.9V71.9C488,35.6,458.3,6,422,6z"/>
		<path d="M253.8,87.8c-36.3,0-65.8,29.6-65.8,65.9v286.4c0,36.4,30.7,65.9,67,65.9h1.5c36.3,0,64.5-29.6,64.5-65.9V153.7
			C321,117.3,291.6,87.8,253.8,87.8z"/>
		<path d="M89,211.1c-36.3,0-66,29.6-66,65.9v163.1c0,36.4,29.7,65.9,66,65.9s66-29.6,66-65.9V277C155,240.6,125.3,211.1,89,211.1z"
			/>
	</g>
</g>
<g id="Layer_2">
</g>
</svg>
