<?xml version="1.0" encoding="utf-8"?>
<!-- Generator: Adobe Illustrator 16.0.0, SVG Export Plug-In . SVG Version: 6.00 Build 0)  -->
<!DOCTYPE svg PUBLIC "-//W3C//DTD SVG 1.1//EN" "http://www.w3.org/Graphics/SVG/1.1/DTD/svg11.dtd">
<svg version="1.1" id="Layer_1" xmlns="http://www.w3.org/2000/svg" xmlns:xlink="http://www.w3.org/1999/xlink" x="0px" y="0px"
	 width="300px" height="300px" viewBox="0 0 300 300" style="enable-background:new 0 0 300 300;" xml:space="preserve">
<g id="Restricted">
</g>
<g id="Help">
	<path d="M195.952,125c-3.551-5-7.593-7.643-12.017-10.525l23.415-23.587c1.31-1.31,2.32-2.887,3.066-4.472
		c14.467,6.189,31.86,3.348,43.667-8.458c15.493-15.492,15.493-40.634,0-56.126c-15.493-15.492-40.611-15.503-56.103-0.011
		c-11.848,11.847-14.624,29.313-8.352,43.81c-1.563,0.745-3.034,1.742-4.328,3.036l-35.376,35.721
		C131.716,104.394,115.335,112,103.937,125H5v165h290V125H195.952z"/>
</g>
</svg>
