<?xml version="1.0" encoding="utf-8"?>
<!-- Generator: Adobe Illustrator 16.0.0, SVG Export Plug-In . SVG Version: 6.00 Build 0)  -->
<!DOCTYPE svg PUBLIC "-//W3C//DTD SVG 1.1//EN" "http://www.w3.org/Graphics/SVG/1.1/DTD/svg11.dtd">
<svg version="1.1" id="Layer_1" xmlns="http://www.w3.org/2000/svg" xmlns:xlink="http://www.w3.org/1999/xlink" x="0px" y="0px"
	 width="300px" height="300px" viewBox="0 0 300 300" style="enable-background:new 0 0 300 300;" xml:space="preserve">
<g id="Restricted">
</g>
<g id="Help">
	<path d="M179.473,134c-2.277-3-4.87-4.882-7.707-6.731l15.018-15.119c0.84-0.84,1.488-1.846,1.966-2.863
		c9.279,3.97,20.435,2.15,28.007-5.422c9.937-9.937,9.937-26.061,0-35.997c-9.937-9.937-26.047-9.943-35.983-0.006
		c-7.599,7.599-9.379,18.801-5.356,28.099c-1.002,0.478-1.946,1.118-2.776,1.948l-22.689,22.891
		C138.273,120.803,127.767,126,120.456,134H57v106h186V134H179.473z"/>
</g>
</svg>
