<?xml version="1.0" encoding="utf-8"?>
<!-- Generator: Adobe Illustrator 18.1.1, SVG Export Plug-In . SVG Version: 6.00 Build 0)  -->
<!DOCTYPE svg PUBLIC "-//W3C//DTD SVG 1.1//EN" "http://www.w3.org/Graphics/SVG/1.1/DTD/svg11.dtd">
<svg version="1.1" xmlns="http://www.w3.org/2000/svg" xmlns:xlink="http://www.w3.org/1999/xlink" x="0px" y="0px"
	 viewBox="0 0 512 512" enable-background="new 0 0 512 512" xml:space="preserve">
<g id="Layer_1">
	<path d="M505.6,51.9c-1-24.5-21-44.2-45.6-44.8C459.5,7,458.8,7,458.2,7H271.1c-1,0-2,0.1-2.9,0.3c-11.1,0.8-21.6,5.7-29.5,13.6
		c-0.7,0.5-1.3,1.1-1.9,1.7L17.9,258.9c-0.6,0.6-1.1,1.2-1.5,1.9c-4.9,6-8.2,13.2-9.7,21.4c-0.2,1.2-0.4,2.5-0.5,3.2
		c-0.2,1.5-0.3,3.1-0.3,4.7c0,13.7,6,26.6,16.5,35.6l196.9,168.5c22.1,18.6,48.6,10.2,63.7-4L491.6,274c8.4-8.4,13.5-19.5,14-31.3
		c0.1-0.6,0.4-1.3,0.4-1.9v-187C506,53.2,505.7,52.5,505.6,51.9z M393.3,144.6c-14.5,0-26.3-11.8-26.3-26.3s11.8-26.3,26.3-26.3
		c14.5,0,26.3,11.8,26.3,26.3S407.8,144.6,393.3,144.6z"/>
</g>
<g id="Layer_2">
</g>
</svg>
