<?xml version="1.0" encoding="utf-8"?>
<!-- Generator: Adobe Illustrator 18.1.1, SVG Export Plug-In . SVG Version: 6.00 Build 0)  -->
<!DOCTYPE svg PUBLIC "-//W3C//DTD SVG 1.1//EN" "http://www.w3.org/Graphics/SVG/1.1/DTD/svg11.dtd">
<svg version="1.1" xmlns="http://www.w3.org/2000/svg" xmlns:xlink="http://www.w3.org/1999/xlink" x="0px" y="0px"
	 viewBox="0 0 512 512" enable-background="new 0 0 512 512" xml:space="preserve">
<g id="Layer_1">
	<path d="M466.7,84.3C465.8,63,448.4,45.7,427,45.2c-0.5,0-1.1-0.2-1.6-0.2H262.5c-0.9,0-1.7,0.2-2.6,0.3c-9.7,0.7-18.8,5-25.7,11.9
		c-0.6,0.5-1.1,1-1.6,1.5L42,264.5c-0.5,0.5-0.9,1.1-1.3,1.6c-4.2,5.2-7.1,11.5-8.4,18.7c-0.2,1.1-0.4,2.1-0.4,2.8
		c-0.1,1.3-0.2,2.7-0.2,4.1c0,11.9,5.2,23.2,14.3,31l171.5,146.7c19.2,16.2,42.3,8.9,55.5-3.5l181.6-188.2
		c7.4-7.3,11.8-17,12.2-27.3c0.1-0.5,0.3-1.1,0.3-1.7V85.9C467,85.4,466.7,84.8,466.7,84.3z M368.9,165c-12.7,0-22.9-10.3-22.9-22.9
		s10.3-22.9,22.9-22.9s22.9,10.3,22.9,22.9S381.5,165,368.9,165z"/>
</g>
<g id="Layer_2">
</g>
</svg>
