<?xml version="1.0" encoding="utf-8"?>
<!-- Generator: Adobe Illustrator 16.0.0, SVG Export Plug-In . SVG Version: 6.00 Build 0)  -->
<!DOCTYPE svg PUBLIC "-//W3C//DTD SVG 1.1//EN" "http://www.w3.org/Graphics/SVG/1.1/DTD/svg11.dtd">
<svg version="1.1" id="Layer_1" xmlns="http://www.w3.org/2000/svg" xmlns:xlink="http://www.w3.org/1999/xlink" x="0px" y="0px"
	 width="300px" height="300px" viewBox="0 0 300 300" style="enable-background:new 0 0 300 300;" xml:space="preserve">
<g id="Restricted">
</g>
<g id="Help">
	<g>
		<path style="fill-rule:evenodd;clip-rule:evenodd;" d="M167.87,238.925c-1.61-1.405-3.219-2.811-5.01-4.374
			c-7.527,9.554-15.416,0.724-17.493-6.1c-0.517,1.676-0.997,3.366-1.555,5.027c-1.363,4.041-7.717,6.467-11.119,3.931
			c-2.979-2.228-2.181-6.946-2.857-9.891c-1.253,2.585-3.149,9.229-7.512,8.657c-2.616-0.339-3.895-2.27-4.324-4.578
			c-0.696-3.713-0.731-7.607-0.994-11.367c-0.256-0.014-0.513-0.026-0.767-0.037c-0.333,3.176,0.773,14.652-5.212,12.978
			c-12.96-3.643-39.951-17.506-42.73-31.779c-5.758,3.984-24.419-20.109-29.857-25.381c-5.64-5.464-8.959-10.536-15.621-15.873
			c-4.066-3.265-8.242-6.392-12.25-9.729c-3.83-3.203,0.272-8.812,4.763-7.258c3.971,1.373,16.619,10.169,20.158,8.964
			c10.819-3.704,10.463,7.293,9.655,13.647c7.37-10.196,20.958-14.278,33.469-11.806c-0.811,2.465-2.414,4.148-4.808,5.05
			c0.312,0.425,0.623,0.851,0.931,1.273c6.587-2.034,14.598-9.331,20.613-2.397c2.5-0.851,5.261-2.121,8.155-2.635
			c4.41-0.782,13.801,2.651,18.32,3.556c8.996,1.805-0.1,12.773-0.479,18.267c0.292,0.087,0.583,0.17,0.877,0.256
			c4.336-6.58,12.413-22.934,18.036-8.523c1.804-2.718,11.002-8.656,13.027-2.998c2.244,6.278,1.37,12.811,2.763,19.209
			c2.328-1.075,2.153-2.678,1.949-4.295c-0.623-4.945-1.239-9.892-1.916-15.331c10.716,0.519,9.852,1.625,14.261,10.45
			c-0.297-2.56-0.57-5.125-0.894-7.683c-0.438-3.477,0.417-4.917,3.812-5.852c2.967-1.017,5.709-0.589,8.225,1.286
			c2.451,2.094,3.518-0.962,5.928-1.518c5.505-1.267,9.183-5.079,13.625-1.714c1.396-1.784,3.797-4.314,5.518-0.903
			c0.558,1.104,1.28,2.124,2.366,2.956c-1.234-3.178-4.249-8.392,1.196-9.611c6.85-1.534,9.25,0.484,14.987,3.592
			c2.925-11.013,20.906-0.507,28.266-3.511c5.583-2.271,10.531-0.731,15.817,1.342c0.209,0.081,15.795-7.562,18.261-8.016
			c2.828-0.523,4.363,1.673,3.462,4.459c-1.996,6.149-10.135,11.105-14.878,15.078c-1.576,1.32-3.543,1.806-4.884-0.639
			c-2.145,2.423-0.974,5.441-3.493,8.175c-3.824,4.153-9.665,5.157-13.297,9.516c-7.596,9.117-16.366,16.922-25.6,24.438
			c-0.828-3.104-1.525-5.72-2.223-8.333c-0.111-0.003-0.226-0.005-0.336-0.007c-0.735,10.678-7.597,18.585-16.725,24.3
			c-0.381-1.729-0.717-3.238-1.108-5.003c-1.895,4.692-3.164,9.389-7.105,12.94c-3.141,2.834-4.568-0.279-5.892-2.689
			c-2.874,1.973-5.306,4.369-8.115,6.412c-2.611,1.901-4.217,1.419-4.868-1.709c-0.931-4.532-0.64-9.429-1.806-13.882
			c-0.424,6.458,0.896,16.965-6.918,19.662C171.735,238.925,169.803,238.925,167.87,238.925
			C166.26,237.52,169.803,238.925,167.87,238.925z"/>
		<path style="fill-rule:evenodd;clip-rule:evenodd;" d="M136.938,61.075c5.194,1.856,7.078,6.286,8.494,11.752
			c1.835-9.601,8.484-1.582,12.047,3.229c4.992-7.666,5.868-9.66,14.286-12.117c6.504-1.888,12.454,1.88,6.656,6.927
			c4.122-3.737,6.721-11.663,11.502-3.244c2.986-0.642,13.898,0.12,14.541,4.438c0.576,3.876-4.54,6.804-3.377,10.786
			c1.096-1.025,1.927-2.239,2.495-3.645c2.892-5.188,4.896-5.963,10.371-3.857c5.074,1.951,4.124,4.979,7.486,6.771
			c3.614,1.925,7.643,1.698,11.704,4.077c6.513,3.813,17.194,8.751,22.57,14.138c9.52,9.541,28.103,17.565,36.945,30.248
			c1.411,2.02,3.207,4.388,1.874,6.84c-2.36,4.354-12.332,1.591-14.897-0.806c-4.756-4.465-16.223-0.504-22.213-2.824
			c0.578-1.835,1.401-3.548,2.47-5.139c-0.161-0.141-0.328-0.279-0.49-0.416c-2.301,1.795-4.475,3.738-6.52,5.83
			c-2.826,2.611-19.192,2.527-19.192-3.032c0-0.544-0.123-1.087-0.193-1.679c-6.752,0.923-7.8,4.433-15.452,1.805
			c-3.528-1.213-4.647-3.409-3.419-6.99c1.148-3.341,3.617-6.715,4.083-10.254c-4.439,3.706-5.625,12.02-11.1,13.903
			c-3.752,1.285-7.7,2.01-11.833,3.045c0-6.131,0-11.619,0-17.105c-0.122-0.047-0.249-0.097-0.369-0.146
			c-4.3,12.315-3.733,16.809-17.531,19.423c0-6.363,0-12.523,0-18.683c-0.098-0.021-0.197-0.041-0.298-0.064
			c-0.857,6.256-1.224,12.521-1.947,18.791c-0.58,5.087-6.264,4.937-7.232-0.046c-0.27-1.381-0.357-2.797-0.594-4.738
			c-0.669,2.069-10.854,21.203-11.702,10.306c-0.56-7.157-0.395-14.357-1.403-21.47c-0.312-0.021-0.623-0.039-0.935-0.06
			c-1.577,7.276-0.975,14.663-2.055,21.99c-1.292,8.613-21.416-3.941-22.85-8.953c-1.089-3.802-0.648-8.135-1.941-11.83
			c-3.699,17.785-6.809,1.752-11.344,6.673c-3.548,3.839-11.732-1.059-16.287-0.566c-10.709,1.158-10.128,2.417-14.54-8.766
			c-0.266,0.031-0.537,0.062-0.805,0.093c-0.176,2.996,2.216,12.241-1.822,13.551c-4.478,1.455-7.385-0.22-8.197-4.856
			c-0.395-2.25-0.72-4.531-3.085-6.509c0.185,3.913,0.211,8.184-1.146,11.935c-2.285,6.317-5.21,0.365-8.536,0.921
			c-2.534,0.422-1.96,5.657-5.459,1.901c-2.518-2.705-4.013-5.423-7.167-7.455c-1.781,3.383-1.384,5.981-1.384,9.754
			c-4.283,0-8.354,0.167-12.394-0.11c-2.636-0.186-3.827-5.598-6.631-2.829c-2.577,2.539-14.189,2.537-18.342,3.856
			c-2.052,0.655-3.811,0.438-4.78-1.816c0-0.805,0-1.609,0-2.414c6.038-9.743,15.034-9.135,21.845-17.112
			c4.808-5.632,2.525-5.571,10.652-7.48c0.77-0.183,8.733-1.231,9.623-3.688c2.018-5.557,15.645-14.434,21.285-16.051
			c5.308-1.432,6.565,2.136,11.205,7.428c0.245-0.145,0.487-0.288,0.733-0.429c-0.133-2.71-0.972-5.223-2.518-7.541
			c-1.472-3.146-1.293-4.465,1.537-6.34c3.413-2.264,19.371-7.795,20.222-11.228c1.499,1.77,2.64,3.125,3.975,4.699
			c-0.785-2.512-0.552-4.909,0.698-7.191c5.202-5.178,11.835-3.269,17.742-1.003c0.796-3.521,2.459-4.742,4.08-3.117
			C128.544,65.048,133.788,61.075,136.938,61.075C142.132,62.932,135.812,61.075,136.938,61.075z"/>
	</g>
</g>
</svg>
