<?xml version="1.0" encoding="utf-8"?>
<!-- Generator: Adobe Illustrator 16.0.0, SVG Export Plug-In . SVG Version: 6.00 Build 0)  -->
<!DOCTYPE svg PUBLIC "-//W3C//DTD SVG 1.1//EN" "http://www.w3.org/Graphics/SVG/1.1/DTD/svg11.dtd">
<svg version="1.1" id="Layer_1" xmlns="http://www.w3.org/2000/svg" xmlns:xlink="http://www.w3.org/1999/xlink" x="0px" y="0px"
	 width="300px" height="300px" viewBox="0 0 300 300" style="enable-background:new 0 0 300 300;" xml:space="preserve">
<g id="Restricted">
</g>
<g id="Help">
	<g>
		<path d="M140.22,83.417c0.435,0.155,0.834,0.339,1.209,0.54C141.963,84.109,142.083,84.083,140.22,83.417z"/>
		<path d="M229.152,112.81c-3.727-3.734-10.855-7.179-15.762-9.937l64.75-64.749L261.876,21.86l-71.208,71.208
			c0.129-0.461,0.186-0.933,0.113-1.427c-0.481-3.232-8.651-3.803-10.887-3.322c-3.252-5.727-5.156-1.354-7.792,1.593
			c2.828-3.342-1.303-5.656-5.805-4.351c-6.303,1.84-6.959,3.333-10.697,9.073c-2.667-3.603-7.646-9.606-9.02-2.418
			c-0.941-3.635-2.165-6.654-5.15-8.26c-0.58-0.164-1.649-0.54-1.209-0.54c-2.359,0-6.286,2.975-8.131,1.13
			c-1.213-1.217-2.458-0.302-3.055,2.334c-4.422-1.696-9.389-3.126-13.284,0.751c-0.936,1.709-1.11,3.504-0.523,5.385
			c-1-1.179-1.854-2.193-2.976-3.519c-0.638,2.57-12.586,6.712-15.142,8.406c-2.119,1.404-2.253,2.392-1.15,4.747
			c1.157,1.736,1.786,3.617,1.885,5.646c-0.185,0.105-0.366,0.213-0.549,0.321c-3.475-3.963-4.416-6.634-8.39-5.562
			c-4.223,1.211-14.426,7.857-15.937,12.018c-0.666,1.84-6.628,2.625-7.205,2.762c-6.085,1.43-4.591,1.385-8.191,5.602
			C52.472,129.411,46,128.956,41,136.251c0,0.603,0,1.205,0,1.808c1,1.688,2.258,1.851,3.794,1.36
			c3.109-0.988,11.912-0.986,13.841-2.888c2.1-2.073,3.045,1.979,5.019,2.118c3.025,0.208,6.1,0.083,9.307,0.083
			c0-2.825-0.284-4.771,1.049-7.304c2.361,1.521,3.487,3.557,5.373,5.582c2.62,2.812,2.193-1.107,4.091-1.424
			c2.491-0.416,4.683,4.041,6.394-0.689c1.017-2.809,0.998-6.006,0.859-8.936c1.771,1.48,2.015,3.188,2.311,4.873
			c0.608,3.472,2.785,4.726,6.138,3.637c3.024-0.98,1.233-7.903,1.364-10.146c0.201-0.022,0.404-0.046,0.603-0.069
			c3.303,8.373,2.868,7.431,10.887,6.563c3.411-0.369,9.539,3.298,12.195,0.424c3.396-3.685,5.725,8.32,8.494-4.996
			c0.968,2.767,0.638,6.011,1.454,8.857c0.499,1.742,4.014,4.701,7.734,6.727l-14.427,14.427c-3.658-0.938-9.402-2.842-12.292-2.329
			c-2.167,0.385-4.234,1.336-6.106,1.973c-4.504-5.191-10.502,0.272-15.434,1.795c-0.231-0.316-0.463-0.635-0.697-0.953
			c1.792-0.675,2.993-1.936,3.6-3.781c-9.368-1.852-19.542,1.205-25.06,8.84c0.605-4.758,0.872-12.992-7.229-10.219
			c-2.649,0.902-12.12-5.684-15.093-6.712c-3.363-1.164-6.434,3.036-3.566,5.435c3.001,2.499,6.128,4.841,9.173,7.285
			c4.987,3.996,7.473,7.794,11.696,11.885c4.072,3.947,18.044,21.987,22.356,19.004c0.296,1.52,0.968,3.032,1.915,4.518
			L21.86,261.876l16.264,16.264l70.764-70.764c4.434,2.282,8.748,4.004,11.931,4.898c4.481,1.254,3.653-7.339,3.903-9.717
			c0.19,0.008,0.383,0.018,0.574,0.027c0.196,2.815,0.223,5.731,0.744,8.512c0.321,1.729,1.279,3.174,3.237,3.428
			c3.267,0.428,4.687-4.547,5.625-6.482c0.506,2.205-0.091,5.738,2.139,7.406c2.547,1.898,7.305,0.082,8.325-2.943
			c0.418-1.244,0.777-2.51,1.165-3.765c1.556,5.109,7.462,11.93,13.098,4.775c1.341,1.172,2.546,2.484,3.751,3.484
			c-1.206-1,1.447,0,0,0c1.447,0,2.894,0,4.341,0c5.85-2,4.862-10.096,5.18-14.932c0.873,3.336,0.655,6.897,1.352,10.291
			c0.487,2.342,1.69,2.65,3.645,1.227c2.104-1.529,3.924-3.35,6.076-4.826c0.991,1.805,2.06,4.123,4.412,2
			c2.951-2.658,3.901-6.182,5.32-9.695c0.293,1.321,0.545,2.447,0.83,3.742c6.834-4.279,11.972-10.2,12.522-18.195
			c0.083,0.001,0.168,0.002,0.252,0.004c0.522,1.957,1.044,3.916,1.664,6.238c6.915-5.627,13.481-11.472,19.168-18.298
			c2.719-3.264,7.093-4.016,9.956-7.125c1.886-2.047,1.009-4.307,2.615-6.121c1.003,1.83,2.477,1.467,3.657,0.479
			c3.551-2.975,9.646-6.686,11.14-11.29c0.674-2.086-0.475-3.73-2.592-3.339c-1.847,0.34-13.517,6.062-13.673,6.002
			c-3.958-1.553-7.663-2.705-11.843-1.005c-5.511,2.249-18.974-5.617-21.164,2.629c-4.295-2.327-6.092-3.838-11.221-2.689
			c-4.077,0.913-1.82,4.817-0.896,7.196c-0.813-0.623-1.354-1.387-1.771-2.213c-1.288-2.555-3.086-0.66-4.131,0.676
			c-3.327-2.52-6.081,0.335-10.202,1.283c-1.804,0.416-2.604,2.704-4.438,1.137c-1.884-1.404-3.937-1.725-6.159-0.963
			c-2.542,0.699-3.183,1.778-2.854,4.381c0.243,1.915,0.447,3.836,0.669,5.753c-3.275-6.556-2.813-7.422-10.637-7.815L184,131.989
			c0,1.199,0,2.419,0,3.681c3-0.775,6.188-1.317,8.997-2.28c4.099-1.41,5.056-7.635,8.38-10.41c-0.35,2.65-2.164,5.177-3.023,7.678
			c-0.919,2.682-0.064,4.326,2.578,5.234c5.729,1.968,6.522-0.66,11.579-1.352c0.053,0.443,0.148,0.85,0.148,1.257
			c0,4.163,12.257,4.226,14.373,2.271c1.531-1.566,3.16-3.021,4.883-4.365c0.122,0.103,0.247,0.206,0.367,0.312
			c-0.8,1.191-1.417,2.474-1.849,3.848c4.485,1.737,13.071-1.229,16.633,2.114c1.921,1.795,9.387,3.864,11.154,0.604
			c0.998-1.836-0.347-3.609-1.403-5.121C250.195,125.962,236.28,119.953,229.152,112.81z M152.819,125.343
			c0.233,0.016,0.466,0.029,0.7,0.045c0.207,1.456,0.344,2.918,0.448,4.382l-1.953,1.953
			C152.149,129.588,152.36,127.459,152.819,125.343z M155.989,173c0.153,1.211,0.284,2.411-1.459,3.216
			c-0.931-4.278-0.521-8.635-1.616-12.866l1.662-1.661C155.074,165.694,155.529,169.349,155.989,173z"/>
	</g>
</g>
</svg>
