<?xml version="1.0" encoding="utf-8"?>
<!-- Generator: Adobe Illustrator 16.0.0, SVG Export Plug-In . SVG Version: 6.00 Build 0)  -->
<!DOCTYPE svg PUBLIC "-//W3C//DTD SVG 1.1//EN" "http://www.w3.org/Graphics/SVG/1.1/DTD/svg11.dtd">
<svg version="1.1" id="Layer_1" xmlns="http://www.w3.org/2000/svg" xmlns:xlink="http://www.w3.org/1999/xlink" x="0px" y="0px"
	 width="300px" height="300px" viewBox="0 0 300 300" style="enable-background:new 0 0 300 300;" xml:space="preserve">
<g id="Restricted">
</g>
<g id="Help">
	<g>
		<path d="M138.934,74.656c0.492,0.176,0.943,0.384,1.369,0.611C140.905,75.439,141.042,75.41,138.934,74.656z"/>
		<path d="M239.567,107.916c-4.217-4.226-12.283-8.123-17.836-11.244L295,23.403L276.596,5l-80.577,80.577
			c0.146-0.521,0.21-1.055,0.127-1.614c-0.544-3.657-9.79-4.303-12.32-3.76c-3.68-6.479-5.834-1.532-8.816,1.803
			c3.2-3.781-1.475-6.4-6.569-4.923c-7.132,2.082-7.875,3.771-12.104,10.267c-3.019-4.076-8.651-10.87-10.207-2.735
			c-1.065-4.113-2.449-7.53-5.828-9.347c-0.656-0.186-1.866-0.611-1.369-0.611c-2.669,0-7.113,3.366-9.202,1.278
			c-1.373-1.377-2.782-0.342-3.457,2.642c-5.004-1.92-10.625-3.538-15.032,0.85c-1.06,1.934-1.257,3.965-0.592,6.093
			c-1.131-1.334-2.098-2.481-3.368-3.981c-0.722,2.909-14.243,7.596-17.134,9.513c-2.397,1.589-2.549,2.706-1.302,5.371
			c1.31,1.965,2.021,4.094,2.133,6.39c-0.208,0.119-0.414,0.241-0.621,0.364c-3.932-4.484-4.996-7.507-9.494-6.294
			c-4.779,1.37-16.325,8.892-18.034,13.599c-0.753,2.082-7.5,2.971-8.153,3.125c-6.885,1.618-5.024,1.567-9.098,6.339
			C39.811,126.702,32,126.188,27,134.442c0,0.682,0,1.363,0,2.045c1,1.911,2.384,2.094,4.123,1.539
			c3.519-1.118,13.394-1.116,15.577-3.268c2.376-2.346,3.403,2.24,5.636,2.397c3.423,0.235,6.881,0.094,10.51,0.094
			c0-3.197-0.332-5.398,1.177-8.265c2.672,1.722,3.941,4.024,6.074,6.316c2.965,3.183,2.479-1.253,4.626-1.611
			c2.818-0.471,5.298,4.573,7.234-0.78c1.15-3.178,1.128-6.796,0.971-10.111c2.003,1.676,2.28,3.608,2.615,5.515
			c0.688,3.929,3.15,5.347,6.945,4.115c3.422-1.109,1.395-8.943,1.544-11.481c0.228-0.025,0.457-0.053,0.682-0.079
			c3.738,9.475,3.246,8.409,12.319,7.428c3.859-0.418,10.793,3.731,13.799,0.479c3.843-4.17,6.478,9.415,9.612-5.653
			c1.096,3.13,0.722,6.802,1.645,10.022c0.564,1.972,4.542,5.319,8.752,7.611l-16.325,16.325c-4.139-1.061-10.64-3.216-13.909-2.636
			c-2.452,0.436-4.791,1.512-6.91,2.232c-5.096-5.874-11.884,0.309-17.465,2.031c-0.261-0.358-0.524-0.719-0.789-1.078
			c2.028-0.764,3.387-2.19,4.073-4.279c-10.6-2.095-22.113,1.363-28.357,10.003c0.685-5.384,0.986-14.701-8.181-11.563
			c-2.998,1.021-13.715-6.432-17.079-7.595c-3.805-1.317-7.281,3.436-4.036,6.149c3.396,2.828,6.934,5.478,10.38,8.244
			c5.644,4.521,8.456,8.819,13.235,13.448c4.608,4.467,20.418,24.881,25.297,21.505c0.335,1.719,1.096,3.431,2.167,5.111L5,276.597
			L23.404,295l80.074-80.074c5.017,2.582,9.899,4.53,13.5,5.543c5.071,1.419,4.134-8.305,4.417-10.996
			c0.215,0.009,0.433,0.021,0.65,0.031c0.222,3.186,0.252,6.485,0.842,9.632c0.364,1.956,1.447,3.592,3.664,3.879
			c3.697,0.483,5.303-5.146,6.365-7.336c0.573,2.495-0.103,6.493,2.421,8.381c2.882,2.148,8.266,0.093,9.42-3.33
			c0.474-1.408,0.88-2.841,1.318-4.261c1.76,5.782,8.444,13.592,14.822,5.496c1.517,1.326,2.881,3.035,4.245,4.035
			c-1.364-1,1.638,0,0,0c1.638,0,3.275,0,4.912,0c6.62-2,5.502-11.516,5.861-16.988c0.988,3.775,0.741,7.759,1.53,11.599
			c0.551,2.65,1.913,2.976,4.125,1.364c2.38-1.73,4.44-3.801,6.875-5.472c1.122,2.042,2.331,4.66,4.992,2.258
			c3.339-3.009,4.414-6.998,6.02-10.975c0.332,1.495,0.617,2.769,0.939,4.233c7.734-4.842,13.547-11.543,14.17-20.59
			c0.094,0.001,0.191,0.002,0.285,0.004c0.591,2.215,1.182,4.431,1.883,7.059c7.824-6.367,15.254-12.981,21.69-20.705
			c3.077-3.693,8.026-4.545,11.266-8.062c2.134-2.316,1.142-4.874,2.959-6.927c1.135,2.07,2.802,1.659,4.138,0.541
			c4.019-3.366,10.915-7.565,12.605-12.775c0.763-2.36-0.538-4.222-2.934-3.778c-2.089,0.385-15.295,6.86-15.472,6.792
			c-4.479-1.757-8.671-3.062-13.402-1.137c-6.236,2.545-21.47-6.356-23.949,2.975c-4.86-2.634-6.894-4.343-12.698-3.044
			c-4.613,1.033-2.059,5.451-1.014,8.144c-0.92-0.705-1.532-1.569-2.004-2.504c-1.458-2.891-3.493-0.747-4.675,0.765
			c-3.764-2.852-6.88,0.379-11.544,1.452c-2.042,0.471-2.946,3.06-5.022,1.286c-2.131-1.589-4.455-1.951-6.969-1.09
			c-2.876,0.791-3.602,2.013-3.23,4.957c0.275,2.167,0.506,4.341,0.758,6.511c-3.706-7.419-3.42-8.398-12.273-8.844L188,129.619
			c0,1.357,0,2.737,0,4.165c4-0.877,7.238-1.49,10.417-2.58c4.639-1.596,5.839-8.64,9.601-11.78
			c-0.396,2.999-2.389,5.858-3.362,8.688c-1.04,3.034-0.043,4.896,2.946,5.923c6.483,2.227,7.395-0.747,13.117-1.529
			c0.06,0.502,0.175,0.961,0.175,1.422c0,4.711,13.873,4.782,16.268,2.569c1.732-1.772,3.577-3.419,5.526-4.939
			c0.138,0.116,0.281,0.233,0.417,0.353c-0.905,1.349-1.602,2.799-2.092,4.354c5.076,1.967,14.792-1.39,18.822,2.393
			c2.174,2.031,10.623,4.373,12.622,0.684c1.129-2.078-0.393-4.085-1.588-5.795C263.378,122.799,247.633,116,239.567,107.916z
			 M153.19,122.099c0.264,0.018,0.527,0.033,0.792,0.051c0.234,1.647,0.389,3.302,0.507,4.958l-2.21,2.21
			C152.432,126.902,152.671,124.493,153.19,122.099z M156.777,176.026c0.173,1.37,0.321,2.729-1.651,3.639
			c-1.054-4.841-0.59-9.771-1.829-14.559l1.88-1.88C155.742,167.76,156.256,171.895,156.777,176.026z"/>
	</g>
</g>
</svg>
