<svg class="icon icon-target" height="16" viewBox="0 0 16 16" version="1.1" aria-hidden="true">
    <circle cx="8" cy="7.99" r="1.05"/>
    <path
      d="M15.2,7.2h-.85A6.5,6.5,0,0,0,8.8,1.68V.8A.8.8,0,0,0,7.2.8v.88A6.43,6.43,0,0,0,1.61,7.2H.8a.8.8,0,0,0,0,1.6h.79A6.4,6.4,0,0,0,7.2,14.44v.76a.8.8,0,0,0,1.6,0v-.76A6.49,6.49,0,0,0,14.37,8.8h.84a.8.8,0,0,0,0-1.6ZM8.8,12.82V12a.8.8,0,0,0-1.6,0v.84a4.79,4.79,0,0,1-4-4H4A.8.8,0,0,0,4,7.2H3.22a4.83,4.83,0,0,1,4-3.91V4A.8.8,0,0,0,8.8,4V3.3a4.86,4.86,0,0,1,3.93,3.9H12a.8.8,0,0,0,0,1.6h.77A4.79,4.79,0,0,1,8.8,12.82Z"/>
</svg>
