<?xml version="1.0" encoding="utf-8"?>
<!-- Generator: Adobe Illustrator 18.1.1, SVG Export Plug-In . SVG Version: 6.00 Build 0)  -->
<!DOCTYPE svg PUBLIC "-//W3C//DTD SVG 1.1//EN" "http://www.w3.org/Graphics/SVG/1.1/DTD/svg11.dtd">
<svg version="1.1" xmlns="http://www.w3.org/2000/svg" xmlns:xlink="http://www.w3.org/1999/xlink" x="0px" y="0px"
	 viewBox="0 0 512 512" enable-background="new 0 0 512 512" xml:space="preserve">
<g id="Layer_1">
	<g>
		<circle cx="258.2" cy="258.4" r="29.5"/>
		<path d="M460.2,236h-23.9C425.5,156,361,91.8,281,81.4V56.7c0-12.4-10.1-22.4-22.5-22.4S236,44.3,236,56.7v24.7
			C154,91.2,89.6,155,78.8,236H56.1c-12.4,0-22.4,10.1-22.4,22.5c0,12.4,10,22.5,22.4,22.5h22.3C87.8,364,153,429.4,236,439.4v21.3
			c0,12.4,10.1,22.4,22.5,22.4s22.5-10,22.5-22.4v-21.4C362,428.8,427.3,363,436.7,281h23.4c12.4,0,22.4-10.1,22.4-22.5
			C482.6,246.1,472.5,236,460.2,236z M281,394v-23.5c0-12.4-10.1-22.4-22.5-22.4s-22.5,10-22.5,22.4v23.7
			C178,384.8,132.5,339,123.6,281h22.8c12.4,0,22.4-10.1,22.4-22.5c0-12.4-10-22.5-22.4-22.5h-22.2C134.2,180,179,135.8,236,126.6
			v20.4c0,12.4,10.1,22.4,22.5,22.4s22.5-10,22.5-22.4v-20.2c56,9.6,99.9,53.2,109.9,109.2h-21.1c-12.4,0-22.4,10.1-22.4,22.5
			c0,12.4,10,22.5,22.4,22.5h21.6C382.6,339,338,384.2,281,394z"/>
	</g>
</g>
<g id="Layer_2">
</g>
</svg>
