<?xml version="1.0" encoding="utf-8"?>
<!-- Generator: Adobe Illustrator 18.1.1, SVG Export Plug-In . SVG Version: 6.00 Build 0)  -->
<!DOCTYPE svg PUBLIC "-//W3C//DTD SVG 1.1//EN" "http://www.w3.org/Graphics/SVG/1.1/DTD/svg11.dtd">
<svg version="1.1" xmlns="http://www.w3.org/2000/svg" xmlns:xlink="http://www.w3.org/1999/xlink" x="0px" y="0px"
	 viewBox="0 0 512 512" enable-background="new 0 0 512 512" xml:space="preserve">
<g id="Layer_1">
	<g>
		<circle cx="256.1" cy="255.7" r="32.8"/>
		<path d="M481,231h-26.6C442.4,142,370,70.1,281,58.6V31c0-13.8-11.2-25-25-25s-25,11.2-25,25v27.5C140,69.4,68.3,141,56.2,231H31
			c-13.8,0-25,11.2-25,25c0,13.8,11.2,25,25,25h24.8C66.4,373,138,446.2,231,457.3V481c0,13.8,11.2,25,25,25s25-11.2,25-25v-23.9
			C371,445.5,444.4,372,454.9,281H481c13.8,0,25-11.2,25-25C506,242.2,494.8,231,481,231z M281,406.7v-26.2c0-13.8-11.2-25-25-25
			s-25,11.2-25,25v26.4C166,396.4,116.1,346,106.1,281h25.4c13.8,0,25-11.2,25-25c0-13.8-11.2-25-25-25h-24.8
			C118,169,167,119.1,231,108.8v22.7c0,13.8,11.2,25,25,25s25-11.2,25-25v-22.5C343,119.8,392.8,169,403.9,231h-23.5
			c-13.8,0-25,11.2-25,25c0,13.8,11.2,25,25,25h24.1C394.7,346,345,395.7,281,406.7z"/>
	</g>
</g>
<g id="Layer_2">
</g>
</svg>
