<?xml version="1.0" encoding="utf-8"?>
<svg version="1.1" id="Layer_1" xmlns="http://www.w3.org/2000/svg" xmlns:xlink="http://www.w3.org/1999/xlink" x="0px" y="0px"
	 viewBox="0 0 512 512" enable-background="new 0 0 512 512" xml:space="preserve">
<g>
	<path d="M84.9,64h342.1l0.6,114.6h-16.4c-5.4-41-20.7-68.7-46.1-83.2c-14.2-8-35.5-12.3-63.8-13.1v299.3c0,20.9,3.6,34.8,11,41.6
		c7.3,6.8,22.5,10.3,45.6,10.3V448H155.4v-14.4c22.2,0,36.9-3.5,44.3-10.4c7.3-6.9,11-20.8,11-41.5V82.3c-27.7,0.7-49,5.1-63.8,13.1
		c-27.2,14.8-42.5,42.6-46.1,83.2H84.4L84.9,64z"/>
</g>
</svg>
