<?xml version="1.0" encoding="utf-8"?>
<!-- Generator: Adobe Illustrator 16.0.0, SVG Export Plug-In . SVG Version: 6.00 Build 0)  -->
<!DOCTYPE svg PUBLIC "-//W3C//DTD SVG 1.1//EN" "http://www.w3.org/Graphics/SVG/1.1/DTD/svg11.dtd">
<svg version="1.1" id="Layer_1" xmlns="http://www.w3.org/2000/svg" xmlns:xlink="http://www.w3.org/1999/xlink" x="0px" y="0px"
	 width="300px" height="300px" viewBox="0 0 300 300" style="enable-background:new 0 0 300 300;" xml:space="preserve">
<g id="Restricted">
</g>
<g id="Help">
	<g>
		<g>
			<path d="M273.848,128.394c-0.73-4.254-8.609-13.921-8.562-19.17c0.046-5.247,7.619-13.904,1.935-20.899
				c-2.869-3.532-6.225-6.652-9.398-9.917c-2.258-2.308-3.466-4.961-3.254-8.259c0.148-2.309-0.023-4.631,0.101-6.947
				c0.161-2.995-0.813-5.573-2.546-7.932c-4.128-5.621-9.239-10.177-15.234-13.677c-1.842-1.087-3.899-2.145-5.964-2.418
				c-7.83-1.042-15.696-2.355-23.562-2.466c-13.443-0.181-26.905,0.264-40.343,0.829c-9.324,0.386-18.72,0.785-27.916,2.251
				c-17.391,2.778-34.651,6.399-51.985,9.508c-2.361,0.419-2.942,1.21-2.938,3.533c0.085,34.602,0.501,77.707,0.063,102.761
				c1.509,8.445,13.006,6.792,16.59,10.005c5.012,4.495,7.732,8.87,11.242,14.542c7.068,11.407,12.498,23.618,17.312,36.09
				c2.88,7.467,7.591,13.262,13.814,18.072c2.712,2.099,5.384,4.288,7.854,6.666c6.806,6.562,10.161,14.994,12.479,23.913
				c2.835,10.891,4.032,16.683,4.757,27.867c0.218,3.43,1.359,5.49,4.692,6.255c1.495,0,2.99,0,4.487,0
				c0.35-0.116,0.69-0.28,1.051-0.342c9.744-1.671,17.395-6.617,21.778-15.487c6.305-12.763,6.16-20.898,1.97-34.143
				c-2.275-7.192-6.272-13.827-9.257-20.816c-2.747-6.433-5.49-12.903-7.597-19.56c-0.916-2.901-0.317-6.308-0.24-9.482
				c0.024-1.157,0.825-1.739,2.159-1.634c2.159,0.17,4.332,0.156,6.498,0.194c18.754,0.343,37.504,0.759,56.221-1.08
				c24.507-4.547,30.574-13.648,19.896-37.882C263.854,146.062,276.519,143.961,273.848,128.394z"/>
		</g>
		<path d="M75,54.227C75,48.026,69.974,43,63.774,43H36.226C30.026,43,25,48.026,25,54.227v100.547
			c0,6.2,5.026,11.227,11.226,11.227h27.549c6.2,0,11.226-5.026,11.226-11.227V54.227z"/>
	</g>
</g>
</svg>
