<?xml version="1.0" encoding="utf-8"?>
<!-- Generator: Adobe Illustrator 16.0.0, SVG Export Plug-In . SVG Version: 6.00 Build 0)  -->
<!DOCTYPE svg PUBLIC "-//W3C//DTD SVG 1.1//EN" "http://www.w3.org/Graphics/SVG/1.1/DTD/svg11.dtd">
<svg version="1.1" id="Layer_1" xmlns="http://www.w3.org/2000/svg" xmlns:xlink="http://www.w3.org/1999/xlink" x="0px" y="0px"
	 width="300px" height="300px" viewBox="0 0 300 300" style="enable-background:new 0 0 300 300;" xml:space="preserve">
<g id="Restricted">
</g>
<g id="Help">
	<g>
		<path d="M259.879,148.495c0-0.639,0-1.284,0-1.93c-1.171-1.814-2.257-3.693-3.534-5.429c-1.137-1.551-2.43-2.998-3.752-4.393
			c-2.628-2.786-3.135-5.875-1.696-9.402c1.161-2.844,2.152-5.761,3.278-8.63c1.36-3.452,0.794-6.609-1.615-9.327
			c-2.594-2.926-5.349-5.716-8.076-8.521c-1.939-1.982-2.978-4.263-2.795-7.097c0.127-1.983-0.021-3.979,0.086-5.969
			c0.139-2.573-0.699-4.788-2.188-6.815c-3.547-4.83-7.938-8.744-13.09-11.751c-1.582-0.935-3.35-1.843-5.124-2.078
			c-6.728-0.896-13.486-2.023-20.244-2.119c-11.551-0.155-23.117,0.227-34.663,0.712c-8.012,0.332-16.085,0.675-23.986,1.935
			c-14.942,2.388-29.772,5.499-44.666,8.169c-2.029,0.36-2.528,1.04-2.524,3.036c0.073,29.73,0.055,59.472,0.055,89.214
			c0,0.807,0,1.618,0,2.644c1.019,0,1.777,0.058,2.522-0.012c4.283-0.395,7.732,1.364,10.812,4.125
			c4.307,3.862,7.564,8.541,10.58,13.414c6.073,9.802,10.738,20.293,14.875,31.01c2.475,6.415,6.521,11.395,11.869,15.527
			c2.33,1.803,4.626,3.684,6.748,5.728c5.848,5.638,8.73,12.882,10.722,20.546c2.436,9.357,3.465,18.935,4.087,28.544
			c0.188,2.947,1.168,4.717,4.032,5.374c1.284,0,2.569,0,3.855,0c0.301-0.099,0.594-0.24,0.903-0.293
			c8.372-1.437,14.945-5.686,18.712-13.307c5.417-10.966,5.293-22.556,1.692-33.937c-1.955-6.18-5.39-11.88-7.954-17.885
			c-2.359-5.527-4.717-11.087-6.526-16.807c-0.787-2.492-0.273-5.42-0.207-8.146c0.021-0.995,0.709-1.495,1.855-1.404
			c1.855,0.146,3.722,0.135,5.583,0.167c16.113,0.295,32.224,0.652,48.306-0.928c5.221-0.516,9.58-2.396,13.083-6.432
			c4.094-4.718,7.261-9.894,8.985-15.918c0-0.899,0-1.799,0-2.698c-1.639-2.517-3.027-5.252-4.974-7.501
			c-3.191-3.689-3.294-7.291-0.68-11.2c0.391-0.586,0.747-1.194,1.085-1.818C256.84,154.098,258.356,151.295,259.879,148.495z"/>
		<path style="fill-rule:evenodd;clip-rule:evenodd;" d="M40.121,167.772c0.773,1.461,1.361,3.062,2.355,4.356
			c1.862,2.412,4.578,3.189,7.519,3.196c8.735,0.021,17.46,0.064,26.195-0.013c6.271-0.05,9.941-3.734,9.948-10
			c0.029-28.64,0.032-57.279-0.002-85.918c-0.008-6.317-3.796-9.93-10.183-9.939c-7.964-0.012-15.933,0.187-23.889-0.073
			c-5.811-0.195-9.97,1.681-11.944,7.405C40.121,107.115,40.121,137.444,40.121,167.772z"/>
		<path style="fill-rule:evenodd;clip-rule:evenodd;fill:#FFFFFF;" d="M259.879,148.495c-1.522,2.8-3.039,5.603-4.568,8.398
			c-0.338,0.624-0.694,1.232-1.085,1.818c-2.614,3.909-2.512,7.511,0.68,11.2c1.946,2.249,3.335,4.984,4.974,7.501
			C259.879,167.772,259.879,158.132,259.879,148.495z"/>
	</g>
</g>
</svg>
