<svg class="icon icon-trash-open" height="16" viewBox="0 0 13 16" version="1.1" aria-hidden="true">
    <path
      d="M12.72,1.87A.6.6,0,0,0,12,1.36L9.68,1.7,9.51.51A.6.6,0,0,0,8.82,0L3.5.76A.6.6,0,0,0,3,1.43l.17,1.19L.79,3A.6.6,0,1,0,1,4.14l11.26-1.6A.6.6,0,0,0,12.72,1.87Zm-8.38.58-.08-.59,4.15-.59.08.59Z"/>
    <path
      d="M11.73,5a.3.3,0,0,0-.3-.3H1.91a.3.3,0,0,0-.3.3V15.7a.3.3,0,0,0,.3.3h9.52a.3.3,0,0,0,.3-.3ZM4.5,13.68a.27.27,0,1,1-.54,0V7.09a.27.27,0,1,1,.54,0Zm2.41,0a.27.27,0,1,1-.54,0V7.09a.27.27,0,1,1,.54,0Zm2.48,0a.34.34,0,0,1-.68,0V7.09a.34.34,0,0,1,.68,0Z"/>
</svg>
