<?xml version="1.0" encoding="utf-8"?>
<!-- Generator: Adobe Illustrator 18.1.1, SVG Export Plug-In . SVG Version: 6.00 Build 0)  -->
<!DOCTYPE svg PUBLIC "-//W3C//DTD SVG 1.1//EN" "http://www.w3.org/Graphics/SVG/1.1/DTD/svg11.dtd">
<svg version="1.1" xmlns="http://www.w3.org/2000/svg" xmlns:xlink="http://www.w3.org/1999/xlink" x="0px" y="0px"
	 viewBox="0 0 512 512" enable-background="new 0 0 512 512" xml:space="preserve">
<g id="Layer_1">
	<g>
		<path d="M399.1,130H339v-29c0-8.3-6.7-13-14.9-13H190c-8.3,0-16,4.7-16,13v29h-58.8c-8.3,0-14.9,7.2-14.9,15.5S107,161,115.2,161
			h283.9c8.3,0,14.9-7.2,14.9-15.5S407.4,130,399.1,130z M310,130H205v-14h105V130z"/>
		<path d="M374.5,175H136.5c-4.1,0-7.5,3.3-7.5,7.5v268.1c0,4.1,3.3,7.5,7.5,7.5h238.1c4.1,0,7.5-3.3,7.5-7.5V182.5
			C382,178.3,378.7,175,374.5,175z M205,400c0,4.1-2.9,7.5-7,7.5s-7-3.3-7-7.5V235.6c0-4.1,2.9-7.5,7-7.5s7,3.3,7,7.5V400z M265,400
			c0,4.1-3.4,7.5-7.5,7.5s-7.5-3.3-7.5-7.5V235.6c0-4.1,3.4-7.5,7.5-7.5s7.5,3.3,7.5,7.5V400z M324,400c0,4.1-2.9,7.5-7,7.5
			s-7-3.3-7-7.5V235.6c0-4.1,2.9-7.5,7-7.5s7,3.3,7,7.5V400z"/>
	</g>
</g>
<g id="Layer_2">
</g>
</svg>
