<?xml version="1.0" encoding="utf-8"?>
<!-- Generator: Adobe Illustrator 18.1.1, SVG Export Plug-In . SVG Version: 6.00 Build 0)  -->
<!DOCTYPE svg PUBLIC "-//W3C//DTD SVG 1.1//EN" "http://www.w3.org/Graphics/SVG/1.1/DTD/svg11.dtd">
<svg version="1.1" xmlns="http://www.w3.org/2000/svg" xmlns:xlink="http://www.w3.org/1999/xlink" x="0px" y="0px"
	 viewBox="0 0 512 512" enable-background="new 0 0 512 512" xml:space="preserve">
<g id="Layer_1">
	<g>
		<path d="M439.2,61.1c-1.4-9.6-10.3-16.3-19.9-15L349.5,56l-5-35.1c-1.4-9.6-10.7-16.1-20.3-14.7L167.8,28.4
			c-9.6,1.4-16.5,10.1-15.1,19.7l5,35.1l-69.8,9.9c-9.6,1.4-16.3,10.3-15,19.9c1.4,9.6,10.3,16.3,19.9,15l331.4-47
			C433.8,79.6,440.5,70.7,439.2,61.1z M192.5,78.2L190,60.8l122.1-17.3l2.5,17.4L192.5,78.2z"/>
		<path d="M410,151.8c0-4.9-3.9-8.8-8.8-8.8H120.8c-4.9,0-8.8,3.9-8.8,8.8v316.4c0,4.9,3.9,8.8,8.8,8.8h280.4c4.9,0,8.8-3.9,8.8-8.8
			V151.8z M197,408.6c0,4.9-3.1,8.8-8,8.8s-8-3.9-8-8.8V214.8c0-4.9,3.1-8.8,8-8.8s8,3.9,8,8.8V408.6z M268,408.6
			c0,4.9-3.1,8.8-8,8.8c-4.9,0-8-3.9-8-8.8V214.8c0-4.9,3.1-8.8,8-8.8c4.9,0,8,3.9,8,8.8V408.6z M341,408.6c0,4.9-5.1,8.8-10,8.8
			s-10-3.9-10-8.8V214.8c0-4.9,5.1-8.8,10-8.8s10,3.9,10,8.8V408.6z"/>
	</g>
</g>
<g id="Layer_2">
</g>
</svg>
