<?xml version="1.0" encoding="utf-8"?>
<!-- Generator: Adobe Illustrator 18.1.1, SVG Export Plug-In . SVG Version: 6.00 Build 0)  -->
<!DOCTYPE svg PUBLIC "-//W3C//DTD SVG 1.1//EN" "http://www.w3.org/Graphics/SVG/1.1/DTD/svg11.dtd">
<svg version="1.1" xmlns="http://www.w3.org/2000/svg" xmlns:xlink="http://www.w3.org/1999/xlink" x="0px" y="0px"
	 viewBox="0 0 512 512" enable-background="new 0 0 512 512" xml:space="preserve">
<g id="Layer_1">
	<g>
		<g>
			<path d="M430.6,73H358V36.1c0-10.2-9.6-16.1-19.7-16.1H173.4c-10.1,0-19.4,5.9-19.4,16.1V73H81.4C71.3,73,63,81.8,63,92
				s8.2,19,18.4,19h349.2c10.1,0,18.4-8.8,18.4-19S440.7,73,430.6,73z M321,73H192V55h129V73z"/>
		</g>
		<path d="M405,167.8c0-4.9-3.9-8.8-8.8-8.8H115.8c-4.9,0-8.8,3.9-8.8,8.8v316.4c0,4.9,3.9,8.8,8.8,8.8h280.4c4.9,0,8.8-3.9,8.8-8.8
			V167.8z M192,424.1c0,4.9-3.1,8.8-8,8.8s-8-3.9-8-8.8V230.3c0-4.9,3.1-8.8,8-8.8s8,3.9,8,8.8V424.1z M263,424.1
			c0,4.9-3.1,8.8-8,8.8c-4.9,0-8-3.9-8-8.8V230.3c0-4.9,3.1-8.8,8-8.8c4.9,0,8,3.9,8,8.8V424.1z M336,424.1c0,4.9-5.1,8.8-10,8.8
			s-10-3.9-10-8.8V230.3c0-4.9,5.1-8.8,10-8.8s10,3.9,10,8.8V424.1z"/>
	</g>
</g>
<g id="Layer_2">
</g>
</svg>
