<svg class="icon icon-trash" height="16" viewBox="0 0 14 16" version="1.1" aria-hidden="true">
    <path
      d="M13.18,1.88H10.61V.55c0-.36-.34-.55-.7-.55H4.08c-.36,0-.69.19-.69.55V1.88H.82a.67.67,0,0,0,0,1.35H13.18a.67.67,0,0,0,0-1.35Zm-3.88,0H4.73V1.24H9.3Z"/>
    <path
      d="M12.27,4.49A.31.31,0,0,0,12,4.18H2a.31.31,0,0,0-.31.31v11.2A.31.31,0,0,0,2,16H12a.31.31,0,0,0,.31-.31ZM4.73,13.54a.28.28,0,1,1-.57,0V6.68a.28.28,0,1,1,.57,0Zm2.51,0a.28.28,0,1,1-.57,0V6.68a.28.28,0,1,1,.57,0Zm2.58,0a.36.36,0,0,1-.71,0V6.68a.36.36,0,0,1,.71,0Z"/>
</svg>
