<?xml version="1.0" encoding="utf-8"?>
<!-- Generator: Adobe Illustrator 18.1.1, SVG Export Plug-In . SVG Version: 6.00 Build 0)  -->
<!DOCTYPE svg PUBLIC "-//W3C//DTD SVG 1.1//EN" "http://www.w3.org/Graphics/SVG/1.1/DTD/svg11.dtd">
<svg version="1.1" xmlns="http://www.w3.org/2000/svg" xmlns:xlink="http://www.w3.org/1999/xlink" x="0px" y="0px"
	 viewBox="0 0 512 512" enable-background="new 0 0 512 512" xml:space="preserve">
<g id="Layer_1">
	<g>
		<g>
			<path d="M430.6,78H358V40.6c0-10.2-9.6-15.6-19.7-15.6H173.4c-10.1,0-19.4,5.4-19.4,15.6V78H81.4C71.3,78,63,86.8,63,97
				s8.2,19,18.4,19h349.2c10.1,0,18.4-8.8,18.4-19S440.7,78,430.6,78z M321,78H192V60h129V78z"/>
		</g>
		<path d="M405,151.8c0-4.9-3.9-8.8-8.8-8.8H115.8c-4.9,0-8.8,3.9-8.8,8.8v316.4c0,4.9,3.9,8.8,8.8,8.8h280.4c4.9,0,8.8-3.9,8.8-8.8
			V151.8z M192,407.6c0,4.9-3.1,8.8-8,8.8s-8-3.9-8-8.8V213.8c0-4.9,3.1-8.8,8-8.8s8,3.9,8,8.8V407.6z M263,407.6
			c0,4.9-3.1,8.8-8,8.8c-4.9,0-8-3.9-8-8.8V213.8c0-4.9,3.1-8.8,8-8.8c4.9,0,8,3.9,8,8.8V407.6z M336,407.6c0,4.9-5.1,8.8-10,8.8
			s-10-3.9-10-8.8V213.8c0-4.9,5.1-8.8,10-8.8s10,3.9,10,8.8V407.6z"/>
	</g>
</g>
<g id="Layer_2">
</g>
</svg>
