<?xml version="1.0" encoding="utf-8"?>
<!-- Generator: Adobe Illustrator 18.1.1, SVG Export Plug-In . SVG Version: 6.00 Build 0)  -->
<!DOCTYPE svg PUBLIC "-//W3C//DTD SVG 1.1//EN" "http://www.w3.org/Graphics/SVG/1.1/DTD/svg11.dtd">
<svg version="1.1" xmlns="http://www.w3.org/2000/svg" xmlns:xlink="http://www.w3.org/1999/xlink" x="0px" y="0px"
	 viewBox="0 0 512 512" enable-background="new 0 0 512 512" xml:space="preserve">
<g id="Layer_1">
	<g>
		<path d="M417.8,80.6c-1.2-8.2-8.7-13.9-16.9-12.7l-59.2,8.4l-4.2-29.8c-1.2-8.2-9-13.6-17.2-12.5L187.6,52.9
			c-8.2,1.2-14,8.5-12.8,16.7l4.2,29.8l-59.2,8.4c-8.2,1.2-13.9,8.7-12.7,16.9c1.2,8.2,8.7,13.9,16.9,12.7l281.1-39.8
			C413.3,96.3,418.9,88.8,417.8,80.6z M208.6,95.2l-2.1-14.8L310,65.7l2.1,14.8L208.6,95.2z"/>
		<path d="M386.5,175H148.5c-4.1,0-7.5,3.3-7.5,7.5v268.1c0,4.1,3.3,7.5,7.5,7.5h238.1c4.1,0,7.5-3.3,7.5-7.5V182.5
			C394,178.3,390.7,175,386.5,175z M213,400c0,4.1-2.9,7.5-7,7.5s-7-3.3-7-7.5V235.6c0-4.1,2.9-7.5,7-7.5s7,3.3,7,7.5V400z M273,400
			c0,4.1-2.9,7.5-7,7.5s-7-3.3-7-7.5V235.6c0-4.1,2.9-7.5,7-7.5s7,3.3,7,7.5V400z M335,400c0,4.1-4.4,7.5-8.5,7.5s-8.5-3.3-8.5-7.5
			V235.6c0-4.1,4.4-7.5,8.5-7.5s8.5,3.3,8.5,7.5V400z"/>
	</g>
</g>
<g id="Layer_2">
</g>
</svg>
