<?xml version="1.0" encoding="utf-8"?>
<!-- Generator: Adobe Illustrator 18.1.1, SVG Export Plug-In . SVG Version: 6.00 Build 0)  -->
<!DOCTYPE svg PUBLIC "-//W3C//DTD SVG 1.1//EN" "http://www.w3.org/Graphics/SVG/1.1/DTD/svg11.dtd">
<svg version="1.1" id="Layer_1" xmlns="http://www.w3.org/2000/svg" xmlns:xlink="http://www.w3.org/1999/xlink" x="0px" y="0px"
	 viewBox="0 0 512 512" enable-background="new 0 0 512 512" xml:space="preserve">
<path d="M397.7,460.9c-19.7,9.2-37.5,15.8-53.4,19.5c-15.9,3.7-33.2,5.6-51.7,5.6c-21,0-39.6-2.6-55.8-8
	c-16.1-5.3-29.9-12.9-41.3-22.7c-11.4-9.8-19.3-20.3-23.7-31.4c-4.4-11.1-6.6-27.1-6.6-48.1V214.5h-50.8v-65.1
	c18.1-5.9,33.6-14.3,46.4-25.3c12.9-10.9,23.2-24.1,31-39.5c7.8-15.4,13.2-34.9,16.1-58.6h65.4v116.3h109.2v72.2H273.3v118
	c0,26.7,1.4,43.8,4.2,51.4c2.8,7.6,8.1,13.6,15.8,18.1c10.2,6.1,21.8,9.2,34.9,9.2c23.3,0,46.4-7.6,69.5-22.7L397.7,460.9
	L397.7,460.9z"/>
</svg>
