<?xml version="1.0" encoding="utf-8"?>
<!-- Generator: Adobe Illustrator 18.1.1, SVG Export Plug-In . SVG Version: 6.00 Build 0)  -->
<!DOCTYPE svg PUBLIC "-//W3C//DTD SVG 1.1//EN" "http://www.w3.org/Graphics/SVG/1.1/DTD/svg11.dtd">
<svg version="1.1" xmlns="http://www.w3.org/2000/svg" xmlns:xlink="http://www.w3.org/1999/xlink" x="0px" y="0px"
	 viewBox="0 0 512 512" enable-background="new 0 0 512 512" xml:space="preserve">
<g id="Layer_1">
	<path d="M453,76h-43.6c-9.2-26-33.9-45.2-63.2-45.2S292.1,50,283,76H64v45h219.2c9.4,26,33.9,44.3,62.9,44.3s53.5-18.3,62.9-44.3
		H453V76z M346.2,120.2c-12.3,0-22.4-10-22.4-22.4s10-22.4,22.4-22.4c12.3,0,22.4,10,22.4,22.4S358.5,120.2,346.2,120.2z"/>
	<path d="M453,242H237.5c-9.2-28-33.9-45.2-63.2-45.2s-54,17.2-63.2,45.2H64v42h47.4c9.4,28,33.9,44.3,62.9,44.3
		s53.5-16.3,62.9-44.3H453V242z M174.3,284.6c-12.3,0-22.4-10-22.4-22.4c0-12.3,10-22.4,22.4-22.4c12.3,0,22.4,10,22.4,22.4
		C196.7,274.5,186.7,284.6,174.3,284.6z"/>
	<path d="M453,404h-43.6c-9.2-30-33.9-45.2-63.2-45.2S292.1,374,283,404H64v46h219.2c9.4,31,33.9,44.3,62.9,44.3
		s53.5-13.3,62.9-44.3H453V404z M346.2,449.4c-12.3,0-22.4-10-22.4-22.4c0-12.3,10-22.4,22.4-22.4c12.3,0,22.4,10,22.4,22.4
		C368.5,439.4,358.5,449.4,346.2,449.4z"/>
</g>
<g id="Layer_2">
</g>
</svg>
