<?xml version="1.0" encoding="utf-8"?>
<!-- Generator: Adobe Illustrator 18.1.1, SVG Export Plug-In . SVG Version: 6.00 Build 0)  -->
<!DOCTYPE svg PUBLIC "-//W3C//DTD SVG 1.1//EN" "http://www.w3.org/Graphics/SVG/1.1/DTD/svg11.dtd">
<svg version="1.1" xmlns="http://www.w3.org/2000/svg" xmlns:xlink="http://www.w3.org/1999/xlink" x="0px" y="0px"
	 viewBox="0 0 512 512" enable-background="new 0 0 512 512" xml:space="preserve">
<g id="Layer_1">
	<g>
		<path d="M466,54h-47.1c-9.9-28-36.5-48.8-68.2-48.8S292.5,26,282.6,54H46v49h236.9c10.1,28,36.6,47.8,67.9,47.8
			s57.7-19.8,67.9-47.8H466V54z M350.8,102.3c-13.3,0-24.1-10.8-24.1-24.1S337.5,54,350.8,54c13.3,0,24.1,10.8,24.1,24.1
			S364.1,102.3,350.8,102.3z"/>
		<path d="M466,233H233.6c-9.9-30-36.6-48.8-68.2-48.8S107.1,203,97.3,233H46v45h51.6c10.1,31,36.6,47.8,67.9,47.8
			s57.7-16.8,67.9-47.8H466V233z M165.4,279.6c-13.3,0-24.1-10.8-24.1-24.1s10.8-24.1,24.1-24.1c13.3,0,24.1,10.8,24.1,24.1
			S178.7,279.6,165.4,279.6z"/>
		<path d="M466,408h-47.1c-9.9-32-36.5-48.8-68.2-48.8S292.5,376,282.6,408H46v50h236.9c10.1,33,36.6,47.8,67.9,47.8
			s57.7-14.8,67.9-47.8H466V408z M350.8,457.4c-13.3,0-24.1-10.8-24.1-24.1c0-13.3,10.8-24.1,24.1-24.1c13.3,0,24.1,10.8,24.1,24.1
			C374.9,446.6,364.1,457.4,350.8,457.4z"/>
	</g>
</g>
<g id="Layer_2">
</g>
</svg>
