<svg class="icon icon-tuning" height="16" viewBox="0 0 14 16" version="1.1" aria-hidden="true">
    <path d="M13.71,1.56h-1.5a2.3,2.3,0,0,0-4.36,0H.29V3.13H7.86a2.3,2.3,0,0,0,4.34,0h1.51ZM10,3.1a.77.77,0,1,1,.77-.77A.77.77,0,0,1,10,3.1Z"/>
    <path
      d="M13.71,7.28H6.28A2.24,2.24,0,0,0,4.11,5.72,2.24,2.24,0,0,0,1.93,7.28H.29V8.72H1.94a2.18,2.18,0,0,0,2.17,1.53A2.18,2.18,0,0,0,6.27,8.72h7.44ZM4.11,8.77A.77.77,0,1,1,4.88,8,.77.77,0,0,1,4.11,8.77Z"/>
    <path
      d="M13.71,12.87h-1.5A2.17,2.17,0,0,0,10,11.31a2.17,2.17,0,0,0-2.18,1.56H.29v1.6H7.86A2.11,2.11,0,0,0,10,16a2.11,2.11,0,0,0,2.17-1.53h1.51ZM10,14.45a.77.77,0,1,1,.77-.77A.77.77,0,0,1,10,14.45Z"/>
</svg>
