<?xml version="1.0" encoding="utf-8"?>
<!-- Generator: Adobe Illustrator 18.1.1, SVG Export Plug-In . SVG Version: 6.00 Build 0)  -->
<!DOCTYPE svg PUBLIC "-//W3C//DTD SVG 1.1//EN" "http://www.w3.org/Graphics/SVG/1.1/DTD/svg11.dtd">
<svg version="1.1" id="Layer_1" xmlns="http://www.w3.org/2000/svg" xmlns:xlink="http://www.w3.org/1999/xlink" x="0px" y="0px"
	 viewBox="0 0 512 512" enable-background="new 0 0 512 512" xml:space="preserve">
<path d="M506,100.8c-18.4,8.2-38.1,13.7-58.9,16.2c21.2-12.7,37.5-32.8,45.1-56.8c-19.8,11.8-41.7,20.3-65.2,24.9
	c-18.8-20-45.5-32.5-74.9-32.5c-56.7,0-102.6,46-102.6,102.7c0,8.1,0.8,15.9,2.6,23.4c-85.3-4.2-160.9-45.1-211.5-107.3
	c-8.8,15.2-13.9,32.8-13.9,51.6c0,35.6,18.2,67.1,45.8,85.5c-17-0.4-32.8-5.1-46.6-12.8c0,0.4,0,0.8,0,1.3
	c0,49.8,35.4,91.2,82.3,100.7c-8.6,2.3-17.7,3.6-27,3.6c-6.6,0-13-0.6-19.3-1.9c13,40.8,51,70.5,95.9,71.3
	c-35.1,27.5-79.4,44-127.5,44c-8.3,0-16.4-0.5-24.5-1.5c45.2,29.5,99.2,46.4,157,46.4c188.9,0,292.1-156.5,292.1-292.2
	c0-4.5-0.1-8.9-0.3-13.2C474.8,139.4,492.2,121.4,506,100.8z"/>
</svg>
