<?xml version="1.0" encoding="utf-8"?>
<!-- Generator: Adobe Illustrator 18.1.1, SVG Export Plug-In . SVG Version: 6.00 Build 0)  -->
<!DOCTYPE svg PUBLIC "-//W3C//DTD SVG 1.1//EN" "http://www.w3.org/Graphics/SVG/1.1/DTD/svg11.dtd">
<svg version="1.1" id="Layer_1" xmlns="http://www.w3.org/2000/svg" xmlns:xlink="http://www.w3.org/1999/xlink" x="0px" y="0px"
	 viewBox="0 0 512 512" enable-background="new 0 0 512 512" xml:space="preserve">
<path d="M486.4,113.8c-16.8,7.4-34.8,12.5-53.8,14.8c19.3-11.6,34.2-30,41.2-51.8c-18.1,10.7-38.1,18.6-59.5,22.7
	c-17.1-18.3-41.5-29.7-68.4-29.7c-51.7,0-93.6,42-93.6,93.7c0,7.4,0.8,14.5,2.4,21.4c-77.9-3.9-146.9-41.2-193.1-98
	c-8,13.8-12.7,30-12.7,47.1c0,32.5,16.6,61.2,41.8,78.1c-15.5-0.4-30-4.6-42.6-11.7c0,0.4,0,0.8,0,1.2c0,45.5,32.3,83.3,75.2,91.9
	c-7.8,2.1-16.2,3.3-24.7,3.3c-6,0-11.9-0.6-17.6-1.7c11.9,37.2,46.5,64.3,87.5,65.1c-32,25.1-72.4,40.1-116.4,40.1
	c-7.5,0-15-0.5-22.3-1.4c41.3,26.9,90.5,42.4,143.4,42.4c172.5,0,266.7-142.9,266.7-266.8c0-4.1-0.1-8.1-0.3-12.1
	C458,149.1,473.9,132.6,486.4,113.8z"/>
</svg>
