<?xml version="1.0" encoding="utf-8"?>
<!-- Generator: Adobe Illustrator 18.1.1, SVG Export Plug-In . SVG Version: 6.00 Build 0)  -->
<!DOCTYPE svg PUBLIC "-//W3C//DTD SVG 1.1//EN" "http://www.w3.org/Graphics/SVG/1.1/DTD/svg11.dtd">
<svg version="1.1" id="Layer_1" xmlns="http://www.w3.org/2000/svg" xmlns:xlink="http://www.w3.org/1999/xlink" x="0px" y="0px"
	 viewBox="0 0 512 512" enable-background="new 0 0 512 512" xml:space="preserve">
<path d="M486,113.2c-17,7.5-35.1,12.6-54.2,14.9c19.5-11.7,34.5-30.2,41.5-52.2c-18.2,10.8-38.4,18.7-59.9,22.9
	c-17.3-18.4-41.8-29.9-68.9-29.9c-52.2,0-94.4,42.3-94.4,94.5c0,7.4,0.8,14.6,2.4,21.5c-78.5-3.9-148.1-41.5-194.6-98.7
	c-8.1,13.9-12.8,30.2-12.8,47.5c0,32.8,16.8,61.7,42.1,78.7c-15.6-0.4-30.2-4.7-42.9-11.8c0,0.4,0,0.8,0,1.2
	c0,45.8,32.6,83.9,75.7,92.6c-7.9,2.1-16.3,3.3-24.9,3.3c-6,0-12-0.6-17.7-1.8c12,37.5,46.9,64.8,88.2,65.6
	c-32.3,25.3-73,40.5-117.3,40.5c-7.6,0-15.1-0.5-22.5-1.4c41.6,27.1,91.2,42.7,144.5,42.7c173.8,0,268.7-144,268.7-268.8
	c0-4.1-0.1-8.2-0.3-12.2C457.3,148.8,473.3,132.2,486,113.2z"/>
</svg>
