<svg class="icon icon-twitter" height="16" viewBox="0 0 16 16" version="1.1" aria-hidden="true">
    <path
      d="M16,3a6.64,6.64,0,0,1-1.89.52,3.29,3.29,0,0,0,1.44-1.82,6.52,6.52,0,0,1-2.09.8A3.28,3.28,0,0,0,7.79,4.78a3.21,3.21,0,0,0,.08.75A9.3,9.3,0,0,1,1.11,2.09a3.3,3.3,0,0,0,1,4.39,3.27,3.27,0,0,1-1.5-.41v0A3.29,3.29,0,0,0,3.27,9.33a3.28,3.28,0,0,1-.86.12,3.08,3.08,0,0,1-.62-.06,3.29,3.29,0,0,0,3.07,2.28A6.58,6.58,0,0,1,.78,13.07,6.65,6.65,0,0,1,0,13a9.18,9.18,0,0,0,5,1.49,9.28,9.28,0,0,0,9.35-9.35c0-.14,0-.28,0-.42A6.68,6.68,0,0,0,16,3Z"/>
</svg>
