<?xml version="1.0" encoding="utf-8"?>
<!-- Generator: Adobe Illustrator 18.1.1, SVG Export Plug-In . SVG Version: 6.00 Build 0)  -->
<!DOCTYPE svg PUBLIC "-//W3C//DTD SVG 1.1//EN" "http://www.w3.org/Graphics/SVG/1.1/DTD/svg11.dtd">
<svg version="1.1" xmlns="http://www.w3.org/2000/svg" xmlns:xlink="http://www.w3.org/1999/xlink" x="0px" y="0px"
	 viewBox="0 0 512 512" enable-background="new 0 0 512 512" xml:space="preserve">
<g id="Layer_1">
	<g>
		<path d="M480,294.3c-14.2,0-26,11.5-26,25.8V438H58V320.1c0-14.2-11.8-25.8-26-25.8S6,305.9,6,320.1V490h500V320.1
			C506,305.9,494.2,294.3,480,294.3z"/>
		<path d="M189.1,152.5l42.9-43.6v271c0,14.2,11.8,25.8,26,25.8s26-11.5,26-25.8V111.5l40.6,41c5,5.1,11.7,7.6,18.3,7.6
			c6.6,0,13.1-2.5,18.1-7.5c10.1-10,10.2-26.3,0.2-36.4l-86-86.8c-9.7-9.8-26.9-9.8-36.6,0l-86,86.8c-10,10.1-10.1,26.4,0.1,36.4
			C162.9,162.7,179.1,162.6,189.1,152.5z"/>
	</g>
</g>
<g id="Layer_2">
</g>
</svg>
