<?xml version="1.0" encoding="utf-8"?>
<!-- Generator: Adobe Illustrator 18.1.1, SVG Export Plug-In . SVG Version: 6.00 Build 0)  -->
<!DOCTYPE svg PUBLIC "-//W3C//DTD SVG 1.1//EN" "http://www.w3.org/Graphics/SVG/1.1/DTD/svg11.dtd">
<svg version="1.1" xmlns="http://www.w3.org/2000/svg" xmlns:xlink="http://www.w3.org/1999/xlink" x="0px" y="0px"
	 viewBox="0 0 512 512" enable-background="new 0 0 512 512" xml:space="preserve">
<g id="Layer_1">
	<path d="M256,6C118.1,6,6,118.1,6,256c0,137.8,112.1,250,250,250c137.9,0,250-112.1,250-250C506,118.1,393.9,6,256,6z M356.6,227.1
		l-96,111.6c-5.1,5.9-12.2,8.9-19.4,8.9c-5.9,0-11.7-2-16.6-6.1L172,296.8c-10.8-9.1-12.1-25.3-2.9-36c9.2-10.7,25.3-12.1,36-2.9
		l33.2,28.2l79.4-92.3c9.2-10.7,25.4-11.9,36.1-2.7C364.6,200.2,365.8,216.4,356.6,227.1z"/>
</g>
<g id="Layer_2">
</g>
</svg>
