<?xml version="1.0" encoding="utf-8"?>
<!-- Generator: Adobe Illustrator 16.0.0, SVG Export Plug-In . SVG Version: 6.00 Build 0)  -->
<!DOCTYPE svg PUBLIC "-//W3C//DTD SVG 1.1//EN" "http://www.w3.org/Graphics/SVG/1.1/DTD/svg11.dtd">
<svg version="1.1" id="Layer_1" xmlns="http://www.w3.org/2000/svg" xmlns:xlink="http://www.w3.org/1999/xlink" x="0px" y="0px"
	 width="300px" height="300px" viewBox="0 0 300 300" style="enable-background:new 0 0 300 300;" xml:space="preserve">
<g id="Restricted">
</g>
<g id="Help">
</g>
<path d="M274.5,150l-29.765-30.777l5.983-42.403l-42.169-7.401l-20.08-37.826L150,50.402l-38.469-18.81l-20.08,37.826l-42.17,7.401
	l5.984,42.403L25.5,150l29.766,30.777l-5.984,42.403l42.17,7.401l20.08,37.826L150,249.598l38.47,18.81l20.08-37.826l42.169-7.401
	l-5.983-42.403L274.5,150z M132.48,203.063l-50.985-50.975l27.057-27.034l24.432,26.531l65.837-54.66l19.685,20.046L132.48,203.063z
	"/>
</svg>
