<?xml version="1.0" encoding="utf-8"?>
<!-- Generator: Adobe Illustrator 16.0.0, SVG Export Plug-In . SVG Version: 6.00 Build 0)  -->
<!DOCTYPE svg PUBLIC "-//W3C//DTD SVG 1.1//EN" "http://www.w3.org/Graphics/SVG/1.1/DTD/svg11.dtd">
<svg version="1.1" id="Layer_1" xmlns="http://www.w3.org/2000/svg" xmlns:xlink="http://www.w3.org/1999/xlink" x="0px" y="0px"
	 width="300px" height="300px" viewBox="0 0 300 300" style="enable-background:new 0 0 300 300;" xml:space="preserve">
<g id="Restricted">
</g>
<g id="Help">
</g>
<path d="M295,150l-34.666-35.845l6.969-49.385l-49.112-8.62l-23.387-44.054L150,34.003l-44.803-21.907L81.811,56.15l-49.113,8.62
	l6.97,49.385L5,150l34.667,35.845l-6.97,49.385l49.113,8.62l23.387,44.054L150,265.997l44.804,21.907l23.387-44.054l49.112-8.62
	l-6.969-49.385L295,150z M129.596,211.801l-59.381-59.369l31.512-31.485l28.455,30.9l76.678-63.66l22.926,23.347L129.596,211.801z"
	/>
</svg>
