<?xml version="1.0" encoding="utf-8"?>
<!-- Generator: Adobe Illustrator 18.1.1, SVG Export Plug-In . SVG Version: 6.00 Build 0)  -->
<!DOCTYPE svg PUBLIC "-//W3C//DTD SVG 1.1//EN" "http://www.w3.org/Graphics/SVG/1.1/DTD/svg11.dtd">
<svg version="1.1" xmlns="http://www.w3.org/2000/svg" xmlns:xlink="http://www.w3.org/1999/xlink" x="0px" y="0px"
	 viewBox="0 0 512 512" enable-background="new 0 0 512 512" xml:space="preserve">
<g id="Layer_1">
	<path d="M256,26C144.3,26,53.4,116.9,53.4,228.6c0,70.6,20.5,119.4,66.3,156.5l-0.4,77.7c0,8,4.1,15.5,10.8,19.7
		c3.8,2.4,8,3.5,12.3,3.5c3.5,0,6.9-0.8,10.2-2.4c36.1-17.7,93.3-45.5,108.5-52.6c109.3-2.7,197.5-92.5,197.5-202.5
		C458.6,116.9,367.7,26,256,26z M350.6,249.1c0,3.6-2.6,5.1-5.7,3.4l-32.1-17.6l0.1,23.1c0,7.6-6.2,14.1-13.8,14.1H194.8
		c-7.6,0-13.8-6.5-13.8-14.2l-0.3-65.8c0-7.6,6.2-15,13.8-15h104.2c7.6,0,13.8,7.1,13.8,14.8l0.1,21.3l32.4-17.8
		c3.1-1.7,5.7-0.1,5.7,3.4L350.6,249.1z"/>
</g>
<g id="Layer_2">
</g>
</svg>
