<?xml version="1.0" encoding="utf-8"?>
<!-- Generator: Adobe Illustrator 18.1.1, SVG Export Plug-In . SVG Version: 6.00 Build 0)  -->
<!DOCTYPE svg PUBLIC "-//W3C//DTD SVG 1.1//EN" "http://www.w3.org/Graphics/SVG/1.1/DTD/svg11.dtd">
<svg version="1.1" xmlns="http://www.w3.org/2000/svg" xmlns:xlink="http://www.w3.org/1999/xlink" x="0px" y="0px"
	 viewBox="0 0 512 512" enable-background="new 0 0 512 512" xml:space="preserve">
<g id="Layer_1">
	<path d="M471.5,76.4c-143.4-15.6-287.7-15.6-431.1,0C21.1,78.6,6,96.2,6,115.3c0,93.8,0,187.5,0,281.3c0,19.2,15.3,36.8,34.5,38.9
		c143.4,15.6,287.7,15.6,431.2,0c19.2-2.2,34.4-19.8,34.4-38.9c0-93.8,0-187.5,0-281.3C506,96.2,490.7,78.6,471.5,76.4z
		 M306.8,271.4L225,322.6c-0.7,0.4-5.3,2.6-10.2,2.6c-10.7,0-19.8-8.7-19.8-19.3V203.5c0-10.7,9.1-19.3,19.8-19.3
		c3.5,0,7.1,0.9,10.1,2.7l81.8,51.1c3.6,1.9,9.7,7.7,9.7,16.7C316.4,263.5,310.4,269.3,306.8,271.4z"/>
</g>
<g id="Layer_2">
</g>
</svg>
