<?xml version="1.0" encoding="utf-8"?>
<!-- Generator: Adobe Illustrator 18.1.1, SVG Export Plug-In . SVG Version: 6.00 Build 0)  -->
<!DOCTYPE svg PUBLIC "-//W3C//DTD SVG 1.1//EN" "http://www.w3.org/Graphics/SVG/1.1/DTD/svg11.dtd">
<svg version="1.1" xmlns="http://www.w3.org/2000/svg" xmlns:xlink="http://www.w3.org/1999/xlink" x="0px" y="0px"
	 viewBox="0 0 512 512" enable-background="new 0 0 512 512" xml:space="preserve">
<g id="Layer_1">
	<path d="M449.1,98.8c-128.2-13.9-257.2-13.9-385.4,0C46.5,100.7,33,116.5,33,133.6c0,83.8,0,167.7,0,251.5
		c0,17.1,13.6,32.9,30.8,34.8c128.2,13.9,257.2,13.9,385.5,0c17.2-1.9,30.7-17.7,30.7-34.8c0-83.8,0-167.7,0-251.5
		C480,116.5,466.3,100.7,449.1,98.8z M293.8,270.4l-60.2,37.7c-0.5,0.3-3.7,1.9-7.3,1.9c-7.8,0-14.4-6.4-14.4-14.2v-75.3
		c0-7.8,6.5-14.2,14.4-14.2c2.5,0,5.1,0.7,7.3,2l60.1,37.6c2.6,1.4,7.1,5.7,7.1,12.3C300.9,264.7,296.5,268.9,293.8,270.4z"/>
</g>
<g id="Layer_2">
</g>
</svg>
