<?xml version="1.0" encoding="utf-8"?>
<!-- Generator: Adobe Illustrator 18.1.1, SVG Export Plug-In . SVG Version: 6.00 Build 0)  -->
<!DOCTYPE svg PUBLIC "-//W3C//DTD SVG 1.1//EN" "http://www.w3.org/Graphics/SVG/1.1/DTD/svg11.dtd">
<svg version="1.1" xmlns="http://www.w3.org/2000/svg" xmlns:xlink="http://www.w3.org/1999/xlink" x="0px" y="0px"
	 viewBox="0 0 512 512" enable-background="new 0 0 512 512" xml:space="preserve">
<g id="Layer_1">
	<path d="M258.4,43.1c-108.2,0-196.2,88-196.2,196.2c0,68.4,19.9,115.6,64.2,151.6l-0.4,75.2c0,7.8,3.9,15,10.5,19.1
		c3.6,2.3,7.8,3.4,11.9,3.4c3.4,0,6.7-0.8,9.9-2.3c35-17.1,90.3-44,105.1-50.9c105.9-2.6,191.2-89.6,191.2-196.1
		C454.6,131.1,366.6,43.1,258.4,43.1z M350.1,259.1c0,3.5-2.5,4.9-5.5,3.3l-31.1-17l0.1,22.2c0,7.4-6,13.5-13.4,13.5H199.2
		c-7.4,0-13.4-6.2-13.4-13.6l-0.2-63.3c0-7.4,6-14.1,13.4-14.1h100.9c7.4,0,13.4,6.6,13.4,14l0.1,20.5l31.4-17.3
		c3-1.7,5.5-0.2,5.5,3.3L350.1,259.1z"/>
</g>
<g id="Layer_2">
</g>
</svg>
