<?xml version="1.0" encoding="utf-8"?>
<!-- Generator: Adobe Illustrator 18.1.1, SVG Export Plug-In . SVG Version: 6.00 Build 0)  -->
<!DOCTYPE svg PUBLIC "-//W3C//DTD SVG 1.1//EN" "http://www.w3.org/Graphics/SVG/1.1/DTD/svg11.dtd">
<svg version="1.1" xmlns="http://www.w3.org/2000/svg" xmlns:xlink="http://www.w3.org/1999/xlink" x="0px" y="0px"
	 viewBox="0 0 512 512" enable-background="new 0 0 512 512" xml:space="preserve">
<g id="Layer_1">
	<path d="M256,6C134.6,6,35.8,104.8,35.8,226.2c0,76.7,22.3,129.8,72.1,170.1l-0.4,84.4c0,8.7,4.4,16.8,11.8,21.4
		c4.1,2.6,8.7,3.8,13.4,3.8c3.8,0,7.6-0.8,11.1-2.6c39.2-19.2,101.4-49.4,118-57.1c118.9-2.9,214.7-100.5,214.7-220.1
		C476.2,104.8,377.4,6,256,6z M358.9,248.4c0,3.9-2.8,5.5-6.2,3.7L317.7,233l0.1,24.9c0,8.3-6.7,15.1-15,15.1H189.5
		c-8.3,0-15-6.9-15-15.2l-0.3-71.5c0-8.3,6.7-16.3,15-16.3h113.3c8.3,0,15,7.8,15,16.1l0.1,23.2l35.2-19.4c3.4-1.9,6.2-0.2,6.2,3.7
		L358.9,248.4z"/>
</g>
<g id="Layer_2">
</g>
</svg>
