<?xml version="1.0" encoding="utf-8"?>
<!-- Generator: Adobe Illustrator 18.1.1, SVG Export Plug-In . SVG Version: 6.00 Build 0)  -->
<!DOCTYPE svg PUBLIC "-//W3C//DTD SVG 1.1//EN" "http://www.w3.org/Graphics/SVG/1.1/DTD/svg11.dtd">
<svg version="1.1" xmlns="http://www.w3.org/2000/svg" xmlns:xlink="http://www.w3.org/1999/xlink" x="0px" y="0px"
	 viewBox="0 0 512 512" enable-background="new 0 0 512 512" xml:space="preserve">
<g id="Layer_1">
	<path d="M454.3,90.8c-132-14.3-264.7-14.3-396.7,0C39.9,92.8,26,109,26,126.6c0,86.3,0,172.5,0,258.8c0,17.6,14,33.8,31.7,35.8
		c132,14.3,264.7,14.3,396.7,0c17.7-2,31.6-18.2,31.6-35.8c0-86.3,0-172.5,0-258.8C486,109,471.9,92.8,454.3,90.8z M302.8,270.1
		l-75.3,47.1c-0.7,0.4-4.8,2.4-9.3,2.4c-9.8,0-18.2-8-18.2-17.8v-94.2c0-9.8,8.4-17.8,18.2-17.8c3.2,0,6.5,0.9,9.2,2.5l75.2,47
		c3.3,1.8,8.9,7.1,8.9,15.4C311.5,262.9,306,268.3,302.8,270.1z"/>
</g>
<g id="Layer_2">
</g>
</svg>
