<?xml version="1.0" encoding="utf-8"?>
<!-- Generator: Adobe Illustrator 16.0.0, SVG Export Plug-In . SVG Version: 6.00 Build 0)  -->
<!DOCTYPE svg PUBLIC "-//W3C//DTD SVG 1.1//EN" "http://www.w3.org/Graphics/SVG/1.1/DTD/svg11.dtd">
<svg version="1.1" id="Layer_1" xmlns="http://www.w3.org/2000/svg" xmlns:xlink="http://www.w3.org/1999/xlink" x="0px" y="0px"
	 width="300px" height="300px" viewBox="0 0 300 300" style="enable-background:new 0 0 300 300;" xml:space="preserve">
<path d="M220.363,80.705c0,27.321-22.285,49.605-49.759,49.605s-49.451-22.284-49.451-49.605c0-27.474,21.978-49.604,49.451-49.604
	S220.363,53.231,220.363,80.705z M104.21,80.705c0,27.321-22.132,49.605-49.605,49.605C27.284,130.311,5,108.026,5,80.705
	c0-27.474,22.284-49.604,49.604-49.604C82.078,31.101,104.21,53.231,104.21,80.705z M295,213.953c0,4.426-3.511,9.157-7.784,7.784
	c0,0-36.021-15.874-48.995-21.827c-3.969-1.679-7.783-3.358-7.783-7.785v-25.184c0-4.274,3.51-8.242,7.783-9.311
	c13.126-3.663,48.995-17.095,48.995-17.095c4.578-1.221,7.784,3.358,7.784,7.785V213.953z M210.137,140.537H19.195
	c-7.326,0-13.433,5.342-13.433,12.211v103.942c0,6.716,6.106,12.21,13.433,12.21h190.941c7.479,0,13.431-5.494,13.431-12.21V152.748
	C223.567,145.879,217.615,140.537,210.137,140.537z M131.073,219.295c0,3.663-3.511,6.715-7.478,6.715H40.258
	c-4.121,0-7.325-3.052-7.325-6.715v-38.463c0-3.664,3.204-6.716,7.325-6.716h83.338c3.967,0,7.478,3.052,7.478,6.716V219.295z
	 M182.511,186.173c-3.968,0-7.021-3.052-7.021-6.715s3.054-6.715,7.021-6.715c4.122,0,7.325,3.052,7.325,6.715
	S186.633,186.173,182.511,186.173z"/>
<g id="Restricted">
</g>
<g id="Help">
</g>
</svg>
