<?xml version="1.0" encoding="utf-8"?>
<!-- Generator: Adobe Illustrator 18.1.1, SVG Export Plug-In . SVG Version: 6.00 Build 0)  -->
<!DOCTYPE svg PUBLIC "-//W3C//DTD SVG 1.1//EN" "http://www.w3.org/Graphics/SVG/1.1/DTD/svg11.dtd">
<svg version="1.1" xmlns="http://www.w3.org/2000/svg" xmlns:xlink="http://www.w3.org/1999/xlink" x="0px" y="0px"
	 viewBox="0 0 512 512" enable-background="new 0 0 512 512" xml:space="preserve">
<g id="Layer_1">
	<g>
		<path d="M479.1,252c-46-80.7-136-131.8-223.9-131.8c-87.7,0-177.7,51.1-223.9,131.7c-1.6,2.7-1.6,6,0,8.8
			c46,80.7,136,131.6,223.9,131.6c87.7,0,177.7-50.8,223.9-131.5C480.6,258.1,480.6,254.7,479.1,252z M256,347.1
			c-50.6,0-91.7-41.1-91.7-91.7s41.1-91.7,91.7-91.7s91.7,41.1,91.7,91.7S306.6,347.1,256,347.1z"/>
		<circle cx="256" cy="255.4" r="35.8"/>
	</g>
</g>
<g id="Layer_2">
</g>
</svg>
