<?xml version="1.0" encoding="utf-8"?>
<!-- Generator: Adobe Illustrator 18.1.1, SVG Export Plug-In . SVG Version: 6.00 Build 0)  -->
<!DOCTYPE svg PUBLIC "-//W3C//DTD SVG 1.1//EN" "http://www.w3.org/Graphics/SVG/1.1/DTD/svg11.dtd">
<svg version="1.1" id="Layer_1" xmlns="http://www.w3.org/2000/svg" xmlns:xlink="http://www.w3.org/1999/xlink" x="0px" y="0px"
	 viewBox="0 0 512 512" enable-background="new 0 0 512 512" xml:space="preserve">
<path fill-rule="evenodd" clip-rule="evenodd" d="M250.6,397.4h29.9c0,0,9-1,13.6-6c4.2-4.6,4.1-13.1,4.1-13.1s-0.6-40.1,18-46
	c18.4-5.8,41.9,38.8,66.9,55.9c18.9,13,33.2,10.1,33.2,10.1l66.8-0.9c0,0,34.9-2.2,18.4-29.6c-1.4-2.2-9.6-20.3-49.6-57.4
	c-41.9-38.9-36.3-32.6,14.2-99.8c30.7-40.9,43-65.9,39.2-76.6c-3.7-10.2-26.2-7.5-26.2-7.5l-75.2,0.5c0,0-5.6-0.8-9.7,1.7
	c-4,2.4-6.6,8.1-6.6,8.1s-11.9,31.7-27.8,58.6c-33.5,56.8-46.9,59.9-52.3,56.3c-12.7-8.2-9.5-33-9.5-50.7c0-55.1,8.4-78.1-16.3-84
	c-8.2-2-14.2-3.3-35.1-3.5c-26.8-0.3-49.5,0.1-62.4,6.4c-8.6,4.2-15.2,13.5-11.1,14.1c5,0.7,16.2,3,22.2,11.2
	c7.7,10.5,7.4,34,7.4,34s4.4,64.8-10.3,72.9c-10.1,5.5-24-5.8-53.9-57.3C123,168.2,111.5,139,111.5,139s-2.2-5.5-6.2-8.4
	c-4.8-3.5-11.5-4.7-11.5-4.7l-71.4,0.5c0,0-10.7,0.3-14.7,5c-3.5,4.2-0.3,12.7-0.3,12.7S63.3,275,126.6,340.9
	C184.7,401.4,250.6,397.4,250.6,397.4L250.6,397.4z"/>
</svg>
