<?xml version="1.0" encoding="utf-8"?>
<!-- Generator: Adobe Illustrator 18.1.1, SVG Export Plug-In . SVG Version: 6.00 Build 0)  -->
<!DOCTYPE svg PUBLIC "-//W3C//DTD SVG 1.1//EN" "http://www.w3.org/Graphics/SVG/1.1/DTD/svg11.dtd">
<svg version="1.1" id="Layer_1" xmlns="http://www.w3.org/2000/svg" xmlns:xlink="http://www.w3.org/1999/xlink" x="0px" y="0px"
	 viewBox="0 0 512 512" enable-background="new 0 0 512 512" xml:space="preserve">
<path fill-rule="evenodd" clip-rule="evenodd" d="M251.1,386.1h27.5c0,0,8.3-0.9,12.5-5.5c3.9-4.2,3.8-12.1,3.8-12.1
	s-0.5-36.9,16.6-42.3c16.9-5.4,38.6,35.7,61.5,51.4c17.4,11.9,30.6,9.3,30.6,9.3l61.4-0.9c0,0,32.1-2,16.9-27.2
	c-1.2-2.1-8.9-18.7-45.7-52.8c-38.5-35.8-33.4-30,13-91.8c28.3-37.7,39.6-60.7,36-70.5c-3.4-9.4-24.1-6.9-24.1-6.9l-69.2,0.4
	c0,0-5.1-0.7-8.9,1.6c-3.7,2.2-6.1,7.4-6.1,7.4s-11,29.1-25.5,53.9c-30.8,52.3-43.1,55.1-48.1,51.8c-11.7-7.6-8.8-30.4-8.8-46.6
	c0-50.7,7.7-71.8-15-77.3c-7.5-1.8-13.1-3-32.3-3.2c-24.7-0.3-45.6,0.1-57.4,5.9c-7.9,3.9-13.9,12.4-10.2,12.9
	c4.6,0.6,14.9,2.8,20.4,10.3c7.1,9.6,6.8,31.3,6.8,31.3s4.1,59.7-9.5,67.1c-9.3,5.1-22.1-5.3-49.6-52.7
	c-14.1-24.3-24.7-51.2-24.7-51.2s-2-5-5.7-7.7c-4.4-3.3-10.6-4.3-10.6-4.3L41,136.8c0,0-9.9,0.3-13.5,4.6
	c-3.2,3.8-0.3,11.7-0.3,11.7S78.7,273.5,137,334.1C190.4,389.8,251.1,386.1,251.1,386.1L251.1,386.1z"/>
</svg>
