<svg class="icon icon-vr-headset" height="16" viewBox="0 0 16 16" version="1.1" aria-hidden="true">
    <path
      d="M8,3.36h7.34a.61.61,0,0,1,.64.46A.74.74,0,0,1,16,4q0,4,0,8a.64.64,0,0,1-.65.65H10.26a.37.37,0,0,1-.42-.32c-.17-.62-.33-1.23-.52-1.85a2.39,2.39,0,0,0-.49-1A1,1,0,0,0,8,9.18,1.08,1.08,0,0,0,7,9.82a6.14,6.14,0,0,0-.45,1.25l-.35,1.24a.38.38,0,0,1-.43.32H.64A.64.64,0,0,1,0,12Q0,8,0,4a.6.6,0,0,1,.65-.63Zm3.59,6.31a1.68,1.68,0,1,0,0-3.36,1.68,1.68,0,1,0,0,3.36Zm-7.18,0A1.68,1.68,0,1,0,2.73,8,1.67,1.67,0,0,0,4.41,9.68Z"/>
</svg>
