<?xml version="1.0" encoding="utf-8"?>
<!-- Generator: Adobe Illustrator 16.0.0, SVG Export Plug-In . SVG Version: 6.00 Build 0)  -->
<!DOCTYPE svg PUBLIC "-//W3C//DTD SVG 1.1//EN" "http://www.w3.org/Graphics/SVG/1.1/DTD/svg11.dtd">
<svg version="1.1" id="Layer_1" xmlns="http://www.w3.org/2000/svg" xmlns:xlink="http://www.w3.org/1999/xlink" x="0px" y="0px"
	 width="300px" height="300px" viewBox="0 0 300 300" style="enable-background:new 0 0 300 300;" xml:space="preserve">
<path d="M295,149.838C295,69.767,229.912,5,149.678,5C69.928,5,5,69.767,5,149.838C5,230.072,69.928,295,149.838,295
	C229.75,295,295,230.072,295,149.838z M130.022,51.078h37.539v44.627c0,14.018-4.35,39.633-13.05,77.011h-11.599
	c-8.701-36.894-12.89-62.511-12.89-76.85V51.078z M167.239,242.155c-4.834,4.35-10.633,6.605-17.562,6.605
	c-6.766,0-12.566-2.255-17.561-6.605c-4.833-4.511-7.25-9.666-7.25-16.11c0-6.123,2.417-11.439,7.25-15.79
	c4.995-4.35,10.795-6.766,17.561-6.766c6.928,0,12.728,2.416,17.562,6.766c4.994,4.351,7.41,9.667,7.41,15.79
	C174.649,232.489,172.233,237.644,167.239,242.155z"/>
<g id="Restricted">
</g>
<g id="Help">
</g>
</svg>
