<?xml version="1.0" encoding="utf-8"?>
<!-- Generator: Adobe Illustrator 18.1.1, SVG Export Plug-In . SVG Version: 6.00 Build 0)  -->
<!DOCTYPE svg PUBLIC "-//W3C//DTD SVG 1.1//EN" "http://www.w3.org/Graphics/SVG/1.1/DTD/svg11.dtd">
<svg version="1.1" xmlns="http://www.w3.org/2000/svg" xmlns:xlink="http://www.w3.org/1999/xlink" x="0px" y="0px"
	 viewBox="0 0 512 512" enable-background="new 0 0 512 512" xml:space="preserve">
<g id="Layer_1">
	<path d="M496.8,379.5l-183-315.8c-12.1-20.3-34.2-33-57.8-33c-23.6,0-45.7,12.6-57.9,33.2L15.3,379.3C9.2,389.7,6,401.6,6,413.7
		c0,37,30.1,67.3,67.1,67.3h365.7c37,0,67.2-30.3,67.2-67.3C506,395.3,497.9,381.4,496.8,379.5z M256.1,397.1
		c-9.3,0-16.8-7.5-16.8-16.8c0-9.3,7.5-16.8,16.8-16.8c9.3,0,16.8,7.5,16.8,16.8C272.9,389.5,265.4,397.1,256.1,397.1z M271,316.1
		c0,6.6-5.3,11.9-11.9,11.9h-7.3c-6.6,0-11.9-5.3-11.9-11.9V173.9c0-6.6,5.3-11.9,11.9-11.9h7.3c6.6,0,11.9,5.3,11.9,11.9V316.1z"/>
</g>
<g id="Layer_2">
</g>
</svg>
