<?xml version="1.0" encoding="utf-8"?>
<!-- Generator: Adobe Illustrator 18.1.1, SVG Export Plug-In . SVG Version: 6.00 Build 0)  -->
<!DOCTYPE svg PUBLIC "-//W3C//DTD SVG 1.1//EN" "http://www.w3.org/Graphics/SVG/1.1/DTD/svg11.dtd">
<svg version="1.1" xmlns="http://www.w3.org/2000/svg" xmlns:xlink="http://www.w3.org/1999/xlink" x="0px" y="0px"
	 viewBox="0 0 512 512" enable-background="new 0 0 512 512" xml:space="preserve">
<g id="Layer_1">
	<path d="M477.8,354.7L313.6,71.2c-10.8-18.3-30.7-29.6-51.9-29.6c-21.2,0-41,11.3-52,29.8l-164,283.1c-5.5,9.3-8.4,20.1-8.4,30.9
		c0,33.2,27,60.5,60.3,60.5h328.3c33.2,0,60.3-27.3,60.3-60.5C486.1,369,478.9,356.4,477.8,354.7z M261.7,370.4
		c-8.4,0-15.1-6.8-15.1-15.1c0-8.3,6.8-15.1,15.1-15.1c8.3,0,15.1,6.8,15.1,15.1C276.9,363.7,270.1,370.4,261.7,370.4z M275,298.3
		c0,5.9-4.8,10.7-10.7,10.7h-6.7c-5.9,0-10.7-4.8-10.7-10.7V170.7c0-5.9,4.8-10.7,10.7-10.7h6.7c5.9,0,10.7,4.8,10.7,10.7V298.3z"/>
</g>
<g id="Layer_2">
</g>
</svg>
