<?xml version="1.0" encoding="utf-8"?>
<!-- Generator: Adobe Illustrator 18.1.1, SVG Export Plug-In . SVG Version: 6.00 Build 0)  -->
<!DOCTYPE svg PUBLIC "-//W3C//DTD SVG 1.1//EN" "http://www.w3.org/Graphics/SVG/1.1/DTD/svg11.dtd">
<svg version="1.1" xmlns="http://www.w3.org/2000/svg" xmlns:xlink="http://www.w3.org/1999/xlink" x="0px" y="0px"
	 viewBox="0 0 512 512" enable-background="new 0 0 512 512" xml:space="preserve">
<g id="Layer_1">
	<path d="M477.5,369.6L309.2,79.1c-11.1-18.7-31.5-30.3-53.2-30.3c-21.7,0-42.1,11.6-53.3,30.5L34.6,369.5C29,379,26,390,26,401.1
		c0,34.1,27.7,61.9,61.8,61.9h336.4c34.1,0,61.8-27.9,61.8-61.9C486,384.2,478.6,371.3,477.5,369.6z M256.1,385.8
		c-8.6,0-15.5-6.9-15.5-15.5c0-8.6,6.9-15.5,15.5-15.5c8.6,0,15.5,6.9,15.5,15.5C271.6,378.8,264.6,385.8,256.1,385.8z M270,312.1
		c0,6-4.9,10.9-10.9,10.9h-7.2c-6,0-10.9-4.9-10.9-10.9V180.9c0-6,4.9-10.9,10.9-10.9h7.2c6,0,10.9,4.9,10.9,10.9V312.1z"/>
</g>
<g id="Layer_2">
</g>
</svg>
