<?xml version="1.0" encoding="utf-8"?>
<!-- Generator: Adobe Illustrator 16.0.0, SVG Export Plug-In . SVG Version: 6.00 Build 0)  -->
<!DOCTYPE svg PUBLIC "-//W3C//DTD SVG 1.1//EN" "http://www.w3.org/Graphics/SVG/1.1/DTD/svg11.dtd">
<svg version="1.1" id="Layer_1" xmlns="http://www.w3.org/2000/svg" xmlns:xlink="http://www.w3.org/1999/xlink" x="0px" y="0px"
	 width="300px" height="300px" viewBox="0 0 300 300" style="enable-background:new 0 0 300 300;" xml:space="preserve">
<path d="M150,92.757c-18.84,0-34.298,15.619-34.298,34.298c0,18.838,15.458,34.459,34.298,34.459s34.298-15.621,34.298-34.459
	C184.298,108.376,168.84,92.757,150,92.757z M271.893,127.055C271.893,59.747,217.468,5,150,5
	C82.532,5,28.107,59.747,28.107,127.055c0,53.137,33.814,98.384,80.994,115.13L31.327,295h237.346l-77.773-52.815
	C238.079,225.438,271.893,180.191,271.893,127.055z M91.388,127.055c0-32.365,26.247-58.612,58.612-58.612
	s58.612,26.247,58.612,58.612c0,32.526-26.247,58.612-58.612,58.612S91.388,159.581,91.388,127.055z"/>
<g id="Restricted">
</g>
<g id="Help">
</g>
</svg>
