<?xml version="1.0" encoding="utf-8"?>
<!-- Generator: Adobe Illustrator 16.0.0, SVG Export Plug-In . SVG Version: 6.00 Build 0)  -->
<!DOCTYPE svg PUBLIC "-//W3C//DTD SVG 1.1//EN" "http://www.w3.org/Graphics/SVG/1.1/DTD/svg11.dtd">
<svg version="1.1" id="Layer_1" xmlns="http://www.w3.org/2000/svg" xmlns:xlink="http://www.w3.org/1999/xlink" x="0px" y="0px"
	 width="300px" height="300px" viewBox="0 0 300 300" style="enable-background:new 0 0 300 300;" xml:space="preserve">
<path d="M150,103.613c-15.267,0-27.793,12.657-27.793,27.793c0,15.266,12.526,27.924,27.793,27.924s27.793-12.658,27.793-27.924
	C177.793,116.271,165.267,103.613,150,103.613z M248.775,131.406c0-54.542-44.103-98.906-98.775-98.906
	s-98.775,44.364-98.775,98.906c0,43.06,27.401,79.725,65.633,93.295L53.834,267.5h192.332l-63.023-42.799
	C221.374,211.131,248.775,174.466,248.775,131.406z M102.504,131.406c0-26.227,21.269-47.496,47.496-47.496
	s47.496,21.27,47.496,47.496c0,26.357-21.269,47.496-47.496,47.496S102.504,157.764,102.504,131.406z"/>
<g id="Restricted">
</g>
<g id="Help">
</g>
</svg>
