<?xml version="1.0" encoding="utf-8"?>
<!-- Generator: Adobe Illustrator 19.1.0, SVG Export Plug-In . SVG Version: 6.00 Build 0)  -->
<!DOCTYPE svg PUBLIC "-//W3C//DTD SVG 1.1//EN" "http://www.w3.org/Graphics/SVG/1.1/DTD/svg11.dtd">
<svg version="1.1" id="Layer_1" xmlns="http://www.w3.org/2000/svg" xmlns:xlink="http://www.w3.org/1999/xlink" x="0px" y="0px"
	 viewBox="0 0 512 512" enable-background="new 0 0 512 512" xml:space="preserve">
<g>
	<path d="M310.4,219.6c0-29.6-24.5-54.4-54.4-54.4s-54.4,24.8-54.4,54.4c0,29.9,24.5,54.7,54.4,54.7S310.4,249.5,310.4,219.6z"/>
	<path d="M432,470l-111.1-67.8c74.8-26.6,128.5-98.3,128.5-182.6C449.3,112.8,363,26,256,26C149,26,62.7,112.8,62.7,219.6
		c0,84.3,53.6,156.1,128.5,182.6L78,470l0.3,16h354.2L432,470z M163,219.6c0-51.3,41.6-93,93-93s93,41.6,93,93c0,51.6-41.6,93-93,93
		S163,271.2,163,219.6z"/>
</g>
</svg>
