<?xml version="1.0" encoding="utf-8"?>
<!-- Generator: Adobe Illustrator 19.1.0, SVG Export Plug-In . SVG Version: 6.00 Build 0)  -->
<!DOCTYPE svg PUBLIC "-//W3C//DTD SVG 1.1//EN" "http://www.w3.org/Graphics/SVG/1.1/DTD/svg11.dtd">
<svg version="1.1" id="Layer_1" xmlns="http://www.w3.org/2000/svg" xmlns:xlink="http://www.w3.org/1999/xlink" x="0px" y="0px"
	 viewBox="0 0 512 512" enable-background="new 0 0 512 512" xml:space="preserve">
<polygon points="26,125.6 26,126 26.4,125.6 "/>
<polygon points="485.9,386.2 485.4,386.6 485.9,386.6 "/>
<polygon points="26,126 26,126.1 26,126 "/>
<polygon points="485.9,386.1 485.9,386.1 485.9,386.2 "/>
<path d="M127,29L127,29v0.4L26.2,125.8L26,126v0.1V483h357v0.1l0.5-0.1l101.8-96.6l0.7-0.2v-0.1V29H127z M127,78.2V126H78.1
	L127,78.2z M62,162h65v199.8l-65,62V162z M348,448H88.5l64.5-62h195V448z M348,351H163V162h185V351z M359,126H163V65l260.7-0.1
	L359,126z M383,434v-48h50.8L383,434z M450,351h-67V151l67-63L450,351z"/>
</svg>
