<?xml version="1.0" encoding="utf-8"?>
<!-- Generator: Adobe Illustrator 18.1.1, SVG Export Plug-In . SVG Version: 6.00 Build 0)  -->
<!DOCTYPE svg PUBLIC "-//W3C//DTD SVG 1.1//EN" "http://www.w3.org/Graphics/SVG/1.1/DTD/svg11.dtd">
<svg version="1.1" xmlns="http://www.w3.org/2000/svg" xmlns:xlink="http://www.w3.org/1999/xlink" x="0px" y="0px"
	 viewBox="0 0 512 512" enable-background="new 0 0 512 512" xml:space="preserve">
<g id="Layer_1">
	<g>
		<path d="M462.4,433.8L365.6,337c21.6-27.9,34.5-62.8,34.5-100.6c0-91.2-74.8-165.4-166.8-165.4c-92,0-166.9,74.2-166.9,165.4
			c0,91.2,74.8,165.5,166.9,165.5c37.7,0,72.4-12.4,100.4-33.4l97,97c4.4,4.4,10.1,6.6,15.8,6.6s11.5-2.2,15.8-6.6
			C471.1,456.7,471.1,442.5,462.4,433.8z M111.3,236.4c0-66.5,54.7-120.6,122-120.6c67.3,0,122,54.1,122,120.6
			c0,66.5-54.7,120.6-122,120.6C166,357,111.3,302.9,111.3,236.4z"/>
		<path d="M283.5,212H178.9c-12.4,0-22.4,10.1-22.4,22.5c0,12.4,10,22.5,22.4,22.5h104.6c12.4,0,22.4-10.1,22.4-22.5
			C306,222.1,295.9,212,283.5,212z"/>
	</g>
</g>
<g id="Layer_2">
</g>
</svg>
