<?xml version="1.0" encoding="utf-8"?>
<!-- Generator: Adobe Illustrator 16.0.0, SVG Export Plug-In . SVG Version: 6.00 Build 0)  -->
<!DOCTYPE svg PUBLIC "-//W3C//DTD SVG 1.1//EN" "http://www.w3.org/Graphics/SVG/1.1/DTD/svg11.dtd">
<svg version="1.1" id="Layer_1" xmlns="http://www.w3.org/2000/svg" xmlns:xlink="http://www.w3.org/1999/xlink" x="0px" y="0px"
	 width="300px" height="300px" viewBox="0 0 300 300" style="enable-background:new 0 0 300 300;" xml:space="preserve">
<g>
	<g>
		<path d="M204.801,203.24c0,30.315-24.605,54.785-54.92,54.785c-30.179,0-54.92-24.47-54.92-54.785
			c0-30.043,24.741-54.648,54.92-54.648C180.195,148.592,204.801,173.197,204.801,203.24z"/>
	</g>
	<g>
		<g>
			<path d="M218.043,147.323c-3.215,0-6.431-1.226-8.885-3.679c-15.925-15.908-37.092-24.67-59.602-24.67
				c-22.298,0-43.325,8.624-59.207,24.285c-4.943,4.874-12.904,4.819-17.778-0.125c-4.875-4.943-4.819-12.902,0.125-17.778
				c20.616-20.328,47.913-31.524,76.86-31.524c29.221,0,56.699,11.374,77.371,32.025c4.912,4.907,4.916,12.866,0.009,17.779
				C224.481,146.094,221.262,147.323,218.043,147.323z"/>
		</g>
		<g>
			<path d="M254.831,110.534c-3.211,0-6.422-1.222-8.876-3.669c-25.708-25.632-59.857-39.748-96.157-39.748
				c-36.197,0-70.278,14.051-95.965,39.562c-4.926,4.892-12.886,4.865-17.778-0.062c-4.893-4.925-4.866-12.885,0.061-17.779
				c30.429-30.221,70.802-46.864,113.683-46.864c43.002,0,83.456,16.723,113.909,47.086c4.917,4.902,4.929,12.861,0.026,17.778
				C261.278,109.303,258.054,110.534,254.831,110.534z"/>
		</g>
	</g>
</g>
<g id="Restricted">
</g>
<g id="Help">
</g>
</svg>
