<?xml version="1.0" encoding="utf-8"?>
<!-- Generator: Adobe Illustrator 16.0.0, SVG Export Plug-In . SVG Version: 6.00 Build 0)  -->
<!DOCTYPE svg PUBLIC "-//W3C//DTD SVG 1.1//EN" "http://www.w3.org/Graphics/SVG/1.1/DTD/svg11.dtd">
<svg version="1.1" id="Layer_1" xmlns="http://www.w3.org/2000/svg" xmlns:xlink="http://www.w3.org/1999/xlink" x="0px" y="0px"
	 width="300px" height="300px" viewBox="0 0 300 300" style="enable-background:new 0 0 300 300;" xml:space="preserve">
<path d="M207.019,93.847c0,22.14-18.059,40.197-40.321,40.197c-22.264,0-40.073-18.058-40.073-40.197
	c0-22.263,17.81-40.197,40.073-40.197C188.96,53.65,207.019,71.584,207.019,93.847z M112.895,93.847
	c0,22.14-17.935,40.197-40.197,40.197c-22.14,0-40.197-18.058-40.197-40.197c0-22.263,18.058-40.197,40.197-40.197
	C94.96,53.65,112.895,71.584,112.895,93.847z M267.5,201.824c0,3.587-2.845,7.421-6.308,6.308c0,0-29.189-12.863-39.703-17.687
	c-3.216-1.361-6.308-2.721-6.308-6.308v-20.408c0-3.463,2.845-6.679,6.308-7.545c10.637-2.968,39.703-13.853,39.703-13.853
	c3.71-0.99,6.308,2.721,6.308,6.308V201.824z M198.731,142.332H44.003c-5.937,0-10.885,4.329-10.885,9.895v84.229
	c0,5.442,4.948,9.894,10.885,9.894h154.729c6.061,0,10.884-4.452,10.884-9.894v-84.229
	C209.615,146.661,204.792,142.332,198.731,142.332z M134.663,206.153c0,2.968-2.845,5.442-6.06,5.442H61.071
	c-3.34,0-5.937-2.474-5.937-5.442v-31.168c0-2.969,2.597-5.442,5.937-5.442h67.532c3.215,0,6.06,2.474,6.06,5.442V206.153z
	 M176.345,179.313c-3.215,0-5.689-2.474-5.689-5.442s2.475-5.442,5.689-5.442c3.34,0,5.937,2.474,5.937,5.442
	S179.685,179.313,176.345,179.313z"/>
<g id="Restricted">
</g>
<g id="Help">
</g>
</svg>
