<?xml version="1.0" encoding="utf-8"?>
<!-- Generator: Adobe Illustrator 16.0.0, SVG Export Plug-In . SVG Version: 6.00 Build 0)  -->
<!DOCTYPE svg PUBLIC "-//W3C//DTD SVG 1.1//EN" "http://www.w3.org/Graphics/SVG/1.1/DTD/svg11.dtd">
<svg version="1.1" id="Layer_1" xmlns="http://www.w3.org/2000/svg" xmlns:xlink="http://www.w3.org/1999/xlink" x="0px" y="0px"
	 width="300px" height="300px" viewBox="0 0 300 300" style="enable-background:new 0 0 300 300;" xml:space="preserve">
<path d="M215.058,245.855H84.818v-30.922h130.239V245.855z M247.339,89.271c-11.131,0-20.16,9.029-20.16,20.036
	c0,4.577,1.484,8.781,4.082,12.121l-31.416,29.313L185.497,93.6c8.287-2.474,14.348-10.142,14.348-19.294
	c0-11.132-8.905-20.161-20.037-20.161c-11.131,0-20.16,9.029-20.16,20.161c0,8.533,5.195,15.708,12.616,18.676L150,149.011
	l-22.387-56.029c7.421-2.968,12.739-10.143,12.739-18.676c0-11.132-9.029-20.161-20.16-20.161c-11.132,0-20.161,9.029-20.161,20.161
	c0,9.152,6.062,16.82,14.348,19.294l-14.224,57.143l-31.416-29.313c2.474-3.34,3.958-7.544,3.958-12.121
	c0-11.007-9.029-20.036-20.036-20.036c-11.132,0-20.161,9.029-20.161,20.036c0,11.132,9.029,20.161,20.161,20.161
	c1.607,0,3.215-0.248,4.823-0.619l27.705,76.562H150h64.811l27.705-76.562c1.484,0.371,3.093,0.619,4.823,0.619
	c11.132,0,20.161-9.029,20.161-20.161C267.5,98.301,258.471,89.271,247.339,89.271z"/>
<g id="Restricted">
</g>
<g id="Help">
</g>
</svg>
