<?xml version="1.0" encoding="utf-8"?>
<!-- Generator: Adobe Illustrator 16.0.0, SVG Export Plug-In . SVG Version: 6.00 Build 0)  -->
<!DOCTYPE svg PUBLIC "-//W3C//DTD SVG 1.1//EN" "http://www.w3.org/Graphics/SVG/1.1/DTD/svg11.dtd">
<svg version="1.1" id="Layer_1" xmlns="http://www.w3.org/2000/svg" xmlns:xlink="http://www.w3.org/1999/xlink" x="0px" y="0px"
	 width="300px" height="300px" viewBox="0 0 300 300" style="enable-background:new 0 0 300 300;" xml:space="preserve">
<path d="M70.825,263.828V32.5h43.374v100.861c11.13-22.719,28.687-34.079,52.668-34.079c19.277,0,34.539,7.114,45.669,21.343
	c11.016,14.113,16.638,33.621,16.638,58.406c0,26.85-6.311,48.308-18.818,64.372s-29.26,24.097-50.144,24.097
	c-18.015,0-33.276-6.655-46.013-19.966l-8.032,16.294H70.825z M114.199,221.831c10.557,11.704,21.802,17.556,33.735,17.556
	c10.557,0,19.163-5.163,25.474-15.49s9.524-24.097,9.524-41.193c0-32.933-10.671-49.342-31.785-49.342
	c-12.852,0-25.129,8.147-36.948,24.671V221.831z"/>
<g id="Restricted">
</g>
<g id="Help">
</g>
</svg>
