<?xml version="1.0" encoding="utf-8"?>
<!-- Generator: Adobe Illustrator 16.0.0, SVG Export Plug-In . SVG Version: 6.00 Build 0)  -->
<!DOCTYPE svg PUBLIC "-//W3C//DTD SVG 1.1//EN" "http://www.w3.org/Graphics/SVG/1.1/DTD/svg11.dtd">
<svg version="1.1" id="Layer_1" xmlns="http://www.w3.org/2000/svg" xmlns:xlink="http://www.w3.org/1999/xlink" x="0px" y="0px"
	 width="300px" height="300px" viewBox="0 0 300 300" style="enable-background:new 0 0 300 300;" xml:space="preserve">
<path d="M49.994,247.003l-4.699-1.827l-1.567-3.787c-1.436-5.613,2.35-11.229,14.623-27.025c3.524-4.568,8.485-10.966,10.835-14.883
	C45.816,183.553,32.5,161.228,32.5,137.729c0-46.74,52.613-84.731,117.5-84.731s117.5,37.991,117.5,84.731
	c0,46.869-52.613,84.729-117.5,84.729c-14.23,0-28.069-1.827-41.256-5.354c-3.395,1.046-16.319,8.749-25.066,13.97
	C63.964,242.563,56,247.003,51.169,247.003H49.994z"/>
<g id="Restricted">
</g>
<g id="Help">
</g>
</svg>
