<?xml version="1.0" encoding="utf-8"?>
<!-- Generator: Adobe Illustrator 16.0.0, SVG Export Plug-In . SVG Version: 6.00 Build 0)  -->
<!DOCTYPE svg PUBLIC "-//W3C//DTD SVG 1.1//EN" "http://www.w3.org/Graphics/SVG/1.1/DTD/svg11.dtd">
<svg version="1.1" id="Layer_1" xmlns="http://www.w3.org/2000/svg" xmlns:xlink="http://www.w3.org/1999/xlink" x="0px" y="0px"
	 width="300px" height="300px" viewBox="0 0 300 300" style="enable-background:new 0 0 300 300;" xml:space="preserve">
<g id="Restricted">
</g>
<g id="Help">
	<path d="M233.089,66.916C210.145,43.967,180.071,32.5,150,32.5S89.857,43.967,66.913,66.916
		c-45.884,45.885-45.884,120.284,0,166.168C89.857,256.025,119.929,267.5,150,267.5s60.145-11.475,83.089-34.416
		C278.971,187.2,278.971,112.801,233.089,66.916z M50.86,149.999c0-26.485,10.31-51.376,29.034-70.104
		C98.622,61.172,123.518,50.859,150,50.859c20.093,0,39.272,5.951,55.539,16.996L67.858,205.537
		C56.81,189.271,50.86,170.092,50.86,149.999z M220.106,220.104c-18.728,18.723-43.622,29.036-70.106,29.036
		c-20.093,0-39.272-5.953-55.538-17.004l137.662-137.66C258.204,133.023,254.211,185.994,220.106,220.104z"/>
</g>
</svg>
