<?xml version="1.0" encoding="utf-8"?>
<!-- Generator: Adobe Illustrator 16.0.0, SVG Export Plug-In . SVG Version: 6.00 Build 0)  -->
<!DOCTYPE svg PUBLIC "-//W3C//DTD SVG 1.1//EN" "http://www.w3.org/Graphics/SVG/1.1/DTD/svg11.dtd">
<svg version="1.1" id="Layer_1" xmlns="http://www.w3.org/2000/svg" xmlns:xlink="http://www.w3.org/1999/xlink" x="0px" y="0px"
	 width="300px" height="300px" viewBox="0 0 300 300" style="enable-background:new 0 0 300 300;" xml:space="preserve">
<path d="M81.611,174.211c0,0,28.687,38.326,68.389,38.326c41.194,0,68.389-38.326,68.389-38.326S184.08,197.046,150,197.046
	C115.461,197.046,81.611,174.211,81.611,174.211z M150,32.5C85.168,32.5,32.5,85.168,32.5,150S85.168,267.5,150,267.5
	S267.5,214.832,267.5,150S214.832,32.5,150,32.5z M150,252.583C93.43,252.583,47.417,206.57,47.417,150S93.43,47.417,150,47.417
	S252.583,93.43,252.583,150S206.57,252.583,150,252.583z M110.183,142.886c10.557,0,19.048-8.491,19.048-19.048
	c0-10.441-8.491-18.934-19.048-18.934c-10.442,0-18.933,8.492-18.933,18.934C91.25,134.395,99.741,142.886,110.183,142.886z
	 M189.702,142.886c10.557,0,19.048-8.491,19.048-19.048c0-10.441-8.491-18.934-19.048-18.934c-10.442,0-18.933,8.492-18.933,18.934
	C170.769,134.395,179.26,142.886,189.702,142.886z"/>
<g id="Restricted">
</g>
<g id="Help">
</g>
</svg>
