<?xml version="1.0" encoding="utf-8"?>
<!-- Generator: Adobe Illustrator 16.0.0, SVG Export Plug-In . SVG Version: 6.00 Build 0)  -->
<!DOCTYPE svg PUBLIC "-//W3C//DTD SVG 1.1//EN" "http://www.w3.org/Graphics/SVG/1.1/DTD/svg11.dtd">
<svg version="1.1" id="Layer_1" xmlns="http://www.w3.org/2000/svg" xmlns:xlink="http://www.w3.org/1999/xlink" x="0px" y="0px"
	 width="300px" height="300px" viewBox="0 0 300 300" style="enable-background:new 0 0 300 300;" xml:space="preserve">
<path d="M153.672,234.912c-61.733,0-111.763-62.996-113.828-66.323l-2.524-4.245l2.524-4.361
	c0.803-1.146,7.229-11.818,18.015-25.129C60.269,131.87,32.5,97.332,32.5,97.332s37.521,23.522,39.932,21.113
	c4.131-4.361,8.605-8.606,13.426-12.737c2.18-1.95-12.737-32.702-12.737-32.702s24.785,23.293,27.425,21.457
	c3.9-2.524,7.803-4.934,11.818-7.114c1.951-1.032-4.36-22.261-4.36-22.261s15.605,17.098,18.359,16.18
	c8.376-2.984,17.097-4.59,26.048-4.59c3.9,0,7.803,0.229,11.589,0.918c2.868,0.459,14.229-10.213,14.229-10.213
	s1.836,14.344,5.394,15.835c5.163,2.181,10.098,4.704,14.802,7.573c2.868,1.721,22.604-11.59,22.604-11.59
	s-8.262,21.458-5.393,23.753c5.164,4.131,9.868,8.606,14.344,12.966c2.754,2.754,30.752-16.408,30.752-16.408
	s-16.868,31.555-14.229,34.883c11.13,13.54,17.67,24.441,18.474,25.588l2.524,4.361l-2.524,4.245
	C262.91,171.916,215.405,234.912,153.672,234.912z M51.089,164.344c10.786,16.293,53.931,61.848,102.583,61.848
	c48.768,0,89.158-45.555,100.059-61.848c-10.9-16.295-52.668-66.324-101.32-66.324C103.643,98.02,61.875,147.935,51.089,164.344z
	 M152.41,117.297c-16.868,0-31.326,9.869-39.129,24.212L132.788,157c3.099-8.377,10.671-14.344,19.622-14.344
	c11.589,0,20.998,9.868,20.998,22.146c0,12.162-9.409,22.146-20.998,22.146c-11.59,0-20.999-9.983-20.999-22.146
	c0-0.115,0.114-0.23,0.114-0.345l-23.637-4.819c-0.23,1.721-0.574,3.328-0.574,5.164c0,26.162,20.195,47.504,45.096,47.504
	c24.899,0,45.095-21.342,45.095-47.504C197.505,138.525,177.31,117.297,152.41,117.297z"/>
<g id="Restricted">
</g>
<g id="Help">
</g>
</svg>
