<?xml version="1.0" encoding="utf-8"?>
<!-- Generator: Adobe Illustrator 16.0.0, SVG Export Plug-In . SVG Version: 6.00 Build 0)  -->
<!DOCTYPE svg PUBLIC "-//W3C//DTD SVG 1.1//EN" "http://www.w3.org/Graphics/SVG/1.1/DTD/svg11.dtd">
<svg version="1.1" id="Layer_1" xmlns="http://www.w3.org/2000/svg" xmlns:xlink="http://www.w3.org/1999/xlink" x="0px" y="0px"
	 width="300px" height="300px" viewBox="0 0 300 300" style="enable-background:new 0 0 300 300;" xml:space="preserve">
<path d="M59.112,45.97C44.469,45.97,32.5,57.812,32.5,72.455c0,14.644,11.969,26.613,26.612,26.613s26.485-11.969,26.485-26.613
	C85.598,57.812,73.756,45.97,59.112,45.97z M108.081,60.486v24.066H267.5V60.486H108.081z M59.112,123.388
	C44.469,123.388,32.5,135.357,32.5,150s11.969,26.612,26.612,26.612S85.598,164.643,85.598,150S73.756,123.388,59.112,123.388z
	 M108.081,162.096H267.5v-24.192H108.081V162.096z M59.112,200.932c-14.644,0-26.612,11.842-26.612,26.613
	c0,14.643,11.969,26.485,26.612,26.485s26.485-11.842,26.485-26.485C85.598,212.774,73.756,200.932,59.112,200.932z
	 M108.081,239.514H267.5v-24.066H108.081V239.514z"/>
<g id="Restricted">
</g>
<g id="Help">
</g>
</svg>
