<?xml version="1.0" encoding="utf-8"?>
<!-- Generator: Adobe Illustrator 16.0.0, SVG Export Plug-In . SVG Version: 6.00 Build 0)  -->
<!DOCTYPE svg PUBLIC "-//W3C//DTD SVG 1.1//EN" "http://www.w3.org/Graphics/SVG/1.1/DTD/svg11.dtd">
<svg version="1.1" id="Layer_1" xmlns="http://www.w3.org/2000/svg" xmlns:xlink="http://www.w3.org/1999/xlink" x="0px" y="0px"
	 width="300px" height="300px" viewBox="0 0 300 300" style="enable-background:new 0 0 300 300;" xml:space="preserve">
<path d="M59.112,52.97C44.469,52.97,32.5,64.812,32.5,79.455c0,14.644,11.969,26.613,26.612,26.613s26.485-11.969,26.485-26.613
	C85.598,64.812,73.756,52.97,59.112,52.97z M108.081,67.486v24.066H267.5V67.486H108.081z M59.112,130.388
	C44.469,130.388,32.5,142.357,32.5,157s11.969,26.612,26.612,26.612S85.598,171.643,85.598,157S73.756,130.388,59.112,130.388z
	 M108.081,169.096H267.5v-24.192H108.081V169.096z M59.112,207.932c-14.644,0-26.612,11.842-26.612,26.613
	c0,14.643,11.969,26.485,26.612,26.485s26.485-11.842,26.485-26.485C85.598,219.774,73.756,207.932,59.112,207.932z
	 M108.081,246.514H267.5v-24.066H108.081V246.514z"/>
<g id="Restricted">
</g>
<g id="Help">
</g>
</svg>
