<?xml version="1.0" encoding="utf-8"?>
<!-- Generator: Adobe Illustrator 16.0.0, SVG Export Plug-In . SVG Version: 6.00 Build 0)  -->
<!DOCTYPE svg PUBLIC "-//W3C//DTD SVG 1.1//EN" "http://www.w3.org/Graphics/SVG/1.1/DTD/svg11.dtd">
<svg version="1.1" id="Layer_1" xmlns="http://www.w3.org/2000/svg" xmlns:xlink="http://www.w3.org/1999/xlink" x="0px" y="0px"
	 width="300px" height="300px" viewBox="0 0 300 300" style="enable-background:new 0 0 300 300;" xml:space="preserve">
<path d="M224.136,159.037c0,12.992-8.344,18.951-18.474,16.806c-48.987-11.442-97.855,24.792-146.843,13.349
	c-10.25-2.265-18.356-17.282-18.356-30.155c0-31.348,0-62.694,0-94.042c0-12.873,8.106-19.07,18.356-16.806
	c48.987,11.442,97.855-24.792,146.843-13.469c10.13,2.384,18.474,17.402,18.474,30.274
	C224.136,96.343,224.136,127.689,224.136,159.037z M259.537,244.735c0,12.515-5.483,22.765-12.158,22.765l0,0
	c-6.795,0-12.158-10.25-12.158-22.765V63.208c0-12.634,5.363-22.765,12.158-22.765l0,0c6.675,0,12.158,10.131,12.158,22.765V244.735
	z"/>
<g id="Restricted">
</g>
<g id="Help">
</g>
</svg>
