<?xml version="1.0" encoding="utf-8"?>
<!-- Generator: Adobe Illustrator 16.0.0, SVG Export Plug-In . SVG Version: 6.00 Build 0)  -->
<!DOCTYPE svg PUBLIC "-//W3C//DTD SVG 1.1//EN" "http://www.w3.org/Graphics/SVG/1.1/DTD/svg11.dtd">
<svg version="1.1" id="Layer_1" xmlns="http://www.w3.org/2000/svg" xmlns:xlink="http://www.w3.org/1999/xlink" x="0px" y="0px"
	 width="300px" height="300px" viewBox="0 0 300 300" style="enable-background:new 0 0 300 300;" xml:space="preserve">
<g id="Restricted">
</g>
<g id="Help">
</g>
<path d="M211.288,196.19l-3.371-22.309c14.482-12.403,24.144-38.561,24.144-57.49c0-28.978-22.637-52.46-50.561-52.46
	s-50.56,23.495-50.56,52.472c0,18.929,9.66,45.104,24.143,57.508l-3.37,22.278c-16.985,2.162-32.024,7.262-43.8,13.484
	c-0.81-0.124-1.626-0.238-2.449-0.343l-2.26-14.946c9.706-8.313,16.181-25.841,16.181-38.527c0-19.42-15.171-35.157-33.885-35.157
	s-33.885,15.747-33.885,35.167c0,12.687,6.475,30.229,16.181,38.542l-2.259,14.92C39.141,212.689,19.73,226,18.441,236h63h71.117
	h129C279.635,222,250.672,201.204,211.288,196.19z"/>
</svg>
