<?xml version="1.0" encoding="utf-8"?>
<!-- Generator: Adobe Illustrator 16.0.0, SVG Export Plug-In . SVG Version: 6.00 Build 0)  -->
<!DOCTYPE svg PUBLIC "-//W3C//DTD SVG 1.1//EN" "http://www.w3.org/Graphics/SVG/1.1/DTD/svg11.dtd">
<svg version="1.1" id="Layer_1" xmlns="http://www.w3.org/2000/svg" xmlns:xlink="http://www.w3.org/1999/xlink" x="0px" y="0px"
	 width="300px" height="300px" viewBox="0 0 300 300" style="enable-background:new 0 0 300 300;" xml:space="preserve">
<path d="M201.607,193.611l-3.166-20.952c13.6-11.647,22.672-36.213,22.672-53.988c0-27.211-21.257-49.263-47.479-49.263
	c-25.682,0-46.587,21.167-47.438,47.603c-6.163-5.162-14-8.259-22.537-8.259c-19.832,0-35.91,16.688-35.91,37.269
	c0,13.444,6.861,32.036,17.147,40.846l-2.394,15.841C54.531,206.268,33.961,221,32.595,231h47.08h95.051h92.869
	C265.789,218,238.591,198.318,201.607,193.611z M137.818,159.037c3.168,5.372,6.878,10.108,11.01,13.646l-3.166,20.87
	c-7.642,0.973-14.857,2.571-21.526,4.602l-1.713-11.33C129.634,180.65,135.158,169.678,137.818,159.037z"/>
<g id="Restricted">
</g>
<g id="Help">
</g>
</svg>
