<?xml version="1.0" encoding="utf-8"?>
<!-- Generator: Adobe Illustrator 16.0.0, SVG Export Plug-In . SVG Version: 6.00 Build 0)  -->
<!DOCTYPE svg PUBLIC "-//W3C//DTD SVG 1.1//EN" "http://www.w3.org/Graphics/SVG/1.1/DTD/svg11.dtd">
<svg version="1.1" id="Layer_1" xmlns="http://www.w3.org/2000/svg" xmlns:xlink="http://www.w3.org/1999/xlink" x="0px" y="0px"
	 width="300px" height="300px" viewBox="0 0 300 300" style="enable-background:new 0 0 300 300;" xml:space="preserve">
<path d="M243.234,150c0-3.065-0.256-6.258-0.51-9.196l22.222-15.198c-1.66-8.174-4.214-15.965-7.534-23.372L230.462,103
	c-3.193-5.364-6.769-10.345-10.856-14.942l8.94-25.416c-6.003-5.492-12.645-10.218-19.796-14.433l-21.329,16.476
	c-5.492-2.426-11.367-4.343-17.625-5.619l-7.536-25.927C158.302,32.755,154.087,32.5,150,32.5s-8.174,0.255-12.261,0.639
	l-7.536,25.927c-6.13,1.276-12.005,3.193-17.625,5.619L91.25,48.209c-7.152,4.215-13.793,8.941-19.796,14.433l9.068,25.416
	c-4.214,4.597-7.663,9.579-10.983,14.942l-26.821-0.766c-3.32,7.407-6.003,15.198-7.663,23.372l22.222,15.198
	c-0.255,2.938-0.383,6.13-0.383,9.196s0.128,6.258,0.383,9.196l-22.222,15.198c1.66,8.046,4.342,15.837,7.663,23.372l26.821-0.894
	c3.321,5.491,6.77,10.345,10.983,14.943l-9.068,25.543c6.003,5.492,12.644,10.217,19.796,14.432l21.329-16.603
	c5.62,2.554,11.495,4.47,17.625,5.748l7.536,25.799c4.087,0.511,8.174,0.766,12.261,0.766s8.302-0.255,12.261-0.766l7.536-25.799
	c6.258-1.277,12.133-3.193,17.625-5.748l21.329,16.603c7.152-4.214,13.793-8.94,19.796-14.432l-8.94-25.543
	c4.087-4.598,7.663-9.452,10.856-14.943l26.949,0.894c3.32-7.535,5.875-15.326,7.534-23.372l-22.222-15.198
	C242.978,156.258,243.234,153.065,243.234,150z M150,198.15c-26.565,0-48.15-21.584-48.15-48.15s21.584-48.15,48.15-48.15
	s48.15,21.584,48.15,48.15S176.565,198.15,150,198.15z"/>
<g id="Restricted">
</g>
<g id="Help">
</g>
</svg>
