<?xml version="1.0" encoding="utf-8"?>
<!-- Generator: Adobe Illustrator 16.0.0, SVG Export Plug-In . SVG Version: 6.00 Build 0)  -->
<!DOCTYPE svg PUBLIC "-//W3C//DTD SVG 1.1//EN" "http://www.w3.org/Graphics/SVG/1.1/DTD/svg11.dtd">
<svg version="1.1" id="Layer_1" xmlns="http://www.w3.org/2000/svg" xmlns:xlink="http://www.w3.org/1999/xlink" x="0px" y="0px"
	 width="300px" height="300px" viewBox="0 0 300 300" style="enable-background:new 0 0 300 300;" xml:space="preserve">
<g>
	<g>
		<rect x="45" y="100" width="94" height="76"/>
		<rect x="161" y="100" width="94" height="76"/>
		<rect x="45" y="198" width="94" height="76"/>
		<rect x="161" y="198" width="94" height="76"/>
	</g>
	<g>
		<path d="M125.06,92.607c-9.361,0-18.986-4.304-26.405-11.81c-6.267-6.339-10.268-14.269-11.266-22.33
			c-1.066-8.611,1.499-16.691,7.038-22.167c4.613-4.56,11.02-7.07,18.04-7.07c9.361,0,18.986,4.305,26.405,11.811
			c13.418,13.574,15.313,33.535,4.227,44.496C138.486,90.097,132.081,92.607,125.06,92.607z M112.467,43.231
			c-2.343,0-5.667,0.525-8.198,3.027c-3.322,3.284-3.297,7.981-2.986,10.49c0.611,4.937,3.282,10.115,7.328,14.207
			c4.737,4.792,10.886,7.652,16.449,7.652c2.343,0,5.666-0.525,8.196-3.026c5.502-5.44,3.515-16.75-4.341-24.698
			C124.179,46.092,118.03,43.231,112.467,43.231z"/>
	</g>
	<g>
		<path d="M181.796,92.741c-11.857,0-20.486-4.221-24.299-11.885c-7.178-14.434,6.241-34.684,31.213-47.104
			c10.833-5.388,22.231-8.355,32.096-8.355c11.858,0,20.488,4.221,24.3,11.886c7.178,14.433-6.24,34.683-31.212,47.103
			C203.06,89.774,191.661,92.741,181.796,92.741z M220.806,39.397c-7.743,0-16.927,2.447-25.861,6.89
			c-19.087,9.494-27.504,23.123-24.913,28.334c1.264,2.541,5.772,4.12,11.765,4.12c7.744,0,16.928-2.447,25.862-6.891
			c19.088-9.493,27.504-23.122,24.912-28.333C231.306,40.976,226.798,39.397,220.806,39.397z"/>
	</g>
</g>
<g id="Restricted">
</g>
<g id="Help">
</g>
</svg>
