<?xml version="1.0" encoding="utf-8"?>
<!-- Generator: Adobe Illustrator 16.0.0, SVG Export Plug-In . SVG Version: 6.00 Build 0)  -->
<!DOCTYPE svg PUBLIC "-//W3C//DTD SVG 1.1//EN" "http://www.w3.org/Graphics/SVG/1.1/DTD/svg11.dtd">
<svg version="1.1" id="Layer_1" xmlns="http://www.w3.org/2000/svg" xmlns:xlink="http://www.w3.org/1999/xlink" x="0px" y="0px"
	 width="300px" height="300px" viewBox="0 0 300 300" style="enable-background:new 0 0 300 300;" xml:space="preserve">
<path d="M150.047,262.503l-9.529-12.707c-34.678-50.163-54.267-66.045-67.898-79.943c-10.324-10.457-27.927-24.354-36.53-44.869
	c-6.882-16.279-3.574-39.31,7.411-55.986c12.706-19.457,34.942-31.501,58.369-31.501c16.545,0,33.09,6.088,48.178,17.736
	c14.956-11.647,31.501-17.736,48.047-17.736c23.426,0,45.662,12.044,58.368,31.501c10.985,16.676,14.295,39.707,7.544,55.986
	c-8.603,20.516-26.338,34.413-36.662,44.869c-13.632,13.898-33.221,29.78-67.898,79.943L150.047,262.503z"/>
<g id="Restricted">
</g>
<g id="Help">
</g>
</svg>
