<?xml version="1.0" encoding="utf-8"?>
<!-- Generator: Adobe Illustrator 16.0.0, SVG Export Plug-In . SVG Version: 6.00 Build 0)  -->
<!DOCTYPE svg PUBLIC "-//W3C//DTD SVG 1.1//EN" "http://www.w3.org/Graphics/SVG/1.1/DTD/svg11.dtd">
<svg version="1.1" id="Layer_1" xmlns="http://www.w3.org/2000/svg" xmlns:xlink="http://www.w3.org/1999/xlink" x="0px" y="0px"
	 width="300px" height="300px" viewBox="0 0 300 300" style="enable-background:new 0 0 300 300;" xml:space="preserve">
<path d="M232.25,131.695h-0.495v-18.058C231.261,68.863,194.403,32.5,149.629,32.5c-44.526,0-81.384,36.239-82.002,80.766
	c0,0.248,0,8.411,0,18.429c-4.577,0.124-8.287,3.834-8.287,8.41v118.984c0,4.577,3.71,8.411,8.411,8.411h164.5
	c4.7,0,8.411-3.834,8.411-8.411V140.105C240.661,135.405,236.95,131.695,232.25,131.695z M164.471,228.787h-29.189l7.668-33.642
	c-7.297-2.845-12.492-9.895-12.492-18.306c0-10.637,8.658-19.295,19.294-19.295c10.761,0,19.419,8.658,19.419,19.295
	c0,8.905-5.813,16.327-13.853,18.553L164.471,228.787z M209.368,131.695H90.261c0-9.771,0-17.687,0.124-18.058
	c0.495-32.282,27.087-58.502,59.368-58.502c32.406,0,59.121,26.221,59.616,58.502V131.695z"/>
<g id="Restricted">
</g>
<g id="Help">
</g>
</svg>
