<?xml version="1.0" encoding="utf-8"?>
<!-- Generator: Adobe Illustrator 16.0.0, SVG Export Plug-In . SVG Version: 6.00 Build 0)  -->
<!DOCTYPE svg PUBLIC "-//W3C//DTD SVG 1.1//EN" "http://www.w3.org/Graphics/SVG/1.1/DTD/svg11.dtd">
<svg version="1.1" id="Layer_1" xmlns="http://www.w3.org/2000/svg" xmlns:xlink="http://www.w3.org/1999/xlink" x="0px" y="0px"
	 width="300px" height="300px" viewBox="0 0 300 300" style="enable-background:new 0 0 300 300;" xml:space="preserve">
<path d="M60.452,58.395c25.567,0,47.99,0,73.558,0c4.922,4.375,2.325,9.57-1.367,12.988c-4.648,4.102-9.16,10.529-8.203,21.057
	c1.367,12.305,15.586,19.551,27.071,18.73c15.86-1.094,30.49-19.414,20.919-34.59c-0.957-1.369-2.461-3.01-4.238-4.514
	c-1.504-1.504-3.282-2.461-3.282-5.605c0-6.562,5.743-5.605,12.579-5.605c22.833,0,42.384-0.41,64.671,0
	c-3.418,22.424-2.872,47.854,1.914,70.004c1.094,5.059,1.367,9.844,7.109,9.57c4.375-0.273,6.426-4.785,9.571-6.562
	c12.989-7.383,27.892,2.188,29.123,14.219c1.094,10.938-5.196,18.459-12.989,21.193c-8.75,3.281-16.817-0.547-21.466-6.016
	c-1.914-2.189-4.649-5.471-8.614-3.01c-3.008,2.053-4.238,13.811-5.059,18.186c-3.555,19.141-4.102,43.615-1.367,62.482
	c-21.192,1.504-45.803,0.41-64.671-2.188c-5.879-0.82-11.485-0.82-11.075-7.246c0.137-3.691,4.512-5.742,6.153-8.066
	c1.094-1.367,1.914-2.871,2.324-3.965c7.93-17.365-10.938-34.865-25.978-32.814c-7.793,0.957-17.774,7.793-20.782,14.082
	c-4.375,9.436-0.957,20.783,6.016,26.389c1.504,1.094,3.008,2.051,3.008,4.375c0.273,7.246-6.153,7.656-12.442,8.203
	c-6.973,0.684-13.262,1.23-19.688,1.504c-16.407,0.273-28.849,0-43.342-1.914c2.461-19.414,3.008-46.076,0.547-66.994
	c-0.41-3.008-0.547-6.836-1.367-8.477c-1.094-2.051-4.786-3.83-7.383-3.01c-1.641,0.41-2.598,2.326-3.965,3.967
	c-1.367,1.367-2.871,2.871-3.965,3.691C30.372,177.482,11.23,168.596,10,152.461c0-1.367,0-2.871,0-4.238
	c1.367-15.176,19.142-25.02,33.087-16.406c2.598,1.641,4.238,4.512,6.973,5.332c3.691,1.094,6.699-0.137,9.024-2.051
	C60.862,110.623,60.999,83.006,60.452,58.395z"/>
<g id="Restricted">
</g>
<g id="Help">
</g>
</svg>
