<?xml version="1.0" encoding="utf-8"?>
<!-- Generator: Adobe Illustrator 16.0.0, SVG Export Plug-In . SVG Version: 6.00 Build 0)  -->
<!DOCTYPE svg PUBLIC "-//W3C//DTD SVG 1.1//EN" "http://www.w3.org/Graphics/SVG/1.1/DTD/svg11.dtd">
<svg version="1.1" id="Layer_1" xmlns="http://www.w3.org/2000/svg" xmlns:xlink="http://www.w3.org/1999/xlink" x="0px" y="0px"
	 width="300px" height="300px" viewBox="0 0 300 300" style="enable-background:new 0 0 300 300;" xml:space="preserve">
<path d="M187.6,32.5l29.375,29.375L175.98,103L197,124.02l41.125-41.125L267.5,112.4V32.5H187.6z M202.222,181.203l-21.02,21.02
	l41.125,41.125L198.044,267.5H267.5v-69.456l-24.153,24.284L202.222,181.203z M103.13,175.98l-41.125,41.125L32.5,187.47v80.03
	h80.03l-29.375-29.375L124.15,197L103.13,175.98z M103,124.02L124.02,103L83.025,61.875L112.4,32.5H32.5v79.9l29.375-29.375
	L103,124.02z"/>
<g id="Restricted">
</g>
<g id="Help">
</g>
</svg>
