<?xml version="1.0" encoding="utf-8"?>
<!-- Generator: Adobe Illustrator 16.0.0, SVG Export Plug-In . SVG Version: 6.00 Build 0)  -->
<!DOCTYPE svg PUBLIC "-//W3C//DTD SVG 1.1//EN" "http://www.w3.org/Graphics/SVG/1.1/DTD/svg11.dtd">
<svg version="1.1" id="Layer_1" xmlns="http://www.w3.org/2000/svg" xmlns:xlink="http://www.w3.org/1999/xlink" x="0px" y="0px"
	 width="300px" height="300px" viewBox="0 0 300 300" style="enable-background:new 0 0 300 300;" xml:space="preserve">
<path d="M209.915,133.565c0.123,0.857,0,21.463,0,22.322c0,6.868-1.227,13.491-3.925,19.747
	c-2.576,6.009-6.255,11.406-10.915,16.066c-4.661,4.661-10.058,8.341-16.068,10.916c-6.255,2.576-12.879,3.925-19.747,3.925
	s-13.491-1.349-19.747-3.925c-6.009-2.575-11.406-6.255-16.066-10.916c-0.245-0.122-0.368-0.368-0.613-0.49l9.566-9.689
	c6.868,6.868,16.436,11.039,26.86,11.039l0,0c21.097,0,38.268-17.171,38.268-38.268v-38.145l69.421-69.912L252.966,32.5
	l-55.438,55.807V77.636c0-21.097-17.171-38.268-38.268-38.268l0,0c-21.096,0-38.267,17.171-38.267,38.268v76.657
	c0,3.312,0.491,6.623,1.226,9.689l-10.18,10.303c-2.33-5.888-3.434-12.021-3.434-18.397c0-0.859,0-21.465,0-22.322H93.028
	c0,0.857,0,21.463,0,22.322c0,8.953,1.84,17.661,5.274,25.756c0.613,1.472,1.227,2.944,1.962,4.416l-67.213,67.704L46.911,267.5
	l65.006-65.25c0.245,0.122,0.367,0.245,0.49,0.49c6.133,6.01,13.246,10.793,21.097,14.228c5.764,2.453,11.774,4.047,18.029,4.661
	V245.3h-29.56v15.332h74.695V245.3h-29.682v-23.671c6.255-0.736,12.265-2.331,18.03-4.661c7.849-3.435,14.963-8.218,21.096-14.228
	c6.01-6.133,10.793-13.124,14.227-21.097c3.436-8.095,5.152-16.803,5.152-25.756c0-0.859,0-21.465,0-22.322H209.915z"/>
<g id="Restricted">
</g>
<g id="Help">
</g>
</svg>
