<?xml version="1.0" encoding="utf-8"?>
<!-- Generator: Adobe Illustrator 16.0.0, SVG Export Plug-In . SVG Version: 6.00 Build 0)  -->
<!DOCTYPE svg PUBLIC "-//W3C//DTD SVG 1.1//EN" "http://www.w3.org/Graphics/SVG/1.1/DTD/svg11.dtd">
<svg version="1.1" id="Layer_1" xmlns="http://www.w3.org/2000/svg" xmlns:xlink="http://www.w3.org/1999/xlink" x="0px" y="0px"
	 width="300px" height="300px" viewBox="0 0 300 300" style="enable-background:new 0 0 300 300;" xml:space="preserve">
<path d="M203.896,132.525c0,0.913,0,22.952,0,23.734c0,7.303-1.435,14.346-4.304,20.996c-2.738,6.521-6.521,12.259-11.477,17.214
	c-4.955,4.955-10.824,8.738-17.214,11.477c-6.65,2.869-13.693,4.304-20.996,4.304c-7.173,0-14.346-1.435-20.865-4.304
	c-6.521-2.738-12.259-6.521-17.215-11.477c-4.955-4.955-8.868-10.693-11.476-17.214c-2.87-6.65-4.304-13.693-4.304-20.996
	c0-0.782,0-22.821,0-23.734H79.615c0,0.913,0,22.952,0,23.734c0,9.521,1.825,18.779,5.478,27.517
	c3.521,8.346,8.606,15.91,15.127,22.3c6.39,6.521,13.954,11.606,22.3,14.998c6.13,2.607,12.521,4.304,19.171,5.085v25.039h-31.43
	V267.5h79.421v-16.302h-31.56v-25.039c6.65-0.781,13.041-2.478,19.17-5.085c8.477-3.392,15.911-8.477,22.431-14.998
	c6.521-6.39,11.606-13.954,15.128-22.3c3.651-8.737,5.478-17.996,5.478-27.517c0-0.782,0.13-22.821,0-23.734H203.896z
	 M190.595,154.564c0,22.561-18.127,40.688-40.688,40.688l0,0c-22.431,0-40.688-18.128-40.688-40.688V73.188
	c0-22.431,18.257-40.688,40.688-40.688l0,0c22.562,0,40.688,18.258,40.688,40.688V154.564z"/>
<g id="Restricted">
</g>
<g id="Help">
</g>
</svg>
