<?xml version="1.0" encoding="utf-8"?>
<!-- Generator: Adobe Illustrator 16.0.0, SVG Export Plug-In . SVG Version: 6.00 Build 0)  -->
<!DOCTYPE svg PUBLIC "-//W3C//DTD SVG 1.1//EN" "http://www.w3.org/Graphics/SVG/1.1/DTD/svg11.dtd">
<svg version="1.1" id="Layer_1" xmlns="http://www.w3.org/2000/svg" xmlns:xlink="http://www.w3.org/1999/xlink" x="0px" y="0px"
	 width="300px" height="300px" viewBox="0 0 300 300" style="enable-background:new 0 0 300 300;" xml:space="preserve">
<g>
	<path d="M220.717,96.108l-45.672,7.242c-2.291-5.812-4.356-9.843-6.202-12.097c-1.84-2.252-4.891-4.516-9.142-6.812v35.516
		c24.878,6.64,41.492,13.638,49.842,21.014c11.047,9.908,16.574,22.485,16.574,37.714c0,8.929-1.983,17.12-5.955,24.575
		c-3.968,7.457-9.043,13.679-15.223,18.671c-6.181,5-12.751,8.62-19.704,10.874c-6.956,2.251-15.47,3.583-25.534,3.99V260h-17.925
		v-23.204c-12.032-1.064-21.792-3.01-29.279-5.833c-7.493-2.824-13.958-6.725-19.398-11.724c-5.445-4.987-9.64-10.372-12.585-16.14
		c-2.95-5.77-5.158-12.745-6.63-20.931l49.6-5.769c1.472,8.098,3.454,13.954,5.955,17.548c2.494,3.604,6.608,6.8,12.337,9.579
		v-43.38c-16.535-4.586-28.258-8.565-35.174-11.921c-6.918-3.354-12.91-8.741-17.985-16.152c-5.078-7.411-7.613-16.447-7.613-27.092
		c0-14.579,5.097-26.763,15.287-36.548c10.188-9.784,25.352-15.215,45.485-16.282V40h17.925v12.152
		c18.331,1.153,32.346,5.483,42.046,13.018C211.444,72.697,217.767,83.015,220.717,96.108z M141.776,83.826
		c-5.24,1.735-8.883,3.868-10.926,6.42c-2.049,2.55-3.07,5.553-3.07,8.999c0,3.623,1.037,6.771,3.113,9.442
		c2.075,2.675,5.701,4.91,10.883,6.711V83.826z M159.701,204.758c6.954-1.563,12.046-4.125,15.283-7.695
		c3.23-3.573,4.851-7.579,4.851-12.016c0-3.86-1.37-7.41-4.104-10.651c-2.735-3.239-8.078-6.256-16.029-9.037V204.758z"/>
</g>
<g id="Restricted">
</g>
<g id="Help">
</g>
</svg>
