<?xml version="1.0" encoding="utf-8"?>
<!-- Generator: Adobe Illustrator 16.0.0, SVG Export Plug-In . SVG Version: 6.00 Build 0)  -->
<!DOCTYPE svg PUBLIC "-//W3C//DTD SVG 1.1//EN" "http://www.w3.org/Graphics/SVG/1.1/DTD/svg11.dtd">
<svg version="1.1" id="Layer_1" xmlns="http://www.w3.org/2000/svg" xmlns:xlink="http://www.w3.org/1999/xlink" x="0px" y="0px"
	 width="300px" height="300px" viewBox="0 0 300 300" style="enable-background:new 0 0 300 300;" xml:space="preserve">
<path d="M150,112.276c-24.118,0-43.908,19.666-43.908,43.908c0,24.119,19.79,43.661,43.908,43.661s43.908-19.542,43.908-43.661
	C193.908,131.942,174.118,112.276,150,112.276z M258.471,78.016h-56.153l-11.379-12.245h-81.879L97.558,78.016H41.529
	c-4.947,0-9.029,4.082-9.029,8.906v138.402c0,4.824,4.082,8.905,9.029,8.905h216.942c4.947,0,9.029-4.082,9.029-8.905V86.921
	C267.5,82.097,263.418,78.016,258.471,78.016z M80.366,110.421c0,0.247-0.248,0.371-0.618,0.371H46.477
	c-0.248,0-0.495-0.124-0.495-0.371V94.96c0-0.371,0.248-0.495,0.495-0.495h33.271c0.371,0,0.618,0.124,0.618,0.495V110.421z
	 M150,215.8c-32.9,0-59.739-26.716-59.739-59.616c0-33.023,26.839-59.739,59.739-59.739s59.739,26.716,59.739,59.739
	C209.739,189.084,182.9,215.8,150,215.8z"/>
<g id="Restricted">
</g>
<g id="Help">
</g>
</svg>
