<?xml version="1.0" encoding="utf-8"?>
<!-- Generator: Adobe Illustrator 16.0.0, SVG Export Plug-In . SVG Version: 6.00 Build 0)  -->
<!DOCTYPE svg PUBLIC "-//W3C//DTD SVG 1.1//EN" "http://www.w3.org/Graphics/SVG/1.1/DTD/svg11.dtd">
<svg version="1.1" id="Layer_1" xmlns="http://www.w3.org/2000/svg" xmlns:xlink="http://www.w3.org/1999/xlink" x="0px" y="0px"
	 width="300px" height="300px" viewBox="0 0 300 300" style="enable-background:new 0 0 300 300;" xml:space="preserve">
<g>
	<path d="M231.228,66.389c-21.626-20.967-50.517-32.79-80.979-32.79c-34.862,0-67.597,15.436-89.812,42.349
		c-3.83,4.639-3.172,11.504,1.467,15.333c2.03,1.675,4.486,2.492,6.927,2.492c3.139,0,6.253-1.349,8.406-3.958
		c18.062-21.882,44.673-34.432,73.012-34.432c21.588,0,42.202,7.31,58.785,20.478l-33.195,14.167L255.758,150l11.991-99.196
		L231.228,66.389z"/>
	<g>
		<g>
			<path style="fill:none;stroke:#000000;stroke-width:15;stroke-miterlimit:10;" d="M255.758,150"/>
		</g>
	</g>
	<g>
		<g>
			<path style="fill:none;stroke:#000000;stroke-width:15;stroke-miterlimit:10;" d="M231.585,217.207"/>
		</g>
	</g>
	<g>
		<g>
			<path style="fill:none;stroke:#000000;stroke-width:15;stroke-miterlimit:10;" d="M231.585,217.207"/>
		</g>
	</g>
	<g>
		<g>
			<path style="fill:none;stroke:#000000;stroke-width:15;stroke-miterlimit:10;" d="M68.837,82.882"/>
		</g>
	</g>
	<path d="M238.528,208.815c-4.635-3.834-11.501-3.186-15.336,1.449c-18.06,21.832-44.646,34.353-72.943,34.353
		c-21.588,0-42.202-7.31-58.785-20.478l33.195-14.167L44.74,150l-11.991,99.196l36.521-15.586
		c21.626,20.967,50.517,32.79,80.979,32.79c34.812,0,67.516-15.4,89.729-42.251C243.812,219.515,243.163,212.649,238.528,208.815z"
		/>
	<g>
		<g>
			<path style="fill:none;stroke:#000000;stroke-width:15;stroke-miterlimit:10;" d="M44.74,150"/>
		</g>
	</g>
	<g>
		<g>
			<path style="fill:none;stroke:#000000;stroke-width:15;stroke-miterlimit:10;" d="M68.837,82.882"/>
		</g>
	</g>
	<g>
		<g>
			<path style="fill:none;stroke:#000000;stroke-width:15;stroke-miterlimit:10;" d="M68.837,82.882"/>
		</g>
	</g>
	<g>
		<g>
			<path style="fill:none;stroke:#000000;stroke-width:15;stroke-miterlimit:10;" d="M231.585,217.207"/>
		</g>
	</g>
</g>
<g id="Restricted">
</g>
<g id="Help">
</g>
</svg>
