<?xml version="1.0" encoding="utf-8"?>
<!-- Generator: Adobe Illustrator 16.0.0, SVG Export Plug-In . SVG Version: 6.00 Build 0)  -->
<!DOCTYPE svg PUBLIC "-//W3C//DTD SVG 1.1//EN" "http://www.w3.org/Graphics/SVG/1.1/DTD/svg11.dtd">
<svg version="1.1" id="Layer_1" xmlns="http://www.w3.org/2000/svg" xmlns:xlink="http://www.w3.org/1999/xlink" x="0px" y="0px"
	 width="300px" height="300px" viewBox="0 0 300 300" style="enable-background:new 0 0 300 300;" xml:space="preserve">
<path d="M230.397,49.348c-1.362-9.539-8.919-16.848-18.086-16.848H66.134c-10.034,0-18.211,8.919-18.211,19.821v10.034
	c0,10.901,8.177,19.821,18.211,19.821h146.178c9.787,0,17.715-8.424,18.211-18.954h7.804v35.677H135.878v13.999h0.124l0.124,31.342
	c0,0-4.708,9.415-4.956,11.521c-0.247,1.982,2.726,10.158,2.726,10.158s-6.565,61.692-7.433,82.628
	c-0.248,5.327,4.955,15.857,9.539,17.838c3.22,1.487,10.653,1.487,13.751,0c4.583-1.981,11.025-12.512,10.405-17.838
	c-2.849-25.023-8.177-82.628-8.177-82.628s4.832-8.424,4.336-10.654c-0.371-2.106-6.688-12.016-6.688-12.016l0.124-30.351h88.573
	h6.938h6.813V63.222V50.834v-1.487H230.397z"/>
<g id="Restricted">
</g>
<g id="Help">
</g>
</svg>
