<?xml version="1.0" encoding="utf-8"?>
<!-- Generator: Adobe Illustrator 16.0.0, SVG Export Plug-In . SVG Version: 6.00 Build 0)  -->
<!DOCTYPE svg PUBLIC "-//W3C//DTD SVG 1.1//EN" "http://www.w3.org/Graphics/SVG/1.1/DTD/svg11.dtd">
<svg version="1.1" id="Layer_1" xmlns="http://www.w3.org/2000/svg" xmlns:xlink="http://www.w3.org/1999/xlink" x="0px" y="0px"
	 width="300px" height="300px" viewBox="0 0 300 300" style="enable-background:new 0 0 300 300;" xml:space="preserve">
<path d="M106.74,219.192c12.967,9.639,28.229,14.688,44.293,14.688c40.734,0,73.781-33.047,73.781-73.782
	s-33.047-73.782-73.781-73.782c-8.836,0-17.557,1.606-25.703,4.59l16.752,26.851l-100.518,3.442L88.84,32.5l18.359,29.49
	c13.77-6.082,28.572-9.294,43.834-9.294c59.209,0,107.402,48.193,107.402,107.402S210.242,267.5,151.033,267.5
	c-23.408,0-45.67-7.344-64.373-21.343c-7.344-5.508-8.95-16.064-3.442-23.523C88.84,215.176,99.396,213.684,106.74,219.192z"/>
<g id="Restricted">
</g>
<g id="Help">
</g>
</svg>
