<?xml version="1.0" encoding="utf-8"?>
<!-- Generator: Adobe Illustrator 16.0.0, SVG Export Plug-In . SVG Version: 6.00 Build 0)  -->
<!DOCTYPE svg PUBLIC "-//W3C//DTD SVG 1.1//EN" "http://www.w3.org/Graphics/SVG/1.1/DTD/svg11.dtd">
<svg version="1.1" id="Layer_1" xmlns="http://www.w3.org/2000/svg" xmlns:xlink="http://www.w3.org/1999/xlink" x="0px" y="0px"
	 width="300px" height="300px" viewBox="0 0 300 300" style="enable-background:new 0 0 300 300;" xml:space="preserve">
<path d="M193.26,219.192c-12.852,9.639-28.113,14.688-44.178,14.688c-40.734,0-73.896-33.047-73.896-73.782
	s33.162-73.782,73.896-73.782c8.836,0,17.557,1.606,25.703,4.59l-16.753,26.851l100.403,3.442L211.16,32.5l-18.359,29.49
	c-13.655-6.082-28.572-9.294-43.719-9.294c-59.324,0-107.518,48.193-107.518,107.402S89.758,267.5,149.082,267.5
	c23.293,0,45.555-7.344,64.258-21.343c7.459-5.508,8.95-16.064,3.442-23.523S200.718,213.684,193.26,219.192z"/>
<g id="Restricted">
</g>
<g id="Help">
</g>
</svg>
