<?xml version="1.0" encoding="utf-8"?>
<!-- Generator: Adobe Illustrator 16.0.0, SVG Export Plug-In . SVG Version: 6.00 Build 0)  -->
<!DOCTYPE svg PUBLIC "-//W3C//DTD SVG 1.1//EN" "http://www.w3.org/Graphics/SVG/1.1/DTD/svg11.dtd">
<svg version="1.1" id="Layer_1" xmlns="http://www.w3.org/2000/svg" xmlns:xlink="http://www.w3.org/1999/xlink" x="0px" y="0px"
	 width="300px" height="300px" viewBox="0 0 300 300" style="enable-background:new 0 0 300 300;" xml:space="preserve">
<path d="M267.5,243.403l-88.01-88.01c19.851-30.867,16.294-72.52-10.671-99.485c-31.096-31.211-81.814-31.211-112.91,0
	c-31.211,31.096-31.211,81.699,0,112.91c26.965,26.965,68.618,30.522,99.485,10.671l88.01,88.01L267.5,243.403z M68.989,155.623
	c-23.867-23.867-23.867-62.766,0-86.633s62.766-23.867,86.633,0c23.982,23.867,23.982,62.766,0,86.633
	C131.755,179.49,92.856,179.49,68.989,155.623z"/>
<g id="Restricted">
</g>
<g id="Help">
</g>
</svg>
