<?xml version="1.0" encoding="utf-8"?>
<!-- Generator: Adobe Illustrator 16.0.0, SVG Export Plug-In . SVG Version: 6.00 Build 0)  -->
<!DOCTYPE svg PUBLIC "-//W3C//DTD SVG 1.1//EN" "http://www.w3.org/Graphics/SVG/1.1/DTD/svg11.dtd">
<svg version="1.1" id="Layer_1" xmlns="http://www.w3.org/2000/svg" xmlns:xlink="http://www.w3.org/1999/xlink" x="0px" y="0px"
	 width="300px" height="300px" viewBox="0 0 300 300" style="enable-background:new 0 0 300 300;" xml:space="preserve">
<path d="M150,267.5c-15.584,0-30.921-3.092-45.145-9.029c-13.729-5.937-26.097-14.224-36.734-24.984
	c-10.761-10.513-19.048-22.882-24.984-36.734c-5.937-14.224-9.029-29.437-9.029-45.145c0-9.152,0.989-18.305,3.215-27.21
	c2.103-8.534,5.195-16.945,9.153-24.861c3.958-7.792,8.782-15.213,14.347-21.892c5.69-6.679,11.998-12.74,18.8-18.058
	c6.308-4.824,15.584-3.71,20.408,2.721c4.7,6.308,3.587,15.461-2.844,20.284c-21.645,16.574-34.013,41.806-34.013,69.016
	c0,47.989,38.837,86.827,86.826,86.827s86.826-38.837,86.826-86.827c0-27.21-12.368-52.442-34.013-69.016
	c-6.431-4.823-7.544-13.976-2.845-20.284c4.824-6.431,14.1-7.544,20.408-2.721c6.803,5.318,13.11,11.379,18.8,18.058
	c5.566,6.679,10.39,14.1,14.347,21.892c3.958,7.916,7.05,16.327,9.153,24.861c2.227,8.905,3.216,18.058,3.216,27.21
	c0,15.708-3.092,30.921-9.029,45.145c-5.937,13.853-14.224,26.221-24.984,36.734c-10.637,10.761-23.005,19.047-36.734,24.984
	C180.921,264.408,165.584,267.5,150,267.5z M150.124,188.466c-8.04,0-14.595-6.432-14.595-14.471V46.971
	c0-8.04,6.555-14.471,14.595-14.471c7.916,0,14.471,6.432,14.471,14.471v127.023C164.595,182.034,158.04,188.466,150.124,188.466z"
	/>
<g id="Restricted">
</g>
<g id="Help">
</g>
</svg>
