<?xml version="1.0" encoding="utf-8"?>
<!-- Generator: Adobe Illustrator 16.0.0, SVG Export Plug-In . SVG Version: 6.00 Build 0)  -->
<!DOCTYPE svg PUBLIC "-//W3C//DTD SVG 1.1//EN" "http://www.w3.org/Graphics/SVG/1.1/DTD/svg11.dtd">
<svg version="1.1" id="Layer_1" xmlns="http://www.w3.org/2000/svg" xmlns:xlink="http://www.w3.org/1999/xlink" x="0px" y="0px"
	 width="300px" height="300px" viewBox="0 0 300 300" style="enable-background:new 0 0 300 300;" xml:space="preserve">
<g id="Restricted">
</g>
<g id="Help">
	<g>
		<path style="fill-rule:evenodd;clip-rule:evenodd;" d="M163.38,216.583c-1.206-1.053-2.411-2.104-3.751-3.275
			c-5.636,7.153-11.542,0.542-13.098-4.567c-0.387,1.255-0.746,2.521-1.165,3.765c-1.021,3.025-5.778,4.842-8.325,2.943
			c-2.23-1.668-1.633-5.201-2.139-7.406c-0.938,1.936-2.358,6.91-5.625,6.482c-1.958-0.254-2.916-1.699-3.237-3.428
			c-0.521-2.78-0.548-5.696-0.744-8.512c-0.191-0.01-0.384-0.02-0.574-0.027c-0.25,2.378,0.579,10.971-3.903,9.717
			c-9.704-2.728-29.913-13.107-31.994-23.795c-4.312,2.983-18.284-15.057-22.356-19.004c-4.223-4.091-6.708-7.889-11.696-11.885
			c-3.045-2.444-6.171-4.786-9.173-7.285c-2.868-2.398,0.204-6.599,3.566-5.435c2.973,1.028,12.444,7.614,15.093,6.712
			c8.101-2.773,7.834,5.461,7.229,10.219c5.518-7.635,15.692-10.691,25.06-8.84c-0.607,1.846-1.807,3.106-3.6,3.781
			c0.234,0.318,0.466,0.637,0.697,0.953c4.932-1.522,10.93-6.986,15.434-1.795c1.872-0.637,3.939-1.588,6.106-1.973
			c3.302-0.586,10.334,1.985,13.717,2.662c6.736,1.352-0.075,9.564-0.358,13.678c0.218,0.064,0.437,0.127,0.657,0.191
			c3.247-4.927,9.294-17.172,13.504-6.382c1.351-2.035,8.238-6.481,9.754-2.245c1.68,4.701,1.026,9.592,2.069,14.383
			c1.743-0.805,1.612-2.005,1.459-3.216c-0.466-3.703-0.927-7.406-1.435-11.479c8.023,0.389,7.377,1.217,10.678,7.825
			c-0.222-1.917-0.427-3.838-0.669-5.753c-0.328-2.603,0.312-3.682,2.854-4.381c2.222-0.762,4.275-0.441,6.159,0.963
			c1.835,1.567,2.634-0.721,4.438-1.137c4.122-0.948,6.875-3.803,10.202-1.283c1.045-1.336,2.843-3.23,4.131-0.676
			c0.417,0.826,0.958,1.59,1.771,2.213c-0.924-2.379-3.181-6.283,0.896-7.196c5.129-1.148,6.926,0.362,11.221,2.689
			c2.19-8.246,15.653-0.38,21.164-2.629c4.18-1.7,7.885-0.548,11.843,1.005c0.157,0.061,11.827-5.662,13.673-6.002
			c2.117-0.392,3.267,1.253,2.592,3.339c-1.494,4.604-7.588,8.315-11.14,11.29c-1.18,0.988-2.653,1.352-3.657-0.479
			c-1.606,1.814-0.729,4.074-2.615,6.121c-2.863,3.109-7.237,3.861-9.956,7.125c-5.688,6.826-12.254,12.67-19.168,18.298
			c-0.62-2.323-1.142-4.282-1.664-6.239c-0.083-0.002-0.169-0.004-0.252-0.005c-0.55,7.995-5.688,13.915-12.522,18.194
			c-0.285-1.295-0.537-2.425-0.83-3.746c-1.419,3.514-2.369,7.03-5.32,9.689c-2.352,2.122-3.42-0.209-4.412-2.014
			c-2.152,1.477-3.973,3.271-6.076,4.801c-1.955,1.424-3.158,1.062-3.645-1.279c-0.697-3.394-0.479-7.06-1.352-10.395
			c-0.317,4.836,0.67,12.703-5.18,14.723C166.274,216.583,164.828,216.583,163.38,216.583
			C162.175,215.53,164.828,216.583,163.38,216.583z"/>
		<path style="fill-rule:evenodd;clip-rule:evenodd;" d="M140.22,83.417c3.889,1.391,5.3,4.707,6.36,8.8
			c1.375-7.188,6.353-1.185,9.02,2.418c3.738-5.74,4.394-7.233,10.697-9.073c4.87-1.413,9.325,1.408,4.984,5.187
			c3.086-2.798,5.032-8.732,8.613-2.429c2.236-0.48,10.406,0.09,10.887,3.322c0.431,2.902-3.399,5.095-2.529,8.076
			c0.82-0.768,1.443-1.677,1.868-2.729c2.166-3.885,3.667-4.465,7.765-2.889c3.799,1.461,3.087,3.729,5.605,5.07
			c2.706,1.441,5.722,1.271,8.763,3.053c4.876,2.855,12.874,6.553,16.899,10.586c7.128,7.144,21.042,13.152,27.663,22.648
			c1.056,1.512,2.401,3.285,1.403,5.121c-1.767,3.261-9.233,1.191-11.154-0.604c-3.562-3.343-12.147-0.377-16.632-2.114
			c0.433-1.374,1.049-2.656,1.849-3.848c-0.12-0.105-0.245-0.209-0.367-0.312c-1.723,1.344-3.351,2.799-4.882,4.365
			c-2.116,1.955-14.37,1.893-14.37-2.271c0-0.407-0.092-0.813-0.145-1.257c-5.056,0.691-5.84,3.319-11.57,1.352
			c-2.642-0.908-3.479-2.553-2.561-5.234c0.86-2.501,2.708-5.027,3.058-7.678c-3.324,2.775-4.212,9-8.311,10.41
			c-2.81,0.963-5.765,1.505-8.86,2.28c0-4.591,0-8.7,0-12.808c-0.091-0.035-0.187-0.072-0.276-0.109
			c-3.22,9.222-2.795,12.586-13.126,14.543c0-4.765,0-9.377,0-13.988c-0.074-0.017-0.148-0.031-0.224-0.049
			c-0.642,4.685-0.917,9.376-1.458,14.07c-0.434,3.809-4.69,3.696-5.415-0.034c-0.202-1.034-0.268-2.095-0.444-3.548
			c-0.501,1.549-8.127,15.876-8.762,7.716c-0.419-5.358-0.296-10.75-1.051-16.075c-0.234-0.016-0.466-0.029-0.7-0.045
			c-1.181,5.448-0.73,10.979-1.539,16.466c-0.967,6.449-16.035-2.951-17.109-6.704c-0.815-2.847-0.485-6.091-1.454-8.857
			c-2.77,13.316-5.098,1.312-8.494,4.996c-2.656,2.874-8.784-0.793-12.195-0.424c-8.019,0.867-7.583,1.81-10.887-6.563
			c-0.199,0.023-0.402,0.047-0.603,0.069c-0.131,2.243,1.66,9.166-1.364,10.146c-3.353,1.089-5.529-0.165-6.137-3.637
			c-0.296-1.685-0.54-3.393-2.31-4.873c0.139,2.93,0.158,6.127-0.858,8.936c-1.711,4.73-3.901,0.273-6.392,0.689
			c-1.897,0.316-1.467,4.236-4.087,1.424c-1.885-2.025-3.004-4.061-5.366-5.582c-1.333,2.533-1.036,4.479-1.036,7.304
			c-3.207,0-6.255,0.125-9.28-0.083c-1.974-0.139-2.865-4.191-4.965-2.118c-1.929,1.901-10.624,1.899-13.733,2.888
			c-1.537,0.49-2.854,0.328-3.579-1.36c0-0.603,0-1.205,0-1.808c4.521-7.295,11.257-6.84,16.356-12.812
			c3.6-4.217,1.891-4.172,7.976-5.602c0.577-0.137,6.539-0.922,7.205-2.762c1.511-4.16,11.714-10.807,15.937-12.018
			c3.975-1.072,4.916,1.599,8.39,5.562c0.183-0.108,0.364-0.216,0.549-0.321c-0.099-2.029-0.728-3.91-1.885-5.646
			c-1.103-2.355-0.968-3.343,1.15-4.747c2.555-1.694,14.504-5.836,15.142-8.406c1.122,1.325,1.977,2.34,2.976,3.519
			c-0.587-1.881-0.413-3.676,0.523-5.385c3.895-3.877,8.862-2.447,13.284-0.751c0.596-2.636,1.841-3.551,3.055-2.334
			C133.935,86.392,137.861,83.417,140.22,83.417C144.109,84.808,139.377,83.417,140.22,83.417z"/>
	</g>
</g>
</svg>
